<svg viewBox="0 0 177 170" fill="none" xmlns="http://www.w3.org/2000/svg">
  <path d="M105.784 132.166C111.22 132.166 115.61 127.953 115.61 122.755C115.61 117.558 111.22 113.344 105.784 113.344C100.39 113.344 96 117.558 96 122.755C96 127.953 100.39 132.166 105.784 132.166Z" fill="#9DAAB3"/>
  <path d="M70.572 132.446C76.0077 132.446 80.3567 128.233 80.3567 123.035C80.3567 117.838 76.0077 113.624 70.572 113.624C65.178 113.624 60.7876 117.838 60.7876 123.035C60.7876 128.233 65.178 132.446 70.572 132.446Z" fill="#9DAAB3"/>
  <path d="M49.1176 34.1281H72.4612C76.8538 45.5415 88.3163 77.8796 89.1529 79.6814C89.3621 78.7806 100.908 43.5393 104.171 34.3283H128.435V114.723C125.423 113.121 122.411 111.519 119.148 109.717C116.888 108.616 114.797 107.414 112.496 106.513C112.287 90.8948 112.078 75.3765 111.576 59.1576C108.313 68.4685 97.0593 101.307 96.1389 102.208H81.1207C81.1207 102.208 66.5204 62.3612 65.8092 60.5592C65.6001 75.8771 65.3909 91.1951 64.8471 107.014C55.8946 111.419 50.5819 113.922 48.9087 114.522V34.1281H49.1176Z" fill="#9DAAB3"/>
  <path d="M88.5209 13.5159C129.477 13.5159 162.944 45.5535 162.944 84.9998C162.944 124.446 129.602 156.484 88.5209 156.484C47.4399 156.484 14.098 124.446 14.098 84.9998C14.098 45.5535 47.4399 13.5159 88.5209 13.5159ZM88.5209 0C39.617 0 0 38.0449 0 84.9998C0 131.955 39.617 170 88.5209 170C137.383 170 177 131.955 177 84.9998C177 38.0449 137.383 0 88.5209 0Z" fill="#9DAAB3"/>
  <path d="M88.5209 13.5159C129.477 13.5159 162.944 45.5535 162.944 84.9998C162.944 124.446 129.602 156.484 88.5209 156.484C47.4399 156.484 14.098 124.446 14.098 84.9998C14.098 45.5535 47.4399 13.5159 88.5209 13.5159ZM88.5209 0C39.617 0 0 38.0449 0 84.9998C0 131.955 39.617 170 88.5209 170C137.383 170 177 131.955 177 84.9998C177 38.0449 137.383 0 88.5209 0Z" fill="#9DAAB3"/>
</svg>
