<svg width="32" height="32" viewBox="0 0 32 32" fill="none" xmlns="http://www.w3.org/2000/svg">
<rect width="32" height="32" rx="16" fill="#9DAAB3"/>
<path id="path-to-animate" d="M18.3755 15.1188L19.9239 12.4912L24.0977 18.9921L24.0997 20.2397L24.0861 11.6547C24.0762 11.4449 23.9648 11.2529 23.787 11.1397L16.2726 6.81728C16.0969 6.73086 15.8739 6.73186 15.6985 6.82002C15.6747 6.83183 15.6524 6.84478 15.6312 6.85889L15.605 6.87535L8.31112 11.1021L8.28285 11.1149C8.24646 11.1317 8.20963 11.1529 8.17514 11.1776C8.03682 11.2768 7.94501 11.4235 7.9153 11.588C7.91083 11.6129 7.90753 11.6383 7.90601 11.6639L7.91747 18.6598L11.8051 12.6341C12.2946 11.8351 13.361 11.5777 14.351 11.5917L15.5129 11.6224L8.66678 22.6017L9.4738 23.0662L16.4019 11.6335L19.4642 11.6224L12.5539 23.3436L15.4336 25L15.7777 25.1978C15.9232 25.257 16.0948 25.26 16.2416 25.207L23.8615 20.791L22.4047 21.6352L18.3755 15.1188ZM18.9662 23.6279L16.0577 19.063L17.8332 16.0502L21.653 22.0709L18.9662 23.6279Z" fill="#9DAAB3"/>
<path d="M16.0577 19.0629L18.9661 23.6278L21.6529 22.0707L17.8331 16.05L16.0577 19.0629Z" fill="#2D2E33"/>
<path d="M24.101 20.2389L24.099 18.9913L19.9252 12.4905L18.3767 15.118L22.4059 21.6344L23.8627 20.7902C24.0056 20.6741 24.0921 20.5039 24.1012 20.3201L24.101 20.2389Z" fill="#2D2E33"/>
<path d="M6.61011 21.4158L8.66736 22.6013L15.5135 11.622L14.3516 11.5914C13.3616 11.5774 12.2951 11.8347 11.8057 12.6337L7.91801 18.6595L6.61011 20.669V21.4158V21.4158Z" fill="#2D2E33"/>
<path d="M19.4641 11.6218L16.4018 11.6329L9.47369 23.0656L11.8953 24.4599L12.5538 23.343L19.4641 11.6218Z" fill="#2D2E33"/>
<path d="M25.3904 11.6063C25.3647 10.9659 25.018 10.3796 24.4748 10.0383L16.8619 5.66032C16.3247 5.3898 15.6535 5.38945 15.1153 5.66015C15.0516 5.69224 7.7119 9.94898 7.7119 9.94898C7.61032 9.99771 7.51247 10.0557 7.42044 10.1216C6.93558 10.4691 6.64004 11.0091 6.60968 11.6024V20.6691L7.91759 18.6596L7.90616 11.6637C7.90768 11.6381 7.9109 11.6129 7.91546 11.588C7.94503 11.4234 8.03693 11.2766 8.1753 11.1774C8.20983 11.1527 15.6749 6.83155 15.6987 6.8197C15.8741 6.73158 16.0971 6.73053 16.2728 6.81696L23.7872 11.1393C23.965 11.2525 24.0764 11.4445 24.0863 11.6543V20.3205C24.0772 20.5043 24.0046 20.6745 23.8617 20.7906L22.4049 21.6348L21.6532 22.0705L18.9664 23.6275L16.2417 25.2065C16.095 25.2596 15.9234 25.2566 15.7778 25.1974L12.5541 23.3433L11.8955 24.4602L14.7926 26.1281C14.8884 26.1826 14.9738 26.2309 15.0438 26.2702C15.1523 26.331 15.2262 26.3717 15.2523 26.3844C15.4582 26.4844 15.7545 26.5426 16.0214 26.5426C16.2662 26.5426 16.5049 26.4977 16.7307 26.4092L24.6448 21.826C25.0991 21.474 25.3663 20.9432 25.3904 20.3683V11.6063Z" fill="#2D2E33"/>
</svg>
