<svg width="32" height="32" viewBox="0 0 32 32" fill="none" xmlns="http://www.w3.org/2000/svg">
<g clip-path="url(#clip0_5961_127018)">
<path d="M16 0C24.8374 0 32 7.16407 32 16C32 24.8374 24.8374 32 16 32C7.16407 32 0 24.8366 0 16C0 7.16407 7.16407 0 16 0Z" fill="#9DAAB3"/>
<path d="M17.2149 17.0183H22.4463C22.5578 17.0183 22.6105 17.0183 22.6185 16.8655C22.6613 16.3093 22.6613 15.7499 22.6185 15.193C22.6185 15.0849 22.5671 15.0402 22.455 15.0402H12.0437C11.9148 15.0402 11.8801 15.0849 11.8801 15.2111V16.8117C11.8801 17.0183 11.8801 17.0183 12.0864 17.0183H17.2149V17.0183ZM22.0343 13.1696C22.0492 13.1288 22.0492 13.0841 22.0343 13.044C21.9469 12.8452 21.8435 12.6555 21.7233 12.4774C21.5424 12.1731 21.3293 11.8927 21.0864 11.6409C20.9718 11.4887 20.8392 11.3521 20.6905 11.2362C19.9458 10.5738 19.0605 10.105 18.1089 9.86932C17.6288 9.75665 17.1381 9.70291 16.6462 9.70744H12.0257C11.8969 9.70744 11.8795 9.76118 11.8795 9.87838V13.0705C11.8795 13.2052 11.8795 13.2415 12.0431 13.2415H21.9723C21.9723 13.2415 22.0585 13.2233 22.0758 13.1696H22.0337H22.0343ZM22.0343 18.8889C21.8881 18.8721 21.7406 18.8721 21.5944 18.8889H12.0524C11.9235 18.8889 11.8801 18.8889 11.8801 19.0689V22.1898C11.8801 22.3336 11.8801 22.3698 12.0524 22.3698H16.4579C16.6685 22.3867 16.8792 22.3711 17.0855 22.3252C17.7248 22.2772 18.3536 22.1322 18.9534 21.8933C19.1714 21.8143 19.3821 21.7113 19.5809 21.5877H19.641C20.6738 21.0263 21.5126 20.1444 22.0417 19.0618C22.0417 19.0618 22.1018 18.9258 22.0343 18.8902V18.8889ZM10.151 23.9879V23.9342V21.8389V21.1286V19.0152C10.151 18.898 10.151 18.8805 10.0135 18.8805H8.14621C8.04275 18.8805 8 18.8805 8 18.7367V17.028H9.99614C10.1077 17.028 10.151 17.028 10.151 16.8752V15.1846C10.151 15.0765 10.151 15.0499 10.0135 15.0499H8.14621C8.04275 15.0499 8 15.0499 8 14.9062V13.3237C8 13.2246 8 13.1981 8.13754 13.1981H9.98746C10.1163 13.1981 10.151 13.1981 10.151 13.0271V8.18C10.151 8.03626 10.151 8 10.3233 8H16.7763C17.2447 8.01942 17.71 8.07317 18.1703 8.16187C19.1188 8.34511 20.0301 8.69929 20.8634 9.20499C21.416 9.54492 21.9246 9.95543 22.3775 10.4281C22.7183 10.7978 23.0256 11.198 23.2981 11.624C23.5689 12.0559 23.7938 12.5176 23.9703 12.9999C23.992 13.1256 24.1073 13.2104 24.2274 13.189H25.7676C25.9652 13.189 25.9652 13.189 25.9739 13.3872V14.8621C25.9739 15.0059 25.9225 15.0421 25.7843 15.0421H24.5967C24.4765 15.0421 24.4418 15.0421 24.4505 15.204C24.4976 15.7518 24.4976 16.3015 24.4505 16.8493C24.4505 17.0021 24.4505 17.0202 24.6147 17.0202H25.9733C26.0334 17.1012 25.9733 17.1821 25.9733 17.2637C25.982 17.3679 25.982 17.4735 25.9733 17.5777V18.6662C25.9733 18.819 25.9305 18.8643 25.8011 18.8643H24.1748C24.0614 18.8416 23.9511 18.9174 23.9251 19.0352C23.5379 20.0874 22.9184 21.0308 22.1179 21.7871C21.8255 22.0623 21.5182 22.3213 21.1973 22.5602C20.8528 22.7674 20.5177 22.983 20.1645 23.1539C19.5147 23.4596 18.8332 23.6849 18.1337 23.828C17.4696 23.9523 16.7961 24.0086 16.1202 23.9989H10.1485V23.9899L10.151 23.9879Z" fill="#2D2E33"/>
</g>
<defs>
<clipPath id="clip0_5961_127018">
<rect width="32" height="32" fill="white"/>
</clipPath>
</defs>
</svg>
