<svg width="32" height="32" viewBox="0 0 32 32" fill="none" xmlns="http://www.w3.org/2000/svg">
<rect width="32" height="32" rx="16" fill="#9DAAB3"/>
<path d="M12.8918 24.9017C8.13799 23.1215 5.70011 17.5897 7.46764 12.6936C8.38182 10.023 10.393 7.9884 12.8918 7.03464C13.1356 6.90752 13.2574 6.71677 13.2574 6.39875V5.50862C13.2574 5.25423 13.1356 5.06348 12.8918 5C12.8308 5 12.7089 5 12.6479 5.06348C6.85813 6.97101 3.6889 13.3931 5.51727 19.4335C6.6143 22.9942 9.23502 25.7284 12.6479 26.8729C12.8918 27 13.1356 26.8729 13.1964 26.6185C13.2574 26.555 13.2574 26.4914 13.2574 26.3643V25.474C13.2574 25.2832 13.0746 25.029 12.8918 24.9017ZM19.3521 5.06348C19.1082 4.93636 18.8644 5.06348 18.8036 5.31787C18.7426 5.3815 18.7426 5.44499 18.7426 5.57226V6.46238C18.7426 6.71677 18.9254 6.97101 19.1082 7.09828C23.862 8.87853 26.2999 14.4103 24.5324 19.3064C23.6182 21.977 21.607 24.0116 19.1082 24.9654C18.8644 25.0925 18.7426 25.2832 18.7426 25.6013V26.4914C18.7426 26.7458 18.8644 26.9365 19.1082 27C19.1692 27 19.2911 27 19.3521 26.9365C25.1419 25.029 28.3111 18.6069 26.4827 12.5665C25.3857 8.94216 22.704 6.208 19.3521 5.06348V5.06348Z" fill="#2D2E33"/>
<path d="M21 18.3568C21 16.0332 19.4328 15.2365 16.2985 14.9046C14.0597 14.639 13.6119 14.108 13.6119 13.1784C13.6119 12.2488 14.3582 11.6515 15.8507 11.6515C17.194 11.6515 17.9403 12.0498 18.3134 13.0457C18.3881 13.2448 18.612 13.3776 18.8359 13.3776H20.0298C20.3284 13.3776 20.5522 13.1784 20.5522 12.913V12.8465C20.2537 11.3859 18.9104 10.2573 17.194 10.1246V8.53122C17.194 8.26561 16.9701 8.06644 16.597 8H15.4776C15.1791 8 14.9552 8.19917 14.8805 8.53122V10.0581C12.6417 10.3238 11.2239 11.6515 11.2239 13.3113C11.2239 15.5022 12.7164 16.3651 15.8507 16.6972C17.9403 17.0291 18.612 17.4274 18.612 18.4897C18.612 19.552 17.5671 20.2822 16.1493 20.2822C14.2089 20.2822 13.5372 19.5518 13.3133 18.556C13.2388 18.2905 13.0149 18.1576 12.7911 18.1576H11.5223C11.2239 18.1576 11 18.3568 11 18.6224V18.6889C11.2984 20.3485 12.4925 21.5435 14.9552 21.8756V23.4689C14.9552 23.7344 15.1791 23.9336 15.5521 24H16.6716C16.9701 24 17.194 23.8008 17.2687 23.4689V21.8756C19.5075 21.5435 21 20.1493 21 18.3568V18.3568Z" fill="#2D2E33"/>
</svg>
