<svg
  color="#9DAAB3"
  xmlns="http://www.w3.org/2000/svg"
  fill="none"
  viewBox="0 0 31 20"
>
  <path
    fill="currentColor"
    fill-rule="evenodd"
    d="M21.163 5.663c.987-.914 2.282-1.48 3.725-1.48a5.809 5.809 0 0 1 5.806 5.811c0 2.777-2.748 5.151-3.435 5.698-3.212 2.558-7.396 4.054-11.912 4.054-4.516 0-8.7-1.496-11.912-4.054C2.752 15.145 0 12.767 0 9.994c0-3.21 2.6-5.811 5.804-5.811 1.444 0 2.74.566 3.727 1.48l.102-.05c.226-2.996 2.662-5.36 5.714-5.36 3.052 0 5.488 2.364 5.714 5.36l.102.05Zm1.159 5.777c.44.441.757.973.933 1.555h.004a.468.468 0 0 1-.375.59.47.47 0 0 1-.523-.333 2.789 2.789 0 0 0-.695-1.152 2.795 2.795 0 0 0-1.99-.824c-.03 0-.058.002-.086.004a1.207 1.207 0 0 1-.086.004 1.231 1.231 0 0 1-.515 2.351 1.234 1.234 0 0 1-1.148-1.68c-.055.047-.11.094-.16.145a2.79 2.79 0 0 0-.695 1.152.466.466 0 0 1-.523.332.468.468 0 0 1-.375-.59 3.709 3.709 0 0 1 .933-1.554 3.728 3.728 0 0 1 2.65-1.097c1 0 1.944.39 2.65 1.097Zm-11.381-.16c.028-.002.056-.004.085-.004.754 0 1.46.293 1.99.824.329.328.563.723.696 1.152a.47.47 0 0 0 .523.332.468.468 0 0 0 .374-.59 3.709 3.709 0 0 0-.932-1.554 3.728 3.728 0 0 0-2.65-1.097c-1 0-1.944.39-2.65 1.097a3.709 3.709 0 0 0-.934 1.555.468.468 0 0 0 .375.59.466.466 0 0 0 .523-.333 2.79 2.79 0 0 1 .855-1.296 1.234 1.234 0 1 0 2.38.445c0-.496-.296-.922-.717-1.117h-.004c.029 0 .057-.002.085-.004Zm4.41 4.51c.718 0 1.374-.273 1.874-.718a.476.476 0 0 1 .632-.008c.203.18.215.504.012.688a3.736 3.736 0 0 1-5.035 0 .464.464 0 0 1 .011-.688.472.472 0 0 1 .633.008 2.802 2.802 0 0 0 1.873.719Z"
    clip-rule="evenodd"
    id="path-to-animate"
  />
</svg>
