<svg
  width="12"
  height="12"
  viewBox="0 0 12 12"
  fill="none"
  xmlns="http://www.w3.org/2000/svg"
  color="#9DAAB3"
>
  <path
    fill-rule="evenodd"
    clip-rule="evenodd"
    d="M9.64938 1.11233C9.86269 1.24457 10.0048 1.48081 10.0048 1.75024V7.00321C10.0048 7.41743 9.66897 7.75321 9.25476 7.75321C8.84055 7.75321 8.50476 7.41743 8.50476 7.00321V3.56014L2.28033 9.78457C1.98744 10.0775 1.51256 10.0775 1.21967 9.78457C0.926777 9.49168 0.926777 9.01681 1.21967 8.72391L7.44334 2.50024H4.00179C3.58758 2.50024 3.25179 2.16446 3.25179 1.75024C3.25179 1.33603 3.58758 1.00024 4.00179 1.00024H9.23508C9.37868 0.996595 9.52314 1.03396 9.64938 1.11233Z"
    fill="currentColor"
  />
</svg>
