<svg width="48" height="48" viewBox="0 0 48 48" fill="none" xmlns="http://www.w3.org/2000/svg">
    <g filter="url(#filter0_di_1_7)">
        <path
            d="M19.9708 6.3111C22.1506 3.97872 25.8494 3.97872 28.0292 6.3111C29.1164 7.4743 30.6533 8.1109 32.2447 8.0572C35.4353 7.9493 38.0507 10.5647 37.9428 13.7553C37.889 15.3467 38.5257 16.8836 39.6889 17.9708C42.0213 20.1506 42.0213 23.8494 39.6889 26.0292C38.5257 27.1164 37.889 28.6533 37.9428 30.2447C38.0507 33.4353 35.4353 36.0507 32.2447 35.9428C30.6533 35.889 29.1164 36.5257 28.0292 37.6889C25.8494 40.0213 22.1506 40.0213 19.9708 37.6889C18.8836 36.5257 17.3467 35.889 15.7553 35.9428C12.5647 36.0507 9.9493 33.4353 10.0572 30.2447C10.1109 28.6533 9.4743 27.1164 8.3111 26.0292C5.9787 23.8494 5.9787 20.1506 8.3111 17.9708C9.4743 16.8836 10.1109 15.3467 10.0572 13.7553C9.9493 10.5647 12.5647 7.9493 15.7553 8.0572C17.3467 8.1109 18.8836 7.4743 19.9708 6.3111Z"
            fill="#6CF9D8" fill-opacity="0.05" />
        <path
            d="M20.3361 6.6525C22.3183 4.53159 25.6817 4.53159 27.6639 6.6525C28.8497 7.9212 30.526 8.6155 32.2616 8.5569C35.1629 8.4588 37.5412 10.8371 37.4431 13.7384C37.3845 15.474 38.0788 17.1503 39.3475 18.3361C41.4684 20.3183 41.4684 23.6817 39.3475 25.6639C38.0788 26.8497 37.3845 28.526 37.4431 30.2616C37.5412 33.1629 35.1629 35.5412 32.2616 35.4431C30.526 35.3845 28.8497 36.0788 27.6639 37.3475C25.6817 39.4684 22.3183 39.4684 20.3361 37.3475C19.1503 36.0788 17.474 35.3845 15.7384 35.4431C12.8371 35.5412 10.4588 33.1629 10.5569 30.2616C10.6155 28.526 9.9212 26.8497 8.6525 25.6639C6.5316 23.6817 6.5316 20.3183 8.6525 18.3361C9.9212 17.1503 10.6155 15.474 10.5569 13.7384C10.4588 10.8371 12.8371 8.4588 15.7384 8.5569C17.474 8.6155 19.1503 7.9212 20.3361 6.6525Z"
            stroke="#6CF9D8" stroke-opacity="0.15" />
    </g>
    <path
        d="M17.25 26.575L19.9641 22.3646C20.9647 20.8125 23.3655 21.4322 23.49 23.2746C23.6194 25.1915 26.1737 25.7487 27.0897 24.0599L30.6477 17.5M30.6477 17.5L27.3166 18.7375M30.6477 17.5L31.875 20.3875"
        stroke="#6CF9D8" stroke-width="1.5" stroke-linecap="round" />
    <defs>
        <filter id="filter0_di_1_7" x="0.561798" y="0.561813" width="46.8764" height="46.8764"
            filterUnits="userSpaceOnUse" color-interpolation-filters="sRGB">
            <feFlood flood-opacity="0" result="BackgroundImageFix" />
            <feColorMatrix in="SourceAlpha" type="matrix"
                values="0 0 0 0 0 0 0 0 0 0 0 0 0 0 0 0 0 0 127 0" result="hardAlpha" />
            <feOffset dy="2" />
            <feGaussianBlur stdDeviation="3" />
            <feComposite in2="hardAlpha" operator="out" />
            <feColorMatrix type="matrix" values="0 0 0 0 0 0 0 0 0 0 0 0 0 0 0 0 0 0 0.075 0" />
            <feBlend mode="normal" in2="BackgroundImageFix" result="effect1_dropShadow_1_7" />
            <feBlend mode="normal" in="SourceGraphic" in2="effect1_dropShadow_1_7" result="shape" />
            <feColorMatrix in="SourceAlpha" type="matrix"
                values="0 0 0 0 0 0 0 0 0 0 0 0 0 0 0 0 0 0 127 0" result="hardAlpha" />
            <feOffset dy="4" />
            <feGaussianBlur stdDeviation="6" />
            <feComposite in2="hardAlpha" operator="arithmetic" k2="-1" k3="1" />
            <feColorMatrix type="matrix" values="0 0 0 0 0 0 0 0 0 0 0 0 0 0 0 0 0 0 0.075 0" />
            <feBlend mode="normal" in2="shape" result="effect2_innerShadow_1_7" />
        </filter>
    </defs>
</svg>
    