<svg width="40" height="40" viewBox="0 0 40 40" fill="none" xmlns="http://www.w3.org/2000/svg">
<path fill-rule="evenodd" clip-rule="evenodd" d="M17.5496 14C17.1354 14 16.7996 14.3358 16.7996 14.75C16.7996 15.1642 17.1354 15.5 17.5496 15.5H22.7393L14.0195 24.2198C13.7266 24.5127 13.7266 24.9876 14.0195 25.2804C14.3124 25.5733 14.7872 25.5733 15.0801 25.2804L23.7996 16.561V21.75C23.7996 22.1642 24.1354 22.5 24.5496 22.5C24.9638 22.5 25.2996 22.1642 25.2996 21.75V14.7689C25.3045 14.5708 25.2314 14.371 25.0801 14.2198C25.0123 14.1519 24.9346 14.0998 24.8518 14.0634C24.7593 14.0226 24.6571 14 24.5496 14H17.5496Z" fill="#9DAAB2"/>
<rect x="0.5" y="0.5" width="39" height="39" rx="19.5" stroke="#4C4E57"/>
</svg>