<svg width="16" height="16" viewBox="0 0 16 16" fill="none" xmlns="http://www.w3.org/2000/svg">
<path fill-rule="evenodd" clip-rule="evenodd" d="M5.55055 2C5.13633 2 4.80055 2.33579 4.80055 2.75C4.80055 3.16421 5.13633 3.5 5.55055 3.5H10.7402L2.02045 12.2198C1.72756 12.5127 1.72756 12.9876 2.02045 13.2804C2.31334 13.5733 2.78822 13.5733 3.08111 13.2804L11.8005 4.56101V9.75C11.8005 10.1642 12.1363 10.5 12.5505 10.5C12.9648 10.5 13.3005 10.1642 13.3005 9.75V2.76892C13.3055 2.57076 13.2323 2.37102 13.0811 2.21979C13.0132 2.15192 12.9356 2.09979 12.8527 2.06337C12.7603 2.02262 12.6581 2 12.5505 2H5.55055Z" fill="#9DAAB3"/>
</svg>
