<svg width="32" height="32" viewBox="0 0 32 32" fill="none" xmlns="http://www.w3.org/2000/svg">
<rect width="32" height="32" rx="8" fill="#30383B"/>
<path fill-rule="evenodd" clip-rule="evenodd" d="M8.11377 18.8865C8.11377 17.4119 8.71374 15.3838 10.0331 13.7347C11.3327 12.1101 13.3191 10.8633 16.1369 10.8633C18.9234 10.8633 20.8397 12.2177 22.0846 13.9153C23.3507 15.6418 23.886 17.6808 23.886 18.8865C23.886 19.3007 24.2217 19.6365 24.636 19.6365C25.0502 19.6365 25.386 19.3007 25.386 18.8865C25.386 17.3505 24.7423 15.0029 23.2942 13.0282C21.8249 11.0246 19.4917 9.36328 16.1369 9.36328C12.8136 9.36328 10.4134 10.8581 8.86175 12.7976C7.32978 14.7126 6.61377 17.0711 6.61377 18.8865C6.61377 19.3007 6.94956 19.6365 7.36377 19.6365C7.77798 19.6365 8.11377 19.3007 8.11377 18.8865ZM11.1304 18.8865C11.1304 18.0319 11.488 16.8278 12.2853 15.8468C13.0627 14.8902 14.2491 14.1532 15.9506 14.1532C17.6212 14.1532 18.7622 14.9472 19.5095 15.9503C20.2787 16.9829 20.5968 18.1978 20.5968 18.8865C20.5968 19.3007 20.9326 19.6365 21.3468 19.6365C21.7611 19.6365 22.0968 19.3007 22.0968 18.8865C22.0968 17.8616 21.6664 16.3349 20.7124 15.0542C19.7364 13.7441 18.1793 12.6532 15.9506 12.6532C13.753 12.6532 12.1542 13.6297 11.1213 14.9008C10.1083 16.1473 9.63037 17.6848 9.63037 18.8865C9.63037 19.3007 9.96616 19.6365 10.3804 19.6365C10.7946 19.6365 11.1304 19.3007 11.1304 18.8865Z" fill="#6CF9D8"/>
<rect x="0.5" y="0.5" width="31" height="31" rx="7.5" stroke="#6CF9D8" stroke-opacity="0.05"/>
</svg>
