<svg xmlns="http://www.w3.org/2000/svg" width="96" height="96" viewBox="0 0 96 96" fill="none">
  <path opacity="0.15" d="M36.8748 4.81044C42.8694 -1.60349 53.0408 -1.60349 59.0354 4.81044C62.0252 8.00943 66.2518 9.76013 70.6279 9.61223C79.4021 9.31571 86.5944 16.508 86.2979 25.2822C86.15 29.6583 87.9007 33.8849 91.0997 36.8747C97.5136 42.8693 97.5136 53.0407 91.0997 59.0353C87.9007 62.0252 86.15 66.2517 86.2979 70.6279C86.5944 79.402 79.4021 86.5943 70.6279 86.2978C66.2518 86.1499 62.0252 87.9006 59.0354 91.0996C53.0408 97.5135 42.8694 97.5135 36.8748 91.0996C33.8849 87.9006 29.6584 86.1499 25.2822 86.2978C16.5081 86.5943 9.31577 79.402 9.6123 70.6279C9.76019 66.2517 8.0095 62.0252 4.8105 59.0353C-1.60343 53.0407 -1.60343 42.8693 4.8105 36.8747C8.0095 33.8849 9.76019 29.6583 9.6123 25.2822C9.31577 16.508 16.5081 9.31571 25.2822 9.61223C29.6584 9.76013 33.8849 8.00943 36.8748 4.81044Z" fill="#9DAAB3"/>
  <g filter="url(#filter0_d_3013_65429)">
    <path d="M38.4865 11.086C43.6091 5.60502 52.3011 5.60502 57.4237 11.086C59.9787 13.8197 63.5904 15.3157 67.3301 15.1894C74.828 14.936 80.9741 21.0821 80.7207 28.58C80.5944 32.3197 82.0904 35.9314 84.8241 38.4864C90.3051 43.609 90.3051 52.301 84.8241 57.4236C82.0904 59.9786 80.5944 63.5904 80.7207 67.33C80.9741 74.8279 74.828 80.9741 67.3301 80.7207C63.5904 80.5943 59.9787 82.0903 57.4237 84.824C52.3011 90.305 43.6091 90.305 38.4865 84.824C35.9315 82.0903 32.3197 80.5943 28.5801 80.7207C21.0822 80.9741 14.936 74.8279 15.1894 67.33C15.3158 63.5904 13.8198 59.9786 11.0861 57.4236C5.60508 52.301 5.60508 43.609 11.0861 38.4864C13.8198 35.9314 15.3158 32.3197 15.1894 28.58C14.936 21.0821 21.0822 14.936 28.5801 15.1894C32.3197 15.3157 35.9315 13.8197 38.4865 11.086Z" fill="url(#paint0_linear_3013_65429)"/>
  </g>
  <path d="M59.9551 34.955L34.9551 59.955M34.9551 34.955L59.9551 59.955" stroke="#3E4047" stroke-width="4.5" stroke-linecap="round" stroke-linejoin="round"/>
  <defs>
    <filter id="filter0_d_3013_65429" x="4.97534" y="5.97528" width="85.9595" height="85.9595" filterUnits="userSpaceOnUse" color-interpolation-filters="sRGB">
      <feFlood flood-opacity="0" result="BackgroundImageFix"/>
      <feColorMatrix in="SourceAlpha" type="matrix" values="0 0 0 0 0 0 0 0 0 0 0 0 0 0 0 0 0 0 127 0" result="hardAlpha"/>
      <feOffset dy="1"/>
      <feGaussianBlur stdDeviation="1"/>
      <feComposite in2="hardAlpha" operator="out"/>
      <feColorMatrix type="matrix" values="0 0 0 0 0 0 0 0 0 0 0 0 0 0 0 0 0 0 0.45 0"/>
      <feBlend mode="normal" in2="BackgroundImageFix" result="effect1_dropShadow_3013_65429"/>
      <feBlend mode="normal" in="SourceGraphic" in2="effect1_dropShadow_3013_65429" result="shape"/>
    </filter>
    <linearGradient id="paint0_linear_3013_65429" x1="47.9551" y1="0.955017" x2="47.9551" y2="94.955" gradientUnits="userSpaceOnUse">
      <stop stop-color="#9DAAB3"/>
      <stop offset="1" stop-color="#393A40"/>
    </linearGradient>
  </defs>
</svg>