<svg color="#6CF9D8" viewBox="0 0 17 17" fill="none" xmlns="http://www.w3.org/2000/svg">
  <path fill-rule="evenodd" clip-rule="evenodd" d="M8.33333 0C3.73096 0 0 3.73096 0 8.33333C0 12.9357 3.73096 16.6667 8.33333 16.6667C12.9357 16.6667 16.6667 12.9357 16.6667 8.33333C16.6667 3.73096 12.9357 0 8.33333 0ZM11.3171 6.64578C11.5357 6.37862 11.4963 5.98486 11.2291 5.76628C10.9619 5.5477 10.5682 5.58708 10.3496 5.85423L7.03692 9.90308L5.85861 8.72475C5.61453 8.48067 5.2188 8.48067 4.97473 8.72475C4.73065 8.96883 4.73065 9.3645 4.97473 9.60858L6.64139 11.2753C6.76625 11.4002 6.93808 11.4663 7.1145 11.4576C7.29083 11.4488 7.45525 11.3658 7.56708 11.2291L11.3171 6.64578Z" fill="currentColor"/>
</svg>
