<svg width="16" height="16" viewBox="0 0 16 16" fill="none" xmlns="http://www.w3.org/2000/svg">
<g clip-path="url(#clip0_629_68824)">
<path d="M9.99996 4.66675H12C12.4377 4.66675 12.8712 4.75297 13.2756 4.92048C13.68 5.088 14.0475 5.33353 14.357 5.64306C14.6665 5.95259 14.912 6.32005 15.0796 6.72447C15.2471 7.12889 15.3333 7.56234 15.3333 8.00008C15.3333 8.43782 15.2471 8.87127 15.0796 9.27569C14.912 9.68011 14.6665 10.0476 14.357 10.3571C14.0475 10.6666 13.68 10.9122 13.2756 11.0797C12.8712 11.2472 12.4377 11.3334 12 11.3334H9.99996M5.99996 11.3334H3.99996C3.56222 11.3334 3.12877 11.2472 2.72435 11.0797C2.31993 10.9122 1.95247 10.6666 1.64294 10.3571C1.01782 9.73198 0.666626 8.88414 0.666626 8.00008C0.666626 7.11603 1.01782 6.26818 1.64294 5.64306C2.26806 5.01794 3.1159 4.66675 3.99996 4.66675H5.99996" stroke="#9DAAB2" stroke-width="1.5" stroke-linecap="round" stroke-linejoin="round"/>
<path d="M5.33337 8H10.6667" stroke="#9DAAB2" stroke-width="1.5" stroke-linecap="round" stroke-linejoin="round"/>
</g>
<defs>
<clipPath id="clip0_629_68824">
<rect width="16" height="16" fill="white"/>
</clipPath>
</defs>
</svg>
