<svg width="16" height="16" viewBox="0 0 16 16" fill="none" xmlns="http://www.w3.org/2000/svg">
<path fill-rule="evenodd" clip-rule="evenodd" d="M13.197 3.69635C13.4899 3.40345 13.4899 2.92858 13.197 2.63569C12.9041 2.34279 12.4292 2.34279 12.1363 2.63569L7.91647 6.85557L3.69659 2.63569C3.4037 2.34279 2.92882 2.34279 2.63593 2.63569C2.34304 2.92858 2.34304 3.40345 2.63593 3.69635L6.85581 7.91622L2.63593 12.1361C2.34304 12.429 2.34304 12.9039 2.63593 13.1968C2.92882 13.4897 3.4037 13.4897 3.69659 13.1968L7.91647 8.97689L12.1363 13.1968C12.4292 13.4897 12.9041 13.4897 13.197 13.1968C13.4899 12.9039 13.4899 12.429 13.197 12.1361L8.97713 7.91622L13.197 3.69635Z" fill="#202024"/>
</svg>
