<svg width="16" height="16" viewBox="0 0 16 16" fill="none" xmlns="http://www.w3.org/2000/svg">
<path fill-rule="evenodd" clip-rule="evenodd" d="M13.1971 3.69677C13.49 3.40388 13.49 2.92901 13.1971 2.63611C12.9042 2.34322 12.4293 2.34322 12.1364 2.63611L7.91653 6.85599L3.69665 2.63611C3.40376 2.34322 2.92888 2.34322 2.63599 2.63611C2.3431 2.92901 2.3431 3.40388 2.63599 3.69677L6.85587 7.91665L2.63599 12.1365C2.3431 12.4294 2.3431 12.9043 2.63599 13.1972C2.92888 13.4901 3.40376 13.4901 3.69665 13.1972L7.91653 8.97731L12.1364 13.1972C12.4293 13.4901 12.9042 13.4901 13.1971 13.1972C13.49 12.9043 13.49 12.4294 13.1971 12.1365L8.97719 7.91665L13.1971 3.69677Z" fill="#9DAAB2"/>
</svg>
