<svg width="24" height="24" viewBox="0 0 24 24" fill="none" xmlns="http://www.w3.org/2000/svg">
<path d="M20.317 4.47048C18.7873 3.78986 17.147 3.28841 15.4319 3.0012C15.4007 2.99566 15.3695 3.00951 15.3534 3.03722C15.1424 3.40107 14.9087 3.87574 14.7451 4.24883C12.9004 3.98102 11.0652 3.98102 9.25832 4.24883C9.09465 3.86744 8.85248 3.40107 8.64057 3.03722C8.62449 3.01044 8.59328 2.99659 8.56205 3.0012C6.84791 3.28749 5.20756 3.78894 3.67693 4.47048C3.66368 4.47602 3.65233 4.48526 3.64479 4.49726C0.533392 9.00481 -0.31895 13.4016 0.0991801 17.7438C0.101072 17.7651 0.11337 17.7854 0.130398 17.7983C2.18321 19.2602 4.17171 20.1476 6.12328 20.7359C6.15451 20.7451 6.18761 20.7341 6.20748 20.7091C6.66913 20.0978 7.08064 19.4532 7.43348 18.7753C7.4543 18.7356 7.43442 18.6885 7.39186 18.6728C6.73913 18.4327 6.1176 18.14 5.51973 17.8075C5.47244 17.7808 5.46865 17.7152 5.51216 17.6838C5.63797 17.5923 5.76382 17.4972 5.88396 17.4012C5.90569 17.3836 5.93598 17.3799 5.96153 17.391C9.88928 19.13 14.1415 19.13 18.023 17.391C18.0485 17.379 18.0788 17.3827 18.1015 17.4003C18.2216 17.4963 18.3475 17.5923 18.4742 17.6838C18.5177 17.7152 18.5149 17.7808 18.4676 17.8075C17.8697 18.1464 17.2482 18.4327 16.5945 18.6719C16.552 18.6876 16.533 18.7356 16.5538 18.7753C16.9143 19.4522 17.3258 20.0968 17.7789 20.7082C17.7978 20.7341 17.8319 20.7451 17.8631 20.7359C19.8241 20.1476 21.8126 19.2602 23.8654 17.7983C23.8834 17.7854 23.8948 17.766 23.8967 17.7447C24.3971 12.7246 23.0585 8.36391 20.3482 4.49818C20.3416 4.48526 20.3303 4.47602 20.317 4.47048ZM8.02002 15.0998C6.8375 15.0998 5.86313 14.0471 5.86313 12.7542C5.86313 11.4613 6.8186 10.4085 8.02002 10.4085C9.23087 10.4085 10.1958 11.4705 10.1769 12.7542C10.1769 14.0471 9.22141 15.0998 8.02002 15.0998ZM15.9947 15.0998C14.8123 15.0998 13.8379 14.0471 13.8379 12.7542C13.8379 11.4613 14.7933 10.4085 15.9947 10.4085C17.2056 10.4085 18.1705 11.4705 18.1516 12.7542C18.1516 14.0471 17.2056 15.0998 15.9947 15.0998Z" fill="#9DAAB2"/>
</svg>
