<svg width="1em" height="1em" color="#E0F3FF" viewBox="0 0 16 16" fill="none" xmlns="http://www.w3.org/2000/svg">
  <g opacity="0.5">
    <path d="M7.99992 4.91671V4.23152M7.99992 11.0834V11.7686M9.48372 5.94449C9.18752 5.53488 8.63399 5.2593 7.99992 5.2593H7.80959C6.96865 5.2593 6.28696 5.80467 6.28696 6.47741V6.5297C6.28696 7.01091 6.62679 7.45077 7.16479 7.66597L8.83505 8.33411C9.37305 8.54931 9.71285 8.98917 9.71285 9.47037C9.71285 10.172 9.00192 10.7408 8.12485 10.7408H7.99992C7.36585 10.7408 6.81232 10.4652 6.51612 10.0556M14.1666 8.00004C14.1666 11.4058 11.4057 14.1667 7.99992 14.1667C4.59417 14.1667 1.83325 11.4058 1.83325 8.00004C1.83325 4.59429 4.59417 1.83337 7.99992 1.83337C11.4057 1.83337 14.1666 4.59429 14.1666 8.00004Z" stroke="currentColor" stroke-linecap="round" stroke-linejoin="round"/>
  </g>
</svg>
