<svg width="17" height="16" viewBox="0 0 17 16" fill="none" xmlns="http://www.w3.org/2000/svg">
<path d="M7.83325 2.66617H5.03325C3.91315 2.66617 3.35309 2.66617 2.92527 2.88415C2.54895 3.0759 2.24299 3.38186 2.05124 3.75819C1.83325 4.18601 1.83325 4.74606 1.83325 5.86617V11.4662C1.83325 12.5863 1.83325 13.1463 2.05124 13.5741C2.24299 13.9505 2.54895 14.2564 2.92527 14.4482C3.35309 14.6662 3.91315 14.6662 5.03325 14.6662H10.6333C11.7534 14.6662 12.3134 14.6662 12.7412 14.4482C13.1176 14.2564 13.4235 13.9505 13.6153 13.5741C13.8333 13.1463 13.8333 12.5863 13.8333 11.4662V8.66617M5.83323 10.6662H6.9496C7.27572 10.6662 7.43878 10.6662 7.59223 10.6293C7.72828 10.5967 7.85834 10.5428 7.97763 10.4697C8.11219 10.3872 8.22749 10.2719 8.45809 10.0413L14.8333 3.66617C15.3855 3.11388 15.3855 2.21845 14.8333 1.66617C14.281 1.11388 13.3855 1.11388 12.8333 1.66617L6.45808 8.04133C6.22747 8.27193 6.11217 8.38723 6.02971 8.52179C5.95661 8.64108 5.90274 8.77114 5.87007 8.90719C5.83323 9.06064 5.83323 9.2237 5.83323 9.54982V10.6662Z" stroke="#9DAAB3" stroke-linecap="round" stroke-linejoin="round"/>
</svg>
