<svg xmlns="http://www.w3.org/2000/svg" fill="none" viewBox="0 0 16 16" width="16px" height="16px">
  <path fill="#9DAAB2" fill-rule="evenodd" d="M5.54981 2c-.41421 0-.75.33579-.75.75s.33579.75.75.75h5.18969l-8.71978 8.7198c-.29289.2929-.29289.7678 0 1.0606.29289.2929.76777.2929 1.06066 0l8.71942-8.71939V9.75c0 .4142.3358.75.75.75s.75-.3358.75-.75V2.76892c.005-.19816-.0682-.3979-.2194-.54913-.0679-.06787-.1455-.12-.2284-.15642C12.7596 2.02262 12.6573 2 12.5498 2H5.54981Z" clip-rule="evenodd"/>
</svg>
