<svg width="17" height="16" viewBox="0 0 17 16" fill="none" xmlns="http://www.w3.org/2000/svg">
    <g opacity="0.75">
        <path
            d="M4.54643 2.0918H12.802V13.9072H11.5902V8.49497H11.5783C11.4444 6.99916 10.1953 5.82698 8.67424 5.82698C7.15315 5.82698 5.90408 6.99916 5.77015 8.49497H5.75826V13.9072H4.54643V2.0918Z"
            fill="#9DAAB3" />
        <path
            d="M2.34998 3.76882L2.84228 5.44584H3.25885V12.2302C3.0497 12.2302 2.88015 12.4008 2.88015 12.6113V13.0687H2.80441C2.59526 13.0687 2.42572 13.2393 2.42572 13.4498V13.9072H6.66714V13.4498C6.66714 13.2393 6.49759 13.0687 6.28844 13.0687H6.2127V12.6113C6.2127 12.4008 6.04315 12.2302 5.834 12.2302H5.37956V3.76882H2.34998Z"
            fill="#9DAAB3" />
        <path
            d="M11.666 12.2302C11.4568 12.2302 11.2873 12.4008 11.2873 12.6113V13.0687H11.2115C11.0024 13.0687 10.8328 13.2393 10.8328 13.4498V13.9072H15.0742V13.4498C15.0742 13.2393 14.9047 13.0687 14.6955 13.0687H14.6198V12.6113C14.6198 12.4008 14.4503 12.2302 14.2411 12.2302V5.44584H14.6577L15.15 3.76882H12.1204V12.2302H11.666Z"
            fill="#9DAAB3" />
    </g>
</svg>
    