<svg width="1em" height="1em" color="#E0F3FF" viewBox="0 0 16 16" fill="none" xmlns="http://www.w3.org/2000/svg">
  <g opacity="0.5">
    <path d="M9.49967 13.5H10.1663M9.49967 13.5V6.5M9.49967 13.5H2.49967M9.49967 6.5V3.16667C9.49967 2.79848 9.20121 2.5 8.83301 2.5H3.16634C2.79815 2.5 2.49967 2.79848 2.49967 3.16667V13.5M9.49967 6.5H11.1663C11.5345 6.5 11.833 6.79847 11.833 7.16667V10.8333C11.833 11.2015 12.1315 11.5 12.4997 11.5H13.4997C13.8679 11.5 14.1663 11.2015 14.1663 10.8333V5.63024C14.1663 5.44125 14.0861 5.26114 13.9457 5.13471L12.4997 3.83333M2.49967 13.5H1.83301M7.49967 6.5H4.49967" stroke="currentColor" strokeLinecap="round" strokeLinejoin="round"/>
  </g>
</svg>
