<svg width="16" height="16" viewBox="0 0 25 25" fill="none" xmlns="http://www.w3.org/2000/svg">
<path stroke="#E0F3FF" stroke-width="0" fill-rule="evenodd" clip-rule="evenodd" d="M7.93641 1.5C7.38932 1.5 6.86464 1.71733 6.47779 2.10418C6.09094 2.49103 5.87361 3.01571 5.87361 3.5628C5.87361 4.10989 6.09094 4.63457 6.47779 5.02142C6.84351 5.38714 7.33242 5.60136 7.84699 5.62366H12.0151C11.8572 5.14072 11.6203 4.52944 11.2875 3.92424C10.5579 2.59766 9.4883 1.5 7.93641 1.5ZM4.37361 3.5628C4.37361 4.30604 4.60584 5.02533 5.03013 5.62366H1.74805C1.33383 5.62366 0.998047 5.95945 0.998047 6.37366V11.9993C0.998047 12.4135 1.33383 12.7493 1.74805 12.7493H3.24621V23.2524C3.24621 23.6666 3.58199 24.0024 3.99621 24.0024H21.9981C22.4123 24.0024 22.7481 23.6666 22.7481 23.2524V12.7493H24.2505C24.6647 12.7493 25.0005 12.4135 25.0005 11.9993V6.37366C25.0005 5.95945 24.6647 5.62366 24.2505 5.62366H20.9676C21.3919 5.02533 21.6241 4.30604 21.6241 3.5628C21.6241 2.61789 21.2487 1.71168 20.5806 1.04352C19.9124 0.375365 19.0062 0 18.0613 0C15.6752 0 14.2133 1.71514 13.3959 3.20136C13.2466 3.47278 13.1147 3.74331 12.9988 4.00439C12.883 3.74331 12.7511 3.47278 12.6018 3.20136C11.7844 1.71514 10.3224 0 7.93641 0C6.9915 0 6.08529 0.375365 5.41713 1.04352C4.74898 1.71168 4.37361 2.61789 4.37361 3.5628ZM18.1507 5.62366H13.9826C14.1405 5.14072 14.3773 4.52944 14.7102 3.92424C15.4398 2.59766 16.5094 1.5 18.0613 1.5C18.6084 1.5 19.1331 1.71733 19.5199 2.10418C19.9068 2.49103 20.1241 3.01571 20.1241 3.5628C20.1241 4.10989 19.9068 4.63457 19.5199 5.02142C19.1542 5.38714 18.6653 5.60136 18.1507 5.62366ZM13.7478 7.1256V11.2493H23.5005V7.12366H18.1788C18.1397 7.12495 18.1005 7.1256 18.0613 7.1256H13.7478ZM2.49805 7.12366H7.81888C7.85798 7.12495 7.89716 7.1256 7.93641 7.1256H12.2478V11.2493H2.49805V7.12366ZM12.2478 12.7493H4.74621V22.5024H12.2478V12.7493ZM13.7478 22.5024V12.7493H21.2481V22.5024H13.7478Z" fill="#E0F3FF"/>
</svg>
