<svg width="47" height="47" viewBox="0 0 47 47" fill="none" xmlns="http://www.w3.org/2000/svg">
    <g filter="url(#filter0_di_3_8)">
        <path
            d="M19.409 5.74928C21.5888 3.4169 25.2876 3.4169 27.4674 5.74928C28.5546 6.91249 30.0915 7.54909 31.6829 7.49539C34.8735 7.38749 37.4889 10.0029 37.381 13.1935C37.3272 14.7849 37.9639 16.3218 39.1271 17.409C41.4595 19.5888 41.4595 23.2876 39.1271 25.4674C37.9639 26.5546 37.3272 28.0915 37.381 29.6829C37.4889 32.8735 34.8735 35.4889 31.6829 35.381C30.0915 35.3272 28.5546 35.9639 27.4674 37.1271C25.2876 39.4595 21.5888 39.4595 19.409 37.1271C18.3218 35.9639 16.7849 35.3272 15.1935 35.381C12.0029 35.4889 9.3875 32.8735 9.4954 29.6829C9.5491 28.0915 8.9125 26.5546 7.7493 25.4674C5.4169 23.2876 5.4169 19.5888 7.7493 17.409C8.9125 16.3218 9.5491 14.7849 9.4954 13.1935C9.3875 10.0029 12.0029 7.38749 15.1935 7.49539C16.7849 7.54909 18.3218 6.91249 19.409 5.74928Z"
            fill="#44D2FF" fill-opacity="0.05" />
        <path
            d="M19.7743 6.09068C21.7565 3.96977 25.1199 3.96977 27.1021 6.09068C28.2879 7.35938 29.9642 8.05368 31.6998 7.99508C34.6011 7.89698 36.9794 10.2753 36.8813 13.1766C36.8227 14.9122 37.517 16.5885 38.7857 17.7743C40.9066 19.7565 40.9066 23.1199 38.7857 25.1021C37.517 26.2879 36.8227 27.9642 36.8813 29.6998C36.9794 32.6011 34.6011 34.9794 31.6998 34.8813C29.9642 34.8227 28.2879 35.517 27.1021 36.7857C25.1199 38.9066 21.7565 38.9066 19.7743 36.7857C18.5885 35.517 16.9122 34.8227 15.1766 34.8813C12.2753 34.9794 9.897 32.6011 9.9951 29.6998C10.0537 27.9642 9.3594 26.2879 8.0907 25.1021C5.9698 23.1199 5.9698 19.7565 8.0907 17.7743C9.3594 16.5885 10.0537 14.9122 9.9951 13.1766C9.897 10.2753 12.2753 7.89698 15.1766 7.99508C16.9122 8.05368 18.5885 7.35938 19.7743 6.09068Z"
            stroke="#44D2FF" stroke-opacity="0.15" />
    </g>
    <path
        d="M25.6491 21.4534L20.4948 26.45C20.2225 26.7147 19.8532 26.8634 19.4682 26.8634C19.0831 26.8634 18.7138 26.7147 18.4416 26.45C18.1693 26.1853 18.0163 25.8263 18.0163 25.4519C18.0163 25.0776 18.1693 24.7185 18.4416 24.4538L23.5958 19.4572M27.7023 23.4496L30.44 20.788M30.0978 21.1207L28.7878 19.8471C28.5311 19.5976 28.3868 19.2592 28.3867 18.9063V18.1264L26.84 16.6226C26.0765 15.8808 25.0434 15.4611 23.9641 15.4542L21.5426 15.4382L22.1723 15.9838C22.6195 16.3694 22.9776 16.8427 23.223 17.3725C23.4684 17.9024 23.5954 18.4769 23.5958 19.058V20.1226L24.9647 21.4534H25.7668C26.1298 21.4535 26.4779 21.5937 26.7346 21.8433L28.0445 23.1169"
        stroke="#44D2FF" stroke-width="1.5" stroke-linecap="round" stroke-linejoin="round" />
    <defs>
        <filter id="filter0_di_3_8" x="0" y="0" width="46.8764" height="46.8764"
            filterUnits="userSpaceOnUse" color-interpolation-filters="sRGB">
            <feFlood flood-opacity="0" result="BackgroundImageFix" />
            <feColorMatrix in="SourceAlpha" type="matrix"
                values="0 0 0 0 0 0 0 0 0 0 0 0 0 0 0 0 0 0 127 0" result="hardAlpha" />
            <feOffset dy="2" />
            <feGaussianBlur stdDeviation="3" />
            <feComposite in2="hardAlpha" operator="out" />
            <feColorMatrix type="matrix" values="0 0 0 0 0 0 0 0 0 0 0 0 0 0 0 0 0 0 0.075 0" />
            <feBlend mode="normal" in2="BackgroundImageFix" result="effect1_dropShadow_3_8" />
            <feBlend mode="normal" in="SourceGraphic" in2="effect1_dropShadow_3_8" result="shape" />
            <feColorMatrix in="SourceAlpha" type="matrix"
                values="0 0 0 0 0 0 0 0 0 0 0 0 0 0 0 0 0 0 127 0" result="hardAlpha" />
            <feOffset dy="4" />
            <feGaussianBlur stdDeviation="6" />
            <feComposite in2="hardAlpha" operator="arithmetic" k2="-1" k3="1" />
            <feColorMatrix type="matrix" values="0 0 0 0 0 0 0 0 0 0 0 0 0 0 0 0 0 0 0.075 0" />
            <feBlend mode="normal" in2="shape" result="effect2_innerShadow_3_8" />
        </filter>
    </defs>
</svg>
    