<svg width="24" height="24" viewBox="0 0 24 24" fill="none" xmlns="http://www.w3.org/2000/svg">
<path d="M21.2547 4.76392C20.7033 4.20482 20.0481 3.7612 19.3266 3.45851C18.6052 3.15581 17.8317 3 17.0505 3C16.2693 3 15.4959 3.15581 14.7744 3.45851C14.053 3.7612 13.3977 4.20482 12.8463 4.76392L12 5.63019L11.1537 4.76392C10.6023 4.20482 9.94704 3.7612 9.22559 3.45851C8.50415 3.15581 7.73066 3 6.94949 3C6.16832 3 5.39483 3.15581 4.67338 3.45851C3.95194 3.7612 3.29672 4.20482 2.74531 4.76392C0.415151 7.1184 0.272263 11.0944 3.20695 14.1152L12 23L20.7931 14.1152C23.7277 11.0944 23.5848 7.1184 21.2547 4.76392Z" stroke="#E0F3FF" stroke-width="1.5" stroke-linecap="round" stroke-linejoin="round"/>
<path d="M12 14L11 12.9311L13 10.7933L10 8.12114L12.77 5" stroke="#E0F3FF" stroke-width="1.5" stroke-linecap="round" stroke-linejoin="round"/>
</svg>
