<svg color="white" xmlns="http://www.w3.org/2000/svg" viewBox="0 0 20 20" fill="none">
  <g>
    <path opacity="0.25" d="M10 0.833252C8.18705 0.833252 6.41477 1.37087 4.90732 2.37811C3.39987 3.38536 2.22495 4.817 1.53115 6.49199C0.837346 8.16698 0.655815 10.0101 1.00951 11.7882C1.36321 13.5664 2.23625 15.1998 3.51823 16.4817C4.80021 17.7637 6.43356 18.6368 8.21172 18.9904C9.98988 19.3441 11.833 19.1626 13.508 18.4688C15.183 17.775 16.6146 16.6001 17.6218 15.0926C18.6291 13.5852 19.1667 11.8129 19.1667 9.99992C19.1667 7.56877 18.2009 5.23719 16.4819 3.51811C14.7628 1.79902 12.4312 0.833252 10 0.833252ZM10 16.6666C8.6815 16.6666 7.39257 16.2756 6.29624 15.543C5.19992 14.8105 4.34543 13.7693 3.84085 12.5511C3.33626 11.333 3.20424 9.99252 3.46148 8.69932C3.71871 7.40611 4.35365 6.21822 5.286 5.28587C6.21835 4.35352 7.40624 3.71859 8.69944 3.46135C9.99265 3.20412 11.3331 3.33614 12.5513 3.84072C13.7694 4.34531 14.8106 5.19979 15.5432 6.29612C16.2757 7.39245 16.6667 8.68138 16.6667 9.99992C16.6667 11.768 15.9643 13.4637 14.7141 14.714C13.4638 15.9642 11.7682 16.6666 10 16.6666Z" fill="currentColor"/>
    <path d="M8.93334 16.5833C8.02528 16.4369 7.15733 16.1042 6.38408 15.6062C5.61083 15.1081 4.94901 14.4554 4.44025 13.6891C3.9315 12.9228 3.5868 12.0596 3.42786 11.1536C3.26891 10.2477 3.29915 9.31866 3.51667 8.42497C3.79354 7.18419 4.42954 6.05237 5.34536 5.17064C6.26118 4.2889 7.41629 3.69627 8.66667 3.46663C9.54411 3.2876 10.4486 3.28718 11.3262 3.46539C12.2038 3.64361 13.0365 3.99681 13.7746 4.50391C14.5127 5.01102 15.1411 5.66163 15.6222 6.41692C16.1034 7.17221 16.4274 8.0167 16.575 8.89997C16.6183 9.20061 16.7669 9.47613 16.9942 9.67755C17.2216 9.87897 17.513 9.99321 17.8167 9.99997H17.925C18.0883 10.0024 18.2503 9.96981 18.3999 9.90431C18.5496 9.83882 18.6834 9.74198 18.7924 9.62033C18.9014 9.49868 18.9831 9.35506 19.0318 9.19916C19.0806 9.04326 19.0953 8.87871 19.075 8.71663C18.8379 7.03943 18.1407 5.46071 17.0608 4.15569C15.981 2.85068 14.5606 1.8704 12.9574 1.32365C11.3541 0.776908 9.63079 0.685077 7.97855 1.05835C6.3263 1.43163 4.8098 2.25541 3.59734 3.43828C2.38488 4.62114 1.52388 6.11683 1.10989 7.75935C0.695908 9.40186 0.745131 11.127 1.2521 12.7432C1.75907 14.3594 2.70395 15.8036 3.98189 16.9154C5.25983 18.0272 6.82083 18.7632 8.49167 19.0416C8.67592 19.0744 8.86512 19.0666 9.04601 19.0185C9.22689 18.9705 9.39508 18.8835 9.53879 18.7636C9.6825 18.6437 9.79824 18.4939 9.87792 18.3245C9.95759 18.1552 9.99926 17.9705 10 17.7833C9.99646 17.4884 9.88662 17.2046 9.69067 16.9842C9.49472 16.7637 9.22581 16.6214 8.93334 16.5833Z" fill="currentColor"/>
  </g>
</svg>
