<svg width="25" height="24" viewBox="0 0 25 24" fill="none" xmlns="http://www.w3.org/2000/svg">
    <path
        d="M13.2255 16.7572C13.2226 17.1522 13.1419 17.5428 12.988 17.9067C12.8342 18.2706 12.6101 18.6006 12.3287 18.8778C12.0473 19.1551 11.7141 19.3743 11.348 19.5227C10.9819 19.6712 10.5901 19.7462 10.1951 19.7433C9.80005 19.7403 9.40944 19.6597 9.04558 19.5058C8.68171 19.3519 8.35172 19.1279 8.07444 18.8465C7.79716 18.5651 7.57801 18.2318 7.42952 17.8657C7.28104 17.4996 7.20611 17.1079 7.20902 16.7128M3.41739 13.3807L19.51 3.89228L22.6158 15.4834L4.19384 16.2784L3.41739 13.3807Z"
        stroke="#6CF9D8" stroke-width="1.5" stroke-linecap="round" stroke-linejoin="round" />
</svg>
    