<svg width="16" height="16" viewBox="0 0 16 16" fill="none" xmlns="http://www.w3.org/2000/svg">
<g clip-path="url(#clip0_3567_14391)">
<path fill-rule="evenodd" clip-rule="evenodd" d="M13 8.87498C13.4142 8.87498 13.75 8.53919 13.75 8.12498C13.75 7.71077 13.4142 7.37498 13 7.37498L8.62512 7.37498L8.62512 3.00011C8.62512 2.5859 8.28934 2.25011 7.87512 2.25011C7.46091 2.25011 7.12512 2.5859 7.12512 3.00011L7.12512 7.37498L2.75026 7.37498C2.33604 7.37498 2.00026 7.71077 2.00026 8.12498C2.00026 8.53919 2.33604 8.87498 2.75026 8.87498L7.12512 8.87498V13.2498C7.12512 13.6641 7.46091 13.9998 7.87512 13.9998C8.28934 13.9998 8.62512 13.6641 8.62512 13.2498V8.87498L13 8.87498Z" fill="#2D2E33"/>
</g>
<defs>
<clipPath id="clip0_3567_14391">
<rect x="2" y="2" width="12" height="12" rx="6" fill="white"/>
</clipPath>
</defs>
</svg>