<svg width="124" height="22" viewBox="0 0 124 22" fill="none" xmlns="http://www.w3.org/2000/svg">
<path d="M5.2253 5.186C6.04664 5.186 6.70464 5.438 7.1993 5.942C7.7033 6.446 7.9553 7.10867 7.9553 7.93C7.9553 8.742 7.69864 9.39533 7.1853 9.89C6.6813 10.3847 6.01397 10.632 5.1833 10.632H2.4533C2.41597 10.632 2.3973 10.6507 2.3973 10.688V14.86C2.3973 14.9533 2.35064 15 2.2573 15H1.5433C1.44997 15 1.4033 14.9533 1.4033 14.86V5.326C1.4033 5.23267 1.44997 5.186 1.5433 5.186H5.2253ZM5.1133 9.806C5.66397 9.806 6.11197 9.638 6.4573 9.302C6.80264 8.95667 6.9753 8.504 6.9753 7.944C6.9753 7.37467 6.80264 6.91733 6.4573 6.572C6.11197 6.22667 5.66397 6.054 5.1133 6.054H2.4533C2.41597 6.054 2.3973 6.07267 2.3973 6.11V9.75C2.3973 9.78733 2.41597 9.806 2.4533 9.806H5.1133ZM12.0464 15.112C11.3744 15.112 10.7957 14.9393 10.3104 14.594C9.82503 14.2487 9.48903 13.7727 9.30237 13.166C9.1717 12.7367 9.10637 12.1627 9.10637 11.444C9.10637 10.7253 9.1717 10.156 9.30237 9.736C9.4797 9.13867 9.81103 8.66733 10.2964 8.322C10.7817 7.97667 11.3697 7.804 12.0604 7.804C12.723 7.804 13.2924 7.97667 13.7684 8.322C14.2537 8.66733 14.585 9.134 14.7624 9.722C14.893 10.1233 14.9584 10.6973 14.9584 11.444C14.9584 12.2 14.893 12.774 14.7624 13.166C14.585 13.7727 14.2537 14.2487 13.7684 14.594C13.2924 14.9393 12.7184 15.112 12.0464 15.112ZM12.0464 14.244C12.4944 14.244 12.877 14.1227 13.1944 13.88C13.5117 13.628 13.7264 13.292 13.8384 12.872C13.9224 12.536 13.9644 12.0647 13.9644 11.458C13.9644 10.842 13.927 10.3707 13.8524 10.044C13.7404 9.624 13.521 9.29267 13.1944 9.05C12.877 8.798 12.4897 8.672 12.0324 8.672C11.575 8.672 11.1877 8.798 10.8704 9.05C10.553 9.29267 10.3384 9.624 10.2264 10.044C10.1517 10.3707 10.1144 10.842 10.1144 11.458C10.1144 12.074 10.1517 12.5453 10.2264 12.872C10.329 13.292 10.539 13.628 10.8564 13.88C11.183 14.1227 11.5797 14.244 12.0464 14.244ZM18.1698 15C18.0952 15 18.0438 14.9627 18.0158 14.888L16.0278 8.07L16.0138 8.028C16.0138 7.95333 16.0605 7.916 16.1538 7.916H16.8818C16.9658 7.916 17.0172 7.958 17.0358 8.042L18.5198 13.558C18.5292 13.5767 18.5385 13.586 18.5478 13.586C18.5665 13.586 18.5805 13.5767 18.5898 13.558L20.1018 8.042C20.1205 7.958 20.1718 7.916 20.2558 7.916H20.9278C21.0118 7.916 21.0632 7.95333 21.0818 8.028L22.6078 13.544C22.6172 13.5627 22.6312 13.572 22.6498 13.572C22.6685 13.572 22.6825 13.5627 22.6918 13.544L24.2178 8.042C24.2365 7.958 24.2878 7.916 24.3718 7.916L25.0998 7.93C25.1465 7.93 25.1792 7.944 25.1978 7.972C25.2258 8 25.2352 8.03733 25.2258 8.084L23.2098 14.888C23.1818 14.9627 23.1305 15 23.0558 15H22.3138C22.2392 15 22.1878 14.9627 22.1598 14.888L20.6338 9.652C20.6245 9.63333 20.6105 9.624 20.5918 9.624C20.5825 9.624 20.5732 9.63333 20.5638 9.652L19.0798 14.888C19.0518 14.9627 19.0005 15 18.9258 15H18.1698ZM31.9893 10.268C32.0266 10.5293 32.0453 10.856 32.0453 11.248V11.696C32.0453 11.7893 31.9986 11.836 31.9053 11.836H27.3833C27.3459 11.836 27.3273 11.8547 27.3273 11.892C27.3459 12.4053 27.3739 12.7367 27.4113 12.886C27.5139 13.306 27.7333 13.6373 28.0693 13.88C28.4053 14.1227 28.8346 14.244 29.3573 14.244C29.7493 14.244 30.0946 14.1553 30.3933 13.978C30.6919 13.8007 30.9253 13.5487 31.0933 13.222C31.1493 13.138 31.2146 13.1193 31.2893 13.166L31.8353 13.488C31.9099 13.5347 31.9286 13.6 31.8913 13.684C31.6579 14.132 31.3079 14.4867 30.8413 14.748C30.3746 15 29.8379 15.126 29.2313 15.126C28.5686 15.1167 28.0133 14.958 27.5653 14.65C27.1173 14.342 26.7953 13.9127 26.5993 13.362C26.4313 12.914 26.3473 12.27 26.3473 11.43C26.3473 11.038 26.3519 10.7207 26.3613 10.478C26.3799 10.226 26.4173 10.002 26.4733 9.806C26.6319 9.19933 26.9493 8.714 27.4253 8.35C27.9106 7.986 28.4939 7.804 29.1753 7.804C30.0246 7.804 30.6779 8.01867 31.1353 8.448C31.5926 8.87733 31.8773 9.484 31.9893 10.268ZM29.1753 8.672C28.7179 8.672 28.3353 8.79333 28.0273 9.036C27.7286 9.26933 27.5326 9.58667 27.4393 9.988C27.3833 10.184 27.3459 10.5013 27.3273 10.94C27.3273 10.9773 27.3459 10.996 27.3833 10.996H31.0093C31.0466 10.996 31.0653 10.9773 31.0653 10.94C31.0466 10.52 31.0186 10.2213 30.9813 10.044C30.8786 9.624 30.6686 9.29267 30.3513 9.05C30.0433 8.798 29.6513 8.672 29.1753 8.672ZM36.8781 7.846C37.1861 7.846 37.4521 7.90667 37.6761 8.028C37.7508 8.06533 37.7788 8.126 37.7601 8.21L37.6061 8.896C37.5781 8.98933 37.5174 9.01733 37.4241 8.98C37.2654 8.91467 37.0834 8.882 36.8781 8.882L36.6961 8.896C36.2108 8.91467 35.8094 9.09667 35.4921 9.442C35.1748 9.778 35.0161 10.2073 35.0161 10.73V14.86C35.0161 14.9533 34.9694 15 34.8761 15H34.1621C34.0688 15 34.0221 14.9533 34.0221 14.86V8.056C34.0221 7.96267 34.0688 7.916 34.1621 7.916H34.8761C34.9694 7.916 35.0161 7.96267 35.0161 8.056V8.91C35.0161 8.938 35.0208 8.95667 35.0301 8.966C35.0488 8.966 35.0628 8.95667 35.0721 8.938C35.2681 8.59267 35.5154 8.32667 35.8141 8.14C36.1221 7.944 36.4768 7.846 36.8781 7.846ZM44.4853 10.268C44.5227 10.5293 44.5414 10.856 44.5414 11.248V11.696C44.5414 11.7893 44.4947 11.836 44.4013 11.836H39.8793C39.842 11.836 39.8233 11.8547 39.8233 11.892C39.842 12.4053 39.87 12.7367 39.9073 12.886C40.01 13.306 40.2293 13.6373 40.5653 13.88C40.9013 14.1227 41.3307 14.244 41.8533 14.244C42.2453 14.244 42.5907 14.1553 42.8893 13.978C43.188 13.8007 43.4213 13.5487 43.5893 13.222C43.6453 13.138 43.7107 13.1193 43.7853 13.166L44.3313 13.488C44.406 13.5347 44.4247 13.6 44.3873 13.684C44.154 14.132 43.804 14.4867 43.3373 14.748C42.8707 15 42.334 15.126 41.7273 15.126C41.0647 15.1167 40.5093 14.958 40.0613 14.65C39.6133 14.342 39.2913 13.9127 39.0953 13.362C38.9273 12.914 38.8433 12.27 38.8433 11.43C38.8433 11.038 38.848 10.7207 38.8573 10.478C38.876 10.226 38.9133 10.002 38.9693 9.806C39.128 9.19933 39.4453 8.714 39.9213 8.35C40.4067 7.986 40.99 7.804 41.6713 7.804C42.5207 7.804 43.174 8.01867 43.6313 8.448C44.0887 8.87733 44.3734 9.484 44.4853 10.268ZM41.6713 8.672C41.214 8.672 40.8313 8.79333 40.5233 9.036C40.2247 9.26933 40.0287 9.58667 39.9353 9.988C39.8793 10.184 39.842 10.5013 39.8233 10.94C39.8233 10.9773 39.842 10.996 39.8793 10.996H43.5054C43.5427 10.996 43.5613 10.9773 43.5613 10.94C43.5427 10.52 43.5147 10.2213 43.4773 10.044C43.3747 9.624 43.1647 9.29267 42.8473 9.05C42.5393 8.798 42.1473 8.672 41.6713 8.672ZM50.9142 5.34C50.9142 5.24667 50.9609 5.2 51.0542 5.2H51.7682C51.8615 5.2 51.9082 5.24667 51.9082 5.34V14.86C51.9082 14.9533 51.8615 15 51.7682 15H51.0542C50.9609 15 50.9142 14.9533 50.9142 14.86V14.272C50.9142 14.2533 50.9049 14.244 50.8862 14.244C50.8769 14.2347 50.8629 14.2393 50.8442 14.258C50.6389 14.5287 50.3822 14.7387 50.0742 14.888C49.7755 15.0373 49.4395 15.112 49.0662 15.112C48.4129 15.112 47.8622 14.944 47.4142 14.608C46.9755 14.272 46.6722 13.8147 46.5042 13.236C46.3735 12.816 46.3082 12.2233 46.3082 11.458C46.3082 10.6833 46.3642 10.1047 46.4762 9.722C46.6442 9.12467 46.9522 8.658 47.4002 8.322C47.8482 7.97667 48.4035 7.804 49.0662 7.804C49.4302 7.804 49.7662 7.87867 50.0742 8.028C50.3822 8.168 50.6389 8.37333 50.8442 8.644C50.8629 8.66267 50.8769 8.672 50.8862 8.672C50.9049 8.66267 50.9142 8.64867 50.9142 8.63V5.34ZM50.6622 13.166C50.7462 12.9793 50.8069 12.76 50.8442 12.508C50.8815 12.256 50.9002 11.906 50.9002 11.458C50.9002 11.01 50.8815 10.66 50.8442 10.408C50.8069 10.1467 50.7415 9.918 50.6482 9.722C50.5362 9.40467 50.3495 9.15267 50.0882 8.966C49.8362 8.77 49.5329 8.672 49.1782 8.672C48.8049 8.672 48.4829 8.76533 48.2122 8.952C47.9415 9.13867 47.7455 9.386 47.6242 9.694C47.5122 9.89933 47.4282 10.1327 47.3722 10.394C47.3255 10.646 47.3022 11.0007 47.3022 11.458C47.3022 11.8967 47.3209 12.242 47.3582 12.494C47.3955 12.7367 47.4609 12.956 47.5542 13.152C47.6662 13.488 47.8622 13.754 48.1422 13.95C48.4315 14.146 48.7722 14.244 49.1642 14.244C49.5375 14.244 49.8502 14.146 50.1022 13.95C50.3542 13.754 50.5409 13.4927 50.6622 13.166ZM62.4095 9.722C62.5215 10.142 62.5775 10.7207 62.5775 11.458C62.5775 12.2233 62.5122 12.816 62.3815 13.236C62.2042 13.8147 61.8962 14.272 61.4575 14.608C61.0188 14.944 60.4728 15.112 59.8195 15.112C59.4462 15.112 59.1055 15.0373 58.7975 14.888C58.4895 14.7387 58.2328 14.524 58.0275 14.244C58.0182 14.2253 58.0042 14.2207 57.9855 14.23C57.9668 14.23 57.9575 14.2393 57.9575 14.258V14.86C57.9575 14.9533 57.9108 15 57.8175 15H57.1035C57.0102 15 56.9635 14.9533 56.9635 14.86V5.34C56.9635 5.24667 57.0102 5.2 57.1035 5.2H57.8175C57.9108 5.2 57.9575 5.24667 57.9575 5.34V8.644C57.9575 8.66267 57.9622 8.67667 57.9715 8.686C57.9902 8.686 58.0088 8.67667 58.0275 8.658C58.2328 8.38733 58.4895 8.17733 58.7975 8.028C59.1055 7.87867 59.4462 7.804 59.8195 7.804C60.4822 7.804 61.0375 7.97667 61.4855 8.322C61.9335 8.658 62.2415 9.12467 62.4095 9.722ZM61.3315 13.152C61.4248 12.956 61.4902 12.7367 61.5275 12.494C61.5648 12.242 61.5835 11.8967 61.5835 11.458C61.5835 11.0007 61.5555 10.646 61.4995 10.394C61.4528 10.1327 61.3735 9.89933 61.2615 9.694C61.1402 9.386 60.9442 9.13867 60.6735 8.952C60.4028 8.76533 60.0808 8.672 59.7075 8.672C59.3528 8.672 59.0448 8.77 58.7835 8.966C58.5315 9.15267 58.3495 9.40467 58.2375 9.722C58.1442 9.918 58.0742 10.142 58.0275 10.394C57.9902 10.646 57.9715 11.0007 57.9715 11.458C57.9715 11.906 57.9902 12.256 58.0275 12.508C58.0742 12.7507 58.1395 12.97 58.2235 13.166C58.3448 13.4927 58.5315 13.754 58.7835 13.95C59.0355 14.146 59.3482 14.244 59.7215 14.244C60.1135 14.244 60.4495 14.146 60.7295 13.95C61.0188 13.754 61.2195 13.488 61.3315 13.152ZM64.161 17.8C64.0957 17.8 64.063 17.7533 64.063 17.66V17.1C64.063 17.0067 64.1097 16.96 64.203 16.96H64.259C64.623 16.9507 64.903 16.8947 65.099 16.792C65.3044 16.6987 65.477 16.5167 65.617 16.246C65.7664 15.9847 65.925 15.5833 66.093 15.042C66.1117 15.0047 66.1117 14.9767 66.093 14.958L63.727 8.07L63.713 8.014C63.713 7.94867 63.755 7.916 63.839 7.916H64.581C64.665 7.916 64.721 7.95333 64.749 8.028L66.569 13.684C66.5784 13.7027 66.5924 13.712 66.611 13.712C66.6297 13.712 66.6437 13.7027 66.653 13.684L68.445 8.028C68.473 7.95333 68.529 7.916 68.613 7.916H69.341C69.4437 7.916 69.481 7.96733 69.453 8.07L66.863 15.616C66.639 16.2413 66.429 16.7033 66.233 17.002C66.037 17.3007 65.7897 17.506 65.491 17.618C65.2017 17.7393 64.791 17.8 64.259 17.8H64.161Z" fill="#9DAAB2"/>
<path fill-rule="evenodd" clip-rule="evenodd" d="M105.619 16.7848H103.798C103.455 16.7848 103.178 16.5082 103.178 16.1673V11.3683L99.9815 13.367C99.7133 13.5347 99.3722 13.5347 99.104 13.367L95.9074 11.3681V16.1673C95.9074 16.5082 95.6299 16.7848 95.288 16.7848H93.4669C93.1246 16.7848 92.8475 16.5082 92.8475 16.1673V6.91765C92.8475 6.25533 93.592 5.86407 94.1399 6.23845L99.1928 9.68981C99.4036 9.83409 99.6819 9.83409 99.8929 9.68981L104.945 6.23845C105.494 5.86386 106.238 6.25512 106.238 6.91744V16.1673C106.238 16.5082 105.961 16.7848 105.619 16.7848Z" fill="#9DAAB2"/>
<path fill-rule="evenodd" clip-rule="evenodd" d="M90.1042 16.7025L78.8226 16.7023C78.3687 16.7023 78.0007 16.3352 78.0007 15.8825V6.61491C78.0007 6.27528 78.2767 6 78.6171 6H80.4295C80.7698 6 81.0459 6.27528 81.0459 6.61491V13.6645L87.8809 13.6647V6.61491C87.8809 6.27528 88.1566 6 88.4973 6H90.3097C90.65 6 90.9261 6.27528 90.9261 6.61491V15.8827C90.9261 16.3354 90.5581 16.7025 90.1042 16.7025Z" fill="#9DAAB2"/>
<path fill-rule="evenodd" clip-rule="evenodd" d="M108.954 6L120.236 6.0002C120.69 6.0002 121.058 6.36731 121.058 6.82009V16.0876C121.058 16.4273 120.782 16.7025 120.442 16.7025H118.629C118.289 16.7025 118.013 16.4273 118.013 16.0876V9.44802C118.013 9.22173 117.829 9.03807 117.602 9.03807L111.589 9.03787C111.362 9.03787 111.178 9.22132 111.178 9.44781V16.0876C111.178 16.4273 110.902 16.7025 110.561 16.7025H108.749C108.409 16.7025 108.133 16.4273 108.133 16.0876V6.81988C108.133 6.3671 108.501 6 108.954 6Z" fill="#9DAAB2"/>
<path fill-rule="evenodd" clip-rule="evenodd" d="M113.072 11.6323V13.4568C113.072 13.7942 113.348 14.0676 113.689 14.0676H115.501C115.842 14.0676 116.118 13.7942 116.118 13.4568V11.6323C116.118 11.2949 115.842 11.0215 115.501 11.0215H113.689C113.348 11.0215 113.072 11.2949 113.072 11.6323Z" fill="#9DAAB2"/>
</svg>
