<svg width="32" height="16" viewBox="0 0 32 16" fill="none" xmlns="http://www.w3.org/2000/svg">
<path d="M10 6.66675L13.3333 10.0001L10 13.3334" stroke="#9DAAB2" stroke-width="1.5" stroke-linecap="round" stroke-linejoin="round"/>
<path d="M2.66675 2.66675V7.33341C2.66675 8.04066 2.9477 8.71894 3.4478 9.21903C3.94789 9.71913 4.62617 10.0001 5.33341 10.0001H13.3334" stroke="#9DAAB2" stroke-width="1.5" stroke-linecap="round" stroke-linejoin="round"/>
<path d="M29.3334 14V12.6667C29.3334 11.9594 29.0525 11.2811 28.5524 10.781C28.0523 10.281 27.374 10 26.6667 10H21.3334C20.6262 10 19.9479 10.281 19.4478 10.781C18.9477 11.2811 18.6667 11.9594 18.6667 12.6667V14" stroke="#9DAAB2" stroke-width="1.5" stroke-linecap="round" stroke-linejoin="round"/>
<path d="M23.9999 7.33333C25.4727 7.33333 26.6666 6.13943 26.6666 4.66667C26.6666 3.19391 25.4727 2 23.9999 2C22.5272 2 21.3333 3.19391 21.3333 4.66667C21.3333 6.13943 22.5272 7.33333 23.9999 7.33333Z" stroke="#9DAAB2" stroke-width="1.5" stroke-linecap="round" stroke-linejoin="round"/>
</svg>
