<svg width="64" height="64" viewBox="0 0 64 64" fill="none" xmlns="http://www.w3.org/2000/svg">
<path d="M18.7916 10.1912C21.482 10.2821 24.0805 9.20581 25.9186 7.23911C29.2087 3.71882 34.7913 3.71882 38.0814 7.23911C39.9195 9.20581 42.518 10.2821 45.2084 10.1912C50.0241 10.0284 53.9716 13.9759 53.8088 18.7916C53.7179 21.482 54.7942 24.0805 56.7609 25.9186C60.2812 29.2087 60.2812 34.7913 56.7609 38.0814C54.7942 39.9195 53.7179 42.518 53.8088 45.2084C53.9716 50.0241 50.0241 53.9716 45.2084 53.8088C42.518 53.7179 39.9195 54.7942 38.0814 56.7609C34.7913 60.2812 29.2087 60.2812 25.9186 56.7609C24.0805 54.7942 21.482 53.7179 18.7916 53.8088C13.9759 53.9716 10.0284 50.0241 10.1912 45.2084C10.2821 42.518 9.20581 39.9195 7.23911 38.0814C3.71882 34.7913 3.71882 29.2087 7.23911 25.9186C9.20581 24.0805 10.2821 21.482 10.1912 18.7916C10.0284 13.9759 13.9759 10.0284 18.7916 10.1912Z" fill="#34353B" stroke="#CD8EFF"/>
<path d="M37.0231 39.2135V37.3455C37.0231 36.3546 36.6688 35.4043 36.0382 34.7037C35.4077 34.003 34.5524 33.6094 33.6606 33.6094H26.9356C26.0438 33.6094 25.1886 34.003 24.558 34.7037C23.9274 35.4043 23.5731 36.3546 23.5731 37.3455V39.2135" stroke="#CD8EFF" stroke-width="1.5" stroke-linecap="round" stroke-linejoin="round"/>
<path d="M30.2974 28.9691C32.1545 28.9691 33.6599 27.4637 33.6599 25.6066C33.6599 23.7496 32.1545 22.2441 30.2974 22.2441C28.4404 22.2441 26.9349 23.7496 26.9349 25.6066C26.9349 27.4637 28.4404 28.9691 30.2974 28.9691Z" stroke="#CD8EFF" stroke-width="1.5" stroke-linecap="round" stroke-linejoin="round"/>
<path d="M41.5047 39.2135V37.3041C41.5042 36.458 41.2838 35.636 40.8781 34.9673C40.4723 34.2985 39.9043 33.8209 39.2631 33.6094" stroke="#CD8EFF" stroke-width="1.5" stroke-linecap="round" stroke-linejoin="round"/>
<path d="M37.183 23.3633C37.8242 23.5226 38.3926 23.8844 38.7985 24.3918C39.2043 24.8991 39.4246 25.5231 39.4246 26.1654C39.4246 26.8076 39.2043 27.4316 38.7985 27.9389C38.3926 28.4463 37.8242 28.8081 37.183 28.9674" stroke="#CD8EFF" stroke-width="1.5" stroke-linecap="round" stroke-linejoin="round"/>
</svg>