<svg color="#E0F3FF" viewBox="0 0 32 32" fill="none" xmlns="http://www.w3.org/2000/svg">
  <path d="M16 22C19.3137 22 22 19.3137 22 16C22 12.6863 19.3137 10 16 10C12.6863 10 10 12.6863 10 16C10 19.3137 12.6863 22 16 22Z" stroke="currentColor" stroke-width="2" stroke-linecap="round" stroke-linejoin="round"/>
  <path d="M20.3335 20.3335L23.3335 23.3335" stroke="" stroke-width="2" stroke-linecap="round" stroke-linejoin="round"/>
  <path d="M11.0742 4.327C12.5885 3.68723 14.253 3.3335 16.0002 3.3335C17.7474 3.3335 19.4119 3.68723 20.926 4.327M20.926 27.6734C19.4119 28.3131 17.7474 28.6668 16.0002 28.6668C14.253 28.6668 12.5885 28.3131 11.0742 27.6734M4.327 20.926C3.68723 19.4119 3.3335 17.7474 3.3335 16.0002C3.3335 14.253 3.68723 12.5885 4.327 11.0742M27.6734 11.0742C28.3131 12.5885 28.6668 14.253 28.6668 16.0002C28.6668 17.7474 28.3131 19.4119 27.6734 20.926" stroke="currentColor" stroke-width="2" stroke-linecap="round" stroke-linejoin="round"/>
</svg>
