<svg width="66" height="66" viewBox="0 0 66 66" fill="none" xmlns="http://www.w3.org/2000/svg">
<g filter="url(#filter0_dd_8120_25177)">
<path d="M28.165 10.1733C30.7808 7.37447 35.2192 7.37447 37.835 10.1733C39.1397 11.5692 40.984 12.3331 42.8936 12.2686C46.7223 12.1392 49.8608 15.2777 49.7314 19.1064C49.6669 21.016 50.4308 22.8603 51.8267 24.165C54.6255 26.7808 54.6255 31.2192 51.8267 33.835C50.4308 35.1397 49.6669 36.984 49.7314 38.8936C49.8608 42.7223 46.7223 45.8608 42.8936 45.7314C40.984 45.6669 39.1397 46.4308 37.835 47.8267C35.2192 50.6255 30.7808 50.6255 28.165 47.8267C26.8603 46.4308 25.016 45.6669 23.1064 45.7314C19.2777 45.8608 16.1392 42.7223 16.2686 38.8936C16.3331 36.984 15.5692 35.1397 14.1733 33.835C11.3745 31.2192 11.3745 26.7808 14.1733 24.165C15.5692 22.8603 16.3331 21.016 16.2686 19.1064C16.1392 15.2777 19.2777 12.1392 23.1064 12.2686C25.016 12.3331 26.8603 11.5692 28.165 10.1733Z" fill="#6CF9D8" fill-opacity="0.05" shape-rendering="crispEdges"/>
<path d="M28.5303 10.5147C30.9484 7.92733 35.0516 7.92733 37.4697 10.5147C38.873 12.0161 40.8566 12.8377 42.9105 12.7683C46.45 12.6487 49.3513 15.55 49.2317 19.0895C49.1623 21.1434 49.9839 23.127 51.4853 24.5303C54.0727 26.9484 54.0727 31.0516 51.4853 33.4697C49.9839 34.873 49.1623 36.8566 49.2317 38.9105C49.3513 42.45 46.45 45.3513 42.9105 45.2317C40.8566 45.1623 38.873 45.9839 37.4697 47.4853C35.0516 50.0727 30.9484 50.0727 28.5303 47.4853C27.127 45.9839 25.1434 45.1623 23.0895 45.2317C19.55 45.3513 16.6487 42.45 16.7683 38.9105C16.8377 36.8566 16.0161 34.873 14.5147 33.4697C11.9273 31.0516 11.9273 26.9484 14.5147 24.5303C16.0161 23.127 16.8377 21.1434 16.7683 19.0895C16.6487 15.55 19.55 12.6487 23.0895 12.7683C25.1434 12.8377 27.127 12.0161 28.5303 10.5147Z" stroke="#6CF9D8" stroke-opacity="0.15" shape-rendering="crispEdges"/>
</g>
<path d="M33 31.167C35.7614 31.167 38 28.9284 38 26.167C38 23.4056 35.7614 21.167 33 21.167C30.2386 21.167 28 23.4056 28 26.167C28 28.9284 30.2386 31.167 33 31.167Z" stroke="#6CF9D8" stroke-width="1.5" stroke-linecap="round" stroke-linejoin="round"/>
<path d="M35.8982 30.2412L37.1673 37.8329L33.0007 35.3329L28.834 37.8329L30.1032 30.2412" stroke="#6CF9D8" stroke-width="1.5" stroke-linecap="round" stroke-linejoin="round"/>
<defs>
<filter id="filter0_dd_8120_25177" x="0.0742188" y="0.0742188" width="65.8516" height="65.8516" filterUnits="userSpaceOnUse" color-interpolation-filters="sRGB">
<feFlood flood-opacity="0" result="BackgroundImageFix"/>
<feColorMatrix in="SourceAlpha" type="matrix" values="0 0 0 0 0 0 0 0 0 0 0 0 0 0 0 0 0 0 127 0" result="hardAlpha"/>
<feOffset dy="4"/>
<feGaussianBlur stdDeviation="6"/>
<feComposite in2="hardAlpha" operator="out"/>
<feColorMatrix type="matrix" values="0 0 0 0 0 0 0 0 0 0 0 0 0 0 0 0 0 0 0.075 0"/>
<feBlend mode="normal" in2="BackgroundImageFix" result="effect1_dropShadow_8120_25177"/>
<feColorMatrix in="SourceAlpha" type="matrix" values="0 0 0 0 0 0 0 0 0 0 0 0 0 0 0 0 0 0 127 0" result="hardAlpha"/>
<feOffset dy="2"/>
<feGaussianBlur stdDeviation="3"/>
<feComposite in2="hardAlpha" operator="out"/>
<feColorMatrix type="matrix" values="0 0 0 0 0 0 0 0 0 0 0 0 0 0 0 0 0 0 0.075 0"/>
<feBlend mode="normal" in2="effect1_dropShadow_8120_25177" result="effect2_dropShadow_8120_25177"/>
<feBlend mode="normal" in="SourceGraphic" in2="effect2_dropShadow_8120_25177" result="shape"/>
</filter>
</defs>
</svg>
