<svg viewBox="0 0 16 16" fill="none" xmlns="http://www.w3.org/2000/svg">
  <g opacity="0.5">
    <path d="M8.00072 6V2.5H12.6613C12.8745 2.5 13.075 2.60205 13.2004 2.77455L14.0349 3.92196C14.2116 4.16489 14.204 4.49597 14.0163 4.73053L13.2009 5.74979C13.0744 5.90794 12.8829 6 12.6803 6H8.00072ZM8.00072 6V9.33333M8.00072 6H3.32116C3.11864 6 2.92709 6.09206 2.80058 6.25021L2.00058 7.2502C1.8058 7.49367 1.8058 7.83967 2.00058 8.08313L2.80058 9.08313C2.92709 9.24127 3.11864 9.33333 3.32116 9.33333H8.00072M8.00072 9.33333V13.5M8.00072 13.5H5.16741M8.00072 13.5H10.8341" stroke="#E0F3FF" strokeLinecap="round" strokeLinejoin="round"/>
  </g>
</svg>