<svg viewBox="0 0 88 88" fill="none" xmlns="http://www.w3.org/2000/svg">
  <path d="M0 44C0 19.6995 19.6995 0 44 0C68.3005 0 88 19.6995 88 44C88 68.3005 68.3005 88 44 88C19.6995 88 0 68.3005 0 44Z" fill="white" fill-opacity="0.05"/>
  <path d="M54 20C56.2091 20 58 21.7909 58 24V64C58 66.2091 56.2091 68 54 68H26C23.7909 68 22 66.2091 22 64V24C22 21.7909 23.7909 20 26 20H54ZM26.5 54C25.6716 54 25 54.6716 25 55.5C25 56.3284 25.6716 57 26.5 57H54.5C55.3284 57 56 56.3284 56 55.5C56 54.6716 55.3284 54 54.5 54H26.5ZM26.5 49C25.6716 49 25 49.6716 25 50.5C25 51.3284 25.6716 52 26.5 52H54.5C55.3284 52 56 51.3284 56 50.5C56 49.6716 55.3284 49 54.5 49H26.5ZM26.5 44C25.6716 44 25 44.6716 25 45.5C25 46.3284 25.6716 47 26.5 47H54.5C55.3284 47 56 46.3284 56 45.5C56 44.6716 55.3284 44 54.5 44H26.5ZM31.1465 27C27.597 27 24.7188 29.9101 24.7188 33.5C24.7188 37.0898 27.597 40 31.1465 40C34.6958 39.9998 37.5732 37.0897 37.5732 33.5C37.5732 29.9103 34.6958 27.0002 31.1465 27ZM30.668 31.2471C30.9322 30.98 31.3598 30.98 31.624 31.2471L33.374 33.0166C33.6378 33.2837 33.6378 33.7163 33.374 33.9834L31.624 35.7529C31.3598 36.0199 30.9322 36.0199 30.668 35.7529L28.918 33.9834C28.6542 33.7163 28.6542 33.2837 28.918 33.0166L30.668 31.2471Z" fill="url(#paint0_linear_2334_6782)"/>
  <path d="M71.191 66L63.6489 58.3722M63.6489 58.3722C66.2035 55.7886 67.7836 52.2193 67.7836 48.2769C67.7836 40.392 61.4635 34 53.6671 34C45.8707 34 39.5506 40.392 39.5506 48.2769C39.5506 56.1619 45.8707 62.5538 53.6671 62.5538C57.5652 62.5538 61.0943 60.9558 63.6489 58.3722Z" stroke="url(#paint1_linear_2334_6782)" stroke-width="4" stroke-linecap="round"/>
  <defs>
    <linearGradient id="paint0_linear_2334_6782" x1="40" y1="20" x2="40" y2="68" gradientUnits="userSpaceOnUse">
      <stop stop-color="#51555C"/>
      <stop offset="1" stop-color="#34353B"/>
    </linearGradient>
    <linearGradient id="paint1_linear_2334_6782" x1="55.3708" y1="34" x2="55.3708" y2="66" gradientUnits="userSpaceOnUse">
      <stop stop-color="#AAB8C2"/>
      <stop offset="1" stop-color="#636970"/>
    </linearGradient>
  </defs>
</svg>
