<svg width="16" height="16" viewBox="0 0 16 16" fill="none" xmlns="http://www.w3.org/2000/svg">
<path d="M8.14276 1.33301H7.84943C7.49581 1.33301 7.15667 1.47348 6.90662 1.72353C6.65657 1.97358 6.51609 2.31272 6.51609 2.66634V2.78634C6.51586 3.02016 6.45413 3.2498 6.33712 3.45223C6.22011 3.65466 6.05192 3.82277 5.84943 3.93967L5.56276 4.10634C5.36007 4.22337 5.13014 4.28497 4.8961 4.28497C4.66205 4.28497 4.43212 4.22337 4.22943 4.10634L4.12943 4.05301C3.82347 3.87652 3.45999 3.82864 3.11876 3.91988C2.77754 4.01112 2.48646 4.23403 2.30943 4.53967L2.16276 4.79301C1.98627 5.09896 1.93839 5.46245 2.02963 5.80367C2.12088 6.1449 2.34379 6.43597 2.64943 6.61301L2.74943 6.67967C2.95095 6.79601 3.11851 6.96307 3.23546 7.16423C3.35242 7.36539 3.41469 7.59366 3.4161 7.82634V8.16634C3.41703 8.40129 3.35586 8.63231 3.23879 8.83601C3.12172 9.03972 2.9529 9.20887 2.74943 9.32634L2.64943 9.38634C2.34379 9.56337 2.12088 9.85445 2.02963 10.1957C1.93839 10.5369 1.98627 10.9004 2.16276 11.2063L2.30943 11.4597C2.48646 11.7653 2.77754 11.9882 3.11876 12.0795C3.45999 12.1707 3.82347 12.1228 4.12943 11.9463L4.22943 11.893C4.43212 11.776 4.66205 11.7144 4.8961 11.7144C5.13014 11.7144 5.36007 11.776 5.56276 11.893L5.84943 12.0597C6.05192 12.1766 6.22011 12.3447 6.33712 12.5471C6.45413 12.7495 6.51586 12.9792 6.51609 13.213V13.333C6.51609 13.6866 6.65657 14.0258 6.90662 14.2758C7.15667 14.5259 7.49581 14.6663 7.84943 14.6663H8.14276C8.49638 14.6663 8.83552 14.5259 9.08557 14.2758C9.33562 14.0258 9.4761 13.6866 9.4761 13.333V13.213C9.47634 12.9792 9.53806 12.7495 9.65507 12.5471C9.77208 12.3447 9.94027 12.1766 10.1428 12.0597L10.4294 11.893C10.6321 11.776 10.862 11.7144 11.0961 11.7144C11.3301 11.7144 11.5601 11.776 11.7628 11.893L11.8628 11.9463C12.1687 12.1228 12.5322 12.1707 12.8734 12.0795C13.2147 11.9882 13.5057 11.7653 13.6828 11.4597L13.8294 11.1997C14.0059 10.8937 14.0538 10.5302 13.9626 10.189C13.8713 9.84778 13.6484 9.55671 13.3428 9.37967L13.2428 9.32634C13.0393 9.20887 12.8705 9.03972 12.7534 8.83601C12.6363 8.63231 12.5752 8.40129 12.5761 8.16634V7.83301C12.5752 7.59806 12.6363 7.36704 12.7534 7.16334C12.8705 6.95963 13.0393 6.79048 13.2428 6.67301L13.3428 6.61301C13.6484 6.43597 13.8713 6.1449 13.9626 5.80367C14.0538 5.46245 14.0059 5.09896 13.8294 4.79301L13.6828 4.53967C13.5057 4.23403 13.2147 4.01112 12.8734 3.91988C12.5322 3.82864 12.1687 3.87652 11.8628 4.05301L11.7628 4.10634C11.5601 4.22337 11.3301 4.28497 11.0961 4.28497C10.862 4.28497 10.6321 4.22337 10.4294 4.10634L10.1428 3.93967C9.94027 3.82277 9.77208 3.65466 9.65507 3.45223C9.53806 3.2498 9.47634 3.02016 9.4761 2.78634V2.66634C9.4761 2.31272 9.33562 1.97358 9.08557 1.72353C8.83552 1.47348 8.49638 1.33301 8.14276 1.33301Z" stroke="#9DAAB3" stroke-linecap="round" stroke-linejoin="round"/>
<path d="M8 10C9.10457 10 10 9.10457 10 8C10 6.89543 9.10457 6 8 6C6.89543 6 6 6.89543 6 8C6 9.10457 6.89543 10 8 10Z" stroke="#9DAAB3" stroke-linecap="round" stroke-linejoin="round"/>
</svg>
