<svg viewBox="0 0 40 40" fill="none" xmlns="http://www.w3.org/2000/svg">
  <path
    d="M15.3789 2.00623C17.879 -0.668744 22.121 -0.668744 24.6211 2.00623C25.8681 3.3404 27.6308 4.07054 29.4559 4.00886C33.1152 3.88519 36.1148 6.88479 35.9911 10.5441C35.9295 12.3692 36.6596 14.1319 37.9938 15.3789C40.6687 17.879 40.6687 22.121 37.9938 24.6211C36.6596 25.8681 35.9295 27.6308 35.9911 29.4559C36.1148 33.1152 33.1152 36.1148 29.4559 35.9911C27.6308 35.9295 25.8681 36.6596 24.6211 37.9938C22.121 40.6687 17.879 40.6687 15.3789 37.9938C14.1319 36.6596 12.3692 35.9295 10.5441 35.9911C6.88479 36.1148 3.88519 33.1152 4.00886 29.4559C4.07054 27.6308 3.3404 25.8681 2.00623 24.6211C-0.668744 22.121 -0.668744 17.879 2.00623 15.3789C3.3404 14.1319 4.07054 12.3692 4.00886 10.5441C3.88519 6.88479 6.88479 3.88519 10.5441 4.00886C12.3692 4.07054 14.1319 3.3404 15.3789 2.00623Z"
    fill="#6CF9D8"
    fill-opacity="0.05"
  />
  <path
    d="M15.7441 2.34766C18.0466 -0.115868 21.9534 -0.115868 24.2559 2.34766C25.6013 3.78724 27.5033 4.57531 29.4727 4.50879C32.8427 4.3949 35.6051 7.15729 35.4912 10.5273C35.4247 12.4967 36.2128 14.3987 37.6523 15.7441C40.1159 18.0466 40.1159 21.9534 37.6523 24.2559C36.2128 25.6013 35.4247 27.5033 35.4912 29.4727C35.6051 32.8427 32.8427 35.6051 29.4727 35.4912C27.5033 35.4247 25.6013 36.2128 24.2559 37.6523C21.9534 40.1159 18.0466 40.1159 15.7441 37.6523C14.3987 36.2128 12.4967 35.4247 10.5273 35.4912C7.15729 35.6051 4.3949 32.8427 4.50879 29.4727C4.57531 27.5033 3.78724 25.6013 2.34766 24.2559C-0.115868 21.9534 -0.115868 18.0466 2.34766 15.7441C3.78724 14.3987 4.57531 12.4967 4.50879 10.5273C4.3949 7.15729 7.15729 4.3949 10.5273 4.50879C12.4967 4.57531 14.3987 3.78724 15.7441 2.34766Z"
    stroke="#6CF9D8"
    stroke-opacity="0.15"
  />
  <path
    d="M16.9689 21.359L23.04 24.941M23.0311 15.059L16.9689 18.641M28 13.7C28 15.1912 26.8061 16.4 25.3333 16.4C23.8606 16.4 22.6667 15.1912 22.6667 13.7C22.6667 12.2088 23.8606 11 25.3333 11C26.8061 11 28 12.2088 28 13.7ZM17.3333 20C17.3333 21.4912 16.1394 22.7 14.6667 22.7C13.1939 22.7 12 21.4912 12 20C12 18.5088 13.1939 17.3 14.6667 17.3C16.1394 17.3 17.3333 18.5088 17.3333 20ZM28 26.3C28 27.7912 26.8061 29 25.3333 29C23.8606 29 22.6667 27.7912 22.6667 26.3C22.6667 24.8088 23.8606 23.6 25.3333 23.6C26.8061 23.6 28 24.8088 28 26.3Z"
    stroke="#6CF9D8"
    stroke-width="1.5"
    stroke-linecap="round"
    stroke-linejoin="round"
  />
</svg>
