<svg width="1em" height="1em" viewBox="0 0 16 16" fill="none" xmlns="http://www.w3.org/2000/svg">
  <path fillRule="evenodd" clipRule="evenodd" d="M7.63107 1.42901C7.87053 1.34918 8.12947 1.34918 8.36893 1.42901L13.2023 3.04012C13.6787 3.19892 14 3.64474 14 4.14692V7.94133C14 9.7662 13.211 11.1131 12.0941 12.1729C10.9961 13.2147 9.56027 13.9981 8.2374 14.7117C8.0892 14.7917 7.9108 14.7917 7.7626 14.7117C6.43971 13.9981 5.00387 13.2147 3.90584 12.1729C2.78901 11.1131 2 9.7662 2 7.94133V4.14692C2 3.64475 2.32133 3.19892 2.79773 3.04012L7.63107 1.42901ZM10.1869 6.68686C10.3821 6.49162 10.3821 6.17504 10.1869 5.97978C9.9916 5.78452 9.67507 5.78452 9.4798 5.97978L7.33333 8.1262L6.52022 7.31313C6.32496 7.11786 6.00837 7.11786 5.81311 7.31313C5.61785 7.5084 5.61785 7.82493 5.81311 8.0202L6.9798 9.18686C7.07353 9.28066 7.20073 9.33333 7.33333 9.33333C7.46593 9.33333 7.59313 9.28066 7.68687 9.18686L10.1869 6.68686Z" fill="#6CF9D8"/>
</svg>
