<svg color="#FF6166" viewBox="0 0 32 32" fill="none" xmlns="http://www.w3.org/2000/svg">
  <path d="M6 24.6668V27.3335C6 28.0699 6.59696 28.6668 7.33333 28.6668H24.6667C25.4031 28.6668 26 28.0699 26 27.3335V24.6668C26 23.9304 25.4031 23.3335 24.6667 23.3335H7.33333C6.59696 23.3335 6 23.9304 6 24.6668Z" stroke="currentColor" stroke-width="1.33333" stroke-linecap="round" stroke-linejoin="round"/>
  <path d="M8.66675 23.3332V15.9998C8.66675 11.9497 11.95 8.6665 16.0001 8.6665C20.0502 8.6665 23.3334 11.9497 23.3334 15.9998V23.3332" stroke="currentColor" stroke-width="1.33333" stroke-linecap="round" stroke-linejoin="round"/>
  <path d="M16 2V3.4M28.6 16H30M3.4 16H2M24.9096 7.09045L25.8995 6.10051M7.09048 7.09043L6.10053 6.10047" stroke="currentColor" stroke-width="1.33333" stroke-linecap="round" stroke-linejoin="round"/>
  <path d="M16 23.3335V19.3335" stroke="#" stroke-width="1.33333" stroke-linecap="round" stroke-linejoin="round"/>
</svg>
