<svg width="28" height="28" viewBox="0 0 28 28" fill="none" xmlns="http://www.w3.org/2000/svg">
<rect x="1" y="1" width="26" height="26" rx="13" fill="#F96C6C"/>
<path fill-rule="evenodd" clip-rule="evenodd" d="M19.197 9.69683C19.4899 9.40394 19.4899 8.92907 19.197 8.63617C18.9041 8.34328 18.4293 8.34328 18.1364 8.63617L13.9165 12.8561L9.69662 8.63617C9.40373 8.34328 8.92885 8.34328 8.63596 8.63617C8.34307 8.92907 8.34307 9.40394 8.63596 9.69683L12.8558 13.9167L8.63596 18.1366C8.34307 18.4295 8.34307 18.9044 8.63596 19.1973C8.92885 19.4901 9.40373 19.4901 9.69662 19.1973L13.9165 14.9774L18.1364 19.1973C18.4293 19.4901 18.9041 19.4901 19.197 19.1973C19.4899 18.9044 19.4899 18.4295 19.197 18.1366L14.9772 13.9167L19.197 9.69683Z" fill="#2D2E33"/>
<rect x="1" y="1" width="26" height="26" rx="13" stroke="#2D2E33" stroke-width="2"/>
</svg>