<svg width="25" height="24" viewBox="0 0 25 24" fill="none" xmlns="http://www.w3.org/2000/svg">
<path d="M7.3 6.8L9.2 4.9M9.2 4.9L7.3 3M9.2 4.9H7.3C5.20132 4.9 3.5 6.60132 3.5 8.7M18.7 18.2L16.8 20.1M16.8 20.1L18.7 22M16.8 20.1H18.7C20.7987 20.1 22.5 18.3987 22.5 16.3" stroke="#9DAAB3" stroke-width="1.5" stroke-linecap="round" stroke-linejoin="round"/>
<mask id="path-2-inside-1_9104_126637" fill="white">
<path fill-rule="evenodd" clip-rule="evenodd" d="M12.9331 9.6309C13.4581 8.524 14.6026 7.75 15.9379 7.75C17.7781 7.75 19.25 9.21592 19.25 11C19.25 12.7841 17.7781 14.25 15.9379 14.25C15.7875 14.25 15.6398 14.2402 15.4952 14.2213C15.4984 14.1479 15.5 14.0742 15.5 14C15.5 12.1218 14.4644 10.4855 12.9331 9.6309ZM11.5242 9.105C12.2672 7.4205 13.9676 6.25 15.9379 6.25C18.5846 6.25 20.75 8.3658 20.75 11C20.75 13.6342 18.5846 15.75 15.9379 15.75C15.6892 15.75 15.4445 15.7313 15.2053 15.6952C14.5109 17.6223 12.6664 19 10.5 19C7.73858 19 5.5 16.7614 5.5 14C5.5 11.2386 7.73858 9 10.5 9C10.851 9 11.1936 9.03618 11.5242 9.105ZM14 14C14 15.933 12.433 17.5 10.5 17.5C8.567 17.5 7 15.933 7 14C7 12.067 8.567 10.5 10.5 10.5C12.433 10.5 14 12.067 14 14Z"/>
</mask>
<path fill-rule="evenodd" clip-rule="evenodd" d="M12.9331 9.6309C13.4581 8.524 14.6026 7.75 15.9379 7.75C17.7781 7.75 19.25 9.21592 19.25 11C19.25 12.7841 17.7781 14.25 15.9379 14.25C15.7875 14.25 15.6398 14.2402 15.4952 14.2213C15.4984 14.1479 15.5 14.0742 15.5 14C15.5 12.1218 14.4644 10.4855 12.9331 9.6309ZM11.5242 9.105C12.2672 7.4205 13.9676 6.25 15.9379 6.25C18.5846 6.25 20.75 8.3658 20.75 11C20.75 13.6342 18.5846 15.75 15.9379 15.75C15.6892 15.75 15.4445 15.7313 15.2053 15.6952C14.5109 17.6223 12.6664 19 10.5 19C7.73858 19 5.5 16.7614 5.5 14C5.5 11.2386 7.73858 9 10.5 9C10.851 9 11.1936 9.03618 11.5242 9.105ZM14 14C14 15.933 12.433 17.5 10.5 17.5C8.567 17.5 7 15.933 7 14C7 12.067 8.567 10.5 10.5 10.5C12.433 10.5 14 12.067 14 14Z" fill="#2D2E33"/>
<path d="M12.9331 9.6309L11.5778 8.9881L10.9762 10.2566L12.2021 10.9407L12.9331 9.6309ZM15.4952 14.2213L13.9966 14.156L13.9368 15.5302L15.3006 15.7086L15.4952 14.2213ZM11.5242 9.105L11.2185 10.5735L12.4068 10.8209L12.8967 9.71035L11.5242 9.105ZM15.2053 15.6952L15.4292 14.212L14.2116 14.0282L13.7941 15.1867L15.2053 15.6952ZM15.9379 6.25C14.0108 6.25 12.3458 7.36893 11.5778 8.9881L14.2884 10.2737C14.5704 9.67907 15.1943 9.25 15.9379 9.25V6.25ZM20.75 11C20.75 8.3673 18.5862 6.25 15.9379 6.25V9.25C16.97 9.25 17.75 10.0645 17.75 11H20.75ZM15.9379 15.75C18.5862 15.75 20.75 13.6327 20.75 11H17.75C17.75 11.9355 16.97 12.75 15.9379 12.75V15.75ZM15.3006 15.7086C15.5096 15.736 15.7223 15.75 15.9379 15.75V12.75C15.8527 12.75 15.7699 12.7445 15.6897 12.734L15.3006 15.7086ZM16.9938 14.2866C16.9979 14.1915 17 14.096 17 14H14C14 14.0524 13.9989 14.1044 13.9966 14.156L16.9938 14.2866ZM17 14C17 11.5564 15.6509 9.42988 13.6641 8.32107L12.2021 10.9407C13.2779 11.5411 14 12.6872 14 14H17ZM12.8967 9.71035C13.4042 8.55961 14.5728 7.75 15.9379 7.75V4.75C13.3624 4.75 11.1302 6.28138 10.1518 8.49965L12.8967 9.71035ZM15.9379 7.75C17.7791 7.75 19.25 9.21694 19.25 11H22.25C22.25 7.51466 19.3902 4.75 15.9379 4.75V7.75ZM19.25 11C19.25 12.7831 17.7791 14.25 15.9379 14.25V17.25C19.3902 17.25 22.25 14.4853 22.25 11H19.25ZM15.9379 14.25C15.7645 14.25 15.5946 14.237 15.4292 14.212L14.9814 17.1784C15.2945 17.2257 15.614 17.25 15.9379 17.25V14.25ZM10.5 20.5C13.3186 20.5 15.7146 18.7067 16.6165 16.2037L13.7941 15.1867C13.3073 16.5378 12.0141 17.5 10.5 17.5V20.5ZM4 14C4 17.5899 6.91015 20.5 10.5 20.5V17.5C8.567 17.5 7 15.933 7 14H4ZM10.5 7.5C6.91015 7.5 4 10.4101 4 14H7C7 12.067 8.567 10.5 10.5 10.5V7.5ZM11.8299 7.63648C11.3994 7.54685 10.9544 7.5 10.5 7.5V10.5C10.7477 10.5 10.9879 10.5255 11.2185 10.5735L11.8299 7.63648ZM10.5 19C13.2614 19 15.5 16.7614 15.5 14H12.5C12.5 15.1046 11.6046 16 10.5 16V19ZM5.5 14C5.5 16.7614 7.73858 19 10.5 19V16C9.39543 16 8.5 15.1046 8.5 14H5.5ZM10.5 9C7.73858 9 5.5 11.2386 5.5 14H8.5C8.5 12.8954 9.39543 12 10.5 12V9ZM15.5 14C15.5 11.2386 13.2614 9 10.5 9V12C11.6046 12 12.5 12.8954 12.5 14H15.5Z" fill="#9DAAB3" mask="url(#path-2-inside-1_9104_126637)"/>
</svg>
