<svg width="24" height="24" viewBox="0 0 24 24" fill="none" xmlns="http://www.w3.org/2000/svg">
<path d="M24 3.60431C23.1013 4.05339 22.148 4.34816 21.1719 4.47883C22.1887 3.79148 22.9693 2.70304 23.3369 1.40617C22.3704 2.05311 21.3129 2.50892 20.2103 2.7539C19.312 1.67455 18.0324 1 16.6162 1C13.8968 1 11.6921 3.48672 11.6921 6.55377C11.6921 6.98913 11.7357 7.41296 11.8196 7.81955C7.72744 7.58786 4.09931 5.37682 1.67072 2.01664C1.24697 2.83691 1.00416 3.79106 1.00416 4.80875C1.00416 6.73566 1.8735 8.43552 3.19462 9.43154C2.4127 9.40392 1.64798 9.1657 0.964313 8.73679C0.964031 8.76005 0.964031 8.78332 0.964031 8.80669C0.964031 11.4976 2.66128 13.7424 4.91372 14.2526C4.18864 14.475 3.42809 14.5076 2.69016 14.3478C3.31669 16.5543 5.13516 18.1599 7.28972 18.2048C5.60456 19.6944 3.48141 20.5823 1.17459 20.5823C0.777094 20.5823 0.385219 20.556 0 20.5047C2.17903 22.0805 4.76719 23 7.54781 23C16.6047 23 21.5573 14.5371 21.5573 7.19787C21.5573 6.95698 21.5526 6.71747 21.543 6.47933C22.507 5.6933 23.339 4.71973 24 3.60431Z" fill="#9DAAB2"/>
</svg>
