<svg width="24" height="24" viewBox="0 0 24 24" fill="none" xmlns="http://www.w3.org/2000/svg">
<rect width="24" height="24" rx="12" fill="#215FFF"/>
<path d="M9.66882 18.6763C6.10349 17.3411 4.27508 13.1922 5.60073 9.52018C6.28637 7.51728 7.79478 5.9913 9.66882 5.27598C9.8517 5.18064 9.94308 5.03758 9.94308 4.79906V4.13147C9.94308 3.94068 9.8517 3.79761 9.66882 3.75C9.62308 3.75 9.5317 3.75 9.48595 3.79761C5.1436 5.22825 2.76668 10.0448 4.13796 14.5752C4.96072 17.2457 6.92626 19.2963 9.48595 20.1547C9.66882 20.25 9.8517 20.1547 9.89733 19.9639C9.94308 19.9163 9.94308 19.8685 9.94308 19.7732V19.1055C9.94308 18.9624 9.80595 18.7717 9.66882 18.6763ZM14.5141 3.79761C14.3312 3.70227 14.1483 3.79761 14.1027 3.9884C14.0569 4.03613 14.0569 4.08374 14.0569 4.17919V4.84679C14.0569 5.03758 14.194 5.22825 14.3312 5.32371C17.8965 6.6589 19.7249 10.8078 18.3993 14.4798C17.7136 16.4827 16.2052 18.0087 14.3312 18.724C14.1483 18.8194 14.0569 18.9624 14.0569 19.2009V19.8685C14.0569 20.0593 14.1483 20.2024 14.3312 20.25C14.3769 20.25 14.4683 20.25 14.5141 20.2024C18.8564 18.7717 21.2333 13.9552 19.862 9.42484C19.0393 6.70662 17.028 4.656 14.5141 3.79761Z" fill="white"/>
<path d="M15.75 13.7676C15.75 12.0249 14.5746 11.4274 12.2239 11.1785C10.5447 10.9793 10.2089 10.581 10.2089 9.8838C10.2089 9.18663 10.7687 8.73862 11.888 8.73862C12.8955 8.73862 13.4553 9.03737 13.7351 9.78426C13.7911 9.93364 13.959 10.0332 14.1269 10.0332H15.0223C15.2463 10.0332 15.4142 9.8838 15.4142 9.68471V9.63488C15.1903 8.53941 14.1828 7.69298 12.8955 7.59344V6.39842C12.8955 6.19921 12.7276 6.04983 12.4478 6H11.6082C11.3843 6 11.2164 6.14938 11.1604 6.39842V7.5436C9.48126 7.74281 8.41791 8.73862 8.41791 9.98347C8.41791 11.6266 9.53728 12.2738 11.888 12.5229C13.4553 12.7718 13.959 13.0706 13.959 13.8673C13.959 14.664 13.1753 15.2117 12.112 15.2117C10.6566 15.2117 10.1529 14.6639 9.985 13.917C9.92911 13.7179 9.7612 13.6182 9.59329 13.6182H8.6417C8.41791 13.6182 8.25 13.7676 8.25 13.9668V14.0167C8.47379 15.2614 9.36937 16.1576 11.2164 16.4067V17.6017C11.2164 17.8008 11.3843 17.9502 11.6641 18H12.5037C12.7276 18 12.8955 17.8506 12.9515 17.6017V16.4067C14.6306 16.1576 15.75 15.112 15.75 13.7676Z" fill="white"/>
</svg>
