<svg width="16" height="16" viewBox="0 0 16 16" fill="none" xmlns="http://www.w3.org/2000/svg">
<path d="M13 8V5H2.5C2.10218 5 1.72064 4.84196 1.43934 4.56066C1.15804 4.27936 1 3.89782 1 3.5C1 2.675 1.675 2 2.5 2H11.5V5" stroke="#9DAAB3" stroke-linecap="round" stroke-linejoin="round"/>
<path d="M1 3.5V12.5C1 13.325 1.675 14 2.5 14H13V11" stroke="#9DAAB3" stroke-linecap="round" stroke-linejoin="round"/>
<path d="M11.5 8C11.1022 8 10.7206 8.15804 10.4393 8.43934C10.158 8.72064 10 9.10218 10 9.5C10 10.325 10.675 11 11.5 11H14.5V8H11.5Z" stroke="#9DAAB3" stroke-linecap="round" stroke-linejoin="round"/>
</svg>
