<svg width="1em" height="1em" color="#E0F3FF" viewBox="0 0 16 16" fill="none" xmlns="http://www.w3.org/2000/svg">
  <path fill-rule="evenodd" clip-rule="evenodd" d="M6.99351 1.896C7.44411 1.12663 8.55624 1.12663 9.00691 1.896L14.6771 11.5769C15.1327 12.3547 14.5718 13.3332 13.6704 13.3332H2.32993C1.42858 13.3332 0.867688 12.3547 1.32323 11.5769L6.99351 1.896ZM8.00004 5.99996C8.27617 5.99996 8.50004 6.22382 8.50004 6.49996V8.83329C8.50004 9.10943 8.27617 9.33329 8.00004 9.33329C7.72391 9.33329 7.50004 9.10943 7.50004 8.83329V6.49996C7.50004 6.22382 7.72391 5.99996 8.00004 5.99996ZM8.66671 10.5C8.66671 10.8682 8.36824 11.1666 8.00004 11.1666C7.63184 11.1666 7.33337 10.8682 7.33337 10.5C7.33337 10.1318 7.63184 9.83329 8.00004 9.83329C8.36824 9.83329 8.66671 10.1318 8.66671 10.5Z" fill="currentColor"/>
</svg>
