
<svg width="1em" height="1em" viewBox="0 0 16 16" color="inherit" fill="none" xmlns="http://www.w3.org/2000/svg">
  <path fill-rule="evenodd" clip-rule="evenodd" d="M5.87265 2.65383C6.8498 1.07372 9.148 1.07372 10.1251 2.65383L14.3701 9.51802C15.4001 11.1835 14.2021 13.3329 12.2439 13.3329H3.75396C1.7957 13.3329 0.597714 11.1835 1.6277 9.51802L5.87265 2.65383ZM8 5.33284C8.27613 5.33284 8.5 5.5567 8.5 5.83284V8.49948C8.5 8.77568 8.27613 8.99948 8 8.99948C7.72387 8.99948 7.5 8.77568 7.5 8.49948V5.83284C7.5 5.5567 7.72387 5.33284 8 5.33284ZM8.66667 10.3328C8.66667 10.701 8.3682 10.9995 8 10.9995C7.6318 10.9995 7.33333 10.701 7.33333 10.3328C7.33333 9.96468 7.6318 9.66615 8 9.66615C8.3682 9.66615 8.66667 9.96468 8.66667 10.3328Z" fill="currentColor"/>
</svg>