<svg width="17" height="18" viewBox="0 0 17 18" fill="none" xmlns="http://www.w3.org/2000/svg">
<g id="Group">
<path id="Vector" d="M16.6149 8.99935C16.6149 7.86727 15.9182 6.8856 14.8812 6.35518C15.2453 5.25477 15.0395 4.05935 14.2399 3.25977C13.4403 2.46018 12.2449 2.25435 11.1445 2.61852C10.622 1.58143 9.63241 0.884766 8.50033 0.884766C7.36824 0.884766 6.38658 1.58143 5.86408 2.61852C4.75574 2.25435 3.56033 2.46018 2.76074 3.25977C1.96116 4.05935 1.76324 5.25477 2.12741 6.35518C1.09033 6.8856 0.385742 7.86727 0.385742 8.99935C0.385742 10.1314 1.09033 11.1131 2.12741 11.6435C1.76324 12.7439 1.96116 13.9394 2.76074 14.7389C3.56033 15.5385 4.75574 15.7364 5.85616 15.3802C6.38658 16.4173 7.36824 17.1139 8.50033 17.1139C9.63241 17.1139 10.622 16.4173 11.1445 15.3802C12.2449 15.7364 13.4403 15.5385 14.2399 14.7389C15.0395 13.9394 15.2453 12.7439 14.8812 11.6435C15.9182 11.1131 16.6149 10.1314 16.6149 8.99935ZM7.34449 12.3244L4.38366 9.36352L5.49991 8.23935L7.28908 10.0285L11.0891 5.8881L12.2528 6.96477L7.34449 12.3244Z" fill="#1D9BF0"/>
</g>
</svg>
