<svg viewBox="0 0 153 153" fill="none" xmlns="http://www.w3.org/2000/svg">
  <path d="M0 76.5C0 34.2502 34.2502 0 76.5 0V0C118.75 0 153 34.2502 153 76.5V76.5C153 118.75 118.75 153 76.5 153V153C34.2502 153 0 118.75 0 76.5V76.5Z" fill="#9DAAB3" id="path-to-animate"/>
  <path d="M121 76.3146C121 105.738 102.994 115.179 93.5064 106.772C85.6967 99.9175 83.3734 85.4321 71.6273 83.9451C56.7185 82.0693 55.428 101.922 45.6176 101.922C34.1941 101.922 32 85.303 32 76.767C32 68.0363 34.4524 56.1375 44.1979 56.1375C55.5572 56.1375 56.2024 73.1452 70.401 72.2397C84.5353 71.2694 84.7931 53.551 93.9582 45.9847C101.961 39.4537 121 46.5021 121 76.3146Z" fill="#2D2E33"/>
</svg>
