<svg width="32" height="32" viewBox="0 0 32 32" fill="none" xmlns="http://www.w3.org/2000/svg">
<circle cx="16" cy="16" r="16" fill="#9DAAB3"/>
<path d="M8.71347 13.8151C7.9724 13.1132 7.44694 12.2023 7.44694 11.1168L7.4488 11.002C7.50854 9.15774 9.02707 7.67374 10.8685 7.61494H22.6173C22.9253 7.62521 23.1727 7.84641 23.1727 8.15814V18.0963C23.4443 18.1457 23.574 18.1784 23.8344 18.2736C24.0379 18.3473 24.3272 18.5116 24.3272 18.5116V8.15814C24.3095 7.21548 23.5637 6.45761 22.6183 6.45761H10.8695C8.33547 6.49961 6.29333 8.56974 6.29333 11.1168C6.29333 12.5961 6.96627 13.8561 8.07134 14.7447C8.14507 14.8035 8.21787 14.8809 8.41573 14.88C8.762 14.8791 9.00467 14.6075 8.99067 14.306C8.97854 14.0577 8.874 13.9663 8.71347 13.8141V13.8151Z" fill="#2D2E33"/>
<path d="M22.3177 18.7561H13.102C12.4832 18.7617 11.9829 19.2648 11.9829 19.8845V21.2061C12.0007 21.8184 12.5224 22.3429 13.1384 22.3429H13.8235V21.2061H13.1384V19.9125H13.5117C14.6747 19.9125 15.5305 20.9952 15.5305 22.1507C15.5305 23.1736 14.5991 24.4859 13.0339 24.3804C11.6441 24.2871 10.8984 23.0532 10.8993 22.1507V10.918C10.8993 10.4103 10.4877 9.99866 9.98 9.99866H9.0616V11.1448H9.7448V22.1488C9.71027 24.3869 11.3389 25.5144 13.0348 25.5144L22.3168 25.5415C24.1881 25.5415 25.7057 24.022 25.7057 22.1479C25.7057 20.2737 24.1891 18.7543 22.3168 18.7543L22.3177 18.7561ZM24.5512 22.2235C24.5129 23.4256 23.5273 24.3879 22.3177 24.3879L15.8581 24.3627C16.3743 23.7672 16.6851 22.9925 16.6851 22.1497C16.6851 20.8235 15.8945 19.9116 15.8945 19.9116H22.3177C23.5516 19.9116 24.5521 20.9131 24.5521 22.1497V22.2235H24.5512Z" fill="#2D2E33"/>
<path d="M19.8379 10.2059H12.892V11.352H19.8388C20.1552 11.352 20.4119 11.0953 20.4119 10.7789C20.4119 10.4625 20.1552 10.2059 19.8388 10.2059H19.8379Z" fill="#2D2E33"/>
<path d="M19.8379 15.6145H12.892V16.7607H19.8388C20.1552 16.7607 20.4119 16.504 20.4119 16.1876C20.4119 15.8712 20.1552 15.6145 19.8388 15.6145H19.8379Z" fill="#2D2E33"/>
<path d="M21.0605 12.9107H12.892V14.0568H21.0605C21.3769 14.0568 21.6336 13.8001 21.6336 13.4837C21.6336 13.1673 21.3769 12.9107 21.0605 12.9107Z" fill="#2D2E33"/>
</svg>
