<?xml version="1.0" encoding="UTF-8"?>
<svg id="_图层_1" data-name="图层 1" xmlns="http://www.w3.org/2000/svg" viewBox="0 0 300 300">
  <defs>
    <style>
      .cls-1 {
        fill: #ffeeda;
      }

      .cls-2 {
        fill: #ebc28e;
      }

      .cls-3 {
        fill: #190602;
      }
    </style>
  </defs>
  <circle class="cls-1" cx="150" cy="150" r="150"/>
  <g>
    <path class="cls-1" d="M229.33,182.54l.02-107.27c-.17-8.98-7.28-16.21-16.28-16.21H101.11c-24.15,.4-43.61,20.13-43.61,44.4,0,8.2,2.19,15.18,5.56,21.31,2.81,5.11,7.27,9.91,11.71,13.53,1.21,.99,.64,.62,4.44,2.95,5.24,3.22,11.25,4.81,11.25,4.81l-.05,64.15c.13,3.03,.46,5.95,1.22,8.66,2.5,9.02,8.75,15.98,17.29,19.35,3.56,1.4,7.61,2.36,11.88,2.38l89.42,.32c17.83,0,32.29-14.48,32.29-32.34,0-10.69-5.19-20.17-13.17-26.06Z"/>
    <path class="cls-2" d="M231.49,209.3c-.37,11.45-9.76,20.62-21.28,20.62l-61.56-.24c4.92-5.68,7.88-13.06,7.88-21.08,0-12.64-7.53-21.32-7.53-21.32h61.21c11.76,0,21.29,9.55,21.29,21.32v.7Z"/>
    <path class="cls-3" d="M80.56,129.18c-7.07-6.69-12.07-15.37-12.07-25.71l.02-1.1c.57-17.57,15.04-31.72,32.59-32.28h111.96c2.94,.1,5.29,2.21,5.29,5.18v94.71c2.59,.47,3.82,.79,6.3,1.69,1.94,.71,4.69,2.26,4.69,2.26V75.27c-.17-8.98-7.28-16.21-16.29-16.21H101.11c-24.15,.4-43.61,20.13-43.61,44.4,0,14.1,6.42,26.11,16.94,34.57,.7,.56,1.4,1.3,3.29,1.29,3.3-.01,5.61-2.6,5.48-5.47-.11-2.36-1.11-3.23-2.64-4.68Z"/>
    <path class="cls-3" d="M210.21,176.26H122.39c-5.9,.05-10.66,4.84-10.66,10.75v12.59c.17,5.83,5.14,10.83,11.01,10.83h6.53v-10.83h-6.53v-12.33h3.56c11.08,0,19.24,10.32,19.24,21.32,0,9.75-8.87,22.25-23.79,21.25-13.24-.89-20.35-12.65-20.35-21.25V101.57c0-4.84-3.92-8.76-8.76-8.76h-8.75v10.92h6.51s0,104.86,0,104.86c-.33,21.32,15.19,32.08,31.35,32.08l88.45,.26c17.83,0,32.29-14.48,32.29-32.34s-14.46-32.34-32.29-32.34Zm21.28,33.04c-.37,11.45-9.76,20.62-21.28,20.62l-61.56-.24c4.92-5.68,7.88-13.06,7.88-21.08,0-12.64-7.53-21.32-7.53-21.32h61.21c11.76,0,21.29,9.55,21.29,21.32v.7Z"/>
    <path class="cls-3" d="M186.58,94.79H120.38v10.92h66.2c3.01,0,5.46-2.44,5.46-5.46s-2.44-5.46-5.46-5.46Z"/>
    <path class="cls-3" d="M186.58,146.33H120.38v10.92h66.2c3.01,0,5.46-2.44,5.46-5.46s-2.44-5.46-5.46-5.46Z"/>
    <path class="cls-3" d="M198.22,120.56H120.38v10.92h77.84c3.01,0,5.46-2.44,5.46-5.46s-2.44-5.46-5.46-5.46Z"/>
  </g>
</svg>