<svg width="32" height="32" viewBox="0 0 32 32" fill="none" xmlns="http://www.w3.org/2000/svg">
<rect width="32" height="32" fill="#2D2E32"/>
<path fill-rule="evenodd" clip-rule="evenodd" d="M22.8638 7.37988L24.5978 9.11387L18.803 14.9086C18.4976 14.1131 17.8645 13.4801 17.069 13.1746L22.8638 7.37988ZM14.9096 13.1746L9.11485 7.37988L7.38086 9.11387L13.1756 14.9086C13.481 14.1131 14.1141 13.4801 14.9096 13.1746ZM13.1756 17.0681L7.38086 22.8628L9.11485 24.5968L14.9096 18.8021C14.1141 18.4966 13.481 17.8635 13.1756 17.0681ZM17.069 18.8021L22.8638 24.5968L24.5978 22.8628L18.803 17.0681C18.4976 17.8635 17.8645 18.4966 17.069 18.8021Z" fill="#6CF9D8"/>
</svg>
