<svg width="12" height="10" viewBox="0 0 12 10" fill="none" xmlns="http://www.w3.org/2000/svg">
<g clip-path="url(#clip0_3196_9489)">
<path d="M1.94982 7.12355C2.02223 7.05169 2.12181 7.00977 2.22741 7.00977H11.8045C11.9795 7.00977 12.067 7.21937 11.9433 7.34214L10.0514 9.21958C9.97898 9.29145 9.87941 9.33337 9.7738 9.33337H0.196736C0.0217297 9.33337 -0.0657734 9.12376 0.0579379 9.001L1.94982 7.12355Z" fill="white"/>
<path d="M1.94786 0.113785C2.0233 0.0419206 2.12287 0 2.22546 0H11.8025C11.9775 0 12.065 0.209603 11.9413 0.332371L10.0494 2.20982C9.97703 2.28168 9.87746 2.3236 9.77185 2.3236H0.194783C0.0197766 2.3236 -0.0677266 2.114 0.0559848 1.99123L1.94786 0.113785Z" fill="white"/>
<path d="M10.0514 3.59621C9.97898 3.52434 9.87941 3.48242 9.7738 3.48242H0.196736C0.0217297 3.48242 -0.0657734 3.69203 0.0579379 3.81479L1.94982 5.69224C2.02223 5.7641 2.12181 5.80602 2.22741 5.80602H11.8045C11.9795 5.80602 12.067 5.59642 11.9433 5.47365L10.0514 3.59621Z" fill="white"/>
</g>
<defs>
<clipPath id="clip0_3196_9489">
<rect width="12" height="9.33333" fill="white"/>
</clipPath>
</defs>
</svg>
