<svg width="16" height="16" viewBox="0 0 16 16" fill="none" xmlns="http://www.w3.org/2000/svg">
<rect width="16" height="16" rx="8" fill="#6CF9D8"/>
<path fill-rule="evenodd" clip-rule="evenodd" d="M3.47504 4.20982L4.25468 3.43018L7.37033 6.54583C7.18124 6.6264 7.00411 6.74381 6.84986 6.89806C6.7304 7.01752 6.63304 7.1507 6.55777 7.29254L3.47504 4.20982ZM6.49906 8.71984L3.42896 11.7899L4.2086 12.5696L7.24746 9.53072C7.10446 9.45523 6.9702 9.35731 6.84986 9.23698C6.69652 9.08364 6.57959 8.90768 6.49906 8.71984ZM8.7943 9.52908L11.7912 12.526L12.5709 11.7464L9.54102 8.71651C9.46044 8.9056 9.34304 9.08273 9.18879 9.23698C9.06933 9.35644 8.93614 9.45381 8.7943 9.52908ZM9.48253 7.29565L12.5248 4.25341L11.7451 3.47377L8.67165 6.54725C8.85949 6.62778 9.03545 6.74472 9.18879 6.89806C9.30912 7.01839 9.40704 7.15265 9.48253 7.29565Z" fill="#2D2E33"/>
</svg>
