<svg width="56" height="56" viewBox="0 0 56 56" fill="none" xmlns="http://www.w3.org/2000/svg">
<rect width="56" height="56" rx="28" fill="#5865F2"/>
<g clip-path="url(#clip0_3219_162486)">
<path d="M36.317 20.5041C34.7873 19.8155 33.147 19.3081 31.4319 19.0176C31.4007 19.012 31.3695 19.026 31.3534 19.054C31.1424 19.4221 30.9087 19.9024 30.7451 20.2798C28.9004 20.0089 27.0652 20.0089 25.2583 20.2798C25.0946 19.894 24.8525 19.4221 24.6406 19.054C24.6245 19.0269 24.5933 19.0129 24.562 19.0176C22.8479 19.3072 21.2076 19.8146 19.6769 20.5041C19.6637 20.5097 19.6523 20.5191 19.6448 20.5312C16.5334 25.0917 15.681 29.54 16.0992 33.9332C16.1011 33.9547 16.1134 33.9753 16.1304 33.9884C18.1832 35.4674 20.1717 36.3653 22.1233 36.9605C22.1545 36.9698 22.1876 36.9586 22.2075 36.9334C22.6691 36.3149 23.0806 35.6627 23.4335 34.9769C23.4543 34.9367 23.4344 34.8891 23.3919 34.8732C22.7391 34.6302 22.1176 34.3341 21.5197 33.9977C21.4724 33.9706 21.4687 33.9043 21.5122 33.8725C21.638 33.78 21.7638 33.6838 21.884 33.5866C21.9057 33.5688 21.936 33.5651 21.9615 33.5763C25.8893 35.3357 30.1415 35.3357 34.023 33.5763C34.0485 33.5642 34.0788 33.5679 34.1015 33.5857C34.2216 33.6828 34.3475 33.78 34.4742 33.8725C34.5177 33.9043 34.5149 33.9706 34.4676 33.9977C33.8697 34.3406 33.2482 34.6302 32.5945 34.8722C32.552 34.8881 32.533 34.9367 32.5538 34.9769C32.9143 35.6617 33.3258 36.3139 33.7789 36.9324C33.7978 36.9586 33.8319 36.9698 33.8631 36.9605C35.8241 36.3653 37.8126 35.4674 39.8654 33.9884C39.8834 33.9753 39.8948 33.9557 39.8967 33.9342C40.3971 28.8551 39.0585 24.4432 36.3482 20.5321C36.3416 20.5191 36.3303 20.5097 36.317 20.5041ZM24.02 31.2582C22.8375 31.2582 21.8631 30.1931 21.8631 28.885C21.8631 27.577 22.8186 26.5119 24.02 26.5119C25.2309 26.5119 26.1958 27.5863 26.1769 28.885C26.1769 30.1931 25.2214 31.2582 24.02 31.2582ZM31.9947 31.2582C30.8123 31.2582 29.8379 30.1931 29.8379 28.885C29.8379 27.577 30.7933 26.5119 31.9947 26.5119C33.2056 26.5119 34.1705 27.5863 34.1516 28.885C34.1516 30.1931 33.2056 31.2582 31.9947 31.2582Z" fill="white"/>
</g>
<defs>
<clipPath id="clip0_3219_162486">
<rect width="24" height="18.24" fill="white" transform="translate(16 18.8799)"/>
</clipPath>
</defs>
</svg>
