<svg width="48" height="48" viewBox="0 0 48 48" fill="none" xmlns="http://www.w3.org/2000/svg">
<path fill-rule="evenodd" clip-rule="evenodd" d="M24 48C37.2548 48 48 37.2548 48 24C48 10.7452 37.2548 0 24 0C10.7452 0 0 10.7452 0 24C0 37.2548 10.7452 48 24 48ZM12.7643 10.2909L10.4254 12.6298L19.6735 21.878C19.8994 21.4525 20.1915 21.0529 20.5498 20.6945C21.0126 20.2318 21.544 19.8796 22.1112 19.6378L12.7643 10.2909ZM10.2871 35.3702L19.4974 26.1599C19.739 26.7234 20.0898 27.2513 20.5498 27.7113C20.9108 28.0723 21.3136 28.3661 21.7426 28.5925L12.626 37.7091L10.2871 35.3702ZM35.3739 37.5784L26.3832 28.5876C26.8087 28.3618 27.2082 28.0697 27.5666 27.7113C28.0294 27.2486 28.3816 26.7172 28.6233 26.1499L37.7128 35.2394L35.3739 37.5784ZM37.5746 12.7606L28.4478 21.8873C28.2214 21.4583 27.9276 21.0555 27.5666 20.6945C27.1066 20.2345 26.5787 19.8837 26.0152 19.6421L35.2356 10.4217L37.5746 12.7606Z" fill="#6CF9D8"/>
</svg>
