<svg width="48" height="48" viewBox="0 0 48 48" fill="none" xmlns="http://www.w3.org/2000/svg">
<rect width="48" height="48" rx="24" fill="#6CF9D8"/>
<path fill-rule="evenodd" clip-rule="evenodd" d="M10.4254 12.6297L12.7643 10.2908L22.1113 19.6377C21.544 19.8794 21.0126 20.2317 20.5499 20.6944C20.1915 21.0528 19.8994 21.4524 19.6736 21.8779L10.4254 12.6297ZM19.4974 26.1598L10.2871 35.3701L12.6261 37.709L21.7427 28.5924C21.3137 28.3659 20.9109 28.0722 20.5499 27.7112C20.0898 27.2512 19.739 26.7233 19.4974 26.1598ZM26.3832 28.5875L35.3739 37.5782L37.7129 35.2393L28.6233 26.1498C28.3816 26.717 28.0294 27.2484 27.5666 27.7112C27.2083 28.0696 26.8087 28.3617 26.3832 28.5875ZM28.4479 21.8872L37.5746 12.7605L35.2357 10.4215L26.0152 19.642C26.5787 19.8836 27.1066 20.2344 27.5666 20.6944C27.9276 21.0554 28.2214 21.4582 28.4479 21.8872Z" fill="#2D2E33"/>
</svg>
