<?xml version="1.0" standalone="no"?>
<!DOCTYPE svg PUBLIC "-//W3C//DTD SVG 20010904//EN"
 "http://www.w3.org/TR/2001/REC-SVG-20010904/DTD/svg10.dtd">
<svg version="1.0" xmlns="http://www.w3.org/2000/svg"
 width="64.000000pt" height="64.000000pt" viewBox="0 0 64.000000 64.000000"
 preserveAspectRatio="xMidYMid meet">

<g transform="translate(0.000000,64.000000) scale(0.100000,-0.100000)"
fill="#000000" stroke="none">
<path d="M230 508 c-19 -7 -36 -21 -38 -30 -5 -24 28 -38 101 -44 107 -9 197
34 137 66 -33 18 -159 22 -200 8z"/>
<path d="M194 409 c-47 -13 -61 -35 -40 -58 47 -52 271 -55 328 -4 44 39 -33
73 -165 72 -50 0 -106 -5 -123 -10z"/>
<path d="M163 286 c-47 -16 -70 -42 -57 -64 40 -64 278 -82 383 -30 57 28 60
54 11 82 -30 18 -54 21 -170 22 -77 1 -149 -3 -167 -10z"/>
</g>
</svg>
