<svg width="30" height="30" viewBox="0 0 30 30" fill="none" xmlns="http://www.w3.org/2000/svg">
<circle cx="15" cy="15" r="15" fill="#2D2E33"/>
<path d="M12.3261 19.1664C11.9754 19.1664 11.6794 18.916 11.6204 18.5698L9.62466 6.83595C9.59238 6.64673 9.63579 6.45751 9.7471 6.30168C9.8584 6.14586 10.0231 6.04234 10.2112 6.01006C10.6008 5.94439 10.9715 6.20707 11.0382 6.59665L13.034 18.3305C13.0662 18.5198 13.0228 18.709 12.9115 18.8648C12.8002 19.0206 12.6355 19.1242 12.4474 19.1564C12.4084 19.1631 12.3672 19.1664 12.3261 19.1664Z" fill="#CCFF00"/>
<path d="M12.3261 19.1664C11.9754 19.1664 11.6794 18.916 11.6204 18.5698L9.62466 6.83595C9.59238 6.64673 9.63579 6.45751 9.7471 6.30168C9.8584 6.14586 10.0231 6.04234 10.2112 6.01006C10.6008 5.94439 10.9715 6.20707 11.0382 6.59665L13.034 18.3305C13.0662 18.5198 13.0228 18.709 12.9115 18.8648C12.8002 19.0206 12.6355 19.1242 12.4474 19.1564C12.4084 19.1631 12.3672 19.1664 12.3261 19.1664Z" fill="#CCFF00"/>
<path d="M15.6709 13.7548C14.53 13.7548 13.4693 14.0965 12.5822 14.6831L12.8237 16.1033C13.5861 15.4388 14.5823 15.0348 15.6709 15.0348C18.0651 15.0348 20.013 16.9826 20.013 19.3768C20.013 21.771 18.0651 23.7189 15.6709 23.7189C13.2767 23.7189 11.3288 21.771 11.3288 19.3768C11.3288 19.0574 11.3645 18.7468 11.4301 18.4474L11.045 16.1868C10.4173 17.0939 10.0488 18.1936 10.0488 19.3779C10.0488 22.4778 12.571 25 15.6709 25C18.7708 25 21.293 22.4778 21.293 19.3779C21.293 16.2781 18.7719 13.7548 15.6709 13.7548Z" fill="#CCFF00"/>
<path d="M15.3634 22.6582C15.7864 22.6582 16.1292 22.3153 16.1292 21.8924C16.1292 21.4694 15.7864 21.1266 15.3634 21.1266C14.9405 21.1266 14.5977 21.4694 14.5977 21.8924C14.5977 22.3153 14.9405 22.6582 15.3634 22.6582Z" fill="#1CD8D2"/>
<path d="M17.756 21.7666C18.179 21.7666 18.5218 21.4237 18.5218 21.0008C18.5218 20.5778 18.179 20.235 17.756 20.235C17.3331 20.235 16.9902 20.5778 16.9902 21.0008C16.9902 21.4237 17.3331 21.7666 17.756 21.7666Z" fill="#1CD8D2"/>
<path d="M15.8761 20.1248C16.2991 20.1248 16.6419 19.782 16.6419 19.359C16.6419 18.9361 16.2991 18.5933 15.8761 18.5933C15.4532 18.5933 15.1104 18.9361 15.1104 19.359C15.1104 19.782 15.4532 20.1248 15.8761 20.1248Z" fill="#1CD8D2"/>
<path d="M13.4982 20.9073C13.9211 20.9073 14.264 20.5644 14.264 20.1415C14.264 19.7186 13.9211 19.3757 13.4982 19.3757C13.0753 19.3757 12.7324 19.7186 12.7324 20.1415C12.7324 20.5644 13.0753 20.9073 13.4982 20.9073Z" fill="#1CD8D2"/>
<path d="M18.2453 19.3402C18.6682 19.3402 19.0111 18.9973 19.0111 18.5744C19.0111 18.1514 18.6682 17.8086 18.2453 17.8086C17.8223 17.8086 17.4795 18.1514 17.4795 18.5744C17.4795 18.9973 17.8223 19.3402 18.2453 19.3402Z" fill="#1CD8D2"/>
<path d="M16.3869 17.5915C16.8098 17.5915 17.1527 17.2487 17.1527 16.8257C17.1527 16.4028 16.8098 16.0599 16.3869 16.0599C15.9639 16.0599 15.6211 16.4028 15.6211 16.8257C15.6211 17.2487 15.9639 17.5915 16.3869 17.5915Z" fill="#1CD8D2"/>
<path d="M13.9865 18.4819C14.4094 18.4819 14.7523 18.139 14.7523 17.7161C14.7523 17.2932 14.4094 16.9503 13.9865 16.9503C13.5636 16.9503 13.2207 17.2932 13.2207 17.7161C13.2207 18.139 13.5636 18.4819 13.9865 18.4819Z" fill="#1CD8D2"/>
</svg>
