<svg clip-rule="evenodd" fill-rule="evenodd" stroke-linejoin="round" stroke-miterlimit="2" viewBox="0 0 560 400" xmlns="http://www.w3.org/2000/svg"><g fill-rule="nonzero" transform="matrix(2.74574 0 0 2.74574 130 50)"><g fill="#5a5564"><path d="m89.09 22.93-3 3c14.76 16.141 14.76 41.179 0 57.32l3 3c16.419-17.81 16.419-45.58 0-63.39z"/><path d="m26 23.19c16.141-14.76 41.179-14.76 57.32 0l3-3c-17.81-16.419-45.58-16.419-63.39 0z"/><path d="m23.19 83.28c-14.742-16.137-14.742-41.153 0-57.29l-3-3c-16.419 17.81-16.419 45.58 0 63.39z"/><path d="m83.28 86.05c-16.141 14.76-41.179 14.76-57.32 0l-3 3c17.81 16.419 45.58 16.419 63.39 0z"/></g><path d="m73.57 44.62c-.6-6.26-6-8.36-12.83-9v-8.62h-5.28v8.46h-4.22v-8.46h-5.24v8.68h-10.71v5.65s3.9-.07 3.84 0c1.453-.16 2.789.874 3 2.32v23.76c-.03.499-.261.964-.64 1.29-.372.332-.863.498-1.36.46.07.06-3.84 0-3.84 0l-1 6.31h10.61v8.82h5.28v-8.69h4.22v8.65h5.29v-8.72c8.92-.54 15.14-2.74 15.92-11.09.63-6.72-2.53-9.72-7.58-10.93 3.07-1.51 4.97-4.31 4.54-8.89zm-7.4 18.78c0 6.56-11.24 5.81-14.82 5.81v-11.64c3.58.01 14.82-1.02 14.82 5.83zm-2.45-16.4c0 6-9.38 5.27-12.36 5.27v-10.58c2.98 0 12.36-.94 12.36 5.31z" fill="#f09242"/><path d="m54.62 109.26c-29.965-.005-54.62-24.665-54.62-54.63 0-29.969 24.661-54.63 54.63-54.63 29.965 0 54.625 24.655 54.63 54.62v.01c0 29.969-24.661 54.63-54.63 54.63-.003 0-.007 0-.01 0zm0-105c-27.601.022-50.3 22.739-50.3 50.34 0 27.616 22.724 50.34 50.34 50.34 27.608 0 50.329-22.712 50.34-50.32 0-.007 0-.013 0-.02 0-27.616-22.724-50.34-50.34-50.34-.013 0-.027 0-.04 0z" fill="#282138"/></g></svg>