<svg width="30" height="30" viewBox="0 0 30 30" fill="none" xmlns="http://www.w3.org/2000/svg">
<path d="M15 30C23.2843 30 30 23.2843 30 15C30 6.71573 23.2843 0 15 0C6.71573 0 0 6.71573 0 15C0 23.2843 6.71573 30 15 30Z" fill="#EBEBEB"/>
<g clip-path="url(#clip0_23_304267)">
<path d="M14.9987 3.98303L14.8491 4.48542V19.0635L14.9987 19.211L21.8482 15.2111L14.9987 3.98303Z" fill="#DA3979"/>
<path d="M14.9987 3.98303L8.14917 15.2111L14.9987 19.2111V12.1353V3.98303Z" fill="#E781A9"/>
<path d="M14.9986 20.4922L14.9143 20.5938V25.7868L14.9986 26.0301L21.8522 16.4943L14.9986 20.4922Z" fill="#DA3979"/>
<path d="M14.9987 26.0301V20.4922L8.14917 16.4943L14.9987 26.0301Z" fill="#E781A9"/>
<path d="M14.9985 19.2109L21.8479 15.211L14.9985 12.1353V19.2109Z" fill="#671334"/>
<path d="M8.14917 15.211L14.9986 19.2109V12.1353L8.14917 15.211Z" fill="#DA3979"/>
</g>
<defs>
<clipPath id="clip0_23_304267">
<rect width="22.5" height="22.5" fill="white" transform="translate(3.6001 3.69995)"/>
</clipPath>
</defs>
</svg>
