<svg xmlns="http://www.w3.org/2000/svg" fill="none" viewBox="0 0 552 102">
  <g clip-path="url(#a)">
    <path
      fill="url(#b)"
      fill-rule="evenodd"
      d="M495.94 432.027c-74.8 23.575-154.731 45.757-259.199 16.306-52.261-14.734-75.902-37.425-86.855-64.736-5.468-13.633-7.761-28.385-8.907-43.806-.659-8.883-.94-18.025-1.224-27.309V312.456c-.209-6.797-.42-13.67-.784-20.572-1.727-32.746-6.903-66.533-31.513-98.073-24.617-31.548-68.732-60.915-148.49-84.672-79.927-23.808-130.166-68.312-156.158-121.79-25.987-53.468-27.709-115.849-10.714-175.374 33.982-119.03 142.861-226.813 282.637-229.268 69.74-1.226 117.217-6.616 153.568-16.556 36.335-9.937 61.572-24.423 86.825-43.876 13.436-10.35 26.884-22.113 42.012-35.345 41.751-36.521 96.299-84.234 198.729-144.334 139.695-81.965 327.151-65.995 465.033.471 68.95 33.236 125.56 79.122 157.62 131.768 32.06 52.665 39.56 112.094 10.25 172.311-29.22 60.034-43.8 101.572-47.44 135.273-3.64 33.669 3.63 59.55 18.21 88.286 7.99 15.742 18.18 32.348 29.96 51.555v.001c31.25 50.938 73.73 120.176 116.18 240.15 27.03 76.391 22.3 135.721-4.63 180.275-26.91 44.539-75.94 74.208-137.3 91.424-122.71 34.431-294.971 19.138-439.355-26.953-79.535-22.378-146.143-1.241-216.473 21.076a5783.73 5783.73 0 0 1-11.982 3.794Zm11.735-4.765c70.286-22.306 137.164-43.53 216.999-21.065l.008.002.009.003c144.273 46.057 316.329 61.306 438.789 26.946 61.22-17.18 109.98-46.74 136.72-90.979 26.72-44.224 31.5-103.223 4.54-179.425-42.41-119.864-84.79-188.94-116.04-239.868-11.8-19.243-22.02-35.896-30.05-51.718-14.64-28.858-21.98-54.935-18.31-88.846 3.66-33.88 18.3-75.547 47.53-135.603 29.14-59.872 21.71-118.94-10.21-171.354-31.92-52.432-88.36-98.206-157.19-131.387-137.681-66.368-324.77-82.259-464.097-.51-102.34 60.047-156.778 107.665-198.522 144.179-15.149 13.251-28.627 25.04-42.115 35.431-25.336 19.515-50.688 34.07-87.172 44.047-36.468 9.973-84.041 15.366-153.813 16.591-139.247 2.447-247.806 109.844-281.694 228.543-16.941 59.339-15.206 121.459 10.652 174.662 25.854 53.194 75.849 97.53 155.544 121.269 79.863 23.789 124.199 53.241 148.993 85.016 24.8 31.783 29.993 65.822 31.723 98.635.366 6.933.576 13.795.783 20.569v.004l.002.054v.006l.001.006v.014l.001.007c.283 9.255.561 18.345 1.221 27.225 1.142 15.379 3.425 30.014 8.837 43.508 10.806 26.943 34.14 49.47 86.199 64.146 104.171 29.368 183.861 7.267 258.627-16.297 4.024-1.268 8.035-2.541 12.035-3.811Zm-254.781-8.06c99.128 27.956 174.974 6.9 245.947-15.478 3.802-1.198 7.59-2.401 11.367-3.6 66.73-21.183 129.922-41.243 205.378-20.005 136.997 43.749 300.444 58.265 416.884 25.583 58.22-16.342 104.75-44.505 130.29-86.788 25.55-42.298 30.04-98.62 4.39-171.133-40.28-113.879-80.58-179.602-110.23-227.95-11.18-18.23-20.85-33.991-28.43-48.931-13.83-27.273-20.73-51.833-17.27-83.785 3.45-31.983 17.28-71.407 45-128.388 27.81-57.165 20.7-113.582-9.73-163.576-30.42-49.976-84.13-93.532-149.553-125.08-130.833-63.091-308.704-78.251-441.258-.447-97.19 57.047-148.948 102.338-188.562 137.002l-.002.001-.001.001-.006.005-.002.002c-14.349 12.556-27.104 23.717-39.849 33.537-23.958 18.462-47.9 32.211-82.372 41.641-34.487 9.434-79.531 14.551-145.7 15.713-132.635 2.331-235.95 104.645-268.195 217.633-16.126 56.504-14.493 115.72 10.167 166.477 24.665 50.767 72.34 93.014 148.18 115.613 75.674 22.549 117.525 50.421 140.877 80.36 23.346 29.93 28.257 61.994 29.895 93.073.346 6.551.546 13.076.744 19.528v.02c.27 8.814.536 17.493 1.162 25.924 1.087 14.639 3.263 28.644 8.452 41.587 10.397 25.933 32.835 47.475 82.427 61.461Zm462.972-40.044c-75.757-21.325-139.218-1.177-205.906 19.995-3.795 1.205-7.601 2.414-11.42 3.618-70.938 22.366-146.543 43.341-245.375 15.468-49.388-13.929-71.521-35.306-81.77-60.87-5.133-12.805-7.299-26.693-8.383-41.289-.626-8.428-.889-17.054-1.158-25.839-.198-6.457-.398-13-.746-19.612-1.642-31.147-6.57-63.462-30.105-93.635-23.53-30.166-65.602-58.123-141.38-80.703-75.61-22.53-123.04-64.61-147.566-115.091-24.532-50.493-26.178-109.449-10.106-165.767 32.152-112.656 135.145-214.585 267.251-216.907 66.202-1.163 111.342-6.282 145.947-15.749 34.621-9.47 58.678-23.287 82.719-41.813 12.793-9.858 25.576-21.043 39.942-33.614h.001l.002-.002.004-.003.007-.007.006-.005c39.607-34.658 91.256-79.853 188.355-136.846 132.187-77.588 309.69-62.507 440.318.484 65.307 31.493 118.847 74.937 149.137 124.699 30.28 49.743 37.33 105.8 9.68 162.62-27.73 57.004-41.62 96.556-45.1 128.718-3.48 32.194 3.49 56.95 17.38 84.344 7.62 15.02 17.31 30.828 28.52 49.094 29.64 48.34 69.85 113.9 110.09 227.668 25.58 72.324 21.04 128.315-4.31 170.283-25.36 41.983-71.62 70.038-129.7 86.343-116.19 32.611-279.432 18.139-416.317-25.577l-.009-.002-.008-.003Zm-214.24-2.649c-67.287 21.225-139.199 41.2-233.186 14.681-47.021-13.268-68.301-33.704-78.161-58.311-4.921-12.281-6.985-25.567-8.015-39.453-.594-7.986-.846-16.208-1.102-24.556V268.831c-.188-6.125-.378-12.318-.705-18.537-1.553-29.477-6.209-59.883-28.337-88.266-22.134-28.391-61.806-54.826-133.545-76.213C-53.333 64.378-98.537 24.303-121.924-23.858c-23.382-48.15-24.93-104.323-9.64-157.923 30.572-107.178 128.528-204.233 254.287-206.444 62.731-1.103 105.433-5.956 138.125-14.904 32.677-8.943 55.372-21.982 78.084-39.492 12.084-9.316 24.179-19.905 37.786-31.817 37.556-32.879 86.629-75.84 178.772-129.95 125.678-73.804 294.318-59.423 418.36.422 62.03 29.925 112.96 71.241 141.8 118.649 28.85 47.426 35.59 100.947 9.22 155.178-26.28 54.046-39.39 91.436-42.66 121.768-3.28 30.301 3.26 53.591 16.37 79.456 7.19 14.169 16.35 29.117 26.95 46.408 28.11 45.859 66.32 108.201 104.51 216.219 24.32 68.784 20.06 122.214-4.17 162.342-24.22 40.114-68.34 66.83-123.54 82.331-110.385 31.001-265.351 17.231-395.233-24.266-71.529-20.142-131.431-1.117-194.696 18.976-3.58 1.137-7.171 2.277-10.775 3.414Zm10.527-4.385c63.222-20.082 123.394-39.194 195.223-18.965l.008.002.009.003c129.771 41.463 284.53 55.189 394.667 24.259 55.07-15.465 98.92-42.072 122.96-81.886 24.03-39.798 28.33-92.897 4.08-161.492-38.15-107.907-76.27-170.088-104.37-215.938-10.62-17.326-19.81-32.321-27.04-46.57-13.17-25.986-19.78-49.472-16.48-80.015 3.3-30.511 16.47-68.029 42.76-122.099 26.21-53.885 19.52-107.046-9.18-154.22-28.71-47.195-79.46-88.399-141.374-118.269-123.837-59.745-292.11-74.047-417.42-.46-92.052 54.057-141.015 96.922-178.564 129.795l-.001.001c-13.628 11.931-25.753 22.545-37.888 31.901-22.794 17.573-45.605 30.681-78.431 39.665-32.81 8.979-75.608 13.835-138.372 14.938-125.23 2.202-222.864 98.872-253.343 205.719-15.236 53.413-13.675 109.327 9.579 157.213C-97.775 23.58-52.815 63.489 18.861 84.857c71.844 21.418 111.736 47.938 134.048 76.556 22.318 28.626 26.99 59.284 28.546 88.829.331 6.273.521 12.479.708 18.604.254 8.331.505 16.511 1.098 24.506 1.027 13.842 3.08 27.012 7.946 39.155 9.713 24.238 30.688 44.51 77.505 57.72 93.689 26.436 165.361 6.543 232.613-14.671 3.62-1.142 7.227-2.288 10.825-3.431l.003-.001ZM281.6 367.661c89.636 25.312 158.219 6.246 222.387-14.012 3.437-1.084 6.861-2.173 10.275-3.258 60.333-19.177 117.451-37.332 185.656-18.11 123.864 39.605 271.648 52.748 376.922 23.159 52.65-14.795 94.73-40.296 117.83-78.586 23.11-38.306 27.16-89.307 3.97-154.959-36.41-103.094-72.86-162.597-99.66-206.365l-.01-.002c-10.1-16.501-18.84-30.765-25.69-44.286-12.5-24.682-18.73-46.906-15.61-75.819 3.12-28.945 15.62-64.627 40.68-116.209 25.15-51.765 18.72-102.853-8.8-148.123-27.5-45.25-76.08-84.685-135.229-113.247-118.296-57.117-279.126-70.845-398.986-.402-87.873 51.644-134.673 92.648-170.488 124.028-12.975 11.369-24.509 21.474-36.031 30.364-21.657 16.71-43.297 29.153-74.456 37.687-31.174 8.539-71.894 13.171-131.715 14.223-119.941 2.111-213.362 94.75-242.52 197.047-14.581 51.16-13.105 104.778 9.196 150.738C-68.373 17.499-25.26 55.75 43.319 76.212c68.411 20.411 106.238 45.639 127.342 72.729 21.098 27.083 25.537 56.097 27.018 84.229.312 5.92.493 11.818.672 17.652V250.861l.001.007v.014l.001.008v.015l.001.008c.243 7.963.483 15.805 1.048 23.422.983 13.254 2.951 25.937 7.645 37.66 9.407 23.493 29.708 43.002 74.553 55.666Zm418.598-36.341c-68.506-19.308-125.895-1.065-186.184 18.1l-.004.002-.082.026c-3.404 1.082-6.817 2.167-10.242 3.248-64.133 20.246-132.475 39.23-221.814 14.002-44.642-12.606-64.637-31.95-73.897-55.074-4.638-11.586-6.596-24.153-7.575-37.363-.566-7.63-.805-15.437-1.048-23.387-.178-5.846-.359-11.769-.674-17.757-1.485-28.199-5.94-57.464-27.228-84.79-21.281-27.319-59.329-52.631-127.845-73.073C-24.742 54.862-67.612 16.778-89.78-28.908c-22.173-45.696-23.661-99.054-9.133-150.027 29.064-101.967 122.164-194.22 241.575-196.321 59.854-1.053 100.67-5.687 131.962-14.258 31.308-8.576 53.063-21.087 74.803-37.86 11.574-8.93 23.137-19.062 36.134-30.449 35.809-31.374 82.499-72.282 170.281-123.873 119.492-70.226 279.953-56.578 398.044.441 59.044 28.506 107.434 67.829 134.814 112.866 27.36 45.018 33.74 95.746 8.75 147.166-25.07 51.605-37.64 87.415-40.78 116.538-3.14 29.156 3.16 51.575 15.72 76.379 6.89 13.601 15.66 27.913 25.78 44.45 26.81 43.76 63.15 103.1 99.53 206.084 23.12 65.462 19.02 116.133-3.89 154.109-22.92 37.991-64.73 63.382-117.24 78.141-105.025 29.518-252.603 16.419-376.356-23.153l-.008-.002-.008-.003Zm-193.31-5.977c-60.341 19.06-124.839 37-209.135 13.183-42.176-11.917-61.275-30.276-70.124-52.39-4.416-11.034-6.267-22.97-7.191-35.441-.532-7.182-.759-14.579-.989-22.088-.168-5.501-.338-11.062-.632-16.643-1.392-26.465-5.566-53.755-25.399-79.229-19.839-25.481-55.403-49.214-119.729-68.416C9.195 45.066-31.353 9.072-52.332-34.187c-20.974-43.25-22.362-93.703-8.648-141.841 27.42-96.256 115.276-183.426 228.076-185.412 56.251-.99 94.539-5.348 123.849-13.38 29.295-8.029 49.64-19.734 70.002-35.453 10.834-8.363 21.678-17.87 33.879-28.565 33.678-29.524 77.689-68.105 160.322-116.696 112.719-66.282 263.963-53.364 375.206.378 55.628 26.873 101.306 63.979 127.176 106.559 25.88 42.598 31.93 90.675 8.28 139.388-23.57 48.529-35.32 82.097-38.26 109.324-2.93 27.195 2.93 48.099 14.68 71.318 6.44 12.719 14.66 26.138 24.16 41.663 25.21 41.179 59.48 97.167 93.72 194.165 21.81 61.773 18 109.767-3.74 145.816-21.73 36.035-61.3 60.03-110.81 73.951-99.001 27.841-237.974 15.474-354.45-21.789-64.127-18.082-117.828-1.004-174.563 17.039a4499.672 4499.672 0 0 1-9.659 3.065Zm9.411-4.036c56.691-18.031 110.664-35.198 175.09-17.029l.009.003.008.002c116.365 37.23 255.131 49.553 353.884 21.783 49.37-13.884 88.68-37.77 110.23-73.505 21.54-35.72 25.39-83.383 3.65-144.967-34.2-96.888-68.38-152.714-93.58-193.885v-.003c-9.53-15.559-17.77-29.024-24.25-41.821-11.82-23.341-17.74-44.44-14.78-71.877 2.95-27.406 14.77-61.102 38.35-109.654 23.48-48.368 17.49-96.085-8.23-138.432-25.74-42.367-71.247-79.36-126.761-106.178-111.038-53.642-261.914-66.481-374.265-.416-82.542 48.537-126.442 87.022-160.114 116.54-12.222 10.715-23.096 20.248-33.981 28.651-20.445 15.783-40.906 27.556-70.35 35.625-29.428 8.065-67.812 12.425-124.095 13.416-112.27 1.976-199.806 88.76-227.133 184.686-13.66 47.952-12.26 98.145 8.587 141.13C-30.592 8.351 9.713 44.177 73.975 63.36c64.431 19.234 100.215 43.052 120.232 68.761 20.023 25.717 24.213 53.258 25.609 79.791.295 5.609.465 11.156.632 16.63v.004l.002.055v.012l.001.007c.228 7.479.452 14.823.984 22.001.921 12.427 2.762 24.247 7.122 35.143 8.702 21.746 27.496 39.941 69.468 51.799 83.999 23.733 148.256 5.875 208.561-13.173 3.249-1.026 6.485-2.056 9.713-3.083Zm-205.402-6.312c79.946 22.61 141.116 5.578 198.337-12.513 3.053-.966 6.095-1.934 9.128-2.9l.015-.004.016-.005c53.802-17.127 104.72-33.336 165.522-16.175 110.457 35.372 242.25 47.112 336.145 20.683 46.95-13.215 84.48-35.994 105.09-70.206 20.62-34.227 24.23-79.792 3.55-138.433-32.47-92.075-64.98-145.224-88.88-184.311-9.01-14.735-16.8-27.472-22.91-39.543-11.14-22.037-16.7-41.874-13.92-67.682 2.79-25.84 13.93-57.7 36.28-103.764 22.44-46.247 16.7-91.892-7.85-132.333-24.54-40.423-67.856-75.647-120.611-101.157-105.497-51.015-248.931-63.279-355.832-.357-78.362 46.124-120.1 82.748-152.038 110.773-11.569 10.152-21.852 19.175-32.124 27.112-19.307 14.919-38.597 26.028-66.374 33.648-27.791 7.623-64.096 11.76-117.439 12.7C80.021-347.587-3.301-264.834-29.306-173.459c-13.006 45.699-11.69 93.597 8.203 134.656 19.898 41.07 58.355 75.24 119.521 93.517 60.997 18.226 94.716 40.751 113.525 64.932 18.803 24.174 22.761 50.072 24.081 75.192.279 5.296.44 10.574.6 15.795v.016c.218 7.123.433 14.14.937 20.953.877 11.838 2.632 23.172 6.821 33.649 8.396 21 26.514 38.431 66.515 49.744Zm373.298-32.557c-61.103-17.248-112.292-.951-166.05 16.164-3.062.975-6.132 1.952-9.212 2.926-57.187 18.081-118.116 35.03-197.764 12.505-39.796-11.255-57.61-28.522-65.859-49.154-4.133-10.339-5.878-21.556-6.752-33.351-.504-6.814-.717-13.783-.933-20.882l-.001-.008v-.016l-.001-.008V210.595l-.002-.055v-.004c-.158-5.185-.319-10.438-.598-15.751-1.324-25.187-5.298-51.335-24.29-75.752-18.987-24.41-52.927-47.02-114.029-65.278C37.771 35.548-.443 1.545-20.203-39.239c-19.765-40.796-21.094-88.434-8.141-133.946C-2.433-264.231 80.569-346.597 187.02-348.473c53.374-.94 89.776-5.079 117.686-12.735 27.925-7.661 47.331-18.838 66.721-33.821 10.324-7.977 20.636-17.026 32.227-27.196v-.001c31.931-28.019 73.559-64.547 151.831-110.617 106.532-62.705 249.597-50.52 354.889.395 52.64 25.455 95.786 60.566 120.196 100.776 24.39 40.19 30.07 85.474 7.8 131.378-22.36 46.087-33.57 78.074-36.37 104.093-2.808 26.05 2.81 46.082 14.02 68.24 6.15 12.151 13.96 24.935 23 39.705 23.9 39.08 56.3 92.066 88.74 184.03 20.61 58.453 16.96 103.687-3.46 137.585-20.43 33.912-57.7 56.582-104.52 69.76-93.637 26.358-225.223 14.662-335.568-20.676l-.008-.003-.009-.002Zm-172.276-6.084c-53.677 16.986-111.065 32.978-186.067 11.748-37.528-10.622-54.534-26.993-62.414-46.721-3.931-9.84-5.578-20.484-6.4-31.6-.474-6.4-.675-12.995-.88-19.688-.149-4.902-.301-9.858-.562-14.828-1.238-23.582-4.95-47.889-22.582-70.577-17.638-22.696-49.262-43.84-106.476-60.952C69.155 26.575 33.072-5.512 14.403-44.078-4.261-82.636-5.495-127.613 6.706-170.523c24.397-85.797 102.566-163.503 202.936-165.273 50.036-.883 84.089-4.766 110.155-11.922 26.051-7.153 44.143-17.58 62.251-31.585 9.633-7.45 19.278-15.921 30.129-25.45l.002-.002c29.958-26.311 69.114-60.699 142.624-104.004 100.289-59.081 234.848-47.565 333.815.334 49.489 23.952 90.132 57.026 113.152 94.983 23.03 37.976 28.41 80.84 7.36 124.271-20.959 43.246-31.411 73.154-34.022 97.409-2.608 24.222 2.601 42.841 13.054 63.526 5.726 11.33 13.028 23.287 21.488 37.12 22.42 36.698 52.91 86.602 83.38 173.05 19.4 55.061 16.01 97.849-3.34 129.993-19.33 32.13-54.55 53.52-98.6 65.928-88.081 24.815-211.715 13.791-315.331-19.419-57.026-16.108-104.781-.894-155.25 15.186-2.854.91-5.717 1.822-8.59 2.731Zm8.341-3.701c50.426-16.069 98.452-31.372 155.779-15.176l.009.003.008.002c103.505 33.176 226.931 44.156 314.763 19.412 43.911-12.371 78.861-33.652 98.021-65.481 19.15-31.815 22.58-74.273 3.24-129.145-30.42-86.339-60.82-136.08-83.24-172.77-8.47-13.868-15.804-25.872-21.571-37.282-10.514-20.807-15.789-39.62-13.156-64.085 2.631-24.432 13.147-54.468 34.117-97.738 20.89-43.086 15.56-85.59-7.32-123.315-22.886-37.745-63.353-70.706-112.728-94.602-98.762-47.799-232.952-59.236-332.872-.373-73.419 43.252-112.464 77.544-142.416 103.849-10.874 9.549-20.548 18.046-30.234 25.537-18.191 14.069-36.398 24.565-62.598 31.758-26.185 7.189-60.334 11.075-110.402 11.958-99.839 1.761-177.689 79.078-201.992 164.547-12.148 42.724-10.902 87.44 7.635 125.734 18.531 38.282 54.37 70.2 111.521 87.292 57.32 17.142 89.164 38.373 106.979 61.296 17.822 22.932 21.55 47.489 22.792 71.138.264 5.025.415 9.993.565 14.894v.016c.203 6.658.402 13.194.875 19.585.82 11.073 2.456 21.6 6.332 31.304 7.733 19.359 24.434 35.564 61.758 46.129 74.704 21.146 131.85 5.235 185.492-11.74 2.89-.914 5.771-1.832 8.643-2.747Zm-180.051-10.321c70.256 19.907 124.013 4.91 174.287-11.016 2.69-.852 5.369-1.706 8.04-2.558l.001-.001h.002c47.271-15.077 91.989-29.339 145.389-14.239 97.05 31.138 212.851 41.475 295.355 18.207 41.257-11.635 74.257-31.694 92.367-61.827 18.13-30.148 21.3-70.276 3.13-121.906-28.54-81.056-57.1-127.85-78.101-162.258-7.916-12.968-14.757-24.177-20.119-34.798-9.788-19.39-14.665-36.841-12.223-59.544 2.445-22.735 12.232-50.773 31.865-91.319 19.721-40.73 14.677-80.93-6.899-116.544-21.563-35.595-59.634-66.608-105.989-89.067-92.699-44.912-218.737-55.712-312.679-.312-68.852 40.604-105.528 72.849-133.587 97.518l-.001.001c-10.163 8.935-19.195 16.876-28.216 23.86-16.958 13.129-33.899 22.903-58.293 29.608-24.409 6.709-56.3 10.349-103.162 11.177-94.023 1.66-167.245 74.528-190.098 154.98-11.43 40.238-10.274 82.415 7.21 118.573 17.49 36.169 51.292 66.258 105.045 82.35 53.583 16.042 83.194 35.865 99.708 57.137 16.508 21.265 19.984 44.046 21.144 66.154.245 4.659.386 9.304.527 13.9.191 6.277.38 12.462.823 18.463.771 10.424 2.314 20.407 5.997 29.637 7.385 18.508 23.322 33.862 58.477 43.824Zm328-28.774c-53.702-15.188-98.691-.837-145.918 14.228-2.691.858-5.389 1.719-8.097 2.577-50.239 15.915-103.754 30.829-173.712 11.006-34.951-9.903-50.583-25.092-57.821-43.231-3.629-9.094-5.161-18.96-5.928-29.341-.444-5.997-.63-12.128-.82-18.375l-.001-.009v-.018l-.001-.009v-.016l-.001-.008v-.007l-.001-.007V170.329c-.139-4.565-.279-9.192-.525-13.873-1.163-22.175-4.656-45.207-21.353-66.715-16.691-21.5-46.523-41.408-100.212-57.482C100.3 16.236 66.741-13.684 49.389-49.568 32.03-85.463 30.863-127.381 42.24-167.432 65-247.557 137.903-320.036 231.394-321.686c46.894-.828 78.881-4.472 103.409-11.213 24.544-6.746 41.6-16.589 58.64-29.781 9.073-7.025 18.136-14.992 28.32-23.946 28.053-24.664 64.619-56.812 133.38-97.362 93.572-55.183 219.242-44.462 311.735.35 46.24 22.404 84.135 53.304 105.57 88.685 21.423 35.363 26.409 75.204 6.854 115.59-19.644 40.57-29.495 68.735-31.959 91.648-2.468 22.945 2.475 40.59 12.325 60.102 5.401 10.7 12.272 21.956 20.21 34.96 21.002 34.4 49.462 81.032 77.952 161.977 18.11 51.442 14.89 91.24-3.03 121.059-17.94 29.833-50.67 49.782-91.789 61.38-82.253 23.197-197.847 12.904-294.785-18.2l-.009-.003-.008-.002Zm-151.135-7.281c-46.873 14.866-96.998 28.867-162.508 10.282-32.782-9.3-47.65-23.638-54.54-40.925-3.436-8.621-4.875-17.943-5.593-27.674-.411-5.568-.586-11.307-.763-17.13v-.016l-.001-.007v-.008l-.001-.007v-.015l-.001-.007v-.014l-.001-.007v-.014l-.001-.006v-.007l-.001-.023v-.006l-.002-.055V150.593c-.13-4.247-.262-8.539-.488-12.843-1.081-20.633-4.321-41.89-19.706-61.731-15.39-19.849-42.989-38.349-92.941-53.322-50.121-15.023-81.643-43.115-97.953-76.885-16.305-33.76-17.382-73.138-6.724-110.703 21.308-75.108 89.584-143.138 177.26-144.688 43.689-.772 73.417-4.171 96.169-10.432 22.738-6.257 38.528-15.378 54.335-27.631 8.408-6.518 16.828-13.929 26.302-22.268l.001-.001c26.16-23.027 60.357-53.129 124.55-91.031 87.594-51.72 205.113-41.636 291.542.289 43.221 20.966 78.721 49.919 98.829 83.151 20.119 33.251 24.824 70.787 6.433 108.817-18.304 37.846-27.426 64.013-29.705 85.229-2.276 21.184 2.269 37.466 11.393 55.562 4.997 9.911 11.374 20.372 18.753 32.476 19.581 32.118 46.213 75.802 72.818 151.466 16.94 48.199 13.99 85.666-2.92 113.818-16.89 28.137-47.666 46.864-86.134 57.726-76.927 21.722-184.895 12.072-275.378-16.995-49.775-14.092-91.455-.782-135.528 13.291l-.007.003c-2.488.794-4.984 1.591-7.489 2.386Zm7.248-3.359c44.028-14.062 85.981-27.461 136.057-13.281l.008.003.009.002c90.371 29.033 198.132 38.639 274.808 16.988 38.334-10.824 68.836-29.441 85.556-57.279 16.7-27.823 19.7-64.961 2.82-112.971-26.56-75.554-53.094-119.077-72.67-151.186-7.401-12.139-13.807-22.647-18.844-32.638-9.185-18.217-13.796-34.694-11.494-56.119 2.298-21.394 11.484-47.688 29.798-85.558 18.226-37.686 13.58-74.863-6.388-107.863-19.979-33.02-55.303-61.859-98.409-82.769-86.224-41.826-203.373-51.83-290.598-.328-64.103 37.849-98.189 67.854-124.342 90.875-9.496 8.358-17.946 15.796-26.407 22.355-15.889 12.316-31.794 21.506-54.681 27.804-22.872 6.294-52.696 9.695-96.417 10.468-87.144 1.54-155.1 69.181-176.316 143.961-10.605 37.379-9.516 76.498 6.662 109.995 16.173 33.486 47.452 61.408 97.34 76.362 50.058 15.005 77.877 33.59 93.445 53.667 15.573 20.084 18.829 41.591 19.914 62.292.23 4.401.363 8.75.493 13.039.177 5.83.351 11.551.764 17.149.715 9.688 2.144 18.894 5.525 27.377 6.743 16.92 21.307 31.092 53.884 40.334 65.211 18.501 115.095 4.582 161.932-10.273 2.525-.801 5.041-1.605 7.551-2.406Zm-4.942-21.681c-43.494 13.807-90.014 26.813-150.81 9.55-30.427-8.639-44.233-21.961-50.632-38.029-3.189-8.01-4.525-16.672-5.191-25.711-.384-5.202-.548-10.567-.713-16.01-.122-3.984-.244-8.011-.455-12.046-1.004-19.16-4.01-38.892-18.278-57.31-14.274-18.425-39.875-35.602-86.221-49.506-46.516-13.956-75.773-40.05-90.912-71.422-15.134-31.362-16.132-67.942-6.241-102.834 19.775-69.764 83.138-132.957 164.512-134.397 40.537-.717 68.118-3.873 89.225-9.687 21.093-5.809 35.74-14.277 50.404-25.654 7.801-6.052 15.612-12.934 24.403-20.678v-.001c24.274-21.385 56.009-49.343 115.576-84.545 81.292-48.04 190.349-38.672 270.554.267 40.108 19.473 73.054 46.365 91.717 77.236 18.674 30.889 23.042 65.76 5.971 101.091-16.983 35.147-25.446 59.443-27.56 79.14-2.11 19.665 2.104 34.779 10.568 51.58 4.635 9.201 10.551 18.914 17.397 30.153l.001.002c18.169 29.828 42.884 70.403 67.569 140.675 15.726 44.769 12.986 79.576-2.708 105.732-15.685 26.142-44.246 43.537-79.946 53.626-71.388 20.175-171.578 11.212-255.541-15.783-46.174-13.084-84.839-.726-125.735 12.344-2.31.738-4.628 1.479-6.954 2.217Zm6.705-3.188c40.852-13.058 79.789-25.505 126.265-12.333l.009.003.008.002c83.851 26.961 183.833 35.88 254.971 15.776 35.565-10.051 63.856-27.337 79.361-53.178 15.501-25.827 18.281-60.306 2.622-104.886-24.647-70.163-49.264-110.576-67.428-140.395-6.868-11.275-12.814-21.036-17.489-30.317-8.525-16.922-12.805-32.231-10.669-52.137 2.133-19.875 10.659-44.298 27.653-79.468 16.906-34.988 12.597-69.501-5.926-100.139-18.534-30.657-51.304-57.436-91.298-76.853-79.999-38.84-188.686-48.128-269.608-.306-59.477 35.148-91.101 63.009-115.368 84.389h-.001c-8.812 7.763-16.653 14.672-24.506 20.764-14.746 11.441-29.509 19.978-50.751 25.828-21.227 5.847-48.904 9.005-89.474 9.723-80.839 1.43-143.885 64.233-163.567 133.669-9.838 34.708-8.827 71.028 6.18 102.127 15.001 31.088 44.016 57.014 90.298 70.899 46.452 13.935 72.273 31.199 86.725 49.852 14.456 18.66 17.479 38.643 18.485 57.87.214 4.089.337 8.128.458 12.111v.008c.164 5.41.326 10.719.709 15.916.663 8.995 1.988 17.541 5.123 25.414 6.252 15.701 19.755 28.856 49.976 37.437 60.498 17.178 106.776 4.255 150.234-9.541 2.287-.726 4.567-1.454 6.841-2.181l.109-.035.058-.019Zm-3.896-20.502c-40.592 12.539-83.853 24.422-139.899 8.507-28.671-8.141-41.896-20.508-48.177-35.366-3.132-7.408-4.523-15.404-5.271-23.74-.45-5.012-.668-10.179-.89-15.421l-.001-.022c-.146-3.446-.293-6.925-.509-10.413-1.09-17.65-3.931-35.817-17.072-52.817-13.146-17.006-36.655-32.91-79.233-45.89l.137-.448-.137.449C188.292-10.718 161.21-35.03 147.115-64.2c-14.09-29.16-15.177-63.121-6.136-95.496 18.076-64.73 76.693-123.278 153.206-124.587 37.884-.652 63.651-3.62 83.349-9.062 19.682-5.438 33.323-13.352 46.947-23.933 7.148-5.551 14.297-11.842 22.313-18.895 22.56-19.853 51.985-45.746 107.557-78.17 75.466-44.029 176.277-35.388 250.466.618 37.1 18.007 67.594 42.88 84.944 71.494 17.361 28.633 21.554 61.011 6.03 93.928l-.002.003c-15.438 32.244-23.138 54.657-25.055 72.928-1.915 18.241 1.931 32.386 9.674 48.111 4.341 8.817 9.916 18.138 16.383 28.953 16.612 27.776 39.115 65.403 61.747 129.636 14.465 41.095 11.905 73.199-2.605 97.426-14.502 24.213-40.879 40.456-73.838 49.972-65.909 19.029-158.393 11.237-235.969-13.839-43.239-12.409-79.598-1.112-117.977 10.812-1.981.615-3.967 1.232-5.96 1.848Zm5.722-2.822c38.334-11.912 74.962-23.294 118.498-10.797l.008.002.008.003c77.461 25.04 169.734 32.789 235.392 13.832 32.825-9.477 58.935-25.61 73.258-49.525 14.315-23.9 16.918-55.675 2.52-96.58-22.596-64.13-45.002-101.592-61.607-129.356-6.49-10.851-12.094-20.221-16.477-29.123-7.802-15.844-11.711-30.181-9.772-48.657 1.936-18.447 9.698-40.986 25.147-73.254 15.364-32.575 11.23-64.598-5.98-92.982-17.221-28.403-47.541-53.163-84.526-71.113-73.982-35.906-174.426-44.47-249.525-.654-55.479 32.369-84.794 58.165-107.348 78.013l-.004.003-.003.003h-.001c-8.033 7.07-15.209 13.384-22.404 18.972-13.707 10.644-27.463 18.627-47.295 24.107-19.816 5.475-45.68 8.445-83.598 9.098-75.983 1.3-134.277 59.461-152.26 123.856-8.988 32.188-7.891 65.892 6.073 94.792 13.96 28.89 40.803 53.032 83.414 66.064 42.683 13.011 66.411 29.002 79.732 46.235 13.327 17.24 16.185 35.654 17.279 53.367.219 3.54.367 7.041.513 10.498v.002c.22 5.215.437 10.329.885 15.327.744 8.29 2.122 16.169 5.196 23.44 6.129 14.5 19.054 26.708 47.529 34.794 55.749 15.831 98.769 4.029 139.331-8.5 1.998-.618 3.991-1.237 5.98-1.855l.037-.012Zm-131.91-13.405c51.296 14.566 91.298 3.807 128.988-7.465 1.656-.495 3.307-.991 4.954-1.486 35.864-10.776 69.924-21.01 110.231-9.273 71.191 23.157 155.968 29.779 216.397 11.895 30.22-8.943 54.413-24.034 67.731-46.317 13.327-22.299 15.706-51.699 2.502-89.121-20.571-58.172-40.86-92.83-55.912-118.543l-.001-.002-.002-.004c-6.094-10.41-11.33-19.353-15.378-27.797-7.022-14.649-10.5-27.827-8.781-44.643 1.721-16.845 8.659-37.376 22.552-66.717l.003-.006c13.977-30.503 9.958-60.387-6.089-86.764-16.036-26.359-44.079-49.213-78.171-65.752-68.173-33.073-160.738-40.989-230.377-.969-51.571 29.636-78.682 53.462-99.529 71.783-7.246 6.368-13.736 12.071-20.232 17.122-12.586 9.785-25.219 17.145-43.491 22.212-18.288 5.071-42.241 7.85-77.472 8.437-71.654 1.179-125.523 55.081-141.9 114.778-8.191 29.857-7.017 61.2 6.03 88.159 13.051 26.967 37.958 49.495 77.131 61.748h.001c38.809 12.053 60.226 26.685 72.245 42.273 12.014 15.581 14.689 32.185 15.867 48.324.216 2.959.382 5.909.546 8.835.283 5.037.562 10.004 1.086 14.821.829 7.633 2.277 14.964 5.35 21.769 6.164 13.648 18.807 25.059 45.721 32.703Zm244.46-19.182c-40.601-11.825-74.925-1.51-110.743 9.255-1.668.501-3.34 1.003-5.015 1.504-37.664 11.265-77.427 21.944-128.428 7.461-26.729-7.591-39.077-18.853-45.083-32.153-3.012-6.669-4.444-13.882-5.268-21.465-.521-4.795-.797-9.71-1.079-14.723v-.003l-.001-.013V92c-.164-2.928-.33-5.89-.549-8.88-1.181-16.198-3.875-33.044-16.072-48.863-12.192-15.812-33.826-30.531-72.74-42.617-38.94-12.18-63.612-34.537-76.529-61.23-12.922-26.7-14.105-57.789-5.966-87.458 16.283-59.353 69.826-112.872 140.952-114.042 35.265-.587 59.316-3.369 77.723-8.473 18.422-5.109 31.171-12.539 43.838-22.387 6.543-5.087 13.059-10.813 20.324-17.198l.001-.001.003-.002c20.841-18.316 47.843-42.045 99.317-71.626 69.276-39.811 161.477-31.971 229.442 1.002 33.977 16.483 61.846 39.224 77.754 65.372 15.896 26.129 19.855 55.661 6.035 85.824-13.905 29.367-20.903 50.022-22.642 67.041-1.742 17.047 1.795 30.41 8.874 45.177 4.093 8.538 9.36 17.534 15.479 27.985 15.044 25.696 35.236 60.184 55.773 118.262 13.136 37.228 10.715 66.301-2.418 88.275-13.142 21.988-37.07 36.968-67.155 45.871-60.178 17.809-144.743 11.23-215.812-11.889l-.008-.002-.007-.003Zm-112.68-11.975c-34.788 10.005-71.532 19.64-118.076 6.422-25.158-7.146-37.217-17.601-43.264-30.038-5.018-10.32-5.863-21.97-6.736-34.015l-.001-.008c-.174-2.397-.349-4.81-.558-7.231-1.265-14.63-3.775-29.67-14.662-43.834-10.891-14.17-30.218-27.528-65.258-38.655h-.001c-35.502-11.402-58.234-32.147-70.24-56.912-12.003-24.755-13.266-53.481-5.925-80.821 14.678-54.664 63.801-103.921 130.594-104.968 32.578-.522 54.718-3.113 71.595-7.813 16.862-4.695 28.488-11.502 40.035-20.491 5.848-4.552 11.681-9.671 18.163-15.359 19.134-16.791 43.928-38.547 91.49-65.386 63.813-36.009 148.13-28.821 210.287 1.32 31.085 15.072 56.676 35.908 71.399 60.011 14.734 24.12 18.578 51.509 6.149 79.598l-.005.01c-12.348 26.438-18.524 45.086-20.049 60.505-1.523 15.394 1.586 27.603 7.889 41.176 3.774 8.13 8.677 16.717 14.411 26.76 3.871 6.78 8.12 14.223 12.658 22.638 11.242 20.85 24.199 47.572 37.386 84.705 11.943 33.75 9.744 60.446-2.4 80.815-12.134 20.354-34.141 34.292-61.621 42.663-54.95 16.738-132.02 11.289-196.827-9.95-37.38-11.069-69.149-1.9-102.502 7.725l-3.931 1.133Zm3.721-2.113c33.305-9.614 65.334-18.858 103.002-7.702l.007.002.007.003c64.678 21.197 141.533 26.607 196.232 9.945 27.345-8.329 49.093-22.156 61.053-42.218 11.952-20.047 14.189-46.417 2.317-79.97-13.168-37.075-26.102-63.751-37.325-84.564-4.505-8.354-8.743-15.778-12.612-22.556v-.001l-.003-.004-.001-.002-.001-.001c-5.753-10.08-10.691-18.73-14.478-26.887-6.356-13.688-9.522-26.079-7.977-41.695 1.542-15.59 7.776-34.362 20.136-60.826 12.278-27.751 8.495-54.794-6.089-78.668-14.596-23.893-40.014-44.616-70.982-59.633-61.948-30.038-145.907-37.154-209.36-1.348-47.461 26.782-72.146 48.443-91.275 65.228-6.501 5.705-12.361 10.847-18.255 15.436-11.627 9.051-23.369 15.927-40.381 20.665-16.996 4.733-39.234 7.326-71.848 7.849-66.27 1.039-115.06 49.916-129.643 104.228-7.29 27.148-6.022 55.621 5.858 80.125C221.76-50.05 244.261-29.476 279.53-18.15c35.146 11.16 54.685 24.607 65.747 38.999 11.066 14.397 13.596 29.675 14.865 44.357.213 2.458.39 4.896.566 7.309.876 12.042 1.706 23.462 6.632 33.594 5.884 12.101 17.655 22.417 42.638 29.513 46.253 13.135 82.759 3.578 117.527-6.421 1.283-.369 2.563-.738 3.842-1.108l.155-.044Zm-108.078-16.203c41.793 11.869 75.278 3.358 107.163-5.379l2.889-.793c30.844-8.47 60.333-16.57 94.793-6.165 58.423 19.321 127.788 23.598 177.258 8.005 24.739-7.797 44.561-20.584 55.512-39.008 10.959-18.439 12.978-42.431 2.297-72.509h-.001c-11.917-33.38-23.524-57.58-33.555-76.576-3.787-7.17-7.342-13.588-10.602-19.473l-.003-.005-.001-.002-.001-.003c-4.385-7.915-8.236-14.866-11.398-21.39l-9.079-41.837.026-.283c1.329-13.993 6.742-30.759 17.546-54.294l.003-.007.003-.007c10.881-25.674 7.212-50.569-6.209-72.433-13.41-21.846-36.549-40.663-64.625-54.269-56.142-27.207-132.212-33.669-190.198-1.671-43.543 24.028-66.015 43.714-83.436 58.976-5.726 5.016-10.906 9.554-16.109 13.611-10.508 8.193-21.128 14.445-36.579 18.77-15.467 4.328-35.793 6.731-65.718 7.187-61.932.917-106.309 45.527-119.288 95.16-6.491 24.822-5.139 50.93 5.819 73.483 10.962 22.56 31.517 41.523 63.348 52.074h.002c31.271 10.201 48.507 22.287 58.271 35.038 9.761 12.748 12.105 26.224 13.457 39.345.196 1.898.371 3.791.545 5.675 1.025 11.096 2.018 21.857 7.064 31.41 5.93 11.224 17.406 20.722 40.806 27.37ZM818.332-99.514c-3.616-6.528-6.879-12.419-9.692-17.951l20.459 94.273c-9.751-26.176-19.102-45.829-27.23-61.628-3.023-5.875-5.872-11.21-8.508-16.145-5.064-9.481-9.34-17.488-12.547-25.022-4.862-11.423-7.236-21.698-6.104-34.246 1.11-12.314 5.597-26.849 14.485-46.834l8.833 40.704c1.75-13.608 7.19-29.828 17.328-51.913 10.737-25.339 7.128-49.892-6.143-71.512-13.282-21.639-36.25-40.343-64.21-53.893-55.93-27.105-131.647-33.497-189.278-1.695-43.437 23.969-65.8 43.559-83.217 58.816-5.744 5.032-10.95 9.593-16.196 13.683-10.588 8.256-21.323 14.578-36.925 18.945-15.586 4.362-36.011 6.767-65.972 7.224-61.415.909-105.452 45.145-118.336 94.413-6.441 24.629-5.087 50.487 5.751 72.792 10.834 22.297 31.165 41.087 62.761 51.562 31.379 10.235 48.823 22.41 58.755 35.38 9.935 12.976 12.301 26.684 13.658 39.85.198 1.921.375 3.829.55 5.72 1.028 11.105 2.004 21.64 6.949 31 5.76 10.904 16.957 20.275 40.194 26.876 41.506 11.787 74.754 3.352 106.626-5.382l1.054-.289 1.211-.332.502-.138.163-.045.015-.004.015-.004c30.795-8.459 60.538-16.629 95.281-6.136l.012.004c58.287 19.276 127.432 23.516 176.65 8.003 24.605-7.756 44.173-20.429 54.953-38.566 10.77-18.12 12.824-41.788 2.214-71.663-11.898-33.326-23.484-57.482-33.497-76.444-3.757-7.113-7.298-13.506-10.553-19.383l-.008-.014-.001-.003-.002-.002v-.001Zm-29.493-109.192.356 1.639c.184-.415.37-.831.558-1.25l.004-.01.004-.009c9.332-23.259 5.837-45.659-6.27-65.265-12.097-19.591-32.784-36.388-57.852-48.528-50.126-24.274-117.948-30.008-170.107-2.022-39.512 21.2-59.656 38.813-75.364 52.547-4.979 4.353-9.512 8.317-14.075 11.881-9.468 7.397-19.081 13.096-33.122 17.049-14.056 3.957-32.569 6.171-59.841 6.562-57.07.787-96.702 40.749-107.983 85.353-5.641 22.305-4.199 45.793 5.714 66.143 9.918 20.357 28.296 37.535 56.455 47.236l.003.001c27.502 9.275 42.648 20.087 51.285 31.421 8.635 11.331 10.814 23.245 12.253 34.858.172 1.38.332 2.759.493 4.132 1.182 10.138 2.333 20.002 7.432 28.783 5.812 10.01 16.703 18.551 38.345 24.7 37.041 10.52 67.268 3.134 96.249-4.335l1.719-.444.099-.025c28.339-7.312 55.564-14.337 87.113-4.589 52.041 17.403 113.7 20.508 157.691 6.06 21.999-7.225 39.635-18.86 49.401-35.353 9.776-16.509 11.614-37.797 2.194-64.203v-.002a642.783 642.783 0 0 0-2.494-6.816l1.552 7.154c-10.628-29.575-20.868-51.212-29.671-68.324-3.001-5.833-5.84-11.148-8.472-16.076v-.001c-5.08-9.512-9.39-17.583-12.614-25.156-4.909-11.532-7.33-21.974-6.18-34.728 1.147-12.732 5.851-27.733 15.123-48.394l-.004.009.006.002Zm0 0 .458.184-.456-.205-.004.01.002.011ZM327.642-38.326c27.608 9.311 42.957 20.213 51.757 31.762 8.804 11.553 11.007 23.692 12.451 35.34a420.894 420.894 0 0 1 .488 4.094l.006.049v.003c1.189 10.161 2.316 19.802 7.303 28.39 5.638 9.71 16.26 18.135 37.753 24.241 36.759 10.44 66.75 3.126 95.727-4.342l1.006-.26.889-.229c28.289-7.3 55.761-14.389 87.586-4.553l.011.003c51.893 17.354 113.328 20.426 157.067 6.06 21.865-7.181 39.253-18.701 48.852-34.912 9.59-16.195 11.459-37.16 2.113-63.358L803.4-17.246c3.765 17.275 1.366 31.811-5.634 43.689-8.581 14.562-24.03 25.045-43.289 31.698-38.51 13.303-92.465 11.37-138.124-4.115-28.652-9.1-53.633-3.158-79.473 2.989l-.709.169c-26.077 6.201-53.045 12.463-85.333 3.292-19.884-5.65-30.188-13.235-35.882-22.028-5.185-8.006-6.504-16.96-7.854-26.132l-.097-.658-.071-.48c-.073-.492-.146-.983-.221-1.476-1.528-10.106-3.54-20.458-11.05-30.373-4.004-5.288-9.585-10.467-17.519-15.416l-50.502-2.238Zm0 0h-.003l-.16.474.163-.473Zm52.501 2.327c7.252 4.722 12.482 9.66 16.317 14.724 7.671 10.129 9.711 20.698 11.242 30.828.129.855.255 1.706.38 2.553l.006.039c1.358 9.207 2.647 17.946 7.707 25.76 5.516 8.516 15.566 15.997 35.316 21.609 32.012 9.093 58.746 2.9 84.828-3.303l.794-.189c25.788-6.135 51.008-12.134 79.927-2.947l.009.003c45.499 15.431 99.223 17.334 137.482 4.117 19.126-6.606 34.335-16.973 42.754-31.26 6.885-11.683 9.262-26.044 5.461-43.227l-29.8-1.32c-.106 8.837-2.384 16.716-6.433 23.63-7.395 12.629-20.656 21.96-37.175 28.041-33.03 12.16-79.281 11.4-118.562-2.168-25.604-8.411-48.245-3.68-71.434 1.258l-.444.094c-23.03 4.905-46.611 9.927-73.971 2.154-18.124-5.151-27.838-11.778-33.413-19.35-5.321-7.227-6.822-15.258-8.353-23.449l-.211-1.128c-1.56-8.3-3.333-16.774-9.192-24.996L380.143-36Zm57.143 2.532-22.649-1.004c5.643 8.218 7.394 16.659 8.916 24.757l.2 1.067c1.541 8.24 3.004 16.063 8.186 23.101 5.395 7.327 14.875 13.863 32.882 18.981 27.12 7.705 50.491 2.728 73.559-2.185l.374-.08c23.17-4.933 46.064-9.735 71.958-1.228l.007.002c39.102 13.508 85.115 14.244 117.894 2.177 16.386-6.033 29.417-15.246 36.657-27.609 3.957-6.756 6.197-14.476 6.297-23.168l-35.133-1.557a40.97 40.97 0 0 1-1.927 3.747C728.298-5.77 717.227 2.41 703.449 7.92c-27.549 11.017-66.099 11.433-99.004-.221-22.298-7.638-42.405-4.31-62.689-.64l-1.684.305c-19.714 3.575-39.659 7.192-61.809.899C461.899 3.61 452.777-2.06 447.324-8.407c-5.453-6.347-7.186-13.317-8.889-20.405l-.082-.341c-.345-1.434-.69-2.873-1.067-4.314Zm1.046.046a239.3 239.3 0 0 1 .981 3.984l.094.392c1.706 7.099 3.398 13.844 8.675 19.987 5.277 6.141 14.19 11.734 30.455 16.358 21.922 6.229 41.664 2.65 61.419-.932l.87-.158.752-.136c20.277-3.669 40.622-7.054 63.194.679l.005.001c32.702 11.583 71 11.153 98.301.236 13.647-5.457 24.503-13.517 30.564-23.958a39.943 39.943 0 0 0 1.715-3.293l-47.999-2.126c-2.912 1.88-6.071 3.576-9.43 5.08-22.067 9.874-52.918 11.47-79.453 1.728-18.994-6.866-36.569-4.94-53.948-2.537-1.018.14-2.035.283-3.052.425h-.004c-16.319 2.285-32.545 4.556-49.509-.266-14.603-4.153-23.129-8.862-28.456-13.981a41.183 41.183 0 0 1-.394-.385l-24.78-1.098Zm239.188 15.2a70.472 70.472 0 0 0 8.084-4.244l-220.977-9.79c5.193 4.808 13.479 9.318 27.608 13.336 16.754 4.762 32.783 2.52 49.142.232l3.013-.42c17.384-2.403 35.18-4.37 54.426 2.588h.002c26.296 9.656 56.878 8.065 78.702-1.701Z"
      clip-rule="evenodd"
    />
  </g>
  <defs>
    <linearGradient
      id="b"
      x1="367.495"
      x2="367.492"
      y1="-70.999"
      y2="58.001"
      gradientUnits="userSpaceOnUse"
    >
      <stop stop-color="#6CF9D8" />
      <stop offset="1" stop-color="#225448" stop-opacity="0" />
    </linearGradient>
    <clipPath id="a"><path fill="#fff" d="M0 0h552v102H0z" /></clipPath>
  </defs>
</svg>
