<svg viewBox="0 0 551 102" fill="none" xmlns="http://www.w3.org/2000/svg">
  <g clip-path="url(#clip0_9559_71509)">
    <path
      fill-rule="evenodd"
      clip-rule="evenodd"
      d="M381.94 396.026C307.14 419.602 227.209 441.784 122.741 412.332C70.4799 397.599 46.8395 374.908 35.8857 347.596C30.4182 333.964 28.125 319.212 26.9794 303.79C26.3196 294.908 26.0392 285.766 25.7545 276.481L25.7545 276.478L25.7545 276.476L25.7545 276.474L25.7545 276.472L25.7545 276.469L25.7545 276.468L25.7545 276.466L25.7545 276.464L25.7545 276.462L25.7545 276.46L25.7545 276.459L25.7545 276.457L25.7545 276.456C25.5459 269.659 25.335 262.786 24.9706 255.883C23.2442 223.138 18.0679 189.35 -6.54234 157.81C-31.1588 126.263 -75.2741 96.8954 -155.033 73.1381C-234.959 49.3308 -285.198 4.82619 -311.19 -48.6519C-337.177 -102.12 -338.899 -164.501 -321.904 -224.026C-287.922 -343.056 -179.043 -450.838 -39.2668 -453.294C30.4728 -454.519 77.9499 -459.91 114.301 -469.85C150.636 -479.786 175.873 -494.273 201.126 -513.725C214.562 -524.075 228.01 -535.838 243.138 -549.071C284.889 -585.591 339.437 -633.305 441.867 -693.405C581.562 -775.37 769.018 -759.4 906.904 -692.933C975.852 -659.697 1032.46 -613.811 1064.52 -561.165C1096.58 -508.5 1104.08 -449.072 1074.77 -388.854C1045.55 -328.821 1030.97 -287.282 1027.33 -253.581C1023.69 -219.912 1030.96 -194.032 1045.54 -165.295C1053.53 -149.553 1063.72 -132.948 1075.5 -113.74L1075.5 -113.739C1106.75 -62.8018 1149.23 6.43637 1191.68 126.41C1218.71 202.802 1213.98 262.131 1187.05 306.686C1160.14 351.225 1111.11 380.894 1049.75 398.11C927.042 432.54 754.779 417.247 610.395 371.156C530.86 348.778 464.252 369.915 393.922 392.233C389.941 393.496 385.948 394.763 381.94 396.026ZM393.675 391.262C463.961 368.956 530.839 347.731 610.674 370.196L610.682 370.198L610.691 370.201C754.964 416.258 927.02 431.507 1049.48 397.147C1110.7 379.968 1159.46 350.408 1186.2 306.168C1212.92 261.944 1217.7 202.946 1190.74 126.744C1148.33 6.88006 1105.95 -62.1957 1074.7 -113.124C1062.9 -132.368 1052.68 -149.02 1044.65 -164.843C1030.01 -193.701 1022.67 -219.777 1026.34 -253.689C1030 -287.569 1044.64 -329.235 1073.87 -389.292C1103.01 -449.164 1095.58 -508.232 1063.66 -560.645C1031.74 -613.078 975.304 -658.852 906.469 -692.033C768.789 -758.4 581.7 -774.291 442.373 -692.542C340.033 -632.495 285.595 -584.878 243.851 -548.363C228.702 -535.112 215.224 -523.323 201.736 -512.933C176.4 -493.417 151.048 -478.862 114.564 -468.885C78.0958 -458.913 30.5226 -453.52 -39.2492 -452.294C-178.496 -449.848 -287.055 -342.45 -320.943 -223.751C-337.884 -164.413 -336.149 -102.293 -310.291 -49.089C-284.437 4.10424 -234.442 48.4414 -154.747 72.1797C-74.8843 95.9681 -30.548 125.42 -5.75389 157.195C19.0463 188.978 24.2391 223.017 25.9693 255.831C26.3347 262.764 26.5449 269.626 26.7523 276.399L26.7523 276.403L26.7542 276.458L26.7542 276.464L26.7545 276.47L26.7549 276.476L26.7553 276.483L26.7556 276.49C27.0388 285.746 27.317 294.836 27.9767 303.716C29.119 319.094 31.4016 333.729 36.8138 347.224C47.6196 374.167 70.9545 396.693 123.013 411.37C227.184 440.738 306.874 418.637 381.64 395.073C385.664 393.804 389.675 392.531 393.675 391.262ZM138.894 383.201C238.022 411.158 313.868 390.101 384.841 367.724C388.643 366.525 392.431 365.323 396.208 364.124C462.938 342.94 526.13 322.88 601.586 344.118C738.583 387.867 902.034 402.384 1018.47 369.702C1076.69 353.36 1123.22 325.196 1148.76 282.913C1174.31 240.615 1178.8 184.293 1153.15 111.78C1112.87 -2.09818 1072.57 -67.8211 1042.92 -116.17C1031.74 -134.4 1022.07 -150.161 1014.49 -165.101C1000.66 -192.373 993.763 -216.933 997.216 -248.885C1000.67 -280.869 1014.5 -320.292 1042.22 -377.273C1070.03 -434.439 1062.92 -490.856 1032.49 -540.85C1002.07 -590.825 948.36 -634.382 882.937 -665.93C752.104 -729.02 574.233 -744.18 441.679 -666.376C344.489 -609.33 292.731 -564.039 253.117 -529.375L253.115 -529.373L253.114 -529.373L253.108 -529.368L253.106 -529.366L253.106 -529.365C238.757 -516.81 226.002 -505.649 213.257 -495.828C189.299 -477.366 165.357 -463.618 130.885 -454.188C96.3984 -444.753 51.3539 -439.637 -14.8152 -438.474C-147.45 -436.143 -250.765 -333.829 -283.01 -220.842C-299.136 -164.337 -297.503 -105.121 -272.843 -54.3641C-248.178 -3.59706 -200.504 38.6496 -124.662 61.2486C-48.9892 83.7975 -7.13755 111.67 16.2144 141.608C39.5601 171.538 44.471 203.602 46.109 234.682C46.4546 241.233 46.6548 247.757 46.8528 254.209L46.8528 254.211L46.8528 254.212L46.8528 254.213L46.8528 254.215L46.8528 254.216L46.8528 254.217L46.8528 254.218L46.8528 254.22L46.8528 254.221L46.8528 254.223L46.8528 254.224L46.8528 254.225L46.8528 254.227L46.8528 254.23C47.1229 263.043 47.389 271.722 48.015 280.154C49.1021 294.793 51.2782 308.798 56.4672 321.741C66.864 347.674 89.3021 369.215 138.894 383.201ZM601.866 343.158C526.109 321.833 462.648 341.981 395.96 363.153C392.165 364.358 388.359 365.566 384.54 366.77C313.602 389.136 237.997 410.112 139.165 382.239C89.777 368.31 67.6443 346.933 57.3954 321.368C52.2616 308.563 50.0961 294.675 49.0123 280.08C48.3865 271.651 48.1226 263.025 47.8539 254.241C47.6564 247.784 47.4562 241.241 47.1077 234.629C45.4661 203.482 40.5385 171.167 17.0028 140.993C-6.52659 110.827 -48.5991 82.8702 -124.377 60.2902C-199.987 37.7603 -247.417 -4.31889 -271.943 -54.801C-296.475 -105.294 -298.121 -164.249 -282.049 -220.567C-249.897 -333.224 -146.904 -435.153 -14.7977 -437.474C51.4037 -438.638 96.5442 -443.757 131.149 -453.223C165.77 -462.694 189.827 -476.511 213.868 -495.036C226.661 -504.895 239.444 -516.079 253.81 -528.65L253.811 -528.651L253.813 -528.652L253.817 -528.656L253.824 -528.662L253.83 -528.667L253.83 -528.668C293.437 -563.326 345.086 -608.521 442.185 -665.514C574.372 -743.102 751.875 -728.021 882.503 -665.029C947.811 -633.536 1001.35 -590.092 1031.64 -540.33C1061.92 -490.587 1068.97 -434.531 1041.32 -377.711C1013.59 -320.707 999.697 -281.155 996.221 -248.993C992.743 -216.798 999.708 -192.042 1013.6 -164.648C1021.22 -149.628 1030.91 -133.821 1042.12 -115.555C1071.76 -67.2151 1111.97 -1.65467 1152.21 112.114C1177.79 184.437 1173.25 240.428 1147.9 282.396C1122.54 324.379 1076.28 352.434 1018.2 368.739C902.013 401.351 738.768 386.878 601.883 343.163L601.874 343.16L601.866 343.158ZM387.626 340.509C320.339 361.734 248.427 381.708 154.44 355.189C107.419 341.922 86.139 321.485 76.2786 296.878C71.3577 284.598 69.2943 271.311 68.2637 257.425C67.6703 249.439 67.4181 241.218 67.162 232.87L67.162 232.868L67.162 232.865L67.162 232.863L67.162 232.861L67.162 232.858L67.162 232.856L67.162 232.854L67.162 232.852L67.162 232.85L67.162 232.848L67.162 232.846L67.162 232.844L67.162 232.842L67.1616 232.831C66.974 226.706 66.7842 220.512 66.4567 214.294C64.9038 184.817 60.2484 154.41 38.1204 126.028C15.9862 97.6368 -23.6856 71.2018 -95.4251 49.8148C-167.333 28.3777 -212.536 -11.6979 -235.924 -59.858C-259.306 -108.008 -260.854 -164.182 -245.564 -217.781C-214.992 -324.959 -117.036 -422.015 8.72272 -424.226C71.4538 -425.329 114.156 -430.182 146.848 -439.129C179.525 -448.073 202.22 -461.112 224.932 -478.621C237.016 -487.937 249.111 -498.526 262.718 -510.438C300.274 -543.318 349.347 -586.279 441.49 -640.389C567.168 -714.192 735.808 -699.811 859.85 -639.967C921.877 -610.042 972.806 -568.725 1001.65 -521.318C1030.5 -473.891 1037.24 -420.37 1010.87 -366.14C984.593 -312.093 971.483 -274.703 968.207 -244.371C964.934 -214.071 971.472 -190.78 984.585 -164.915C991.768 -150.746 1000.93 -135.799 1011.53 -118.508C1039.64 -72.6488 1077.85 -10.306 1116.04 97.7113C1140.36 166.495 1136.1 219.926 1111.87 260.054C1087.65 300.167 1043.53 326.883 988.334 342.385C877.945 373.386 722.979 359.616 593.097 318.119C521.568 297.977 461.666 317.001 398.401 337.094C394.821 338.231 391.23 339.372 387.626 340.509ZM398.153 336.123C461.375 316.042 521.547 296.929 593.376 317.158L593.384 317.161L593.393 317.163C723.164 358.627 877.923 372.353 988.063 341.422C1043.13 325.958 1086.98 299.35 1111.02 259.537C1135.05 219.739 1139.35 166.639 1115.1 98.0445C1076.95 -9.86268 1038.83 -72.043 1010.73 -117.893C1000.11 -135.22 990.916 -150.214 983.693 -164.463C970.519 -190.45 963.914 -213.936 967.212 -244.478C970.508 -274.989 983.683 -312.508 1009.97 -366.577C1036.18 -420.462 1029.49 -473.623 1000.79 -520.798C972.081 -567.992 921.329 -609.196 859.416 -639.066C735.579 -698.811 567.306 -713.114 441.996 -639.527C349.944 -585.47 300.981 -542.605 263.432 -509.732L263.431 -509.731C249.803 -497.8 237.678 -487.185 225.543 -477.829C202.749 -460.256 179.938 -447.149 147.112 -438.165C114.302 -429.185 71.5036 -424.33 8.74029 -423.226C-116.489 -421.024 -214.124 -324.354 -244.603 -217.507C-259.839 -164.094 -258.278 -108.181 -235.024 -60.2949C-211.775 -12.4195 -166.815 27.4885 -95.1394 48.8565C-23.2954 70.2746 16.5973 96.7943 38.9091 125.413C61.2269 154.039 65.8989 184.696 67.4553 214.241C67.7858 220.514 67.9756 226.72 68.1629 232.845C68.4175 241.176 68.6676 249.357 69.261 257.351C70.2883 271.194 72.3411 284.364 77.2068 296.506C86.9196 320.744 107.895 341.017 154.712 354.227C248.401 380.662 320.073 360.769 387.325 339.555C390.945 338.413 394.552 337.267 398.15 336.125L398.153 336.123ZM167.6 331.66C257.236 356.972 325.819 337.907 389.987 317.649C393.424 316.564 396.848 315.476 400.262 314.391C460.595 295.214 517.713 277.059 585.918 296.28C709.782 335.886 857.566 349.029 962.843 319.44C1015.49 304.644 1057.57 279.144 1080.67 240.853C1103.78 202.547 1107.83 151.546 1084.64 85.8946C1048.23 -17.1993 1011.78 -76.7027 984.976 -120.471L984.975 -120.472C974.868 -136.973 966.131 -151.238 959.282 -164.758C946.779 -189.441 940.546 -211.665 943.666 -240.578C946.79 -269.523 959.291 -305.205 984.353 -356.786C1009.5 -408.551 1003.07 -459.64 975.553 -504.909C948.046 -550.16 899.475 -589.595 840.321 -618.156C722.025 -675.274 561.195 -689.001 441.335 -618.558C353.462 -566.915 306.662 -525.91 270.847 -494.53C257.872 -483.162 246.338 -473.056 234.816 -464.166C213.159 -447.456 191.519 -435.014 160.36 -426.479C129.186 -417.94 88.4664 -413.309 28.6447 -412.256C-91.296 -410.146 -184.717 -317.507 -213.875 -215.209C-228.456 -164.05 -226.98 -110.432 -204.679 -64.4718C-182.373 -18.5014 -139.26 19.7505 -70.6808 40.2117C-2.26999 60.6226 35.5574 85.8501 56.6613 112.941C77.7591 140.024 82.1983 169.038 83.679 197.169C83.9913 203.09 84.1723 208.988 84.3512 214.822L84.3512 214.824L84.3512 214.826L84.3512 214.828L84.3512 214.83L84.3512 214.832L84.3512 214.835L84.3512 214.837L84.3512 214.84L84.3512 214.842L84.3512 214.845L84.3512 214.848L84.3512 214.851L84.3512 214.854L84.3512 214.857L84.3512 214.86L84.3516 214.867L84.3519 214.875L84.3523 214.882L84.3527 214.889L84.353 214.897L84.3534 214.905L84.3538 214.913C84.5973 222.875 84.8372 230.718 85.4024 238.334C86.3853 251.588 88.3532 264.272 93.0471 275.995C102.454 299.488 122.755 318.996 167.6 331.66ZM586.198 295.32C517.692 276.011 460.303 294.254 400.014 313.42L400.01 313.421L399.928 313.447C396.524 314.529 393.111 315.614 389.686 316.695C325.553 336.942 257.211 355.926 167.872 330.698C123.23 318.092 103.235 298.748 93.9755 275.623C89.3366 264.037 87.3793 251.471 86.3995 238.26C85.8338 230.631 85.5952 222.824 85.3524 214.873C85.1738 209.028 84.9928 203.105 84.6776 197.117C83.1934 168.918 78.7376 139.653 57.4502 112.326C36.1688 85.0078 -1.87937 59.6955 -70.3949 39.2534C-138.742 18.8615 -181.612 -19.2227 -203.78 -64.9084C-225.953 -110.604 -227.441 -163.962 -212.913 -214.935C-183.849 -316.903 -90.7486 -409.155 28.6623 -411.256C88.5162 -412.31 129.332 -416.944 160.624 -425.515C191.932 -434.09 213.687 -446.601 235.427 -463.374C247.001 -472.305 258.564 -482.436 271.561 -493.824C307.37 -525.198 354.06 -566.106 441.842 -617.696C561.334 -687.923 721.795 -674.274 839.886 -617.256C898.925 -588.749 947.321 -549.427 974.699 -504.39C1002.06 -459.372 1008.44 -408.644 983.453 -357.223C958.38 -305.619 945.815 -269.809 942.672 -240.685C939.525 -211.53 945.826 -189.111 958.39 -164.306C965.28 -150.705 974.046 -136.394 984.175 -119.857C1010.98 -76.0973 1047.32 -16.7562 1083.7 86.2277C1106.82 151.69 1102.72 202.36 1079.81 240.336C1056.89 278.327 1015.08 303.719 962.573 318.477C857.545 347.996 709.967 334.896 586.214 295.325L586.206 295.322L586.198 295.32ZM392.888 289.343C332.547 308.402 268.049 326.342 183.753 302.525C141.577 290.609 122.478 272.25 113.629 250.135C109.213 239.102 107.362 227.165 106.438 214.694C105.906 207.512 105.679 200.116 105.449 192.606C105.281 187.106 105.111 181.545 104.817 175.964C103.425 149.498 99.2514 122.208 79.418 96.7347C59.5786 71.2533 24.0149 47.5207 -40.3108 28.3182C-104.805 9.06543 -145.353 -26.9287 -166.332 -70.1879C-187.306 -113.437 -188.694 -163.891 -174.98 -212.029C-147.56 -308.284 -59.7038 -395.455 53.0961 -397.44C109.347 -398.431 147.635 -402.788 176.945 -410.821C206.24 -418.849 226.585 -430.554 246.947 -446.273C257.781 -454.636 268.625 -464.143 280.826 -474.838C314.504 -504.362 358.515 -542.944 441.148 -591.534C553.867 -657.816 705.111 -644.898 816.354 -591.157C871.982 -564.283 917.66 -527.178 943.53 -484.598C969.412 -441.999 975.461 -393.922 951.806 -345.21C928.24 -296.68 916.487 -263.113 913.55 -235.886C910.617 -208.69 916.476 -187.787 928.231 -164.568C934.67 -151.849 942.885 -138.429 952.389 -122.905C977.597 -81.7259 1011.87 -25.7378 1046.11 71.2605C1067.92 133.034 1064.11 181.027 1042.37 217.077C1020.64 253.111 981.068 277.106 931.561 291.028C832.559 318.868 693.586 306.501 577.11 269.238C512.983 251.157 459.282 268.235 402.547 286.278C399.338 287.298 396.119 288.322 392.888 289.343ZM402.299 285.307C458.99 267.276 512.963 250.109 577.389 268.278L577.398 268.28L577.406 268.283C693.771 305.512 832.537 317.836 931.291 290.065C980.663 276.181 1019.97 252.295 1041.52 216.561C1063.06 180.841 1066.91 133.178 1045.17 71.5934C1010.97 -25.2949 976.791 -81.1207 951.588 -122.291L951.587 -122.293L951.585 -122.295C942.061 -137.853 933.818 -151.318 927.339 -164.116C915.523 -187.456 909.596 -208.555 912.556 -235.993C915.512 -263.399 927.329 -297.094 950.906 -345.646C974.394 -394.015 968.404 -441.731 942.676 -484.079C916.935 -526.445 871.433 -563.438 815.919 -590.256C704.881 -643.899 554.005 -656.737 441.654 -590.672C359.112 -542.135 315.212 -503.65 281.54 -474.132C269.318 -463.418 258.444 -453.885 247.559 -445.482C227.114 -429.699 206.653 -417.926 177.209 -409.857C147.781 -401.791 109.397 -397.431 53.1137 -396.441C-59.1561 -394.464 -146.692 -307.681 -174.019 -211.755C-187.679 -163.803 -186.279 -113.609 -165.432 -70.6243C-144.591 -27.6497 -104.287 8.17651 -40.0246 27.36C24.4058 46.5938 60.1902 70.4111 80.2071 96.1203C100.23 121.837 104.42 149.378 105.816 175.911C106.111 181.52 106.281 187.067 106.448 192.542L106.448 192.546L106.45 192.601L106.45 192.607L106.45 192.613L106.451 192.62C106.679 200.099 106.903 207.442 107.435 214.62C108.356 227.048 110.197 238.868 114.557 249.764C123.259 271.51 142.053 289.704 184.025 301.563C268.024 325.296 332.281 307.438 392.586 288.389C395.835 287.363 399.071 286.334 402.299 285.307ZM196.897 278.994C276.843 301.604 338.013 284.573 395.234 266.481C398.287 265.516 401.329 264.547 404.362 263.582L404.377 263.577L404.393 263.572C458.195 246.445 509.113 230.237 569.915 247.397C680.372 282.769 812.165 294.509 906.055 268.081C953.005 254.865 990.543 232.086 1011.15 197.874C1031.77 163.647 1035.38 118.083 1014.7 59.4419C982.228 -32.6331 949.724 -85.7819 925.82 -124.87C916.808 -139.605 909.019 -152.342 902.913 -164.413C891.768 -186.449 886.213 -206.286 888.994 -232.095C891.778 -257.935 902.922 -289.794 925.269 -335.858C947.706 -382.106 941.968 -427.75 917.421 -468.192C892.885 -508.614 849.564 -543.839 796.809 -569.349C691.312 -620.364 547.878 -632.627 440.977 -569.706C362.615 -523.582 320.877 -486.957 288.939 -458.932C277.37 -448.781 267.087 -439.758 256.815 -431.82C237.508 -416.901 218.218 -405.793 190.441 -398.173C162.65 -390.549 126.345 -386.413 73.0025 -385.473C-33.9792 -383.588 -117.301 -300.834 -143.306 -209.459C-156.312 -163.761 -154.996 -115.863 -135.103 -74.8038C-115.205 -33.7343 -76.7475 0.436129 -15.5819 18.713C45.4151 36.9394 79.1343 59.4646 97.9434 83.646C116.746 107.82 120.704 133.718 122.024 158.837C122.303 164.133 122.464 169.411 122.624 174.632L122.624 174.645L122.624 174.648C122.842 181.772 123.057 188.789 123.561 195.601C124.438 207.44 126.193 218.773 130.382 229.25C138.778 250.251 156.896 267.682 196.897 278.994ZM570.195 246.437C509.092 229.189 457.903 245.486 404.145 262.602C401.083 263.576 398.013 264.554 394.933 265.528C337.746 283.608 276.817 300.558 197.169 278.032C157.373 266.777 139.559 249.511 131.31 228.879C127.177 218.539 125.432 207.323 124.558 195.527C124.054 188.714 123.841 181.745 123.625 174.646L123.624 174.637L123.624 174.629L123.624 174.621L123.623 174.614L123.623 174.607L123.623 174.6L123.623 174.594L123.621 174.539L123.621 174.535C123.463 169.351 123.302 164.097 123.023 158.785C121.699 133.598 117.725 107.449 98.7327 83.032C79.7464 58.6227 45.8063 36.0126 -15.2956 17.7549C-76.2289 -0.452543 -114.443 -34.4549 -134.203 -75.2398C-153.968 -116.035 -155.297 -163.673 -142.344 -209.185C-116.433 -300.231 -33.4307 -382.597 73.0202 -384.473C126.394 -385.414 162.796 -389.552 190.706 -397.209C218.631 -404.869 238.037 -416.046 257.427 -431.029C267.751 -439.006 278.063 -448.056 289.654 -458.226L289.654 -458.226L289.654 -458.227C321.585 -486.245 363.213 -522.773 441.485 -568.844C548.017 -631.549 691.082 -619.364 796.374 -568.449C849.014 -542.994 892.16 -507.882 916.566 -467.673C940.96 -427.482 946.639 -382.198 924.37 -336.295C902.011 -290.208 890.803 -258.22 887.999 -232.202C885.192 -206.152 890.814 -186.119 902.021 -163.961C908.167 -151.811 915.985 -139.027 925.018 -124.256C948.919 -85.1771 981.324 -32.1906 1013.76 59.7745C1034.37 118.226 1030.72 163.461 1010.3 197.358C989.867 231.27 952.601 253.94 905.784 267.118C812.143 293.476 680.557 281.78 570.212 246.442L570.204 246.44L570.195 246.437ZM397.919 240.353C344.242 257.339 286.854 273.332 211.852 252.102C174.324 241.479 157.318 225.109 149.438 205.381C145.507 195.541 143.86 184.897 143.038 173.781C142.564 167.38 142.363 160.786 142.158 154.092C142.009 149.19 141.857 144.235 141.596 139.264C140.358 115.682 136.646 91.3757 119.014 68.6875C101.376 45.9917 69.7523 24.8466 12.5379 7.7356C-44.8453 -9.42587 -80.9278 -41.5122 -99.5971 -80.079C-118.261 -118.635 -119.495 -163.612 -107.294 -206.522C-82.8969 -292.32 -4.72785 -370.025 95.6423 -371.795C145.678 -372.678 179.731 -376.561 205.797 -383.718C231.848 -390.87 249.94 -401.297 268.048 -415.302C277.681 -422.753 287.326 -431.223 298.177 -440.753L298.179 -440.754C328.137 -467.065 367.293 -501.454 440.803 -544.759C541.092 -603.84 675.651 -592.323 774.618 -544.425C824.107 -520.473 864.75 -487.399 887.769 -449.441C910.8 -411.465 916.184 -368.601 895.133 -325.171C874.171 -281.924 863.719 -252.017 861.108 -227.762C858.5 -203.539 863.709 -184.921 874.162 -164.235C879.888 -152.905 887.194 -140.948 895.646 -127.115C918.07 -90.4173 948.563 -40.5135 979.026 45.9347C998.429 100.995 995.041 143.784 975.694 175.928C956.356 208.057 921.135 229.447 877.09 241.856C789.009 266.67 665.375 255.647 561.759 222.437C504.733 206.328 456.978 221.543 406.509 237.623C403.655 238.532 400.792 239.444 397.919 240.353ZM406.26 236.652C456.686 220.584 504.712 205.28 562.039 221.477L562.048 221.479L562.056 221.482C665.561 254.658 788.987 265.637 876.819 240.893C920.73 228.522 955.68 207.242 974.837 175.412C993.986 143.598 997.419 101.139 978.083 46.2671C947.659 -40.0712 917.264 -89.8129 894.845 -126.502C886.37 -140.371 879.036 -152.374 873.269 -163.784C862.755 -184.591 857.48 -203.405 860.113 -227.869C862.744 -252.302 873.26 -282.337 894.233 -325.607C915.118 -368.693 909.793 -411.198 886.914 -448.923C864.024 -486.667 823.557 -519.628 774.182 -543.525C675.42 -591.324 541.23 -602.761 441.31 -543.897C367.891 -500.645 328.846 -466.354 298.894 -440.048C288.02 -430.499 278.346 -422.002 268.66 -414.511C250.469 -400.443 232.262 -389.947 206.062 -382.754C179.877 -375.564 145.728 -371.679 95.66 -370.796C-4.1789 -369.035 -82.0286 -291.717 -106.332 -206.249C-118.48 -163.525 -117.234 -118.808 -98.6971 -80.5147C-80.1655 -42.2323 -44.3261 -10.3144 12.8245 6.77754C70.1439 23.9199 101.988 45.1501 119.803 68.0739C137.625 91.0054 141.353 115.563 142.595 139.212C142.859 144.237 143.01 149.204 143.16 154.105L143.16 154.118L143.16 154.121C143.363 160.779 143.562 167.315 144.035 173.707C144.855 184.78 146.491 195.307 150.367 205.01C158.1 224.369 174.801 240.575 212.125 251.14C286.829 272.285 343.975 256.375 397.617 239.4C400.507 238.485 403.388 237.568 406.26 236.652ZM226.209 226.331C296.465 246.239 350.222 231.242 400.496 215.316C403.186 214.464 405.865 213.609 408.536 212.757L408.537 212.757L408.538 212.756L408.539 212.756C455.81 197.68 500.528 183.417 553.928 198.517C650.978 229.656 766.779 239.992 849.283 216.725C890.54 205.089 923.536 185.031 941.653 154.898C959.779 124.75 962.951 84.6216 944.777 32.9917C916.244 -48.0642 887.681 -94.8584 866.679 -129.266C858.763 -142.235 851.922 -153.444 846.56 -164.064C836.772 -183.455 831.895 -200.905 834.337 -223.609C836.782 -246.344 846.569 -274.381 866.202 -314.928C885.923 -355.658 880.879 -395.857 859.303 -431.471C837.74 -467.066 799.669 -498.079 753.314 -520.538C660.615 -565.45 534.577 -576.25 440.635 -520.85C371.783 -480.246 335.107 -448.001 307.048 -423.332L307.047 -423.331C296.884 -414.397 287.852 -406.456 278.831 -399.471C261.873 -386.343 244.932 -376.568 220.538 -369.864C196.129 -363.155 164.238 -359.514 117.376 -358.687C23.3531 -357.027 -49.8695 -284.159 -72.722 -203.706C-84.1513 -163.469 -82.9964 -121.291 -65.5117 -85.1332C-48.0219 -48.9647 -14.2197 -18.8757 39.5325 -2.7831C93.1156 13.2589 122.727 33.0815 139.241 54.3536C155.749 75.6181 159.225 98.4 160.385 120.508C160.63 125.166 160.771 129.812 160.912 134.407C161.103 140.684 161.292 146.869 161.735 152.871C162.506 163.294 164.049 173.277 167.732 182.508C175.117 201.015 191.054 216.369 226.209 226.331ZM554.209 197.558C500.507 182.369 455.518 196.72 408.291 211.786C405.6 212.644 402.902 213.505 400.194 214.362C349.955 230.277 296.44 245.192 226.482 225.369C191.531 215.465 175.899 200.277 168.661 182.137C165.032 173.044 163.5 163.177 162.733 152.797C162.289 146.8 162.103 140.669 161.913 134.422L161.912 134.412L161.912 134.403L161.912 134.394L161.911 134.386L161.911 134.377L161.911 134.369L161.91 134.362L161.91 134.355L161.909 134.348L161.909 134.341L161.909 134.335L161.909 134.329C161.77 129.764 161.63 125.137 161.384 120.455C160.221 98.2804 156.728 75.2481 140.031 53.7403C123.34 32.2402 93.5077 12.3324 39.8194 -3.74111C-13.6999 -19.7639 -47.2591 -49.6844 -64.6114 -85.5686C-81.9688 -121.463 -83.1366 -163.381 -71.76 -203.433C-49.0008 -283.557 23.9028 -356.036 117.394 -357.687C164.288 -358.515 196.275 -362.158 220.803 -368.9C245.347 -375.645 262.403 -385.488 279.443 -398.681C288.516 -405.706 297.579 -413.673 307.763 -422.627C335.816 -447.29 372.382 -479.438 441.143 -519.989C534.715 -575.171 660.385 -564.451 752.878 -519.638C799.118 -497.235 837.013 -466.335 858.448 -430.953C879.871 -395.59 884.857 -355.75 865.302 -315.363C845.658 -274.794 835.807 -246.629 833.343 -223.716C830.875 -200.771 835.818 -183.126 845.668 -163.614C851.069 -152.913 857.94 -141.657 865.878 -128.653L865.878 -128.653C886.875 -94.2539 915.34 -47.6218 943.834 33.3238C961.942 84.7652 958.724 124.563 940.796 154.382C922.859 184.216 890.134 204.164 849.011 215.762C766.758 238.959 651.164 228.667 554.226 197.563L554.217 197.56L554.209 197.558ZM403.074 190.276C356.201 205.143 306.076 219.144 240.566 200.559C207.784 191.258 192.916 176.921 186.026 159.633C182.59 151.013 181.151 141.69 180.433 131.959C180.022 126.391 179.847 120.653 179.67 114.83L179.67 114.822L179.67 114.814L179.669 114.806L179.669 114.799L179.668 114.791L179.668 114.784L179.668 114.777L179.667 114.769L179.667 114.762L179.667 114.755L179.666 114.748L179.666 114.742L179.666 114.735L179.665 114.728L179.665 114.722L179.664 114.699L179.664 114.693L179.662 114.638L179.662 114.634L179.662 114.631L179.662 114.628L179.662 114.625L179.662 114.622L179.662 114.62L179.662 114.617L179.662 114.614L179.662 114.612L179.662 114.609L179.662 114.606L179.662 114.604L179.662 114.602L179.662 114.599L179.662 114.597L179.662 114.595L179.662 114.593C179.532 110.345 179.4 106.053 179.174 101.75C178.093 81.116 174.853 59.859 159.468 40.0181C144.078 20.1698 116.479 1.66966 66.5273 -13.3033C16.406 -28.327 -15.1158 -56.4187 -31.426 -90.1889C-47.7312 -123.949 -48.8076 -163.327 -38.1502 -200.892C-16.8417 -275.999 51.434 -344.03 139.11 -345.579C182.799 -346.352 212.527 -349.75 235.279 -356.011C258.017 -362.268 273.807 -371.389 289.614 -383.642C298.022 -390.16 306.442 -397.571 315.916 -405.911L315.917 -405.911C342.077 -428.938 376.274 -459.04 440.467 -496.943C528.061 -548.663 645.58 -538.579 732.009 -496.653C775.23 -475.687 810.73 -446.735 830.838 -413.502C850.957 -380.251 855.662 -342.716 837.271 -304.686C818.967 -266.839 809.845 -240.673 807.566 -219.457C805.29 -198.272 809.835 -181.99 818.959 -163.894C823.956 -153.984 830.333 -143.522 837.712 -131.418C857.293 -99.3008 883.925 -55.6164 910.527 20.0473C927.474 68.2463 924.518 105.714 907.612 133.866C890.715 162.003 859.944 180.73 821.476 191.592C744.549 213.313 636.581 203.663 546.098 174.597C496.323 160.505 454.643 173.815 410.57 187.888L410.563 187.89C408.075 188.685 405.579 189.482 403.074 190.276ZM410.322 186.917C454.35 172.856 496.303 159.457 546.379 173.637L546.387 173.639L546.396 173.642C636.767 202.674 744.528 212.28 821.204 190.629C859.538 179.805 890.038 161.188 906.755 133.351C923.463 105.528 926.464 68.3898 909.584 20.379C883.02 -55.1749 856.486 -98.6973 836.91 -130.806C829.509 -142.946 823.103 -153.454 818.066 -163.444C808.881 -181.661 804.27 -198.138 806.572 -219.564C808.87 -240.957 818.056 -267.251 836.37 -305.121C854.596 -342.808 849.95 -379.984 829.982 -412.985C810.003 -446.004 774.679 -474.843 731.573 -495.753C645.349 -537.579 528.2 -547.583 440.975 -496.082C376.872 -458.232 342.786 -428.228 316.633 -405.207C307.137 -396.848 298.687 -389.41 290.226 -382.852C274.337 -370.535 258.432 -361.345 235.545 -355.047C212.673 -348.753 182.849 -345.353 139.128 -344.58C51.9844 -343.039 -15.9729 -275.398 -37.1882 -200.619C-47.7928 -163.24 -46.7037 -124.12 -30.5256 -90.6238C-14.3526 -57.1378 16.9264 -29.215 66.8145 -14.2612C116.872 0.743332 144.691 19.3288 160.259 39.4054C175.832 59.4894 179.088 80.9967 180.173 101.698C180.403 106.099 180.536 110.447 180.666 114.737C180.843 120.566 181.017 126.288 181.43 131.885C182.145 141.573 183.574 150.779 186.955 159.263C193.698 176.183 208.262 190.355 240.839 199.597C306.05 218.097 355.934 204.178 402.771 189.323C405.296 188.522 407.812 187.719 410.322 186.917ZM405.38 165.237C361.886 179.044 315.366 192.049 254.57 174.787C224.143 166.147 210.337 152.826 203.938 136.758C200.749 128.747 199.413 120.086 198.747 111.047C198.363 105.844 198.199 100.479 198.034 95.0364C197.912 91.0521 197.79 87.026 197.579 82.991C196.575 63.8307 193.569 44.0983 179.301 25.6808C165.027 7.25594 139.426 -9.92192 93.08 -23.826C46.5645 -37.781 17.3069 -63.8758 2.16801 -95.248C-12.9659 -126.61 -13.9642 -163.189 -4.07344 -198.082C15.7016 -267.845 79.0655 -331.039 160.439 -332.479C200.976 -333.196 228.557 -336.352 249.664 -342.165C270.757 -347.975 285.404 -356.443 300.068 -367.819C307.869 -373.871 315.68 -380.754 324.471 -388.498L324.471 -388.498C348.745 -409.883 380.48 -437.842 440.047 -473.044C521.339 -521.084 630.396 -511.716 710.601 -472.776C750.709 -453.303 783.655 -426.411 802.318 -395.541C820.992 -364.652 825.36 -329.78 808.289 -294.45C791.306 -259.303 782.843 -235.007 780.729 -215.31C778.619 -195.645 782.833 -180.53 791.297 -163.729C795.932 -154.528 801.848 -144.815 808.694 -133.577L808.695 -133.574C826.864 -103.747 851.579 -63.1716 876.264 7.10062C891.991 51.8694 889.25 86.6767 873.556 112.833C857.871 138.975 829.31 156.37 793.61 166.459C722.222 186.634 622.032 177.67 538.069 150.675C491.895 137.592 453.23 149.949 412.334 163.019C410.024 163.758 407.706 164.498 405.38 165.237ZM412.085 162.049C452.937 148.99 491.874 136.544 538.35 149.716L538.359 149.718L538.367 149.721C622.218 176.681 722.2 185.601 793.338 165.497C828.903 155.446 857.194 138.16 872.699 112.318C888.195 86.4911 890.981 52.0127 875.321 7.43208C850.674 -62.7304 826.057 -103.144 807.893 -132.963C801.025 -144.238 795.079 -153.998 790.404 -163.279C781.879 -180.202 777.599 -195.51 779.735 -215.417C781.868 -235.291 790.394 -259.715 807.388 -294.885C824.294 -329.872 819.985 -364.385 801.462 -395.023C782.928 -425.681 750.158 -452.46 710.164 -471.876C630.165 -510.716 521.478 -520.004 440.556 -472.183C381.079 -437.035 349.455 -409.173 325.188 -387.794L325.187 -387.793C316.375 -380.03 308.534 -373.122 300.681 -367.029C285.935 -355.589 271.172 -347.052 249.93 -341.201C228.703 -335.355 201.026 -332.197 160.456 -331.479C79.6165 -330.048 16.5708 -267.245 -3.11141 -197.809C-12.9494 -163.102 -11.9384 -126.781 3.06864 -95.6826C18.0705 -64.5945 47.0854 -38.6688 93.3673 -24.7839C139.819 -10.8481 165.64 6.41521 180.092 25.0683C194.548 43.7289 197.571 63.7114 198.577 82.9387C198.791 87.0278 198.914 91.0663 199.035 95.0498L199.035 95.0557L199.035 95.0573C199.199 100.468 199.361 105.777 199.744 110.973C200.407 119.969 201.732 128.514 204.867 136.388C211.119 152.088 224.622 165.243 254.843 173.825C315.341 191.003 361.619 178.079 405.077 164.284C407.364 163.558 409.644 162.829 411.918 162.102L412.027 162.068L412.085 162.049ZM408.189 141.547C367.597 154.086 324.336 165.968 268.29 150.054C239.619 141.912 226.394 129.546 220.113 114.687C216.981 107.279 215.59 99.283 214.842 90.9471C214.392 85.9354 214.174 80.7683 213.952 75.5269L213.951 75.5048C213.805 72.0582 213.658 68.5795 213.442 65.0917C212.352 47.442 209.511 29.2742 196.37 12.2747C183.224 -4.73152 159.715 -20.6364 117.137 -33.6147L117.274 -34.0637L117.137 -33.6148C74.2924 -46.7187 47.2099 -71.0302 33.1148 -100.2C19.0247 -129.36 17.9383 -163.322 26.979 -195.697C45.0552 -260.426 103.672 -318.975 180.185 -320.284C218.069 -320.936 243.836 -323.903 263.534 -329.346C283.216 -334.784 296.857 -342.698 310.481 -353.279C317.629 -358.829 324.778 -365.12 332.794 -372.174C355.354 -392.027 384.779 -417.919 440.351 -450.343C515.817 -494.373 616.628 -485.731 690.817 -449.725C727.917 -431.719 758.411 -406.846 775.761 -378.231C793.122 -349.598 797.315 -317.22 781.791 -284.303L781.789 -284.301C766.351 -252.057 758.651 -229.643 756.734 -211.372C754.819 -193.132 758.665 -178.986 766.408 -163.261C770.749 -154.444 776.324 -145.123 782.791 -134.309C799.403 -106.533 821.906 -68.9058 844.538 -4.67275C859.003 36.4229 856.443 68.5265 841.933 92.7537C827.431 116.966 801.054 133.209 768.095 142.725C702.186 161.755 609.702 153.962 532.126 128.886C488.887 116.478 452.528 127.774 414.149 139.698C412.168 140.314 410.182 140.931 408.189 141.547ZM413.911 138.725C452.245 126.813 488.873 115.43 532.409 127.928L532.417 127.93L532.425 127.932C609.886 152.972 702.159 160.722 767.817 141.765C800.642 132.288 826.752 116.155 841.075 92.2399C855.39 68.3397 857.993 36.5641 843.595 -4.34054C820.999 -68.4705 798.593 -105.932 781.988 -133.697C775.498 -144.548 769.894 -153.918 765.511 -162.819C757.709 -178.664 753.8 -193 755.739 -211.477C757.675 -229.923 765.437 -252.463 780.886 -284.731C796.25 -317.306 792.116 -349.329 774.906 -377.713C757.685 -406.115 727.365 -430.875 690.38 -448.825C616.398 -484.731 515.954 -493.295 440.855 -449.479C385.376 -417.11 356.061 -391.314 333.507 -371.467L333.503 -371.464L333.5 -371.461L333.499 -371.46C325.466 -364.391 318.29 -358.077 311.095 -352.489C297.388 -341.845 283.632 -333.861 263.8 -328.382C243.984 -322.906 218.12 -319.936 180.202 -319.284C104.219 -317.984 45.925 -259.823 27.9422 -195.428C18.9537 -163.24 20.0507 -129.535 34.0152 -100.635C47.9749 -71.7454 74.8183 -47.6035 117.429 -34.5711C160.112 -21.5605 183.84 -5.56968 197.161 11.6631C210.488 28.9029 213.346 47.3175 214.44 65.0301C214.659 68.5704 214.807 72.0713 214.953 75.5283L214.953 75.5302C215.173 80.7451 215.39 85.8598 215.838 90.8577C216.582 99.1473 217.96 107.026 221.034 114.298C227.163 128.797 240.088 141.006 268.563 149.092C324.312 164.922 367.332 153.121 407.894 140.591C409.892 139.974 411.885 139.354 413.874 138.737L413.911 138.725ZM282.001 125.319C333.297 139.886 373.299 129.127 410.989 117.855C412.645 117.36 414.296 116.864 415.943 116.369C451.807 105.593 485.867 95.3589 526.174 107.096C597.365 130.253 682.142 136.874 742.571 118.99C772.791 110.047 796.984 94.9562 810.302 72.6731C823.629 50.3749 826.008 20.975 812.804 -16.4477L812.804 -16.4481C792.233 -74.62 771.944 -109.278 756.892 -134.99L756.891 -134.992L756.889 -134.996C750.795 -145.406 745.559 -154.35 741.511 -162.794C734.489 -177.443 731.011 -190.62 732.73 -207.437C734.451 -224.282 741.389 -244.813 755.282 -274.154L755.285 -274.16C769.262 -304.663 765.243 -334.547 749.196 -360.923C733.16 -387.282 705.117 -410.136 671.025 -426.676C602.852 -459.749 510.287 -467.664 440.648 -427.644C389.077 -398.008 361.966 -374.183 341.119 -355.862L341.119 -355.861C333.873 -349.493 327.383 -343.79 320.887 -338.74C308.301 -328.955 295.668 -321.594 277.396 -316.527C259.108 -311.456 235.155 -308.677 199.924 -308.09C128.27 -306.912 74.4008 -253.01 58.0236 -193.313C49.8327 -163.456 51.0075 -132.112 64.0537 -105.154C77.1048 -78.1864 102.012 -55.6582 141.185 -43.4053L141.186 -43.405C179.995 -31.3526 201.412 -16.7208 213.431 -1.13294C225.445 14.4487 228.12 31.0524 229.298 47.1919C229.514 50.1501 229.68 53.1003 229.844 56.0268C230.127 61.0635 230.406 66.0302 230.93 70.8474C231.759 78.4807 233.207 85.8111 236.28 92.6163C242.444 106.265 255.087 117.676 282.001 125.319ZM526.461 106.138C485.86 94.3129 451.536 104.628 415.718 115.392C414.05 115.893 412.378 116.396 410.703 116.897C373.039 128.161 333.276 138.84 282.275 124.357C255.546 116.767 243.198 105.505 237.192 92.2047C234.18 85.5356 232.748 78.3227 231.924 70.7393C231.403 65.9442 231.127 61.0298 230.845 56.0164L230.845 56.0132L230.844 56.0008L230.844 55.9993C230.68 53.0717 230.514 50.1103 230.295 47.1191C229.114 30.9215 226.42 14.0751 214.223 -1.74354C202.031 -17.556 180.397 -32.2745 141.483 -44.36C102.543 -56.5399 77.8714 -78.8979 64.9539 -105.59C52.0317 -132.291 50.8488 -163.38 58.988 -193.048C75.2712 -252.402 128.814 -305.921 199.94 -307.091C235.205 -307.678 259.256 -310.46 277.663 -315.564C296.085 -320.672 308.834 -328.102 321.501 -337.95C328.044 -343.037 334.56 -348.764 341.825 -355.148L341.826 -355.149L341.829 -355.151C362.67 -373.467 389.672 -397.197 441.146 -426.777C510.422 -466.588 602.623 -458.748 670.588 -425.776C704.565 -409.293 732.434 -386.551 748.342 -360.403C764.238 -334.274 768.197 -304.742 754.377 -274.58C740.472 -245.213 733.474 -224.557 731.735 -207.539C729.993 -190.492 733.53 -177.128 740.609 -162.361C744.702 -153.824 749.969 -144.827 756.088 -134.377C771.132 -108.681 791.324 -74.1925 811.861 -16.115C824.997 21.1136 822.576 50.1866 809.443 72.16C796.301 94.1485 772.373 109.128 742.288 118.032C682.11 135.841 597.545 129.261 526.476 106.143L526.468 106.14L526.461 106.138ZM413.781 94.1626C378.993 104.167 342.249 113.802 295.705 100.584C270.547 93.4389 258.488 82.9838 252.441 70.5465C247.423 60.2259 246.578 48.5762 245.705 36.5317L245.704 36.5234C245.53 34.1262 245.355 31.7135 245.146 29.2925C243.881 14.6626 241.371 -0.377081 230.484 -14.5413C219.593 -28.7109 200.266 -42.0697 165.226 -53.1961L165.225 -53.1966C129.723 -64.5987 106.991 -85.3436 94.9845 -110.108C82.9822 -134.864 81.7188 -163.59 89.0599 -190.929C103.738 -245.594 152.861 -294.85 219.654 -295.898C252.232 -296.419 274.372 -299.01 291.249 -303.71C308.111 -308.406 319.737 -315.212 331.284 -324.201C337.132 -328.754 342.965 -333.872 349.447 -339.56C368.581 -356.351 393.375 -378.108 440.937 -404.946C504.75 -440.956 589.067 -433.767 651.224 -403.627C682.309 -388.554 707.9 -367.719 722.623 -343.616C737.357 -319.496 741.201 -292.106 728.772 -264.017L728.767 -264.008C716.419 -237.57 710.243 -218.921 708.718 -203.502C707.195 -188.109 710.304 -175.9 716.607 -162.326C720.381 -154.196 725.284 -145.61 731.018 -135.566C734.889 -128.787 739.138 -121.343 743.676 -112.929C754.918 -92.0791 767.875 -65.3564 781.062 -28.224L781.062 -28.2234C793.005 5.52673 790.806 32.2228 778.662 52.5917C766.528 72.9451 744.521 86.884 717.041 95.2545C662.091 111.993 585.021 106.543 520.214 85.3046C482.834 74.2359 451.065 83.4042 417.712 93.0294C416.405 93.4068 415.094 93.7849 413.781 94.1626ZM417.502 92.0492C450.807 82.436 482.836 73.1913 520.504 84.3478L520.511 84.3499L520.518 84.3521C585.196 105.55 662.051 110.959 716.75 94.2979C744.095 85.9684 765.843 72.1419 777.803 52.0796C789.755 32.0327 791.992 5.66232 780.12 -27.8898C766.952 -64.966 754.018 -91.6417 742.795 -112.454C738.29 -120.809 734.052 -128.233 730.183 -135.011L730.183 -135.012L730.18 -135.016L730.179 -135.017L730.178 -135.019C724.425 -145.098 719.487 -153.748 715.7 -161.905C709.344 -175.594 706.178 -187.984 707.723 -203.601C709.265 -219.191 715.499 -237.962 727.859 -264.427C740.137 -292.178 736.354 -319.22 721.77 -343.095C707.174 -366.988 681.756 -387.711 650.788 -402.727C588.84 -432.766 504.881 -439.882 441.428 -404.076C393.967 -377.294 369.282 -355.633 350.153 -338.847C343.652 -333.142 337.792 -328 331.898 -323.412C320.271 -314.36 308.529 -307.484 291.517 -302.747C274.521 -298.013 252.283 -295.42 219.669 -294.898C153.399 -293.858 104.609 -244.981 90.0256 -190.67C82.7358 -163.521 84.0042 -135.048 95.8843 -110.545C107.76 -86.0504 130.261 -65.4762 165.53 -54.149C200.676 -42.9887 220.215 -29.5424 231.277 -15.1507C242.343 -0.753638 244.873 14.5243 246.142 29.2064C246.355 31.6641 246.532 34.1021 246.708 36.5151C247.584 48.5579 248.414 59.9778 253.34 70.1093C259.224 82.2107 270.995 92.5266 295.978 99.6225C342.231 112.758 378.737 103.2 413.505 93.2015C414.788 92.8326 416.068 92.463 417.347 92.0939L417.502 92.0492ZM309.424 75.8461C351.217 87.7152 384.702 79.2043 416.587 70.4673C417.552 70.203 418.514 69.9386 419.476 69.6746C450.32 61.2037 479.809 53.1047 514.269 63.5099C572.692 82.83 642.057 87.1079 691.527 71.515C716.266 63.7171 736.088 50.9302 747.039 32.5069C757.998 14.0676 760.017 -9.9245 749.336 -40.0025L749.335 -40.0033C737.418 -73.3822 725.811 -97.5826 715.78 -116.578C711.993 -123.749 708.438 -130.167 705.178 -136.052L705.175 -136.056L705.174 -136.058L705.173 -136.061C700.788 -143.976 696.937 -150.928 693.775 -157.452L684.696 -199.289C684.704 -199.383 684.713 -199.477 684.722 -199.571C686.051 -213.565 691.464 -230.331 702.268 -253.866L702.271 -253.873L702.274 -253.879C713.155 -279.554 709.486 -304.449 696.065 -326.312C682.655 -348.159 659.516 -366.975 631.44 -380.582C575.298 -407.789 499.228 -414.25 441.242 -382.252C397.699 -358.224 375.227 -338.539 357.806 -323.277C352.08 -318.261 346.9 -313.723 341.697 -309.666C331.189 -301.473 320.569 -295.22 305.118 -290.896C289.651 -286.567 269.325 -284.165 239.4 -283.708C177.468 -282.791 133.091 -238.181 120.112 -188.548C113.621 -163.726 114.973 -137.619 125.931 -115.066C136.893 -92.5047 157.448 -73.543 189.279 -62.9916L189.281 -62.9909C220.552 -52.7905 237.788 -40.7049 247.552 -27.9532C257.313 -15.2059 259.657 -1.72962 261.009 11.3914C261.205 13.2899 261.38 15.183 261.554 17.0665C262.579 28.1625 263.572 38.9232 268.618 48.4756C274.548 59.7 286.024 69.1988 309.424 75.8461ZM704.332 -135.515C700.716 -142.043 697.453 -147.933 694.64 -153.466L715.099 -59.1923C705.348 -85.3688 695.997 -105.021 687.869 -120.82C684.846 -126.696 681.997 -132.03 679.361 -136.965L679.361 -136.966C674.297 -146.447 670.021 -154.453 666.814 -161.988C661.952 -173.41 659.578 -183.685 660.71 -196.234C661.82 -208.547 666.307 -223.083 675.195 -243.068L684.028 -202.363C685.778 -215.971 691.218 -232.191 701.356 -254.276C712.093 -279.616 708.484 -304.169 695.213 -325.789C681.931 -347.428 658.963 -366.132 631.003 -379.682C575.073 -406.787 499.356 -413.179 441.725 -381.377C398.288 -357.407 375.925 -337.817 358.508 -322.56C352.764 -317.528 347.558 -312.968 342.312 -308.877C331.724 -300.622 320.989 -294.299 305.387 -289.933C289.801 -285.57 269.376 -283.165 239.415 -282.709C178 -281.799 133.963 -237.563 121.079 -188.295C114.638 -163.666 115.992 -137.809 126.83 -115.503C137.664 -93.2061 157.995 -74.416 189.591 -63.9415C220.97 -53.7061 238.414 -41.532 248.346 -28.5611C258.281 -15.586 260.647 -1.87702 262.004 11.2888C262.202 13.2099 262.379 15.1173 262.554 17.0082L262.554 17.0087C263.582 28.1139 264.558 38.6476 269.503 48.0085C275.263 58.9128 286.46 68.2831 309.697 74.8842C351.203 86.6717 384.451 78.2362 416.323 69.5028L417.377 69.2139L418.588 68.8813L419.09 68.7434L419.253 68.6989L419.268 68.6946L419.283 68.6904C450.078 60.2316 479.821 52.0618 514.564 62.5545L514.576 62.5582C572.863 81.8344 642.008 86.0748 691.226 70.5613C715.831 62.8057 735.399 50.1325 746.179 31.9959C756.949 13.8752 759.003 -9.79263 748.393 -39.6679C736.495 -72.9931 724.909 -97.1493 714.896 -116.111C711.139 -123.225 707.598 -129.618 704.343 -135.495L704.335 -135.509L704.334 -135.511L704.332 -135.514L704.332 -135.515ZM674.839 -244.706L675.195 -243.068C675.379 -243.482 675.565 -243.899 675.753 -244.318L675.757 -244.327L675.761 -244.336C685.093 -267.596 681.598 -289.995 669.491 -309.602C657.394 -329.192 636.707 -345.99 611.639 -358.129C561.513 -382.403 493.691 -388.138 441.532 -360.152C402.02 -338.951 381.876 -321.339 366.168 -307.604C361.189 -303.251 356.656 -299.288 352.093 -295.723C342.625 -288.326 333.012 -282.628 318.971 -278.675C304.915 -274.717 286.402 -272.503 259.13 -272.112C202.06 -271.326 162.428 -231.363 151.147 -186.76C145.506 -164.455 146.948 -140.966 156.861 -120.617C166.779 -100.259 185.157 -83.081 213.316 -73.3801L213.319 -73.3791C240.821 -64.1049 255.967 -53.2925 264.604 -41.9584C273.239 -30.6274 275.418 -18.7139 276.857 -7.10093C277.029 -5.71988 277.189 -4.34186 277.35 -2.96891C278.532 7.16967 279.683 17.033 284.782 25.8141C290.594 35.8236 301.485 44.3658 323.127 50.5146C360.168 61.0351 390.395 53.6484 419.376 46.179C419.95 46.0313 420.522 45.8835 421.095 45.7358L421.194 45.7101C449.533 38.3981 476.758 31.3737 508.307 41.1218C560.348 58.5241 622.007 61.6299 665.998 47.1819C687.997 39.9564 705.633 28.3216 715.399 11.8287C725.175 -4.68051 727.013 -25.9684 717.593 -52.3749L717.593 -52.376C716.759 -54.6963 715.927 -56.9679 715.099 -59.1923L716.651 -52.0389C706.023 -81.6136 695.783 -103.251 686.98 -120.363C683.979 -126.196 681.14 -131.511 678.508 -136.439L678.508 -136.44C673.428 -145.951 669.118 -154.022 665.894 -161.596C660.985 -173.128 658.564 -183.57 659.714 -196.323C660.861 -209.055 665.565 -224.057 674.837 -244.718L674.833 -244.709L674.839 -244.706ZM674.839 -244.706L675.297 -244.523L674.841 -244.727L674.837 -244.718L674.839 -244.706ZM213.642 -74.3256C241.25 -65.0153 256.599 -54.1136 265.399 -42.5645C274.203 -31.0119 276.406 -18.8726 277.85 -7.22397C277.936 -6.53077 278.019 -5.8396 278.101 -5.15064C278.181 -4.4751 278.26 -3.8017 278.338 -3.13053L278.344 -3.08164L278.344 -3.07843C279.533 7.08252 280.66 16.7235 285.647 25.3119C291.285 35.0211 301.907 43.4463 323.4 49.5527C360.159 59.9928 390.15 52.6787 419.127 45.2106L420.133 44.9512L421.022 44.7217C449.311 37.4218 476.783 30.3329 508.608 40.1681L508.619 40.1716C560.512 57.5257 621.947 60.5971 665.686 46.2318C687.551 39.0504 704.939 27.5305 714.538 11.3192C724.128 -4.87567 725.997 -25.8412 716.651 -52.0389L689.4 -53.2463C693.165 -35.9717 690.766 -21.4353 683.766 -9.5575C675.185 5.00408 659.736 15.4871 640.477 22.1402C601.967 35.4438 548.012 33.5108 502.353 18.0257C473.701 8.92549 448.72 14.8678 422.88 21.0145L422.171 21.1831C396.094 27.3848 369.126 33.6468 336.838 24.4753C316.954 18.825 306.65 11.2401 300.956 2.44781C295.771 -5.55817 294.452 -14.5132 293.102 -23.6841L293.005 -24.3428L292.934 -24.8226C292.861 -25.314 292.788 -25.8058 292.713 -26.2982C291.185 -36.4046 289.173 -46.756 281.663 -56.6718C277.659 -61.9591 272.078 -67.1389 264.144 -72.088L213.642 -74.3256ZM213.642 -74.3256L213.639 -74.3266L213.479 -73.8529L213.642 -74.3256ZM266.143 -71.9994C273.395 -67.278 278.625 -62.3389 282.46 -57.2755C290.131 -47.1465 292.171 -36.5776 293.702 -26.4476C293.831 -25.5929 293.957 -24.7417 294.082 -23.8945L294.088 -23.8557C295.446 -14.6487 296.735 -5.90967 301.795 1.9042C307.311 10.4209 317.361 17.9013 337.111 23.5133C369.123 32.6063 395.857 26.4132 421.939 20.2103L422.733 20.0215C448.521 13.8868 473.741 7.8874 502.66 17.0741L502.669 17.0772C548.168 32.5087 601.892 34.4116 640.151 21.1951C659.277 14.588 674.486 4.22146 682.905 -10.0652C689.79 -21.7489 692.167 -36.1098 688.366 -53.2921L658.566 -54.6125C658.46 -45.7751 656.182 -37.8962 652.133 -30.9831C644.738 -18.3538 631.477 -9.02259 614.958 -2.94139C581.928 9.21825 535.677 8.459 496.396 -5.10976C470.792 -13.5205 448.151 -8.78915 424.962 -3.85149L424.518 -3.75701C401.488 1.14744 377.907 6.16922 350.547 -1.60318C332.423 -6.75458 322.709 -13.3817 317.134 -20.9536C311.813 -28.1801 310.312 -36.2114 308.781 -44.4021C308.711 -44.7778 308.64 -45.1538 308.57 -45.5301C307.01 -53.8298 305.237 -62.3049 299.378 -70.5269L266.143 -71.9994ZM323.286 -69.4676L300.637 -70.4711C306.28 -62.2537 308.031 -53.8125 309.553 -45.7148C309.62 -45.3581 309.686 -45.0022 309.753 -44.647C311.294 -36.4079 312.757 -28.5842 317.939 -21.5465C323.334 -14.2193 332.814 -7.68295 350.821 -2.56512C377.941 5.13925 401.312 0.162328 424.38 -4.74999L424.754 -4.82955C447.924 -9.76327 470.818 -14.5656 496.712 -6.05864L496.719 -6.0562C535.821 7.4518 581.834 8.18743 614.613 -3.87983C630.999 -9.91227 644.03 -19.1253 651.27 -31.4884C655.227 -38.2447 657.467 -45.9641 657.567 -54.6567L622.434 -56.2134C621.857 -54.9327 621.214 -53.6835 620.507 -52.4661C614.298 -41.7705 603.227 -33.5912 589.449 -28.0816C561.9 -17.065 523.35 -16.6485 490.445 -28.3027C468.147 -35.9409 448.04 -32.6127 427.756 -28.9427C427.195 -28.8411 426.633 -28.7393 426.072 -28.6375C406.358 -25.0623 386.413 -21.4452 364.263 -27.7386C347.899 -32.3909 338.777 -38.0597 333.324 -44.4072C327.871 -50.754 326.138 -57.7249 324.435 -64.8121L324.353 -65.1539C324.008 -66.5874 323.663 -68.0261 323.286 -69.4676ZM324.332 -69.4212C324.677 -68.0839 324.997 -66.7549 325.313 -65.4373L325.407 -65.0458C327.113 -57.947 328.805 -51.2013 334.082 -45.0589C339.359 -38.9174 348.272 -33.3244 364.537 -28.7006C386.459 -22.4715 406.201 -26.051 425.956 -29.6329L426.826 -29.7905L427.578 -29.9267C447.855 -33.5953 468.2 -36.9806 490.772 -29.2479L490.777 -29.2462C523.479 -17.6632 561.777 -18.093 589.078 -29.0101C602.725 -34.4675 613.581 -42.5272 619.642 -52.9682C620.265 -54.0401 620.837 -55.1378 621.357 -56.2611L573.358 -58.3878C570.446 -56.5077 567.287 -54.811 563.928 -53.3079C541.861 -43.4332 511.01 -41.8371 484.475 -51.5795C465.481 -58.4458 447.906 -56.5193 430.527 -54.1168C429.509 -53.9761 428.492 -53.8337 427.475 -53.6913L427.473 -53.6911L427.471 -53.6908C411.152 -51.4068 394.926 -49.1358 377.962 -53.9573C363.359 -58.1102 354.833 -62.8198 349.506 -67.9387C349.373 -68.0667 349.242 -68.1949 349.112 -68.3233L324.332 -69.4212ZM563.52 -54.2207C566.377 -55.4992 569.081 -56.9166 571.604 -58.4655L350.627 -68.2562C355.82 -63.4473 364.106 -58.9372 378.235 -54.9192C394.989 -50.1574 411.018 -52.3994 427.377 -54.6876C428.38 -54.8279 429.384 -54.9683 430.39 -55.1074C447.774 -57.5106 465.57 -59.4776 484.816 -52.5195L484.818 -52.5187C511.114 -42.8635 541.696 -44.4548 563.52 -54.2207Z"
      fill="url(#paint0_linear_9559_71509)"
    />
  </g>
  <defs>
    <linearGradient
      id="paint0_linear_9559_71509"
      x1="253.495"
      y1="-110.504"
      x2="253.491"
      y2="68.9961"
      gradientUnits="userSpaceOnUse"
    >
      <stop stop-color="#6CF9D8" />
      <stop offset="1" stop-color="#4C4751" stop-opacity="0" />
    </linearGradient>
    <clipPath id="clip0_9559_71509">
      <rect width="551" height="102" fill="white" />
    </clipPath>
  </defs>
</svg>
