<svg viewBox="0 0 552 102" fill="none" xmlns="http://www.w3.org/2000/svg">
  <g clip-path="url(#clip0_7675_27099)">
    <path
      fill-rule="evenodd"
      clip-rule="evenodd"
      d="M495.944 432.026C421.144 455.602 341.213 477.784 236.745 448.332C184.484 433.599 160.843 410.908 149.89 383.596C144.422 369.964 142.129 355.212 140.983 339.79C140.323 330.908 140.043 321.766 139.758 312.481L139.758 312.478L139.758 312.476L139.758 312.474L139.758 312.472L139.758 312.469L139.758 312.468L139.758 312.466L139.758 312.464L139.758 312.462L139.758 312.46L139.758 312.459L139.758 312.457L139.758 312.456C139.55 305.659 139.339 298.786 138.974 291.883C137.248 259.138 132.072 225.35 107.462 193.81C82.8451 162.263 38.7298 132.895 -41.0287 109.138C-120.955 85.3308 -171.194 40.8262 -197.186 -12.6519C-223.173 -66.1197 -224.895 -128.501 -207.9 -188.026C-173.918 -307.056 -65.0388 -414.838 74.7371 -417.294C144.477 -418.519 191.954 -423.91 228.305 -433.85C264.64 -443.786 289.876 -458.273 315.13 -477.725C328.566 -488.075 342.014 -499.838 357.142 -513.071C398.893 -549.591 453.441 -597.305 555.871 -657.405C695.566 -739.37 883.022 -723.4 1020.91 -656.933C1089.86 -623.697 1146.46 -577.811 1178.52 -525.165C1210.59 -472.5 1218.08 -413.072 1188.77 -352.854C1159.56 -292.821 1144.98 -251.282 1141.34 -217.581C1137.7 -183.912 1144.97 -158.032 1159.55 -129.295C1167.54 -113.553 1177.72 -96.9477 1189.51 -77.7402L1189.51 -77.7393C1220.76 -26.8018 1263.24 42.4364 1305.68 162.41C1332.71 238.802 1327.98 298.131 1301.06 342.686C1274.14 387.225 1225.11 416.894 1163.75 434.11C1041.05 468.54 868.783 453.247 724.399 407.156C644.864 384.778 578.256 405.915 507.926 428.233C503.945 429.496 499.952 430.763 495.944 432.026ZM507.679 427.262C577.965 404.956 644.843 383.731 724.678 406.196L724.686 406.198L724.695 406.201C868.968 452.258 1041.02 467.507 1163.48 433.147C1224.71 415.968 1273.47 386.408 1300.2 342.168C1326.93 297.944 1331.7 238.946 1304.74 162.744C1262.33 42.8801 1219.95 -26.1957 1188.71 -77.1245C1176.9 -96.3678 1166.68 -113.02 1158.66 -128.843C1144.01 -157.701 1136.68 -183.777 1140.34 -217.689C1144 -251.569 1158.65 -293.235 1187.87 -353.292C1217.01 -413.164 1209.58 -472.232 1177.67 -524.645C1145.74 -577.078 1089.31 -622.852 1020.47 -656.033C882.793 -722.4 695.704 -738.291 556.377 -656.542C454.037 -596.495 399.599 -548.878 357.855 -512.363C342.706 -499.112 329.228 -487.323 315.74 -476.933C290.404 -457.417 265.052 -442.862 228.568 -432.885C192.1 -422.913 144.527 -417.52 74.7547 -416.294C-64.4924 -413.848 -173.051 -306.45 -206.939 -187.751C-223.88 -128.413 -222.145 -66.2926 -196.287 -13.089C-170.433 40.1042 -120.438 84.4414 -40.7431 108.18C39.1197 131.968 83.456 161.42 108.25 193.195C133.05 224.978 138.243 259.017 139.973 291.831C140.339 298.764 140.549 305.626 140.756 312.399L140.756 312.403L140.758 312.458L140.758 312.464L140.758 312.47L140.759 312.476L140.759 312.483L140.76 312.49C141.043 321.746 141.321 330.836 141.981 339.716C143.123 355.094 145.406 369.729 150.818 383.224C161.624 410.167 184.958 432.693 237.016 447.37C341.187 476.738 420.878 454.637 495.644 431.073C499.668 429.804 503.679 428.531 507.679 427.262ZM252.896 419.201C352.024 447.158 427.87 426.101 498.843 403.724C502.645 402.525 506.433 401.322 510.21 400.123C576.941 378.94 640.132 358.88 715.588 380.118C852.585 423.867 1016.04 438.383 1132.47 405.702C1190.69 389.359 1237.22 361.196 1262.76 318.913C1288.31 276.615 1292.8 220.293 1267.15 147.78C1226.88 33.9016 1186.57 -31.8213 1156.92 -80.1698L1156.92 -80.1705C1145.74 -98.4008 1136.07 -114.161 1128.5 -129.101C1114.66 -156.373 1107.77 -180.934 1111.22 -212.885C1114.67 -244.869 1128.5 -284.292 1156.23 -341.274C1184.04 -398.439 1176.92 -454.856 1146.49 -504.85C1116.08 -554.825 1062.36 -598.382 996.939 -629.93C866.106 -693.021 688.236 -708.181 555.681 -630.376C458.491 -573.33 406.733 -528.039 367.119 -493.375L367.117 -493.374L367.116 -493.373L367.11 -493.368L367.108 -493.366L367.108 -493.365C352.759 -480.81 340.004 -469.649 327.26 -459.828C303.301 -441.367 279.359 -427.618 244.888 -418.188C210.4 -408.754 165.356 -403.637 99.1868 -402.474C-33.4483 -400.144 -136.763 -297.829 -169.008 -184.842C-185.134 -128.338 -183.501 -69.121 -158.841 -18.3643C-134.176 32.4027 -86.5018 74.6494 -10.6604 97.2484C65.0128 119.797 106.865 147.67 130.216 177.608C153.562 207.538 158.473 239.602 160.111 270.681C160.457 277.233 160.657 283.758 160.855 290.21L160.855 290.211L160.855 290.213L160.855 290.214L160.855 290.215L160.855 290.216L160.855 290.217L160.855 290.219L160.855 290.22L160.855 290.221L160.855 290.222L160.855 290.224L160.855 290.225L160.855 290.227L160.855 290.23C161.125 299.043 161.391 307.722 162.017 316.154C163.104 330.792 165.28 344.797 170.469 357.74C180.866 383.673 203.304 405.215 252.896 419.201ZM715.868 379.158C640.112 357.833 576.65 377.981 509.962 399.153C506.167 400.358 502.361 401.566 498.542 402.77C427.604 425.136 351.999 446.111 253.167 418.238C203.779 404.31 181.646 382.932 171.397 357.368C166.264 344.563 164.098 330.675 163.014 316.079C162.389 307.651 162.125 299.025 161.856 290.241C161.658 283.783 161.458 277.241 161.11 270.629C159.468 239.481 154.541 207.167 131.005 176.993C107.475 146.827 65.403 118.87 -10.3749 96.29C-85.9845 73.7601 -133.415 31.6809 -157.941 -18.8013C-182.473 -69.2937 -184.119 -128.25 -168.046 -184.567C-135.895 -297.224 -32.9018 -399.153 99.2044 -401.475C165.406 -402.638 210.546 -407.757 245.151 -417.223C279.772 -426.694 303.829 -440.511 327.87 -459.036C340.664 -468.895 353.446 -480.08 367.813 -492.651L367.813 -492.651L367.815 -492.652L367.819 -492.656L367.826 -492.663L367.832 -492.668L367.832 -492.668C407.44 -527.326 459.088 -572.521 556.187 -629.514C688.374 -707.102 865.877 -692.021 996.505 -629.029C1061.81 -597.537 1115.35 -554.092 1145.64 -504.33C1175.92 -454.587 1182.97 -398.531 1155.33 -341.711C1127.59 -284.707 1113.7 -245.155 1110.22 -212.993C1106.74 -180.799 1113.71 -156.043 1127.6 -128.649C1135.22 -113.629 1144.92 -97.8217 1156.12 -79.556L1156.12 -79.5551C1185.77 -31.2153 1225.97 34.3451 1266.21 148.113C1291.79 220.437 1287.26 276.428 1261.9 318.396C1236.54 360.379 1190.28 388.434 1132.2 404.739C1016.01 437.351 852.77 422.878 715.885 379.163L715.876 379.16L715.868 379.158ZM501.629 376.509C434.342 397.734 362.43 417.708 268.443 391.189C221.423 377.922 200.142 357.485 190.282 332.878C185.361 320.598 183.297 307.311 182.267 293.425C181.673 285.439 181.421 277.218 181.165 268.87L181.165 268.867L181.165 268.865L181.165 268.863L181.165 268.86L181.165 268.858L181.165 268.856L181.165 268.854L181.165 268.852L181.165 268.849L181.165 268.847L181.165 268.845L181.165 268.843L181.165 268.841L181.165 268.831C180.977 262.705 180.787 256.512 180.46 250.294C178.907 220.816 174.252 190.41 152.124 162.027C129.989 133.637 90.3175 107.202 18.578 85.8147C-53.3296 64.3776 -98.5333 24.302 -121.92 -23.8582C-145.303 -72.008 -146.851 -128.182 -131.561 -181.781C-100.988 -288.959 -3.0329 -386.015 122.726 -388.226C185.457 -389.329 228.159 -394.182 260.851 -403.13C293.528 -412.073 316.223 -425.112 338.935 -442.621C351.019 -451.938 363.114 -462.526 376.721 -474.438C414.277 -507.318 463.35 -550.279 555.493 -604.389C681.171 -678.193 849.811 -663.811 973.854 -603.967C1035.88 -574.042 1086.81 -532.725 1115.65 -485.318C1144.5 -437.891 1151.25 -384.37 1124.88 -330.14C1098.6 -276.094 1085.49 -238.703 1082.21 -208.371C1078.94 -178.071 1085.48 -154.78 1098.59 -128.916C1105.77 -114.747 1114.93 -99.799 1125.53 -82.5081C1153.64 -36.6489 1191.86 25.6938 1230.04 133.711C1254.36 202.495 1250.11 255.925 1225.88 296.054C1201.66 336.167 1157.54 362.883 1102.34 378.385C991.948 409.385 836.983 395.616 707.1 354.118C635.571 333.976 575.669 353.001 512.404 373.094C508.824 374.231 505.233 375.372 501.629 376.509ZM512.156 372.123C575.378 352.042 635.55 332.929 707.379 353.158L707.388 353.161L707.396 353.163C837.168 394.626 991.926 408.353 1102.07 377.422C1157.13 361.958 1200.98 335.35 1225.02 295.537C1249.05 255.738 1253.35 202.639 1229.1 134.044C1190.95 26.1372 1152.84 -36.0432 1124.73 -81.8936C1114.11 -99.22 1104.92 -114.214 1097.7 -128.463C1084.52 -154.45 1077.92 -177.936 1081.22 -208.479C1084.51 -238.989 1097.69 -276.508 1123.98 -330.577C1150.18 -384.463 1143.5 -437.623 1114.8 -484.798C1086.08 -531.992 1035.33 -573.197 973.419 -603.066C849.582 -662.812 681.31 -677.114 556 -603.527C463.947 -549.47 414.985 -506.605 377.435 -473.732L377.434 -473.731C363.806 -461.8 351.681 -451.185 339.546 -441.83C316.752 -424.257 293.941 -411.149 261.115 -402.165C228.305 -393.185 185.507 -388.33 122.743 -387.226C-2.48603 -385.025 -100.121 -288.354 -130.6 -181.507C-145.836 -128.094 -144.275 -72.1808 -121.021 -24.295C-97.7719 23.5804 -52.812 63.4884 18.8638 84.8564C90.7078 106.274 130.6 132.794 152.912 161.412C175.23 190.039 179.902 220.696 181.459 250.241C181.789 256.514 181.979 262.72 182.166 268.845C182.421 277.176 182.671 285.357 183.264 293.351C184.292 307.194 186.344 320.364 191.21 332.506C200.923 356.744 221.898 377.017 268.715 390.227C362.405 416.662 434.076 396.769 501.328 375.555C504.948 374.413 508.555 373.267 512.153 372.124L512.156 372.123ZM281.606 367.66C371.242 392.972 439.825 373.907 503.993 353.649C507.397 352.574 510.789 351.496 514.17 350.422L514.238 350.4L514.267 350.391C574.6 331.214 631.719 313.059 699.924 332.28C823.787 371.886 971.572 385.029 1076.85 355.44C1129.49 340.644 1171.57 315.144 1194.67 276.853C1217.78 238.547 1221.84 187.546 1198.65 121.895C1162.23 18.8008 1125.79 -40.7026 1098.98 -84.4706L1098.98 -84.4719C1088.87 -100.973 1080.14 -115.237 1073.29 -128.758C1060.79 -153.441 1054.55 -175.665 1057.67 -204.578C1060.8 -233.523 1073.3 -269.205 1098.36 -320.786C1123.51 -372.551 1117.08 -423.64 1089.56 -468.909C1062.05 -514.159 1013.48 -553.595 954.326 -582.156C836.031 -639.274 675.201 -653.001 555.341 -582.558C467.468 -530.914 420.668 -489.91 384.853 -458.53C371.877 -447.162 360.344 -437.056 348.821 -428.166C327.164 -411.456 305.524 -399.014 274.366 -390.479C243.192 -381.94 202.472 -377.309 142.65 -376.256C22.7097 -374.146 -70.7114 -281.507 -99.869 -179.209C-114.451 -128.05 -112.975 -74.4316 -90.6738 -28.4717C-68.3676 17.4987 -25.2544 55.7506 43.3249 76.2118C111.736 96.6227 149.563 121.85 170.667 148.941C191.765 176.024 196.204 205.038 197.685 233.17C197.997 239.09 198.178 244.988 198.357 250.821L198.357 250.824L198.357 250.826L198.357 250.828L198.357 250.831L198.357 250.833L198.357 250.835L198.357 250.838L198.357 250.84L198.357 250.843L198.357 250.846L198.357 250.848L198.357 250.851L198.357 250.854L198.357 250.857L198.357 250.86L198.357 250.868L198.358 250.875L198.358 250.883L198.358 250.89L198.359 250.898C198.602 258.866 198.843 266.713 199.408 274.334C200.391 287.588 202.359 300.272 207.053 311.995C216.459 335.488 236.76 354.997 281.606 367.66ZM700.203 331.32C631.698 312.011 574.309 330.255 514.019 349.42C510.587 350.511 507.146 351.605 503.692 352.696C439.559 372.942 371.216 391.926 281.877 366.698C237.236 354.092 217.24 334.748 207.981 311.623C203.342 300.038 201.385 287.471 200.405 274.26C199.839 266.631 199.601 258.824 199.358 250.873C199.179 245.028 198.998 239.105 198.683 233.117C197.199 204.918 192.743 175.653 171.456 148.326C150.174 121.008 112.126 95.6957 43.6107 75.2536C-24.7363 54.8617 -67.6062 16.7775 -89.774 -28.9082C-111.947 -74.6043 -113.436 -127.962 -98.9072 -178.935C-69.8438 -280.902 23.257 -373.155 142.668 -375.256C202.522 -376.309 243.338 -380.943 274.63 -389.515C305.937 -398.09 327.693 -410.601 349.432 -427.374C361.007 -436.305 372.57 -446.436 385.567 -457.823C421.375 -489.198 468.065 -530.106 555.848 -581.696C675.339 -651.923 835.801 -638.274 953.892 -581.256C1012.93 -552.749 1061.33 -513.427 1088.7 -468.39C1116.07 -423.372 1122.44 -372.644 1097.46 -321.223C1072.39 -269.619 1059.82 -233.808 1056.68 -204.685C1053.53 -175.53 1059.83 -153.11 1072.4 -128.306C1079.29 -114.705 1088.05 -100.394 1098.18 -83.8564C1124.98 -40.0971 1161.33 19.2439 1197.71 122.228C1220.83 187.69 1216.73 238.361 1193.82 276.337C1170.9 314.328 1129.09 339.719 1076.58 354.477C971.551 383.996 823.972 370.896 700.22 331.325L700.212 331.322L700.203 331.32ZM506.889 325.343C446.549 344.402 382.05 362.342 297.754 338.525C255.578 326.609 236.48 308.25 227.63 286.136C223.214 275.102 221.364 263.165 220.439 250.694C219.907 243.512 219.681 236.116 219.451 228.606C219.283 223.106 219.112 217.545 218.819 211.964C217.427 185.499 213.253 158.208 193.419 132.735C173.58 107.253 138.016 83.5209 73.6906 64.3184C9.19644 45.0656 -31.3517 9.0715 -52.3308 -34.1877C-73.3049 -77.4366 -74.6925 -127.89 -60.9791 -176.029C-33.5587 -272.284 54.2975 -359.454 167.097 -361.44C223.349 -362.431 261.636 -366.788 290.946 -374.821C320.241 -382.849 340.587 -394.554 360.949 -410.273C371.782 -418.636 382.627 -428.143 394.827 -438.838C428.505 -468.362 472.516 -506.944 555.149 -555.534C667.868 -621.816 819.112 -608.898 930.356 -555.157C985.983 -528.283 1031.66 -491.177 1057.53 -448.598C1083.41 -405.999 1089.46 -357.922 1065.81 -309.209C1042.24 -260.68 1030.49 -227.113 1027.55 -199.885C1024.62 -172.69 1030.48 -151.786 1042.23 -128.567C1048.67 -115.849 1056.89 -102.43 1066.39 -86.9066L1066.39 -86.9047C1091.6 -45.7257 1125.87 10.2624 1160.12 107.261C1181.92 169.034 1178.11 217.028 1156.37 253.077C1134.65 289.112 1095.07 313.107 1045.56 327.028C946.56 354.868 807.587 342.502 691.111 305.238C626.985 287.157 573.283 304.235 516.549 322.278C513.339 323.299 510.12 324.322 506.889 325.343ZM516.301 321.307C572.992 303.276 626.964 286.109 691.391 304.278L691.399 304.28L691.407 304.283C807.772 341.513 946.538 353.836 1045.29 326.066C1094.66 312.181 1133.97 288.295 1155.52 252.561C1177.06 216.841 1180.91 169.178 1159.17 107.594C1124.97 10.7053 1090.79 -45.1206 1065.59 -86.2909C1056.06 -101.851 1047.82 -115.317 1041.34 -128.116C1029.52 -151.456 1023.6 -172.555 1026.56 -199.993C1029.51 -227.398 1041.33 -261.094 1064.91 -309.646C1088.4 -358.015 1082.41 -405.731 1056.68 -448.079C1030.94 -490.445 985.434 -527.438 929.921 -554.256C818.883 -607.899 668.006 -620.737 555.656 -554.672C473.114 -506.135 429.213 -467.65 395.542 -438.132C383.32 -427.418 372.445 -417.885 361.56 -409.481C341.115 -393.699 320.654 -381.926 291.211 -373.856C261.782 -365.791 223.399 -361.431 167.115 -360.44C54.8453 -358.464 -32.6909 -271.68 -60.0174 -175.755C-73.6776 -127.803 -72.2772 -77.6091 -51.431 -34.6241C-30.5899 8.35049 9.71475 44.1767 73.9767 63.3601C138.407 82.5939 174.192 106.411 194.208 132.12C214.231 157.837 218.422 185.378 219.817 211.911C220.112 217.52 220.282 223.067 220.449 228.542L220.449 228.546L220.451 228.601L220.451 228.607L220.452 228.613L220.452 228.62C220.68 236.099 220.905 243.442 221.437 250.62C222.358 263.048 224.198 274.868 228.558 285.764C237.261 307.51 256.054 325.704 298.026 337.563C382.025 361.296 446.283 343.438 506.588 324.389C509.825 323.367 513.051 322.341 516.268 321.318L516.284 321.312L516.301 321.307ZM310.902 314.994C390.848 337.604 452.018 320.573 509.239 302.481C512.292 301.516 515.334 300.547 518.367 299.582L518.382 299.577L518.398 299.572C572.2 282.445 623.118 266.237 683.921 283.397C794.377 318.769 926.17 330.509 1020.06 304.081C1067.01 290.865 1104.55 268.086 1125.16 233.874C1145.78 199.647 1149.39 154.083 1128.71 95.4419C1096.23 3.36687 1063.73 -49.7819 1039.82 -88.8698C1030.81 -103.605 1023.02 -116.342 1016.92 -128.413C1005.77 -150.449 1000.22 -170.286 1003 -196.095C1005.78 -221.935 1016.93 -253.794 1039.27 -299.858C1061.71 -346.106 1055.97 -391.75 1031.43 -432.192C1006.89 -472.614 963.569 -507.839 910.814 -533.349C805.317 -584.364 661.883 -596.627 554.982 -533.706C476.62 -487.582 434.882 -450.957 402.944 -422.932C391.375 -412.781 381.093 -403.758 370.821 -395.82C351.513 -380.901 332.223 -369.793 304.447 -362.173C276.655 -354.549 240.35 -350.413 187.008 -349.473C80.0259 -347.588 -3.29585 -264.834 -29.301 -173.459C-42.3065 -127.761 -40.9911 -79.8628 -21.0982 -38.8038C-1.20029 2.26565 37.2576 36.4361 98.4232 54.713C159.42 72.9394 193.139 95.4646 211.949 119.646C230.752 143.82 234.709 169.718 236.029 194.837C236.308 200.133 236.469 205.411 236.629 210.632L236.629 210.645L236.629 210.648C236.847 217.772 237.062 224.789 237.566 231.601C238.443 243.44 240.198 254.773 244.387 265.25C252.783 286.251 270.901 303.682 310.902 314.994ZM684.201 282.437C623.097 265.189 571.908 281.486 518.15 298.602C515.088 299.576 512.018 300.554 508.938 301.528C451.751 319.608 390.822 336.558 311.174 314.032C271.378 302.777 253.564 285.511 245.315 264.879C241.182 254.539 239.437 243.323 238.563 231.527C238.059 224.718 237.847 217.754 237.63 210.66L237.63 210.646C237.471 205.426 237.309 200.135 237.028 194.785C235.704 169.598 231.73 143.449 212.738 119.032C193.751 94.6227 159.812 72.0126 98.7095 53.7549C37.7763 35.5475 -0.4382 1.54513 -20.1982 -39.2398C-39.9633 -80.0352 -41.2917 -127.673 -28.3391 -173.185C-2.42781 -264.231 80.5744 -346.597 187.025 -348.473C240.4 -349.414 276.801 -353.552 304.711 -361.209C332.636 -368.869 352.043 -380.046 371.432 -395.029C381.756 -403.006 392.068 -412.056 403.659 -422.226L403.659 -422.226L403.659 -422.227C435.59 -450.245 477.218 -486.773 555.49 -532.844C662.022 -595.549 805.087 -583.364 910.379 -532.449C963.019 -506.994 1006.16 -471.882 1030.57 -431.673C1054.97 -391.482 1060.64 -346.198 1038.37 -300.295C1016.02 -254.208 1004.81 -222.22 1002 -196.202C999.197 -170.152 1004.82 -150.119 1016.03 -127.961C1022.17 -115.811 1029.99 -103.027 1039.02 -88.2563C1062.92 -49.1771 1095.33 3.80943 1127.76 95.7745C1148.38 154.226 1144.72 199.461 1124.3 233.358C1103.87 267.27 1066.61 289.94 1019.79 303.118C926.149 329.476 794.563 317.78 684.217 282.442L684.209 282.44L684.201 282.437ZM511.924 276.353C458.247 293.339 400.859 309.332 325.857 288.102C288.329 277.479 271.323 261.109 263.443 241.381C259.512 231.541 257.865 220.897 257.043 209.781C256.569 203.38 256.368 196.786 256.163 190.092C256.014 185.19 255.862 180.235 255.601 175.264C254.363 151.682 250.651 127.376 233.019 104.688C215.38 81.9917 183.757 60.8466 126.543 43.7356C69.1596 26.5741 33.0771 -5.51217 14.4078 -44.079C-4.25655 -82.6354 -5.49007 -127.612 6.71135 -170.522C31.108 -256.32 109.277 -334.025 209.647 -335.795C259.683 -336.678 293.736 -340.561 319.802 -347.718C345.853 -354.87 363.944 -365.297 382.053 -379.302C391.686 -386.753 401.331 -395.223 412.182 -404.753L412.184 -404.754C442.142 -431.065 481.298 -465.454 554.808 -508.759C655.097 -567.84 789.655 -556.323 888.623 -508.425C938.112 -484.473 978.755 -451.399 1001.77 -413.441C1024.8 -375.465 1030.19 -332.601 1009.14 -289.171C988.176 -245.924 977.724 -216.017 975.113 -191.762C972.505 -167.539 977.714 -148.921 988.167 -128.235C993.892 -116.905 1001.2 -104.948 1009.65 -91.1154L1009.65 -91.1149C1032.08 -54.4168 1062.57 -4.51305 1093.03 81.9347C1112.43 136.995 1109.05 179.784 1089.7 211.928C1070.36 244.057 1035.14 265.447 991.095 277.856C903.014 302.67 779.38 291.647 675.764 258.437C618.738 242.328 570.983 257.543 520.513 273.623C517.66 274.532 514.797 275.444 511.924 276.353ZM520.265 272.652C570.691 256.584 618.717 241.28 676.044 257.477L676.053 257.479L676.061 257.482C779.566 290.658 902.992 301.637 990.824 276.893C1034.74 264.522 1069.68 243.242 1088.84 211.412C1107.99 179.598 1111.42 137.139 1092.09 82.2671C1061.66 -4.07119 1031.27 -53.8129 1008.85 -90.5023L1008.85 -90.5028C1000.37 -104.371 993.04 -116.374 987.274 -127.784C976.76 -148.591 971.484 -167.405 974.118 -191.869C976.749 -216.302 987.265 -246.337 1008.24 -289.607C1029.12 -332.693 1023.8 -375.198 1000.92 -412.923C978.029 -450.667 937.562 -483.628 888.187 -507.525C789.425 -555.324 655.235 -566.761 555.315 -507.897C481.896 -464.645 442.85 -430.354 412.898 -404.048C402.025 -394.499 392.351 -386.002 382.665 -378.511C364.474 -364.443 346.267 -353.947 320.067 -346.754C293.882 -339.564 259.733 -335.679 209.665 -334.796C109.826 -333.035 31.9762 -255.717 7.67326 -170.249C-4.4753 -127.525 -3.22884 -82.8076 15.3078 -44.5147C33.8394 -6.23233 69.6787 25.6856 126.829 42.7775C184.149 59.9199 215.993 81.1501 233.808 104.074C251.63 127.005 255.358 151.563 256.6 175.212C256.864 180.237 257.015 185.204 257.164 190.105L257.165 190.118L257.165 190.121C257.368 196.779 257.567 203.315 258.04 209.707C258.859 220.78 260.496 231.307 264.372 241.01C272.105 260.369 288.806 276.575 326.13 287.14C400.834 308.285 457.98 292.375 511.622 275.4C514.512 274.485 517.393 273.568 520.265 272.652ZM340.216 262.331C410.471 282.238 464.228 267.242 514.502 251.315C517.192 250.463 519.871 249.609 522.543 248.757L522.544 248.757L522.545 248.756L522.546 248.756C569.817 233.679 614.534 219.417 667.935 234.517C764.984 265.655 880.785 275.992 963.289 252.724C1004.55 241.089 1037.54 221.031 1055.66 190.897C1073.79 160.749 1076.96 120.621 1058.78 68.9916C1030.25 -12.0644 1001.69 -58.8585 980.685 -93.2664L980.684 -93.2686C972.769 -106.236 965.928 -117.444 960.566 -128.064C950.778 -147.455 945.901 -164.905 948.343 -187.609C950.788 -210.344 960.575 -238.381 980.208 -278.928C999.93 -319.658 994.885 -359.857 973.31 -395.471C951.746 -431.066 913.675 -462.079 867.32 -484.538C774.621 -529.45 648.583 -540.251 554.641 -484.85C485.789 -444.246 449.113 -412.001 421.054 -387.332L421.053 -387.332C410.891 -378.397 401.858 -370.456 392.837 -363.472C375.879 -350.343 358.938 -340.569 334.544 -333.864C310.135 -327.155 278.245 -323.514 231.382 -322.687C137.359 -321.027 64.1368 -248.159 41.2842 -167.706C29.8549 -127.469 31.0098 -85.2913 48.4945 -49.1334C65.9843 -12.9649 99.7865 17.1242 153.539 33.2167C207.122 49.2587 236.733 69.0813 253.247 90.3534C269.756 111.618 273.232 134.4 274.391 156.508C274.636 161.166 274.778 165.811 274.918 170.407C275.109 176.684 275.298 182.869 275.742 188.87C276.512 199.294 278.055 209.277 281.738 218.508C289.123 237.015 305.06 252.369 340.216 262.331ZM668.215 233.557C614.514 218.369 569.525 232.72 522.297 247.785C519.606 248.644 516.908 249.504 514.2 250.362C463.961 266.277 410.446 281.192 340.488 261.369C305.537 251.465 289.905 236.276 282.667 218.137C279.038 209.044 277.506 199.177 276.739 188.797C276.296 182.81 276.109 176.69 275.919 170.454L275.919 170.453L275.919 170.452L275.919 170.451L275.919 170.45L275.919 170.449L275.919 170.448L275.919 170.446L275.919 170.445L275.919 170.444L275.919 170.442L275.919 170.441L275.919 170.439L275.919 170.437L275.919 170.435L275.919 170.434L275.919 170.432L275.919 170.422L275.919 170.412L275.918 170.403L275.918 170.394L275.918 170.385L275.917 170.377L275.917 170.369L275.916 170.361L275.916 170.354L275.916 170.347L275.915 170.34L275.915 170.334L275.915 170.328C275.776 165.763 275.636 161.136 275.39 156.455C274.227 134.28 270.734 111.248 254.037 89.7402C237.346 68.24 207.514 48.3322 153.826 32.2587C100.306 16.2359 66.7471 -13.6845 49.3948 -49.5687C32.0374 -85.4634 30.8697 -127.382 42.2463 -167.433C65.0054 -247.557 137.909 -320.036 231.4 -321.687C278.295 -322.515 310.282 -326.158 334.81 -332.9C359.353 -339.645 376.409 -349.488 393.449 -362.681C402.523 -369.706 411.585 -377.673 421.769 -386.627C449.822 -411.29 486.388 -443.438 555.149 -483.989C648.722 -539.171 774.391 -528.451 866.884 -483.638C913.124 -461.235 951.02 -430.335 972.454 -394.953C993.877 -359.59 998.863 -319.75 979.308 -279.364C959.664 -238.794 949.813 -210.629 947.349 -187.716C944.881 -164.771 949.824 -147.126 959.674 -127.614C965.075 -116.913 971.946 -105.657 979.884 -92.6536C1000.88 -58.2544 1029.35 -11.6224 1057.84 69.3236C1075.95 120.765 1072.73 160.563 1054.8 190.382C1036.87 220.215 1004.14 240.164 963.018 251.762C880.764 274.959 765.17 264.666 668.232 233.562L668.224 233.56L668.215 233.557ZM517.079 226.276C470.207 241.143 420.081 255.144 354.572 236.559C321.789 227.258 306.921 212.921 300.031 195.633C296.595 187.013 295.157 177.69 294.438 167.959C294.025 162.357 293.849 156.582 293.67 150.722C293.539 146.432 293.407 142.097 293.179 137.75C292.098 117.116 288.858 95.859 273.474 76.0181C258.083 56.1697 230.484 37.6696 180.533 22.6966C130.411 7.67295 98.8894 -20.4188 82.5791 -54.1889C66.274 -87.9486 65.1978 -127.327 75.855 -164.892C97.1634 -239.999 165.439 -308.03 253.115 -309.58C296.804 -310.352 326.532 -313.75 349.285 -320.011C372.022 -326.268 387.812 -335.389 403.619 -347.642C412.026 -354.159 420.445 -361.569 429.917 -369.907L429.919 -369.909L429.922 -369.911C456.082 -392.938 490.279 -423.04 554.472 -460.943C642.067 -512.663 759.585 -502.579 846.015 -460.653C889.236 -439.687 924.735 -410.735 944.843 -377.502C964.963 -344.251 969.668 -306.716 951.276 -268.686C932.973 -230.839 923.85 -204.673 921.571 -183.457C919.296 -162.272 923.84 -145.99 932.964 -127.895C937.961 -117.984 944.339 -107.522 951.718 -95.4184C971.298 -63.3008 997.93 -19.6164 1024.53 56.0473C1041.48 104.246 1038.52 141.714 1021.62 169.866C1004.72 198.003 973.95 216.73 935.481 227.592C858.554 249.313 750.586 239.663 660.103 210.597C610.329 196.505 568.648 209.815 524.576 223.888C522.085 224.683 519.587 225.481 517.079 226.276ZM524.327 222.917C568.355 208.856 610.308 195.457 660.384 209.637L660.392 209.639L660.401 209.642C750.772 238.674 858.533 248.28 935.209 226.629C973.544 215.805 1004.04 197.188 1020.76 169.351C1037.47 141.528 1040.47 104.39 1023.59 56.3789C997.026 -19.1745 970.492 -62.6968 950.916 -94.8056L950.916 -94.8062C943.515 -106.946 937.108 -117.454 932.071 -127.444C922.886 -145.662 918.275 -162.138 920.577 -183.564C922.875 -204.957 932.061 -231.252 950.376 -269.121C968.601 -306.808 963.955 -343.984 943.987 -376.985C924.008 -410.004 888.684 -438.843 845.578 -459.753C759.354 -501.579 642.206 -511.583 554.981 -460.082C490.878 -422.233 456.791 -392.228 430.638 -369.207L430.638 -369.207C421.142 -360.848 412.693 -353.41 404.232 -346.852C388.343 -334.535 372.437 -325.345 349.55 -319.047C326.679 -312.753 296.854 -309.353 253.133 -308.58C165.99 -307.039 98.0324 -239.398 76.8171 -164.619C66.2124 -127.24 67.3016 -88.1204 83.4797 -54.6239C99.6526 -21.1379 130.932 6.78498 180.82 21.7388C230.877 36.7433 258.697 55.3287 274.264 75.4053C289.837 95.4894 293.094 116.997 294.178 137.698C294.409 142.099 294.541 146.447 294.671 150.737L294.672 150.745C294.849 156.572 295.022 162.29 295.436 167.885C296.151 177.573 297.579 186.779 300.96 195.263C307.703 212.183 322.267 226.354 354.845 235.597C420.056 254.097 469.939 240.178 516.776 225.323C519.301 224.522 521.817 223.719 524.327 222.917ZM519.382 201.237C475.889 215.044 429.369 228.05 368.572 210.787C338.146 202.147 324.339 188.826 317.941 172.758C314.751 164.747 313.416 156.086 312.749 147.047C312.366 141.848 312.202 136.488 312.037 131.049L312.036 131.036L312.036 131.029C311.915 127.047 311.792 123.023 311.581 118.991C310.578 99.8307 307.572 80.0983 293.304 61.6809C279.029 43.256 253.429 26.0782 207.083 12.1741C160.567 -1.78093 131.31 -27.8757 116.171 -59.2479C101.037 -90.6096 100.038 -127.189 109.929 -162.082C129.704 -231.845 193.068 -295.039 274.441 -296.479C314.978 -297.196 342.559 -300.352 363.667 -306.165C384.759 -311.974 399.407 -320.443 414.071 -331.819C421.87 -337.87 429.68 -344.751 438.469 -352.494L438.473 -352.498L438.474 -352.498C462.747 -373.883 494.482 -401.842 554.05 -437.044C635.341 -485.083 744.399 -475.716 824.604 -436.776C864.712 -417.303 897.658 -390.411 916.321 -359.541C934.995 -328.652 939.363 -293.78 922.291 -258.45C905.308 -223.303 896.846 -199.007 894.732 -179.31C892.621 -159.644 896.836 -144.53 905.299 -127.729C909.934 -118.528 915.851 -108.815 922.697 -97.5764L922.698 -97.5744C940.866 -67.7467 965.582 -27.1715 990.267 43.1007C1005.99 87.8695 1003.25 122.677 987.559 148.833C971.874 174.975 943.312 192.37 907.613 202.459C836.224 222.634 736.034 213.671 652.072 186.675C605.897 173.592 567.232 185.949 526.337 199.02C524.026 199.758 521.709 200.499 519.382 201.237ZM526.088 198.049C566.939 184.99 605.877 172.544 652.353 185.716L652.361 185.718L652.37 185.721C736.22 212.682 836.203 221.601 907.341 201.497C942.906 191.446 971.197 174.16 986.702 148.318C1002.2 122.491 1004.98 88.0128 989.324 43.4322C964.677 -26.7304 940.059 -67.1436 921.895 -96.9626L921.895 -96.9629L921.893 -96.9662C915.026 -108.24 909.081 -117.999 904.406 -127.279C895.881 -144.202 891.601 -159.51 893.738 -179.416C895.871 -199.291 904.397 -223.715 921.391 -258.885C938.296 -293.872 933.987 -328.385 915.465 -359.023C896.931 -389.681 864.16 -416.459 824.167 -435.876C744.168 -474.716 635.48 -484.004 554.559 -436.183C495.081 -401.034 463.456 -373.173 439.19 -351.793C430.378 -344.03 422.536 -337.122 414.684 -331.029C399.937 -319.589 385.174 -311.052 363.933 -305.201C342.706 -299.355 315.028 -296.196 274.459 -295.479C193.619 -294.048 130.574 -231.245 110.891 -161.809C101.053 -127.102 102.064 -90.7812 117.071 -59.6825C132.073 -28.5944 161.088 -2.66872 207.37 11.2162C253.822 25.152 279.643 42.4153 294.094 61.0684C308.551 79.729 311.573 99.7115 312.58 118.939C312.794 123.023 312.916 127.057 313.037 131.035L313.037 131.038L313.037 131.05L313.038 131.056L313.038 131.058C313.202 136.468 313.363 141.777 313.746 146.973C314.41 155.969 315.735 164.514 318.87 172.388C325.122 188.088 338.625 201.244 368.846 209.825C429.343 227.003 475.621 214.079 519.08 200.284C521.423 199.54 523.758 198.794 526.088 198.049ZM522.195 177.547C481.603 190.086 438.342 201.968 382.296 186.054C353.625 177.912 340.4 165.546 334.119 150.687C330.988 143.279 329.596 135.283 328.848 126.947C328.398 121.936 328.18 116.77 327.958 111.529L327.958 111.527L327.958 111.524L327.957 111.521L327.957 111.518L327.957 111.516L327.956 111.486C327.81 108.046 327.663 104.573 327.448 101.092C326.358 83.4422 323.517 65.2743 310.376 48.2749C297.23 31.2686 273.72 15.3638 231.143 2.38548L231.28 1.93639L231.143 2.38533C188.298 -10.7185 161.216 -35.03 147.121 -64.2C133.031 -93.3599 131.944 -127.322 140.985 -159.696C159.061 -224.426 217.678 -282.974 294.191 -284.284C332.075 -284.935 357.843 -287.903 377.54 -293.345C397.222 -298.784 410.863 -306.698 424.487 -317.279C431.635 -322.829 438.784 -329.12 446.799 -336.173L446.8 -336.174C469.36 -356.027 498.785 -381.919 554.357 -414.343C629.823 -458.373 730.634 -449.731 804.823 -413.725C841.923 -395.719 872.417 -370.846 889.767 -342.231C907.128 -313.598 911.321 -281.22 895.797 -248.303L895.795 -248.301C880.357 -216.056 872.657 -193.643 870.74 -175.372C868.825 -157.131 872.671 -142.986 880.414 -127.261C884.755 -118.444 890.33 -109.123 896.797 -98.3086C913.409 -70.5327 935.912 -32.9057 958.545 31.3274C973.01 72.423 970.45 104.527 955.939 128.754C941.437 152.966 915.06 169.21 882.101 178.726C816.192 197.755 723.709 189.963 646.132 164.887C602.893 152.478 566.534 163.774 528.155 175.699L528.139 175.704C526.163 176.317 524.182 176.933 522.195 177.547ZM527.917 174.725C566.251 162.813 602.879 151.431 646.415 163.928L646.423 163.93L646.431 163.933C723.892 188.972 816.165 196.722 881.823 177.765C914.648 168.288 940.758 152.155 955.081 128.24C969.396 104.34 971.999 72.5643 957.601 31.6596C935.005 -32.4704 912.599 -69.9322 895.994 -97.6965L895.993 -97.6976C889.504 -108.548 883.9 -117.918 879.517 -126.819C871.715 -142.664 867.806 -157 869.745 -175.477C871.681 -193.923 879.443 -216.463 894.893 -248.731C910.256 -281.306 906.122 -313.329 888.912 -341.712C871.691 -370.115 841.371 -394.875 804.386 -412.825C730.404 -448.731 629.96 -457.295 554.861 -413.479C499.382 -381.11 470.067 -355.314 447.513 -335.467C439.477 -328.395 432.298 -322.078 425.101 -316.489C411.394 -305.844 397.638 -297.861 377.806 -292.381C357.99 -286.906 332.126 -283.936 294.208 -283.284C218.225 -281.984 159.931 -223.823 141.948 -159.428C132.96 -127.24 134.057 -93.5351 148.021 -64.6351C161.981 -35.7453 188.824 -11.6034 231.435 1.42906C274.118 14.4396 297.846 30.4305 311.167 47.6633C324.494 64.903 327.352 83.3176 328.446 101.03C328.665 104.571 328.813 108.072 328.959 111.528C329.179 116.744 329.396 121.859 329.844 126.858C330.588 135.147 331.966 143.027 335.04 150.298C341.169 164.797 354.094 177.006 382.569 185.092C438.318 200.922 481.339 189.121 521.9 176.591C523.846 175.99 525.787 175.387 527.723 174.785L527.85 174.746L527.917 174.725ZM396.004 161.319C447.3 175.886 487.302 165.127 524.993 153.855C526.641 153.362 528.284 152.868 529.924 152.375L529.946 152.369C565.81 141.593 599.87 131.359 640.177 143.096C711.369 166.253 796.145 172.874 856.575 154.991C886.794 146.047 910.987 130.956 924.305 108.673C937.632 86.3749 940.011 56.975 926.808 19.5523L926.807 19.552C906.236 -38.6199 885.947 -73.2781 870.895 -98.9902L870.895 -98.9911C864.799 -109.403 859.563 -118.348 855.514 -126.794C848.492 -141.443 845.014 -154.62 846.733 -171.437C848.454 -188.282 855.392 -208.812 869.285 -238.154L869.288 -238.16C883.265 -268.663 879.247 -298.546 863.199 -324.923C847.163 -351.282 819.12 -374.136 785.028 -390.676C716.855 -423.749 624.29 -431.664 554.651 -391.644C503.08 -362.008 475.969 -338.182 455.122 -319.861L455.12 -319.86L455.118 -319.858L455.117 -319.857C447.873 -313.491 441.385 -307.789 434.89 -302.739C422.304 -292.955 409.671 -285.594 391.399 -280.527C373.112 -275.456 349.158 -272.677 313.927 -272.09C242.273 -270.912 188.404 -217.009 172.027 -157.313C163.836 -127.456 165.011 -96.1118 178.057 -69.1539C191.108 -42.1864 216.015 -19.6581 255.188 -7.40523L255.189 -7.40492C293.998 4.64745 315.416 19.2793 327.434 34.8671C339.448 50.4488 342.124 67.0524 343.301 83.1919C343.517 86.1438 343.682 89.0876 343.846 92.008L343.847 92.0269C344.13 97.0636 344.409 102.03 344.933 106.847C345.762 114.481 347.21 121.811 350.284 128.616C356.447 142.265 369.09 153.676 396.004 161.319ZM640.464 142.138C599.864 130.313 565.539 140.628 529.721 151.392L529.712 151.395C528.047 151.895 526.378 152.397 524.706 152.897C487.042 164.161 447.279 174.84 396.278 160.357C369.549 152.767 357.201 141.505 351.195 128.205C348.183 121.536 346.751 114.323 345.927 106.739C345.406 101.943 345.13 97.0278 344.848 92.0133C344.684 89.0811 344.517 86.115 344.298 83.1192C343.117 66.9216 340.423 50.0751 328.226 34.2565C316.034 18.4441 294.401 3.72551 255.486 -8.35994C216.546 -20.5399 191.874 -42.8978 178.957 -69.5896C166.035 -96.2911 164.852 -127.38 172.991 -157.048C189.274 -216.402 242.817 -269.921 313.943 -271.091C349.209 -271.678 373.259 -274.46 391.666 -279.564C410.088 -284.672 422.837 -292.102 435.504 -301.95C442.048 -307.038 448.566 -312.766 455.832 -319.151C476.673 -337.467 503.675 -361.196 555.149 -390.777C624.425 -430.588 716.626 -422.748 784.591 -389.776C818.568 -373.293 846.437 -350.551 862.345 -324.403C878.242 -298.274 882.201 -268.742 868.381 -238.58C854.475 -209.213 847.477 -188.557 845.738 -171.538C843.996 -154.492 847.533 -141.128 854.612 -126.361C858.705 -117.825 863.971 -108.829 870.089 -98.3806L870.09 -98.3774L870.091 -98.377C885.135 -72.6805 905.327 -38.1924 925.865 19.885C939 57.1137 936.579 86.1866 923.446 108.16C910.304 130.149 886.376 145.128 856.291 154.032C796.113 171.841 711.548 165.261 640.479 142.143L640.471 142.14L640.464 142.138ZM527.784 130.163C492.996 140.167 456.252 149.802 409.708 136.584C384.55 129.439 372.49 118.984 366.443 106.546C361.426 96.2258 360.581 84.5762 359.707 72.5316L359.707 72.5233C359.533 70.1262 359.358 67.7135 359.148 65.2925C357.884 50.6626 355.373 35.6229 344.486 21.4586C333.595 7.28899 314.269 -6.06977 279.229 -17.1962L279.227 -17.1967C243.725 -28.5987 220.994 -49.3437 208.987 -74.1084C196.985 -98.864 195.721 -127.59 203.063 -154.929C217.741 -209.594 266.864 -258.85 333.656 -259.898C366.235 -260.419 388.375 -263.01 405.252 -267.71C422.113 -272.406 433.74 -279.212 445.287 -288.201C451.135 -292.754 456.968 -297.872 463.45 -303.56C482.584 -320.351 507.377 -342.108 554.939 -368.947C618.753 -404.956 703.07 -397.767 765.227 -367.627C796.311 -352.554 821.902 -331.719 836.626 -307.616C851.36 -283.496 855.204 -256.106 842.774 -228.017L842.77 -228.008C830.421 -201.57 824.246 -182.921 822.721 -167.502C821.198 -152.109 824.307 -139.9 830.609 -126.326C834.384 -118.196 839.287 -109.61 845.021 -99.5663C848.891 -92.7866 853.141 -85.3432 857.678 -76.9286C868.921 -56.0792 881.877 -29.3565 895.065 7.77597L895.065 7.77652C907.007 41.5267 904.809 68.2227 892.665 88.5916C880.531 108.945 858.523 122.884 831.044 131.254C776.094 147.993 699.024 142.543 634.216 121.305C596.836 110.236 565.067 119.404 531.715 129.029C530.407 129.407 529.097 129.785 527.784 130.163ZM531.505 128.049C564.81 118.436 596.838 109.191 634.507 120.348L634.514 120.35L634.521 120.352C699.199 141.55 776.054 146.959 830.752 130.298C858.097 121.968 879.845 108.142 891.806 88.0795C903.758 68.0326 905.995 41.6623 894.122 8.11011C880.955 -28.9661 868.021 -55.6418 856.798 -76.454C852.293 -84.8086 848.055 -92.2327 844.186 -99.0108L844.185 -99.0117L844.183 -99.0157L844.182 -99.0174C838.428 -109.097 833.49 -117.748 829.702 -125.905C823.347 -139.594 820.181 -151.984 821.726 -167.601C823.268 -183.191 829.501 -201.962 841.862 -228.427C854.14 -256.178 850.356 -283.22 835.772 -307.095C821.177 -330.988 795.759 -351.711 764.791 -366.727C702.843 -396.766 618.884 -403.882 555.431 -368.076C507.97 -341.294 483.285 -319.633 464.156 -302.847C457.655 -297.142 451.795 -292 445.901 -287.412C434.273 -278.36 422.531 -271.484 405.52 -266.747C388.523 -262.013 366.286 -259.42 333.672 -258.898C267.402 -257.858 218.612 -208.981 204.028 -154.67C196.738 -127.521 198.007 -99.0481 209.887 -74.5446C221.763 -50.0505 244.264 -29.4763 279.532 -18.1491C314.678 -6.98872 334.217 6.45754 345.279 20.8492C356.345 35.2463 358.875 50.5243 360.145 65.2063C360.357 67.664 360.535 70.102 360.71 72.515C361.586 84.5578 362.417 95.9777 367.343 106.109C373.226 118.211 384.998 128.527 409.981 135.622C456.234 148.757 492.74 139.2 527.507 129.201C528.82 128.824 530.13 128.446 531.438 128.068L531.505 128.049ZM423.424 111.846C465.217 123.715 498.702 115.204 530.588 106.467C531.552 106.203 532.515 105.939 533.476 105.674C564.32 97.2036 593.809 89.1046 628.269 99.5098C686.692 118.83 756.057 123.108 805.527 107.515C830.267 99.717 850.088 86.9301 861.039 68.5067C871.999 50.0675 874.017 26.0754 863.336 -4.00263L863.336 -4.00342C851.419 -37.3823 839.811 -61.5827 829.78 -80.5784C825.999 -87.7393 822.448 -94.1494 819.191 -100.028L819.189 -100.032L819.184 -100.041L819.176 -100.056L819.175 -100.056L819.175 -100.058C814.793 -107.968 810.944 -114.916 807.783 -121.436L798.697 -163.303C798.705 -163.392 798.713 -163.482 798.722 -163.571C800.051 -177.565 805.465 -194.331 816.268 -217.866L816.271 -217.873L816.274 -217.879C827.156 -243.554 823.486 -268.449 810.065 -290.312C796.655 -312.159 773.516 -330.975 745.44 -344.582C689.298 -371.789 613.228 -378.25 555.242 -346.252C511.699 -322.225 489.228 -302.539 471.807 -287.277L471.806 -287.277C466.08 -282.261 460.9 -277.723 455.697 -273.666C445.189 -265.473 434.569 -259.22 419.118 -254.896C403.652 -250.567 383.325 -248.165 353.4 -247.709C291.468 -246.791 247.091 -202.182 234.112 -152.548C227.621 -127.726 228.973 -101.619 239.931 -79.066C250.893 -56.5047 271.449 -37.543 303.279 -26.9917L303.282 -26.9909C334.552 -16.7906 351.788 -4.70496 361.552 8.04672C371.313 20.794 373.657 34.2703 375.01 47.3913C375.205 49.2898 375.38 51.1829 375.554 53.0665C376.579 64.1624 377.572 74.9231 382.619 84.4755C388.548 95.6999 400.024 105.199 423.424 111.846ZM818.333 -99.5136C814.719 -106.036 811.459 -111.923 808.647 -117.451L829.103 -23.1923C819.353 -49.3688 810.001 -69.0213 801.873 -84.8202C798.85 -90.6955 796.001 -96.0302 793.366 -100.965L793.364 -100.968L793.36 -100.975C788.299 -110.452 784.024 -118.456 780.818 -125.988C775.956 -137.41 773.583 -147.685 774.714 -160.234C775.824 -172.547 780.311 -187.083 789.199 -207.068L798.03 -166.376C799.782 -179.981 805.222 -196.198 815.356 -218.277C826.093 -243.616 822.484 -268.169 809.213 -289.789C795.931 -311.428 772.963 -330.132 745.004 -343.682C689.073 -370.787 613.356 -377.179 555.725 -345.377C512.288 -321.407 489.925 -301.817 472.508 -286.56L472.505 -286.557L472.502 -286.555L472.501 -286.554L472.498 -286.552L472.498 -286.551L472.491 -286.545C466.754 -281.519 461.553 -276.964 456.312 -272.877C445.724 -264.622 434.989 -258.299 419.388 -253.933C403.801 -249.57 383.376 -247.165 353.415 -246.709C292 -245.799 247.963 -201.564 235.079 -152.295C228.639 -127.666 229.992 -101.809 240.831 -79.5031C251.664 -57.2063 271.995 -38.416 303.592 -27.9417C334.97 -17.7062 352.414 -5.53205 362.346 7.43878C372.281 20.4139 374.647 34.1229 376.004 47.2887C376.202 49.2032 376.378 51.1041 376.552 52.9886L376.554 53.0081C377.582 64.1136 378.558 74.6474 383.503 84.0084C389.263 94.9127 400.46 104.283 423.698 110.884C465.203 122.672 498.451 114.236 530.323 105.503C531.311 105.232 532.298 104.961 533.283 104.69C564.078 96.2315 593.821 88.0617 628.564 98.5544L628.577 98.5581C686.863 117.834 756.008 122.075 805.226 106.561C829.832 98.8056 849.399 86.1324 860.179 67.9958C870.95 49.8752 873.003 26.2073 862.393 -3.66797C850.496 -36.9933 838.909 -61.1494 828.896 -80.1114C825.136 -87.2323 821.591 -93.6316 818.333 -99.5136ZM788.844 -208.706L789.199 -207.068C789.383 -207.482 789.57 -207.899 789.758 -208.318L789.762 -208.327L789.765 -208.336C799.098 -231.596 795.602 -253.995 783.496 -273.602C771.399 -293.192 750.711 -309.99 725.643 -322.129C675.517 -346.403 607.695 -352.138 555.537 -324.152C516.025 -302.951 495.881 -285.339 480.172 -271.604C475.193 -267.251 470.66 -263.288 466.098 -259.723C456.629 -252.326 447.016 -246.628 432.975 -242.675C418.919 -238.717 400.406 -236.503 373.134 -236.112C316.064 -235.326 276.432 -195.363 265.152 -150.76C259.511 -128.455 260.952 -104.966 270.866 -84.6166C280.783 -64.2593 299.162 -47.081 327.321 -37.3801L327.324 -37.3791C354.826 -28.1049 369.971 -17.2925 378.608 -5.95838C387.243 5.37265 389.422 17.2861 390.862 28.8991C391.032 30.2744 391.193 31.6467 391.352 33.0141L391.354 33.0311C392.537 43.1697 393.688 53.033 398.787 61.8141C404.599 71.8236 415.489 80.3658 437.132 86.5146C474.173 97.0351 504.399 89.6484 533.381 82.179C533.987 82.0227 534.593 81.8663 535.199 81.7101C563.538 74.3981 590.762 67.3737 622.312 77.1218C674.353 94.5241 736.012 97.6299 780.002 83.1819C802.001 75.9564 819.637 64.3216 829.403 47.8287C839.179 31.3195 841.018 10.0316 831.597 -16.3749L831.597 -16.376C830.763 -18.6963 829.932 -20.9679 829.103 -23.1923L830.655 -16.0389C820.027 -45.6136 809.788 -67.2506 800.984 -84.3627C797.983 -90.1961 795.144 -95.5114 792.512 -100.44C787.433 -109.951 783.122 -118.022 779.898 -125.596C774.99 -137.128 772.568 -147.57 773.718 -160.323C774.866 -173.055 779.57 -188.057 788.841 -208.718L788.837 -208.709L788.844 -208.706ZM788.844 -208.706L789.301 -208.523L788.845 -208.727L788.841 -208.718L788.844 -208.706ZM327.646 -38.3257C355.254 -29.0153 370.603 -18.1136 379.404 -6.56449C388.207 4.98806 390.41 17.1274 391.854 28.776C392.027 30.1654 392.188 31.5466 392.349 32.9185L392.349 32.9216C393.537 43.0825 394.664 52.7235 399.651 61.3119C405.289 71.0211 415.912 79.4463 437.405 85.5527C474.163 95.9928 504.155 88.6787 533.131 81.2106C533.763 81.0477 534.395 80.8846 535.027 80.7217C563.316 73.4218 590.787 66.3329 622.612 76.1681L622.623 76.1716C674.516 93.5257 735.952 96.5971 779.69 82.2318C801.555 75.0504 818.943 63.5305 828.543 47.3192C838.132 31.1243 840.001 10.1588 830.655 -16.0389L803.406 -17.2463C807.171 0.0284065 804.772 14.5649 797.773 26.4427C789.191 41.0043 773.743 51.4873 754.483 58.1404C715.973 71.444 662.018 69.5109 616.359 54.0259C587.707 44.9257 562.726 50.868 536.886 57.0147L536.177 57.1833C510.1 63.385 483.132 69.647 450.844 60.4755C430.96 54.8252 420.657 47.2403 414.962 38.448C409.777 30.4421 408.458 21.4873 407.108 12.3166L407.108 12.3161L407.103 12.2839C406.977 11.4249 406.85 10.5641 406.72 9.70202C405.192 -0.404422 403.179 -10.7559 395.669 -20.6716C391.665 -25.959 386.084 -31.1389 378.149 -36.0881L327.646 -38.3257ZM327.646 -38.3257L327.643 -38.3266L327.484 -37.8529L327.646 -38.3257ZM380.149 -35.9995C387.401 -31.278 392.632 -26.3388 396.466 -21.2753C404.138 -11.1464 406.177 -0.577426 407.708 9.55255C407.839 10.4203 407.967 11.2845 408.094 12.1445C409.452 21.3515 410.741 30.0905 415.802 37.9044C421.317 46.421 431.368 53.9015 451.117 59.5135C483.129 68.6064 509.863 62.4134 535.945 56.2105L536.739 56.0217C562.527 49.887 587.747 43.8876 616.666 53.0743L616.675 53.0773C662.174 68.5088 715.898 70.4118 754.157 57.1952C773.283 50.5882 788.492 40.2216 796.911 25.935C803.796 14.2512 806.173 -0.109716 802.372 -17.2921L772.571 -18.6124C772.465 -9.77509 770.187 -1.89625 766.138 5.01678C758.742 17.6461 745.482 26.9773 728.963 33.0585C695.933 45.2181 649.682 44.4589 610.401 30.8901C584.796 22.4794 562.156 27.2107 538.967 32.1484L538.523 32.2429C515.493 37.1473 491.912 42.1691 464.552 34.3967C446.428 29.2453 436.714 22.6182 431.139 15.0463C425.818 7.81979 424.317 -0.211488 422.786 -8.40219C422.716 -8.77789 422.645 -9.15393 422.575 -9.53021C421.015 -17.8299 419.242 -26.305 413.383 -34.527L380.149 -35.9995ZM437.286 -33.4679L414.642 -34.4712C420.285 -26.2538 422.036 -17.8126 423.557 -9.71491C423.624 -9.35825 423.691 -9.00232 423.757 -8.64716C425.299 -0.407991 426.762 7.41568 431.944 14.4534C437.339 21.7805 446.819 28.3169 464.826 33.4348C491.946 41.1391 515.317 36.1622 538.385 31.2499L538.759 31.1703C561.929 26.2366 584.823 21.4343 610.717 29.9412L610.724 29.9437C649.826 43.4517 695.838 44.1873 728.618 32.12C745.004 26.0876 758.035 16.8745 765.275 4.51144C769.232 -2.24479 771.472 -9.96406 771.572 -18.6567L736.434 -20.2135C735.857 -18.9328 735.214 -17.6836 734.507 -16.4661C728.298 -5.77052 717.227 2.40883 703.449 7.91844C675.9 18.9351 637.35 19.3515 604.445 7.69731C582.148 0.0590915 562.04 3.38737 541.756 7.05735C541.195 7.15888 540.634 7.26069 540.072 7.36256C520.358 10.9377 500.413 14.5548 478.264 8.26139C461.899 3.60913 452.778 -2.05963 447.324 -8.4072C441.871 -14.754 440.138 -21.7249 438.435 -28.8121L438.353 -29.1539C438.008 -30.5875 437.663 -32.0263 437.286 -33.4679ZM439.311 -29.4456L439.313 -29.4379L439.313 -29.4372L439.407 -29.0458C441.113 -21.9469 442.805 -15.2012 448.083 -9.05887C453.359 -2.9173 462.272 2.6756 478.537 7.29947C500.46 13.5285 520.201 9.94904 539.956 6.36716L540.739 6.22529L541.578 6.07331C561.855 2.40473 582.201 -0.980581 604.772 6.75215L604.777 6.75386C637.479 18.3368 675.777 17.907 703.078 6.98992C716.726 1.53249 727.581 -6.52717 733.642 -16.9682C734.265 -18.0402 734.837 -19.1379 735.357 -20.2613L687.361 -22.3878C684.45 -20.5076 681.291 -18.8109 677.931 -17.3077C655.864 -7.43294 625.013 -5.8369 598.478 -15.5793C579.485 -22.4456 561.909 -20.5191 544.53 -18.1166C543.517 -17.9765 542.504 -17.8347 541.491 -17.693L541.474 -17.6906C525.155 -15.4066 508.929 -13.1356 491.965 -17.9571C477.362 -22.11 468.837 -26.8196 463.509 -31.9385C463.376 -32.0666 463.244 -32.1949 463.115 -32.3235L438.332 -33.4215C438.677 -32.087 438.995 -30.7607 439.311 -29.4456ZM677.523 -18.2205C680.38 -19.4991 683.085 -20.9165 685.608 -22.4655L464.629 -32.2564C469.822 -27.4473 478.109 -22.9371 492.238 -18.919C508.992 -14.1572 525.021 -16.3992 541.381 -18.6874C542.383 -18.8277 543.388 -18.9681 544.393 -19.1072C561.777 -21.5104 579.573 -23.4774 598.819 -16.5193L598.822 -16.5185C625.118 -6.86333 655.699 -8.45461 677.523 -18.2205Z"
      fill="url(#paint0_linear_7675_27099)"
    />
  </g>
  <defs>
    <linearGradient
      id="paint0_linear_7675_27099"
      x1="367.499"
      y1="-14.5"
      x2="367.497"
      y2="58"
      gradientUnits="userSpaceOnUse"
    >
      <stop stop-color="#28A0F0" />
      <stop offset="1" stop-color="#203D50" stop-opacity="0" />
    </linearGradient>
    <clipPath id="clip0_7675_27099">
      <rect width="552" height="102" fill="white" />
    </clipPath>
  </defs>
</svg>
