<svg width="561" height="98" viewBox="0 0 561 98" fill="none" xmlns="http://www.w3.org/2000/svg">
<g clip-path="url(#clip0_9283_65545)">
<path fill-rule="evenodd" clip-rule="evenodd" d="M709.94 403.03C635.14 426.606 555.209 448.788 450.741 419.336C398.48 404.603 374.839 381.912 363.886 354.6C358.418 340.967 356.125 326.216 354.979 310.794C354.32 301.912 354.039 292.769 353.755 283.485L353.755 283.482L353.755 283.48L353.755 283.478L353.755 283.476L353.755 283.473L353.755 283.471L353.755 283.47L353.755 283.468L353.755 283.466L353.755 283.464L353.755 283.463L353.755 283.461L353.755 283.46C353.546 276.663 353.335 269.79 352.971 262.887C351.244 230.142 346.068 196.354 321.458 164.814C296.841 133.267 252.726 103.899 172.967 80.142C93.0409 56.3347 42.8018 11.8301 16.8098 -41.648C-9.17697 -95.1158 -10.8986 -157.497 6.09575 -217.022C40.0784 -336.052 148.957 -443.835 288.733 -446.29C358.473 -447.515 405.95 -452.906 442.301 -462.846C478.636 -472.782 503.873 -487.269 529.126 -506.721C542.562 -517.071 556.01 -528.834 571.138 -542.067C612.889 -578.587 667.437 -626.301 769.867 -686.401C909.562 -768.366 1097.02 -752.396 1234.9 -685.929C1303.85 -652.693 1360.46 -606.807 1392.52 -554.161C1424.58 -501.496 1432.08 -442.068 1402.77 -381.85C1373.55 -321.817 1358.97 -280.279 1355.33 -246.578C1351.69 -212.908 1358.96 -187.028 1373.54 -158.291C1381.53 -142.549 1391.72 -125.944 1403.5 -106.736L1403.5 -106.735C1434.75 -55.7979 1477.23 13.4403 1519.68 133.414C1546.71 209.806 1541.98 269.135 1515.05 313.689C1488.14 358.229 1439.11 387.897 1377.75 405.114C1255.04 439.544 1082.78 424.251 938.395 378.16C858.86 355.782 792.252 376.919 721.922 399.237C717.941 400.5 713.948 401.767 709.94 403.03ZM721.675 398.266C791.961 375.96 858.839 354.735 938.674 377.2L938.682 377.202L938.691 377.205C1082.96 423.262 1255.02 438.511 1377.48 404.151C1438.7 386.972 1487.46 357.412 1514.2 313.172C1540.92 268.948 1545.7 209.95 1518.74 133.748C1476.33 13.884 1433.95 -55.1918 1402.7 -106.121C1390.9 -125.364 1380.68 -142.016 1372.65 -157.839C1358.01 -186.697 1350.67 -212.773 1354.34 -246.685C1358 -280.565 1372.64 -322.232 1401.87 -382.288C1431.01 -442.16 1423.58 -501.228 1391.66 -553.641C1359.74 -606.074 1303.3 -651.848 1234.47 -685.029C1096.79 -751.396 909.7 -767.287 770.373 -685.538C668.033 -625.491 613.595 -577.874 571.851 -541.36C556.702 -528.108 543.224 -516.319 529.736 -505.929C504.4 -486.413 479.048 -471.858 442.564 -461.881C406.096 -451.909 358.523 -446.516 288.751 -445.29C149.504 -442.844 40.9455 -335.446 7.0573 -216.748C-9.88375 -157.409 -8.14913 -95.2887 17.7093 -42.0851C43.5628 11.1081 93.5581 55.4453 173.253 79.1837C253.116 102.972 297.452 132.424 322.246 164.199C347.046 195.982 352.239 230.021 353.969 262.834C354.335 269.768 354.545 276.63 354.752 283.403L354.752 283.407L354.754 283.462L354.754 283.468L354.755 283.474L354.755 283.48L354.755 283.487L354.756 283.494C355.039 292.75 355.317 301.84 355.977 310.72C357.119 326.098 359.402 340.733 364.814 354.228C375.62 381.171 398.954 403.697 451.013 418.374C555.184 447.741 634.874 425.641 709.64 402.077C713.664 400.808 717.675 399.535 721.675 398.266ZM466.892 390.205C566.02 418.161 641.866 397.105 712.839 374.728C716.641 373.529 720.429 372.326 724.206 371.127C790.937 349.944 854.128 329.884 929.585 351.122C1066.58 394.871 1230.03 409.387 1346.46 376.706C1404.68 360.363 1451.21 332.2 1476.76 289.917C1502.31 247.619 1506.79 191.297 1481.15 118.784C1440.87 4.90551 1400.57 -60.8174 1370.92 -109.166C1359.73 -127.396 1350.07 -143.157 1342.49 -158.097C1328.66 -185.37 1321.76 -209.93 1325.21 -241.881C1328.67 -273.865 1342.5 -313.289 1370.22 -370.27C1398.03 -427.435 1390.92 -483.852 1360.49 -533.846C1330.07 -583.822 1276.36 -627.378 1210.94 -658.926C1080.1 -722.017 902.232 -737.177 769.677 -659.372C672.488 -602.326 620.729 -557.035 581.115 -522.371L581.113 -522.37L581.112 -522.369L581.107 -522.364L581.104 -522.362L581.104 -522.362C566.755 -509.806 554 -498.645 541.256 -488.825C517.297 -470.363 493.355 -456.614 458.884 -447.184C424.397 -437.75 379.352 -432.633 313.183 -431.47C180.548 -429.14 77.2336 -326.826 44.988 -213.838C28.8621 -157.334 30.4953 -98.117 55.1553 -47.3604C79.8203 3.40664 127.494 45.6533 203.336 68.2523C279.009 90.8012 320.861 118.674 344.213 148.612C367.558 178.542 372.469 210.606 374.107 241.685C374.453 248.237 374.653 254.761 374.851 261.213L374.851 261.214L374.851 261.216L374.851 261.217L374.851 261.218L374.851 261.22L374.851 261.221L374.851 261.222L374.851 261.224L374.851 261.225L374.851 261.226L374.851 261.228L374.851 261.229L374.851 261.231L374.851 261.233C375.121 270.047 375.387 278.726 376.013 287.157C377.1 301.796 379.276 315.801 384.465 328.744C394.862 354.677 417.3 376.219 466.892 390.205ZM929.864 350.162C854.108 328.836 790.646 348.984 723.958 370.157C720.163 371.362 716.357 372.57 712.538 373.774C641.6 396.14 565.995 417.115 467.163 389.242C417.775 375.314 395.642 353.936 385.394 328.372C380.26 315.567 378.094 301.679 377.011 287.083C376.385 278.655 376.121 270.029 375.852 261.245C375.655 254.787 375.454 248.245 375.106 241.633C373.464 210.485 368.537 178.171 345.001 147.997C321.472 117.831 279.399 89.8739 203.621 67.2939C128.012 44.764 80.5815 2.6848 56.0547 -47.7973C31.5231 -98.2898 29.877 -157.246 45.9496 -213.564C78.1008 -326.22 181.094 -428.149 313.2 -430.471C379.402 -431.634 424.542 -436.753 459.147 -446.219C493.768 -455.69 517.825 -469.507 541.866 -488.032C554.66 -497.891 567.442 -509.076 581.809 -521.647L581.809 -521.647L581.811 -521.649L581.815 -521.652L581.822 -521.659L581.828 -521.664L581.828 -521.664C621.436 -556.322 673.084 -601.517 770.183 -658.51C902.37 -736.098 1079.87 -721.017 1210.5 -658.026C1275.81 -626.533 1329.35 -583.088 1359.64 -533.326C1389.91 -483.584 1396.96 -427.527 1369.32 -370.707C1341.59 -313.703 1327.69 -274.151 1324.22 -241.989C1320.74 -209.795 1327.71 -185.039 1341.6 -157.645C1349.22 -142.625 1358.91 -126.817 1370.12 -108.551C1399.76 -60.2114 1439.97 5.34902 1480.21 119.117C1505.79 191.441 1501.25 247.432 1475.9 289.4C1450.54 331.383 1404.28 359.438 1346.19 375.743C1230.01 408.355 1066.77 393.882 929.881 350.167L929.873 350.164L929.864 350.162ZM715.625 347.512C648.338 368.738 576.426 388.712 482.439 362.193C435.419 348.925 414.138 328.489 404.278 303.882C399.357 291.602 397.294 278.315 396.263 264.429C395.67 256.442 395.417 248.218 395.161 239.869L395.161 239.867L395.161 239.865L395.161 239.863L395.161 239.861L395.161 239.859L395.161 239.858L395.161 239.856L395.161 239.854L395.161 239.852L395.161 239.851L395.161 239.849L395.161 239.847L395.161 239.845L395.161 239.835C394.973 233.709 394.783 227.516 394.456 221.298C392.903 191.82 388.248 161.414 366.12 133.031C343.985 104.641 304.314 78.2055 232.574 56.8186C160.667 35.3815 115.463 -4.69413 92.0756 -52.8543C68.6934 -101.004 67.1453 -157.178 82.4349 -210.778C113.008 -317.955 210.963 -415.011 336.722 -417.222C399.453 -418.325 442.155 -423.178 474.847 -432.126C507.524 -441.069 530.22 -454.108 552.931 -471.618C565.015 -480.934 577.11 -491.522 590.717 -503.435C628.273 -536.314 677.346 -579.275 769.489 -633.385C895.167 -707.189 1063.81 -692.807 1187.85 -632.963C1249.88 -603.038 1300.81 -561.721 1329.65 -514.314C1358.5 -466.888 1365.24 -413.366 1338.87 -359.136C1312.59 -305.09 1299.48 -267.699 1296.21 -237.367C1292.93 -207.067 1299.47 -183.777 1312.58 -157.912C1319.77 -143.743 1328.93 -128.795 1339.53 -111.504C1367.64 -65.645 1405.85 -3.30229 1444.04 104.715C1468.35 173.499 1464.1 226.929 1439.87 267.058C1415.65 307.171 1371.53 333.887 1316.33 349.389C1205.94 380.389 1050.98 366.619 921.096 325.122C849.567 304.98 789.665 324.005 726.4 344.098C722.82 345.235 719.229 346.375 715.625 347.512ZM726.152 343.127C789.374 323.046 849.546 303.933 921.375 324.162L921.384 324.164L921.392 324.167C1051.16 365.63 1205.92 379.357 1316.06 348.426C1371.13 332.962 1414.98 306.354 1439.02 266.541C1463.05 226.742 1467.34 173.643 1443.1 105.048C1404.95 -2.85893 1366.83 -65.0393 1338.73 -110.89C1328.11 -128.216 1318.92 -143.211 1311.69 -157.459C1298.52 -183.446 1291.91 -206.932 1295.21 -237.475C1298.51 -267.985 1311.68 -305.504 1337.97 -359.573C1364.18 -413.459 1357.49 -466.619 1328.79 -513.794C1300.08 -560.988 1249.33 -602.193 1187.42 -632.062C1063.58 -691.808 895.306 -706.11 769.996 -632.523C677.943 -578.466 628.981 -535.601 591.431 -502.728L591.43 -502.727C577.802 -490.796 565.678 -480.182 553.542 -470.826C530.748 -453.253 507.937 -440.145 475.111 -431.161C442.301 -422.181 399.503 -417.326 336.74 -416.222C211.51 -414.021 113.875 -317.351 83.3964 -210.503C68.1602 -157.09 69.7211 -101.177 92.9751 -53.2911C116.224 -5.41572 161.184 34.4923 232.86 55.8603C304.704 77.2784 344.597 103.798 366.908 132.416C389.226 161.043 393.898 191.7 395.455 221.245C395.785 227.518 395.975 233.724 396.162 239.849C396.417 248.18 396.667 256.361 397.26 264.355C398.288 278.197 400.34 291.367 405.206 303.51C414.919 327.748 435.894 348.02 482.711 361.23C576.401 387.666 648.072 367.773 715.324 346.559C718.944 345.417 722.551 344.271 726.149 343.128L726.152 343.127ZM495.602 338.664C585.238 363.976 653.821 344.911 717.989 324.653C721.393 323.578 724.785 322.5 728.167 321.426L728.234 321.404L728.263 321.395C788.597 302.218 845.715 284.063 913.92 303.284C1037.78 342.89 1185.57 356.033 1290.85 326.444C1343.49 311.648 1385.57 286.148 1408.67 247.857C1431.78 209.551 1435.84 158.55 1412.65 92.8986C1376.23 -10.1953 1339.78 -69.6987 1312.98 -113.467L1312.98 -113.468C1302.87 -129.969 1294.13 -144.234 1287.28 -157.754C1274.78 -182.437 1268.55 -204.661 1271.67 -233.574C1274.79 -262.519 1287.29 -298.201 1312.35 -349.782C1337.51 -401.547 1331.07 -452.636 1303.56 -497.905C1276.05 -543.155 1227.48 -582.591 1168.32 -611.152C1050.03 -668.27 889.197 -681.997 769.337 -611.554C681.464 -559.911 634.664 -518.906 598.849 -487.526C585.873 -476.158 574.34 -466.052 562.817 -457.162C541.161 -440.452 519.52 -428.01 488.362 -419.475C457.188 -410.936 416.468 -406.305 356.646 -405.252C236.706 -403.142 143.285 -310.503 114.127 -208.205C99.5453 -157.046 101.021 -103.428 123.322 -57.4677C145.628 -11.4974 188.742 26.7545 257.321 47.2157C325.732 67.6266 363.559 92.8542 384.663 119.945C405.761 147.028 410.2 176.042 411.681 204.173C411.993 210.094 412.174 215.992 412.353 221.825L412.353 221.828L412.353 221.83L412.353 221.832L412.353 221.835L412.353 221.837L412.353 221.839L412.353 221.842L412.353 221.844L412.353 221.847L412.353 221.85L412.353 221.852L412.353 221.855L412.353 221.858L412.353 221.861L412.353 221.864L412.353 221.872L412.354 221.879L412.354 221.886L412.354 221.894L412.355 221.902C412.599 229.869 412.839 237.717 413.404 245.338C414.387 258.592 416.355 271.276 421.049 282.999C430.455 306.492 450.756 326 495.602 338.664ZM914.199 302.324C845.694 283.015 788.305 301.258 728.016 320.424C724.583 321.515 721.142 322.609 717.688 323.699C653.555 343.946 585.212 362.93 495.874 337.702C451.232 325.096 431.236 305.752 421.977 282.627C417.338 271.041 415.381 258.475 414.401 245.264C413.835 237.635 413.597 229.828 413.354 221.877C413.176 216.032 412.995 210.109 412.679 204.121C411.195 175.922 406.739 146.657 385.452 119.33C364.171 92.0118 326.122 66.6996 257.607 46.2575C189.26 25.8656 146.39 -12.2186 124.222 -57.9043C102.049 -103.6 100.56 -156.958 115.089 -207.931C144.152 -309.899 237.253 -402.151 356.664 -404.252C416.518 -405.305 457.334 -409.94 488.626 -418.511C519.933 -427.086 541.689 -439.597 563.428 -456.37C575.003 -465.301 586.566 -475.432 599.563 -486.82C635.371 -518.194 682.061 -559.102 769.844 -610.692C889.335 -680.919 1049.8 -667.27 1167.89 -610.252C1226.93 -581.745 1275.32 -542.423 1302.7 -497.386C1330.07 -452.368 1336.44 -401.64 1311.45 -350.219C1286.38 -298.615 1273.82 -262.805 1270.67 -233.681C1267.53 -204.526 1273.83 -182.107 1286.39 -157.302C1293.28 -143.701 1302.05 -129.39 1312.18 -112.852C1338.98 -69.0932 1375.33 -9.75215 1411.7 93.2317C1434.83 158.694 1430.72 209.365 1407.81 247.341C1384.89 285.331 1343.08 310.723 1290.57 325.481C1185.55 355 1037.97 341.9 914.216 302.329L914.208 302.326L914.199 302.324ZM720.885 296.347C660.545 315.406 596.046 333.346 511.75 309.529C469.574 297.613 450.476 279.254 441.626 257.139C437.211 246.106 435.36 234.169 434.435 221.698C433.903 214.516 433.677 207.12 433.447 199.61C433.279 194.11 433.109 188.549 432.815 182.968C431.423 156.502 427.249 129.212 407.415 103.739C387.576 78.2574 352.012 54.5248 287.687 35.3223C223.193 16.0695 182.644 -19.9246 161.665 -63.1838C140.691 -106.433 139.304 -156.886 153.017 -205.025C180.437 -301.28 268.294 -388.45 381.094 -390.436C437.345 -391.427 475.632 -395.784 504.942 -403.817C534.237 -411.845 554.583 -423.55 574.945 -439.269C585.778 -447.632 596.623 -457.139 608.823 -467.834C642.502 -497.358 686.512 -535.94 769.145 -584.53C881.864 -650.812 1033.11 -637.894 1144.35 -584.153C1199.98 -557.279 1245.66 -520.174 1271.53 -477.594C1297.41 -434.995 1303.46 -386.918 1279.8 -338.205C1256.24 -289.676 1244.48 -256.109 1241.55 -228.881C1238.61 -201.686 1244.47 -180.782 1256.23 -157.564C1262.67 -144.845 1270.88 -131.426 1280.39 -115.903L1280.39 -115.901C1305.59 -74.7218 1339.87 -18.7337 1374.11 78.2646C1395.92 140.038 1392.11 188.032 1370.37 224.081C1348.64 260.116 1309.07 284.111 1259.56 298.032C1160.56 325.872 1021.58 313.506 905.107 276.242C840.981 258.161 787.279 275.239 730.545 293.282C727.335 294.302 724.116 295.326 720.885 296.347ZM730.297 292.311C786.988 274.28 840.96 257.113 905.387 275.282L905.395 275.284L905.404 275.287C1021.77 312.516 1160.53 324.84 1259.29 297.069C1308.66 283.185 1347.97 259.299 1369.51 223.565C1391.05 187.845 1394.91 140.182 1373.17 78.5975C1338.96 -18.2908 1304.79 -74.1167 1279.59 -115.287C1270.06 -130.847 1261.82 -144.313 1255.34 -157.112C1243.52 -180.452 1237.59 -201.551 1240.55 -228.989C1243.51 -256.394 1255.33 -290.09 1278.9 -338.642C1302.39 -387.011 1296.4 -434.727 1270.67 -477.075C1244.93 -519.441 1199.43 -556.434 1143.92 -583.252C1032.88 -636.895 882.002 -649.733 769.652 -583.668C687.11 -535.131 643.209 -496.646 609.538 -467.128C597.316 -456.414 586.441 -446.881 575.556 -438.478C555.111 -422.695 534.65 -410.922 505.207 -402.852C475.778 -394.787 437.395 -390.427 381.111 -389.436C268.841 -387.46 181.305 -300.676 153.979 -204.751C140.319 -156.799 141.719 -106.605 162.565 -63.6202C183.406 -20.6456 223.711 15.1806 287.973 34.364C352.403 53.5978 388.188 77.4152 408.204 103.124C428.227 128.841 432.418 156.382 433.813 182.915C434.108 188.524 434.278 194.071 434.445 199.546L434.445 199.55L434.447 199.605L434.447 199.611L434.448 199.617L434.448 199.624C434.676 207.103 434.901 214.446 435.433 221.624C436.354 234.052 438.194 245.872 442.554 256.768C451.257 278.514 470.05 296.708 512.022 308.567C596.021 332.3 660.279 314.442 720.584 295.393C723.821 294.371 727.047 293.345 730.264 292.321L730.28 292.316L730.297 292.311ZM524.898 285.998C604.844 308.608 666.014 291.577 723.235 273.485C726.289 272.52 729.33 271.551 732.363 270.586L732.378 270.581L732.394 270.576C786.196 253.449 837.114 237.241 897.917 254.401C1008.37 289.773 1140.17 301.513 1234.06 275.085C1281.01 261.869 1318.54 239.09 1339.15 204.878C1359.77 170.651 1363.39 125.086 1342.7 66.4458C1310.23 -25.6292 1277.73 -78.778 1253.82 -117.866C1244.81 -132.601 1237.02 -145.338 1230.91 -157.409C1219.77 -179.445 1214.21 -199.282 1216.99 -225.091C1219.78 -250.931 1230.92 -282.79 1253.27 -328.854C1275.71 -375.102 1269.97 -420.746 1245.42 -461.188C1220.89 -501.61 1177.57 -536.835 1124.81 -562.345C1019.31 -613.36 875.879 -625.623 768.979 -562.702C690.616 -516.578 648.878 -479.953 616.941 -451.929C605.372 -441.777 595.089 -432.754 584.817 -424.816C565.509 -409.897 546.219 -398.789 518.443 -391.169C490.651 -383.545 454.346 -379.409 401.004 -378.469C294.022 -376.584 210.7 -293.83 184.695 -202.455C171.69 -156.757 173.005 -108.859 192.898 -67.7999C212.796 -26.7304 251.254 7.44004 312.419 25.7169C373.416 43.9433 407.136 66.4685 425.945 90.6499C444.748 114.824 448.705 140.722 450.026 165.841C450.304 171.137 450.465 176.415 450.625 181.636L450.625 181.649L450.625 181.652C450.843 188.775 451.058 195.793 451.562 202.605C452.439 214.444 454.194 225.777 458.383 236.254C466.779 257.254 484.897 274.686 524.898 285.998ZM898.197 253.441C837.093 236.193 785.904 252.49 732.146 269.605C729.084 270.58 726.014 271.558 722.934 272.532C665.747 290.612 604.818 307.562 525.17 285.036C485.374 273.781 467.56 256.515 459.312 235.883C455.178 225.543 453.433 214.327 452.56 202.531C452.055 195.722 451.843 188.758 451.626 181.663L451.626 181.65C451.467 176.429 451.305 171.139 451.024 165.789C449.7 140.602 445.726 114.453 426.734 90.0359C407.748 65.6266 373.808 43.0165 312.706 24.7588C251.772 6.55136 213.558 -27.451 193.798 -68.2359C174.033 -109.031 172.704 -156.669 185.657 -202.181C211.568 -293.227 294.57 -375.593 401.021 -377.469C454.396 -378.41 490.797 -382.548 518.707 -390.205C546.633 -397.865 566.039 -409.042 585.428 -424.025C595.752 -432.003 606.064 -441.052 617.655 -451.222L617.655 -451.222L617.656 -451.223C649.586 -479.241 691.214 -515.769 769.486 -561.84C876.018 -624.545 1019.08 -612.36 1124.38 -561.445C1177.02 -535.99 1220.16 -500.878 1244.57 -460.669C1268.96 -420.479 1274.64 -375.194 1252.37 -329.291C1230.01 -283.204 1218.8 -251.216 1216 -225.198C1213.19 -199.148 1218.82 -179.116 1230.02 -156.957C1236.17 -144.807 1243.99 -132.023 1253.02 -117.252C1276.92 -78.1732 1309.33 -25.1867 1341.76 66.7784C1362.38 125.23 1358.72 170.465 1338.3 204.362C1317.87 238.274 1280.6 260.944 1233.79 274.122C1140.14 300.48 1008.56 288.784 898.213 253.446L898.205 253.444L898.197 253.441ZM725.92 247.357C672.243 264.343 614.855 280.335 539.853 259.106C502.325 248.483 485.319 232.112 477.439 212.385C473.508 202.544 471.861 191.901 471.039 180.785C470.565 174.384 470.364 167.79 470.159 161.096C470.01 156.194 469.858 151.239 469.597 146.268C468.359 122.686 464.647 98.3796 447.015 75.6914C429.376 52.9956 397.753 31.8505 340.539 14.7395C283.156 -2.42196 247.073 -34.5083 228.404 -73.0751C209.74 -111.632 208.506 -156.608 220.707 -199.518C245.104 -285.316 323.273 -363.021 423.643 -364.792C473.679 -365.674 507.732 -369.557 533.798 -376.714C559.849 -383.866 577.94 -394.293 596.049 -408.298C605.682 -415.749 615.327 -424.219 626.178 -433.749L626.18 -433.75C656.138 -460.062 695.294 -494.45 768.804 -537.755C869.093 -596.836 1003.65 -585.319 1102.62 -537.421C1152.11 -513.469 1192.75 -480.395 1215.77 -442.438C1238.8 -404.461 1244.19 -361.597 1223.13 -318.167C1202.17 -274.92 1191.72 -245.013 1189.11 -220.758C1186.5 -196.535 1191.71 -177.917 1202.16 -157.231C1207.89 -145.901 1215.19 -133.944 1223.65 -120.112L1223.65 -120.111C1246.07 -83.4129 1276.56 -33.5091 1307.03 52.9386C1326.43 107.999 1323.04 150.788 1303.69 182.932C1284.36 215.061 1249.14 236.451 1205.09 248.86C1117.01 273.674 993.376 262.651 889.76 229.441C832.734 213.332 784.979 228.547 734.51 244.627C731.656 245.536 728.793 246.448 725.92 247.357ZM734.261 243.656C784.687 227.588 832.713 212.284 890.04 228.481L890.049 228.483L890.057 228.486C993.562 261.662 1116.99 272.641 1204.82 247.897C1248.73 235.526 1283.68 214.245 1302.84 182.416C1321.99 150.602 1325.42 108.143 1306.08 53.271C1275.66 -33.0673 1245.26 -82.809 1222.85 -119.498L1222.85 -119.499C1214.37 -133.367 1207.04 -145.37 1201.27 -156.78C1190.76 -177.587 1185.48 -196.401 1188.11 -220.865C1190.74 -245.298 1201.26 -275.334 1222.23 -318.603C1243.12 -361.689 1237.79 -404.194 1214.91 -441.919C1192.02 -479.663 1151.56 -512.624 1102.18 -536.521C1003.42 -584.32 869.231 -595.757 769.311 -536.893C695.892 -493.641 656.846 -459.35 626.894 -433.045C616.021 -423.495 606.347 -414.998 596.661 -407.507C578.47 -393.439 560.263 -382.943 534.063 -375.75C507.878 -368.56 473.729 -364.675 423.661 -363.792C323.822 -362.031 245.972 -284.713 221.669 -199.245C209.521 -156.521 210.767 -111.804 229.304 -73.5108C247.835 -35.2284 283.675 -3.31045 340.825 13.7814C398.145 30.9238 429.989 52.154 447.804 75.0778C465.626 98.0093 469.354 122.567 470.596 146.216C470.86 151.241 471.011 156.208 471.161 161.109L471.161 161.121L471.161 161.125C471.364 167.783 471.563 174.319 472.036 180.711C472.855 191.784 474.492 202.311 478.368 212.014C486.101 231.373 502.802 247.579 540.126 258.144C614.83 279.289 671.976 263.379 725.618 246.404C728.508 245.489 731.389 244.571 734.261 243.656ZM554.212 233.335C624.467 253.242 678.224 238.245 728.498 222.319C731.188 221.467 733.867 220.613 736.539 219.761L736.54 219.761L736.541 219.76L736.542 219.76C783.813 204.683 828.53 190.421 881.931 205.521C978.98 236.659 1094.78 246.996 1177.29 223.728C1218.54 212.093 1251.54 192.035 1269.66 161.901C1287.78 131.753 1290.95 91.6253 1272.78 39.9955C1244.25 -41.0605 1215.68 -87.8546 1194.68 -122.262L1194.68 -122.265C1186.77 -135.232 1179.92 -146.44 1174.56 -157.06C1164.77 -176.451 1159.9 -193.901 1162.34 -216.605C1164.78 -239.34 1174.57 -267.377 1194.2 -307.924C1213.93 -348.654 1208.88 -388.854 1187.31 -424.467C1165.74 -460.062 1127.67 -491.075 1081.32 -513.534C988.617 -558.447 862.579 -569.247 768.637 -513.846C699.786 -473.242 663.109 -440.997 635.05 -416.328L635.049 -416.328C624.887 -407.393 615.854 -399.452 606.833 -392.468C589.875 -379.339 572.935 -369.565 548.541 -362.86C524.131 -356.151 492.241 -352.51 445.378 -351.683C351.355 -350.023 278.133 -277.155 255.28 -196.702C243.851 -156.465 245.006 -114.287 262.491 -78.1295C279.98 -41.961 313.783 -11.8719 367.535 4.22062C421.118 20.2626 450.729 40.0853 467.243 61.3573C483.752 82.6218 487.228 105.404 488.387 127.512C488.632 132.17 488.774 136.815 488.914 141.411C489.105 147.688 489.294 153.873 489.738 159.874C490.508 170.298 492.051 180.281 495.734 189.511C503.119 208.019 519.056 223.373 554.212 233.335ZM882.211 204.561C828.51 189.373 783.521 203.724 736.293 218.789C733.602 219.648 730.904 220.508 728.196 221.366C677.957 237.281 624.442 252.196 554.484 232.373C519.533 222.469 503.901 207.28 496.663 189.141C493.034 180.048 491.502 170.181 490.735 159.801C490.292 153.814 490.105 147.694 489.915 141.458L489.915 141.457L489.915 141.456L489.915 141.455L489.915 141.454L489.915 141.453L489.915 141.452L489.915 141.45L489.915 141.449L489.915 141.448L489.915 141.446L489.915 141.445L489.915 141.443L489.915 141.441L489.915 141.439L489.915 141.437L489.915 141.436L489.915 141.426L489.915 141.416L489.914 141.407L489.914 141.398L489.914 141.389L489.913 141.381L489.913 141.373L489.912 141.365L489.912 141.358L489.912 141.35L489.911 141.344L489.911 141.337L489.911 141.332C489.772 136.767 489.632 132.14 489.386 127.459C488.223 105.284 484.73 82.2518 468.033 60.7441C451.342 39.2439 421.51 19.3361 367.822 3.26264C314.302 -12.7602 280.743 -42.6806 263.391 -78.5648C246.033 -114.46 244.866 -156.378 256.242 -196.429C279.002 -276.553 351.905 -349.032 445.396 -350.683C492.291 -351.511 524.278 -355.154 548.806 -361.896C573.349 -368.642 590.405 -378.484 607.445 -391.677C616.519 -398.702 625.581 -406.669 635.765 -415.623C663.818 -440.286 700.384 -472.434 769.145 -512.985C862.718 -568.168 988.387 -557.447 1080.88 -512.635C1127.12 -490.231 1165.02 -459.331 1186.45 -423.949C1207.87 -388.586 1212.86 -348.746 1193.3 -308.36C1173.66 -267.79 1163.81 -239.625 1161.34 -216.712C1158.88 -193.767 1163.82 -176.122 1173.67 -156.61C1179.07 -145.909 1185.94 -134.654 1193.88 -121.65C1214.88 -87.2505 1243.34 -40.6185 1271.84 40.3275C1289.94 91.7689 1286.73 131.567 1268.8 161.386C1250.86 191.219 1218.14 211.168 1177.01 222.766C1094.76 245.963 979.166 235.67 882.228 204.566L882.22 204.564L882.211 204.561ZM731.075 197.28C684.203 212.147 634.077 226.148 568.568 207.563C535.785 198.262 520.917 183.925 514.027 166.637C510.591 158.016 509.153 148.694 508.434 138.963C508.021 133.361 507.845 127.586 507.666 121.726C507.535 117.436 507.403 113.1 507.176 108.754C506.095 88.1199 502.854 66.8629 487.47 47.022C472.079 27.1736 444.48 8.67351 394.529 -6.29946C344.407 -21.3231 312.886 -49.4149 296.575 -83.185C280.27 -116.945 279.194 -156.323 289.851 -193.888C311.159 -268.995 379.435 -337.026 467.111 -338.576C510.8 -339.348 540.528 -342.746 563.281 -349.007C586.018 -355.264 601.808 -364.385 617.615 -376.638C626.022 -383.155 634.441 -390.565 643.913 -398.903L643.915 -398.905L643.918 -398.907C670.078 -421.935 704.275 -452.036 768.468 -489.939C856.063 -541.659 973.581 -531.575 1060.01 -489.649C1103.23 -468.683 1138.73 -439.731 1158.84 -406.499C1178.96 -373.247 1183.66 -335.712 1165.27 -297.682C1146.97 -259.835 1137.85 -233.669 1135.57 -212.453C1133.29 -191.269 1137.84 -174.986 1146.96 -156.891C1151.96 -146.98 1158.33 -136.519 1165.71 -124.415C1185.29 -92.2969 1211.93 -48.6125 1238.53 27.0512C1255.47 75.2502 1252.52 112.718 1235.61 140.869C1218.72 169.007 1187.95 187.734 1149.48 198.596C1072.55 220.317 964.582 210.667 874.099 181.601C824.325 167.509 782.644 180.818 738.572 194.892C736.081 195.687 733.583 196.485 731.075 197.28ZM738.323 193.921C782.351 179.859 824.304 166.461 874.38 180.641L874.389 180.643L874.397 180.646C964.769 209.678 1072.53 219.284 1149.21 197.633C1187.54 186.809 1218.04 168.192 1234.76 140.355C1251.46 112.532 1254.47 75.3936 1237.59 27.3829C1211.02 -48.1706 1184.49 -91.6929 1164.91 -123.802L1164.91 -123.802C1157.51 -135.942 1151.1 -146.45 1146.07 -156.44C1136.88 -174.658 1132.27 -191.134 1134.57 -212.56C1136.87 -233.954 1146.06 -260.248 1164.37 -298.117C1182.6 -335.804 1177.95 -372.98 1157.98 -405.981C1138 -439 1102.68 -467.839 1059.57 -488.749C973.35 -530.575 856.202 -540.58 768.977 -489.078C704.874 -451.229 670.787 -421.224 644.634 -398.203L644.634 -398.203C635.138 -389.844 626.689 -382.406 618.228 -375.848C602.339 -363.531 586.433 -354.341 563.546 -348.043C540.675 -341.749 510.85 -338.349 467.129 -337.576C379.986 -336.035 312.028 -268.394 290.813 -193.615C280.209 -156.236 281.298 -117.116 297.476 -83.62C313.649 -50.134 344.928 -22.2111 394.816 -7.25734C444.873 7.74721 472.693 26.3326 488.26 46.4092C503.833 66.4933 507.09 88.0005 508.174 108.702C508.405 113.103 508.537 117.451 508.667 121.74L508.668 121.749C508.845 127.576 509.019 133.294 509.432 138.889C510.147 148.577 511.575 157.783 514.956 166.267C521.699 183.186 536.263 197.358 568.841 206.601C634.052 225.101 683.935 211.182 730.773 196.327C733.297 195.526 735.813 194.723 738.323 193.921ZM733.378 172.241C689.885 186.048 643.365 199.053 582.568 181.791C552.142 173.151 538.335 159.83 531.937 143.762C528.747 135.751 527.412 127.089 526.745 118.051C526.362 112.852 526.199 107.492 526.033 102.053L526.032 102.04L526.032 102.033C525.911 98.051 525.788 94.0274 525.577 89.9949C524.574 70.8346 521.568 51.1022 507.3 32.6848C493.026 14.2599 467.425 -2.91792 421.079 -16.822C374.563 -30.777 345.306 -56.8718 330.167 -88.244C315.033 -119.606 314.035 -156.185 323.925 -191.078C343.7 -260.841 407.064 -324.035 488.437 -325.475C528.974 -326.192 556.555 -329.348 577.663 -335.161C598.755 -340.971 613.403 -349.439 628.067 -360.815C635.866 -366.866 643.677 -373.747 652.465 -381.49L652.469 -381.494L652.47 -381.494C676.744 -402.879 708.479 -430.838 768.046 -466.04C849.337 -514.08 958.395 -504.712 1038.6 -465.772C1078.71 -446.299 1111.65 -419.407 1130.32 -388.537C1148.99 -357.648 1153.36 -322.776 1136.29 -287.446C1119.3 -252.299 1110.84 -228.003 1108.73 -208.306C1106.62 -188.641 1110.83 -173.526 1119.3 -156.725C1123.93 -147.524 1129.85 -137.811 1136.69 -126.573L1136.69 -126.571C1154.86 -96.7428 1179.58 -56.1676 1204.26 14.1046C1219.99 58.8734 1217.25 93.6807 1201.56 119.837C1185.87 145.979 1157.31 163.374 1121.61 173.463C1050.22 193.638 950.03 184.674 866.068 157.679C819.894 144.596 781.228 156.953 740.333 170.023C738.022 170.762 735.705 171.502 733.378 172.241ZM740.084 169.053C780.936 155.994 819.873 143.548 866.349 156.72L866.357 156.722L866.366 156.725C950.217 183.685 1050.2 192.605 1121.34 172.501C1156.9 162.45 1185.19 145.164 1200.7 119.322C1216.19 93.4951 1218.98 59.0167 1203.32 14.4361C1178.67 -55.7265 1154.06 -96.1397 1135.89 -125.959L1135.89 -125.959L1135.89 -125.962C1129.02 -137.236 1123.08 -146.995 1118.4 -156.275C1109.88 -173.198 1105.6 -188.506 1107.73 -208.413C1109.87 -228.287 1118.39 -252.711 1135.39 -287.881C1152.29 -322.868 1147.98 -357.381 1129.46 -388.019C1110.93 -418.677 1078.16 -445.455 1038.16 -464.872C958.164 -503.712 849.476 -513 768.555 -465.179C709.077 -430.03 677.453 -402.169 653.186 -380.789C644.374 -373.026 636.532 -366.118 628.68 -360.025C613.934 -348.585 599.171 -340.048 577.929 -334.197C556.702 -328.351 529.025 -325.193 488.455 -324.475C407.615 -323.045 344.57 -260.241 324.887 -190.805C315.049 -156.098 316.06 -119.777 331.067 -88.6786C346.069 -57.5905 375.084 -31.6648 421.366 -17.7799C467.818 -3.8441 493.639 13.4192 508.09 32.0723C522.547 50.7329 525.569 70.7154 526.576 89.9426C526.79 94.0269 526.912 98.0606 527.033 102.039L527.033 102.042L527.033 102.054L527.034 102.06L527.034 102.061C527.198 107.472 527.359 112.781 527.743 117.977C528.406 126.973 529.731 135.518 532.866 143.392C539.118 159.092 552.621 172.247 582.842 180.829C643.339 198.007 689.617 185.083 733.076 171.288C735.419 170.544 737.755 169.797 740.084 169.053ZM736.191 148.551C695.599 161.09 652.338 172.972 596.292 157.058C567.621 148.916 554.396 136.55 548.115 121.691C544.984 114.283 543.592 106.287 542.844 97.9511C542.395 92.94 542.176 87.7736 541.954 82.5329L541.954 82.531L541.954 82.5276L541.954 82.5247L541.953 82.522L541.953 82.5199L541.952 82.4903C541.806 79.0496 541.659 75.5772 541.444 72.0958C540.354 54.4461 537.513 36.2782 524.372 19.2788C511.226 2.27254 487.717 -13.6323 445.139 -26.6106L445.276 -27.0597L445.139 -26.6108C402.294 -39.7146 375.212 -64.0261 361.117 -93.1961C347.027 -122.356 345.94 -156.318 354.981 -188.693C373.057 -253.422 431.674 -311.971 508.187 -313.28C546.071 -313.932 571.839 -316.899 591.536 -322.341C611.218 -327.78 624.859 -335.694 638.484 -346.275C645.631 -351.825 652.78 -358.116 660.795 -365.169L660.796 -365.17C683.356 -385.023 712.781 -410.915 768.353 -443.339C843.819 -487.369 944.63 -478.727 1018.82 -442.721C1055.92 -424.715 1086.41 -399.842 1103.76 -371.227C1121.12 -342.594 1125.32 -310.216 1109.79 -277.299L1109.79 -277.297C1094.35 -245.053 1086.65 -222.639 1084.74 -204.368C1082.82 -186.127 1086.67 -171.982 1094.41 -156.257C1098.75 -147.44 1104.33 -138.119 1110.79 -127.305C1127.4 -99.5288 1149.91 -61.9018 1172.54 2.33133C1187.01 43.4269 1184.45 75.5306 1169.94 99.7578C1155.43 123.97 1129.06 140.213 1096.1 149.73C1030.19 168.759 937.705 160.966 860.128 135.891C816.889 123.482 780.53 134.778 742.151 146.702L742.135 146.707C740.159 147.321 738.178 147.937 736.191 148.551ZM741.913 145.729C780.247 133.817 816.875 122.434 860.412 134.932L860.419 134.934L860.427 134.936C937.888 159.976 1030.16 167.726 1095.82 148.769C1128.64 139.292 1154.75 123.159 1169.08 99.244C1183.39 75.3437 1186 43.5682 1171.6 2.66349C1149 -61.4665 1126.6 -98.9283 1109.99 -126.693L1109.99 -126.694C1103.5 -137.544 1097.9 -146.914 1093.51 -155.815C1085.71 -171.66 1081.8 -185.996 1083.74 -204.473C1085.68 -222.919 1093.44 -245.459 1108.89 -277.727C1124.25 -310.302 1120.12 -342.325 1102.91 -370.709C1085.69 -399.111 1055.37 -423.871 1018.38 -441.821C944.401 -477.727 843.956 -486.291 768.857 -442.475C713.378 -410.106 684.064 -384.31 661.509 -364.463C653.473 -357.391 646.295 -351.074 639.097 -345.485C625.39 -334.841 611.634 -326.857 591.802 -321.378C571.986 -315.902 546.122 -312.932 508.204 -312.28C432.221 -310.98 373.927 -252.819 355.944 -188.424C346.956 -156.236 348.053 -122.531 362.017 -93.6312C375.977 -64.7414 402.82 -40.5995 445.431 -27.567C488.114 -14.5565 511.842 1.43438 525.163 18.6672C538.49 35.9069 541.348 54.3215 542.442 72.0341C542.661 75.5745 542.809 79.0754 542.955 82.5323C543.176 87.748 543.392 92.8633 543.84 97.8617C544.584 106.151 545.963 114.031 549.036 121.302C555.165 135.801 568.091 148.01 596.565 156.096C652.314 171.926 695.335 160.125 735.896 147.595C737.842 146.994 739.783 146.391 741.719 145.789L741.846 145.75L741.913 145.729ZM610.001 132.323C661.296 146.89 701.298 136.131 738.989 124.859C740.637 124.366 742.28 123.872 743.92 123.379L743.942 123.373C779.806 112.597 813.866 102.363 854.173 114.1C925.365 137.257 1010.14 143.878 1070.57 125.994C1100.79 117.051 1124.98 101.96 1138.3 79.677C1151.63 57.3788 1154.01 27.9789 1140.8 -9.44375L1140.8 -9.44409C1120.23 -67.616 1099.94 -102.274 1084.89 -127.986L1084.89 -127.987C1078.8 -138.399 1073.56 -147.344 1069.51 -155.79C1062.49 -170.439 1059.01 -183.616 1060.73 -200.433C1062.45 -217.278 1069.39 -237.809 1083.28 -267.15L1083.28 -267.156C1097.26 -297.659 1093.24 -327.543 1077.2 -353.919C1061.16 -380.278 1033.12 -403.132 999.024 -419.672C930.851 -452.745 838.286 -460.66 768.647 -420.64C717.076 -391.004 689.965 -367.178 669.118 -348.857L669.116 -348.856L669.114 -348.854L669.113 -348.853C661.869 -342.487 655.381 -336.785 648.886 -331.736C636.3 -321.951 623.667 -314.59 605.395 -309.524C587.108 -304.452 563.154 -301.673 527.923 -301.086C456.269 -299.908 402.4 -246.006 386.023 -186.309C377.832 -156.452 379.007 -125.108 392.053 -98.15C405.104 -71.1825 430.011 -48.6542 469.184 -36.4013L469.185 -36.401C507.994 -24.3486 529.412 -9.71681 541.43 5.87102C553.444 21.4527 556.12 38.0563 557.297 54.1959C557.513 57.1477 557.678 60.0915 557.842 63.0119L557.843 63.0308C558.126 68.0675 558.406 73.0342 558.929 77.8513C559.758 85.4847 561.206 92.815 564.28 99.6202C570.443 113.269 583.086 124.68 610.001 132.323ZM854.46 113.142C813.86 101.317 779.535 111.632 743.717 122.396L743.708 122.399C742.043 122.899 740.374 123.401 738.702 123.901C701.038 135.165 661.275 145.844 610.274 131.361C583.545 123.771 571.197 112.509 565.191 99.2086C562.179 92.5396 560.747 85.3267 559.923 77.7433C559.402 72.9472 559.126 68.0317 558.844 63.0172C558.68 60.085 558.513 57.119 558.295 54.1231C557.113 37.9255 554.419 21.079 542.222 5.26043C530.03 -10.552 508.397 -25.2706 469.482 -37.356C430.543 -49.536 405.871 -71.8939 392.953 -98.5857C380.031 -125.287 378.848 -156.376 386.987 -186.044C403.27 -245.398 456.813 -298.917 527.939 -300.087C563.205 -300.674 587.256 -303.456 605.662 -308.56C624.084 -313.668 636.833 -321.098 649.5 -330.946C656.044 -336.034 662.562 -341.762 669.828 -348.147C690.669 -366.463 717.671 -390.193 769.145 -419.773C838.421 -459.584 930.623 -451.744 998.587 -418.772C1032.56 -402.289 1060.43 -379.547 1076.34 -353.399C1092.24 -327.27 1096.2 -297.738 1082.38 -267.576C1068.47 -238.209 1061.47 -217.553 1059.73 -200.535C1057.99 -183.488 1061.53 -170.124 1068.61 -155.358C1072.7 -146.821 1077.97 -137.826 1084.08 -127.377L1084.09 -127.373L1084.09 -127.373C1099.13 -101.677 1119.32 -67.1885 1139.86 -9.11105C1153 28.1176 1150.58 57.1905 1137.44 79.164C1124.3 101.152 1100.37 116.132 1070.29 125.036C1010.11 142.845 925.545 136.265 854.475 113.146L854.467 113.144L854.46 113.142ZM741.78 101.166C706.992 111.171 670.248 120.806 623.704 107.588C598.546 100.443 586.486 89.9877 580.44 77.5504C575.422 67.2297 574.577 55.5801 573.703 43.5355L573.703 43.5272C573.529 41.1301 573.354 38.7174 573.145 36.2964C571.88 21.6665 569.37 6.62676 558.483 -7.53748C547.591 -21.7071 528.265 -35.0659 493.225 -46.1923L493.223 -46.1928C457.721 -57.5948 434.99 -78.3398 422.983 -103.105C410.981 -127.86 409.718 -156.586 417.059 -183.925C431.737 -238.59 480.86 -287.846 547.653 -288.894C580.231 -289.415 602.371 -292.006 619.248 -296.706C636.109 -301.402 647.736 -308.208 659.283 -317.197C665.131 -321.75 670.964 -326.868 677.446 -332.557C696.58 -349.347 721.373 -371.104 768.935 -397.943C832.749 -433.952 917.066 -426.763 979.223 -396.623C1010.31 -381.55 1035.9 -360.715 1050.62 -336.612C1065.36 -312.492 1069.2 -285.102 1056.77 -257.013L1056.77 -257.004C1044.42 -230.566 1038.24 -211.917 1036.72 -196.498C1035.19 -181.105 1038.3 -168.896 1044.61 -155.323C1048.38 -147.193 1053.28 -138.606 1059.02 -128.562C1062.89 -121.783 1067.14 -114.339 1071.67 -105.925C1082.92 -85.0753 1095.87 -58.3526 1109.06 -21.2201L1109.06 -21.2196C1121 12.5306 1118.8 39.2266 1106.66 59.5955C1094.53 79.949 1072.52 93.8878 1045.04 102.258C990.09 118.997 913.02 113.547 848.212 92.3085C810.833 81.2398 779.063 90.4081 745.711 100.033C744.403 100.411 743.093 100.789 741.78 101.166ZM745.501 99.053C778.806 89.4398 810.835 80.1951 848.503 91.3517L848.51 91.3537L848.517 91.3559C913.195 112.553 990.05 117.963 1044.75 101.302C1072.09 92.9722 1093.84 79.1458 1105.8 59.0834C1117.75 39.0365 1119.99 12.6662 1108.12 -20.886C1094.95 -57.9622 1082.02 -84.6378 1070.79 -105.45C1066.29 -113.805 1062.05 -121.229 1058.18 -128.007L1058.18 -128.008L1058.18 -128.012L1058.18 -128.013C1052.42 -138.093 1047.49 -146.744 1043.7 -154.901C1037.34 -168.59 1034.18 -180.98 1035.72 -196.597C1037.26 -212.187 1043.5 -230.958 1055.86 -257.423C1068.14 -285.174 1064.35 -312.216 1049.77 -336.091C1035.17 -359.984 1009.75 -380.707 978.787 -395.723C916.839 -425.762 832.88 -432.878 769.427 -397.072C721.966 -370.29 697.281 -348.629 678.152 -331.843C671.651 -326.138 665.791 -320.996 659.897 -316.408C648.27 -307.356 636.528 -300.48 619.516 -295.743C602.52 -291.01 580.282 -288.416 547.668 -287.894C481.398 -286.855 432.608 -237.977 418.024 -183.666C410.735 -156.517 412.003 -128.044 423.883 -103.541C435.759 -79.0466 458.26 -58.4724 493.528 -47.1452C528.674 -35.9848 548.214 -22.5386 559.275 -8.14689C570.341 6.25021 572.871 21.5282 574.141 36.2102C574.353 38.6679 574.531 41.106 574.706 43.5189C575.582 55.5617 576.413 66.9816 581.339 77.1132C587.222 89.2145 598.994 99.5305 623.977 106.626C670.23 119.761 706.736 110.204 741.503 100.205C742.816 99.8279 744.126 99.4497 745.434 99.0721L745.501 99.053ZM637.42 82.8499C679.213 94.7191 712.699 86.2081 744.584 77.4711C745.548 77.2069 746.511 76.9424 747.472 76.6784C778.316 68.2075 807.805 60.1085 842.265 70.5137C900.689 89.8338 970.053 94.1117 1019.52 78.5188C1044.26 70.7209 1064.08 57.934 1075.03 39.5106C1085.99 21.0714 1088.01 -2.92069 1077.33 -32.9987L1077.33 -32.9995C1065.41 -66.3784 1053.81 -90.5788 1043.78 -109.574C1039.99 -116.735 1036.44 -123.145 1033.19 -129.024L1033.19 -129.028L1033.18 -129.038L1033.17 -129.052L1033.17 -129.053L1033.17 -129.054C1028.79 -136.964 1024.94 -143.912 1021.78 -150.432L1012.69 -192.299C1012.7 -192.388 1012.71 -192.478 1012.72 -192.567C1014.05 -206.561 1019.46 -223.327 1030.26 -246.862L1030.27 -246.869L1030.27 -246.876C1041.15 -272.55 1037.48 -297.445 1024.06 -319.308C1010.65 -341.155 987.512 -359.971 959.436 -373.578C903.294 -400.785 827.224 -407.247 769.238 -375.248C725.696 -351.221 703.224 -331.535 685.803 -316.273L685.802 -316.273C680.077 -311.257 674.896 -306.719 669.693 -302.662C659.185 -294.469 648.565 -288.216 633.114 -283.892C617.648 -279.563 597.321 -277.161 567.396 -276.705C505.464 -275.788 461.087 -231.178 448.108 -181.544C441.617 -156.722 442.969 -130.615 453.927 -108.062C464.889 -85.5008 485.445 -66.5391 517.275 -55.9878L517.278 -55.987C548.548 -45.7867 565.784 -33.7011 575.548 -20.9494C585.309 -8.20206 587.653 5.27423 589.006 18.3952C589.201 20.2937 589.376 22.1869 589.55 24.0704C590.575 35.1663 591.568 45.927 596.615 55.4794C602.544 66.7038 614.02 76.2027 637.42 82.8499ZM1032.33 -128.51C1028.72 -135.032 1025.45 -140.919 1022.64 -146.448L1043.1 -52.1884C1033.35 -78.3649 1024 -98.0174 1015.87 -113.816C1012.85 -119.692 1010 -125.026 1007.36 -129.961L1007.36 -129.964L1007.36 -129.971C1002.3 -139.448 998.02 -147.452 994.815 -154.984C989.952 -166.407 987.579 -176.681 988.71 -189.23C989.82 -201.543 994.308 -216.079 1003.2 -236.064L1012.03 -195.372C1013.78 -208.977 1019.22 -225.194 1029.35 -247.273C1040.09 -272.612 1036.48 -297.165 1023.21 -318.785C1009.93 -340.424 986.959 -359.128 959 -372.678C903.069 -399.783 827.352 -406.175 769.721 -374.373C726.284 -350.403 703.921 -330.813 686.504 -315.556L686.501 -315.553L686.498 -315.551L686.497 -315.55L686.495 -315.548L686.494 -315.547L686.487 -315.541C680.75 -310.516 675.549 -305.96 670.308 -301.873C659.72 -293.618 648.985 -287.296 633.384 -282.929C617.797 -278.567 597.373 -276.162 567.411 -275.705C505.996 -274.795 461.959 -230.56 449.075 -181.291C442.635 -156.662 443.989 -130.805 454.827 -108.499C465.66 -86.2023 485.991 -67.4121 517.588 -56.9378C548.966 -46.7023 566.41 -34.5281 576.342 -21.5573C586.277 -8.58216 588.643 5.1268 590 18.2926C590.198 20.2071 590.374 22.108 590.548 23.9925L590.55 24.012C591.578 35.1175 592.554 45.6513 597.499 55.0123C603.259 65.9167 614.456 75.2869 637.694 81.888C679.199 93.6755 712.448 85.24 744.319 76.5066C745.307 76.2359 746.294 75.9649 747.279 75.6943C778.074 67.2354 807.817 59.0656 842.56 69.5583L842.573 69.5621C900.859 88.8382 970.004 93.0786 1019.22 77.5651C1043.83 69.8095 1063.4 57.1363 1074.18 38.9997C1084.95 20.8791 1087 -2.78879 1076.39 -32.6641C1064.49 -65.9894 1052.91 -90.1455 1042.89 -109.108C1039.13 -116.228 1035.59 -122.628 1032.33 -128.51ZM1002.84 -237.702L1003.2 -236.064C1003.38 -236.478 1003.57 -236.895 1003.75 -237.314L1003.76 -237.323L1003.76 -237.332C1013.09 -260.592 1009.6 -282.991 997.492 -302.598C985.395 -322.188 964.707 -338.986 939.639 -351.125C889.513 -375.399 821.691 -381.134 769.533 -353.148C730.021 -331.948 709.877 -314.335 694.168 -300.6C689.19 -296.247 684.657 -292.284 680.094 -288.719C670.625 -281.323 661.012 -275.624 646.971 -271.671C632.915 -267.713 614.403 -265.499 587.13 -265.108C530.06 -264.322 490.428 -224.359 479.148 -179.756C473.507 -157.451 474.948 -133.962 484.862 -113.613C494.779 -93.2554 513.158 -76.0771 541.317 -66.3762L541.32 -66.3752C568.822 -57.101 583.968 -46.2886 592.605 -34.9545C601.239 -23.6234 603.418 -11.71 604.858 -0.0970192C605.028 1.27832 605.189 2.65063 605.348 4.01797L605.35 4.035C606.533 14.1736 607.684 24.0369 612.783 32.818C618.595 42.8275 629.485 51.3697 651.128 57.5186C688.169 68.039 718.395 60.6523 747.377 53.1829C747.983 53.0266 748.589 52.8702 749.195 52.714C777.534 45.402 804.758 38.3776 836.308 48.1257C888.349 65.528 950.008 68.6338 993.998 54.1858C1016 46.9604 1033.63 35.3255 1043.4 18.8326C1053.18 2.32339 1055.01 -18.9645 1045.59 -45.371L1045.59 -45.3721C1044.76 -47.6924 1043.93 -49.964 1043.1 -52.1884L1044.65 -45.035C1034.02 -74.6097 1023.78 -96.2467 1014.98 -113.359C1011.98 -119.192 1009.14 -124.507 1006.51 -129.436C1001.43 -138.947 997.118 -147.018 993.894 -154.592C988.986 -166.124 986.564 -176.566 987.714 -189.32C988.862 -202.051 993.566 -217.053 1002.84 -237.714L1002.83 -237.705L1002.84 -237.702ZM1002.84 -237.702L1003.3 -237.519L1002.84 -237.723L1002.84 -237.714L1002.84 -237.702ZM541.642 -67.3218C569.25 -58.0114 584.599 -47.1097 593.4 -35.5606C602.204 -24.008 604.406 -11.8687 605.85 -0.220066C606.023 1.16934 606.184 2.55053 606.345 3.92236L606.345 3.92547C607.533 14.0864 608.66 23.7274 613.647 32.3158C619.285 42.0251 629.908 50.4502 651.401 56.5566C688.16 66.9967 718.151 59.6827 747.127 52.2145C747.76 52.0516 748.391 51.8886 749.023 51.7256C777.312 44.4257 804.783 37.3368 836.609 47.172L836.62 47.1755C888.512 64.5296 949.948 67.601 993.686 53.2357C1015.55 46.0543 1032.94 34.5344 1042.54 18.3231C1052.13 2.12823 1054 -18.8373 1044.65 -45.035L1017.4 -46.2423C1021.17 -28.9677 1018.77 -14.4312 1011.77 -2.55341C1003.19 12.0082 987.739 22.4912 968.479 29.1443C929.969 42.4479 876.014 40.5148 830.355 25.0298C801.703 15.9296 776.722 21.8719 750.882 28.0186L750.173 28.1872C724.096 34.3889 697.129 40.6509 664.84 31.4794C644.956 25.8291 634.653 18.2442 628.958 9.4519C623.773 1.44604 622.454 -7.50879 621.104 -16.6795L621.104 -16.68L621.099 -16.7122C620.973 -17.5712 620.846 -18.432 620.716 -19.2941C619.188 -29.4005 617.175 -39.752 609.665 -49.6677C605.661 -54.9551 600.08 -60.135 592.146 -65.0842L541.642 -67.3218ZM541.642 -67.3218L541.639 -67.3227L541.48 -66.8489L541.642 -67.3218ZM594.145 -64.9955C601.397 -60.2741 606.628 -55.3349 610.463 -50.2714C618.134 -40.1425 620.173 -29.5735 621.704 -19.4435C621.836 -18.5757 621.963 -17.7116 622.09 -16.8516C623.448 -7.64456 624.737 1.09442 629.798 8.90829C635.313 17.425 645.364 24.9054 665.113 30.5174C697.125 39.6104 723.859 33.4173 749.942 27.2144L750.735 27.0256C776.524 20.8909 801.743 14.8915 830.662 24.0782L830.671 24.0812C876.17 39.5127 929.894 41.4157 968.153 28.1991C987.279 21.5921 1002.49 11.2255 1010.91 -3.06113C1017.79 -14.7448 1020.17 -29.1058 1016.37 -46.2882L986.567 -47.6085C986.461 -38.7712 984.183 -30.8923 980.134 -23.9793C972.739 -11.35 959.478 -2.01881 942.959 4.0624C909.929 16.222 863.678 15.4628 824.397 1.89402C798.793 -6.51668 776.152 -1.78536 752.963 3.15229L752.519 3.24677C729.489 8.15122 705.908 13.173 678.548 5.40061C660.424 0.249207 650.71 -6.37793 645.135 -13.9498C639.814 -21.1763 638.313 -29.2076 636.782 -37.3983C636.712 -37.774 636.641 -38.15 636.571 -38.5263C635.011 -46.826 633.238 -55.3011 627.379 -63.5231L594.145 -64.9955ZM651.282 -62.464L628.639 -63.4673C634.281 -55.2499 636.032 -46.8087 637.554 -38.711C637.621 -38.3543 637.687 -37.9984 637.754 -37.6433C639.295 -29.4041 640.758 -21.5804 645.94 -14.5427C651.335 -7.21555 660.815 -0.679169 678.822 4.43866C705.942 12.143 729.313 7.16611 752.381 2.25379L752.755 2.17423C775.925 -2.75948 798.819 -7.56182 824.713 0.945141L824.72 0.947582C863.822 14.4556 909.835 15.1912 942.614 3.12395C959 -2.90849 972.032 -12.1216 979.272 -24.4847C983.228 -31.2409 985.468 -38.9602 985.568 -47.6528L950.43 -49.2096C949.854 -47.9289 949.21 -46.6797 948.503 -45.4622C942.294 -34.7666 931.224 -26.5873 917.446 -21.0776C889.896 -10.061 851.346 -9.64461 818.442 -21.2988C796.144 -28.937 776.037 -25.6087 755.752 -21.9387C755.191 -21.8372 754.63 -21.7354 754.068 -21.6335C734.354 -18.0584 714.409 -14.4413 692.26 -20.7347C675.895 -25.387 666.774 -31.0557 661.32 -37.4033C655.867 -43.7501 654.134 -50.721 652.431 -57.8082L652.349 -58.15C652.004 -59.5836 651.659 -61.0224 651.282 -62.464ZM653.307 -58.4417L653.309 -58.434L653.309 -58.4333L653.403 -58.0419C655.109 -50.943 656.801 -44.1973 662.079 -38.055C667.355 -31.9134 676.269 -26.3205 692.533 -21.6966C714.456 -15.4676 734.197 -19.0471 753.952 -22.6289L754.735 -22.7708L755.574 -22.9228C775.851 -26.5914 796.197 -29.9767 818.768 -22.2439L818.773 -22.2422C851.475 -10.6593 889.774 -11.0891 917.074 -22.0062C930.722 -27.4636 941.577 -35.5233 947.639 -45.9643C948.261 -47.0363 948.833 -48.134 949.353 -49.2574L901.357 -51.3839C898.446 -49.5037 895.287 -47.807 891.927 -46.3038C869.86 -36.429 839.009 -34.833 812.474 -44.5754C793.481 -51.4417 775.905 -49.5152 758.526 -47.1127C757.513 -46.9726 756.5 -46.8308 755.487 -46.689L755.47 -46.6867C739.151 -44.4027 722.925 -42.1317 705.961 -46.9532C691.358 -51.106 682.833 -55.8157 677.505 -60.9346C677.372 -61.0627 677.241 -61.191 677.111 -61.3196L652.328 -62.4176C652.673 -61.0831 652.991 -59.7567 653.307 -58.4417ZM891.519 -47.2166C894.376 -48.4952 897.081 -49.9126 899.604 -51.4616L678.626 -61.2525C683.818 -56.4434 692.105 -51.9332 706.234 -47.9151C722.988 -43.1533 739.017 -45.3953 755.377 -47.6835C756.38 -47.8238 757.384 -47.9642 758.389 -48.1033C775.773 -50.5065 793.569 -52.4735 812.815 -45.5154L812.818 -45.5145C839.114 -35.8594 869.695 -37.4507 891.519 -47.2166Z" fill="url(#paint0_linear_9283_65545)" fill-opacity="0.15"/>
</g>
<defs>
<linearGradient id="paint0_linear_9283_65545" x1="596.496" y1="-3.99998" x2="596.496" y2="54" gradientUnits="userSpaceOnUse">
<stop stop-color="#28A0F0"/>
<stop offset="1" stop-color="#2D2E33"/>
</linearGradient>
<clipPath id="clip0_9283_65545">
<rect width="1140" height="98" fill="white"/>
</clipPath>
</defs>
</svg>
