<svg viewBox="0 0 364 179" fill="none" xmlns="http://www.w3.org/2000/svg">
<g clip-path="url(#clip0_3940_76345)">
<mask id="path-1-inside-1_3940_76345" fill="white">
<path d="M0 0H364V179H0V0Z"/>
</mask>
<path d="M0 0H364V179H0V0Z" fill="#34353B"/>
<path fill-rule="evenodd" clip-rule="evenodd" d="M7.94477 438.026C-66.8559 461.602 -146.787 483.784 -251.254 454.332C-303.516 439.599 -327.156 416.908 -338.11 389.596C-343.577 375.964 -345.871 361.212 -347.016 345.79C-347.676 336.908 -347.956 327.766 -348.241 318.481L-348.241 318.478L-348.241 318.476L-348.241 318.474L-348.241 318.472L-348.241 318.469L-348.241 318.468L-348.241 318.466L-348.241 318.464L-348.241 318.462L-348.241 318.46L-348.241 318.459L-348.241 318.457L-348.241 318.456C-348.45 311.659 -348.661 304.786 -349.025 297.883C-350.751 265.138 -355.928 231.35 -380.538 199.81C-405.154 168.263 -449.27 138.895 -529.028 115.138C-608.955 91.3308 -659.194 46.8262 -685.186 -6.6519C-711.173 -60.1197 -712.894 -122.501 -695.9 -182.026C-661.917 -301.056 -553.038 -408.838 -413.262 -411.294C-343.523 -412.519 -296.046 -417.91 -259.695 -427.85C-223.36 -437.786 -198.123 -452.273 -172.87 -471.725C-159.433 -482.075 -145.986 -493.838 -130.858 -507.071C-89.1068 -543.591 -34.5589 -591.305 67.871 -651.405C207.566 -733.37 395.022 -717.4 532.908 -650.933C601.857 -617.697 658.464 -571.811 690.52 -519.165C722.588 -466.5 730.08 -407.072 700.774 -346.854C671.558 -286.821 656.979 -245.282 653.336 -211.581C649.697 -177.912 656.969 -152.032 671.549 -123.295C679.537 -107.553 689.724 -90.9477 701.508 -71.7402L701.508 -71.7393C732.759 -20.8018 775.237 48.4364 817.685 168.41C844.712 244.802 839.982 304.131 813.057 348.686C786.142 393.225 737.11 422.894 675.752 440.11C553.046 474.54 380.784 459.247 236.399 413.156C156.864 390.778 90.2561 411.915 19.9265 434.233C15.9455 435.496 11.9526 436.763 7.94477 438.026ZM19.679 433.262C89.9653 410.956 156.843 389.731 236.679 412.196L236.687 412.198L236.695 412.201C380.968 458.258 553.025 473.507 675.482 439.147C736.706 421.968 785.467 392.408 812.201 348.168C838.926 303.944 843.703 244.946 816.742 168.744C774.333 48.8801 731.954 -20.1957 700.708 -71.1245C688.902 -90.3678 678.685 -107.02 670.657 -122.843C656.015 -151.701 648.676 -177.777 652.342 -211.689C656.004 -245.569 670.648 -287.235 699.875 -347.292C729.013 -407.164 721.58 -466.232 689.666 -518.645C657.74 -571.078 601.308 -616.852 532.474 -650.033C394.793 -716.4 207.705 -732.291 68.377 -650.542C-33.9626 -590.495 -88.4001 -542.878 -130.144 -506.363C-145.294 -493.112 -158.771 -481.323 -172.26 -470.933C-197.595 -451.417 -222.947 -436.862 -259.431 -426.885C-295.9 -416.913 -343.473 -411.52 -413.245 -410.294C-552.492 -407.848 -661.05 -300.45 -694.938 -181.751C-711.879 -122.413 -710.145 -60.2926 -684.286 -7.08903C-658.433 46.1042 -608.437 90.4414 -528.743 114.18C-448.88 137.968 -404.544 167.42 -379.749 199.195C-354.949 230.978 -349.756 265.017 -348.026 297.831C-347.661 304.764 -347.451 311.626 -347.243 318.399L-347.243 318.403L-347.241 318.458L-347.241 318.464L-347.241 318.47L-347.241 318.476L-347.24 318.483L-347.24 318.49C-346.957 327.746 -346.679 336.836 -346.019 345.716C-344.877 361.094 -342.594 375.729 -337.182 389.224C-326.376 416.167 -303.041 438.693 -250.983 453.37C-146.812 482.738 -67.1215 460.637 7.64417 437.073C11.6688 435.804 15.6794 434.531 19.679 433.262ZM-235.104 425.201C-135.975 453.158 -60.1297 432.101 10.8432 409.724C14.6455 408.525 18.4336 407.322 22.2103 406.123C88.941 384.94 152.132 364.88 227.589 386.118C364.586 429.867 528.037 444.383 644.468 411.702C702.688 395.359 749.218 367.196 774.76 324.913C800.312 282.615 804.799 226.293 779.153 153.78C738.877 39.9016 698.571 -25.8213 668.92 -74.1698C657.739 -92.4004 648.074 -108.161 640.496 -123.101C626.664 -150.373 619.766 -174.934 623.218 -206.885C626.674 -238.869 640.505 -278.292 668.226 -335.274C696.036 -392.439 688.925 -448.856 658.495 -498.85C628.077 -548.825 574.362 -592.382 508.94 -623.93C378.106 -687.021 200.236 -702.181 67.6813 -624.376C-29.5081 -567.33 -81.2668 -522.039 -120.881 -487.375L-120.883 -487.374L-120.883 -487.373L-120.889 -487.368L-120.891 -487.366L-120.892 -487.365C-135.24 -474.81 -147.996 -463.649 -160.74 -453.828C-184.698 -435.367 -208.64 -421.618 -243.112 -412.188C-277.599 -402.754 -322.643 -397.637 -388.813 -396.474C-521.448 -394.144 -624.762 -291.829 -657.008 -178.842C-673.134 -122.338 -671.5 -63.121 -646.84 -12.3643C-622.175 38.4027 -574.501 80.6493 -498.66 103.248C-422.987 125.797 -381.135 153.67 -357.783 183.608C-334.437 213.538 -329.526 245.602 -327.888 276.681C-327.543 283.233 -327.343 289.757 -327.145 296.209L-327.145 296.21L-327.145 296.212L-327.145 296.213L-327.145 296.214L-327.145 296.216L-327.145 296.217L-327.145 296.218L-327.145 296.22L-327.145 296.221L-327.145 296.222L-327.145 296.224L-327.145 296.225L-327.145 296.227L-327.145 296.23C-326.875 305.043 -326.608 313.722 -325.982 322.154C-324.895 336.792 -322.719 350.797 -317.53 363.74C-307.133 389.673 -284.695 411.215 -235.104 425.201ZM227.868 385.158C152.112 363.832 88.6502 383.981 21.9627 405.153C18.1674 406.358 14.3616 407.566 10.5425 408.77C-60.3954 431.136 -136.001 452.111 -234.832 424.238C-284.22 410.31 -306.353 388.932 -316.602 363.368C-321.736 350.563 -323.901 336.675 -324.985 322.079C-325.611 313.651 -325.875 305.025 -326.144 296.241C-326.341 289.783 -326.541 283.241 -326.89 276.629C-328.531 245.481 -333.459 213.167 -356.995 182.993C-380.524 152.827 -422.597 124.87 -498.374 102.29C-573.984 79.7601 -621.414 37.6809 -645.941 -12.8013C-670.472 -63.2937 -672.119 -122.25 -656.046 -178.567C-623.895 -291.224 -520.901 -393.153 -388.795 -395.475C-322.594 -396.638 -277.453 -401.757 -242.848 -411.223C-208.228 -420.694 -184.17 -434.511 -160.13 -453.036C-147.336 -462.895 -134.554 -474.08 -120.187 -486.651L-120.187 -486.651L-120.185 -486.652L-120.181 -486.656L-120.173 -486.663L-120.168 -486.668L-120.167 -486.668C-80.56 -521.326 -28.9117 -566.521 68.1875 -623.514C200.374 -701.102 377.877 -686.021 508.505 -623.029C573.814 -591.537 627.352 -548.092 657.641 -498.33C687.918 -448.587 694.969 -392.531 667.326 -335.711C639.595 -278.707 625.699 -239.155 622.224 -206.993C618.745 -174.799 625.71 -150.043 639.604 -122.649C647.223 -107.628 656.917 -91.8212 668.119 -73.5551C697.766 -25.2153 737.973 40.3451 778.21 154.113C803.789 226.437 799.256 282.428 773.904 324.396C748.543 366.379 702.285 394.434 644.198 410.739C528.015 443.351 364.771 428.878 227.885 385.163L227.877 385.16L227.868 385.158ZM13.6293 382.509C-53.6576 403.734 -125.57 423.708 -219.556 397.189C-266.577 383.922 -287.857 363.485 -297.718 338.878C-302.639 326.598 -304.702 313.311 -305.733 299.425C-306.326 291.438 -306.578 283.215 -306.834 274.865L-306.834 274.863L-306.834 274.861L-306.834 274.859L-306.834 274.857L-306.834 274.855L-306.834 274.854L-306.834 274.852L-306.834 274.85L-306.834 274.849L-306.834 274.847L-306.834 274.845L-306.834 274.843L-306.834 274.841L-306.835 274.831C-307.022 268.705 -307.212 262.512 -307.54 256.294C-309.093 226.816 -313.748 196.41 -335.876 168.027C-358.01 139.637 -397.682 113.202 -469.421 91.8147C-541.329 70.3776 -586.533 30.302 -609.92 -17.8582C-633.302 -66.008 -634.85 -122.182 -619.561 -175.781C-588.988 -282.959 -491.032 -380.015 -365.274 -382.226C-302.543 -383.329 -259.841 -388.182 -227.148 -397.13C-194.471 -406.073 -171.776 -419.112 -149.064 -436.621C-136.98 -445.938 -124.885 -456.526 -111.279 -468.438C-73.7222 -501.318 -24.6494 -544.279 67.4936 -598.389C193.172 -672.193 361.812 -657.811 485.854 -597.967C547.881 -568.042 598.81 -526.725 627.651 -479.318C656.504 -431.891 663.247 -378.37 636.877 -324.14C610.597 -270.094 597.486 -232.703 594.21 -202.371C590.938 -172.071 597.476 -148.78 610.588 -122.916C617.771 -108.747 626.933 -93.8006 637.531 -76.5108L637.532 -76.5101L637.532 -76.5086L637.533 -76.5081C665.644 -30.6489 703.859 31.6938 742.043 139.711C766.359 208.495 762.106 261.925 737.876 302.054C713.656 342.167 669.537 368.883 614.337 384.385C503.948 415.385 348.983 401.616 219.1 360.118C147.572 339.976 87.6697 359.001 24.4044 379.094C20.8243 380.231 17.2335 381.372 13.6293 382.509ZM24.1567 378.123C87.3787 358.042 147.551 338.929 219.38 359.158L219.388 359.161L219.396 359.163C349.168 400.626 503.927 414.353 614.067 383.422C669.133 367.958 712.981 341.35 737.02 301.537C761.05 261.738 765.349 208.639 741.101 140.044C702.955 32.1372 664.838 -30.0432 636.732 -75.8936C626.111 -93.22 616.92 -108.214 609.696 -122.463C596.522 -148.45 589.917 -171.936 593.216 -202.479C596.511 -232.989 609.687 -270.508 635.978 -324.577C662.18 -378.463 655.497 -431.623 626.797 -478.798C598.085 -525.992 547.332 -567.197 485.42 -597.066C361.582 -656.812 193.31 -671.114 68 -597.527C-24.0526 -543.47 -73.015 -500.605 -110.565 -467.732L-110.566 -467.731C-124.193 -455.8 -136.318 -445.185 -148.454 -435.83C-171.248 -418.257 -194.058 -405.149 -226.884 -396.165C-259.695 -387.185 -302.493 -382.33 -365.256 -381.226C-490.486 -379.025 -588.121 -282.354 -618.599 -175.507C-633.835 -122.094 -632.274 -66.1808 -609.02 -18.295C-585.771 29.5804 -540.811 69.4884 -469.136 90.8564C-397.292 112.274 -357.399 138.794 -335.087 167.412C-312.769 196.039 -308.097 226.696 -306.541 256.241C-306.211 262.514 -306.021 268.72 -305.833 274.845C-305.579 283.176 -305.329 291.357 -304.735 299.351C-303.708 313.194 -301.655 326.364 -296.79 338.506C-287.077 362.744 -266.102 383.017 -219.285 396.227C-125.595 422.662 -53.9235 402.769 13.3284 381.555C16.9483 380.413 20.5557 379.267 24.1532 378.124L24.1567 378.123ZM-206.394 373.66C-116.758 398.972 -48.1746 379.907 15.9934 359.649C19.4302 358.564 22.8541 357.476 26.2677 356.391C86.6009 337.214 143.719 319.059 211.924 338.28C335.788 377.886 483.573 391.029 588.849 361.44C641.493 346.644 683.573 321.144 706.674 282.853C729.785 244.547 733.839 193.546 710.65 127.895C674.235 24.8008 637.789 -34.7026 610.982 -78.4706L610.981 -78.4719C600.874 -94.973 592.137 -109.237 585.288 -122.758C572.786 -147.441 566.552 -169.665 569.672 -198.578C572.796 -227.523 585.297 -263.205 610.359 -314.786C635.51 -366.551 629.078 -417.64 601.559 -462.909C574.052 -508.159 525.481 -547.595 466.327 -576.156C348.031 -633.274 187.201 -647.001 67.3414 -576.558C-20.5315 -524.914 -67.3317 -483.91 -103.147 -452.53C-116.122 -441.162 -127.656 -431.056 -139.178 -422.166C-160.835 -405.456 -182.475 -393.014 -213.634 -384.479C-244.808 -375.94 -285.528 -371.309 -345.349 -370.256C-465.29 -368.146 -558.711 -275.507 -587.868 -173.209C-602.45 -122.05 -600.974 -68.4316 -578.673 -22.4717C-556.367 23.4987 -513.254 61.7506 -444.675 82.2118C-376.264 102.623 -338.436 127.85 -317.333 154.941C-296.235 182.024 -291.796 211.038 -290.315 239.17C-290.003 245.09 -289.822 250.988 -289.643 256.822L-289.643 256.824L-289.643 256.826L-289.643 256.828L-289.643 256.83L-289.643 256.833L-289.643 256.835L-289.643 256.837L-289.643 256.84L-289.643 256.843L-289.643 256.845L-289.643 256.848L-289.643 256.851L-289.643 256.854L-289.643 256.857L-289.643 256.86L-289.642 256.868L-289.642 256.875L-289.642 256.882L-289.641 256.89L-289.641 256.897L-289.64 256.905L-289.64 256.913C-289.397 264.875 -289.157 272.718 -288.592 280.334C-287.609 293.588 -285.641 306.272 -280.947 317.995C-271.54 341.488 -251.239 360.997 -206.394 373.66ZM212.204 337.32C143.698 318.011 86.3095 336.255 26.0199 355.42L26.0162 355.421L25.9338 355.447C22.53 356.529 19.1171 357.614 15.6924 358.696C-48.4406 378.942 -116.783 397.926 -206.122 372.698C-250.764 360.092 -270.759 340.748 -280.018 317.623C-284.657 306.038 -286.615 293.471 -287.594 280.26C-288.16 272.631 -288.399 264.824 -288.641 256.873C-288.82 251.028 -289.001 245.105 -289.316 239.117C-290.801 210.918 -295.256 181.653 -316.544 154.326C-337.825 127.008 -375.873 101.696 -444.389 81.2535C-512.736 60.8616 -555.606 22.7775 -577.774 -22.9082C-599.946 -68.6043 -601.435 -121.962 -586.907 -172.935C-557.843 -274.902 -464.742 -367.155 -345.332 -369.256C-285.478 -370.309 -244.662 -374.943 -213.37 -383.515C-182.062 -392.09 -160.307 -404.601 -138.567 -421.374C-126.993 -430.305 -115.43 -440.436 -102.433 -451.823C-66.6242 -483.198 -19.9344 -524.106 67.8481 -575.696C187.34 -645.923 347.802 -632.274 465.892 -575.256C524.931 -546.749 573.327 -507.427 600.705 -462.39C628.071 -417.372 634.443 -366.644 609.459 -315.223C584.387 -263.619 571.821 -227.808 568.678 -198.685C565.532 -169.53 571.832 -147.11 584.396 -122.306C591.286 -108.705 600.052 -94.3935 610.181 -77.8564C636.984 -34.0972 673.331 25.2439 709.707 128.228C732.83 193.69 728.729 244.361 705.818 282.337C682.897 320.328 641.089 345.719 588.579 360.477C483.551 389.996 335.973 376.896 212.22 337.325L212.212 337.322L212.204 337.32ZM18.8895 331.343C-41.4508 350.402 -105.949 368.342 -190.245 344.525C-232.421 332.609 -251.52 314.25 -260.369 292.136C-264.785 281.102 -266.636 269.165 -267.56 256.694C-268.093 249.512 -268.319 242.116 -268.549 234.606C-268.717 229.106 -268.887 223.545 -269.181 217.964C-270.573 191.499 -274.747 164.208 -294.58 138.735C-314.42 113.253 -349.983 89.5209 -414.309 70.3184C-478.803 51.0656 -519.351 15.0715 -540.33 -28.1877C-561.304 -71.4366 -562.692 -121.89 -548.979 -170.029C-521.558 -266.284 -433.702 -353.454 -320.902 -355.44C-264.651 -356.431 -226.364 -360.788 -197.053 -368.821C-167.758 -376.849 -147.413 -388.554 -127.051 -404.273C-116.217 -412.636 -105.373 -422.143 -93.1725 -432.838C-59.494 -462.362 -15.4831 -500.944 67.1493 -549.534C179.868 -615.816 331.113 -602.898 442.356 -549.157C497.984 -522.283 543.662 -485.177 569.532 -442.598C595.414 -399.999 601.463 -351.922 577.808 -303.209C554.242 -254.68 542.488 -221.113 539.552 -193.885C536.618 -166.69 542.478 -145.786 554.233 -122.567C560.672 -109.849 568.886 -96.4303 578.389 -80.9066L578.391 -80.9047C603.599 -39.7258 637.872 16.2623 672.116 113.261C693.924 175.034 690.112 223.028 668.375 259.077C646.647 295.112 607.069 319.107 557.563 333.028C458.56 360.868 319.587 348.502 203.112 311.238C138.985 293.157 85.2835 310.235 28.5491 328.278C25.3397 329.299 22.1207 330.322 18.8895 331.343ZM28.3012 327.307C84.9921 309.276 138.964 292.109 203.391 310.278L203.4 310.28L203.408 310.283C319.773 347.513 458.539 359.836 557.292 332.065C606.665 318.181 645.971 294.295 667.519 258.561C689.057 222.841 692.914 175.178 671.173 113.594C636.968 16.7053 602.793 -39.1206 577.59 -80.2909C568.064 -95.8507 559.821 -109.317 553.341 -122.116C541.524 -145.456 535.598 -166.555 538.557 -193.993C541.513 -221.398 553.331 -255.094 576.908 -303.646C600.396 -352.015 594.406 -399.731 568.677 -442.079C542.937 -484.445 497.434 -521.438 441.921 -548.256C330.883 -601.899 180.007 -614.737 67.6562 -548.672C-14.8859 -500.135 -58.7864 -461.65 -92.458 -432.132C-104.68 -421.418 -115.554 -411.885 -126.44 -403.481C-146.884 -387.699 -167.345 -375.926 -196.789 -367.856C-226.217 -359.791 -264.601 -355.431 -320.884 -354.44C-433.154 -352.464 -520.69 -265.68 -548.017 -169.755C-561.677 -121.803 -560.277 -71.6091 -539.431 -28.6241C-518.589 14.3505 -478.285 50.1767 -414.023 69.3601C-349.592 88.5939 -313.808 112.411 -293.791 138.12C-273.768 163.837 -269.578 191.378 -268.182 217.911C-267.887 223.52 -267.718 229.067 -267.55 234.542L-267.55 234.546L-267.548 234.601L-267.548 234.607L-267.548 234.613L-267.548 234.62C-267.319 242.099 -267.095 249.442 -266.563 256.62C-265.642 269.048 -263.802 280.868 -259.441 291.764C-250.739 313.51 -231.945 331.704 -189.974 343.563C-105.975 367.296 -41.717 349.438 18.5883 330.389C21.8363 329.363 25.0731 328.334 28.3012 327.307ZM-177.097 320.994C-97.1517 343.604 -35.9817 326.573 21.2396 308.481C24.293 307.516 27.3349 306.547 30.3675 305.582L30.3829 305.577L30.3983 305.572C84.2003 288.445 135.118 272.237 195.921 289.397C306.378 324.769 438.171 336.509 532.061 310.081C579.011 296.865 616.549 274.086 637.158 239.874C657.777 205.647 661.39 160.083 640.708 101.442C608.234 9.36687 575.73 -43.7819 551.825 -82.8698C542.814 -97.6049 535.024 -110.342 528.919 -122.413C517.773 -144.449 512.218 -164.286 514.999 -190.095C517.784 -215.935 528.928 -247.794 551.275 -293.858C573.711 -340.106 567.973 -385.75 543.426 -426.192C518.891 -466.614 475.57 -501.839 422.815 -527.349C317.318 -578.364 173.884 -590.627 66.983 -527.706C-11.3795 -481.582 -53.1177 -444.957 -85.0551 -416.932C-96.624 -406.781 -106.907 -397.758 -117.179 -389.82C-136.486 -374.901 -155.777 -363.793 -183.553 -356.173C-211.345 -348.549 -247.65 -344.413 -300.992 -343.473C-407.974 -341.588 -491.295 -258.834 -517.3 -167.459C-530.306 -121.761 -528.991 -73.8628 -509.098 -32.8038C-489.2 8.26565 -450.742 42.4361 -389.576 60.713C-328.579 78.9394 -294.86 101.465 -276.051 125.646C-257.248 149.82 -253.29 175.718 -251.97 200.837C-251.692 206.133 -251.53 211.411 -251.371 216.632L-251.37 216.645L-251.37 216.648C-251.153 223.772 -250.938 230.789 -250.433 237.601C-249.557 249.44 -247.801 260.773 -243.613 271.25C-235.217 292.251 -217.098 309.682 -177.097 320.994ZM196.201 288.437C135.098 271.189 83.9088 287.486 30.1502 304.602C27.0886 305.576 24.0187 306.554 20.9381 307.528C-36.2482 325.608 -97.1772 342.558 -176.825 320.032C-216.622 308.777 -234.436 291.511 -242.684 270.879C-246.818 260.539 -248.563 249.323 -249.436 237.527C-249.94 230.718 -250.153 223.754 -250.369 216.66L-250.37 216.646C-250.529 211.426 -250.69 206.135 -250.971 200.785C-252.295 175.598 -256.269 149.449 -275.262 125.032C-294.248 100.623 -328.188 78.0126 -389.29 59.7549C-450.223 41.5475 -488.438 7.54513 -508.198 -33.2398C-527.963 -74.0352 -529.291 -121.673 -516.339 -167.185C-490.427 -258.231 -407.425 -340.597 -300.974 -342.473C-247.6 -343.414 -211.198 -347.552 -183.288 -355.209C-155.363 -362.869 -135.957 -374.046 -116.568 -389.029C-106.244 -397.006 -95.9312 -406.056 -84.3408 -416.226L-84.3404 -416.226L-84.34 -416.227C-52.4095 -444.245 -10.7816 -480.773 67.4902 -526.844C174.022 -589.549 317.088 -577.364 422.38 -526.449C475.02 -500.994 518.165 -465.882 542.571 -425.673C566.966 -385.482 572.645 -340.198 550.375 -294.295C528.017 -248.208 516.809 -216.22 514.005 -190.202C511.198 -164.152 516.82 -144.119 528.027 -121.961C534.172 -109.811 541.991 -97.0268 551.024 -82.2563C574.924 -43.1771 607.33 9.80943 639.765 101.774C660.38 160.226 656.722 205.461 636.302 239.358C615.873 273.27 578.606 295.94 531.79 309.118C438.149 335.476 306.563 323.78 196.218 288.442L196.209 288.44L196.201 288.437ZM23.9243 282.353C-29.7529 299.339 -87.1404 315.332 -162.142 294.102C-199.671 283.479 -216.676 267.109 -224.557 247.381C-228.487 237.541 -230.134 226.897 -230.957 215.781C-231.43 209.38 -231.632 202.786 -231.836 196.092C-231.986 191.19 -232.137 186.235 -232.398 181.264C-233.637 157.682 -237.348 133.376 -254.981 110.688C-272.619 87.9917 -304.242 66.8466 -361.457 49.7356C-418.84 32.5741 -454.922 0.487825 -473.592 -38.079C-492.256 -76.6354 -493.49 -121.612 -481.288 -164.522C-456.892 -250.32 -378.722 -328.025 -278.352 -329.795C-228.316 -330.678 -194.264 -334.561 -168.198 -341.718C-142.147 -348.87 -124.055 -359.297 -105.947 -373.302C-96.3132 -380.753 -86.6687 -389.223 -75.8177 -398.753L-75.816 -398.754C-45.8573 -425.065 -6.70172 -459.454 66.8082 -502.759C167.097 -561.84 301.656 -550.323 400.623 -502.425C450.113 -478.473 490.755 -445.399 513.774 -407.441C536.805 -369.465 542.19 -326.601 521.138 -283.171C500.176 -239.924 489.724 -210.017 487.113 -185.762C484.505 -161.539 489.714 -142.921 500.167 -122.235C505.893 -110.905 513.199 -98.9484 521.651 -85.1154C544.075 -48.4173 574.569 1.48649 605.032 87.9347C624.434 142.995 621.046 185.784 601.699 217.928C582.361 250.057 547.141 271.447 503.095 283.856C415.014 308.67 291.381 297.647 187.764 264.437C130.738 248.328 82.9838 263.543 32.5139 279.623C29.6601 280.532 26.7976 281.444 23.9243 282.353ZM32.2655 278.652C82.6918 262.584 130.718 247.28 188.045 263.477L188.053 263.479L188.061 263.482C291.566 296.658 414.993 307.637 502.824 282.893C546.736 270.522 581.685 249.242 600.842 217.412C619.991 185.598 623.425 143.139 604.089 88.2671C573.664 1.92881 543.269 -47.8129 520.85 -84.5023C512.376 -98.3707 505.041 -110.374 499.275 -121.784C488.76 -142.591 483.485 -161.405 486.119 -185.869C488.749 -210.302 499.265 -240.337 520.239 -283.607C541.123 -326.693 535.798 -369.198 512.919 -406.923C490.029 -444.667 449.562 -477.628 400.187 -501.525C301.426 -549.324 167.236 -560.761 67.3157 -501.897C-6.10388 -458.645 -45.1492 -424.354 -75.1011 -398.048C-85.9742 -388.499 -95.649 -380.002 -105.335 -372.511C-123.526 -358.443 -141.733 -347.947 -167.933 -340.754C-194.117 -333.564 -228.266 -329.679 -278.335 -328.796C-378.174 -327.035 -456.023 -249.717 -480.326 -164.249C-492.475 -121.525 -491.228 -76.8076 -472.692 -38.5147C-454.16 -0.232328 -418.321 31.6856 -361.17 48.7775C-303.851 65.9199 -272.007 87.1501 -254.191 110.074C-236.37 133.005 -232.641 157.563 -231.4 181.212C-231.136 186.237 -230.984 191.204 -230.835 196.105L-230.835 196.118L-230.835 196.121C-230.632 202.779 -230.432 209.315 -229.959 215.707C-229.14 226.78 -227.504 237.307 -223.628 247.01C-215.895 266.369 -199.194 282.575 -161.87 293.14C-87.1659 314.285 -30.0195 298.375 23.6226 281.4C26.5128 280.485 29.393 279.568 32.2655 278.652ZM-147.784 268.331C-77.5282 288.238 -23.7718 273.242 26.5029 257.315C29.1925 256.463 31.8718 255.609 34.543 254.757L34.5441 254.757L34.5451 254.756L34.5462 254.756C81.8172 239.679 126.535 225.417 179.935 240.517C276.985 271.655 392.786 281.992 475.29 258.724C516.547 247.089 549.542 227.031 567.66 196.897C585.786 166.749 588.958 126.621 570.784 74.9916C542.251 -6.06438 513.688 -52.8585 492.686 -87.2664L492.685 -87.2686C484.769 -100.236 477.928 -111.444 472.567 -122.064C462.778 -141.455 457.902 -158.905 460.344 -181.609C462.789 -204.344 472.576 -232.381 492.209 -272.928C511.93 -313.658 506.885 -353.857 485.31 -389.471C463.746 -425.066 425.675 -456.079 379.32 -478.538C286.622 -523.45 160.583 -534.251 66.6416 -478.85C-2.21008 -438.246 -38.8864 -406.001 -66.9457 -381.332L-66.9465 -381.332C-77.109 -372.397 -86.1412 -364.456 -95.1625 -357.472C-112.12 -344.343 -129.061 -334.569 -153.455 -327.864C-177.865 -321.155 -209.755 -317.514 -256.617 -316.687C-350.64 -315.027 -423.863 -242.159 -446.715 -161.706C-458.145 -121.469 -456.99 -79.2913 -439.505 -43.1334C-422.015 -6.96487 -388.213 23.1242 -334.461 39.2167C-280.878 55.2587 -251.267 75.0813 -234.752 96.3534C-218.244 117.618 -214.768 140.4 -213.608 162.508C-213.364 167.166 -213.222 171.811 -213.082 176.407C-212.89 182.684 -212.701 188.869 -212.258 194.87C-211.488 205.294 -209.945 215.277 -206.261 224.508C-198.876 243.015 -182.94 258.369 -147.784 268.331ZM180.216 239.557C126.514 224.369 81.525 238.72 34.2976 253.785C31.6066 254.644 28.9084 255.504 26.2009 256.362C-24.0387 272.277 -77.5538 287.192 -147.511 267.369C-182.462 257.465 -198.094 242.276 -205.333 224.137C-208.961 215.044 -210.493 205.177 -211.261 194.797C-211.704 188.81 -211.89 182.69 -212.08 176.454L-212.08 176.453L-212.08 176.452L-212.08 176.451L-212.08 176.45L-212.08 176.449L-212.08 176.448L-212.08 176.446L-212.08 176.445L-212.08 176.444L-212.08 176.442L-212.08 176.441L-212.08 176.439L-212.08 176.437L-212.08 176.435L-212.08 176.434L-212.08 176.432L-212.081 176.422L-212.081 176.412L-212.081 176.403L-212.082 176.394L-212.082 176.385L-212.082 176.377L-212.083 176.369L-212.083 176.361L-212.083 176.354L-212.084 176.347L-212.084 176.34L-212.085 176.334L-212.085 176.328C-212.223 171.763 -212.364 167.136 -212.609 162.455C-213.773 140.28 -217.265 117.248 -233.962 95.7402C-250.654 74.24 -280.486 54.3322 -334.174 38.2587C-387.693 22.2359 -421.252 -7.68454 -438.605 -43.5687C-455.962 -79.4634 -457.13 -121.382 -445.753 -161.433C-422.994 -241.557 -350.091 -314.036 -256.6 -315.687C-209.705 -316.515 -177.718 -320.158 -153.19 -326.9C-128.647 -333.645 -111.59 -343.488 -94.5503 -356.681C-85.4769 -363.706 -76.4146 -371.673 -66.2302 -380.627C-38.1777 -405.29 -1.61169 -437.438 67.1496 -477.989C160.722 -533.171 286.392 -522.451 378.884 -477.638C425.125 -455.235 463.02 -424.335 484.455 -388.953C505.878 -353.59 510.864 -313.75 491.308 -273.364C471.665 -232.794 461.814 -204.629 459.349 -181.716C456.882 -158.771 461.824 -141.126 471.674 -121.614C477.076 -110.913 483.947 -99.6575 491.884 -86.6536C512.882 -52.2544 541.346 -5.6224 569.84 75.3236C587.948 126.765 584.731 166.563 566.803 196.382C548.866 226.215 516.141 246.164 475.018 257.762C392.764 280.959 277.171 270.666 180.232 239.562L180.224 239.56L180.216 239.557ZM29.0793 232.276C-17.7929 247.143 -67.9183 261.144 -133.428 242.559C-166.211 233.258 -181.079 218.921 -187.969 201.633C-191.404 193.013 -192.843 183.69 -193.561 173.959C-193.975 168.357 -194.151 162.582 -194.329 156.722C-194.46 152.432 -194.592 148.097 -194.82 143.75C-195.901 123.116 -199.141 101.859 -214.526 82.0181C-229.916 62.1697 -257.515 43.6696 -307.467 28.6966C-357.588 13.673 -389.11 -14.4188 -405.42 -48.1889C-421.726 -81.9486 -422.802 -121.327 -412.144 -158.892C-390.836 -233.999 -322.56 -302.03 -234.884 -303.58C-191.196 -304.352 -161.468 -307.75 -138.715 -314.011C-115.977 -320.268 -100.187 -329.389 -84.3806 -341.642C-75.9732 -348.159 -67.5548 -355.569 -58.0828 -363.907L-58.0806 -363.909L-58.0776 -363.911C-31.9177 -386.938 2.2793 -417.04 66.4727 -454.943C154.067 -506.663 271.585 -496.579 358.015 -454.653C401.236 -433.687 436.735 -404.735 456.843 -371.502C476.963 -338.251 481.668 -300.716 463.276 -262.686C444.973 -224.839 435.851 -198.673 433.572 -177.457C431.296 -156.272 435.84 -139.99 444.964 -121.895C449.961 -111.984 456.339 -101.522 463.718 -89.4184C483.299 -57.3008 509.931 -13.6164 536.533 62.0473C553.479 110.246 550.524 147.714 533.618 175.866C516.721 204.003 485.95 222.73 447.482 233.592C370.555 255.313 262.587 245.663 172.104 216.597C122.329 202.505 80.6483 215.815 36.5761 229.888C34.0854 230.683 31.5871 231.481 29.0793 232.276ZM36.3273 228.917C80.3557 214.856 122.308 201.457 172.385 215.637L172.393 215.639L172.401 215.642C262.773 244.674 370.533 254.28 447.21 232.629C485.544 221.805 516.044 203.188 532.761 175.351C549.469 147.528 552.47 110.39 535.59 62.3789C509.026 -13.1745 482.492 -56.6968 462.916 -88.8056L462.916 -88.8062C455.515 -100.946 449.109 -111.454 444.071 -121.444C434.886 -139.662 430.276 -156.138 432.577 -177.564C434.876 -198.957 444.062 -225.252 462.376 -263.121C480.602 -300.808 475.956 -337.984 455.988 -370.985C436.009 -404.004 400.685 -432.843 357.579 -453.753C271.355 -495.579 154.206 -505.583 66.9812 -454.082C2.87854 -416.233 -31.2082 -386.228 -57.3612 -363.207L-57.3616 -363.207C-66.8572 -354.848 -75.307 -347.41 -83.7679 -340.852C-99.6569 -328.535 -115.563 -319.345 -138.45 -313.047C-161.321 -306.753 -191.146 -303.353 -234.867 -302.58C-322.01 -301.039 -389.967 -233.398 -411.182 -158.619C-421.787 -121.24 -420.698 -82.1204 -404.52 -48.6239C-388.347 -15.1379 -357.068 12.785 -307.18 27.7388C-257.123 42.7433 -229.303 61.3287 -213.736 81.4053C-198.163 101.489 -194.906 122.997 -193.822 143.698C-193.591 148.099 -193.459 152.447 -193.328 156.737L-193.328 156.745C-193.151 162.572 -192.977 168.29 -192.564 173.885C-191.849 183.573 -190.421 192.779 -187.04 201.263C-180.296 218.183 -165.732 232.354 -133.155 241.597C-67.9439 260.097 -18.0602 246.178 28.7769 231.323C31.3017 230.522 33.8179 229.719 36.3273 228.917ZM31.3828 207.237C-12.1108 221.044 -58.6305 234.05 -119.427 216.787C-149.853 208.147 -163.66 194.826 -170.058 178.758C-173.248 170.747 -174.584 162.086 -175.25 153.047C-175.634 147.848 -175.797 142.488 -175.963 137.049L-175.963 137.036L-175.963 137.029C-176.085 133.047 -176.207 129.023 -176.418 124.991C-177.421 105.831 -180.427 86.0983 -194.696 67.6809C-208.97 49.256 -234.571 32.0781 -280.917 18.174C-327.432 4.21904 -356.69 -21.8757 -371.829 -53.2479C-386.963 -84.6096 -387.961 -121.189 -378.07 -156.082C-358.295 -225.845 -294.931 -289.039 -213.558 -290.479C-173.021 -291.196 -145.44 -294.352 -124.332 -300.165C-103.24 -305.974 -88.5928 -314.443 -73.9288 -325.819C-66.1303 -331.87 -58.321 -338.75 -49.5338 -346.491L-49.5316 -346.493L-49.5287 -346.496L-49.5263 -346.498C-25.2525 -367.883 6.48254 -395.842 66.0504 -431.044C147.342 -479.083 256.399 -469.716 336.604 -430.776C376.713 -411.303 409.658 -384.411 428.321 -353.541C446.995 -322.652 451.363 -287.78 434.292 -252.45C417.309 -217.303 408.846 -193.007 406.732 -173.31C404.622 -153.645 408.836 -138.53 417.3 -121.729C421.935 -112.528 427.851 -102.815 434.697 -91.5764L434.698 -91.5744C452.867 -61.7467 477.582 -21.1716 502.268 49.1007C517.994 93.8694 515.253 128.677 499.56 154.833C483.875 180.975 455.313 198.37 419.613 208.459C348.225 228.634 248.035 219.67 164.072 192.675C117.898 179.592 79.2327 191.949 38.3371 205.019C36.0266 205.758 33.7091 206.499 31.3828 207.237ZM38.088 204.049C78.94 190.99 117.877 178.544 164.353 191.716L164.362 191.718L164.37 191.721C248.221 218.682 348.203 227.601 419.341 207.497C454.906 197.446 483.197 180.16 498.702 154.318C514.198 128.491 516.985 94.0128 501.324 49.4321C476.677 -20.7304 452.06 -61.1436 433.896 -90.9626C427.028 -102.238 421.082 -111.998 416.407 -121.279C407.882 -138.202 403.602 -153.51 405.738 -173.416C407.871 -193.291 416.397 -217.715 433.391 -252.885C450.297 -287.872 445.988 -322.385 427.465 -353.023C408.931 -383.681 376.161 -410.459 336.167 -429.876C256.169 -468.716 147.481 -478.004 66.5591 -430.183C7.08173 -395.034 -24.543 -367.173 -48.81 -345.793C-57.6216 -338.03 -65.4632 -331.122 -73.3159 -325.029C-88.0621 -313.589 -102.825 -305.052 -124.067 -299.201C-145.293 -293.355 -172.971 -290.197 -213.54 -289.479C-294.38 -288.048 -357.426 -225.245 -377.108 -155.809C-386.946 -121.102 -385.935 -84.7812 -370.928 -53.6825C-355.926 -22.5944 -326.912 3.33128 -280.629 17.2162C-234.178 31.152 -208.356 48.4153 -193.905 67.0684C-179.449 85.729 -176.426 105.712 -175.42 124.939C-175.206 129.023 -175.083 133.057 -174.963 137.036L-174.963 137.038L-174.962 137.05L-174.962 137.056L-174.962 137.057C-174.798 142.468 -174.636 147.777 -174.253 152.973C-173.59 161.969 -172.265 170.514 -169.129 178.388C-162.878 194.088 -149.375 207.244 -119.154 215.825C-58.6561 233.003 -12.3783 220.079 31.0802 206.284C33.4152 205.543 35.7423 204.799 38.0631 204.057L38.0694 204.055L38.0756 204.053L38.0818 204.051L38.088 204.049ZM34.1953 183.547C-6.39665 196.086 -49.6579 207.968 -105.704 192.054C-134.374 183.912 -147.6 171.546 -153.881 156.687C-157.012 149.279 -158.403 141.283 -159.151 132.947C-159.601 127.936 -159.82 122.77 -160.042 117.529L-160.042 117.527L-160.042 117.524L-160.042 117.521L-160.042 117.518L-160.042 117.516L-160.043 117.486C-160.189 114.046 -160.336 110.573 -160.551 107.092C-161.642 89.4422 -164.482 71.2743 -177.623 54.2749C-190.77 37.2686 -214.279 21.3638 -256.856 8.38548L-256.719 7.93639L-256.857 8.38533C-299.701 -4.71852 -326.784 -29.03 -340.879 -58.2C-354.969 -87.3599 -356.055 -121.322 -347.014 -153.696C-328.938 -218.426 -270.322 -276.974 -193.808 -278.284C-155.924 -278.935 -130.157 -281.903 -110.459 -287.345C-90.7773 -292.784 -77.1368 -300.698 -63.512 -311.279C-56.3646 -316.829 -49.2156 -323.12 -41.2001 -330.173L-41.1998 -330.174C-18.6392 -350.027 10.7852 -375.919 66.3578 -408.343C141.823 -452.373 242.635 -443.731 316.823 -407.725C353.924 -389.719 384.418 -364.846 401.768 -336.231C419.128 -307.598 423.322 -275.22 407.797 -242.303L407.796 -242.301C392.358 -210.056 384.658 -187.643 382.74 -169.372C380.826 -151.131 384.671 -136.986 392.414 -121.261C396.756 -112.444 402.33 -103.123 408.798 -92.3086C425.409 -64.5327 447.912 -26.9057 470.545 37.3274C485.01 78.423 482.45 110.527 467.94 134.754C453.438 158.966 427.061 175.21 394.101 184.726C328.192 203.755 235.709 195.963 158.132 170.887C114.894 158.478 78.5343 169.774 40.1554 181.699L40.1393 181.704C38.1638 182.317 36.1828 182.933 34.1953 183.547ZM39.9175 180.725C78.2516 168.813 114.879 157.431 158.416 169.928L158.424 169.93L158.432 169.933C235.892 194.972 328.166 202.722 393.824 183.765C426.649 174.288 452.758 158.155 467.082 134.24C481.396 110.34 484 78.5643 469.602 37.6596C447.005 -26.4704 424.6 -63.9322 407.994 -91.6965L407.994 -91.6976C401.504 -102.548 395.9 -111.918 391.517 -120.819C383.715 -136.664 379.806 -151 381.746 -169.477C383.682 -187.923 391.444 -210.463 406.893 -242.731C422.256 -275.306 418.122 -307.329 400.912 -335.712C383.692 -364.115 353.372 -388.875 316.387 -406.825C242.405 -442.731 141.96 -451.295 66.8618 -407.479C11.3826 -375.11 -17.9321 -349.314 -40.4864 -329.467C-48.5229 -322.395 -55.7011 -316.078 -62.8987 -310.489C-76.6054 -299.844 -90.3613 -291.861 -110.193 -286.381C-130.01 -280.906 -155.874 -277.936 -193.791 -277.284C-269.774 -275.984 -328.069 -217.823 -346.051 -153.428C-355.04 -121.24 -353.943 -87.5351 -339.978 -58.6351C-326.019 -29.7453 -299.175 -5.60341 -256.564 7.42906C-213.881 20.4396 -190.154 36.4305 -176.832 53.6633C-163.505 70.903 -160.647 89.3176 -159.553 107.03C-159.335 110.571 -159.187 114.072 -159.041 117.528C-158.82 122.744 -158.604 127.859 -158.155 132.858C-157.412 141.147 -156.033 149.027 -152.959 156.298C-146.83 170.797 -133.905 183.006 -105.431 191.092C-49.6813 206.922 -6.66099 195.121 33.9002 182.591C35.8465 181.99 37.7873 181.387 39.7236 180.785L39.8501 180.746L39.9175 180.725ZM-91.9951 167.319C-40.6998 181.886 -0.697123 171.127 36.9931 159.855C38.6411 159.362 40.2846 158.868 41.9243 158.375L41.9466 158.369C77.8108 147.593 111.871 137.359 152.177 149.096C223.369 172.253 308.146 178.874 368.575 160.991C398.795 152.047 422.987 136.956 436.305 114.673C449.632 92.3749 452.012 62.975 438.808 25.5523L438.808 25.552C418.237 -32.6199 397.948 -67.2781 382.896 -92.9902L382.895 -92.9911C376.8 -103.403 371.563 -112.348 367.515 -120.794C360.492 -135.443 357.015 -148.62 358.733 -165.437C360.455 -182.282 367.392 -202.812 381.286 -232.154L381.288 -232.16C395.266 -262.663 391.247 -292.546 375.2 -318.923C359.163 -345.282 331.12 -368.136 297.028 -384.676C228.855 -417.749 136.291 -425.664 66.6513 -385.644C15.0803 -356.008 -12.0305 -332.182 -32.8779 -313.861L-32.8795 -313.86L-32.8819 -313.858L-32.883 -313.857C-40.1269 -307.491 -46.6146 -301.789 -53.1096 -296.739C-65.6953 -286.955 -78.3289 -279.594 -96.6008 -274.527C-114.888 -269.456 -138.842 -266.677 -174.073 -266.09C-245.726 -264.912 -299.596 -211.009 -315.973 -151.313C-324.164 -121.456 -322.989 -90.1118 -309.943 -63.1539C-296.892 -36.1864 -271.984 -13.6581 -232.811 -1.40523L-232.81 -1.40492C-194.002 10.6475 -172.584 25.2793 -160.565 40.8671C-148.551 56.4488 -145.876 73.0524 -144.698 89.1919C-144.483 92.1438 -144.317 95.0876 -144.153 98.008L-144.152 98.0269C-143.869 103.064 -143.59 108.03 -143.067 112.847C-142.237 120.481 -140.789 127.811 -137.716 134.616C-131.552 148.265 -118.909 159.676 -91.9951 167.319ZM152.464 148.138C111.864 136.313 77.5397 146.628 41.7214 157.392L41.7124 157.395C40.0473 157.895 38.3788 158.397 36.7065 158.897C-0.957743 170.161 -40.7207 180.84 -91.7219 166.357C-118.45 158.767 -130.798 147.505 -136.805 134.205C-139.816 127.536 -141.248 120.323 -142.072 112.739C-142.594 107.943 -142.87 103.028 -143.151 98.0133C-143.316 95.0811 -143.483 92.115 -143.701 89.1192C-144.883 72.9216 -147.577 56.0751 -159.773 40.2565C-171.965 24.4441 -193.599 9.72551 -232.514 -2.35994C-271.453 -14.5399 -296.125 -36.8978 -309.042 -63.5896C-321.965 -90.2911 -323.148 -121.38 -315.008 -151.048C-298.725 -210.402 -245.183 -263.921 -174.056 -265.091C-138.791 -265.678 -114.74 -268.46 -96.3336 -273.564C-77.9119 -278.672 -65.1629 -286.102 -52.4959 -295.95C-45.9512 -301.038 -39.4339 -306.766 -32.1679 -313.151C-11.3262 -331.467 15.6754 -355.196 67.1496 -384.777C136.425 -424.588 228.627 -416.748 296.592 -383.776C330.568 -367.293 358.437 -344.551 374.345 -318.403C390.242 -292.274 394.201 -262.742 380.381 -232.58C366.476 -203.213 359.478 -182.557 357.739 -165.538C355.997 -148.492 359.534 -135.128 366.613 -120.361C370.705 -111.825 375.972 -102.829 382.089 -92.3806L382.091 -92.3774L382.091 -92.377C397.136 -66.6805 417.327 -32.1924 437.865 25.885C451 63.1137 448.58 92.1866 435.447 114.16C422.305 136.149 398.376 151.128 368.291 160.032C308.113 177.841 223.549 171.261 152.479 148.143L152.472 148.14L152.464 148.138ZM39.7842 136.163C4.9963 146.167 -31.7477 155.802 -78.292 142.584C-103.45 135.439 -115.509 124.984 -121.556 112.546C-126.574 102.226 -127.419 90.5762 -128.292 78.5316L-128.293 78.5233C-128.467 76.1262 -128.642 73.7135 -128.851 71.2925C-130.116 56.6626 -132.626 41.6229 -143.513 27.4586C-154.404 13.289 -173.731 -0.0697723 -208.771 -11.1962L-208.772 -11.1967C-244.274 -22.5987 -267.006 -43.3437 -279.012 -68.1084C-291.015 -92.864 -292.278 -121.59 -284.937 -148.929C-270.259 -203.594 -221.136 -252.85 -154.343 -253.898C-121.765 -254.419 -99.6247 -257.01 -82.7479 -261.71C-65.8863 -266.406 -54.2595 -273.212 -42.713 -282.201C-36.8646 -286.754 -31.0319 -291.872 -24.5498 -297.56C-5.41547 -314.351 19.3779 -336.108 66.9398 -362.947C130.753 -398.956 215.07 -391.767 277.227 -361.627C308.312 -346.554 333.903 -325.719 348.626 -301.616C363.36 -277.496 367.204 -250.106 354.775 -222.017L354.77 -222.008C342.422 -195.57 336.246 -176.921 334.721 -161.502C333.199 -146.109 336.308 -133.9 342.61 -120.326C346.385 -112.196 351.287 -103.61 357.021 -93.5663C360.892 -86.7866 365.141 -79.3432 369.679 -70.9286C380.922 -50.0792 393.878 -23.3565 407.065 13.776L407.066 13.7765C419.008 47.5267 416.809 74.2227 404.666 94.5916C392.531 114.945 370.524 128.884 343.044 137.254C288.094 153.993 211.024 148.543 146.217 127.305C108.837 116.236 77.0678 125.404 43.7155 135.029C42.4076 135.407 41.0973 135.785 39.7842 136.163ZM43.5052 134.049C76.8103 124.436 108.839 115.191 146.508 126.348L146.514 126.35L146.521 126.352C211.2 147.55 288.055 152.959 342.753 136.298C370.098 127.968 391.846 114.142 403.807 94.0795C415.758 74.0326 417.995 47.6623 406.123 14.1101C392.955 -22.9661 380.021 -49.6418 368.799 -70.454C364.293 -78.8086 360.055 -86.2327 356.186 -93.0108C350.431 -103.093 345.491 -111.746 341.703 -119.905C335.347 -133.594 332.181 -145.984 333.726 -161.601C335.268 -177.191 341.502 -195.962 353.862 -222.427C366.141 -250.178 362.357 -277.22 347.773 -301.095C333.178 -324.988 307.759 -345.711 276.791 -360.727C214.844 -390.766 130.884 -397.882 67.4312 -362.076C19.9701 -335.294 -4.71448 -313.633 -23.8435 -296.847C-30.3449 -291.142 -36.2047 -286 -42.0987 -281.412C-53.7261 -272.36 -65.4681 -265.484 -82.4797 -260.747C-99.4761 -256.013 -121.714 -253.42 -154.327 -252.898C-220.598 -251.858 -269.388 -202.981 -283.971 -148.67C-291.261 -121.521 -289.993 -93.0481 -278.113 -68.5446C-266.237 -44.0505 -243.736 -23.4763 -208.467 -12.1491C-173.321 -0.988718 -153.782 12.4575 -142.72 26.8492C-131.654 41.2463 -129.124 56.5243 -127.855 71.2063C-127.642 73.664 -127.465 76.102 -127.289 78.515C-126.413 90.5578 -125.582 101.978 -120.657 112.109C-114.773 124.211 -103.001 134.527 -78.0188 141.622C-31.7655 154.757 4.74007 145.2 39.5078 135.201C40.0666 135.041 40.6249 134.88 41.1828 134.719L42.3621 134.379L43.2561 134.121L43.5052 134.049ZM-64.5752 117.846C-22.7823 129.715 10.703 121.204 42.588 112.467C43.5523 112.203 44.515 111.939 45.4765 111.674C76.3202 103.204 105.809 95.1046 140.269 105.51C198.693 124.83 268.057 129.108 317.527 113.515C342.267 105.717 362.089 92.9301 373.039 74.5067C383.999 56.0675 386.018 32.0754 375.336 1.99737L375.336 1.99658C363.419 -31.3823 351.812 -55.5827 341.781 -74.5784C337.999 -81.7393 334.448 -88.1494 331.192 -94.0282L331.19 -94.0319L331.184 -94.0414L331.176 -94.0555L331.176 -94.0564L331.175 -94.0579C326.793 -101.968 322.944 -108.916 319.783 -115.436L310.697 -157.303C310.706 -157.392 310.714 -157.482 310.722 -157.571C312.052 -171.565 317.465 -188.331 328.269 -211.866L328.272 -211.873L328.275 -211.879C339.156 -237.554 335.486 -262.449 322.066 -284.312C308.656 -306.159 285.516 -324.975 257.44 -338.582C201.299 -365.789 125.229 -372.25 67.2425 -340.252C23.6999 -316.225 1.22857 -296.539 -16.1928 -281.277L-16.1933 -281.277C-21.919 -276.261 -27.0993 -271.723 -32.3027 -267.666C-42.8101 -259.473 -53.4301 -253.22 -68.8815 -248.896C-84.3479 -244.567 -104.674 -242.165 -134.6 -241.709C-196.531 -240.791 -240.908 -196.182 -253.888 -146.548C-260.379 -121.726 -259.027 -95.6189 -248.068 -73.066C-237.106 -50.5047 -216.551 -31.543 -184.72 -20.9917L-184.718 -20.9909C-153.447 -10.7906 -136.211 1.29504 -126.447 14.0467C-116.687 26.794 -114.342 40.2703 -112.99 53.3913C-112.794 55.2898 -112.619 57.1829 -112.445 59.0665C-111.421 70.1624 -110.427 80.9231 -105.381 90.4755C-99.4513 101.7 -87.9756 111.199 -64.5752 117.846ZM330.331 -93.5169C326.719 -100.038 323.459 -105.924 320.648 -111.451L341.104 -17.1923C331.353 -43.3688 322.002 -63.0213 313.874 -78.8202C310.851 -84.6955 308.002 -90.0302 305.366 -94.9653L305.366 -94.9659C300.302 -104.447 296.026 -112.453 292.819 -119.988C287.957 -131.41 285.583 -141.685 286.714 -154.234C287.825 -166.547 292.312 -181.083 301.2 -201.068L310.031 -160.376C311.782 -173.981 317.222 -190.198 327.357 -212.277C338.094 -237.616 334.485 -262.169 321.214 -283.789C307.931 -305.428 284.964 -324.132 257.004 -337.682C201.074 -364.787 125.357 -371.179 67.7256 -339.377C24.2883 -315.407 1.92522 -295.817 -15.4912 -280.56L-15.4946 -280.557L-15.4974 -280.555L-15.4988 -280.554L-15.501 -280.552L-15.5018 -280.551L-15.5084 -280.545C-21.2457 -275.519 -26.4465 -270.964 -31.6878 -266.877C-42.2756 -258.622 -53.0104 -252.299 -68.612 -247.933C-84.1986 -243.57 -104.623 -241.165 -134.585 -240.709C-195.999 -239.799 -240.036 -195.564 -252.92 -146.295C-259.361 -121.666 -258.007 -95.8089 -247.169 -73.5031C-236.335 -51.2063 -216.005 -32.416 -184.408 -21.9417C-153.03 -11.7062 -135.585 0.46795 -125.653 13.4388C-115.718 26.4139 -113.352 40.1229 -111.995 53.2887C-111.798 55.2032 -111.622 57.1041 -111.447 58.9886L-111.445 59.0081C-110.417 70.1136 -109.442 80.6474 -104.497 90.0084C-98.7362 100.913 -87.5396 110.283 -64.302 116.884C-22.7964 128.672 10.4519 120.236 42.3238 111.503C43.3115 111.232 44.2981 110.961 45.2837 110.69C76.0788 102.232 105.822 94.0617 140.565 104.554L140.577 104.558C198.863 123.834 268.009 128.075 317.227 112.561C341.832 104.806 361.4 92.1324 372.18 73.9958C382.95 55.8752 385.003 32.2073 374.394 2.33203C362.496 -30.9933 350.909 -55.1494 340.896 -74.1114C337.136 -81.2323 333.591 -87.6316 330.333 -93.5136L330.331 -93.5169ZM300.844 -202.706L301.2 -201.068C301.384 -201.482 301.57 -201.899 301.758 -202.318L301.762 -202.327L301.766 -202.336C311.098 -225.596 307.603 -247.995 295.496 -267.602C283.399 -287.192 262.712 -303.99 237.643 -316.129C187.518 -340.403 119.696 -346.138 67.537 -318.152C28.0252 -296.951 7.88109 -279.339 -7.82759 -265.604C-12.8061 -261.251 -17.3391 -257.288 -21.9019 -253.723C-31.3703 -246.326 -40.9835 -240.628 -55.0246 -236.675C-69.0805 -232.717 -87.5931 -230.503 -114.865 -230.112C-171.935 -229.326 -211.568 -189.363 -222.848 -144.76C-228.489 -122.455 -227.047 -98.9661 -217.134 -78.6166C-207.216 -58.2593 -188.838 -41.081 -160.679 -31.3801L-160.676 -31.3791C-133.174 -22.1049 -118.028 -11.2925 -109.391 0.0416213C-100.756 11.3726 -98.5776 23.2861 -97.1377 34.8991C-96.9664 36.2801 -96.8056 37.6581 -96.6455 39.0311C-95.4626 49.1697 -94.3119 59.033 -89.213 67.8141C-83.4007 77.8236 -72.5103 86.3658 -50.8678 92.5146C-13.8268 103.035 16.3997 95.6484 45.3812 88.179C45.9544 88.0313 46.5272 87.8835 47.0996 87.7358L47.1992 87.7101C75.5384 80.3981 102.763 73.3737 134.312 83.1218C186.353 100.524 248.012 103.63 292.002 89.1819C314.002 81.9564 331.637 70.3216 341.404 53.8287C351.179 37.3195 353.018 16.0316 343.598 -10.3749L343.597 -10.376C342.764 -12.6963 341.932 -14.9679 341.104 -17.1923L342.656 -10.0389C332.028 -39.6136 321.788 -61.2506 312.984 -78.3627C309.984 -84.1956 307.145 -89.5105 304.513 -94.4388L304.513 -94.4399C299.433 -103.951 295.123 -112.022 291.899 -119.596C286.99 -131.128 284.569 -141.57 285.718 -154.323C286.866 -167.055 291.57 -182.057 300.842 -202.718L300.838 -202.709L300.844 -202.706ZM300.844 -202.706L301.302 -202.523L300.846 -202.727L300.842 -202.718L300.844 -202.706ZM-160.353 -32.3256C-132.745 -23.0153 -117.397 -12.1136 -108.596 -0.564488C-99.7921 10.9881 -97.5896 23.1274 -96.1452 34.776C-95.9733 36.1622 -95.8122 37.5402 -95.6521 38.9087L-95.6518 38.912L-95.6514 38.9152L-95.651 38.9184L-95.6507 38.9216C-94.4625 49.0825 -93.3352 58.7235 -88.3482 67.3119C-82.7103 77.0211 -72.0878 85.4463 -50.5946 91.5527C-13.8362 101.993 16.1551 94.6787 45.1316 87.2106L46.1447 86.9494L47.0271 86.7217C75.3162 79.4218 102.788 72.3329 134.613 82.1681L134.624 82.1716C186.517 99.5257 247.952 102.597 291.69 88.2318C313.556 81.0504 330.944 69.5305 340.543 53.3192C350.133 37.1243 352.002 16.1588 342.656 -10.0389L315.406 -11.2463C319.171 6.02841 316.773 20.5649 309.773 32.4427C301.192 47.0043 285.743 57.4873 266.484 64.1404C227.973 77.444 174.019 75.5109 128.359 60.0259C99.7077 50.9257 74.7266 56.868 48.8864 63.0147L48.1773 63.1833C22.1004 69.385 -4.86704 75.647 -37.1557 66.4755C-57.0396 60.8252 -67.343 53.2403 -73.0373 44.448C-78.2223 36.4421 -79.5411 27.4873 -80.8917 18.3166L-80.8917 18.3161L-80.8965 18.2839C-81.0229 17.4249 -81.1497 16.5641 -81.28 15.702C-82.8079 5.59558 -84.8206 -4.75586 -92.3303 -14.6716C-96.3346 -19.959 -101.915 -25.1388 -109.85 -30.0879L-160.353 -32.3256ZM-160.353 -32.3256L-160.356 -32.3266L-160.516 -31.8529L-160.353 -32.3256ZM-107.85 -29.9993C-100.598 -25.2779 -95.3679 -20.3388 -91.533 -15.2753C-83.8619 -5.14637 -81.8227 5.42257 -80.2912 15.5525C-80.1601 16.4203 -80.0326 17.2845 -79.9057 18.1445C-78.5477 27.3515 -77.2586 36.0905 -72.198 43.9044C-66.6822 52.421 -56.6319 59.9015 -36.8825 65.5135C-4.87046 74.6064 21.8637 68.4134 47.946 62.2105L48.7395 62.0217C74.5279 55.887 99.7475 49.8876 128.667 59.0743L128.676 59.0773C174.174 74.5088 227.899 76.4118 266.157 63.1952C285.283 56.5882 300.492 46.2216 308.912 31.935C315.797 20.2513 318.174 5.89025 314.373 -11.2921L284.572 -12.6124C284.465 -3.77509 282.187 4.10375 278.139 11.0168C270.743 23.6461 257.483 32.9773 240.964 39.0585C207.933 51.2181 161.682 50.4589 122.402 36.8901C96.797 28.4794 74.1563 33.2107 50.9674 38.1484L50.5238 38.2429C27.4936 43.1473 3.91226 48.1691 -23.4472 40.3967C-41.5717 35.2453 -51.2859 28.6182 -56.8609 21.0463C-62.1819 13.8198 -63.6828 5.78851 -65.2137 -2.40219C-65.2839 -2.77789 -65.3542 -3.15393 -65.4249 -3.53021C-66.9845 -11.8298 -68.758 -20.3049 -74.6163 -28.5269L-107.85 -29.9993ZM-50.7131 -27.4678L-73.357 -28.4711C-67.7142 -20.2538 -65.9637 -11.8126 -64.442 -3.71491C-64.375 -3.35825 -64.3084 -3.00232 -64.242 -2.64716C-62.7009 5.59201 -61.2375 13.4157 -56.0557 20.4534C-50.6607 27.7805 -41.1805 34.3169 -23.174 39.4348C3.94607 47.1391 27.3175 42.1622 50.3855 37.2499L50.7591 37.1703C73.9295 32.2366 96.823 27.4343 122.718 35.9412L122.725 35.9437C161.827 49.4517 207.839 50.1873 240.618 38.12C257.005 32.0876 270.036 22.8745 277.276 10.5114C281.232 3.75521 283.472 -3.96406 283.572 -12.6567L248.435 -14.2135C247.858 -12.9328 247.215 -11.6836 246.508 -10.4661C240.298 0.229481 229.228 8.40883 215.45 13.9184C187.9 24.9351 149.351 25.3515 116.446 13.6973C94.148 6.05909 74.041 9.38737 53.7567 13.0573C53.1955 13.1589 52.6341 13.2607 52.0725 13.3626C32.3587 16.9377 12.4133 20.5548 -9.73593 14.2614C-26.1002 9.60913 -35.2219 3.94037 -40.6754 -2.4072C-46.1283 -8.75397 -47.8614 -15.7249 -49.5647 -22.8121L-49.6468 -23.1539C-49.9911 -24.5875 -50.3366 -26.0262 -50.7131 -27.4678ZM-49.6674 -27.4215C-49.3228 -26.0873 -49.0044 -24.7614 -48.6887 -23.4468L-48.6866 -23.4379L-48.6864 -23.4372L-48.5923 -23.0458C-46.8863 -15.9469 -45.1942 -9.20123 -39.917 -3.05887C-34.6403 3.0827 -25.7271 8.6756 -9.46261 13.2995C12.46 19.5285 32.2017 15.949 51.9569 12.3672L52.7397 12.2253L53.5786 12.0733C73.8553 8.40473 94.201 5.01942 116.773 12.7521L116.778 12.7539C149.479 24.3368 187.778 23.907 215.079 12.9899C228.726 7.53249 239.581 -0.527172 245.643 -10.9682C246.265 -12.0402 246.837 -13.1379 247.357 -14.2613L199.362 -16.3878C196.45 -14.5076 193.291 -12.8109 189.932 -11.3077C167.865 -1.43294 137.013 0.163098 110.479 -9.5793C91.4851 -16.4456 73.9095 -14.5191 56.5307 -12.1166C55.5171 -11.9765 54.5042 -11.8347 53.4916 -11.693L53.4744 -11.6906C37.1554 -9.40658 20.9295 -7.13559 3.96537 -11.9571C-10.6376 -16.11 -19.1628 -20.8196 -24.4904 -25.9385C-24.6237 -26.0666 -24.755 -26.1949 -24.8842 -26.3234L-49.6674 -27.4215ZM189.523 -12.2205C192.381 -13.499 195.085 -14.9165 197.608 -16.4655L-23.37 -26.2563C-18.177 -21.4472 -9.89035 -16.9371 4.2388 -12.919C20.9928 -8.15719 37.0215 -10.3992 53.3811 -12.6874C54.3839 -12.8277 55.3881 -12.9681 56.3937 -13.1072C73.7774 -15.5104 91.5733 -17.4774 110.82 -10.5193L110.822 -10.5185C137.118 -0.86333 167.7 -2.45461 189.523 -12.2205Z" fill="url(#paint0_linear_3940_76345)"/>
</g>
<defs>
<linearGradient id="paint0_linear_3940_76345" x1="184.5" y1="-0.500003" x2="184.497" y2="112" gradientUnits="userSpaceOnUse">
<stop stop-color="#44D2FF"/>
<stop offset="1" stop-color="#474851" stop-opacity="0"/>
</linearGradient>
<clipPath id="clip0_3940_76345">
<path d="M0 0H364V179H0V0Z" fill="white"/>
</clipPath>
</defs>
</svg>
