<svg width="551" height="102" viewBox="0 0 551 102" fill="none" xmlns="http://www.w3.org/2000/svg">
<g clip-path="url(#clip0_7675_26935)">
<path fill-rule="evenodd" clip-rule="evenodd" d="M381.944 396.026C307.144 419.602 227.213 441.784 122.745 412.332C70.4838 397.599 46.8434 374.908 35.8897 347.596C30.4221 333.964 28.1289 319.212 26.9833 303.79C26.3235 294.908 26.0431 285.766 25.7584 276.481L25.7584 276.478L25.7584 276.476L25.7584 276.474L25.7584 276.472L25.7584 276.469L25.7584 276.468L25.7584 276.466L25.7584 276.464L25.7584 276.462L25.7584 276.46L25.7584 276.459L25.7584 276.457L25.7584 276.456C25.5498 269.659 25.3389 262.786 24.9745 255.883C23.2481 223.138 18.0718 189.35 -6.53843 157.81C-31.1549 126.263 -75.2702 96.8954 -155.029 73.1381C-234.955 49.3308 -285.194 4.82619 -311.186 -48.6519C-337.173 -102.12 -338.895 -164.501 -321.9 -224.026C-287.918 -343.056 -179.039 -450.838 -39.2629 -453.294C30.4767 -454.519 77.9538 -459.91 114.305 -469.85C150.64 -479.786 175.876 -494.273 201.13 -513.725C214.566 -524.075 228.014 -535.838 243.142 -549.071C284.893 -585.591 339.441 -633.305 441.871 -693.405C581.566 -775.37 769.022 -759.4 906.908 -692.933C975.856 -659.697 1032.46 -613.811 1064.52 -561.165C1096.59 -508.5 1104.08 -449.072 1074.77 -388.854C1045.56 -328.821 1030.98 -287.282 1027.34 -253.581C1023.7 -219.912 1030.97 -194.032 1045.55 -165.295C1053.54 -149.553 1063.72 -132.948 1075.51 -113.74L1075.51 -113.739C1106.76 -62.8018 1149.24 6.43637 1191.68 126.41C1218.71 202.802 1213.98 262.131 1187.06 306.686C1160.14 351.225 1111.11 380.894 1049.75 398.11C927.046 432.54 754.783 417.247 610.399 371.156C530.864 348.778 464.256 369.915 393.926 392.233C389.945 393.496 385.952 394.763 381.944 396.026ZM393.679 391.262C463.965 368.956 530.843 347.731 610.678 370.196L610.686 370.198L610.695 370.201C754.968 416.258 927.024 431.507 1049.48 397.147C1110.71 379.968 1159.47 350.408 1186.2 306.168C1212.93 261.944 1217.7 202.946 1190.74 126.744C1148.33 6.88006 1105.95 -62.1957 1074.71 -113.124C1062.9 -132.368 1052.68 -149.02 1044.66 -164.843C1030.01 -193.701 1022.68 -219.777 1026.34 -253.689C1030 -287.569 1044.65 -329.235 1073.87 -389.292C1103.01 -449.164 1095.58 -508.232 1063.67 -560.645C1031.74 -613.078 975.308 -658.852 906.473 -692.033C768.793 -758.4 581.704 -774.291 442.377 -692.542C340.037 -632.495 285.599 -584.878 243.855 -548.363C228.706 -535.112 215.228 -523.323 201.74 -512.933C176.404 -493.417 151.052 -478.862 114.568 -468.885C78.0997 -458.913 30.5266 -453.52 -39.2453 -452.294C-178.492 -449.848 -287.051 -342.45 -320.939 -223.751C-337.88 -164.413 -336.145 -102.293 -310.287 -49.089C-284.433 4.10424 -234.438 48.4414 -154.743 72.1797C-74.8803 95.9681 -30.544 125.42 -5.74998 157.195C19.0502 188.978 24.2431 223.017 25.9732 255.831C26.3386 262.764 26.5488 269.626 26.7562 276.399L26.7562 276.403L26.7581 276.458L26.7581 276.464L26.7584 276.47L26.7588 276.476L26.7592 276.483L26.7595 276.49C27.0427 285.746 27.3209 294.836 27.9806 303.716C29.1229 319.094 31.4055 333.729 36.8178 347.224C47.6235 374.167 70.9584 396.693 123.016 411.37C227.187 440.738 306.878 418.637 381.644 395.073C385.668 393.804 389.679 392.531 393.679 391.262ZM138.896 383.201C238.024 411.158 313.87 390.101 384.843 367.724C388.645 366.525 392.433 365.322 396.21 364.123C462.941 342.94 526.132 322.88 601.588 344.118C738.585 387.867 902.036 402.383 1018.47 369.702C1076.69 353.359 1123.22 325.196 1148.76 282.913C1174.31 240.615 1178.8 184.293 1153.15 111.78C1112.88 -2.0984 1072.57 -67.8213 1042.92 -116.17L1042.92 -116.171C1031.74 -134.401 1022.07 -150.161 1014.5 -165.101C1000.66 -192.373 993.765 -216.934 997.218 -248.885C1000.67 -280.869 1014.5 -320.292 1042.23 -377.274C1070.04 -434.439 1062.92 -490.856 1032.49 -540.85C1002.08 -590.825 948.362 -634.382 882.939 -665.93C752.106 -729.021 574.236 -744.181 441.681 -666.376C344.493 -609.331 292.735 -564.041 253.121 -529.377L253.12 -529.377L253.119 -529.376L253.119 -529.375C238.766 -516.816 226.007 -505.651 213.26 -495.828C189.301 -477.367 165.359 -463.618 130.888 -454.188C96.4005 -444.754 51.356 -439.637 -14.8132 -438.474C-147.448 -436.144 -250.763 -333.829 -283.008 -220.842C-299.134 -164.338 -297.501 -105.121 -272.841 -54.3643C-248.176 -3.59727 -200.502 38.6494 -124.66 61.2484C-48.9872 83.7972 -7.13548 111.67 16.2165 141.608C39.5622 171.538 44.473 203.602 46.1111 234.681C46.4567 241.233 46.6569 247.757 46.8549 254.209L46.8549 254.21L46.8549 254.212L46.8549 254.213L46.8549 254.214L46.8549 254.216L46.8549 254.217L46.8549 254.218L46.8549 254.22L46.8549 254.221L46.8549 254.222L46.8549 254.224L46.8549 254.225L46.8549 254.227L46.8549 254.23C47.125 263.043 47.3911 271.722 48.0171 280.154C49.1041 294.792 51.2803 308.797 56.4692 321.74C66.8661 347.673 89.3042 369.215 138.896 383.201ZM601.868 343.158C526.112 321.833 462.65 341.981 395.962 363.153C392.167 364.358 388.361 365.566 384.542 366.77C313.604 389.136 237.999 410.111 139.167 382.238C89.7791 368.31 67.6464 346.932 57.3975 321.368C52.2637 308.563 50.0982 294.675 49.0144 280.079C48.3886 271.651 48.1246 263.025 47.856 254.241C47.6585 247.783 47.4583 241.241 47.1098 234.629C45.4682 203.481 40.5405 171.167 17.0049 140.993C-6.52451 110.827 -48.597 82.87 -124.375 60.29C-199.984 37.7601 -247.415 -4.3191 -271.941 -54.8013C-296.473 -105.294 -298.119 -164.25 -282.046 -220.567C-249.895 -333.224 -146.902 -435.153 -14.7956 -437.474C51.4058 -438.638 96.5463 -443.757 131.151 -453.223C165.772 -462.694 189.829 -476.511 213.87 -495.036C226.668 -504.899 239.456 -516.088 253.829 -528.665L253.829 -528.666L253.83 -528.666L253.832 -528.668L253.833 -528.668L253.834 -528.669L253.835 -528.67C293.442 -563.328 345.09 -608.522 442.187 -665.514C574.374 -743.102 751.877 -728.021 882.505 -665.029C947.813 -633.537 1001.35 -590.092 1031.64 -540.33C1061.92 -490.587 1068.97 -434.531 1041.33 -377.711C1013.59 -320.707 999.699 -281.155 996.224 -248.993C992.745 -216.799 999.71 -192.043 1013.6 -164.649C1021.22 -149.628 1030.92 -133.821 1042.12 -115.555C1071.77 -67.2153 1111.97 -1.65488 1152.21 112.113C1177.79 184.437 1173.26 240.428 1147.9 282.396C1122.54 324.379 1076.28 352.434 1018.2 368.739C902.015 401.351 738.77 386.878 601.885 343.163L601.876 343.16L601.868 343.158ZM387.629 340.509C320.342 361.734 248.43 381.708 154.443 355.189C107.423 341.922 86.1422 321.485 76.2817 296.878C71.3608 284.598 69.2975 271.311 68.2669 257.425C67.6735 249.439 67.4213 241.218 67.1652 232.87L67.1652 232.867L67.1652 232.865L67.1652 232.863L67.1652 232.86L67.1652 232.858L67.1652 232.856L67.1652 232.854L67.1652 232.852L67.1652 232.849L67.1652 232.847L67.1652 232.845L67.1652 232.843L67.1652 232.841L67.1648 232.831C66.9772 226.705 66.7874 220.512 66.4599 214.294C64.907 184.816 60.2516 154.41 38.1236 126.027C15.9894 97.6367 -23.6825 71.2016 -95.422 49.8147C-167.33 28.3776 -212.533 -11.698 -235.92 -59.8582C-259.303 -108.008 -260.851 -164.182 -245.561 -217.781C-214.988 -324.959 -117.033 -422.015 8.72589 -424.226C71.457 -425.329 114.159 -430.182 146.851 -439.13C179.528 -448.073 202.223 -461.112 224.935 -478.621C237.019 -487.938 249.114 -498.526 262.721 -510.438C300.277 -543.318 349.35 -586.279 441.493 -640.389C567.171 -714.193 735.811 -699.811 859.854 -639.967C921.881 -610.042 972.809 -568.725 1001.65 -521.318C1030.5 -473.891 1037.25 -420.37 1010.88 -366.14C984.597 -312.094 971.486 -274.703 968.21 -244.371C964.937 -214.071 971.476 -190.78 984.588 -164.916C991.771 -150.747 1000.93 -135.799 1011.53 -118.508C1039.64 -72.6489 1077.86 -10.3062 1116.04 97.7111C1140.36 166.495 1136.11 219.925 1111.88 260.054C1087.66 300.167 1043.54 326.883 988.337 342.385C877.948 373.385 722.983 359.616 593.1 318.118C521.571 297.976 461.669 317.001 398.404 337.094C394.824 338.231 391.233 339.372 387.629 340.509ZM398.156 336.123C461.378 316.042 521.55 296.929 593.379 317.158L593.388 317.161L593.396 317.163C723.168 358.626 877.926 372.353 988.067 341.422C1043.13 325.958 1086.98 299.35 1111.02 259.537C1135.05 219.738 1139.35 166.639 1115.1 98.0444C1076.95 -9.86283 1038.84 -72.0432 1010.73 -117.894C1000.11 -135.22 990.919 -150.214 983.696 -164.463C970.522 -190.45 963.917 -213.936 967.216 -244.479C970.511 -274.989 983.686 -312.508 1009.98 -366.577C1036.18 -420.463 1029.5 -473.623 1000.8 -520.798C972.085 -567.992 921.332 -609.197 859.419 -639.066C735.582 -698.812 567.31 -713.114 442 -639.527C349.947 -585.47 300.985 -542.605 263.435 -509.732L263.434 -509.731C249.806 -497.8 237.681 -487.185 225.546 -477.83C202.752 -460.257 179.941 -447.149 147.115 -438.165C114.305 -429.185 71.5068 -424.33 8.74347 -423.226C-116.486 -421.025 -214.121 -324.354 -244.6 -217.507C-259.836 -164.094 -258.275 -108.181 -235.021 -60.295C-211.772 -12.4196 -166.812 27.4884 -95.1362 48.8564C-23.2922 70.2745 16.6005 96.7941 38.9123 125.412C61.2301 154.039 65.9021 184.696 67.4585 214.241C67.789 220.514 67.9788 226.72 68.166 232.845C68.4207 241.176 68.6708 249.357 69.2642 257.351C70.2915 271.194 72.3442 284.364 77.21 296.506C86.9227 320.744 107.898 341.017 154.715 354.227C248.405 380.662 320.076 360.769 387.328 339.555C390.949 338.413 394.558 337.266 398.156 336.123ZM167.606 331.66C257.242 356.972 325.825 337.907 389.993 317.649C393.397 316.574 396.789 315.496 400.17 314.422L400.238 314.4L400.267 314.391C460.6 295.214 517.719 277.059 585.924 296.28C709.787 335.886 857.572 349.029 962.849 319.44C1015.49 304.644 1057.57 279.144 1080.67 240.853C1103.78 202.547 1107.84 151.546 1084.65 85.8947C1048.23 -17.1992 1011.79 -76.7026 984.981 -120.471L984.98 -120.472C974.874 -136.973 966.137 -151.237 959.288 -164.758C946.785 -189.441 940.551 -211.665 943.672 -240.578C946.795 -269.523 959.297 -305.205 984.358 -356.786C1009.51 -408.551 1003.08 -459.64 975.559 -504.909C948.052 -550.159 899.48 -589.595 840.326 -618.156C722.031 -675.274 561.201 -689.001 441.341 -618.558C353.468 -566.914 306.668 -525.91 270.853 -494.53C257.877 -483.162 246.344 -473.056 234.821 -464.166C213.164 -447.456 191.524 -435.014 160.366 -426.479C129.192 -417.94 88.472 -413.309 28.6503 -412.256C-91.2903 -410.146 -184.711 -317.507 -213.869 -215.209C-228.451 -164.05 -226.975 -110.432 -204.674 -64.4717C-182.368 -18.5013 -139.254 19.7506 -70.6751 40.2118C-2.26438 60.6227 35.563 85.8503 56.6669 112.941C77.7647 140.024 82.2039 169.038 83.6846 197.17C83.997 203.103 84.178 209.014 84.3569 214.86C84.6012 222.841 84.8418 230.701 85.408 238.334C86.3909 251.588 88.3588 264.272 93.0527 275.995C102.459 299.488 122.76 318.997 167.606 331.66ZM586.203 295.32C517.698 276.011 460.309 294.255 400.019 313.42C396.587 314.511 393.146 315.605 389.692 316.696C325.559 336.942 257.216 355.926 167.877 330.698C123.236 318.092 103.24 298.748 93.9812 275.623C89.3423 264.038 87.3849 251.471 86.4053 238.26C85.8394 230.631 85.6008 222.824 85.358 214.873L85.3577 214.866L85.3573 214.859L85.3569 214.852L85.3566 214.845L85.3562 214.839L85.3562 214.833C85.1782 209.001 84.9978 203.091 84.6834 197.117C83.199 168.918 78.7432 139.653 57.4558 112.326C36.1745 85.0079 -1.87375 59.6957 -70.3893 39.2536C-138.736 18.8617 -181.606 -19.2225 -203.774 -64.9082C-225.947 -110.604 -227.436 -163.962 -212.907 -214.935C-183.844 -316.902 -90.743 -409.155 28.6679 -411.256C88.5218 -412.309 129.338 -416.943 160.63 -425.515C191.937 -434.09 213.693 -446.601 235.432 -463.374C247.007 -472.305 258.57 -482.436 271.567 -493.823C307.375 -525.198 354.065 -566.106 441.848 -617.696C561.339 -687.923 721.801 -674.274 839.892 -617.256C898.931 -588.749 947.327 -549.427 974.704 -504.39C1002.07 -459.372 1008.44 -408.644 983.459 -357.223C958.386 -305.619 945.82 -269.808 942.677 -240.685C939.531 -211.53 945.831 -189.11 958.396 -164.306C965.285 -150.705 974.051 -136.394 984.18 -119.856C1010.98 -76.0971 1047.33 -16.7561 1083.71 86.2278C1106.83 151.69 1102.73 202.361 1079.82 240.337C1056.9 278.328 1015.09 303.719 962.578 318.477C857.551 347.996 709.972 334.896 586.22 295.325L586.212 295.322L586.203 295.32ZM392.889 289.343C332.549 308.402 268.05 326.342 183.754 302.525C141.578 290.609 122.48 272.25 113.63 250.136C109.214 239.102 107.364 227.165 106.439 214.694C105.907 207.512 105.681 200.116 105.451 192.606C105.283 187.106 105.112 181.545 104.819 175.964C103.427 149.499 99.2527 122.208 79.4193 96.7348C59.58 71.2535 24.0163 47.5209 -40.3094 28.3184C-104.804 9.06561 -145.352 -26.9285 -166.331 -70.1877C-187.305 -113.437 -188.692 -163.89 -174.979 -212.029C-147.559 -308.284 -59.7025 -395.454 53.0975 -397.44C109.349 -398.431 147.636 -402.788 176.946 -410.821C206.241 -418.849 226.587 -430.554 246.949 -446.273C257.782 -454.636 268.627 -464.143 280.827 -474.838C314.505 -504.362 358.516 -542.944 441.149 -591.534C553.868 -657.816 705.112 -644.898 816.356 -591.157C871.983 -564.283 917.662 -527.177 943.532 -484.598C969.413 -441.999 975.462 -393.922 951.807 -345.209C928.241 -296.68 916.488 -263.113 913.551 -235.885C910.618 -208.69 916.478 -187.786 928.233 -164.567C934.672 -151.849 942.887 -138.429 952.39 -122.905C977.598 -81.7257 1011.87 -25.7376 1046.12 71.2607C1067.92 133.034 1064.11 181.028 1042.37 217.077C1020.65 253.112 981.069 277.107 931.563 291.028C832.56 318.868 693.587 306.502 577.111 269.238C512.985 251.157 459.283 268.235 402.549 286.278L402.512 286.29C399.315 287.306 396.108 288.326 392.889 289.343ZM402.301 285.307C458.992 267.276 512.964 250.109 577.391 268.278L577.399 268.28L577.407 268.283C693.772 305.513 832.538 317.836 931.292 290.066C980.665 276.181 1019.97 252.295 1041.52 216.561C1063.06 180.841 1066.91 133.178 1045.17 71.5936C1010.97 -25.2947 976.793 -81.1205 951.589 -122.291L951.589 -122.291C942.064 -137.851 933.82 -151.317 927.34 -164.116C915.524 -187.456 909.598 -208.555 912.557 -235.993C915.513 -263.398 927.331 -297.094 950.908 -345.646C974.396 -394.015 968.406 -441.731 942.677 -484.079C916.937 -526.445 871.434 -563.438 815.921 -590.256C704.883 -643.899 554.006 -656.737 441.656 -590.672C359.114 -542.135 315.213 -503.65 281.542 -474.132C269.32 -463.418 258.445 -453.885 247.56 -445.481C227.115 -429.699 206.654 -417.926 177.211 -409.856C147.782 -401.791 109.399 -397.431 53.115 -396.44C-59.1547 -394.464 -146.691 -307.68 -174.017 -211.755C-187.678 -163.803 -186.277 -113.609 -165.431 -70.6241C-144.59 -27.6495 -104.285 8.1767 -40.0233 27.3602C24.4071 46.5939 60.1916 70.4113 80.2084 96.1205C100.231 121.837 104.422 149.378 105.817 175.911C106.112 181.52 106.282 187.067 106.449 192.542L106.449 192.546L106.451 192.601L106.451 192.607L106.452 192.613L106.452 192.62C106.68 200.099 106.905 207.442 107.437 214.62C108.358 227.048 110.198 238.868 114.558 249.764C123.261 271.51 142.054 289.704 184.026 301.563C268.025 325.296 332.283 307.438 392.588 288.389C395.793 287.377 398.988 286.361 402.174 285.348L402.268 285.318L402.284 285.312L402.301 285.307ZM196.902 278.994C276.848 301.604 338.018 284.573 395.239 266.481C398.292 265.516 401.334 264.547 404.367 263.582L404.382 263.577L404.398 263.572C458.2 246.445 509.118 230.237 569.921 247.397C680.377 282.769 812.17 294.509 906.06 268.081C953.011 254.865 990.548 232.086 1011.16 197.874C1031.78 163.647 1035.39 118.083 1014.71 59.4419C982.234 -32.6331 949.73 -85.7819 925.825 -124.87C916.813 -139.605 909.024 -152.342 902.919 -164.413C891.773 -186.449 886.218 -206.286 888.999 -232.095C891.783 -257.935 902.927 -289.794 925.275 -335.858C947.711 -382.106 941.973 -427.75 917.426 -468.192C892.89 -508.614 849.569 -543.839 796.814 -569.349C691.317 -620.364 547.883 -632.627 440.982 -569.706C362.62 -523.582 320.882 -486.957 288.944 -458.932C277.375 -448.781 267.093 -439.758 256.821 -431.82C237.513 -416.901 218.223 -405.793 190.447 -398.173C162.655 -390.549 126.35 -386.413 73.0076 -385.473C-33.9741 -383.588 -117.296 -300.834 -143.301 -209.459C-156.306 -163.761 -154.991 -115.863 -135.098 -74.8038C-115.2 -33.7343 -76.7424 0.436129 -15.5768 18.713C45.4202 36.9394 79.1394 59.4646 97.9485 83.646C116.752 107.82 120.709 133.718 122.029 158.837C122.308 164.133 122.469 169.411 122.629 174.632L122.629 174.645L122.629 174.648C122.847 181.772 123.062 188.789 123.566 195.601C124.443 207.44 126.198 218.773 130.387 229.25C138.783 250.251 156.901 267.682 196.902 278.994ZM570.201 246.437C509.097 229.189 457.908 245.486 404.15 262.602C401.088 263.576 398.018 264.554 394.938 265.528C337.751 283.608 276.822 300.558 197.174 278.032C157.378 266.777 139.564 249.511 131.315 228.879C127.182 218.539 125.437 207.323 124.563 195.527C124.059 188.718 123.847 181.754 123.63 174.66L123.63 174.646C123.471 169.426 123.309 164.135 123.028 158.785C121.704 133.598 117.73 107.449 98.7378 83.032C79.7515 58.6227 45.8116 36.0126 -15.2905 17.7549C-76.2237 -0.452543 -114.438 -34.4549 -134.198 -75.2398C-153.963 -116.035 -155.292 -163.673 -142.339 -209.185C-116.428 -300.231 -33.4256 -382.597 73.0253 -384.473C126.4 -385.414 162.801 -389.552 190.711 -397.209C218.636 -404.869 238.043 -416.046 257.432 -431.029C267.756 -439.006 278.068 -448.056 289.659 -458.226L289.659 -458.226L289.659 -458.227C321.59 -486.245 363.218 -522.773 441.49 -568.844C548.022 -631.549 691.087 -619.364 796.379 -568.449C849.019 -542.994 892.165 -507.882 916.571 -467.673C940.965 -427.482 946.644 -382.198 924.375 -336.295C902.017 -290.208 890.808 -258.22 888.005 -232.202C885.197 -206.152 890.819 -186.119 902.026 -163.961C908.172 -151.811 915.99 -139.027 925.024 -124.256C948.924 -85.1771 981.329 -32.1906 1013.76 59.7745C1034.38 118.226 1030.72 163.461 1010.3 197.358C989.873 231.27 952.606 253.94 905.789 267.118C812.149 293.476 680.563 281.78 570.217 246.442L570.209 246.44L570.201 246.437ZM397.924 240.353C344.247 257.339 286.859 273.332 211.857 252.102C174.329 241.479 157.323 225.109 149.443 205.381C145.512 195.541 143.865 184.897 143.043 173.781C142.569 167.38 142.368 160.786 142.163 154.092C142.014 149.19 141.862 144.235 141.601 139.264C140.363 115.682 136.651 91.3757 119.019 68.6875C101.38 45.9917 69.7572 24.8466 12.5428 7.73563C-44.8404 -9.42584 -80.9229 -41.5121 -99.5922 -80.079C-118.257 -118.635 -119.49 -163.612 -107.289 -206.522C-82.892 -292.32 -4.72297 -370.025 95.6472 -371.795C145.683 -372.678 179.736 -376.561 205.802 -383.718C231.853 -390.87 249.944 -401.297 268.053 -415.302C277.686 -422.753 287.331 -431.223 298.182 -440.753L298.184 -440.754C328.142 -467.065 367.298 -501.454 440.808 -544.759C541.097 -603.84 675.655 -592.323 774.623 -544.425C824.112 -520.473 864.755 -487.399 887.774 -449.441C910.805 -411.465 916.189 -368.601 895.138 -325.171C874.176 -281.924 863.724 -252.017 861.113 -227.762C858.505 -203.539 863.714 -184.921 874.167 -164.235C879.892 -152.905 887.198 -140.948 895.651 -127.115C918.075 -90.4173 948.568 -40.5135 979.031 45.9347C998.434 100.995 995.046 143.784 975.699 175.928C956.361 208.057 921.14 229.447 877.095 241.856C789.014 266.67 665.38 255.647 561.764 222.437C504.738 206.328 456.983 221.543 406.513 237.623C403.66 238.532 400.797 239.444 397.924 240.353ZM406.265 236.652C456.691 220.584 504.717 205.28 562.044 221.477L562.053 221.479L562.061 221.482C665.566 254.658 788.992 265.637 876.824 240.893C920.735 228.522 955.684 207.242 974.842 175.412C993.991 143.598 997.424 101.139 978.088 46.2671C947.664 -40.0712 917.269 -89.8129 894.85 -126.502C886.375 -140.371 879.04 -152.374 873.274 -163.784C862.76 -184.591 857.484 -203.405 860.118 -227.869C862.749 -252.302 873.265 -282.337 894.238 -325.607C915.122 -368.693 909.797 -411.198 886.919 -448.923C864.029 -486.667 823.562 -519.628 774.187 -543.525C675.425 -591.324 541.235 -602.761 441.315 -543.897C367.896 -500.645 328.85 -466.354 298.898 -440.048C288.025 -430.499 278.351 -422.002 268.665 -414.511C250.474 -400.443 232.267 -389.947 206.067 -382.753C179.882 -375.564 145.733 -371.679 95.6649 -370.796C-4.17402 -369.035 -82.0238 -291.717 -106.327 -206.249C-118.475 -163.525 -117.229 -118.808 -98.6922 -80.5147C-80.1606 -42.2323 -44.3213 -10.3143 12.8294 6.77757C70.1488 23.9199 101.993 45.1501 119.808 68.0739C137.63 91.0054 141.358 115.563 142.6 139.212C142.864 144.237 143.015 149.204 143.164 154.105L143.165 154.118L143.165 154.121C143.368 160.779 143.567 167.315 144.04 173.707C144.859 184.78 146.496 195.307 150.372 205.01C158.105 224.369 174.806 240.575 212.13 251.14C286.834 272.285 343.98 256.375 397.622 239.4C400.512 238.485 403.393 237.568 406.265 236.652ZM226.216 226.331C296.471 246.238 350.228 231.242 400.502 215.315C403.192 214.463 405.871 213.609 408.543 212.757L408.544 212.757L408.545 212.756L408.546 212.756C455.817 197.679 500.534 183.417 553.935 198.517C650.984 229.655 766.785 239.992 849.289 216.724C890.546 205.089 923.542 185.031 941.659 154.897C959.786 124.749 962.958 84.6214 944.783 32.9916C916.25 -48.0644 887.688 -94.8585 866.685 -129.266L866.684 -129.269C858.769 -142.236 851.928 -153.444 846.566 -164.064C836.778 -183.455 831.901 -200.905 834.343 -223.609C836.788 -246.344 846.575 -274.381 866.208 -314.928C885.93 -355.658 880.885 -395.857 859.31 -431.471C837.746 -467.066 799.675 -498.079 753.32 -520.538C660.621 -565.45 534.583 -576.251 440.641 -520.85C371.789 -480.246 335.113 -448.001 307.054 -423.332L307.053 -423.332C296.891 -414.397 287.858 -406.456 278.837 -399.472C261.879 -386.343 244.938 -376.569 220.544 -369.864C196.135 -363.155 164.245 -359.514 117.382 -358.687C23.3593 -357.027 -49.8632 -284.159 -72.7158 -203.706C-84.1451 -163.469 -82.9902 -121.291 -65.5055 -85.1334C-48.0157 -48.9649 -14.2135 -18.8758 39.5388 -2.78328C93.1219 13.2587 122.733 33.0813 139.247 54.3534C155.756 75.6179 159.232 98.3998 160.391 120.508C160.636 125.166 160.778 129.811 160.918 134.407C161.109 140.684 161.298 146.869 161.742 152.87C162.512 163.294 164.055 173.277 167.738 182.508C175.123 201.015 191.06 216.369 226.216 226.331ZM554.215 197.557C500.514 182.369 455.525 196.72 408.297 211.785C405.606 212.644 402.908 213.504 400.2 214.362C349.961 230.277 296.446 245.192 226.488 225.369C191.537 215.465 175.905 200.276 168.667 182.137C165.038 173.044 163.506 163.177 162.739 152.797C162.296 146.81 162.109 140.69 161.919 134.454L161.919 134.453L161.919 134.452L161.919 134.451L161.919 134.45L161.919 134.449L161.919 134.448L161.919 134.446L161.919 134.445L161.919 134.444L161.919 134.442L161.919 134.441L161.919 134.439L161.919 134.437L161.919 134.435L161.919 134.434L161.919 134.432L161.919 134.422L161.919 134.412L161.918 134.403L161.918 134.394L161.918 134.385L161.917 134.377L161.917 134.369L161.916 134.361L161.916 134.354L161.916 134.347L161.915 134.34L161.915 134.334L161.915 134.328C161.776 129.763 161.636 125.136 161.39 120.455C160.227 98.2802 156.734 75.2479 140.037 53.7402C123.346 32.24 93.5139 12.3322 39.8256 -3.74126C-13.6937 -19.7641 -47.2529 -49.6845 -64.6052 -85.5687C-81.9626 -121.463 -83.1303 -163.382 -71.7537 -203.433C-48.9946 -283.557 23.909 -356.036 117.4 -357.687C164.295 -358.515 196.282 -362.158 220.81 -368.9C245.353 -375.645 262.409 -385.488 279.449 -398.681C288.523 -405.706 297.585 -413.673 307.769 -422.627C335.822 -447.29 372.388 -479.438 441.149 -519.989C534.722 -575.171 660.391 -564.451 752.884 -519.638C799.124 -497.235 837.02 -466.335 858.454 -430.953C879.877 -395.59 884.863 -355.75 865.308 -315.364C845.664 -274.794 835.813 -246.629 833.349 -223.716C830.881 -200.771 835.824 -183.126 845.674 -163.614C851.075 -152.913 857.946 -141.657 865.884 -128.654C886.881 -94.2544 915.346 -47.6224 943.84 33.3236C961.948 84.765 958.731 124.563 940.802 154.382C922.865 184.215 890.141 204.164 849.018 215.762C766.764 238.959 651.17 228.666 554.232 197.562L554.224 197.56L554.215 197.557ZM403.079 190.276C356.207 205.143 306.081 219.144 240.572 200.559C207.789 191.258 192.921 176.921 186.031 159.633C182.595 151.013 181.157 141.69 180.438 131.959C180.025 126.357 179.849 120.582 179.67 114.722C179.539 110.432 179.407 106.097 179.179 101.75C178.098 81.116 174.858 59.859 159.474 40.0181C144.083 20.1697 116.484 1.6696 66.5325 -13.3034C16.4113 -28.327 -15.1106 -56.4188 -31.4209 -90.1889C-47.726 -123.949 -48.8022 -163.327 -38.145 -200.892C-16.8366 -275.999 51.4393 -344.03 139.115 -345.58C182.804 -346.352 212.532 -349.75 235.285 -356.011C258.022 -362.268 273.812 -371.389 289.619 -383.642C298.026 -390.159 306.445 -397.569 315.917 -405.907L315.919 -405.909L315.922 -405.911C342.082 -428.938 376.279 -459.04 440.472 -496.943C528.067 -548.663 645.585 -538.579 732.015 -496.653C775.236 -475.687 810.735 -446.735 830.843 -413.502C850.963 -380.251 855.668 -342.716 837.276 -304.686C818.973 -266.839 809.85 -240.673 807.571 -219.457C805.296 -198.272 809.84 -181.99 818.964 -163.895C823.961 -153.984 830.339 -143.522 837.718 -131.418C857.298 -99.3008 883.93 -55.6164 910.533 20.0473C927.479 68.2463 924.523 105.714 907.618 133.866C890.721 162.003 859.95 180.73 821.481 191.592C744.554 213.313 636.586 203.663 546.103 174.597C496.329 160.505 454.648 173.815 410.576 187.888C408.085 188.683 405.587 189.481 403.079 190.276ZM410.327 186.917C454.355 172.856 496.308 159.457 546.384 173.637L546.392 173.639L546.401 173.642C636.772 202.674 744.533 212.28 821.209 190.629C859.544 179.805 890.044 161.188 906.76 133.351C923.468 105.528 926.469 68.3897 909.589 20.3789C883.026 -55.1745 856.492 -98.6968 836.916 -130.806L836.916 -130.806C829.515 -142.946 823.108 -153.454 818.071 -163.444C808.886 -181.662 804.275 -198.138 806.577 -219.564C808.875 -240.957 818.061 -267.252 836.376 -305.121C854.601 -342.808 849.955 -379.984 829.987 -412.985C810.008 -446.004 774.684 -474.843 731.578 -495.753C645.354 -537.579 528.206 -547.583 440.981 -496.082C376.878 -458.233 342.791 -428.228 316.638 -405.207L316.638 -405.207C307.142 -396.848 298.693 -389.41 290.232 -382.852C274.343 -370.535 258.437 -361.345 235.55 -355.047C212.679 -348.753 182.854 -345.353 139.133 -344.58C51.9898 -343.039 -15.9676 -275.398 -37.1829 -200.619C-47.7876 -163.24 -46.6984 -124.12 -30.5203 -90.6239C-14.3474 -57.1379 16.9317 -29.215 66.8196 -14.2612C116.877 0.743302 144.697 19.3287 160.264 39.4053C175.837 59.4894 179.094 80.9966 180.178 101.698C180.409 106.099 180.541 110.447 180.671 114.737L180.672 114.745C180.849 120.572 181.022 126.29 181.436 131.885C182.151 141.573 183.579 150.779 186.96 159.263C193.703 176.183 208.267 190.354 240.845 199.597C306.056 218.097 355.939 204.178 402.776 189.323C405.301 188.522 407.817 187.719 410.327 186.917ZM405.382 165.237C361.889 179.044 315.369 192.05 254.572 174.787C224.146 166.147 210.339 152.826 203.941 136.758C200.751 128.747 199.416 120.086 198.749 111.047C198.366 105.848 198.202 100.488 198.037 95.0492L198.036 95.0364L198.036 95.0287C197.915 91.047 197.792 87.0235 197.581 82.991C196.578 63.8307 193.572 44.0983 179.304 25.6809C165.029 7.25603 139.429 -9.92183 93.0827 -23.8259C46.5672 -37.7809 17.3096 -63.8757 2.17057 -95.2479C-12.9633 -126.61 -13.9615 -163.189 -4.07088 -198.082C15.7043 -267.845 79.068 -331.039 160.441 -332.479C200.978 -333.196 228.559 -336.352 249.667 -342.165C270.759 -347.974 285.407 -356.443 300.071 -367.819C307.87 -373.87 315.68 -380.751 324.469 -388.494L324.473 -388.498L324.474 -388.498C348.747 -409.883 380.482 -437.842 440.05 -473.044C521.341 -521.083 630.399 -511.716 710.604 -472.776C750.712 -453.303 783.658 -426.411 802.321 -395.541C820.995 -364.652 825.363 -329.78 808.291 -294.45C791.308 -259.303 782.846 -235.007 780.732 -215.31C778.621 -195.644 782.836 -180.53 791.299 -163.729C795.934 -154.528 801.851 -144.815 808.697 -133.576L808.698 -133.574C826.866 -103.747 851.582 -63.1715 876.267 7.10072C891.994 51.8695 889.253 86.6768 873.559 112.833C857.874 138.975 829.312 156.37 793.613 166.459C722.224 186.634 622.034 177.671 538.072 150.675C491.897 137.592 453.232 149.949 412.337 163.02C410.026 163.758 407.709 164.499 405.382 165.237ZM412.088 162.049C452.939 148.99 491.877 136.544 538.353 149.716L538.361 149.718L538.37 149.721C622.22 176.682 722.203 185.601 793.341 165.497C828.906 155.446 857.197 138.16 872.702 112.318C888.198 86.4912 890.984 52.0128 875.324 7.43217C850.677 -62.7304 826.059 -103.144 807.895 -132.963L807.895 -132.963L807.893 -132.966C801.026 -144.24 795.081 -153.999 790.406 -163.279C781.881 -180.202 777.601 -195.51 779.738 -215.416C781.871 -235.291 790.397 -259.715 807.391 -294.885C824.296 -329.872 819.987 -364.385 801.465 -395.023C782.931 -425.681 750.16 -452.459 710.167 -471.876C630.168 -510.716 521.48 -520.004 440.559 -472.183C381.081 -437.034 349.456 -409.173 325.19 -387.793C316.378 -380.03 308.536 -373.122 300.684 -367.029C285.937 -355.589 271.174 -347.052 249.933 -341.201C228.706 -335.355 201.028 -332.196 160.459 -331.479C79.6192 -330.048 16.5735 -267.245 -3.10872 -197.809C-12.9469 -163.102 -11.9358 -126.781 3.0712 -95.6825C18.0732 -64.5944 47.0879 -38.6687 93.37 -24.7838C139.822 -10.848 165.643 6.41527 180.094 25.0684C194.551 43.729 197.573 63.7115 198.58 82.9387C198.794 87.023 198.916 91.0567 199.037 95.0355L199.037 95.0383L199.037 95.0498L199.038 95.0558L199.038 95.0575C199.202 100.468 199.363 105.777 199.746 110.973C200.41 119.969 201.735 128.514 204.87 136.388C211.122 152.088 224.625 165.244 254.846 173.825C315.343 191.003 361.621 178.079 405.08 164.284C407.423 163.54 409.758 162.794 412.088 162.049ZM408.195 141.547C367.603 154.086 324.342 165.968 268.296 150.054C239.625 141.912 226.4 129.546 220.119 114.687C216.988 107.279 215.596 99.2832 214.848 90.9472C214.398 85.9361 214.18 80.7697 213.958 75.529L213.958 75.5271L213.958 75.5237L213.957 75.5208L213.957 75.5181L213.957 75.516L213.956 75.4864C213.81 72.0457 213.663 68.5733 213.448 65.0919C212.358 47.4422 209.517 29.2743 196.376 12.2749C183.23 -4.73136 159.72 -20.6362 117.143 -33.6145L117.28 -34.0636L117.143 -33.6147C74.2984 -46.7185 47.2159 -71.03 33.1209 -100.2C19.0308 -129.36 17.9444 -163.322 26.9852 -195.696C45.0613 -260.426 103.678 -318.974 180.191 -320.284C218.075 -320.935 243.843 -323.903 263.54 -329.345C283.222 -334.784 296.863 -342.698 310.487 -353.279C317.635 -358.829 324.784 -365.12 332.799 -372.173L332.8 -372.174C355.36 -392.027 384.785 -417.919 440.357 -450.343C515.823 -494.373 616.634 -485.731 690.823 -449.725C727.923 -431.719 758.417 -406.846 775.767 -378.231C793.128 -349.598 797.321 -317.22 781.797 -284.303L781.795 -284.301C766.357 -252.056 758.657 -229.643 756.74 -211.372C754.825 -193.131 758.671 -178.986 766.414 -163.261C770.755 -154.444 776.33 -145.123 782.797 -134.309C799.409 -106.533 821.912 -68.9057 844.545 -4.67257C859.01 36.423 856.45 68.5267 841.939 92.7539C827.437 116.966 801.06 133.21 768.101 142.726C702.192 161.755 609.709 153.963 532.132 128.887C488.893 116.478 452.534 127.774 414.155 139.699L414.139 139.704C412.163 140.317 410.182 140.933 408.195 141.547ZM413.917 138.725C452.251 126.813 488.879 115.431 532.415 127.928L532.423 127.93L532.431 127.933C609.892 152.972 702.165 160.722 767.823 141.765C800.648 132.288 826.758 116.155 841.081 92.2401C855.396 68.3398 857.999 36.5643 843.601 -4.34042C821.005 -68.4704 798.599 -105.932 781.994 -133.697L781.993 -133.698C775.504 -144.548 769.9 -153.918 765.517 -162.819C757.715 -178.664 753.806 -193 755.745 -211.477C757.681 -229.923 765.443 -252.463 780.893 -284.731C796.256 -317.306 792.122 -349.329 774.912 -377.712C757.691 -406.115 727.371 -430.875 690.386 -448.825C616.404 -484.731 515.96 -493.295 440.861 -449.479C385.382 -417.11 356.067 -391.314 333.513 -371.467C325.477 -364.395 318.298 -358.078 311.101 -352.489C297.394 -341.844 283.638 -333.861 263.806 -328.381C243.99 -322.906 218.126 -319.936 180.208 -319.284C104.225 -317.984 45.931 -259.823 27.9483 -195.428C18.9598 -163.24 20.0567 -129.535 34.0213 -100.635C47.981 -71.7453 74.8244 -47.6034 117.435 -34.5709C160.118 -21.5604 183.846 -5.56953 197.167 11.6633C210.494 28.903 213.352 47.3176 214.446 65.0302C214.665 68.5705 214.813 72.0715 214.959 75.5284C215.179 80.7441 215.396 85.8594 215.844 90.8578C216.588 99.1475 217.966 107.027 221.04 114.298C227.169 128.797 240.094 141.006 268.569 149.092C324.318 164.922 367.339 153.121 407.9 140.591C409.846 139.99 411.787 139.387 413.723 138.785L413.85 138.746L413.917 138.725ZM282.004 125.319C333.3 139.886 373.302 129.127 410.993 117.855C412.641 117.362 414.284 116.868 415.924 116.375L415.946 116.369C451.81 105.593 485.87 95.359 526.177 107.096C597.369 130.253 682.145 136.874 742.575 118.991C772.794 110.047 796.987 94.9563 810.305 72.6731C823.632 50.3749 826.011 20.975 812.808 -16.4477L812.807 -16.448C792.236 -74.6199 771.947 -109.278 756.895 -134.99L756.895 -134.991C750.799 -145.403 745.563 -154.348 741.514 -162.794C734.492 -177.443 731.014 -190.62 732.733 -207.437C734.454 -224.282 741.392 -244.812 755.285 -274.154L755.288 -274.16C769.265 -304.663 765.247 -334.546 749.199 -360.923C733.163 -387.282 705.12 -410.136 671.028 -426.676C602.855 -459.749 510.29 -467.664 440.651 -427.644C389.08 -398.008 361.969 -374.182 341.122 -355.861L341.12 -355.86L341.118 -355.858L341.117 -355.857C333.873 -349.491 327.385 -343.789 320.89 -338.739C308.304 -328.955 295.671 -321.594 277.399 -316.527C259.112 -311.456 235.158 -308.677 199.927 -308.09C128.273 -306.912 74.404 -253.009 58.0268 -193.313C49.8357 -163.456 51.0107 -132.112 64.0569 -105.154C77.1079 -78.1864 102.015 -55.6581 141.188 -43.4052L141.189 -43.4049C179.998 -31.3525 201.416 -16.7207 213.434 -1.13288C225.448 14.4488 228.124 31.0524 229.301 47.1919C229.517 50.1438 229.682 53.0876 229.846 56.008L229.847 56.0269C230.13 61.0636 230.409 66.0303 230.933 70.8474C231.762 78.4808 233.21 85.8111 236.284 92.6163C242.447 106.265 255.09 117.676 282.004 125.319ZM526.464 106.138C485.864 94.3129 451.539 104.628 415.721 115.392L415.712 115.395C414.047 115.895 412.378 116.397 410.706 116.897C373.042 128.161 333.279 138.84 282.278 124.357C255.549 116.767 243.201 105.505 237.195 92.2047C234.183 85.5357 232.751 78.3228 231.927 70.7394C231.406 65.9433 231.13 61.0278 230.848 56.0133C230.684 53.0811 230.517 50.115 230.298 47.1192C229.117 30.9216 226.423 14.0751 214.226 -1.74348C202.034 -17.5559 180.401 -32.2745 141.486 -44.3599C102.546 -56.5399 77.8744 -78.8978 64.9571 -105.59C52.0348 -132.291 50.852 -163.38 58.9911 -193.048C75.2742 -252.402 128.817 -305.921 199.943 -307.091C235.209 -307.678 259.259 -310.46 277.666 -315.564C296.088 -320.672 308.837 -328.102 321.504 -337.95C328.048 -343.038 334.566 -348.766 341.832 -355.151C362.673 -373.467 389.675 -397.196 441.149 -426.777C510.425 -466.588 602.626 -458.748 670.591 -425.776C704.568 -409.293 732.437 -386.551 748.345 -360.403C764.242 -334.274 768.201 -304.742 754.381 -274.58C740.475 -245.213 733.477 -224.557 731.738 -207.538C729.996 -190.492 733.533 -177.128 740.612 -162.361C744.705 -153.825 749.971 -144.829 756.089 -134.381L756.09 -134.377L756.091 -134.377C771.135 -108.681 791.327 -74.1924 811.865 -16.115C825 21.1137 822.579 50.1866 809.446 72.1601C796.304 94.1486 772.376 109.128 742.291 118.032C682.113 135.841 597.548 129.261 526.479 106.143L526.471 106.14L526.464 106.138ZM413.784 94.1625C378.996 104.167 342.252 113.802 295.708 100.584C270.55 93.4388 258.49 82.9838 252.443 70.5465C247.426 60.2258 246.581 48.5762 245.707 36.5316L245.707 36.5233C245.533 34.1262 245.358 31.7135 245.148 29.2925C243.884 14.6626 241.373 -0.377143 230.486 -14.5414C219.595 -28.711 200.269 -42.0698 165.229 -53.1962L165.227 -53.1967C129.725 -64.5987 106.994 -85.3437 94.9871 -110.108C82.9849 -134.864 81.7215 -163.59 89.0625 -190.929C103.741 -245.594 152.864 -294.85 219.656 -295.898C252.235 -296.419 274.375 -299.01 291.252 -303.71C308.113 -308.406 319.74 -315.212 331.287 -324.201C337.135 -328.754 342.968 -333.872 349.45 -339.56C368.584 -356.351 393.377 -378.108 440.939 -404.947C504.753 -440.956 589.07 -433.767 651.227 -403.627C682.311 -388.554 707.902 -367.719 722.626 -343.616C737.36 -319.496 741.204 -292.106 728.774 -264.017L728.77 -264.008C716.421 -237.57 710.246 -218.921 708.721 -203.502C707.198 -188.109 710.307 -175.9 716.609 -162.326C720.384 -154.196 725.287 -145.61 731.021 -135.566C734.891 -128.787 739.141 -121.343 743.678 -112.929C754.921 -92.0792 767.877 -65.3565 781.065 -28.224L781.065 -28.2235C793.007 5.52667 790.809 32.2227 778.665 52.5916C766.531 72.9451 744.523 86.8839 717.044 95.2545C662.094 111.993 585.024 106.543 520.216 85.3045C482.836 74.2359 451.067 83.4042 417.715 93.0293C416.407 93.4067 415.097 93.7849 413.784 94.1625ZM417.505 92.0491C450.81 82.4359 482.838 73.1912 520.507 84.3478L520.514 84.3498L520.521 84.352C585.199 105.55 662.054 110.959 716.752 94.2979C744.097 85.9683 765.845 72.1419 777.806 52.0795C789.758 32.0326 791.995 5.66226 780.122 -27.8899C766.955 -64.9661 754.021 -91.6418 742.798 -112.454C738.293 -120.809 734.055 -128.233 730.186 -135.011L730.185 -135.012L730.183 -135.016L730.182 -135.017C724.428 -145.097 719.49 -153.748 715.702 -161.905C709.347 -175.594 706.181 -187.984 707.726 -203.601C709.268 -219.191 715.501 -237.962 727.862 -264.427C740.14 -292.178 736.356 -319.22 721.772 -343.095C707.177 -366.988 681.759 -387.711 650.791 -402.727C588.843 -432.766 504.884 -439.882 441.431 -404.076C393.97 -377.294 369.285 -355.633 350.156 -338.847C343.655 -333.142 337.795 -328 331.901 -323.412C320.273 -314.36 308.531 -307.484 291.52 -302.747C274.523 -298.013 252.286 -295.42 219.672 -294.898C153.402 -293.858 104.612 -244.981 90.0282 -190.67C82.7384 -163.521 84.0069 -135.048 95.887 -110.545C107.763 -86.0505 130.264 -65.4763 165.532 -54.1491C200.678 -42.9887 220.217 -29.5425 231.279 -15.1508C242.345 -0.753699 244.875 14.5243 246.145 29.2063C246.357 31.664 246.535 34.102 246.71 36.515C247.586 48.5578 248.417 59.9777 253.343 70.1092C259.226 82.2106 270.998 92.5265 295.981 99.6224C342.234 112.757 378.74 103.2 413.507 93.2015C414.82 92.824 416.13 92.4458 417.438 92.0682L417.505 92.0491ZM309.424 75.846C351.217 87.7152 384.702 79.2042 416.588 70.4672C417.552 70.2029 418.515 69.9385 419.476 69.6745C450.32 61.2036 479.809 53.1046 514.269 63.5098C572.692 82.8299 642.057 87.1078 691.527 71.5149C716.267 63.717 736.088 50.9301 747.039 32.5067C757.999 14.0675 760.017 -9.92459 749.336 -40.0026L749.336 -40.0034C737.419 -73.3823 725.811 -97.5827 715.78 -116.578C711.999 -123.739 708.448 -130.149 705.191 -136.028L705.189 -136.032L705.184 -136.041L705.176 -136.056L705.175 -136.056L705.175 -136.058C700.793 -143.968 696.944 -150.916 693.783 -157.436L684.697 -199.303C684.705 -199.392 684.713 -199.482 684.722 -199.571C686.051 -213.565 691.465 -230.331 702.268 -253.866L702.271 -253.873L702.274 -253.879C713.156 -279.554 709.486 -304.449 696.065 -326.312C682.655 -348.159 659.516 -366.975 631.44 -380.582C575.298 -407.789 499.228 -414.25 441.242 -382.252C397.699 -358.225 375.228 -338.539 357.807 -323.277L357.806 -323.277C352.08 -318.261 346.9 -313.723 341.697 -309.666C331.189 -301.473 320.569 -295.22 305.118 -290.896C289.652 -286.567 269.325 -284.165 239.4 -283.709C177.468 -282.791 133.091 -238.182 120.112 -188.548C113.621 -163.726 114.973 -137.619 125.931 -115.066C136.893 -92.5047 157.449 -73.543 189.279 -62.9917L189.282 -62.9909C220.552 -52.7906 237.788 -40.705 247.552 -27.9533C257.313 -15.206 259.657 -1.72968 261.01 11.3913C261.205 13.2898 261.38 15.1829 261.554 17.0665C262.579 28.1624 263.572 38.9231 268.619 48.4755C274.548 59.6999 286.024 69.1988 309.424 75.846ZM704.333 -135.514C700.719 -142.036 697.459 -147.923 694.647 -153.451L715.103 -59.1923C705.353 -85.3688 696.001 -105.021 687.873 -120.82C684.85 -126.696 682.001 -132.03 679.366 -136.965L679.364 -136.968L679.36 -136.975C674.299 -146.452 670.024 -154.456 666.818 -161.988C661.956 -173.41 659.583 -183.685 660.714 -196.234C661.824 -208.547 666.311 -223.083 675.199 -243.068L684.03 -202.376C685.782 -215.981 691.222 -232.198 701.356 -254.277C712.093 -279.616 708.484 -304.169 695.213 -325.789C681.931 -347.428 658.963 -366.132 631.004 -379.682C575.073 -406.787 499.356 -413.179 441.725 -381.377C398.288 -357.407 375.925 -337.817 358.508 -322.56L358.505 -322.557L358.502 -322.555L358.501 -322.554L358.498 -322.552L358.498 -322.551L358.491 -322.545C352.754 -317.519 347.553 -312.964 342.312 -308.877C331.724 -300.622 320.989 -294.299 305.388 -289.933C289.801 -285.57 269.376 -283.165 239.415 -282.709C178 -281.799 133.963 -237.564 121.079 -188.295C114.639 -163.666 115.992 -137.809 126.831 -115.503C137.664 -93.2063 157.995 -74.416 189.592 -63.9417C220.97 -53.7062 238.414 -41.532 248.346 -28.5612C258.281 -15.5861 260.647 -1.87711 262.004 11.2887C262.202 13.2032 262.378 15.1041 262.552 16.9886L262.554 17.0081C263.582 28.1136 264.558 38.6474 269.503 48.0084C275.263 58.9127 286.46 68.283 309.698 74.8841C351.203 86.6716 384.451 78.2361 416.323 69.5027C417.311 69.232 418.298 68.961 419.283 68.6903C450.078 60.2315 479.821 52.0617 514.564 62.5544L514.577 62.5581C572.863 81.8343 642.008 86.0747 691.226 70.5612C715.832 62.8056 735.399 50.1324 746.179 31.9958C756.95 13.8752 759.003 -9.79269 748.393 -39.668C736.496 -72.9933 724.909 -97.1494 714.896 -116.111C711.136 -123.232 707.591 -129.632 704.333 -135.514ZM674.844 -244.706L675.199 -243.068C675.383 -243.482 675.57 -243.899 675.758 -244.318L675.762 -244.327L675.765 -244.336C685.098 -267.596 681.602 -289.995 669.496 -309.602C657.399 -329.192 636.711 -345.99 611.643 -358.129C561.517 -382.403 493.695 -388.138 441.537 -360.152C402.025 -338.951 381.881 -321.339 366.172 -307.604C361.193 -303.251 356.66 -299.288 352.098 -295.723C342.629 -288.326 333.016 -282.628 318.975 -278.675C304.919 -274.717 286.406 -272.503 259.134 -272.112C202.064 -271.326 162.432 -231.363 151.152 -186.76C145.511 -164.455 146.952 -140.966 156.866 -120.617C166.783 -100.259 185.162 -83.081 213.321 -73.3801L213.324 -73.3791C240.826 -64.1049 255.971 -53.2925 264.608 -41.9584C273.243 -30.6274 275.422 -18.7139 276.862 -7.10093C277.032 -5.72559 277.193 -4.35328 277.352 -2.98594L277.354 -2.96891C278.537 7.16967 279.688 17.033 284.787 25.8141C290.599 35.8236 301.489 44.3658 323.132 50.5146C360.173 61.0351 390.399 53.6484 419.381 46.179C419.987 46.0227 420.593 45.8663 421.199 45.7101C449.538 38.3981 476.762 31.3737 508.312 41.1218C560.353 58.5241 622.012 61.6299 666.002 47.1819C688.001 39.9564 705.637 28.3216 715.403 11.8287C725.179 -4.68051 727.018 -25.9684 717.597 -52.3749L717.597 -52.376C716.763 -54.6963 715.932 -56.9679 715.103 -59.1923L716.655 -52.0389C706.027 -81.6136 695.788 -103.251 686.984 -120.363C683.983 -126.196 681.144 -131.511 678.512 -136.44C673.433 -145.951 669.122 -154.022 665.898 -161.596C660.99 -173.128 658.568 -183.57 659.718 -196.323C660.866 -209.055 665.57 -224.057 674.841 -244.718L674.837 -244.709L674.844 -244.706ZM674.844 -244.706L675.301 -244.523L674.845 -244.727L674.841 -244.718L674.844 -244.706ZM213.646 -74.3257C241.254 -65.0153 256.603 -54.1136 265.404 -42.5645C274.207 -31.0119 276.41 -18.8726 277.854 -7.22397C278.027 -5.83457 278.188 -4.45337 278.349 -3.08155L278.349 -3.07843C279.537 7.08252 280.664 16.7235 285.651 25.3119C291.289 35.0211 301.912 43.4463 323.405 49.5527C360.163 59.9928 390.155 52.6787 419.131 45.2106C419.763 45.0477 420.395 44.8846 421.027 44.7217C449.316 37.4218 476.787 30.3329 508.612 40.1681L508.623 40.1716C560.516 57.5257 621.952 60.5971 665.69 46.2318C687.555 39.0504 704.943 27.5305 714.543 11.3192C724.132 -4.87567 726.001 -25.8412 716.655 -52.0389L689.406 -53.2463C693.171 -35.9716 690.772 -21.4351 683.773 -9.55732C675.191 5.00427 659.743 15.4873 640.483 22.1404C601.973 35.444 548.018 33.5109 502.359 18.0259C473.707 8.92567 448.726 14.868 422.886 21.0147L422.177 21.1833C396.1 27.385 369.132 33.647 336.844 24.4755C316.96 18.8252 306.657 11.2403 300.962 2.448C295.777 -5.55786 294.458 -14.5127 293.108 -23.6834L293.108 -23.6839L293.103 -23.7161C292.977 -24.5751 292.85 -25.4359 292.72 -26.298C291.192 -36.4044 289.179 -46.7559 281.669 -56.6716C277.665 -61.959 272.084 -67.1389 264.149 -72.0881L213.646 -74.3257ZM213.646 -74.3257L213.643 -74.3266L213.484 -73.8529L213.646 -74.3257ZM266.149 -71.9995C273.401 -67.278 278.632 -62.3388 282.466 -57.2753C290.138 -47.1464 292.177 -36.5774 293.708 -26.4475C293.839 -25.5797 293.967 -24.7155 294.094 -23.8555C295.452 -14.6485 296.741 -5.90949 301.802 1.90439C307.317 10.421 317.368 17.9015 337.117 23.5135C369.129 32.6064 395.863 26.4134 421.945 20.2105L422.739 20.0217C448.527 13.887 473.747 7.88758 502.666 17.0743L502.675 17.0773C548.174 32.5088 601.898 34.4118 640.157 21.1952C659.283 14.5882 674.492 4.22164 682.911 -10.065C689.796 -21.7488 692.173 -36.1097 688.372 -53.2921L658.571 -54.6124C658.465 -45.7751 656.187 -37.8962 652.138 -30.9832C644.742 -18.3539 631.482 -9.02268 614.963 -2.94148C581.933 9.21816 535.682 8.45891 496.401 -5.10985C470.796 -13.5206 448.156 -8.78924 424.967 -3.85156L424.523 -3.7571C401.493 1.14734 377.912 6.16913 350.552 -1.60327C332.428 -6.75467 322.714 -13.3818 317.139 -20.9537C311.818 -28.1802 310.317 -36.2115 308.786 -44.4022C308.716 -44.7779 308.645 -45.1539 308.575 -45.5302C307.015 -53.8299 305.242 -62.305 299.383 -70.527L266.149 -71.9995ZM323.286 -69.4679L300.642 -70.4712C306.285 -62.2538 308.036 -53.8126 309.557 -45.7149C309.624 -45.3582 309.691 -45.0023 309.757 -44.6471C311.299 -36.408 312.762 -28.5843 317.944 -21.5466C323.339 -14.2194 332.819 -7.68304 350.826 -2.56521C377.946 5.13916 401.317 0.162236 424.385 -4.75009L424.759 -4.82964C447.929 -9.76336 470.823 -14.5657 496.717 -6.05873L496.724 -6.05629C535.826 7.4517 581.838 8.18733 614.618 -3.87992C631.004 -9.91236 644.035 -19.1254 651.275 -31.4885C655.232 -38.2448 657.472 -45.9641 657.572 -54.6567L622.434 -56.2135C621.857 -54.9328 621.214 -53.6836 620.507 -52.4661C614.298 -41.7705 603.227 -33.5912 589.449 -28.0816C561.9 -17.0649 523.35 -16.6485 490.445 -28.3027C468.148 -35.9409 448.04 -32.6126 427.756 -28.9427C427.195 -28.8411 426.634 -28.7393 426.072 -28.6374C406.358 -25.0623 386.413 -21.4452 364.264 -27.7386C347.899 -32.3909 338.778 -38.0596 333.324 -44.4072C327.871 -50.754 326.138 -57.7249 324.435 -64.8121L324.353 -65.1539C324.008 -66.5875 323.663 -68.0263 323.286 -69.4679ZM325.311 -65.4456L325.313 -65.4379L325.313 -65.4372L325.407 -65.0458C327.113 -57.9469 328.805 -51.2012 334.083 -45.0589C339.359 -38.9173 348.272 -33.3244 364.537 -28.7005C386.46 -22.4715 406.201 -26.051 425.956 -29.6328L426.739 -29.7747L427.578 -29.9267C447.855 -33.5953 468.201 -36.9806 490.772 -29.2479L490.777 -29.2461C523.479 -17.6632 561.777 -18.093 589.078 -29.0101C602.726 -34.4675 613.581 -42.5272 619.642 -52.9682C620.265 -54.0402 620.837 -55.1379 621.357 -56.2613L573.361 -58.3878C570.45 -56.5076 567.291 -54.8109 563.931 -53.3077C541.864 -43.4329 511.013 -41.8369 484.478 -51.5793C465.485 -58.4456 447.909 -56.5191 430.53 -54.1166C429.517 -53.9765 428.504 -53.8347 427.491 -53.693L427.474 -53.6906C411.155 -51.4066 394.929 -49.1356 377.965 -53.9571C363.362 -58.11 354.837 -62.8196 349.509 -67.9385C349.376 -68.0666 349.244 -68.1949 349.115 -68.3235L324.332 -69.4215C324.677 -68.087 324.995 -66.7607 325.311 -65.4456ZM563.523 -54.2205C566.38 -55.4991 569.085 -56.9165 571.608 -58.4655L350.629 -68.2564C355.822 -63.4473 364.109 -58.9371 378.238 -54.919C394.992 -50.1572 411.021 -52.3992 427.381 -54.6874C428.383 -54.8277 429.388 -54.9681 430.393 -55.1072C447.777 -57.5104 465.573 -59.4774 484.819 -52.5193L484.822 -52.5185C511.118 -42.8633 541.699 -44.4546 563.523 -54.2205Z" fill="url(#paint0_linear_7675_26935)"/>
</g>
<defs>
<linearGradient id="paint0_linear_7675_26935" x1="253.499" y1="-110.504" x2="253.495" y2="68.9961" gradientUnits="userSpaceOnUse">
<stop stop-color="#6CF9D8"/>
<stop offset="1" stop-color="#4C4751" stop-opacity="0"/>
</linearGradient>
<clipPath id="clip0_7675_26935">
<rect width="551" height="102" fill="white"/>
</clipPath>
</defs>
</svg>
