<svg width="562" height="288" viewBox="0 0 562 288" fill="none" xmlns="http://www.w3.org/2000/svg">
<g clip-path="url(#clip0_7564_31969)">
<path fill-rule="evenodd" clip-rule="evenodd" d="M411.944 403.03C337.144 426.606 257.213 448.788 152.745 419.336C100.484 404.603 76.8434 381.912 65.8897 354.6C60.4221 340.967 58.1289 326.216 56.9833 310.794C56.3235 301.912 56.0431 292.769 55.7584 283.485L55.7584 283.482L55.7584 283.48L55.7584 283.478L55.7584 283.476L55.7584 283.473L55.7584 283.471L55.7584 283.47L55.7584 283.468L55.7584 283.466L55.7584 283.464L55.7584 283.463L55.7584 283.461L55.7584 283.46C55.5498 276.663 55.3389 269.79 54.9745 262.887C53.2481 230.142 48.0718 196.354 23.4616 164.814C-1.15489 133.267 -45.2702 103.899 -125.029 80.142C-204.955 56.3347 -255.194 11.8301 -281.186 -41.648C-307.173 -95.1158 -308.895 -157.497 -291.9 -217.022C-257.918 -336.052 -149.039 -443.835 -9.26288 -446.29C60.4767 -447.515 107.954 -452.906 144.305 -462.846C180.64 -472.782 205.876 -487.269 231.13 -506.721C244.566 -517.071 258.014 -528.834 273.142 -542.067C314.893 -578.587 369.441 -626.301 471.871 -686.401C611.566 -768.366 799.022 -752.396 936.908 -685.929C1005.86 -652.693 1062.46 -606.807 1094.52 -554.161C1126.59 -501.496 1134.08 -442.068 1104.77 -381.85C1075.56 -321.817 1060.98 -280.279 1057.34 -246.578C1053.7 -212.908 1060.97 -187.028 1075.55 -158.291C1083.54 -142.549 1093.72 -125.944 1105.51 -106.736L1105.51 -106.735C1136.76 -55.7979 1179.24 13.4403 1221.68 133.414C1248.71 209.806 1243.98 269.135 1217.06 313.689C1190.14 358.229 1141.11 387.897 1079.75 405.114C957.046 439.544 784.783 424.251 640.399 378.16C560.864 355.782 494.256 376.919 423.926 399.237C419.945 400.5 415.952 401.767 411.944 403.03ZM423.679 398.266C493.965 375.96 560.843 354.735 640.678 377.2L640.686 377.202L640.695 377.205C784.968 423.262 957.024 438.511 1079.48 404.151C1140.71 386.972 1189.47 357.412 1216.2 313.172C1242.93 268.948 1247.7 209.95 1220.74 133.748C1178.33 13.884 1135.95 -55.1918 1104.71 -106.121C1092.9 -125.364 1082.68 -142.016 1074.66 -157.839C1060.01 -186.697 1052.68 -212.773 1056.34 -246.685C1060 -280.565 1074.65 -322.232 1103.87 -382.288C1133.01 -442.16 1125.58 -501.228 1093.67 -553.641C1061.74 -606.074 1005.31 -651.848 936.473 -685.029C798.793 -751.396 611.704 -767.287 472.377 -685.538C370.037 -625.491 315.599 -577.874 273.855 -541.36C258.706 -528.108 245.228 -516.319 231.74 -505.929C206.404 -486.413 181.052 -471.858 144.568 -461.881C108.1 -451.909 60.5266 -446.516 -9.2453 -445.29C-148.492 -442.844 -257.051 -335.446 -290.939 -216.748C-307.88 -157.409 -306.145 -95.2887 -280.287 -42.0851C-254.433 11.1081 -204.438 55.4453 -124.743 79.1837C-44.8803 102.972 -0.544046 132.424 24.25 164.199C49.0502 195.982 54.2431 230.021 55.9732 262.834C56.3386 269.768 56.5488 276.63 56.7562 283.403L56.7562 283.407L56.7581 283.462L56.7581 283.468L56.7584 283.474L56.7588 283.48L56.7592 283.487L56.7595 283.494C57.0427 292.75 57.3209 301.84 57.9806 310.72C59.1229 326.098 61.4055 340.733 66.8178 354.228C77.6235 381.171 100.958 403.697 153.016 418.374C257.187 447.741 336.878 425.641 411.644 402.077C415.668 400.808 419.679 399.535 423.679 398.266ZM168.896 390.205C268.024 418.161 343.87 397.105 414.843 374.728C418.645 373.529 422.433 372.326 426.21 371.127C492.941 349.944 556.132 329.884 631.588 351.122C768.585 394.871 932.036 409.387 1048.47 376.706C1106.69 360.363 1153.22 332.2 1178.76 289.917C1204.31 247.619 1208.8 191.297 1183.15 118.784C1142.88 4.90551 1102.57 -60.8174 1072.92 -109.166L1072.92 -109.167C1061.74 -127.397 1052.07 -143.157 1044.5 -158.097C1030.66 -185.37 1023.77 -209.93 1027.22 -241.881C1030.67 -273.865 1044.5 -313.289 1072.23 -370.27C1100.04 -427.435 1092.92 -483.852 1062.49 -533.846C1032.08 -583.822 978.362 -627.378 912.939 -658.926C782.106 -722.017 604.236 -737.177 471.681 -659.372C374.493 -602.327 322.735 -557.037 283.121 -522.373L283.12 -522.373L283.119 -522.372L283.119 -522.371C268.766 -509.812 256.007 -498.648 243.26 -488.825C219.301 -470.363 195.359 -456.614 160.888 -447.184C126.401 -437.75 81.3561 -432.633 15.1869 -431.47C-117.448 -429.14 -220.762 -326.826 -253.008 -213.838C-269.134 -157.334 -267.501 -98.117 -242.841 -47.3604C-218.176 3.40664 -170.502 45.6533 -94.6603 68.2523C-18.987 90.8012 22.8646 118.674 46.2166 148.612C69.5623 178.542 74.4732 210.606 76.1112 241.685C76.4568 248.237 76.657 254.761 76.855 261.213L76.855 261.214L76.855 261.216L76.855 261.217L76.855 261.218L76.855 261.22L76.855 261.221L76.855 261.222L76.855 261.224L76.855 261.225L76.855 261.226L76.855 261.228L76.855 261.229L76.855 261.231L76.855 261.233C77.1251 270.047 77.3912 278.726 78.0172 287.157C79.1043 301.796 81.2804 315.801 86.4694 328.744C96.8662 354.677 119.304 376.219 168.896 390.205ZM631.868 350.162C556.112 328.836 492.65 348.984 425.962 370.157C422.167 371.362 418.361 372.57 414.542 373.774C343.604 396.14 267.999 417.115 169.167 389.242C119.779 375.314 97.6465 353.936 87.3976 328.372C82.2638 315.567 80.0983 301.679 79.0145 287.083C78.3887 278.655 78.1248 270.029 77.8561 261.245C77.6586 254.787 77.4584 248.245 77.1099 241.633C75.4683 210.485 70.5407 178.171 47.005 147.997C23.4756 117.831 -18.5969 89.8739 -94.3747 67.2939C-169.984 44.764 -217.415 2.6848 -241.941 -47.7973C-266.473 -98.2898 -268.119 -157.246 -252.046 -213.563C-219.895 -326.22 -116.902 -428.149 15.2045 -430.471C81.4059 -431.634 126.546 -436.753 161.151 -446.219C195.772 -455.69 219.829 -469.507 243.87 -488.032C256.668 -497.895 269.456 -509.084 283.829 -521.661L283.829 -521.662L283.83 -521.662L283.832 -521.664L283.833 -521.665L283.834 -521.665L283.835 -521.666C323.442 -556.324 375.09 -601.518 472.187 -658.51C604.374 -736.098 781.877 -721.017 912.505 -658.026C977.813 -626.533 1031.35 -583.088 1061.64 -533.326C1091.92 -483.584 1098.97 -427.527 1071.33 -370.707C1043.59 -313.703 1029.7 -274.151 1026.22 -241.989C1022.74 -209.795 1029.71 -185.039 1043.6 -157.645C1051.22 -142.625 1060.92 -126.817 1072.12 -108.551C1101.77 -60.2114 1141.97 5.34902 1182.21 119.117C1207.79 191.441 1203.26 247.432 1177.9 289.4C1152.54 331.383 1106.28 359.438 1048.2 375.743C932.015 408.355 768.77 393.882 631.885 350.167L631.876 350.164L631.868 350.162ZM417.629 347.512C350.342 368.738 278.43 388.712 184.443 362.193C137.423 348.925 116.142 328.489 106.282 303.882C101.361 291.602 99.2975 278.315 98.2669 264.429C97.6735 256.442 97.4213 248.218 97.1652 239.869L97.1652 239.867L97.1652 239.865L97.1652 239.863L97.1652 239.861L97.1652 239.859L97.1652 239.858L97.1652 239.856L97.1652 239.854L97.1652 239.852L97.1652 239.851L97.1652 239.849L97.1652 239.847L97.1652 239.845L97.1648 239.835C96.9772 233.709 96.7874 227.516 96.4599 221.298C94.907 191.82 90.2516 161.414 68.1236 133.031C45.9894 104.641 6.31753 78.2055 -65.422 56.8186C-137.33 35.3815 -182.533 -4.69413 -205.92 -52.8543C-229.303 -101.004 -230.851 -157.178 -215.561 -210.778C-184.988 -317.955 -87.0329 -415.011 38.7259 -417.222C101.457 -418.325 144.159 -423.178 176.851 -432.126C209.528 -441.069 232.223 -454.108 254.935 -471.618C267.019 -480.934 279.114 -491.522 292.721 -503.435C330.277 -536.314 379.35 -579.275 471.493 -633.385C597.171 -707.189 765.811 -692.807 889.854 -632.963C951.881 -603.038 1002.81 -561.721 1031.65 -514.314C1060.5 -466.888 1067.25 -413.366 1040.88 -359.136C1014.6 -305.09 1001.49 -267.699 998.21 -237.367C994.937 -207.067 1001.48 -183.777 1014.59 -157.912C1021.77 -143.743 1030.93 -128.795 1041.53 -111.504C1069.64 -65.645 1107.86 -3.30229 1146.04 104.715C1170.36 173.499 1166.11 226.929 1141.88 267.058C1117.66 307.171 1073.54 333.887 1018.34 349.389C907.948 380.389 752.983 366.619 623.1 325.122C551.571 304.98 491.669 324.005 428.404 344.098C424.824 345.235 421.233 346.375 417.629 347.512ZM428.156 343.127C491.378 323.046 551.55 303.933 623.379 324.162L623.388 324.164L623.396 324.167C753.168 365.63 907.926 379.357 1018.07 348.426C1073.13 332.962 1116.98 306.354 1141.02 266.541C1165.05 226.742 1169.35 173.643 1145.1 105.048C1106.95 -2.85893 1068.84 -65.0393 1040.73 -110.89C1030.11 -128.216 1020.92 -143.211 1013.7 -157.459C1000.52 -183.446 993.917 -206.932 997.216 -237.475C1000.51 -267.985 1013.69 -305.504 1039.98 -359.573C1066.18 -413.459 1059.5 -466.619 1030.8 -513.794C1002.08 -560.988 951.332 -602.193 889.419 -632.062C765.582 -691.808 597.31 -706.11 472 -632.523C379.947 -578.466 330.985 -535.601 293.435 -502.728L293.434 -502.727C279.806 -490.796 267.681 -480.182 255.546 -470.826C232.752 -453.253 209.941 -440.145 177.115 -431.161C144.305 -422.181 101.507 -417.326 38.7435 -416.222C-86.486 -414.021 -184.121 -317.351 -214.6 -210.503C-229.836 -157.09 -228.275 -101.177 -205.021 -53.2911C-181.772 -5.41572 -136.812 34.4923 -65.1362 55.8603C6.70779 77.2784 46.6005 103.798 68.9123 132.416C91.2301 161.043 95.9021 191.7 97.4585 221.245C97.789 227.518 97.9788 233.724 98.166 239.849C98.4207 248.18 98.6708 256.361 99.2642 264.355C100.292 278.197 102.344 291.367 107.21 303.51C116.923 327.748 137.898 348.02 184.715 361.23C278.405 387.666 350.076 367.773 417.328 346.559C420.948 345.417 424.555 344.271 428.153 343.128L428.156 343.127ZM197.606 338.664C287.242 363.976 355.825 344.911 419.993 324.653C423.397 323.578 426.789 322.5 430.17 321.426L430.238 321.404L430.267 321.395C490.6 302.218 547.719 284.063 615.924 303.284C739.787 342.89 887.572 356.033 992.849 326.444C1045.49 311.648 1087.57 286.148 1110.67 247.857C1133.78 209.551 1137.84 158.55 1114.65 92.8986C1078.23 -10.1953 1041.79 -69.6987 1014.98 -113.467L1014.98 -113.468C1004.87 -129.969 996.137 -144.234 989.288 -157.754C976.785 -182.437 970.551 -204.661 973.672 -233.574C976.795 -262.519 989.297 -298.201 1014.36 -349.782C1039.51 -401.547 1033.08 -452.636 1005.56 -497.905C978.052 -543.155 929.48 -582.591 870.326 -611.152C752.031 -668.27 591.201 -681.997 471.341 -611.554C383.468 -559.911 336.668 -518.906 300.853 -487.526C287.877 -476.158 276.344 -466.052 264.821 -457.162C243.164 -440.452 221.524 -428.01 190.366 -419.475C159.192 -410.936 118.472 -406.305 58.6503 -405.252C-61.2903 -403.142 -154.711 -310.503 -183.869 -208.205C-198.451 -157.046 -196.975 -103.428 -174.674 -57.4677C-152.368 -11.4974 -109.254 26.7545 -40.6751 47.2157C27.7356 67.6266 65.563 92.8542 86.6669 119.945C107.765 147.028 112.204 176.042 113.685 204.173C113.997 210.094 114.178 215.992 114.357 221.825L114.357 221.828L114.357 221.83L114.357 221.832L114.357 221.835L114.357 221.837L114.357 221.839L114.357 221.842L114.357 221.844L114.357 221.847L114.357 221.85L114.357 221.852L114.357 221.855L114.357 221.858L114.357 221.861L114.357 221.864L114.357 221.872L114.358 221.879L114.358 221.886L114.358 221.894L114.359 221.902C114.602 229.869 114.843 237.717 115.408 245.338C116.391 258.592 118.359 271.276 123.053 282.999C132.459 306.492 152.76 326 197.606 338.664ZM616.203 302.324C547.698 283.015 490.309 301.258 430.019 320.424L430.016 320.425L429.933 320.451C426.53 321.533 423.117 322.618 419.692 323.699C355.559 343.946 287.216 362.93 197.877 337.702C153.236 325.096 133.24 305.752 123.981 282.627C119.342 271.041 117.385 258.475 116.405 245.264C115.839 237.635 115.601 229.828 115.358 221.877C115.179 216.032 114.998 210.109 114.683 204.121C113.199 175.922 108.743 146.657 87.4558 119.33C66.1745 92.0118 28.1262 66.6996 -40.3893 46.2575C-108.736 25.8656 -151.606 -12.2186 -173.774 -57.9043C-195.947 -103.6 -197.436 -156.958 -182.907 -207.931C-153.844 -309.899 -60.743 -402.151 58.6679 -404.252C118.522 -405.305 159.338 -409.94 190.63 -418.511C221.937 -427.086 243.693 -439.597 265.432 -456.37C277.007 -465.301 288.57 -475.432 301.567 -486.82C337.375 -518.194 384.065 -559.102 471.848 -610.692C591.339 -680.919 751.801 -667.27 869.892 -610.252C928.931 -581.745 977.327 -542.423 1004.7 -497.386C1032.07 -452.368 1038.44 -401.64 1013.46 -350.219C988.386 -298.615 975.82 -262.805 972.677 -233.681C969.531 -204.526 975.831 -182.107 988.396 -157.302C995.285 -143.701 1004.05 -129.39 1014.18 -112.852C1040.98 -69.0932 1077.33 -9.75215 1113.71 93.2317C1136.83 158.694 1132.73 209.365 1109.82 247.341C1086.9 285.331 1045.09 310.723 992.578 325.481C887.551 355 739.972 341.9 616.22 302.329L616.212 302.326L616.203 302.324ZM422.889 296.347C362.549 315.406 298.05 333.346 213.754 309.529C171.578 297.613 152.48 279.254 143.63 257.139C139.214 246.106 137.364 234.169 136.439 221.698C135.907 214.516 135.681 207.12 135.451 199.61C135.283 194.11 135.112 188.549 134.819 182.968C133.427 156.502 129.253 129.212 109.419 103.739C89.58 78.2574 54.0163 54.5248 -10.3094 35.3223C-74.8036 16.0695 -115.352 -19.9246 -136.331 -63.1838C-157.305 -106.433 -158.692 -156.886 -144.979 -205.025C-117.559 -301.28 -29.7025 -388.45 83.0975 -390.436C139.349 -391.427 177.636 -395.784 206.946 -403.817C236.241 -411.845 256.587 -423.55 276.949 -439.269C287.782 -447.632 298.627 -457.139 310.827 -467.834C344.506 -497.358 388.516 -535.94 471.149 -584.53C583.868 -650.812 735.112 -637.894 846.356 -584.153C901.983 -557.279 947.662 -520.174 973.532 -477.594C999.413 -434.995 1005.46 -386.918 981.807 -338.205C958.241 -289.676 946.488 -256.109 943.551 -228.881C940.618 -201.686 946.478 -180.782 958.233 -157.563C964.672 -144.845 972.887 -131.425 982.39 -115.901C1007.6 -74.7218 1041.87 -18.7337 1076.12 78.2646C1097.92 140.038 1094.11 188.032 1072.37 224.081C1050.65 260.116 1011.07 284.111 961.563 298.032C862.56 325.872 723.587 313.506 607.111 276.242C542.985 258.161 489.283 275.239 432.549 293.282L432.512 293.293L432.506 293.295C429.311 294.312 426.106 295.331 422.889 296.347ZM432.301 292.311C488.992 274.28 542.964 257.113 607.391 275.282L607.399 275.284L607.407 275.287C723.772 312.516 862.539 324.84 961.292 297.069C1010.66 283.185 1049.97 259.299 1071.52 223.565C1093.06 187.845 1096.91 140.182 1075.17 78.5975C1040.97 -18.2908 1006.79 -74.1166 981.589 -115.287L981.589 -115.287C972.064 -130.847 963.82 -144.313 957.34 -157.112C945.524 -180.452 939.598 -201.551 942.557 -228.989C945.513 -256.394 957.331 -290.09 980.908 -338.642C1004.4 -387.011 998.406 -434.727 972.677 -477.075C946.937 -519.441 901.434 -556.434 845.921 -583.252C734.883 -636.895 584.006 -649.733 471.656 -583.668C389.114 -535.131 345.213 -496.646 311.542 -467.128C299.32 -456.414 288.445 -446.881 277.56 -438.478C257.115 -422.695 236.654 -410.922 207.211 -402.852C177.782 -394.787 139.399 -390.427 83.115 -389.436C-29.1547 -387.46 -116.691 -300.676 -144.017 -204.751C-157.678 -156.799 -156.277 -106.605 -135.431 -63.6202C-114.59 -20.6456 -74.2852 15.1806 -10.0233 34.3641C54.4071 53.5978 90.1916 77.4152 110.208 103.124C130.231 128.841 134.422 156.382 135.817 182.915C136.112 188.524 136.282 194.071 136.449 199.546L136.449 199.55L136.451 199.605L136.451 199.611L136.452 199.617L136.452 199.624C136.68 207.103 136.905 214.446 137.437 221.624C138.358 234.052 140.198 245.872 144.558 256.768C153.261 278.514 172.054 296.708 214.026 308.567C298.025 332.3 362.283 314.442 422.588 295.393C425.79 294.382 428.982 293.367 432.165 292.354L432.174 292.351L432.268 292.322L432.284 292.316L432.301 292.311ZM226.902 285.998C306.848 308.608 368.018 291.577 425.239 273.485C428.303 272.516 431.355 271.545 434.398 270.576C488.2 253.449 539.118 237.241 599.921 254.401C710.377 289.773 842.17 301.513 936.06 275.085C983.011 261.869 1020.55 239.09 1041.16 204.878C1061.78 170.651 1065.39 125.086 1044.71 66.4458C1012.23 -25.6292 979.73 -78.778 955.825 -117.866C946.813 -132.601 939.024 -145.338 932.919 -157.409C921.773 -179.445 916.218 -199.282 918.999 -225.091C921.783 -250.931 932.927 -282.79 955.275 -328.854C977.711 -375.102 971.973 -420.746 947.426 -461.188C922.89 -501.61 879.569 -536.835 826.814 -562.345C721.317 -613.36 577.883 -625.623 470.982 -562.702C392.62 -516.578 350.882 -479.953 318.944 -451.929L318.943 -451.927L318.941 -451.926C307.374 -441.775 297.092 -432.753 286.821 -424.816C267.513 -409.897 248.223 -398.789 220.447 -391.169C192.655 -383.545 156.35 -379.409 103.008 -378.469C-3.97406 -376.584 -87.2958 -293.83 -113.301 -202.455C-126.306 -156.757 -124.991 -108.859 -105.098 -67.7999C-85.2003 -26.7304 -46.7424 7.44007 14.4232 25.7169C75.4203 43.9433 109.139 66.4685 127.949 90.6499C146.752 114.824 150.709 140.722 152.029 165.841C152.308 171.136 152.469 176.412 152.629 181.632L152.629 181.636C152.847 188.765 153.061 195.788 153.566 202.605C154.443 214.444 156.198 225.777 160.387 236.254C168.783 257.254 186.902 274.686 226.902 285.998ZM600.201 253.441C539.097 236.193 487.908 252.49 434.15 269.605C431.088 270.58 428.018 271.558 424.938 272.532C367.751 290.612 306.822 307.562 227.174 285.036C187.378 273.781 169.564 256.515 161.315 235.883C157.182 225.543 155.437 214.327 154.563 202.531C154.059 195.719 153.846 188.752 153.63 181.655L153.63 181.65C153.471 176.43 153.309 171.139 153.028 165.789C151.704 140.602 147.73 114.453 128.738 90.0359C109.751 65.6266 75.8116 43.0166 14.7095 24.7588C-46.2237 6.55136 -84.4382 -27.451 -104.198 -68.2359C-123.963 -109.031 -125.292 -156.669 -112.339 -202.181C-86.4278 -293.227 -3.4256 -375.593 103.025 -377.469C156.4 -378.41 192.801 -382.548 220.711 -390.205C248.636 -397.865 268.043 -409.042 287.432 -424.025C297.756 -432.002 308.068 -441.052 319.659 -451.222L319.659 -451.222L319.659 -451.223C351.59 -479.241 393.218 -515.769 471.49 -561.84C578.022 -624.545 721.087 -612.36 826.379 -561.445C879.019 -535.99 922.165 -500.878 946.571 -460.669C970.965 -420.479 976.644 -375.194 954.375 -329.291C932.017 -283.204 920.808 -251.216 918.005 -225.198C915.197 -199.148 920.819 -179.116 932.026 -156.957C938.172 -144.807 945.99 -132.023 955.024 -117.252C978.924 -78.1732 1011.33 -25.1866 1043.76 66.7784C1064.38 125.23 1060.72 170.465 1040.3 204.362C1019.87 238.274 982.606 260.944 935.789 274.122C842.149 300.48 710.563 288.784 600.217 253.446L600.209 253.444L600.201 253.441ZM427.924 247.357C374.247 264.343 316.859 280.336 241.857 259.106C204.329 248.483 187.323 232.112 179.443 212.385C175.512 202.545 173.865 191.901 173.043 180.785C172.569 174.384 172.368 167.79 172.163 161.096C172.014 156.194 171.862 151.239 171.601 146.268C170.363 122.686 166.651 98.3796 149.019 75.6915C131.38 52.9957 99.7572 31.8505 42.5428 14.7395C-14.8404 -2.42193 -50.9229 -34.5082 -69.5922 -73.0751C-88.2566 -111.632 -89.4901 -156.608 -77.2887 -199.518C-52.892 -285.316 25.277 -363.021 125.647 -364.792C175.683 -365.674 209.736 -369.557 235.802 -376.714C261.853 -383.866 279.944 -394.293 298.053 -408.298C307.686 -415.749 317.331 -424.219 328.182 -433.749L328.184 -433.75C358.142 -460.062 397.298 -494.45 470.808 -537.755C571.097 -596.836 705.655 -585.319 804.623 -537.421C854.112 -513.469 894.755 -480.395 917.774 -442.438C940.805 -404.461 946.189 -361.597 925.138 -318.167C904.176 -274.92 893.724 -245.013 891.113 -220.758C888.505 -196.535 893.714 -177.917 904.167 -157.231C909.893 -145.901 917.198 -133.944 925.651 -120.111C948.075 -83.4134 978.568 -33.5096 1009.03 52.9386C1028.43 107.999 1025.05 150.788 1005.7 182.932C986.361 215.061 951.14 236.451 907.095 248.86C819.014 273.674 695.38 262.651 591.764 229.441C534.738 213.332 486.983 228.547 436.514 244.627C433.66 245.536 430.797 246.448 427.924 247.357ZM436.265 243.656C486.691 227.588 534.717 212.284 592.044 228.481L592.053 228.483L592.061 228.486C695.566 261.662 818.992 272.641 906.824 247.897C950.735 235.526 985.684 214.245 1004.84 182.416C1023.99 150.602 1027.42 108.143 1008.09 53.271C977.664 -33.0673 947.269 -82.809 924.85 -119.498C916.375 -133.367 909.04 -145.37 903.274 -156.78C892.76 -177.587 887.484 -196.401 890.118 -220.865C892.749 -245.298 903.265 -275.334 924.238 -318.603C945.122 -361.689 939.797 -404.194 916.919 -441.919C894.029 -479.663 853.562 -512.624 804.187 -536.521C705.425 -584.32 571.235 -595.757 471.315 -536.893C397.896 -493.641 358.85 -459.35 328.898 -433.044C318.025 -423.495 308.351 -414.998 298.665 -407.507C280.474 -393.439 262.267 -382.943 236.067 -375.75C209.882 -368.56 175.733 -364.675 125.665 -363.792C25.826 -362.031 -52.0238 -284.713 -76.3267 -199.245C-88.4753 -156.521 -87.2288 -111.804 -68.6922 -73.5108C-50.1606 -35.2284 -14.3213 -3.31042 42.8294 13.7815C100.149 30.9238 131.993 52.154 149.808 75.0778C167.63 98.0093 171.358 122.567 172.6 146.216C172.864 151.241 173.015 156.208 173.164 161.109L173.165 161.121L173.165 161.125C173.368 167.783 173.567 174.319 174.04 180.711C174.859 191.784 176.496 202.311 180.372 212.014C188.105 231.373 204.806 247.579 242.13 258.144C316.834 279.289 373.98 263.379 427.622 246.404C430.512 245.489 433.393 244.572 436.265 243.656ZM256.216 233.335C326.471 253.242 380.228 238.245 430.502 222.319C433.193 221.467 435.873 220.612 438.546 219.76C485.817 204.683 530.534 190.421 583.935 205.521C680.984 236.659 796.785 246.996 879.289 223.728C920.546 212.093 953.542 192.035 971.659 161.901C989.786 131.753 992.958 91.6253 974.783 39.9955C946.25 -41.0604 917.688 -87.8546 896.686 -122.262L896.685 -122.263C888.769 -135.231 881.928 -146.44 876.566 -157.06C866.778 -176.451 861.901 -193.901 864.343 -216.605C866.788 -239.34 876.575 -267.377 896.208 -307.924C915.93 -348.654 910.885 -388.854 889.31 -424.467C867.746 -460.062 829.675 -491.075 783.32 -513.534C690.621 -558.447 564.583 -569.247 470.641 -513.846C401.789 -473.242 365.113 -440.997 337.054 -416.328L337.053 -416.328C326.891 -407.393 317.858 -399.452 308.837 -392.468C291.879 -379.339 274.938 -369.565 250.544 -362.86C226.135 -356.151 194.245 -352.51 147.382 -351.683C53.3593 -350.023 -19.8632 -277.155 -42.7158 -196.702C-54.1451 -156.465 -52.9902 -114.287 -35.5055 -78.1295C-18.0157 -41.961 15.7865 -11.8719 69.5388 4.22065C123.122 20.2626 152.733 40.0853 169.247 61.3573C185.756 82.6219 189.232 105.404 190.392 127.512C190.636 132.168 190.778 136.812 190.918 141.406L190.918 141.411C191.109 147.688 191.298 153.873 191.742 159.874C192.512 170.298 194.055 180.281 197.738 189.511C205.123 208.019 221.06 223.373 256.216 233.335ZM584.215 204.561C530.514 189.373 485.525 203.724 438.297 218.789C435.606 219.648 432.908 220.508 430.2 221.366C379.961 237.281 326.446 252.196 256.488 232.373C221.537 222.469 205.905 207.28 198.667 189.141C195.038 180.048 193.506 170.181 192.739 159.801C192.296 153.812 192.109 147.691 191.919 141.453L191.919 141.452L191.919 141.451L191.919 141.45L191.919 141.449L191.919 141.448L191.919 141.447L191.919 141.445L191.919 141.444L191.919 141.442L191.919 141.441L191.919 141.439L191.919 141.437L191.919 141.436L191.919 141.426C191.779 136.83 191.637 132.172 191.39 127.459C190.227 105.284 186.734 82.2518 170.037 60.7441C153.346 39.2439 123.514 19.3361 69.8256 3.26268C16.3063 -12.7602 -17.2529 -42.6806 -34.6052 -78.5648C-51.9626 -114.46 -53.1303 -156.378 -41.7537 -196.429C-18.9946 -276.553 53.909 -349.032 147.4 -350.683C194.295 -351.511 226.282 -355.154 250.81 -361.896C275.353 -368.642 292.409 -378.484 309.449 -391.677C318.523 -398.702 327.585 -406.669 337.769 -415.623C365.822 -440.286 402.388 -472.434 471.149 -512.985C564.722 -568.168 690.391 -557.447 782.884 -512.634C829.124 -490.231 867.02 -459.331 888.454 -423.949C909.877 -388.586 914.863 -348.746 895.308 -308.36C875.664 -267.79 865.813 -239.625 863.349 -216.712C860.881 -193.767 865.824 -176.122 875.674 -156.61C881.075 -145.911 887.944 -134.657 895.881 -121.655L895.882 -121.653L895.883 -121.651L895.884 -121.65C916.881 -87.2505 945.346 -40.6185 973.84 40.3276C991.948 91.7689 988.731 131.567 970.802 161.386C952.865 191.219 920.141 211.168 879.018 222.766C796.764 245.963 681.17 235.67 584.232 204.566L584.224 204.564L584.215 204.561ZM433.079 197.28C386.207 212.147 336.081 226.148 270.572 207.563C237.789 198.262 222.921 183.925 216.031 166.637C212.595 158.016 211.157 148.694 210.438 138.963C210.025 133.361 209.849 127.586 209.67 121.726C209.539 117.436 209.407 113.101 209.179 108.754C208.098 88.1199 204.858 66.8629 189.474 47.022C174.083 27.1737 146.484 8.67351 96.5325 -6.29943C46.4113 -21.3231 14.8894 -49.4149 -1.42086 -83.185C-17.726 -116.945 -18.8022 -156.323 -8.14498 -193.888C13.1634 -268.995 81.4393 -337.026 169.115 -338.576C212.804 -339.348 242.532 -342.746 265.285 -349.007C288.022 -355.264 303.812 -364.385 319.619 -376.638C328.028 -383.156 336.447 -390.567 345.921 -398.907L345.922 -398.907C372.082 -421.934 406.279 -452.036 470.472 -489.939C558.067 -541.659 675.585 -531.575 762.015 -489.649C805.236 -468.683 840.735 -439.731 860.843 -406.499C880.963 -373.247 885.668 -335.712 867.276 -297.682C848.973 -259.835 839.85 -233.669 837.571 -212.453C835.296 -191.269 839.84 -174.986 848.964 -156.891C853.961 -146.98 860.339 -136.519 867.718 -124.415C887.298 -92.2969 913.93 -48.6125 940.533 27.0512C957.479 75.2502 954.523 112.718 937.618 140.869C920.721 169.007 889.95 187.734 851.481 198.596C774.554 220.317 666.586 210.667 576.103 181.601C526.329 167.509 484.648 180.818 440.576 194.892C438.085 195.687 435.587 196.485 433.079 197.28ZM440.327 193.921C484.355 179.859 526.308 166.461 576.384 180.641L576.392 180.643L576.401 180.646C666.772 209.678 774.533 219.284 851.209 197.633C889.544 186.809 920.044 168.192 936.76 140.355C953.468 112.532 956.469 75.3936 939.589 27.3829C913.026 -48.1707 886.492 -91.693 866.916 -123.802L866.916 -123.802C859.515 -135.942 853.108 -146.45 848.071 -156.44C838.886 -174.658 834.275 -191.134 836.577 -212.56C838.875 -233.954 848.061 -260.248 866.376 -298.117C884.601 -335.804 879.955 -372.98 859.987 -405.981C840.008 -439 804.684 -467.839 761.578 -488.749C675.354 -530.575 558.206 -540.58 470.981 -489.078C406.878 -451.228 372.791 -421.224 346.638 -398.203C337.142 -389.844 328.693 -382.406 320.232 -375.848C304.343 -363.531 288.437 -354.341 265.55 -348.043C242.679 -341.749 212.854 -338.349 169.133 -337.576C81.9898 -336.035 14.0324 -268.394 -7.18294 -193.615C-17.7876 -156.236 -16.6984 -117.116 -0.52035 -83.62C15.6526 -50.134 46.9317 -22.2111 96.8196 -7.25731C146.877 7.74724 174.697 26.3327 190.264 46.4092C205.837 66.4933 209.094 88.0005 210.178 108.702C210.409 113.103 210.541 117.451 210.671 121.74L210.672 121.749C210.849 127.576 211.022 133.294 211.436 138.889C212.151 148.577 213.579 157.783 216.96 166.267C223.703 183.186 238.267 197.358 270.845 206.601C336.056 225.101 385.939 211.182 432.776 196.327C435.301 195.526 437.817 194.723 440.327 193.921ZM435.382 172.241C391.889 186.048 345.369 199.053 284.572 181.791C254.146 173.151 240.339 159.83 233.941 143.762C230.751 135.751 229.416 127.09 228.749 118.051C228.366 112.852 228.202 107.492 228.037 102.053L228.036 102.04L228.036 102.033C227.915 98.051 227.792 94.0275 227.581 89.995C226.578 70.8346 223.572 51.1023 209.304 32.6848C195.029 14.2599 169.429 -2.91792 123.083 -16.822C76.5672 -30.777 47.3096 -56.8717 32.1706 -88.244C17.0367 -119.606 16.0385 -156.185 25.9291 -191.078C45.7043 -260.841 109.068 -324.035 190.441 -325.475C230.978 -326.192 258.559 -329.348 279.667 -335.161C300.759 -340.971 315.407 -349.439 330.071 -360.815C337.869 -366.866 345.679 -373.746 354.466 -381.487L354.468 -381.489L354.471 -381.492L354.473 -381.494C378.747 -402.879 410.482 -430.838 470.05 -466.04C551.341 -514.08 660.399 -504.712 740.604 -465.772C780.712 -446.299 813.658 -419.407 832.321 -388.537C850.995 -357.648 855.363 -322.776 838.291 -287.446C821.308 -252.299 812.846 -228.003 810.732 -208.306C808.621 -188.641 812.836 -173.526 821.299 -156.725C825.935 -147.524 831.851 -137.81 838.698 -126.571C856.866 -96.7428 881.582 -56.1676 906.267 14.1047C921.994 58.8734 919.253 93.6808 903.559 119.837C887.874 145.979 859.312 163.374 823.613 173.463C752.224 193.638 652.034 184.674 568.072 157.679C521.897 144.596 483.232 156.953 442.337 170.023C440.026 170.762 437.709 171.502 435.382 172.241ZM442.088 169.053C482.939 155.994 521.877 143.548 568.353 156.72L568.361 156.722L568.37 156.725C652.22 183.685 752.203 192.605 823.341 172.501C858.906 162.45 887.197 145.164 902.702 119.322C918.198 93.4951 920.984 59.0167 905.324 14.4361C880.677 -55.7265 856.059 -96.1397 837.895 -125.959L837.895 -125.959L837.893 -125.962C831.026 -137.236 825.081 -146.995 820.406 -156.275C811.881 -173.198 807.601 -188.506 809.738 -208.413C811.871 -228.287 820.397 -252.711 837.391 -287.881C854.296 -322.868 849.987 -357.381 831.465 -388.019C812.931 -418.677 780.16 -445.455 740.167 -464.872C660.168 -503.712 551.48 -513 470.559 -465.179C411.081 -430.03 379.456 -402.169 355.19 -380.789C346.378 -373.026 338.536 -366.118 330.684 -360.025C315.937 -348.585 301.174 -340.048 279.933 -334.197C258.706 -328.351 231.028 -325.193 190.459 -324.475C109.619 -323.044 46.5735 -260.241 26.8913 -190.805C17.0531 -156.098 18.0642 -119.777 33.0712 -88.6786C48.0732 -57.5905 77.0879 -31.6648 123.37 -17.7799C169.822 -3.84407 195.643 13.4192 210.094 32.0724C224.551 50.7329 227.573 70.7154 228.58 89.9427C228.794 94.0271 228.916 98.061 229.037 102.04L229.037 102.043L229.037 102.054L229.038 102.06L229.038 102.062C229.202 107.472 229.363 112.781 229.746 117.977C230.41 126.973 231.735 135.518 234.87 143.392C241.122 159.092 254.625 172.247 284.846 180.829C345.343 198.007 391.621 185.083 435.08 171.288C437.421 170.545 439.754 169.799 442.081 169.055L442.088 169.053ZM438.195 148.551C397.603 161.09 354.342 172.972 298.296 157.058C269.625 148.916 256.4 136.55 250.119 121.691C246.988 114.283 245.596 106.287 244.848 97.9511C244.398 92.94 244.18 87.7736 243.958 82.5329L243.958 82.531L243.958 82.5276L243.957 82.5247L243.957 82.522L243.957 82.5199L243.956 82.4903C243.81 79.0496 243.663 75.5772 243.448 72.0958C242.358 54.4461 239.517 36.2782 226.376 19.2788C213.23 2.27254 189.72 -13.6323 147.143 -26.6106L147.28 -27.0597L147.143 -26.6108C104.298 -39.7146 77.2159 -64.0261 63.1209 -93.1961C49.0308 -122.356 47.9444 -156.318 56.9852 -188.693C75.0613 -253.422 133.678 -311.971 210.191 -313.28C248.075 -313.932 273.843 -316.899 293.54 -322.341C313.222 -327.78 326.863 -335.694 340.487 -346.275C347.635 -351.825 354.784 -358.116 362.799 -365.169L362.8 -365.17C385.36 -385.023 414.785 -410.915 470.357 -443.339C545.823 -487.369 646.634 -478.727 720.823 -442.721C757.923 -424.715 788.417 -399.842 805.767 -371.227C823.128 -342.594 827.321 -310.216 811.797 -277.299L811.795 -277.297C796.357 -245.053 788.657 -222.639 786.74 -204.368C784.825 -186.127 788.671 -171.982 796.414 -156.257C800.755 -147.44 806.33 -138.119 812.797 -127.305C829.409 -99.5288 851.912 -61.9018 874.545 2.33133C889.01 43.4269 886.45 75.5306 871.939 99.7578C857.437 123.97 831.06 140.213 798.101 149.73C732.192 168.759 639.709 160.966 562.132 135.891C518.893 123.482 482.534 134.778 444.155 146.702L444.139 146.707C442.163 147.321 440.182 147.937 438.195 148.551ZM443.917 145.729C482.251 133.817 518.879 122.434 562.415 134.932L562.423 134.934L562.431 134.936C639.892 159.976 732.165 167.726 797.823 148.769C830.648 139.292 856.758 123.159 871.081 99.244C885.396 75.3437 887.999 43.5682 873.601 2.66349C851.005 -61.4665 828.599 -98.9283 811.994 -126.693L811.993 -126.694C805.504 -137.544 799.9 -146.914 795.517 -155.815C787.715 -171.66 783.806 -185.996 785.745 -204.473C787.681 -222.919 795.443 -245.459 810.893 -277.727C826.256 -310.302 822.122 -342.325 804.912 -370.709C787.691 -399.111 757.371 -423.871 720.386 -441.821C646.404 -477.727 545.96 -486.291 470.861 -442.475C415.382 -410.106 386.067 -384.31 363.513 -364.463C355.477 -357.391 348.298 -351.074 341.101 -345.485C327.394 -334.841 313.638 -326.857 293.806 -321.378C273.99 -315.902 248.126 -312.932 210.208 -312.28C134.225 -310.98 75.931 -252.819 57.9483 -188.424C48.9598 -156.236 50.0567 -122.531 64.0213 -93.6312C77.981 -64.7414 104.824 -40.5995 147.435 -27.567C190.118 -14.5565 213.846 1.43438 227.167 18.6672C240.494 35.9069 243.352 54.3215 244.446 72.0341C244.665 75.5745 244.813 79.0754 244.959 82.5323C245.179 87.748 245.396 92.8633 245.844 97.8617C246.588 106.151 247.966 114.031 251.04 121.302C257.169 135.801 270.094 148.01 298.569 156.096C354.318 171.926 397.339 160.125 437.9 147.595C439.888 146.981 441.871 146.365 443.85 145.75L443.917 145.729ZM312.004 132.323C363.3 146.89 403.302 136.131 440.993 124.859C442.641 124.366 444.284 123.872 445.924 123.379L445.946 123.373C481.81 112.597 515.87 102.363 556.177 114.1C627.369 137.257 712.145 143.878 772.575 125.994C802.794 117.051 826.987 101.96 840.305 79.677C853.632 57.3788 856.011 27.9789 842.808 -9.44375L842.807 -9.44409C822.236 -67.616 801.947 -102.274 786.895 -127.986L786.895 -127.987C780.799 -138.399 775.563 -147.344 771.514 -155.79C764.492 -170.439 761.014 -183.616 762.733 -200.433C764.454 -217.278 771.392 -237.809 785.285 -267.15L785.288 -267.156C799.265 -297.659 795.247 -327.543 779.199 -353.919C763.163 -380.278 735.12 -403.132 701.028 -419.672C632.855 -452.745 540.29 -460.66 470.651 -420.64C419.08 -391.004 391.969 -367.178 371.122 -348.857L371.12 -348.856L371.118 -348.854L371.117 -348.853C363.873 -342.487 357.385 -336.785 350.89 -331.736C338.304 -321.951 325.671 -314.59 307.399 -309.524C289.112 -304.452 265.158 -301.673 229.927 -301.086C158.273 -299.908 104.404 -246.006 88.0268 -186.309C79.8357 -156.452 81.0107 -125.108 94.0569 -98.15C107.108 -71.1825 132.015 -48.6542 171.188 -36.4013L171.189 -36.401C209.998 -24.3486 231.416 -9.71681 243.434 5.87102C255.448 21.4527 258.124 38.0563 259.301 54.1959C259.517 57.1477 259.682 60.0915 259.846 63.0119L259.847 63.0308C260.13 68.0675 260.409 73.0342 260.933 77.8513C261.762 85.4847 263.21 92.815 266.284 99.6202C272.447 113.269 285.09 124.68 312.004 132.323ZM556.464 113.142C515.864 101.317 481.539 111.632 445.721 122.396L445.712 122.399C444.047 122.899 442.378 123.401 440.706 123.901C403.042 135.165 363.279 145.844 312.278 131.361C285.549 123.771 273.201 112.509 267.195 99.2086C264.183 92.5396 262.751 85.3267 261.927 77.7433C261.406 72.9472 261.13 68.0317 260.848 63.0172C260.684 60.085 260.517 57.119 260.298 54.1231C259.117 37.9255 256.423 21.079 244.226 5.26043C232.034 -10.552 210.401 -25.2706 171.486 -37.356C132.546 -49.536 107.874 -71.8939 94.9571 -98.5857C82.0348 -125.287 80.852 -156.376 88.9911 -186.044C105.274 -245.398 158.817 -298.917 229.943 -300.087C265.209 -300.674 289.259 -303.456 307.666 -308.56C326.088 -313.668 338.837 -321.098 351.504 -330.946C358.048 -336.034 364.566 -341.762 371.832 -348.147C392.673 -366.463 419.675 -390.193 471.149 -419.773C540.425 -459.584 632.626 -451.744 700.591 -418.772C734.568 -402.289 762.437 -379.547 778.345 -353.399C794.242 -327.27 798.201 -297.738 784.381 -267.576C770.475 -238.209 763.477 -217.553 761.738 -200.535C759.996 -183.488 763.533 -170.124 770.612 -155.358C774.705 -146.821 779.971 -137.826 786.089 -127.377L786.09 -127.373L786.091 -127.373C801.135 -101.677 821.327 -67.1885 841.865 -9.11105C855 28.1176 852.579 57.1905 839.446 79.164C826.304 101.152 802.376 116.132 772.291 125.036C712.113 142.845 627.548 136.265 556.479 113.146L556.471 113.144L556.464 113.142ZM443.784 101.166C408.996 111.171 372.252 120.806 325.708 107.588C300.55 100.443 288.49 89.9877 282.443 77.5504C277.426 67.2297 276.581 55.5801 275.707 43.5355L275.707 43.5272C275.533 41.1301 275.358 38.7174 275.148 36.2964C273.884 21.6665 271.373 6.62676 260.486 -7.53748C249.595 -21.7071 230.269 -35.0659 195.229 -46.1923L195.227 -46.1928C159.725 -57.5948 136.994 -78.3398 124.987 -103.105C112.985 -127.86 111.721 -156.586 119.063 -183.925C133.741 -238.59 182.864 -287.846 249.656 -288.894C282.235 -289.415 304.375 -292.006 321.252 -296.706C338.113 -301.402 349.74 -308.208 361.287 -317.197C367.135 -321.75 372.968 -326.868 379.45 -332.557C398.584 -349.347 423.377 -371.104 470.939 -397.943C534.753 -433.952 619.07 -426.763 681.227 -396.623C712.311 -381.55 737.902 -360.715 752.626 -336.612C767.36 -312.492 771.204 -285.102 758.774 -257.013L758.77 -257.004C746.421 -230.566 740.246 -211.917 738.721 -196.498C737.198 -181.105 740.307 -168.896 746.609 -155.323C750.384 -147.193 755.287 -138.606 761.021 -128.562C764.891 -121.783 769.141 -114.339 773.678 -105.925C784.921 -85.0753 797.877 -58.3526 811.065 -21.2201L811.065 -21.2196C823.007 12.5306 820.809 39.2266 808.665 59.5955C796.531 79.949 774.523 93.8878 747.044 102.258C692.094 118.997 615.024 113.547 550.216 92.3085C512.836 81.2398 481.067 90.4081 447.715 100.033C446.407 100.411 445.097 100.789 443.784 101.166ZM447.505 99.053C480.81 89.4398 512.838 80.1951 550.507 91.3517L550.514 91.3537L550.521 91.3559C615.199 112.553 692.054 117.963 746.752 101.302C774.097 92.9722 795.845 79.1458 807.806 59.0834C819.758 39.0365 821.995 12.6662 810.122 -20.886C796.955 -57.9622 784.021 -84.6378 772.798 -105.45C768.293 -113.805 764.055 -121.229 760.186 -128.007L760.185 -128.008L760.183 -128.012L760.182 -128.013C754.428 -138.093 749.49 -146.744 745.702 -154.901C739.347 -168.59 736.181 -180.98 737.726 -196.597C739.268 -212.187 745.501 -230.958 757.862 -257.423C770.14 -285.174 766.356 -312.216 751.772 -336.091C737.177 -359.984 711.759 -380.707 680.791 -395.723C618.843 -425.762 534.884 -432.878 471.431 -397.072C423.97 -370.29 399.285 -348.629 380.156 -331.843C373.655 -326.138 367.795 -320.996 361.901 -316.408C350.273 -307.356 338.531 -300.48 321.52 -295.743C304.523 -291.01 282.286 -288.416 249.672 -287.894C183.402 -286.855 134.612 -237.977 120.028 -183.666C112.738 -156.517 114.007 -128.044 125.887 -103.541C137.763 -79.0466 160.264 -58.4724 195.532 -47.1452C230.678 -35.9848 250.217 -22.5386 261.279 -8.14689C272.345 6.25021 274.875 21.5282 276.145 36.2102C276.357 38.6679 276.535 41.106 276.71 43.5189C277.586 55.5617 278.417 66.9816 283.343 77.1132C289.226 89.2145 300.998 99.5305 325.981 106.626C372.234 119.761 408.74 110.204 443.507 100.205C444.82 99.8279 446.13 99.4497 447.438 99.0721L447.505 99.053ZM339.424 82.8499C381.217 94.7191 414.702 86.2081 446.588 77.4711C447.51 77.2183 448.431 76.9654 449.351 76.7128L449.476 76.6784C480.32 68.2075 509.809 60.1085 544.269 70.5137C602.692 89.8338 672.057 94.1117 721.527 78.5188C746.267 70.7209 766.088 57.934 777.039 39.5106C787.999 21.0714 790.017 -2.92069 779.336 -32.9987L779.336 -32.9995C767.419 -66.3784 755.811 -90.5788 745.78 -109.574C741.999 -116.735 738.448 -123.145 735.191 -129.024L735.189 -129.028L735.184 -129.038L735.176 -129.052L735.175 -129.053L735.175 -129.054C730.793 -136.964 726.944 -143.912 723.783 -150.432L714.697 -192.299C714.705 -192.388 714.713 -192.478 714.722 -192.567C716.051 -206.561 721.465 -223.327 732.268 -246.862L732.271 -246.869L732.274 -246.876C743.156 -272.55 739.486 -297.445 726.065 -319.308C712.655 -341.155 689.516 -359.971 661.44 -373.578C605.298 -400.785 529.228 -407.247 471.242 -375.248C427.699 -351.221 405.228 -331.535 387.807 -316.273L387.806 -316.273C382.08 -311.257 376.9 -306.719 371.697 -302.662C361.189 -294.469 350.569 -288.216 335.118 -283.892C319.652 -279.563 299.325 -277.161 269.4 -276.705C207.468 -275.788 163.091 -231.178 150.112 -181.544C143.621 -156.722 144.973 -130.615 155.931 -108.062C166.893 -85.5008 187.449 -66.5391 219.279 -55.9878L219.282 -55.987C250.552 -45.7867 267.788 -33.7011 277.552 -20.9494C287.313 -8.20206 289.657 5.27423 291.01 18.3952C291.205 20.2937 291.38 22.1869 291.554 24.0704C292.579 35.1663 293.572 45.927 298.619 55.4794C304.548 66.7038 316.024 76.2027 339.424 82.8499ZM734.333 -128.51C730.719 -135.032 727.459 -140.919 724.647 -146.448L745.103 -52.1884C735.353 -78.365 726.001 -98.0174 717.873 -113.816C714.85 -119.692 712.001 -125.026 709.366 -129.961L709.364 -129.964L709.36 -129.971C704.299 -139.448 700.024 -147.452 696.818 -154.984C691.956 -166.407 689.583 -176.681 690.714 -189.23C691.824 -201.543 696.311 -216.079 705.199 -236.064L714.03 -195.372C715.782 -208.977 721.222 -225.194 731.356 -247.273C742.093 -272.612 738.484 -297.165 725.213 -318.785C711.931 -340.424 688.963 -359.128 661.004 -372.678C605.073 -399.783 529.356 -406.175 471.725 -374.373C428.288 -350.403 405.925 -330.813 388.508 -315.556L388.505 -315.553L388.502 -315.551L388.501 -315.55L388.498 -315.548L388.498 -315.547L388.491 -315.541C382.754 -310.516 377.553 -305.96 372.312 -301.873C361.724 -293.618 350.989 -287.296 335.388 -282.929C319.801 -278.567 299.376 -276.162 269.415 -275.705C208 -274.795 163.963 -230.56 151.079 -181.291C144.639 -156.662 145.992 -130.805 156.831 -108.499C167.664 -86.2023 187.995 -67.4121 219.592 -56.9378C250.97 -46.7023 268.414 -34.5281 278.346 -21.5573C288.281 -8.58216 290.647 5.1268 292.004 18.2926C292.202 20.2137 292.379 22.1211 292.554 24.012C293.582 35.1175 294.558 45.6513 299.503 55.0123C305.263 65.9167 316.46 75.2869 339.698 81.888C381.203 93.6755 414.451 85.24 446.323 76.5066C447.186 76.2702 448.048 76.0336 448.909 75.7972L449.193 75.7191L449.283 75.6943C480.078 67.2354 509.821 59.0656 544.564 69.5583L544.577 69.5621C602.863 88.8382 672.008 93.0786 721.226 77.5651C745.832 69.8095 765.399 57.1363 776.179 38.9997C786.95 20.8791 789.003 -2.78879 778.393 -32.6641C766.496 -65.9894 754.909 -90.1455 744.896 -109.108C741.136 -116.228 737.591 -122.628 734.333 -128.51ZM704.844 -237.702L705.199 -236.064C705.383 -236.478 705.57 -236.895 705.758 -237.314L705.762 -237.323L705.765 -237.332C715.098 -260.592 711.602 -282.991 699.496 -302.598C687.399 -322.188 666.711 -338.986 641.643 -351.125C591.517 -375.399 523.695 -381.134 471.537 -353.148C432.025 -331.948 411.881 -314.335 396.172 -300.6C391.193 -296.247 386.66 -292.284 382.098 -288.719C372.629 -281.323 363.016 -275.624 348.975 -271.671C334.919 -267.713 316.406 -265.499 289.134 -265.108C232.064 -264.322 192.432 -224.359 181.152 -179.756C175.511 -157.451 176.952 -133.962 186.866 -113.613C196.783 -93.2554 215.162 -76.0771 243.321 -66.3762L243.324 -66.3752C270.826 -57.101 285.971 -46.2886 294.608 -34.9545C303.243 -23.6234 305.422 -11.71 306.862 -0.0970192C307.032 1.27832 307.193 2.65063 307.352 4.01797L307.354 4.035C308.537 14.1736 309.688 24.0369 314.787 32.818C320.599 42.8275 331.489 51.3697 353.132 57.5186C390.173 68.039 420.399 60.6523 449.381 53.1829C449.987 53.0266 450.593 52.8702 451.199 52.714C479.538 45.402 506.762 38.3776 538.312 48.1257C590.353 65.528 652.012 68.6338 696.002 54.1858C718.001 46.9604 735.637 35.3255 745.403 18.8326C755.179 2.32339 757.018 -18.9645 747.597 -45.371L747.597 -45.3721C746.763 -47.6924 745.932 -49.964 745.103 -52.1884L746.655 -45.035C736.027 -74.6097 725.788 -96.2467 716.984 -113.359C713.983 -119.192 711.144 -124.507 708.512 -129.436C703.433 -138.947 699.122 -147.018 695.898 -154.592C690.99 -166.124 688.568 -176.566 689.718 -189.32C690.866 -202.051 695.57 -217.053 704.841 -237.714L704.837 -237.705L704.844 -237.702ZM704.844 -237.702L705.301 -237.519L704.845 -237.723L704.841 -237.714L704.844 -237.702ZM243.646 -67.3218C271.254 -58.0114 286.603 -47.1097 295.404 -35.5606C304.207 -24.008 306.41 -11.8687 307.854 -0.220066C308.027 1.16934 308.188 2.55053 308.349 3.92236L308.349 3.92547C309.537 14.0864 310.664 23.7274 315.651 32.3158C321.289 42.0251 331.912 50.4502 353.405 56.5566C390.163 66.9967 420.155 59.6827 449.131 52.2145C449.763 52.0516 450.395 51.8886 451.027 51.7256C479.316 44.4257 506.787 37.3368 538.612 47.172L538.623 47.1755C590.516 64.5296 651.952 67.601 695.69 53.2357C717.555 46.0543 734.943 34.5344 744.543 18.3231C754.132 2.12823 756.001 -18.8373 746.655 -45.035L719.406 -46.2423C723.171 -28.9677 720.772 -14.4312 713.773 -2.55341C705.191 12.0082 689.743 22.4912 670.483 29.1443C631.973 42.4479 578.018 40.5148 532.359 25.0298C503.707 15.9296 478.726 21.8719 452.886 28.0186L452.177 28.1872C426.1 34.3889 399.132 40.6509 366.844 31.4794C346.96 25.8291 336.657 18.2442 330.962 9.4519C325.777 1.44604 324.458 -7.50879 323.108 -16.6795L323.108 -16.68C322.98 -17.5496 322.851 -18.4212 322.72 -19.2941C321.192 -29.4005 319.179 -39.752 311.669 -49.6677C307.665 -54.9551 302.084 -60.135 294.149 -65.0842L243.646 -67.3218ZM243.646 -67.3218L243.643 -67.3227L243.484 -66.8489L243.646 -67.3218ZM296.149 -64.9955C303.401 -60.2741 308.632 -55.3349 312.466 -50.2714C320.138 -40.1425 322.177 -29.5735 323.708 -19.4435C323.839 -18.5757 323.967 -17.7116 324.094 -16.8516C325.452 -7.64456 326.741 1.09442 331.802 8.90829C337.317 17.425 347.368 24.9054 367.117 30.5174C399.129 39.6104 425.863 33.4173 451.945 27.2144L452.739 27.0256C478.527 20.8909 503.747 14.8915 532.666 24.0782L532.675 24.0812C578.174 39.5127 631.898 41.4157 670.157 28.1991C689.283 21.5921 704.492 11.2255 712.911 -3.06113C719.796 -14.7448 722.173 -29.1058 718.372 -46.2882L688.571 -47.6085C688.465 -38.7712 686.187 -30.8923 682.138 -23.9793C674.742 -11.35 661.482 -2.01881 644.963 4.0624C611.933 16.222 565.682 15.4628 526.401 1.89402C500.796 -6.51668 478.156 -1.78536 454.967 3.15229L454.523 3.24677C431.493 8.15122 407.912 13.173 380.552 5.40061C362.428 0.249207 352.714 -6.37793 347.139 -13.9498C341.818 -21.1763 340.317 -29.2076 338.786 -37.3983L338.76 -37.5383C338.698 -37.8674 338.637 -38.1967 338.575 -38.5263C337.015 -46.826 335.242 -55.3011 329.383 -63.5231L296.149 -64.9955ZM353.286 -62.464L330.642 -63.4673C336.285 -55.2499 338.036 -46.8087 339.557 -38.711C339.624 -38.3543 339.691 -37.9984 339.757 -37.6433C341.299 -29.4041 342.762 -21.5804 347.944 -14.5427C353.339 -7.21555 362.819 -0.679169 380.826 4.43866C407.946 12.143 431.317 7.16611 454.385 2.25379L454.759 2.17423C477.929 -2.75948 500.823 -7.56182 526.717 0.945141L526.724 0.947582C565.826 14.4556 611.838 15.1912 644.618 3.12395C661.004 -2.90849 674.035 -12.1216 681.275 -24.4847C685.232 -31.2409 687.472 -38.9602 687.572 -47.6528L652.434 -49.2096C651.857 -47.9289 651.214 -46.6797 650.507 -45.4622C644.298 -34.7666 633.227 -26.5873 619.449 -21.0776C591.9 -10.061 553.35 -9.64461 520.445 -21.2988C498.148 -28.937 478.04 -25.6087 457.756 -21.9387C457.195 -21.8372 456.634 -21.7354 456.072 -21.6335C436.358 -18.0584 416.413 -14.4413 394.264 -20.7347C377.899 -25.387 368.778 -31.0557 363.324 -37.4033C357.871 -43.7501 356.138 -50.721 354.435 -57.8082L354.353 -58.15L354.352 -58.1516C354.008 -59.5847 353.663 -61.0229 353.286 -62.464ZM354.332 -62.4176C354.677 -61.0804 354.997 -59.7515 355.313 -58.434L355.313 -58.4333L355.407 -58.0419C357.113 -50.943 358.805 -44.1973 364.083 -38.055C369.359 -31.9134 378.272 -26.3205 394.537 -21.6966C416.46 -15.4676 436.201 -19.0471 455.956 -22.6289L456.765 -22.7756L457.578 -22.9228C477.855 -26.5914 498.201 -29.9767 520.772 -22.2439L520.777 -22.2422C553.479 -10.6593 591.777 -11.0891 619.078 -22.0062C632.726 -27.4636 643.581 -35.5233 649.642 -45.9643C650.265 -47.0363 650.837 -48.134 651.357 -49.2574L603.361 -51.3839C600.45 -49.5037 597.291 -47.807 593.931 -46.3038C571.864 -36.429 541.013 -34.833 514.478 -44.5754C495.485 -51.4417 477.909 -49.5152 460.53 -47.1127C459.517 -46.9726 458.504 -46.8308 457.491 -46.689L457.474 -46.6867C441.155 -44.4027 424.929 -42.1317 407.965 -46.9532C393.362 -51.106 384.837 -55.8157 379.509 -60.9346C379.376 -61.0627 379.244 -61.191 379.115 -61.3196L354.332 -62.4176ZM593.523 -47.2166C596.38 -48.4952 599.085 -49.9126 601.608 -51.4616L380.629 -61.2525C385.822 -56.4434 394.109 -51.9332 408.238 -47.9151C424.992 -43.1533 441.021 -45.3953 457.381 -47.6835L457.388 -47.6845C458.388 -47.8245 459.39 -47.9646 460.393 -48.1033C477.777 -50.5065 495.573 -52.4735 514.819 -45.5154L514.822 -45.5145C541.118 -35.8594 571.699 -37.4507 593.523 -47.2166Z" fill="url(#paint0_linear_7564_31969)"/>
</g>
<defs>
<linearGradient id="paint0_linear_7564_31969" x1="283.499" y1="-103.5" x2="283.495" y2="76" gradientUnits="userSpaceOnUse">
<stop stop-color="#C4C4C4"/>
<stop offset="1" stop-color="#4C4751" stop-opacity="0"/>
</linearGradient>
<clipPath id="clip0_7564_31969">
<rect width="563" height="288" fill="white"/>
</clipPath>
</defs>
</svg>
