<svg width="600" height="282" viewBox="0 0 600 282" fill="none" xmlns="http://www.w3.org/2000/svg">
<path fill-rule="evenodd" clip-rule="evenodd" d="M497.653 1300.43C374.357 1339.29 242.67 1375.83 70.553 1327.3C-15.5332 1303.03 -54.4049 1265.68 -72.4139 1220.78C-81.4092 1198.35 -85.186 1174.07 -87.0735 1148.66C-88.1611 1134.02 -88.6227 1118.96 -89.0915 1103.67L-89.0915 1103.66C-89.4353 1092.45 -89.7831 1081.1 -90.3845 1069.69C-93.2317 1015.69 -101.77 959.911 -142.401 907.84C-183.039 855.76 -255.834 807.321 -387.348 768.147C-519.031 728.924 -601.77 655.613 -644.572 567.547C-687.37 479.492 -690.212 376.743 -662.215 278.677C-606.225 82.5656 -426.844 -94.9878 -196.597 -99.0326C-81.6217 -101.052 -3.32558 -109.939 56.6362 -126.336C116.583 -142.729 158.222 -166.633 199.878 -198.72C222.045 -215.795 244.223 -235.194 269.168 -257.014C337.992 -317.215 427.877 -395.839 596.702 -494.896C826.869 -629.944 1135.77 -603.643 1363 -494.107C1476.63 -439.336 1569.89 -363.729 1622.69 -277.012C1675.5 -190.277 1687.83 -92.4262 1639.58 6.72935C1591.41 105.701 1567.36 174.218 1561.35 229.831C1555.34 285.413 1567.35 328.14 1591.4 375.551C1604.58 401.526 1621.38 428.912 1640.81 460.583L1640.82 460.586L1640.82 460.588L1640.82 460.588L1640.82 460.59L1640.82 460.591L1640.82 460.593C1692.33 544.56 1762.33 658.645 1832.29 856.385C1876.82 982.253 1869.01 1079.95 1824.69 1153.29C1780.38 1226.61 1699.64 1275.49 1598.53 1303.86C1396.33 1360.59 1112.43 1335.4 874.448 1259.43C743.237 1222.51 633.346 1257.38 517.422 1294.17C510.854 1296.25 504.266 1298.34 497.653 1300.43ZM517.175 1293.2C633.055 1256.42 743.216 1221.46 874.727 1258.47L874.735 1258.47L874.743 1258.47C1112.61 1334.41 1396.31 1359.56 1598.26 1302.89C1699.23 1274.56 1779.7 1225.8 1823.83 1152.77C1867.95 1079.76 1875.81 982.397 1831.35 856.718C1761.42 659.089 1691.53 545.166 1640.02 461.208C1620.56 429.497 1603.73 402.061 1590.51 376.003C1566.39 328.471 1554.32 285.548 1560.35 229.724C1566.38 173.931 1590.5 105.286 1638.68 6.29173C1686.77 -92.5186 1674.49 -190.008 1621.83 -276.492C1569.16 -362.996 1476.08 -438.49 1362.57 -493.206C1135.54 -602.644 827.007 -628.865 597.208 -494.033C428.473 -395.03 338.698 -316.502 269.881 -256.306L269.878 -256.303L269.873 -256.299L269.871 -256.297C244.909 -234.463 222.704 -215.04 200.489 -197.928C158.75 -165.777 116.995 -141.805 56.9 -125.372C-3.17971 -108.943 -81.572 -100.053 -196.579 -98.0327C-426.298 -93.9974 -605.358 83.1712 -661.253 278.951C-689.197 376.831 -686.342 479.319 -643.673 567.11C-601.009 654.891 -518.513 728.034 -387.063 767.189C-255.444 806.394 -182.428 854.917 -141.613 907.224C-100.792 959.54 -92.2367 1015.57 -89.3858 1069.64C-88.7816 1081.1 -88.4338 1092.46 -88.0904 1103.68C-87.623 1118.94 -87.1637 1133.95 -86.0762 1148.59C-84.192 1173.95 -80.4258 1198.11 -71.4858 1220.4C-53.6247 1264.94 -15.0585 1302.13 70.8242 1326.34C242.645 1374.78 374.091 1338.32 497.353 1299.47C503.82 1297.43 510.264 1295.39 516.692 1293.35L516.842 1293.3L516.854 1293.3L516.994 1293.25L517.016 1293.25L517.151 1293.2L517.175 1293.2ZM97.1773 1279.28C260.492 1325.34 385.445 1290.65 502.431 1253.77C508.705 1251.79 514.955 1249.81 521.187 1247.83C631.178 1212.91 735.437 1179.81 859.925 1214.85C1085.73 1286.96 1355.11 1310.88 1546.96 1257.03C1642.89 1230.1 1719.51 1183.71 1761.56 1114.1C1803.61 1044.48 1811.03 951.741 1768.77 832.266C1702.39 644.575 1635.98 536.284 1587.1 456.585C1568.66 426.521 1552.72 400.525 1540.21 375.87C1517.39 330.873 1506 290.322 1511.7 237.572C1517.4 184.789 1540.22 119.759 1585.92 25.8186C1631.71 -68.3054 1620.01 -161.191 1569.9 -243.524C1519.79 -325.839 1431.3 -397.605 1323.49 -449.593C1107.88 -553.565 814.784 -578.53 596.39 -450.341C436.204 -356.319 350.916 -281.689 285.615 -224.547L285.613 -224.546C261.947 -203.836 240.905 -185.424 219.874 -169.219C180.353 -138.764 140.847 -116.077 83.9731 -100.519C27.0835 -84.9562 -47.2028 -76.521 -156.292 -74.6039C-374.768 -70.7644 -544.975 97.7738 -598.101 283.925C-624.667 377.011 -621.971 474.544 -581.361 558.13C-540.746 641.726 -462.235 711.315 -337.287 748.546C-212.507 785.728 -143.443 831.703 -104.89 881.129C-66.3436 930.548 -58.2427 983.485 -55.5412 1034.74C-54.9706 1045.57 -54.6406 1056.34 -54.3144 1066.98C-53.8696 1081.5 -53.4317 1095.8 -52.3996 1109.69C-50.6087 1133.81 -47.0249 1156.86 -38.4888 1178.15C-21.3977 1220.78 15.4922 1256.24 97.1773 1279.28ZM860.204 1213.89C735.416 1178.77 630.887 1211.95 520.939 1246.86C514.689 1248.84 508.421 1250.83 502.13 1252.81C385.179 1289.69 260.467 1324.29 97.4486 1278.32C15.967 1255.34 -20.6174 1220.04 -37.5605 1177.78C-46.0415 1156.63 -49.6147 1133.69 -51.4023 1109.62C-52.4342 1095.72 -52.87 1081.49 -53.3135 1067C-53.6391 1056.35 -53.9691 1045.57 -54.5426 1034.69C-57.2475 983.365 -65.3652 930.176 -104.102 880.514C-142.832 830.86 -212.116 784.801 -337.001 747.588C-461.718 710.425 -539.985 641.004 -580.461 557.693C-620.943 474.371 -623.652 377.099 -597.14 284.199C-544.108 98.3791 -374.221 -69.774 -156.275 -73.604C-47.153 -75.5216 27.2293 -83.9594 84.2369 -99.5542C141.26 -115.153 180.881 -137.908 220.485 -168.427C241.568 -184.673 262.64 -203.111 286.329 -223.84C351.623 -280.976 436.8 -355.509 596.896 -449.479C814.923 -577.452 1107.65 -552.565 1323.06 -448.693C1430.75 -396.759 1519.07 -325.105 1569.04 -243.005C1619 -160.923 1630.64 -68.3978 1585.02 25.3811C1539.31 119.344 1516.43 184.503 1510.7 237.464C1504.98 290.457 1516.44 331.203 1539.32 376.323C1551.87 401.057 1567.84 427.1 1586.3 457.2C1635.17 536.89 1701.48 645.018 1767.83 832.599C1810.02 951.885 1802.56 1044.29 1760.7 1113.58C1718.83 1182.89 1642.49 1229.17 1546.69 1256.06C1355.08 1309.85 1085.91 1285.97 860.22 1213.9L860.212 1213.89L860.204 1213.89ZM507.024 1208.9C396.114 1243.89 277.646 1276.79 122.807 1233.1C45.36 1211.25 10.3787 1177.61 -5.82835 1137.17C-13.9225 1116.97 -17.3204 1095.1 -19.0184 1072.23C-19.9953 1059.07 -20.4093 1045.54 -20.8298 1031.79L-20.8302 1031.78L-20.8305 1031.77L-20.8309 1031.77L-20.8313 1031.76L-20.8316 1031.75L-20.832 1031.75L-20.8324 1031.74L-20.8327 1031.73L-20.8331 1031.73L-20.8335 1031.72L-20.8338 1031.71L-20.8338 1031.71L-20.8338 1031.71L-20.8338 1031.71L-20.8338 1031.7L-20.8338 1031.7L-20.8338 1031.7L-20.8338 1031.7L-20.8338 1031.69L-20.8338 1031.69L-20.8338 1031.69L-20.8338 1031.69L-20.8338 1031.68L-20.8338 1031.68L-20.8338 1031.68C-21.143 1021.59 -21.4558 1011.39 -21.9968 1001.13C-24.5577 952.518 -32.2375 902.313 -68.7768 855.445C-105.322 808.57 -170.792 764.965 -289.088 729.698C-407.551 694.382 -481.99 628.373 -520.498 549.074C-559.002 469.785 -561.558 377.268 -536.371 288.97C-486.002 112.396 -324.628 -47.4734 -117.488 -51.1154C-14.0668 -52.9337 56.3578 -60.9346 110.289 -75.6949C164.205 -90.451 201.655 -111.968 239.122 -140.853C259.059 -156.223 279.007 -173.687 301.444 -193.33C363.353 -247.529 444.213 -318.319 596.08 -407.501C803.139 -529.095 1081.02 -505.413 1285.44 -406.793C1387.65 -357.48 1471.55 -289.406 1519.05 -211.325C1566.56 -133.225 1577.66 -45.1132 1534.24 44.173C1490.92 133.275 1469.28 194.954 1463.88 245.014C1458.47 295.042 1469.27 333.499 1490.91 376.177C1502.76 399.56 1517.88 424.216 1535.36 452.731C1581.7 528.326 1644.66 631.045 1707.59 809.074C1747.66 922.402 1740.63 1010.37 1700.75 1076.42C1660.89 1142.45 1588.24 1186.45 1497.29 1211.99C1315.4 1263.08 1060 1240.39 845.931 1171.99C727.918 1138.76 629.082 1170.15 524.804 1203.27L524.79 1203.27C518.887 1205.15 512.966 1207.03 507.024 1208.9ZM524.556 1202.3C628.791 1169.19 727.897 1137.71 846.21 1171.03L846.218 1171.04L846.226 1171.04C1060.19 1239.4 1315.38 1262.04 1497.02 1211.03C1587.84 1185.53 1660.21 1141.63 1699.9 1075.9C1739.58 1010.19 1746.65 922.546 1706.65 809.407C1643.76 631.488 1580.89 528.932 1534.56 453.346L1534.55 453.342L1534.55 453.34C1517.05 424.791 1501.91 400.09 1490.02 376.629C1468.32 333.83 1457.45 295.177 1462.88 244.906C1468.31 194.668 1490.01 132.861 1533.35 43.7356C1576.59 -45.2056 1565.56 -132.957 1518.2 -210.805C1470.82 -288.673 1387.1 -356.634 1285 -405.892C1080.79 -504.413 803.278 -528.016 596.586 -406.639C444.81 -317.51 364.061 -246.817 302.158 -192.623L302.155 -192.62L302.15 -192.616L302.147 -192.613L302.137 -192.605C279.687 -172.951 259.715 -155.466 239.732 -140.061C202.183 -111.112 164.618 -89.5272 110.553 -74.7303C56.5038 -59.9377 -14.017 -51.9345 -117.471 -50.1155C-324.081 -46.4828 -485.135 113.001 -535.409 289.244C-560.543 377.355 -557.974 469.612 -519.599 548.637C-481.228 627.651 -407.034 693.493 -288.802 728.74C-170.402 764.038 -104.711 807.727 -67.9881 854.83C-31.259 901.941 -23.5627 952.398 -20.9981 1001.08C-20.4544 1011.4 -20.1416 1021.63 -19.8327 1031.73L-19.8324 1031.73L-19.832 1031.74L-19.8316 1031.75L-19.8313 1031.76C-19.4114 1045.49 -18.9988 1058.98 -18.0211 1072.15C-16.3264 1094.99 -12.9391 1116.74 -4.90013 1136.8C11.1591 1176.87 45.8351 1210.34 123.079 1232.14C277.621 1275.75 395.848 1242.93 506.723 1207.95C512.687 1206.07 518.63 1204.18 524.556 1202.3ZM144.505 1194.31C292.172 1236.01 405.153 1204.61 510.921 1171.22C516.592 1169.43 522.242 1167.63 527.876 1165.84C627.32 1134.23 721.567 1104.28 834.101 1135.99C1038.25 1201.27 1281.81 1222.92 1455.28 1174.17C1542.01 1149.79 1611.29 1107.79 1649.32 1044.77C1687.35 981.726 1694.05 897.758 1655.84 789.594C1595.83 619.681 1535.78 521.644 1491.59 449.495C1474.92 422.281 1460.51 398.751 1449.2 376.436C1428.57 335.707 1418.27 299.008 1423.43 251.267C1428.58 203.494 1449.21 144.631 1490.53 59.5923C1531.94 -25.6299 1521.35 -109.732 1476.04 -184.276C1430.73 -258.801 1350.72 -323.773 1253.25 -370.839C1058.3 -464.964 793.297 -487.567 595.829 -371.514C451.002 -286.397 373.889 -218.834 314.85 -167.106L314.849 -167.106C293.453 -148.359 274.43 -131.692 255.419 -117.023C219.691 -89.4573 183.98 -68.9233 132.568 -54.8411C81.1396 -40.7545 13.9825 -33.1187 -84.6432 -31.3832C-282.192 -27.9071 -436.091 124.681 -484.126 293.21C-508.147 377.485 -505.71 465.789 -468.988 541.468C-432.262 617.157 -361.269 680.161 -248.293 713.868C-135.484 747.525 -73.0551 789.14 -38.2081 833.872C-3.36728 878.597 3.95608 926.507 6.39822 972.904C6.91397 982.703 7.21231 992.451 7.50723 1002.09C7.90945 1015.23 8.30544 1028.17 9.23855 1040.76C10.8579 1062.59 14.0985 1083.46 21.8186 1102.74C37.2775 1141.35 70.6439 1173.46 144.505 1194.31ZM834.38 1135.03C721.546 1103.23 627.029 1133.27 527.628 1164.87C521.976 1166.67 516.308 1168.47 510.62 1170.27C404.887 1203.65 292.146 1234.97 144.777 1193.35C71.1195 1172.55 38.0582 1140.61 22.747 1102.37C15.0819 1083.23 11.8519 1062.47 10.2359 1040.68C9.303 1028.11 8.90908 1015.22 8.5082 1002.1L8.5082 1002.1C8.21377 992.464 7.91543 982.704 7.39688 972.851C4.95108 926.387 -2.38876 878.226 -37.4193 833.258C-72.4437 788.297 -135.094 746.598 -248.007 712.91C-360.751 679.272 -431.5 616.436 -468.089 541.032C-504.682 465.617 -507.132 377.573 -483.164 293.484C-435.224 125.286 -281.644 -26.9167 -84.6256 -30.3833C14.0323 -32.1194 81.2857 -39.7577 132.832 -53.8766C184.393 -67.9996 220.22 -88.602 256.03 -116.232C275.093 -130.94 294.145 -147.633 315.563 -166.399C374.595 -218.121 451.598 -285.588 596.336 -370.652C793.436 -486.489 1058.07 -463.964 1252.81 -369.938C1350.17 -322.928 1430.01 -258.069 1475.18 -183.756C1520.35 -109.464 1530.87 -25.7222 1489.63 59.1552C1448.3 144.217 1427.61 203.208 1422.43 251.159C1417.25 299.143 1427.62 336.038 1448.31 376.887C1459.66 399.282 1474.1 422.86 1490.79 450.11C1534.97 522.249 1594.92 620.124 1654.9 789.927C1693.04 897.902 1686.29 981.539 1648.46 1044.25C1610.62 1106.97 1541.61 1148.87 1455 1173.21C1281.79 1221.89 1038.44 1200.28 834.397 1135.04L834.389 1135.03L834.38 1135.03ZM515.695 1124.56C416.237 1155.98 309.99 1185.52 171.125 1146.29C101.665 1126.66 70.2807 1096.45 55.7398 1060.12C48.4788 1041.97 45.4312 1022.33 43.9083 1001.79C43.0309 989.95 42.6585 977.774 42.2802 965.405C42.003 956.337 41.7224 947.166 41.2375 937.948C38.9412 894.299 32.0553 849.23 -0.701134 807.158C-33.4636 765.079 -92.1613 725.928 -198.235 694.263C-304.477 662.548 -371.241 603.267 -405.78 532.047C-440.315 460.837 -442.606 377.749 -420.017 298.454C-374.845 139.886 -230.12 -3.68752 -44.3424 -6.95826C48.3974 -8.59107 111.545 -15.7751 159.9 -29.0273C208.241 -42.2753 241.817 -61.5924 275.411 -87.5259C293.286 -101.325 311.171 -117.004 331.289 -134.64L331.292 -134.643C386.809 -183.311 459.324 -246.88 595.513 -326.963C781.209 -436.158 1030.41 -414.889 1213.73 -326.329C1305.39 -282.046 1380.64 -220.915 1423.24 -150.792C1465.86 -80.6502 1475.81 -1.51309 1436.87 78.6777C1398.02 158.685 1378.62 214.062 1373.77 259.003C1368.93 303.913 1378.61 338.436 1398.01 376.751C1408.64 397.743 1422.19 419.88 1437.86 445.483L1437.86 445.484C1479.42 513.364 1535.88 605.607 1592.32 765.472C1628.25 867.242 1621.95 946.252 1586.18 1005.57C1550.42 1064.88 1485.27 1104.4 1403.7 1127.33C1240.58 1173.21 1011.55 1152.83 819.574 1091.42C713.764 1061.58 625.149 1089.76 531.636 1119.5C526.34 1121.19 521.027 1122.88 515.695 1124.56ZM531.388 1118.53C624.857 1088.8 713.743 1060.53 819.853 1090.46L819.861 1090.46L819.87 1090.46C1011.73 1151.84 1240.55 1172.17 1403.43 1126.37C1484.86 1103.47 1549.75 1064.06 1585.33 1005.06C1620.9 946.066 1627.24 867.386 1591.38 765.805C1534.98 606.05 1478.61 513.969 1437.06 446.098C1421.37 420.459 1407.79 398.275 1397.12 377.203C1377.66 338.766 1367.91 304.048 1372.78 258.896C1377.65 213.776 1397.11 158.271 1435.97 78.2408C1474.74 -1.60525 1464.85 -80.3822 1422.39 -150.273C1379.91 -220.182 1304.84 -281.201 1213.3 -325.429C1030.18 -413.889 781.347 -435.079 596.02 -326.101C459.921 -246.072 387.516 -182.598 332.007 -133.937C311.866 -116.281 293.949 -100.574 276.022 -86.7344C242.346 -60.7374 208.654 -41.3517 160.165 -28.0629C111.691 -14.7783 48.4474 -7.5918 -44.3247 -5.95838C-229.572 -2.69704 -373.978 140.489 -419.055 298.728C-441.591 377.837 -439.287 460.665 -404.881 531.61C-370.48 602.546 -303.959 661.659 -197.949 693.305C-91.7705 725.001 -32.8519 764.237 0.0879284 806.544C33.0338 848.859 39.9362 894.179 42.2361 937.896C42.7239 947.168 43.0044 956.351 43.2813 965.417L43.2816 965.423L43.282 965.43L43.2824 965.437L43.2827 965.444L43.2831 965.451L43.2835 965.459L43.2838 965.466L43.2842 965.474C43.6602 977.794 44.0296 989.897 44.9057 1001.71C46.4252 1022.21 49.4622 1041.74 56.6682 1059.74C71.0615 1095.71 102.141 1125.76 171.397 1145.33C309.965 1184.48 415.97 1155.01 515.394 1123.61C520.735 1121.92 526.057 1120.23 531.365 1118.54L531.388 1118.53ZM192.8 1107.5C324.493 1144.74 425.252 1116.69 519.569 1086.87C524.625 1085.27 529.662 1083.67 534.685 1082.07C623.363 1053.84 707.389 1027.09 807.72 1055.41C989.771 1113.71 1206.96 1133.05 1361.66 1089.51C1439.01 1067.73 1500.81 1030.22 1534.72 973.915C1568.65 917.599 1574.62 842.594 1540.55 745.987C1487.03 594.238 1433.47 506.676 1394.07 442.243L1394.07 442.242C1379.21 417.94 1366.36 396.929 1356.28 377.005C1337.89 340.638 1328.71 307.874 1333.3 265.251C1337.9 222.596 1356.29 170.035 1393.13 94.0915C1430.06 17.9647 1420.62 -57.1623 1380.21 -123.748C1339.8 -190.315 1268.44 -248.345 1181.52 -290.38C1007.67 -374.445 771.343 -394.636 595.239 -290.981C466.089 -214.964 397.32 -154.62 344.674 -108.424C325.596 -91.683 308.635 -76.7999 291.685 -63.7021C259.83 -39.0874 227.993 -20.753 182.155 -8.17895C136.303 4.39929 76.4234 11.2185 -11.5205 12.7683C-187.706 15.8731 -324.957 152.165 -367.796 302.689C-389.218 377.961 -387.045 456.836 -354.294 524.436C-321.537 592.046 -258.219 648.321 -157.463 678.428C-56.8769 708.484 -1.21968 745.644 29.8443 785.58C60.9023 825.509 67.4317 868.283 69.6092 909.714C70.0666 918.416 70.3312 927.074 70.5928 935.636L70.5928 935.64L70.5946 935.695L70.5946 935.701L70.595 935.707L70.5954 935.714L70.5957 935.721L70.5961 935.729L70.5965 935.737L70.5968 935.746L70.5972 935.755L70.5976 935.764L70.5979 935.773L70.5979 935.776L70.5979 935.778L70.5979 935.78L70.5979 935.782L70.5979 935.783L70.5979 935.785L70.5979 935.787L70.5979 935.789L70.5979 935.79L70.5979 935.792L70.5979 935.793L70.5979 935.794L70.5979 935.796L70.5979 935.797L70.5979 935.798L70.5979 935.8L70.5979 935.801C70.9567 947.534 71.3098 959.083 72.142 970.312C73.5861 989.814 76.4763 1008.46 83.3634 1025.68C97.1561 1060.18 126.926 1088.87 192.8 1107.5ZM808 1054.45C707.368 1026.04 623.072 1052.88 534.437 1081.1C529.396 1082.7 524.341 1084.31 519.268 1085.92C424.986 1115.73 324.467 1143.69 193.072 1106.53C127.402 1087.96 97.9374 1059.44 84.2919 1025.31C77.4599 1008.22 74.5802 989.696 73.1393 970.238C72.3075 959.006 71.9563 947.502 71.5989 935.791L71.5989 935.787C71.3363 927.181 71.0703 918.464 70.6077 909.661C68.4267 868.163 61.8808 825.138 30.6336 784.966C-0.607746 744.802 -56.4857 707.557 -157.177 677.469C-257.7 647.432 -320.775 591.325 -353.394 524C-386.018 456.664 -388.203 378.049 -366.834 302.962C-324.089 152.768 -187.158 16.8636 -11.503 13.7682C76.4734 12.2178 136.449 5.39612 182.42 -7.21459C228.406 -19.8296 260.359 -38.2325 292.296 -62.9109C309.298 -76.0486 326.288 -90.9576 345.388 -107.717L345.389 -107.718C398.028 -153.908 466.687 -214.155 595.746 -290.12C771.482 -393.557 1007.44 -373.446 1181.08 -289.48C1267.89 -247.5 1339.08 -189.583 1379.35 -123.229C1419.61 -56.8947 1429 17.8725 1392.23 93.655C1355.38 169.621 1336.92 222.311 1332.31 265.144C1327.69 308.009 1336.93 340.968 1355.39 377.456C1365.5 397.459 1378.38 418.517 1393.27 442.853L1393.27 442.855L1393.27 442.857C1432.67 507.281 1486.12 594.681 1539.6 746.32C1573.61 842.738 1567.59 917.413 1533.87 973.399C1500.13 1029.4 1438.61 1066.81 1361.39 1088.54C1206.94 1132.02 989.956 1112.72 808.017 1054.46L808.009 1054.45L808 1054.45ZM523.995 1043.8C435.52 1071.8 340.996 1098.14 217.453 1063.17C155.654 1045.67 127.72 1018.74 114.777 986.339C108.315 970.161 105.603 952.653 104.249 934.342C103.468 923.802 103.137 912.958 102.8 901.943L102.8 901.941L102.8 901.94L102.8 901.939L102.8 901.938L102.8 901.936L102.8 901.935L102.8 901.934L102.8 901.932L102.8 901.93L102.8 901.929L102.8 901.927L102.8 901.925L102.8 901.923L102.8 901.922L102.8 901.92L102.8 901.917L102.8 901.915L102.8 901.913C102.553 893.833 102.304 885.661 101.873 877.449C99.8302 838.553 93.7058 798.403 64.5779 760.923C35.4441 723.435 -16.7579 688.55 -111.109 660.333C-205.629 632.065 -265.032 579.226 -295.763 515.741C-326.489 452.267 -328.527 378.207 -308.43 307.532C-268.243 166.202 -139.486 38.232 25.8 35.3168C108.294 33.8617 164.461 27.4596 207.469 15.6514C250.461 3.84742 280.323 -13.3636 310.201 -36.4713C326.099 -48.7668 342.008 -62.739 359.904 -78.4558L359.905 -78.4569C409.289 -121.828 473.801 -178.485 594.951 -249.855C760.156 -347.179 981.854 -328.22 1144.93 -249.292C1226.48 -209.826 1293.42 -155.34 1331.33 -92.8374C1369.24 -30.3153 1378.1 40.2287 1343.45 111.711C1308.89 183.01 1291.64 232.354 1287.33 272.395C1283.02 312.404 1291.63 343.159 1308.88 377.298C1318.33 396.002 1330.39 415.728 1344.33 438.543C1381.29 499.036 1431.53 581.249 1481.73 723.722C1513.7 814.427 1508.1 884.857 1476.27 937.739C1444.45 990.606 1386.48 1025.83 1313.91 1046.27C1168.79 1087.16 965.048 1069 794.274 1014.26C700.169 987.68 621.357 1012.79 538.172 1039.29C533.461 1040.8 528.737 1042.3 523.995 1043.8ZM537.924 1038.32C621.065 1011.83 700.148 986.632 794.554 1013.3L794.563 1013.31L794.571 1013.31C965.234 1068.01 1168.77 1086.13 1313.64 1045.31C1386.07 1024.91 1443.77 989.791 1475.41 937.223C1507.04 884.67 1512.69 814.571 1480.79 724.054C1430.62 581.691 1380.49 499.641 1343.53 439.156L1343.52 439.152L1343.52 439.15L1343.52 439.147C1329.56 416.3 1317.48 396.531 1307.99 377.749C1290.68 343.489 1282 312.539 1286.34 272.288C1290.67 232.068 1307.98 182.597 1342.55 111.275C1377.03 40.1367 1368.23 -30.0479 1330.47 -92.3189C1292.69 -154.609 1225.93 -208.981 1144.5 -248.392C981.624 -327.22 760.294 -346.1 595.458 -248.994C474.398 -177.677 409.997 -121.117 360.619 -77.751L360.619 -77.7502C342.702 -62.0145 326.763 -48.0161 310.813 -35.6803C280.852 -12.509 250.875 4.77088 207.733 16.6157C164.607 28.4564 108.344 34.861 25.8177 36.3166C-138.937 39.2225 -267.375 166.805 -307.469 307.806C-327.512 378.295 -325.462 452.095 -294.863 515.306C-264.269 578.506 -205.11 631.177 -110.822 659.375C-16.3663 687.624 36.0564 722.594 65.3675 760.309C94.6845 798.033 100.825 838.434 102.871 877.397C103.305 885.661 103.555 893.844 103.801 901.923L103.801 901.926C104.136 912.921 104.466 923.722 105.246 934.268C106.598 952.536 109.298 969.928 115.706 985.968C128.501 1018 156.131 1044.77 217.726 1062.2C340.97 1097.09 435.254 1070.83 523.693 1042.85C528.452 1041.34 533.194 1039.83 537.924 1038.32ZM241.123 1020.68C356.842 1053.47 445.38 1028.78 528.246 1002.53C532.683 1001.12 537.105 999.711 541.513 998.305L541.522 998.302C619.434 973.452 693.239 949.912 781.368 974.834C941.317 1026.15 1132.15 1043.18 1268.07 1004.85C1336.04 985.678 1390.35 952.647 1420.15 903.07C1449.97 853.479 1455.21 787.435 1425.28 702.385C1378.25 568.802 1331.2 491.715 1296.58 434.997C1283.52 413.607 1272.23 395.114 1263.38 377.58C1247.23 345.576 1239.17 316.746 1243.2 279.241C1247.24 241.705 1263.39 195.445 1295.76 128.597C1328.22 61.5655 1319.92 -4.58659 1284.4 -63.2142C1248.9 -121.823 1186.19 -172.911 1109.82 -209.916C957.071 -283.92 749.418 -301.699 594.676 -210.443C481.205 -143.525 420.781 -90.4016 374.528 -49.7369L374.527 -49.7362L374.526 -49.7351L374.514 -49.7245L374.508 -49.7197C357.756 -34.9914 342.862 -21.8974 327.979 -10.3746C299.998 11.2887 272.033 27.4235 231.772 38.4893C191.495 49.5595 138.893 55.5619 61.6303 56.9261C-93.1927 59.6598 -213.795 179.655 -251.437 312.174C-270.261 378.444 -268.353 447.889 -239.571 507.409C-210.784 566.94 -155.14 616.487 -66.6063 642.993C21.7588 669.448 70.6437 702.153 97.9247 737.293C125.2 772.427 130.935 810.063 132.848 846.53C133.252 854.221 133.485 861.876 133.716 869.446L133.716 869.452L133.716 869.458L133.717 869.464L133.717 869.465L133.717 869.467L133.717 869.468L133.717 869.469L133.717 869.47L133.717 869.471L133.717 869.472L133.717 869.473L133.717 869.474C134.032 879.808 134.343 889.983 135.074 899.872C136.343 917.041 138.882 933.461 144.936 948.632C157.063 979.022 183.236 1004.28 241.123 1020.68ZM781.648 973.874C693.219 948.864 619.142 972.493 541.274 997.331C536.844 998.744 532.402 1000.16 527.944 1001.57C445.113 1027.81 356.816 1052.43 241.396 1019.72C183.713 1003.38 157.845 978.284 145.865 948.262C139.866 933.227 137.337 916.924 136.071 899.798C135.34 889.911 135.032 879.786 134.718 869.479C134.487 861.903 134.253 854.229 133.847 846.477C131.93 809.944 126.179 772.057 98.7146 736.68C71.2565 701.311 22.1509 668.521 -66.3194 642.035C-154.621 615.599 -210.021 566.221 -238.671 506.974C-267.326 447.717 -269.247 378.531 -250.475 312.447C-212.927 180.257 -92.643 60.6501 61.6479 57.9259C138.943 56.5612 191.641 50.5563 232.037 39.4535C272.448 28.3466 300.528 12.1431 328.591 -9.58397C343.531 -21.1511 358.461 -34.2767 375.243 -49.031C421.489 -89.6899 481.803 -142.717 595.184 -209.581C749.557 -300.619 956.841 -282.921 1109.38 -209.016C1185.64 -172.066 1248.17 -121.091 1283.55 -62.696C1318.91 -4.3195 1327.15 61.4735 1294.86 128.161C1262.48 195.032 1246.26 241.42 1242.21 279.134C1238.15 316.881 1246.27 345.905 1262.49 378.031C1271.38 395.644 1282.7 414.182 1295.78 435.606L1295.78 435.61C1330.39 492.319 1377.35 569.243 1424.33 702.717C1454.2 787.579 1448.92 853.293 1419.3 902.555C1389.67 951.832 1335.64 984.753 1267.8 1003.88C1132.13 1042.15 941.503 1025.17 781.665 973.879L781.657 973.876L781.648 973.874ZM532.493 961.25C455.236 985.753 372.683 1008.81 264.789 978.198C210.813 962.885 186.402 939.303 175.092 910.924C169.446 896.758 167.078 881.428 165.895 865.4C165.213 856.167 164.923 846.664 164.63 837.013C164.414 829.942 164.196 822.791 163.82 815.608C162.037 781.571 156.69 746.448 131.268 713.662C105.84 680.868 60.2717 650.344 -22.1074 625.651C-104.656 600.907 -156.54 554.653 -183.383 499.076C-210.221 443.509 -211.999 378.678 -194.448 316.813C-159.351 193.106 -46.9031 81.0853 97.4566 78.5333C169.487 77.2601 218.525 71.6572 256.071 61.3252C293.602 50.9974 319.669 35.9391 345.753 15.7201C359.629 4.96352 373.517 -7.2606 389.139 -21.0115L389.14 -21.0126L389.146 -21.0184C432.268 -58.9763 488.606 -108.567 594.398 -171.032C738.676 -256.22 932.283 -239.623 1074.69 -170.541C1145.91 -135.998 1204.37 -88.3069 1237.48 -33.5927C1270.59 21.1402 1278.33 82.9004 1248.07 145.481C1217.89 207.878 1202.83 251.054 1199.07 286.086C1195.31 321.086 1202.82 347.99 1217.88 377.86C1226.13 394.224 1236.65 411.484 1248.83 431.449C1281.1 484.392 1324.97 556.352 1368.81 681.047C1396.73 760.441 1391.84 822.099 1364.04 868.4C1336.24 914.687 1285.6 945.522 1222.23 963.416C1095.5 999.2 917.582 983.306 768.458 935.401C686.306 912.141 617.507 934.111 544.869 957.307L544.774 957.337L544.739 957.348L544.546 957.41C540.54 958.689 536.524 959.972 532.493 961.25ZM544.62 956.336C617.215 933.152 686.286 911.093 768.739 934.441L768.747 934.443L768.756 934.446C917.768 982.317 1095.48 998.167 1221.96 962.453C1285.2 944.597 1335.56 913.872 1363.18 867.885C1390.79 821.913 1395.72 760.584 1367.87 681.378C1324.07 556.794 1280.3 484.995 1248.02 432.061C1235.83 412.061 1225.28 394.754 1216.99 378.31C1201.87 348.319 1194.29 321.22 1198.07 285.979C1201.86 250.769 1216.98 207.465 1247.17 145.045C1277.26 82.8083 1269.59 21.4071 1236.62 -33.075C1203.64 -87.576 1145.35 -135.154 1074.26 -169.642C932.053 -238.623 738.815 -255.141 594.907 -170.171C489.205 -107.759 432.977 -58.2656 389.862 -20.3136C374.216 -6.54087 360.296 5.71181 346.365 16.5104C320.199 36.7932 294.016 51.9204 256.336 62.2894C218.671 72.6541 169.537 78.2594 97.4743 79.5333C-46.3526 82.0758 -158.482 193.707 -193.486 317.086C-210.984 378.765 -209.193 443.337 -182.483 498.641C-155.777 553.934 -104.135 600.019 -21.8203 624.693C60.6641 649.417 106.453 680.027 132.058 713.049C157.669 746.079 163.032 781.452 164.819 815.555C165.198 822.793 165.416 829.956 165.631 837.027C165.923 846.648 166.211 856.097 166.892 865.326C168.072 881.311 170.43 896.525 176.021 910.554C187.185 938.565 211.292 961.981 265.062 977.236C372.658 1007.76 454.969 984.789 532.19 960.297C536.347 958.979 540.489 957.656 544.62 956.336ZM536.29 919.973C464.603 942.729 387.994 964.142 287.869 935.712C237.778 921.489 215.116 899.583 204.616 873.214C199.376 860.053 197.178 845.812 196.08 830.926C195.448 822.351 195.179 813.524 194.906 804.561L194.906 804.556C194.706 797.99 194.504 791.351 194.155 784.683C192.5 753.076 187.54 720.467 163.957 690.027C140.369 659.58 98.095 631.235 21.6602 608.304C-54.9443 585.322 -103.096 542.36 -128.008 490.735C-152.915 439.122 -154.565 378.905 -138.277 321.445C-105.708 206.547 -1.35709 102.5 132.612 100.13C199.448 98.9472 244.945 93.7439 279.78 84.1498C314.599 74.56 338.782 60.5779 362.982 41.8029C375.858 31.8133 388.745 20.4596 403.243 7.68728C443.256 -27.5642 495.535 -73.6222 593.702 -131.635C727.589 -210.757 907.249 -195.34 1039.4 -131.181C1105.48 -99.0984 1159.73 -54.8041 1190.46 -3.98393C1221.19 46.8552 1228.37 104.224 1200.28 162.354C1172.29 220.301 1158.31 260.394 1154.82 292.922C1151.34 325.418 1158.3 350.396 1172.28 378.132C1179.93 393.326 1189.69 409.354 1200.99 427.894C1230.94 477.062 1271.65 543.897 1312.33 659.704C1338.23 733.444 1333.7 790.716 1307.89 833.728C1282.09 876.725 1235.1 905.365 1176.29 921.984C1058.69 955.22 893.593 940.457 755.218 895.967C679.002 874.369 615.174 894.769 547.772 916.311L547.672 916.343L547.632 916.356L547.434 916.419C543.731 917.603 540.017 918.79 536.29 919.973ZM547.522 915.341C614.881 893.81 678.981 873.321 755.499 895.007L755.508 895.01L755.516 895.012C893.78 939.468 1058.67 954.186 1176.02 921.022C1234.69 904.441 1281.42 875.91 1307.03 833.213C1332.64 790.531 1337.22 733.587 1311.38 660.035C1270.74 544.338 1230.13 477.665 1200.18 428.506C1188.87 409.931 1179.08 393.856 1171.38 378.582C1157.35 350.725 1150.32 325.552 1153.83 292.815C1157.34 260.11 1171.37 219.889 1199.38 161.919C1227.31 104.132 1220.18 47.1218 1189.6 -3.4666C1159.01 -54.0735 1104.93 -98.2547 1038.96 -130.281C907.019 -194.341 727.729 -209.677 594.211 -130.774C496.134 -72.8148 443.965 -26.8537 403.959 8.39187L403.954 8.39626L403.951 8.39882L403.942 8.40688L403.938 8.41054L403.937 8.41164C389.426 21.1951 376.516 32.5685 363.595 42.5929C339.313 61.4318 315.014 75.4828 280.045 85.1139C245.092 94.7406 199.498 99.9464 132.63 101.13C-0.806066 103.49 -104.839 207.147 -137.315 321.718C-153.55 378.992 -151.887 438.95 -127.108 490.301C-102.333 541.641 -54.4235 584.434 21.9476 607.346C98.4878 630.309 140.983 658.739 164.748 689.415C188.519 720.097 193.495 752.957 195.153 784.631C195.505 791.354 195.708 798.008 195.907 804.575L195.907 804.576L195.907 804.577L195.907 804.578L195.907 804.579L195.907 804.58L195.907 804.581L195.907 804.582L195.907 804.583L195.907 804.584L195.907 804.585L195.907 804.586L195.907 804.587C196.179 813.516 196.445 822.285 197.077 830.852C198.172 845.696 200.359 859.82 205.545 872.844C215.899 898.845 238.257 920.585 288.142 934.75C387.969 963.096 464.335 941.765 535.987 919.02C539.845 917.795 543.689 916.566 547.522 915.341ZM647.195 485.082C669.885 494.829 695.29 488.27 713.492 475.798C722.598 469.559 729.936 461.819 734.248 453.848C738.558 445.879 739.871 437.624 736.806 430.423C718.937 388.433 719.288 358.294 719.534 337.121L719.534 337.107C719.561 334.775 719.587 332.552 719.587 330.434C719.587 301.788 703.516 282.026 680.428 271.043C657.362 260.07 627.275 257.844 599.101 264.205C585.008 267.387 575.823 271.574 568.802 276.076C563.858 279.246 559.978 282.581 556.24 285.794C554.688 287.128 553.16 288.441 551.591 289.713C546.232 294.055 540.305 297.992 531.06 300.849C521.803 303.711 509.194 305.497 490.469 305.497C467.602 305.497 451.564 310.421 441.016 318.343C430.455 326.274 425.451 337.173 424.587 348.996C422.863 372.592 437.621 399.887 457.564 414.969C469.008 423.624 473.03 430.507 476.719 436.818C478.264 439.463 479.75 442.007 481.7 444.54C488.29 453.101 499.957 461.074 536.439 471.458C543.424 473.447 551.288 474.181 559.772 474.449C564.868 474.609 570.215 474.601 575.74 474.593L575.743 474.593L575.746 474.593L575.749 474.593L575.752 474.593L575.755 474.593L575.758 474.593L575.761 474.593L575.764 474.593L575.767 474.593L575.769 474.593L575.772 474.593C579.42 474.587 583.144 474.581 586.925 474.624C606.002 474.838 626.699 476.277 647.195 485.082ZM735.886 430.814C738.791 437.642 737.59 445.566 733.368 453.372C729.147 461.175 721.931 468.804 712.927 474.973C694.91 487.319 669.869 493.733 647.589 484.163C626.906 475.278 606.047 473.838 586.936 473.624C583.125 473.581 579.39 473.587 575.741 473.593C570.223 473.601 564.901 473.61 559.803 473.449C551.346 473.183 543.579 472.451 536.712 470.496C500.26 460.12 488.873 452.218 482.492 443.93C480.643 441.527 479.196 439.053 477.673 436.45C473.952 430.089 469.777 422.952 458.167 414.171C438.435 399.248 423.89 372.257 425.584 349.069C426.43 337.499 431.314 326.88 441.617 319.142C451.932 311.395 467.731 306.497 490.469 306.497C509.251 306.497 521.968 304.706 531.355 301.805C540.755 298.899 546.793 294.887 552.221 290.49C553.832 289.184 555.382 287.851 556.947 286.507C560.663 283.311 564.459 280.048 569.341 276.918C576.254 272.486 585.328 268.34 599.321 265.181C627.32 258.859 657.171 261.086 679.999 271.946C702.806 282.795 718.587 302.244 718.587 330.434C718.587 332.552 718.561 334.777 718.534 337.113C718.287 358.308 717.933 388.628 735.886 430.814ZM540.929 880.919C474.023 901.587 402.786 921.148 310.491 894.941C263.292 881.537 241.588 861.203 231.283 836.825C226.14 824.657 223.85 811.514 222.618 797.787C221.878 789.54 221.519 781.05 221.155 772.43L221.154 772.424L221.154 772.417L221.153 772.412L221.153 772.406L221.153 772.401L221.152 772.396C220.911 766.702 220.668 760.95 220.311 755.174C218.513 726.058 213.824 696.029 192.101 667.928C170.373 639.82 131.547 613.573 61.325 592.168L61.4708 591.69L61.3245 592.168C-9.2281 570.589 -53.7956 530.567 -76.9872 482.572C-100.174 434.586 -101.968 378.684 -87.0816 325.376C-57.3135 218.778 39.2102 122.388 165.169 120.233C227.632 119.158 270.14 114.265 302.65 105.283C335.144 96.3048 357.667 83.236 380.154 65.7731C391.953 56.6107 403.747 46.2323 416.967 34.5993L416.967 34.5985L416.968 34.5978C454.157 1.87246 502.627 -40.7801 594.207 -94.212C718.492 -166.725 884.559 -152.505 1006.79 -93.1815C1067.91 -63.5168 1118.13 -22.5506 1146.68 24.5515C1175.25 71.6718 1182.15 124.931 1156.61 179.083L1156.61 179.086C1131.15 232.248 1118.44 269.237 1115.27 299.413C1112.11 329.56 1118.47 352.94 1131.25 378.901C1138.42 393.463 1147.62 408.845 1158.29 426.684C1185.67 472.468 1222.74 534.442 1260.03 640.296C1283.86 707.98 1279.62 760.796 1255.77 800.628C1231.92 840.445 1188.52 867.186 1134.23 882.861C1025.66 914.207 873.274 901.375 745.427 860.049C674.051 839.563 614.026 858.213 550.772 877.866L550.655 877.903C549.03 878.408 547.402 878.913 545.772 879.419C544.16 879.919 542.546 880.419 540.929 880.919ZM550.534 876.893C613.743 857.251 674.037 838.516 745.71 859.089L745.719 859.092L745.726 859.094C873.457 900.384 1025.64 913.173 1133.96 881.9C1188.11 866.264 1231.24 839.634 1254.91 800.114C1278.57 760.609 1282.85 708.121 1259.09 640.628C1221.83 534.878 1184.86 473.07 1157.49 427.297L1157.49 427.296C1146.8 409.42 1137.57 393.99 1130.35 379.343C1117.51 353.262 1111.09 329.691 1114.28 299.309C1117.46 268.957 1130.24 231.841 1155.7 178.654C1181.08 124.844 1174.25 71.9406 1145.83 25.07C1117.4 -21.8199 1067.36 -62.6732 1006.35 -92.2818C884.329 -151.505 718.629 -165.648 594.711 -93.3484C503.224 -39.9709 454.864 2.58511 417.681 35.3048L417.681 35.3056C404.44 46.9573 392.616 57.3615 380.767 66.5629C358.199 84.0893 335.56 97.2274 302.916 106.247C270.287 115.262 227.682 120.157 165.186 121.233C39.7578 123.379 -56.4439 219.382 -86.1183 325.645C-100.953 378.766 -99.1479 434.411 -76.0867 482.137C-53.0306 529.852 -8.70209 569.705 61.6166 591.211C131.945 612.649 170.989 638.981 192.892 667.316C214.801 695.658 219.507 725.934 221.309 755.112C221.669 760.933 221.913 766.7 222.153 772.397C222.517 781.004 222.874 789.453 223.614 797.698C224.842 811.378 227.118 824.405 232.204 836.435C242.357 860.454 263.761 880.631 310.764 893.979C402.763 920.102 473.759 900.622 540.634 879.963C543.472 879.086 546.304 878.207 549.129 877.329L550.512 876.9L550.534 876.893ZM333.09 854.167C417.554 878.152 483.42 860.442 545.543 841.863C548.259 841.051 550.968 840.237 553.67 839.425L553.729 839.407C612.836 821.647 669.07 804.75 735.611 824.128C852.931 862.29 992.616 873.192 1092.15 843.735C1141.93 829.005 1181.72 804.164 1203.62 767.526C1225.52 730.873 1229.46 682.514 1207.72 620.886C1173.82 525.02 1140.4 467.942 1115.59 425.561L1115.59 425.559C1105.53 408.383 1096.89 393.621 1090.2 379.669C1078.61 355.482 1072.86 333.699 1075.7 305.902C1078.54 278.077 1090 244.192 1112.9 195.814L1112.91 195.809C1135.9 145.635 1129.29 96.4855 1102.89 53.0842C1076.49 9.70038 1030.32 -27.9378 974.159 -55.1846C861.844 -109.673 709.371 -122.696 594.689 -56.7921C509.706 -7.95517 465.05 31.2897 430.686 61.4903L430.681 61.4943L430.679 61.4958C418.731 71.9967 408.026 81.404 397.302 89.7409C376.529 105.891 355.665 118.047 325.496 126.413C295.311 134.784 255.792 139.366 197.703 140.334C79.7542 142.274 -8.94255 231.006 -35.9096 329.304C-49.3956 378.462 -47.4562 430.049 -25.9898 474.406C-4.51874 518.772 36.464 555.854 100.965 576.029L100.966 576.03C164.976 595.908 200.352 620.057 220.221 645.826C240.085 671.589 244.502 699.039 246.444 725.663C246.801 730.552 247.075 735.421 247.346 740.247C247.812 748.543 248.271 756.713 249.133 764.647C250.499 777.215 252.88 789.261 257.927 800.435C268.037 822.821 288.782 841.583 333.09 854.167ZM735.898 823.17C669.064 803.704 612.565 820.682 553.504 838.43C550.761 839.255 548.012 840.081 545.257 840.905C483.159 859.476 417.533 877.106 333.363 853.205C289.242 840.674 268.79 822.061 258.838 800.023C253.853 788.985 251.487 777.057 250.127 764.539C249.267 756.626 248.811 748.506 248.347 740.233L248.345 740.208C248.074 735.384 247.8 730.508 247.441 725.59C245.495 698.908 241.06 671.215 221.013 645.215C200.971 619.222 165.378 594.986 101.263 575.075C36.9959 554.973 -3.75202 518.061 -25.0897 473.97C-46.4321 429.87 -48.3794 378.538 -34.9452 329.569C-8.07231 231.614 80.2976 143.265 197.719 141.334C255.843 140.365 295.459 135.781 325.763 127.377C356.082 118.969 377.061 106.744 397.916 90.5304C408.689 82.1548 419.424 72.7211 431.395 62.2003C465.754 32.005 510.301 -7.14365 595.187 -55.9251C709.505 -121.62 861.616 -108.672 973.722 -54.285C1029.77 -27.0942 1075.77 10.4313 1102.03 53.6038C1128.29 96.758 1134.83 145.556 1112 195.39C1089.08 243.792 1077.56 277.802 1074.7 305.8C1071.84 333.827 1077.65 355.796 1089.3 380.101C1096.03 394.145 1104.71 408.959 1114.79 426.174C1139.59 468.54 1172.91 525.448 1206.77 621.219C1228.45 682.652 1224.47 730.685 1202.76 767.013C1181.04 803.356 1141.51 828.086 1091.87 842.776C992.583 872.158 853.111 861.298 735.913 823.174L735.906 823.172L735.898 823.17ZM550.148 802.805C492.807 819.296 432.313 835.154 355.679 813.391C314.264 801.628 294.477 784.438 284.562 764.045C276.32 747.092 274.932 727.963 273.491 708.108C273.204 704.147 272.914 700.158 272.568 696.152C270.481 672.018 266.337 647.148 248.332 623.723C230.323 600.292 198.394 578.242 140.597 559.889L140.595 559.889C82.1464 541.117 44.7486 506.975 24.9982 466.238C5.25226 425.511 3.16779 378.239 15.2529 333.232C39.419 243.233 120.289 162.157 230.227 160.433C283.943 159.573 320.472 155.301 348.332 147.543C376.177 139.788 395.381 128.545 414.441 113.707C424.097 106.19 433.721 97.7453 444.413 88.3628L444.414 88.3621C475.955 60.6845 516.791 24.8502 595.162 -19.3741C700.241 -78.6688 839.12 -66.8421 941.517 -17.1894C992.722 7.63971 1034.85 41.9499 1059.08 81.6152C1083.32 121.298 1089.64 166.337 1069.2 212.532L1069.19 212.541C1048.83 256.134 1038.63 286.915 1036.11 312.389C1033.6 337.837 1038.74 358.023 1049.15 380.436C1055.37 393.847 1063.47 408.023 1072.93 424.591L1072.93 424.593C1079.31 435.768 1086.31 448.033 1093.78 461.884C1112.31 496.242 1133.66 540.279 1155.39 601.473L1155.39 601.474C1175.05 657.046 1171.42 700.949 1151.46 734.422C1131.51 767.88 1095.32 790.821 1050.06 804.607C959.559 832.175 832.579 823.204 725.787 788.205C664.072 769.929 611.616 785.068 556.65 800.931C554.487 801.555 552.32 802.181 550.148 802.805ZM556.44 799.951C611.359 784.1 664.074 768.884 726.077 787.248L726.084 787.25L726.091 787.253C832.754 822.21 959.52 831.142 1049.77 803.65C1094.89 789.906 1130.83 767.077 1150.6 733.91C1170.37 700.758 1174.04 657.182 1154.45 601.808C1132.73 540.67 1111.4 496.68 1092.9 462.359C1085.46 448.567 1078.47 436.322 1072.09 425.148C1062.61 408.54 1054.48 394.297 1048.24 380.857C1037.78 358.328 1032.58 337.962 1035.12 312.291C1037.66 286.646 1047.91 255.742 1068.28 212.123C1088.58 166.266 1082.32 121.574 1058.23 82.1364C1034.13 42.681 992.169 8.48322 941.081 -16.2896C838.894 -65.8409 700.372 -77.5948 595.654 -18.5031C517.382 25.6647 476.655 61.4032 445.119 89.0758C434.408 98.4751 424.757 106.944 415.056 114.496C395.914 129.397 376.595 140.71 348.601 148.506C320.621 156.298 283.994 160.572 230.243 161.433C120.828 163.149 40.29 243.845 16.2186 333.491C4.18488 378.307 6.27423 425.327 25.898 465.802C45.5174 506.268 82.6852 540.24 140.901 558.937C198.804 577.323 230.945 599.461 249.125 623.113C267.309 646.771 271.473 671.879 273.564 696.066C273.913 700.1 274.204 704.105 274.493 708.072L274.494 708.091C275.938 727.944 277.312 746.844 285.462 763.607C295.213 783.665 314.712 800.716 355.953 812.429C432.295 834.109 492.551 818.329 549.871 801.844C552.065 801.214 554.254 800.582 556.44 799.951ZM378.291 772.61C447.093 792.149 502.216 778.144 554.774 763.742C556.371 763.304 557.966 762.866 559.559 762.429C610.389 748.468 659.084 735.094 715.983 752.276C812.25 784.111 926.526 791.152 1008 765.473C1048.73 752.632 1081.33 731.589 1099.32 701.312C1117.33 671.018 1120.67 631.573 1103.08 582.055L1103.08 582.055C1083.45 527.047 1064.32 487.168 1047.79 455.864C1041.55 444.061 1035.7 433.488 1030.32 423.788L1030.32 423.785L1030.32 423.78L1030.32 423.779C1021.43 407.737 1013.87 394.082 1008.11 381.197C998.894 360.558 994.358 341.97 996.552 318.87C998.748 295.747 1007.69 268.068 1025.5 229.261L1025.51 229.255L1025.51 229.248C1043.4 187.032 1037.37 146.103 1015.3 110.14C993.233 74.1931 955.144 43.211 908.898 20.7996C816.419 -24.0178 691.133 -34.6473 595.659 18.0374C523.913 57.6281 486.904 90.0487 458.187 115.206L458.183 115.21L458.182 115.211L458.169 115.222C448.732 123.489 440.189 130.972 431.603 137.667C414.255 151.193 396.711 161.523 371.191 168.666C345.656 175.812 312.117 179.773 262.773 180.526C160.847 182.035 87.8028 255.452 66.4374 337.154C55.7535 378.01 57.9832 420.966 76.0086 458.064C94.0381 495.171 127.85 526.373 180.247 543.742L180.25 543.743C231.834 560.569 260.315 580.521 276.465 601.613C292.612 622.701 296.483 644.991 298.714 666.636C299.037 669.764 299.325 672.881 299.611 675.979L299.613 676.005L299.613 676.007C301.304 694.301 302.936 711.966 311.222 727.65C320.942 746.05 339.769 761.667 378.291 772.61ZM716.279 751.321C659.096 734.051 610.147 747.496 559.366 761.445L559.168 761.499C557.617 761.925 556.064 762.351 554.51 762.777C501.965 777.175 447.079 791.106 378.564 771.648C340.205 760.751 321.657 745.263 312.106 727.183C303.921 711.69 302.307 694.251 300.614 675.947C300.325 672.833 300.035 669.693 299.709 666.533C297.474 644.844 293.58 622.32 277.259 601.005C260.941 579.694 232.251 559.654 180.56 542.792C128.397 525.5 94.809 494.469 76.908 457.627C59.0026 420.776 56.7714 378.07 67.405 337.407C88.6749 256.07 161.38 183.027 262.788 181.526C312.168 180.773 345.806 176.809 371.461 169.629C397.131 162.444 414.79 152.044 432.217 138.456C440.852 131.723 449.426 124.212 458.889 115.923C487.601 90.7704 524.502 58.4455 596.142 18.913C691.261 -33.5758 816.194 -23.0157 908.462 21.6995C954.591 44.0544 992.509 74.9244 1014.45 110.663C1036.37 146.383 1042.34 186.97 1024.59 228.851C1006.77 267.686 997.769 295.485 995.557 318.775C993.342 342.09 997.931 360.853 1007.2 381.605C1012.97 394.524 1020.57 408.243 1029.47 424.32L1029.48 424.323C1034.85 434.02 1040.7 444.576 1046.9 456.331C1063.42 487.601 1082.52 527.436 1102.14 582.39C1119.65 631.705 1116.28 670.826 1098.46 700.801C1080.64 730.792 1048.3 751.72 1007.69 764.519C926.477 790.119 812.42 783.116 716.291 751.325L716.279 751.321ZM965.914 725.362C893.478 749.153 791.906 744.044 706.165 715.372C654.066 699.273 609.106 710.873 562.405 722.923L560.438 723.431L559.383 723.703C511.609 736.016 461.858 748.169 400.887 730.852C365.259 720.73 347.393 706.686 337.868 690.283C329.499 675.87 327.609 659.682 325.658 642.962L325.656 642.948C325.393 640.689 325.128 638.421 324.846 636.146C322.471 616.99 318.871 597.278 304.582 578.527C290.291 559.773 265.258 541.92 219.886 526.62L219.883 526.619C173.538 510.653 143.312 482.39 127.004 448.915C110.699 415.447 108.324 376.807 117.607 340.101C136.171 266.696 201.391 200.937 295.305 199.643C340.275 198.998 370.824 195.348 394.035 188.813C417.23 182.282 433.114 172.866 448.748 160.652C456.27 154.776 463.737 148.248 471.932 141.083L471.946 141.072L471.947 141.07L471.952 141.066L471.958 141.061L471.972 141.049L471.976 141.045C497.87 118.405 531.042 89.4018 596.141 54.4729C682.011 8.39909 793.702 17.8311 876.264 57.8132C917.551 77.8068 951.598 105.461 971.499 137.689C991.409 169.932 997.151 206.75 981.809 244.986L981.806 244.996L981.801 245.005C966.534 279.026 958.848 303.601 956.975 324.374C955.104 345.127 959.032 362.119 967.063 380.985C972.355 393.418 979.416 406.638 987.768 422.277L987.771 422.282L987.772 422.284C992.115 430.415 996.807 439.201 1001.78 448.87C1016.31 477.118 1033.22 512.84 1050.76 561.66L1050.76 561.661C1066.27 605.124 1063.23 640.113 1047.17 667.226C1031.13 694.323 1002.14 713.465 965.914 725.362ZM1049.82 561.997C1065.25 605.252 1062.18 639.917 1046.31 666.716C1030.43 693.532 1001.69 712.559 965.602 724.412C893.418 748.12 792.069 743.045 706.476 714.421L706.465 714.418C654.091 698.232 608.884 709.897 562.233 721.935C561.201 722.201 560.168 722.468 559.133 722.735C511.365 735.046 461.848 747.127 401.161 729.89C365.681 719.81 348.083 705.884 338.733 689.781C330.476 675.561 328.61 659.596 326.653 642.854L326.653 642.853C326.388 640.589 326.122 638.312 325.838 636.023C323.459 616.832 319.835 596.894 305.378 577.921C290.922 558.952 265.685 541.009 220.206 525.672C174.094 509.786 144.086 481.696 127.903 448.477C111.716 415.25 109.343 376.856 118.576 340.346C137.045 267.321 201.916 201.93 295.318 200.643C340.326 199.998 370.975 196.344 394.306 189.776C417.651 183.203 433.65 173.716 449.364 161.44C456.934 155.526 464.433 148.97 472.656 141.781L472.67 141.769L472.672 141.767L472.674 141.765C498.563 119.13 531.627 90.2233 596.614 55.3542C682.134 9.46757 793.479 18.8342 875.828 58.7132C916.998 78.6501 950.875 106.192 970.648 138.214C990.41 170.217 996.09 206.699 980.885 244.604C965.604 278.656 957.867 303.348 955.979 324.284C954.09 345.242 958.066 362.402 966.143 381.376C971.452 393.848 978.546 407.132 986.914 422.801L986.915 422.802C991.255 430.929 995.938 439.697 1000.89 449.327C1015.41 477.546 1032.3 513.227 1049.82 561.997ZM696.353 677.298C771.57 702.808 860.44 705.985 923.842 684.083C955.548 673.13 980.937 655.887 995.03 631.971C1009.13 608.039 1011.88 577.508 998.452 540.099L998.451 540.097C983.002 497.465 968.319 465.9 955.784 440.708C952.109 433.322 948.621 426.489 945.354 420.088L945.35 420.081C937.466 404.636 930.867 391.708 926.022 379.605C919.179 362.513 915.858 347.116 917.406 328.71C918.955 310.287 925.385 288.814 938.106 259.578L938.112 259.566L938.116 259.554C950.906 225.297 945.452 192.592 927.707 164.069C909.972 135.56 879.965 111.234 843.638 93.6581C770.992 58.5113 672.896 50.2773 596.632 89.7392C538.208 119.97 508.885 145.551 485.813 165.677L485.811 165.678L485.81 165.68L485.796 165.692L485.786 165.701L485.782 165.704C478.794 171.8 472.379 177.396 465.902 182.468C451.981 193.37 437.756 201.873 416.886 207.792C396 213.715 368.441 217.055 327.844 217.592C241.943 218.671 184.547 276.77 168.784 341.88C153.017 407.005 178.898 479.185 259.525 508.327L259.529 508.329C298.687 522.102 320.274 537.856 332.707 554.273C345.139 570.688 348.466 587.823 350.986 604.491C351.2 605.907 351.408 607.319 351.616 608.729L351.625 608.794C353.854 623.923 356.018 638.615 364.525 651.75C373.854 666.155 390.757 678.625 423.492 687.927C476.629 703.02 521.009 692.72 563.998 682.496L565.195 682.211C607.776 672.082 649.034 662.268 696.353 677.298ZM994.169 631.464C1008.09 607.84 1010.86 577.63 997.511 540.438C982.078 497.851 967.412 466.322 954.889 441.153C951.228 433.796 947.747 426.977 944.483 420.582C936.588 405.115 929.957 392.124 925.094 379.977C918.209 362.78 914.846 347.226 916.41 328.626C917.972 310.046 924.45 288.46 937.184 259.192C949.848 225.262 944.456 192.884 926.858 164.597C909.25 136.292 879.412 112.077 843.202 94.5583C770.772 59.5155 673.015 51.342 597.092 90.6274C538.786 120.797 509.572 146.281 486.505 166.403L486.504 166.404C479.489 172.523 473.042 178.147 466.519 183.255C452.519 194.218 438.18 202.793 417.158 208.754C396.152 214.711 368.492 218.054 327.856 218.592C242.458 219.664 185.422 277.404 169.755 342.116C154.092 406.813 179.781 478.44 259.863 507.386C299.129 521.198 320.912 537.043 333.504 553.669C346.098 570.298 349.451 587.65 351.974 604.341C352.189 605.761 352.398 607.176 352.605 608.585L352.606 608.592L352.611 608.622C354.847 623.787 356.982 638.263 365.364 651.207C374.515 665.336 391.165 677.701 423.765 686.965C476.626 701.98 520.773 691.748 563.767 681.523L565.048 681.218C607.577 671.101 649.074 661.23 696.66 676.347L696.67 676.35C771.726 701.806 860.365 704.953 923.516 683.138C955.088 672.231 980.237 655.104 994.169 631.464ZM881.767 642.739C827.398 662.754 751.231 661.51 686.535 639.161C644.231 625.264 606.826 633.087 568.605 641.226L567.897 641.376C529.919 649.464 491.114 657.728 446.09 644.937C416.25 636.456 400.313 625.561 391.181 613.158C382.454 601.306 379.992 588.134 377.465 574.617C377.351 574.004 377.236 573.39 377.121 572.776C374.456 558.594 371.402 544.035 360.826 529.955C350.251 515.875 332.109 502.219 299.164 489.972L299.158 489.97C230.648 463.635 206.992 400.419 219.954 343.598C232.916 286.779 282.492 236.34 360.377 235.477C396.6 235.048 421.17 232.018 439.73 226.707C458.276 221.401 470.841 213.81 483.049 204.22C488.494 199.944 493.871 195.266 499.675 190.215L499.691 190.202L499.693 190.2L499.695 190.198C519.946 172.578 545.406 150.425 597.12 124.941C663.777 92.0924 748.276 99.1277 811.005 129.44C842.374 144.598 868.339 165.595 883.91 190.385C899.489 215.188 904.655 243.779 894.418 274.054L894.413 274.07L894.406 274.086C884.231 298.536 879.057 316.906 877.831 332.981C876.606 349.043 879.32 362.845 884.976 378.165C889.403 390.158 895.624 403.06 903.165 418.702C905.271 423.069 907.48 427.65 909.781 432.484C920.319 454.62 932.778 482.026 946.132 518.47L946.133 518.472C957.481 549.829 955.033 575.902 942.882 596.653C930.74 617.386 908.955 632.73 881.767 642.739ZM945.193 518.813C956.458 549.943 953.994 575.699 942.019 596.147C930.033 616.614 908.477 631.84 881.421 641.8C827.303 661.723 751.375 660.503 686.858 638.215L686.851 638.212C644.257 624.219 606.599 632.113 568.397 640.247L567.758 640.384C529.743 648.479 491.148 656.698 446.363 643.975C416.642 635.528 400.938 624.723 391.986 612.565C383.398 600.902 380.974 587.938 378.437 574.372C378.326 573.779 378.215 573.186 378.104 572.592C375.437 558.402 372.354 543.637 361.626 529.354C350.898 515.071 332.568 501.323 299.514 489.036C231.524 462.899 208.064 400.214 220.929 343.82C233.795 287.424 282.993 237.335 360.388 236.477C396.653 236.047 421.323 233.015 440.006 227.669C458.702 222.319 471.381 214.657 483.667 205.007C489.152 200.699 494.555 195.997 500.381 190.928L500.383 190.927L500.384 190.926C520.63 173.312 545.979 151.258 597.562 125.838C663.889 93.1523 748.059 100.133 810.57 130.34C841.82 145.441 867.618 166.328 883.063 190.917C898.496 215.488 903.6 243.763 893.476 273.718C883.288 298.203 878.071 316.681 876.834 332.905C875.595 349.144 878.346 363.093 884.038 378.512C888.483 390.553 894.732 403.513 902.278 419.164L902.278 419.164C904.381 423.526 906.585 428.096 908.878 432.914C919.408 455.033 931.853 482.409 945.193 518.813ZM676.72 600.929C730.898 620.118 794.365 619.427 839.699 601.298C862.37 592.233 880.549 578.788 890.738 561.239C900.936 543.673 903.089 522.057 893.819 496.75L893.818 496.747C882.559 466.493 872.324 443.246 863.784 424.169C863.023 422.467 862.274 420.798 861.54 419.161L861.54 419.16C854.041 402.437 848.01 388.988 843.936 376.634C839.466 363.085 837.358 350.875 838.261 337.156C839.164 323.427 843.084 308.158 850.712 288.496L850.72 288.476L850.726 288.455C866.103 235.826 831.172 190.595 778.377 165.126C725.564 139.649 654.663 133.814 597.615 160.047C552.663 180.717 531.086 199.436 513.653 214.558L513.652 214.559C508.995 218.599 504.634 222.383 500.201 225.879C489.706 234.156 478.8 240.833 462.58 245.528C446.345 250.227 424.765 252.946 392.915 253.268C323.047 253.915 281.289 296.691 271.129 345.223C260.972 393.739 282.403 447.989 338.793 471.517L338.799 471.52C365.532 482.239 380.23 493.796 388.949 505.541C397.528 517.096 400.357 528.877 403.123 540.394L403.263 540.974C406.071 552.661 408.915 564.079 417.847 574.476C426.78 584.873 441.749 594.193 468.693 601.853C505.132 612.207 537.946 606.256 570.457 600.36L571.831 600.111L573.213 599.861C606.649 593.811 639.873 588.306 676.72 600.929ZM889.873 560.737C899.903 543.461 902.062 522.16 892.88 497.095C881.633 466.872 871.408 443.648 862.872 424.577C862.108 422.872 861.358 421.2 860.622 419.558C853.131 402.852 847.078 389.354 842.986 376.948C838.487 363.308 836.35 350.967 837.263 337.09C838.175 323.226 842.13 307.856 849.772 288.154C864.931 236.229 830.543 191.401 777.942 166.027C725.352 140.657 654.766 134.867 598.033 160.955C553.221 181.561 531.759 200.179 514.332 215.295C509.662 219.346 505.282 223.145 500.821 226.664C490.249 235.001 479.23 241.75 462.858 246.489C446.499 251.223 424.818 253.945 392.924 254.268C323.53 254.911 282.172 297.352 272.108 345.428C262.04 393.519 283.271 447.266 339.175 470.593C366.016 481.356 380.889 493.007 389.752 504.945C398.453 516.665 401.324 528.618 404.083 540.11L404.084 540.111L404.235 540.74C407.046 552.439 409.849 563.632 418.606 573.824C427.361 584.015 442.122 593.259 468.966 600.891C505.179 611.18 537.789 605.268 570.341 599.365L570.487 599.339L570.624 599.314L570.754 599.29C571.514 599.152 572.275 599.014 573.035 598.877C606.464 592.829 639.926 587.267 677.047 599.984L677.052 599.985C731.026 619.103 794.242 618.399 839.328 600.37C861.868 591.357 879.832 578.031 889.873 560.737ZM797.621 559.719C761.323 575.962 710.552 578.591 666.888 562.559C635.495 551.21 606.45 554.399 577.799 558.36C576.877 558.487 575.956 558.616 575.034 558.744L573.636 558.94L572.775 559.06C545.861 562.827 519.176 566.561 491.279 558.632C467.232 551.794 453.235 544.049 444.506 535.662C435.768 527.265 432.354 518.266 429.393 509.047C429.2 508.447 429.01 507.846 428.82 507.244C428.709 506.893 428.598 506.542 428.487 506.191L428.46 506.106L428.46 506.105C425.85 497.825 423.199 489.413 417.055 480.99C410.189 471.577 398.933 462.119 378.412 452.928L378.404 452.924C334.143 432.204 314.937 386.927 322.287 346.715C329.644 306.464 363.59 271.354 425.437 270.922C452.913 270.707 471.503 268.299 485.412 264.212C499.308 260.13 508.553 254.366 517.337 247.4C520.774 244.673 524.143 241.761 527.692 238.693C542.311 226.053 559.98 210.776 598.1 195.014C645.535 175.399 702.835 180.034 745.732 200.676C788.622 221.314 817.276 258.059 807.018 302.71L807.012 302.736L807.004 302.76C796.847 332.487 796.322 351.446 802.88 374.973C806.165 386.76 811.23 399.698 817.773 415.721C819.018 418.77 820.316 421.931 821.666 425.216C827.405 439.186 834.069 455.407 841.487 474.887L841.488 474.89C848.683 494.15 846.821 511.309 838.578 525.688C830.344 540.051 815.773 551.596 797.621 559.719ZM840.551 475.241C847.648 494.238 845.797 511.084 837.71 525.191C829.613 539.315 815.238 550.74 797.213 558.806C761.158 574.94 710.657 577.565 667.231 561.62L667.228 561.619C635.583 550.179 606.318 553.408 577.662 557.369C576 557.599 574.34 557.831 572.682 558.063C545.727 561.834 519.24 565.539 491.553 557.67C467.585 550.854 453.763 543.169 445.199 534.941C436.645 526.722 433.293 517.921 430.345 508.741C430.216 508.338 430.087 507.934 429.959 507.529L429.758 506.895L429.477 506.005L429.414 505.804C426.808 497.531 424.109 488.963 417.863 480.4C410.868 470.81 399.453 461.257 378.825 452.017C335 431.499 315.998 386.683 323.27 346.895C330.536 307.147 364.046 272.35 425.444 271.922C452.967 271.707 471.659 269.295 485.694 265.172C499.742 261.044 509.1 255.208 517.958 248.184C521.417 245.441 524.797 242.518 528.351 239.446L528.356 239.442L528.363 239.435C542.974 226.804 560.522 211.634 598.482 195.938C645.625 176.444 702.628 181.044 745.299 201.577C787.968 222.11 816.142 258.47 806.049 302.461C795.846 332.335 795.299 351.498 801.916 375.241C805.219 387.092 810.306 400.08 816.847 416.099C818.086 419.134 819.377 422.277 820.719 425.544L820.742 425.6C826.481 439.569 833.139 455.775 840.551 475.241ZM657.059 523.988C690.223 536.869 728.303 532.291 755.561 517.933C769.192 510.752 780.151 501.107 786.426 489.936C792.71 478.75 794.287 466.049 789.164 452.827L789.162 452.824C775.028 417.078 766.031 393.158 761.833 373.12C757.641 353.113 758.234 336.976 763.308 316.804L763.315 316.778L763.319 316.752C768.451 280.091 746.082 251.835 713.095 236.026C680.113 220.218 636.417 216.787 598.603 229.778C567.423 240.49 553.697 252.317 541.883 262.496C539.378 264.655 536.96 266.739 534.479 268.722C527.408 274.376 519.822 279.227 508.251 282.697C496.668 286.171 481.068 288.268 457.967 288.376C431.077 288.484 411.082 295.384 397.235 306.282C383.385 317.182 375.723 332.05 373.452 348.014C368.912 379.92 385.895 416.214 418.012 434.124L418.019 434.128C432.329 441.789 440.15 449.149 445.167 456.236C448.904 461.515 451.088 466.637 453.244 471.693C453.993 473.449 454.738 475.196 455.544 476.94C458.665 483.695 462.653 490.268 471.188 496.654C479.706 503.027 492.725 509.195 513.874 515.211C533.311 520.739 553.626 519.044 574.701 517.287C577.251 517.074 579.813 516.861 582.385 516.659C606.248 514.786 631.117 513.912 657.059 523.988ZM785.555 489.446C791.703 478.501 793.238 466.112 788.232 453.19C774.105 417.465 765.073 393.462 760.854 373.325C756.63 353.167 757.229 336.882 762.332 316.587C767.369 280.516 745.4 252.617 712.663 236.927C679.914 221.231 636.49 217.819 598.928 230.723C567.939 241.37 554.347 253.08 542.546 263.246C540.034 265.41 537.604 267.504 535.104 269.503C527.961 275.215 520.262 280.138 508.539 283.655C496.828 287.167 481.123 289.268 457.972 289.376C431.248 289.483 411.487 296.339 397.854 307.068C384.223 317.795 376.68 332.423 374.442 348.155C369.961 379.641 386.734 415.535 418.495 433.248C432.91 440.966 440.86 448.421 445.983 455.658C449.788 461.032 452.03 466.291 454.196 471.373C454.937 473.11 455.669 474.827 456.451 476.521C459.527 483.177 463.425 489.596 471.787 495.853C480.167 502.123 493.055 508.249 514.147 514.25C533.398 519.724 553.521 518.047 574.624 516.289C577.17 516.077 579.731 515.864 582.306 515.662C606.189 513.788 631.254 512.892 657.421 523.056C690.287 535.822 728.066 531.286 755.095 517.048C768.607 509.93 779.398 500.405 785.555 489.446Z" fill="url(#paint0_linear_5773_73489)"/>
<defs>
<linearGradient id="paint0_linear_5773_73489" x1="46.1069" y1="183.551" x2="549.507" y2="107.061" gradientUnits="userSpaceOnUse">
<stop stop-color="#47484E"/>
<stop offset="1" stop-color="#474851" stop-opacity="0"/>
</linearGradient>
</defs>
</svg>
