<svg viewBox="0 0 364 179" fill="none" xmlns="http://www.w3.org/2000/svg">
<g clip-path="url(#clip0_3940_76311)">
<mask id="path-1-inside-1_3940_76311" fill="white">
<path d="M0 0H364V179H0V0Z"/>
</mask>
<path d="M0 0H364V179H0V0Z" fill="#34353B"/>
<path fill-rule="evenodd" clip-rule="evenodd" d="M427.945 454.026C353.144 477.602 273.213 499.784 168.746 470.332C116.484 455.599 92.8439 432.908 81.8901 405.596C76.4226 391.964 74.1294 377.212 72.9838 361.79C72.324 352.908 72.0436 343.766 71.7589 334.481L71.7589 334.478L71.7589 334.476L71.7589 334.474L71.7589 334.472L71.7589 334.469L71.7589 334.468L71.7589 334.466L71.7589 334.464L71.7589 334.462L71.7589 334.46L71.7589 334.459L71.7589 334.457L71.7589 334.456C71.5503 327.659 71.3394 320.786 70.975 313.883C69.2485 281.138 64.0723 247.35 39.4621 215.81C14.8456 184.263 -29.2698 154.895 -109.028 131.138C-188.955 107.331 -239.194 62.8262 -265.186 9.3481C-291.173 -44.1197 -292.894 -106.501 -275.9 -166.026C-241.917 -285.056 -133.038 -392.838 6.73761 -395.294C76.4772 -396.519 123.954 -401.91 160.305 -411.85C196.64 -421.786 221.877 -436.273 247.13 -455.725C260.567 -466.075 274.014 -477.838 289.142 -491.071C330.893 -527.591 385.441 -575.305 487.871 -635.405C627.566 -717.37 815.022 -701.4 952.908 -634.933C1021.86 -601.697 1078.46 -555.811 1110.52 -503.165C1142.59 -450.5 1150.08 -391.072 1120.77 -330.854C1091.56 -270.821 1076.98 -229.282 1073.34 -195.581C1069.7 -161.912 1076.97 -136.032 1091.55 -107.295C1099.54 -91.5531 1109.72 -74.9477 1121.51 -55.7402L1121.51 -55.7393C1152.76 -4.8018 1195.24 64.4364 1237.68 184.41C1264.71 260.802 1259.98 320.131 1233.06 364.686C1206.14 409.225 1157.11 438.894 1095.75 456.11C973.046 490.54 800.784 475.247 656.399 429.156C576.864 406.778 510.256 427.915 439.926 450.233C435.945 451.496 431.953 452.763 427.945 454.026ZM439.679 449.262C509.965 426.956 576.843 405.731 656.679 428.196L656.687 428.198L656.695 428.201C800.968 474.258 973.025 489.507 1095.48 455.147C1156.71 437.968 1205.47 408.408 1232.2 364.168C1258.93 319.944 1263.7 260.946 1236.74 184.744C1194.33 64.8801 1151.95 -4.19569 1120.71 -55.1245C1108.9 -74.3678 1098.69 -91.0203 1090.66 -106.843C1076.02 -135.701 1068.68 -161.777 1072.34 -195.689C1076 -229.569 1090.65 -271.235 1119.88 -331.292C1149.01 -391.164 1141.58 -450.232 1109.67 -502.645C1077.74 -555.078 1021.31 -600.852 952.474 -634.033C814.793 -700.4 627.705 -716.291 488.377 -634.542C386.037 -574.495 331.6 -526.878 289.856 -490.363C274.706 -477.112 261.229 -465.323 247.74 -454.933C222.405 -435.417 197.053 -420.862 160.569 -410.885C124.1 -400.913 76.527 -395.52 6.75519 -394.294C-132.492 -391.848 -241.05 -284.45 -274.938 -165.751C-291.879 -106.413 -290.145 -44.2926 -264.286 8.91097C-238.433 62.1042 -188.437 106.441 -108.743 130.18C-28.8799 153.968 15.4564 183.42 40.2505 215.195C65.0507 246.978 70.2435 281.017 71.9736 313.831C72.3391 320.764 72.5493 327.626 72.7567 334.399L72.7567 334.403L72.7586 334.458L72.7586 334.464L72.7589 334.47L72.7593 334.476L72.7597 334.483L72.76 334.49C73.0432 343.746 73.3214 352.836 73.9811 361.716C75.1234 377.094 77.406 391.729 82.8182 405.224C93.624 432.167 116.959 454.693 169.017 469.37C273.188 498.738 352.878 476.637 427.644 453.073C431.669 451.804 435.679 450.531 439.679 449.262ZM184.896 441.201C284.025 469.158 359.87 448.101 430.843 425.724C434.646 424.525 438.434 423.322 442.21 422.123C508.941 400.94 572.132 380.88 647.589 402.118C784.586 445.867 948.037 460.383 1064.47 427.702C1122.69 411.359 1169.22 383.196 1194.76 340.913C1220.31 298.615 1224.8 242.293 1199.15 169.78C1158.88 55.9016 1118.57 -9.8213 1088.92 -58.1698C1077.74 -76.4004 1068.07 -92.1608 1060.5 -107.101C1046.66 -134.373 1039.77 -158.934 1043.22 -190.885C1046.67 -222.869 1060.5 -262.292 1088.23 -319.274C1116.04 -376.439 1108.93 -432.856 1078.5 -482.85C1048.08 -532.825 994.362 -576.382 928.94 -607.93C798.106 -671.021 620.236 -686.181 487.681 -608.376C390.492 -551.33 338.733 -506.039 299.119 -471.375L299.117 -471.374L299.117 -471.373L299.111 -471.368L299.109 -471.366L299.108 -471.365C284.76 -458.81 272.004 -447.649 259.26 -437.828C235.302 -419.367 211.36 -405.618 176.888 -396.188C142.401 -386.754 97.3565 -381.637 31.1873 -380.474C-101.448 -378.144 -204.762 -275.829 -237.008 -162.842C-253.134 -106.338 -251.5 -47.121 -226.84 3.6357C-202.175 54.4027 -154.501 96.6493 -78.6599 119.248C-2.98667 141.797 38.865 169.67 62.2169 199.608C85.5626 229.538 90.4735 261.602 92.1116 292.681C92.4572 299.233 92.6574 305.757 92.8554 312.209L92.8554 312.21L92.8554 312.212L92.8554 312.213L92.8554 312.214L92.8554 312.216L92.8554 312.217L92.8554 312.218L92.8554 312.22L92.8554 312.221L92.8554 312.222L92.8554 312.224L92.8554 312.225L92.8554 312.227L92.8554 312.23C93.1255 321.043 93.3916 329.722 94.0176 338.154C95.1046 352.792 97.2808 366.797 102.47 379.74C112.867 405.673 135.305 427.215 184.896 441.201ZM647.868 401.158C572.112 379.832 508.65 399.981 441.963 421.153C438.167 422.358 434.362 423.566 430.542 424.77C359.605 447.136 283.999 468.111 185.168 440.238C135.78 426.31 113.647 404.932 103.398 379.368C98.2642 366.563 96.0986 352.675 95.0149 338.079C94.389 329.651 94.1251 321.025 93.8565 312.241C93.6589 305.783 93.4588 299.241 93.1102 292.629C91.4686 261.481 86.541 229.167 63.0054 198.993C39.476 168.827 -2.59653 140.87 -78.3744 118.29C-153.984 95.7601 -201.414 53.6809 -225.941 3.19872C-250.472 -47.2937 -252.119 -106.25 -236.046 -162.567C-203.895 -275.224 -100.901 -377.153 31.2049 -379.475C97.4063 -380.638 142.547 -385.757 177.152 -395.223C211.772 -404.694 235.83 -418.511 259.87 -437.036C272.664 -446.895 285.446 -458.08 299.813 -470.651L299.813 -470.651L299.815 -470.652L299.819 -470.656L299.827 -470.663L299.832 -470.668L299.833 -470.668C339.44 -505.326 391.088 -550.521 488.188 -607.514C620.374 -685.102 797.877 -670.021 928.505 -607.029C993.814 -575.537 1047.35 -532.092 1077.64 -482.33C1107.92 -432.587 1114.97 -376.531 1087.33 -319.711C1059.59 -262.707 1045.7 -223.155 1042.22 -190.993C1038.75 -158.799 1045.71 -134.043 1059.6 -106.649C1067.22 -91.6284 1076.92 -75.8212 1088.12 -57.5551C1117.77 -9.21534 1157.97 56.3451 1198.21 170.113C1223.79 242.437 1219.26 298.428 1193.9 340.396C1168.54 382.379 1122.29 410.434 1064.2 426.739C948.015 459.351 784.771 444.878 647.885 401.163L647.877 401.16L647.868 401.158ZM433.629 398.509C366.342 419.734 294.43 439.708 200.444 413.189C153.423 399.922 132.143 379.485 122.282 354.878C117.361 342.598 115.298 329.311 114.267 315.425C113.674 307.438 113.422 299.215 113.166 290.865L113.166 290.863L113.166 290.861L113.166 290.859L113.166 290.857L113.166 290.855L113.166 290.854L113.166 290.852L113.166 290.85L113.166 290.849L113.166 290.847L113.166 290.845L113.166 290.843L113.166 290.841L113.165 290.831C112.978 284.705 112.788 278.512 112.46 272.294C110.907 242.816 106.252 212.41 84.124 184.027C61.9899 155.637 22.318 129.202 -49.4215 107.815C-121.329 86.3776 -166.533 46.302 -189.92 -1.85819C-213.302 -50.008 -214.85 -106.182 -199.561 -159.781C-168.988 -266.959 -71.0324 -364.015 54.7264 -366.226C117.457 -367.329 160.159 -372.182 192.852 -381.13C225.529 -390.073 248.224 -403.112 270.936 -420.621C283.02 -429.938 295.115 -440.526 308.721 -452.438C346.278 -485.318 395.351 -528.279 487.494 -582.389C613.172 -656.193 781.812 -641.811 905.854 -581.967C967.881 -552.042 1018.81 -510.725 1047.65 -463.318C1076.5 -415.891 1083.25 -362.37 1056.88 -308.14C1030.6 -254.094 1017.49 -216.703 1014.21 -186.371C1010.94 -156.071 1017.48 -132.78 1030.59 -106.916C1037.77 -92.7474 1046.93 -77.8006 1057.53 -60.5108L1057.53 -60.5101L1057.53 -60.5086L1057.53 -60.5081C1085.64 -14.6489 1123.86 47.6938 1162.04 155.711C1186.36 224.495 1182.11 277.925 1157.88 318.054C1133.66 358.167 1089.54 384.883 1034.34 400.385C923.948 431.385 768.983 417.616 639.1 376.118C567.572 355.976 507.67 375.001 444.404 395.094C440.824 396.231 437.234 397.372 433.629 398.509ZM444.157 394.123C507.379 374.042 567.551 354.929 639.38 375.158L639.388 375.161L639.396 375.163C769.168 416.626 923.927 430.353 1034.07 399.422C1089.13 383.958 1132.98 357.35 1157.02 317.537C1181.05 277.738 1185.35 224.639 1161.1 156.044C1122.95 48.1372 1084.84 -14.0432 1056.73 -59.8936C1046.11 -77.22 1036.92 -92.2145 1029.7 -106.463C1016.52 -132.45 1009.92 -155.936 1013.22 -186.479C1016.51 -216.989 1029.69 -254.508 1055.98 -308.577C1082.18 -362.463 1075.5 -415.623 1046.8 -462.798C1018.08 -509.992 967.332 -551.197 905.42 -581.066C781.582 -640.812 613.31 -655.114 488 -581.527C395.947 -527.47 346.985 -484.605 309.435 -451.732L309.434 -451.731C295.807 -439.8 283.682 -429.185 271.546 -419.83C248.752 -402.257 225.942 -389.149 193.116 -380.165C160.305 -371.185 117.507 -366.33 54.744 -365.226C-70.4855 -363.025 -168.121 -266.354 -198.599 -159.507C-213.835 -106.094 -212.274 -50.1808 -189.02 -2.29502C-165.771 45.5804 -120.811 85.4884 -49.1357 106.856C22.7083 128.274 62.601 154.794 84.9127 183.412C107.231 212.039 111.903 242.696 113.459 272.241C113.789 278.514 113.979 284.72 114.167 290.845C114.421 299.176 114.671 307.357 115.265 315.351C116.292 329.194 118.345 342.364 123.21 354.506C132.923 378.744 153.898 399.017 200.715 412.227C294.405 438.662 366.077 418.769 433.328 397.555C436.948 396.413 440.556 395.267 444.153 394.124L444.157 394.123ZM213.606 389.66C303.242 414.972 371.825 395.907 435.993 375.649C439.43 374.564 442.854 373.476 446.268 372.391C506.601 353.214 563.719 335.059 631.924 354.28C755.788 393.886 903.573 407.029 1008.85 377.44C1061.49 362.644 1103.57 337.144 1126.67 298.853C1149.78 260.547 1153.84 209.546 1130.65 143.895C1094.23 40.8008 1057.79 -18.7026 1030.98 -62.4706L1030.98 -62.4719C1020.87 -78.973 1012.14 -93.2374 1005.29 -106.758C992.786 -131.441 986.552 -153.665 989.672 -182.578C992.796 -211.523 1005.3 -247.205 1030.36 -298.786C1055.51 -350.551 1049.08 -401.64 1021.56 -446.909C994.052 -492.159 945.481 -531.595 886.327 -560.156C768.031 -617.274 607.201 -631.001 487.341 -560.558C399.468 -508.914 352.668 -467.91 316.853 -436.53C303.878 -425.162 292.344 -415.056 280.822 -406.166C259.165 -389.456 237.525 -377.014 206.366 -368.479C175.192 -359.94 134.472 -355.309 74.6508 -354.256C-45.2899 -352.146 -138.711 -259.507 -167.868 -157.209C-182.45 -106.05 -180.974 -52.4316 -158.673 -6.47169C-136.367 39.4987 -93.2539 77.7506 -24.6747 98.2118C43.7361 118.623 81.5635 143.85 102.667 170.941C123.765 198.024 128.204 227.038 129.685 255.17C129.997 261.09 130.178 266.988 130.357 272.822L130.357 272.824L130.357 272.826L130.357 272.828L130.357 272.83L130.357 272.833L130.357 272.835L130.357 272.837L130.357 272.84L130.357 272.843L130.357 272.845L130.357 272.848L130.357 272.851L130.357 272.854L130.357 272.857L130.357 272.86L130.358 272.868L130.358 272.875L130.358 272.882L130.359 272.89L130.359 272.897L130.36 272.905L130.36 272.913C130.603 280.875 130.843 288.718 131.408 296.334C132.391 309.588 134.359 322.272 139.053 333.995C148.46 357.488 168.761 376.997 213.606 389.66ZM632.204 353.32C563.698 334.011 506.31 352.255 446.02 371.42L446.016 371.421L445.934 371.447C442.53 372.529 439.117 373.614 435.692 374.696C371.559 394.942 303.217 413.926 213.878 388.698C169.236 376.092 149.241 356.748 139.982 333.623C135.343 322.038 133.385 309.471 132.406 296.26C131.84 288.631 131.601 280.824 131.359 272.873C131.18 267.028 130.999 261.105 130.684 255.117C129.199 226.918 124.744 197.653 103.456 170.326C82.175 143.008 44.1267 117.696 -24.3888 97.2535C-92.7358 76.8616 -135.606 38.7775 -157.774 -6.90824C-179.946 -52.6043 -181.435 -105.962 -166.907 -156.935C-137.843 -258.902 -44.7425 -351.155 74.6684 -353.256C134.522 -354.309 175.338 -358.943 206.63 -367.515C237.938 -376.09 259.693 -388.601 281.433 -405.374C293.007 -414.305 304.57 -424.436 317.567 -435.823C353.376 -467.198 400.066 -508.106 487.848 -559.696C607.34 -629.923 767.802 -616.274 885.892 -559.256C944.931 -530.749 993.327 -491.427 1020.7 -446.39C1048.07 -401.372 1054.44 -350.644 1029.46 -299.223C1004.39 -247.619 991.821 -211.808 988.678 -182.685C985.532 -153.53 991.832 -131.11 1004.4 -106.306C1011.29 -92.7053 1020.05 -78.3935 1030.18 -61.8564C1056.98 -18.0972 1093.33 41.2439 1129.71 144.228C1152.83 209.69 1148.73 260.361 1125.82 298.337C1102.9 336.328 1061.09 361.719 1008.58 376.477C903.551 405.996 755.973 392.896 632.22 353.325L632.212 353.322L632.204 353.32ZM438.889 347.343C378.549 366.402 314.051 384.342 229.755 360.525C187.579 348.609 168.48 330.25 159.631 308.136C155.215 297.102 153.364 285.165 152.44 272.694C151.907 265.512 151.681 258.116 151.451 250.606C151.283 245.106 151.113 239.545 150.819 233.964C149.427 207.499 145.253 180.208 125.42 154.735C105.58 129.253 70.0167 105.521 5.69107 86.3184C-58.8031 67.0656 -99.3512 31.0715 -120.33 -12.1877C-141.304 -55.4366 -142.692 -105.89 -128.979 -154.029C-101.558 -250.284 -13.702 -337.454 99.098 -339.44C155.349 -340.431 193.636 -344.788 222.947 -352.821C252.242 -360.849 272.587 -372.554 292.949 -388.273C303.783 -396.636 314.627 -406.143 326.828 -416.838C360.506 -446.362 404.517 -484.944 487.149 -533.534C599.868 -599.816 751.113 -586.898 862.356 -533.157C917.984 -506.283 963.662 -469.177 989.532 -426.598C1015.41 -383.999 1021.46 -335.922 997.808 -287.209C974.242 -238.68 962.488 -205.113 959.552 -177.885C956.618 -150.69 962.478 -129.786 974.233 -106.567C980.672 -93.8492 988.886 -80.4303 998.389 -64.9066L998.391 -64.9047C1023.6 -23.7258 1057.87 32.2623 1092.12 129.261C1113.92 191.034 1110.11 239.028 1088.37 275.077C1066.65 311.112 1027.07 335.107 977.563 349.028C878.56 376.868 739.587 364.502 623.112 327.238C558.985 309.157 505.283 326.235 448.549 344.278C445.34 345.299 442.121 346.322 438.889 347.343ZM448.301 343.307C504.992 325.276 558.964 308.109 623.391 326.278L623.4 326.28L623.408 326.283C739.773 363.513 878.539 375.836 977.292 348.065C1026.67 334.181 1065.97 310.295 1087.52 274.561C1109.06 238.841 1112.91 191.178 1091.17 129.594C1056.97 32.7053 1022.79 -23.1206 997.59 -64.2909C988.064 -79.8507 979.821 -93.3172 973.341 -106.116C961.524 -129.456 955.598 -150.555 958.557 -177.993C961.513 -205.398 973.331 -239.094 996.908 -287.646C1020.4 -336.015 1014.41 -383.731 988.677 -426.079C962.937 -468.445 917.434 -505.438 861.921 -532.256C750.883 -585.899 600.007 -598.737 487.656 -532.672C405.114 -484.135 361.214 -445.65 327.542 -416.132C315.32 -405.418 304.446 -395.885 293.56 -387.481C273.116 -371.699 252.655 -359.926 223.211 -351.856C193.783 -343.791 155.399 -339.431 99.1155 -338.44C-13.1542 -336.464 -100.69 -249.68 -128.017 -153.755C-141.677 -105.803 -140.277 -55.6091 -119.431 -12.6241C-98.5894 30.3505 -58.2848 66.1767 5.9772 85.3601C70.4076 104.594 106.192 128.411 126.209 154.12C146.232 179.837 150.422 207.378 151.818 233.911C152.113 239.52 152.282 245.067 152.45 250.542L152.45 250.546L152.452 250.601L152.452 250.607L152.452 250.613L152.452 250.62C152.681 258.099 152.905 265.442 153.437 272.62C154.358 285.048 156.198 296.868 160.559 307.764C169.261 329.51 188.055 347.704 230.026 359.563C314.025 383.296 378.283 365.438 438.588 346.389C441.836 345.363 445.073 344.334 448.301 343.307ZM242.903 336.994C322.848 359.604 384.018 342.573 441.24 324.481C444.293 323.516 447.335 322.547 450.368 321.582L450.383 321.577L450.398 321.572C504.2 304.445 555.118 288.237 615.921 305.397C726.378 340.769 858.171 352.509 952.061 326.081C999.011 312.865 1036.55 290.086 1057.16 255.874C1077.78 221.647 1081.39 176.083 1060.71 117.442C1028.23 25.3669 995.73 -27.7819 971.825 -66.8698C962.814 -81.6049 955.024 -94.3418 948.919 -106.413C937.773 -128.449 932.218 -148.286 934.999 -174.095C937.784 -199.935 948.928 -231.794 971.275 -277.858C993.711 -324.106 987.973 -369.75 963.426 -410.192C938.891 -450.614 895.57 -485.839 842.815 -511.349C737.318 -562.364 593.884 -574.627 486.983 -511.706C408.62 -465.582 366.882 -428.957 334.945 -400.932C323.376 -390.781 313.093 -381.758 302.821 -373.82C283.514 -358.901 264.223 -347.793 236.447 -340.173C208.655 -332.549 172.35 -328.413 119.008 -327.473C12.0264 -325.588 -71.2954 -242.834 -97.3005 -151.459C-110.306 -105.761 -108.991 -57.8628 -89.0977 -16.8038C-69.1998 24.2657 -30.7419 58.4361 30.4237 76.713C91.4207 94.9394 125.14 117.465 143.949 141.646C162.752 165.82 166.71 191.718 168.03 216.837C168.308 222.133 168.47 227.411 168.629 232.632L168.63 232.645L168.63 232.648C168.847 239.772 169.062 246.789 169.567 253.601C170.443 265.44 172.199 276.773 176.387 287.25C184.783 308.251 202.902 325.682 242.903 336.994ZM616.201 304.437C555.098 287.189 503.909 303.486 450.15 320.602C447.089 321.576 444.019 322.554 440.938 323.528C383.752 341.608 322.823 358.558 243.175 336.032C203.378 324.777 185.564 307.511 177.316 286.879C173.182 276.539 171.437 265.323 170.564 253.527C170.06 246.718 169.847 239.754 169.631 232.66L169.63 232.646C169.471 227.426 169.31 222.135 169.029 216.785C167.705 191.598 163.731 165.449 144.738 141.032C125.752 116.623 91.812 94.0126 30.71 75.7549C-30.2232 57.5475 -68.4377 23.5451 -88.1977 -17.2398C-107.963 -58.0352 -109.291 -105.673 -96.3386 -151.185C-70.4273 -242.231 12.5749 -324.597 119.026 -326.473C172.4 -327.414 208.802 -331.552 236.712 -339.209C264.637 -346.869 284.043 -358.046 303.432 -373.029C313.756 -381.006 324.069 -390.056 335.659 -400.226L335.66 -400.226L335.66 -400.227C367.59 -428.245 409.218 -464.773 487.49 -510.844C594.022 -573.549 737.088 -561.364 842.38 -510.449C895.02 -484.994 938.165 -449.882 962.571 -409.673C986.966 -369.482 992.645 -324.198 970.375 -278.295C948.017 -232.208 936.809 -200.22 934.005 -174.202C931.198 -148.152 936.82 -128.119 948.027 -105.961C954.172 -93.8106 961.991 -81.0268 971.024 -66.2563C994.924 -27.1771 1027.33 25.8094 1059.77 117.774C1080.38 176.226 1076.72 221.461 1056.3 255.358C1035.87 289.27 998.606 311.94 951.79 325.118C858.149 351.476 726.563 339.78 616.218 304.442L616.209 304.44L616.201 304.437ZM443.924 298.353C390.247 315.339 332.86 331.332 257.858 310.102C220.329 299.479 203.324 283.109 195.443 263.381C191.513 253.541 189.866 242.897 189.043 231.781C188.57 225.38 188.368 218.786 188.164 212.092C188.014 207.19 187.863 202.235 187.602 197.264C186.363 173.682 182.652 149.376 165.019 126.688C147.381 103.992 115.758 82.8466 58.5432 65.7356C1.16006 48.5741 -34.9225 16.4878 -53.5918 -22.079C-72.2561 -60.6354 -73.4896 -105.612 -61.2882 -148.522C-36.8916 -234.32 41.2775 -312.025 141.648 -313.795C191.684 -314.678 225.736 -318.561 251.802 -325.718C277.853 -332.87 295.945 -343.297 314.053 -357.302C323.687 -364.753 333.331 -373.223 344.182 -382.753L344.184 -382.754C374.143 -409.065 413.298 -443.454 486.808 -486.759C587.097 -545.84 721.656 -534.323 820.623 -486.425C870.113 -462.473 910.755 -429.399 933.774 -391.441C956.805 -353.465 962.19 -310.601 941.138 -267.171C920.176 -223.924 909.724 -194.017 907.113 -169.762C904.505 -145.539 909.714 -126.921 920.167 -106.235C925.893 -94.9051 933.199 -82.9484 941.651 -69.1154C964.075 -32.4173 994.569 17.4865 1025.03 103.935C1044.43 158.995 1041.05 201.784 1021.7 233.928C1002.36 266.057 967.141 287.447 923.095 299.856C835.014 324.67 711.381 313.647 607.764 280.437C550.738 264.328 502.984 279.543 452.514 295.623C449.66 296.532 446.798 297.444 443.924 298.353ZM452.265 294.652C502.692 278.584 550.718 263.28 608.045 279.477L608.053 279.479L608.061 279.482C711.566 312.658 834.993 323.637 922.824 298.893C966.736 286.522 1001.68 265.242 1020.84 233.412C1039.99 201.598 1043.42 159.139 1024.09 104.267C993.664 17.9288 963.269 -31.8129 940.85 -68.5023C932.376 -82.3707 925.041 -94.3742 919.275 -105.784C908.76 -126.591 903.485 -145.405 906.119 -169.869C908.749 -194.302 919.265 -224.337 940.239 -267.607C961.123 -310.693 955.798 -353.198 932.919 -390.923C910.029 -428.667 869.562 -461.628 820.187 -485.525C721.426 -533.324 587.236 -544.761 487.316 -485.897C413.896 -442.645 374.851 -408.354 344.899 -382.048C334.026 -372.499 324.351 -364.002 314.665 -356.511C296.474 -342.443 278.267 -331.947 252.067 -324.754C225.883 -317.564 191.734 -313.679 141.665 -312.796C41.8265 -311.035 -36.0233 -233.717 -60.3262 -148.249C-72.4748 -105.525 -71.2284 -60.8076 -52.6917 -22.5147C-34.1601 15.7677 1.67923 47.6856 58.8299 64.7775C116.149 81.9199 147.993 103.15 165.809 126.074C183.63 149.005 187.359 173.563 188.6 197.212C188.864 202.237 189.016 207.204 189.165 212.105L189.165 212.118L189.165 212.121C189.368 218.779 189.568 225.315 190.041 231.707C190.86 242.78 192.496 253.307 196.372 263.01C204.105 282.369 220.806 298.575 258.13 309.14C332.834 330.285 389.98 314.375 443.623 297.4C446.513 296.485 449.393 295.568 452.265 294.652ZM272.216 284.331C342.472 304.238 396.228 289.242 446.503 273.315C449.192 272.463 451.872 271.609 454.543 270.757L454.544 270.757L454.545 270.756L454.546 270.756C501.817 255.679 546.535 241.417 599.935 256.517C696.985 287.655 812.786 297.992 895.29 274.724C936.547 263.089 969.542 243.031 987.66 212.897C1005.79 182.749 1008.96 142.621 990.784 90.9916C962.251 9.93562 933.688 -36.8585 912.686 -71.2664L912.685 -71.2686C904.769 -84.2361 897.928 -95.4444 892.567 -106.064C882.778 -125.455 877.902 -142.905 880.344 -165.609C882.789 -188.344 892.576 -216.381 912.209 -256.928C931.93 -297.658 926.885 -337.857 905.31 -373.471C883.746 -409.066 845.675 -440.079 799.32 -462.538C706.622 -507.45 580.583 -518.251 486.642 -462.85C417.79 -422.246 381.114 -390.001 353.054 -365.332L353.054 -365.332C342.891 -356.397 333.859 -348.456 324.838 -341.472C307.88 -328.343 290.939 -318.569 266.545 -311.864C242.135 -305.155 210.245 -301.514 163.383 -300.687C69.3598 -299.027 -3.86274 -226.159 -26.7153 -145.706C-38.1446 -105.469 -36.9897 -63.2913 -19.505 -27.1334C-2.01523 9.03513 31.787 39.1242 85.5393 55.2167C139.122 71.2587 168.733 91.0813 185.248 112.353C201.756 133.618 205.232 156.4 206.392 178.508C206.636 183.166 206.778 187.811 206.918 192.407C207.11 198.684 207.299 204.869 207.742 210.87C208.512 221.294 210.055 231.277 213.739 240.508C221.124 259.015 237.06 274.369 272.216 284.331ZM600.216 255.557C546.514 240.369 501.525 254.72 454.298 269.785C451.607 270.644 448.908 271.504 446.201 272.362C395.961 288.277 342.446 303.192 272.489 283.369C237.538 273.465 221.906 258.276 214.667 240.137C211.039 231.044 209.507 221.177 208.739 210.797C208.296 204.81 208.11 198.69 207.92 192.454L207.92 192.453L207.92 192.452L207.92 192.451L207.92 192.45L207.92 192.449L207.92 192.448L207.92 192.446L207.92 192.445L207.92 192.444L207.92 192.442L207.92 192.441L207.92 192.439L207.92 192.437L207.92 192.435L207.92 192.434L207.92 192.432L207.919 192.422L207.919 192.412L207.919 192.403L207.918 192.394L207.918 192.385L207.918 192.377L207.917 192.369L207.917 192.361L207.917 192.354L207.916 192.347L207.916 192.34L207.915 192.334L207.915 192.328C207.777 187.763 207.636 183.136 207.391 178.455C206.227 156.28 202.735 133.248 186.038 111.74C169.346 90.24 139.514 70.3322 85.8261 54.2587C32.3068 38.2359 -1.25241 8.31546 -18.6047 -27.5687C-35.9621 -63.4634 -37.1298 -105.382 -25.7533 -145.433C-2.99409 -225.557 69.9095 -298.036 163.4 -299.687C210.295 -300.515 242.282 -304.158 266.81 -310.9C291.353 -317.645 308.41 -327.488 325.45 -340.681C334.523 -347.706 343.585 -355.673 353.77 -364.627C381.822 -389.29 418.388 -421.438 487.15 -461.989C580.722 -517.171 706.392 -506.451 798.884 -461.638C845.125 -439.235 883.02 -408.335 904.455 -372.953C925.878 -337.59 930.864 -297.75 911.308 -257.364C891.665 -216.794 881.814 -188.629 879.349 -165.716C876.882 -142.771 881.824 -125.126 891.674 -105.614C897.076 -94.9132 903.947 -83.6575 911.884 -70.6536C932.882 -36.2544 961.346 10.3776 989.84 91.3236C1007.95 142.765 1004.73 182.563 986.803 212.382C968.866 242.215 936.141 262.164 895.018 273.762C812.764 296.959 697.171 286.666 600.232 255.562L600.224 255.56L600.216 255.557ZM449.079 248.276C402.207 263.143 352.082 277.144 286.572 258.559C253.789 249.258 238.921 234.921 232.031 217.633C228.596 209.013 227.157 199.69 226.439 189.959C226.025 184.357 225.849 178.582 225.671 172.722C225.54 168.432 225.408 164.097 225.18 159.75C224.099 139.116 220.859 117.859 205.474 98.0181C190.084 78.1697 162.485 59.6696 112.533 44.6966C62.4118 29.673 30.8899 1.58121 14.5796 -32.1889C-1.72555 -65.9486 -2.80172 -105.327 7.85551 -142.892C29.1639 -217.999 97.4398 -286.03 185.116 -287.58C228.804 -288.352 258.532 -291.75 281.285 -298.011C304.023 -304.268 319.813 -313.389 335.619 -325.642C344.027 -332.159 352.445 -339.569 361.917 -347.907L361.919 -347.909L361.922 -347.911C388.082 -370.938 422.279 -401.04 486.473 -438.943C574.067 -490.663 691.585 -480.579 778.015 -438.653C821.236 -417.687 856.735 -388.735 876.843 -355.502C896.963 -322.251 901.668 -284.716 883.276 -246.686C864.973 -208.839 855.851 -182.673 853.572 -161.457C851.296 -140.272 855.84 -123.99 864.964 -105.895C869.961 -95.9836 876.339 -85.5224 883.718 -73.4184C903.299 -41.3008 929.931 2.38355 956.533 78.0473C973.479 126.246 970.524 163.714 953.618 191.866C936.721 220.003 905.95 238.73 867.482 249.592C790.555 271.313 682.587 261.663 592.104 232.597C542.329 218.505 500.648 231.815 456.576 245.888C454.085 246.683 451.587 247.481 449.079 248.276ZM456.327 244.917C500.356 230.856 542.308 217.457 592.385 231.637L592.393 231.639L592.401 231.642C682.773 260.674 790.533 270.28 867.21 248.629C905.544 237.805 936.044 219.188 952.761 191.351C969.469 163.528 972.47 126.39 955.59 78.3789C929.026 2.82548 902.492 -40.6968 882.916 -72.8056L882.916 -72.8062C875.515 -84.9456 869.109 -95.4536 864.071 -105.444C854.886 -123.662 850.276 -140.138 852.577 -161.564C854.876 -182.957 864.062 -209.252 882.376 -247.121C900.602 -284.808 895.956 -321.984 875.988 -354.985C856.009 -388.004 820.685 -416.843 777.579 -437.753C691.355 -479.579 574.206 -489.583 486.981 -438.082C422.879 -400.233 388.792 -370.228 362.639 -347.207L362.638 -347.207C353.143 -338.848 344.693 -331.41 336.232 -324.852C320.343 -312.535 304.437 -303.345 281.55 -297.047C258.679 -290.753 228.854 -287.353 185.133 -286.58C97.9903 -285.039 30.0329 -217.398 8.81755 -142.619C-1.78707 -105.24 -0.69796 -66.1204 15.4801 -32.6239C31.6531 0.862098 62.9322 28.785 112.82 43.7388C162.877 58.7433 190.697 77.3287 206.264 97.4053C221.837 117.489 225.094 138.997 226.178 159.698C226.409 164.099 226.541 168.447 226.672 172.737L226.672 172.745C226.849 178.572 227.023 184.29 227.436 189.885C228.151 199.573 229.579 208.779 232.96 217.263C239.704 234.183 254.268 248.354 286.845 257.597C352.056 276.097 401.94 262.178 448.777 247.323C451.302 246.522 453.818 245.719 456.327 244.917ZM451.383 223.237C407.889 237.044 361.37 250.05 300.573 232.787C270.147 224.147 256.34 210.826 249.942 194.758C246.752 186.747 245.416 178.086 244.75 169.047C244.366 163.848 244.203 158.488 244.037 153.049L244.037 153.036L244.037 153.029C243.915 149.047 243.793 145.023 243.582 140.991C242.579 121.831 239.573 102.098 225.304 83.6809C211.03 65.256 185.429 48.0781 139.083 34.174C92.5677 20.219 63.3101 -5.87569 48.1711 -37.2479C33.0371 -68.6096 32.039 -105.189 41.9296 -140.082C61.7048 -209.845 125.069 -273.039 206.442 -274.479C246.979 -275.196 274.56 -278.352 295.668 -284.165C316.76 -289.974 331.407 -298.443 346.071 -309.819C353.87 -315.87 361.679 -322.75 370.466 -330.491L370.468 -330.493L370.471 -330.496L370.474 -330.498C394.747 -351.883 426.483 -379.842 486.05 -415.044C567.342 -463.083 676.399 -453.716 756.604 -414.776C796.713 -395.303 829.658 -368.411 848.321 -337.541C866.995 -306.652 871.363 -271.78 854.292 -236.45C837.309 -201.303 828.846 -177.007 826.732 -157.31C824.622 -137.645 828.836 -122.53 837.3 -105.729C841.935 -96.5282 847.851 -86.8152 854.697 -75.5764L854.698 -75.5744C872.867 -45.7467 897.582 -5.17156 922.268 65.1007C937.994 109.869 935.253 144.677 919.56 170.833C903.875 196.975 875.313 214.37 839.613 224.459C768.225 244.634 668.035 235.67 584.072 208.675C537.898 195.592 499.233 207.949 458.337 221.019C456.027 221.758 453.709 222.499 451.383 223.237ZM458.088 220.049C498.94 206.99 537.877 194.544 584.353 207.716L584.362 207.718L584.37 207.721C668.221 234.682 768.203 243.601 839.341 223.497C874.906 213.446 903.197 196.16 918.702 170.318C934.198 144.491 936.985 110.013 921.324 65.4321C896.677 -4.73037 872.06 -45.1436 853.896 -74.9626C847.028 -86.2376 841.082 -95.998 836.407 -105.279C827.882 -122.202 823.602 -137.51 825.738 -157.416C827.871 -177.291 836.397 -201.715 853.391 -236.885C870.297 -271.872 865.988 -306.385 847.465 -337.023C828.931 -367.681 796.161 -394.459 756.167 -413.876C676.169 -452.716 567.481 -462.004 486.559 -414.183C427.082 -379.034 395.457 -351.173 371.19 -329.793C362.378 -322.03 354.537 -315.122 346.684 -309.029C331.938 -297.589 317.175 -289.052 295.933 -283.201C274.707 -277.355 247.029 -274.197 206.46 -273.479C125.62 -272.048 62.574 -209.245 42.8918 -139.809C33.0536 -105.102 34.0647 -68.7812 49.0717 -37.6825C64.0736 -6.59441 93.0884 19.3313 139.371 33.2162C185.822 47.152 211.644 64.4153 226.095 83.0684C240.551 101.729 243.574 121.712 244.58 140.939C244.794 145.023 244.917 149.057 245.037 153.036L245.037 153.038L245.038 153.05L245.038 153.056L245.038 153.057C245.202 158.468 245.364 163.777 245.747 168.973C246.41 177.969 247.735 186.514 250.871 194.388C257.122 210.088 270.625 223.244 300.846 231.825C361.344 249.003 407.622 236.079 451.08 222.284C453.415 221.543 455.742 220.799 458.063 220.057L458.069 220.055L458.076 220.053L458.082 220.051L458.088 220.049ZM454.195 199.547C413.603 212.086 370.342 223.968 314.296 208.054C285.626 199.912 272.4 187.546 266.119 172.687C262.988 165.279 261.597 157.283 260.849 148.947C260.399 143.936 260.18 138.77 259.958 133.529L259.958 133.527L259.958 133.524L259.958 133.521L259.958 133.518L259.958 133.516L259.957 133.486C259.811 130.046 259.664 126.573 259.449 123.092C258.358 105.442 255.518 87.2743 242.377 70.2749C229.23 53.2686 205.721 37.3638 163.144 24.3855L163.281 23.9364L163.143 24.3853C120.299 11.2815 93.2163 -13.03 79.1214 -42.2C65.0313 -71.3599 63.9449 -105.322 72.9856 -137.696C91.0618 -202.426 149.678 -260.974 226.192 -262.284C264.076 -262.935 289.843 -265.903 309.541 -271.345C329.223 -276.784 342.863 -284.698 356.488 -295.279C363.635 -300.829 370.784 -307.12 378.8 -314.173L378.8 -314.174C401.361 -334.027 430.785 -359.919 486.358 -392.343C561.823 -436.373 662.635 -427.731 736.823 -391.725C773.924 -373.719 804.418 -348.846 821.768 -320.231C839.128 -291.598 843.322 -259.22 827.797 -226.303L827.796 -226.301C812.358 -194.056 804.658 -171.643 802.74 -153.372C800.826 -135.131 804.671 -120.986 812.414 -105.261C816.756 -96.4442 822.33 -87.1231 828.798 -76.3086C845.409 -48.5327 867.912 -10.9057 890.545 53.3274C905.01 94.423 902.45 126.527 887.94 150.754C873.438 174.966 847.061 191.21 814.101 200.726C748.192 219.755 655.709 211.963 578.132 186.887C534.894 174.478 498.534 185.774 460.155 197.699L460.139 197.704C458.164 198.317 456.183 198.933 454.195 199.547ZM459.918 196.725C498.252 184.813 534.879 173.431 578.416 185.928L578.424 185.93L578.432 185.933C655.892 210.972 748.166 218.722 813.824 199.765C846.649 190.288 872.758 174.155 887.082 150.24C901.396 126.34 904 94.5643 889.602 53.6596C867.005 -10.4704 844.6 -47.9322 827.994 -75.6965L827.994 -75.6976C821.504 -86.5482 815.9 -95.9177 811.517 -104.819C803.715 -120.664 799.806 -135 801.746 -153.477C803.682 -171.923 811.444 -194.463 826.893 -226.731C842.256 -259.306 838.122 -291.329 820.912 -319.712C803.692 -348.115 773.372 -372.875 736.387 -390.825C662.405 -426.731 561.96 -435.295 486.862 -391.479C431.383 -359.11 402.068 -333.314 379.514 -313.467C371.477 -306.395 364.299 -300.078 357.101 -294.489C343.395 -283.844 329.639 -275.861 309.807 -270.381C289.99 -264.906 264.126 -261.936 226.209 -261.284C150.226 -259.984 91.9314 -201.823 73.9488 -137.428C64.9602 -105.24 66.0572 -71.5351 80.0218 -42.6351C93.9815 -13.7453 120.825 10.3966 163.436 23.4291C206.119 36.4396 229.846 52.4305 243.168 69.6633C256.495 86.903 259.353 105.318 260.447 123.03C260.665 126.571 260.813 130.072 260.959 133.528C261.18 138.744 261.396 143.859 261.845 148.858C262.588 157.147 263.967 165.027 267.041 172.298C273.17 186.797 286.095 199.006 314.569 207.092C370.319 222.922 413.339 211.121 453.9 198.591C455.847 197.99 457.787 197.387 459.724 196.785L459.85 196.746L459.918 196.725ZM328.005 183.319C379.3 197.886 419.303 187.127 456.993 175.855C458.641 175.362 460.285 174.868 461.924 174.375L461.947 174.369C497.811 163.593 531.871 153.359 572.177 165.096C643.369 188.253 728.146 194.874 788.575 176.991C818.795 168.047 842.987 152.956 856.305 130.673C869.632 108.375 872.012 78.975 858.808 41.5523L858.808 41.552C838.237 -16.6199 817.948 -51.2781 802.896 -76.9902L802.895 -76.9911C796.8 -87.4032 791.563 -96.3483 787.515 -104.794C780.492 -119.443 777.015 -132.62 778.733 -149.437C780.455 -166.282 787.392 -186.812 801.286 -216.154L801.288 -216.16C815.266 -246.663 811.247 -276.546 795.2 -302.923C779.163 -329.282 751.12 -352.136 717.028 -368.676C648.855 -401.749 556.291 -409.664 486.651 -369.644C435.08 -340.008 407.97 -316.182 387.122 -297.861L387.12 -297.86L387.118 -297.858L387.117 -297.857C379.873 -291.491 373.385 -285.789 366.89 -280.739C354.305 -270.955 341.671 -263.594 323.399 -258.527C305.112 -253.456 281.158 -250.677 245.927 -250.09C174.274 -248.912 120.404 -195.009 104.027 -135.313C95.8362 -105.456 97.0111 -74.1118 110.057 -47.1539C123.108 -20.1864 148.016 2.34187 187.189 14.5948L187.19 14.5951C225.998 26.6475 247.416 41.2793 259.435 56.8671C271.449 72.4488 274.124 89.0524 275.302 105.192C275.517 108.144 275.683 111.088 275.847 114.008L275.848 114.027C276.131 119.064 276.41 124.03 276.933 128.847C277.763 136.481 279.211 143.811 282.284 150.616C288.448 164.265 301.091 175.676 328.005 183.319ZM572.464 164.138C531.864 152.313 497.54 162.628 461.721 173.392L461.712 173.395C460.047 173.895 458.379 174.397 456.707 174.897C419.042 186.161 379.279 196.84 328.278 182.357C301.55 174.767 289.202 163.505 283.195 150.205C280.184 143.536 278.752 136.323 277.928 128.739C277.406 123.943 277.13 119.028 276.849 114.013C276.684 111.081 276.517 108.115 276.299 105.119C275.117 88.9216 272.423 72.0751 260.227 56.2565C248.035 40.4441 226.401 25.7255 187.486 13.6401C148.547 1.46013 123.875 -20.8978 110.958 -47.5896C98.0353 -74.2911 96.8525 -105.38 104.992 -135.048C121.275 -194.402 174.817 -247.921 245.944 -249.091C281.209 -249.678 305.26 -252.46 323.666 -257.564C342.088 -262.672 354.837 -270.102 367.504 -279.95C374.049 -285.038 380.566 -290.766 387.832 -297.151C408.674 -315.467 435.675 -339.196 487.15 -368.777C556.425 -408.588 648.627 -400.748 716.592 -367.776C750.568 -351.293 778.437 -328.551 794.345 -302.403C810.242 -276.274 814.201 -246.742 800.381 -216.58C786.476 -187.213 779.478 -166.557 777.739 -149.538C775.997 -132.492 779.534 -119.128 786.613 -104.361C790.705 -95.8247 795.972 -86.8295 802.089 -76.3806L802.091 -76.3774L802.091 -76.377C817.136 -50.6805 837.327 -16.1924 857.865 41.885C871 79.1137 868.58 108.187 855.447 130.16C842.305 152.149 818.376 167.128 788.291 176.032C728.113 193.841 643.549 187.261 572.479 164.143L572.472 164.14L572.464 164.138ZM459.784 152.163C424.996 162.167 388.252 171.802 341.708 158.584C316.55 151.439 304.491 140.984 298.444 128.546C293.426 118.226 292.581 106.576 291.708 94.5316L291.707 94.5233C291.533 92.1262 291.358 89.7135 291.149 87.2925C289.884 72.6626 287.374 57.6229 276.487 43.4586C265.596 29.289 246.269 15.9302 211.229 4.80379L211.228 4.8033C175.726 -6.59874 152.994 -27.3437 140.988 -52.1084C128.985 -76.864 127.722 -105.59 135.063 -132.929C149.741 -187.594 198.864 -236.85 265.657 -237.898C298.235 -238.419 320.375 -241.01 337.252 -245.71C354.114 -250.406 365.741 -257.212 377.287 -266.201C383.135 -270.754 388.968 -275.872 395.45 -281.56C414.585 -298.351 439.378 -320.108 486.94 -346.947C550.753 -382.956 635.07 -375.767 697.227 -345.627C728.312 -330.554 753.903 -309.719 768.626 -285.616C783.36 -261.496 787.204 -234.106 774.775 -206.017L774.77 -206.008C762.422 -179.57 756.246 -160.921 754.721 -145.502C753.199 -130.109 756.308 -117.9 762.61 -104.326C766.385 -96.1964 771.287 -87.6096 777.021 -77.5663C780.892 -70.7866 785.141 -63.3432 789.679 -54.9286C800.922 -34.0792 813.878 -7.35648 827.065 29.776L827.066 29.7765C839.008 63.5267 836.809 90.2227 824.666 110.592C812.531 130.945 790.524 144.884 763.044 153.254C708.094 169.993 631.024 164.543 566.217 143.305C528.837 132.236 497.068 141.404 463.715 151.029C462.408 151.407 461.097 151.785 459.784 152.163ZM463.505 150.049C496.81 140.436 528.839 131.191 566.508 142.348L566.514 142.35L566.521 142.352C631.2 163.55 708.055 168.959 762.753 152.298C790.098 143.968 811.846 130.142 823.807 110.08C835.758 90.0326 837.995 63.6623 826.123 30.1101C812.955 -6.9661 800.021 -33.6418 788.799 -54.454C784.293 -62.8086 780.055 -70.2327 776.186 -77.0108C770.431 -87.0933 765.491 -95.7462 761.703 -103.905C755.347 -117.594 752.181 -129.984 753.726 -145.601C755.268 -161.191 761.502 -179.962 773.862 -206.427C786.141 -234.178 782.357 -261.22 767.773 -285.095C753.178 -308.988 727.759 -329.711 696.791 -344.727C634.844 -374.766 550.884 -381.882 487.431 -346.076C439.97 -319.294 415.286 -297.633 396.157 -280.847C389.655 -275.142 383.795 -270 377.901 -265.412C366.274 -256.36 354.532 -249.484 337.52 -244.747C320.524 -240.013 298.286 -237.42 265.673 -236.898C199.402 -235.858 150.612 -186.981 136.029 -132.67C128.739 -105.521 130.007 -77.0481 141.887 -52.5446C153.763 -28.0505 176.264 -7.47627 211.533 3.85094C246.679 15.0113 266.218 28.4575 277.28 42.8492C288.346 57.2463 290.876 72.5243 292.145 87.2063C292.358 89.664 292.535 92.102 292.711 94.515C293.587 106.558 294.418 117.978 299.343 128.109C305.227 140.211 316.999 150.527 341.981 157.622C388.235 170.757 424.74 161.2 459.508 151.201C460.067 151.041 460.625 150.88 461.183 150.719L462.362 150.379L463.256 150.121L463.505 150.049ZM355.425 133.846C397.218 145.715 430.703 137.204 462.588 128.467C463.552 128.203 464.515 127.939 465.476 127.674C496.32 119.204 525.809 111.105 560.269 121.51C618.693 140.83 688.057 145.108 737.527 129.515C762.267 121.717 782.089 108.93 793.039 90.5067C803.999 72.0675 806.018 48.0754 795.336 17.9974L795.336 17.9966C783.419 -15.3823 771.812 -39.5827 761.781 -58.5784C757.999 -65.7393 754.448 -72.1494 751.192 -78.0282L751.19 -78.0319L751.184 -78.0414L751.176 -78.0555L751.176 -78.0564L751.175 -78.0579C746.793 -85.9679 742.944 -92.9158 739.783 -99.4361L730.697 -141.303C730.706 -141.392 730.714 -141.482 730.722 -141.571C732.052 -155.565 737.465 -172.331 748.269 -195.866L748.272 -195.873L748.275 -195.879C759.156 -221.554 755.486 -246.449 742.066 -268.312C728.656 -290.159 705.516 -308.975 677.44 -322.582C621.299 -349.789 545.229 -356.25 487.243 -324.252C443.7 -300.225 421.229 -280.539 403.807 -265.277L403.807 -265.277C398.081 -260.261 392.901 -255.723 387.697 -251.666C377.19 -243.473 366.57 -237.22 351.118 -232.896C335.652 -228.567 315.326 -226.165 285.4 -225.709C223.469 -224.791 179.092 -180.182 166.112 -130.548C159.621 -105.726 160.973 -79.6189 171.932 -57.066C182.894 -34.5047 203.449 -15.543 235.28 -4.99168L235.282 -4.99095C266.553 5.20943 283.789 17.295 293.553 30.0467C303.313 42.794 305.658 56.2703 307.01 69.3913C307.206 71.2898 307.381 73.1829 307.555 75.0665C308.579 86.1624 309.573 96.9231 314.619 106.475C320.549 117.7 332.024 127.199 355.425 133.846ZM750.331 -77.5169C746.719 -84.0382 743.459 -89.9236 740.648 -95.4515L761.104 -1.1923C751.353 -27.3688 742.002 -47.0213 733.874 -62.8202C730.851 -68.6955 728.002 -74.0302 725.366 -78.9653L725.366 -78.9659C720.302 -88.4468 716.026 -96.4535 712.819 -103.988C707.957 -115.41 705.583 -125.685 706.714 -138.234C707.825 -150.547 712.312 -165.083 721.2 -185.068L730.031 -144.376C731.782 -157.981 737.222 -174.198 747.357 -196.277C758.094 -221.616 754.485 -246.169 741.214 -267.789C727.931 -289.428 704.964 -308.132 677.004 -321.682C621.074 -348.787 545.357 -355.179 487.726 -323.377C444.288 -299.407 421.925 -279.817 404.509 -264.56L404.505 -264.557L404.503 -264.555L404.501 -264.554L404.499 -264.552L404.498 -264.551L404.492 -264.545C398.754 -259.519 393.554 -254.964 388.312 -250.877C377.724 -242.622 366.99 -236.299 351.388 -231.933C335.801 -227.57 315.377 -225.165 285.415 -224.709C224.001 -223.799 179.964 -179.564 167.08 -130.295C160.639 -105.666 161.993 -79.8089 172.831 -57.5031C183.665 -35.2063 203.995 -16.416 235.592 -5.94166C266.97 4.29382 284.415 16.468 294.347 29.4388C304.282 42.4139 306.648 56.1229 308.005 69.2887C308.202 71.2032 308.378 73.1041 308.553 74.9886L308.555 75.0081C309.583 86.1136 310.558 96.6474 315.503 106.008C321.264 116.913 332.46 126.283 355.698 132.884C397.204 144.672 430.452 136.236 462.324 127.503C463.312 127.232 464.298 126.961 465.284 126.69C496.079 118.232 525.822 110.062 560.565 120.554L560.577 120.558C618.863 139.834 688.009 144.075 737.227 128.561C761.832 120.806 781.4 108.132 792.18 89.9958C802.95 71.8752 805.003 48.2073 794.394 18.332C782.496 -14.9933 770.909 -39.1494 760.896 -58.1114C757.136 -65.2323 753.591 -71.6316 750.333 -77.5136L750.331 -77.5169ZM720.844 -186.706L721.2 -185.068C721.384 -185.482 721.57 -185.899 721.758 -186.318L721.762 -186.327L721.766 -186.336C731.098 -209.596 727.603 -231.995 715.496 -251.602C703.399 -271.192 682.712 -287.99 657.643 -300.129C607.518 -324.403 539.696 -330.138 487.537 -302.152C448.025 -280.951 427.881 -263.339 412.172 -249.604C407.194 -245.251 402.661 -241.288 398.098 -237.723C388.63 -230.326 379.017 -224.628 364.975 -220.675C350.919 -216.717 332.407 -214.503 305.135 -214.112C248.065 -213.326 208.432 -173.363 197.152 -128.76C191.511 -106.455 192.953 -82.9661 202.866 -62.6166C212.784 -42.2593 231.162 -25.081 259.321 -15.3801L259.324 -15.3791C286.826 -6.1049 301.972 4.70745 310.609 16.0416C319.244 27.3726 321.422 39.2861 322.862 50.8991C323.034 52.2801 323.194 53.6581 323.355 55.0311C324.537 65.1697 325.688 75.033 330.787 83.8141C336.599 93.8236 347.49 102.366 369.132 108.515C406.173 119.035 436.4 111.648 465.381 104.179C465.954 104.031 466.527 103.883 467.1 103.736L467.199 103.71C495.538 96.3981 522.763 89.3737 554.312 99.1218C606.353 116.524 668.012 119.63 712.002 105.182C734.002 97.9564 751.637 86.3216 761.404 69.8287C771.179 53.3195 773.018 32.0316 763.598 5.62506L763.597 5.62399C762.764 3.30371 761.932 1.03213 761.104 -1.1923L762.656 5.96109C752.028 -23.6136 741.788 -45.2506 732.984 -62.3627C729.984 -68.1956 727.145 -73.5105 724.513 -78.4388L724.513 -78.4399C719.433 -87.9512 715.123 -96.022 711.899 -103.596C706.99 -115.128 704.569 -125.57 705.718 -138.323C706.866 -151.055 711.57 -166.057 720.842 -186.718L720.838 -186.709L720.844 -186.706ZM720.844 -186.706L721.302 -186.523L720.846 -186.727L720.842 -186.718L720.844 -186.706ZM259.647 -16.3256C287.255 -7.01527 302.603 3.88644 311.404 15.4355C320.208 26.9881 322.41 39.1274 323.855 50.776C324.027 52.1622 324.188 53.5402 324.348 54.9087L324.348 54.912L324.349 54.9152L324.349 54.9184L324.349 54.9216C325.538 65.0825 326.665 74.7235 331.652 83.3119C337.29 93.0211 347.912 101.446 369.405 107.553C406.164 117.993 436.155 110.679 465.132 103.211L466.145 102.949L467.027 102.722C495.316 95.4218 522.788 88.3329 554.613 98.1681L554.624 98.1716C606.517 115.526 667.952 118.597 711.69 104.232C733.556 97.0504 750.944 85.5305 760.543 69.3192C770.133 53.1243 772.002 32.1588 762.656 5.96109L735.406 4.75375C739.171 22.0284 736.773 36.5649 729.773 48.4427C721.192 63.0043 705.743 73.4873 686.484 80.1404C647.973 93.444 594.019 91.5109 548.359 76.0259C519.708 66.9257 494.727 72.868 468.886 79.0147L468.177 79.1833C442.1 85.385 415.133 91.647 382.844 82.4755C362.96 76.8252 352.657 69.2403 346.963 60.448C341.778 52.4421 340.459 43.4873 339.108 34.3166L339.108 34.3161L339.104 34.2839C338.977 33.4249 338.85 32.5641 338.72 31.702C337.192 21.5956 335.179 11.2441 327.67 1.3284C323.665 -3.95896 318.085 -9.1388 310.15 -14.0879L259.647 -16.3256ZM259.647 -16.3256L259.644 -16.3266L259.484 -15.8529L259.647 -16.3256ZM312.15 -13.9993C319.402 -9.2779 324.632 -4.33878 328.467 0.724667C336.138 10.8536 338.177 21.4226 339.709 31.5525C339.84 32.4203 339.967 33.2845 340.094 34.1445C341.452 43.3515 342.741 52.0905 347.802 59.9044C353.318 68.421 363.368 75.9015 383.117 81.5135C415.13 90.6064 441.864 84.4134 467.946 78.2105L468.74 78.0217C494.528 71.887 519.748 65.8876 548.667 75.0743L548.676 75.0773C594.174 90.5088 647.899 92.4118 686.157 79.1952C705.283 72.5882 720.492 62.2216 728.912 47.935C735.797 36.2513 738.174 21.8903 734.373 4.70794L704.572 3.38757C704.465 12.2249 702.187 20.1038 698.139 27.0168C690.743 39.6461 677.483 48.9773 660.964 55.0585C627.933 67.2181 581.682 66.4589 542.402 52.8901C516.797 44.4794 494.156 49.2107 470.967 54.1484L470.524 54.2429C447.494 59.1473 423.912 64.1691 396.553 56.3967C378.428 51.2453 368.714 44.6182 363.139 37.0463C357.818 29.8198 356.317 21.7885 354.786 13.5978C354.716 13.2221 354.646 12.8461 354.575 12.4698C353.015 4.17016 351.242 -4.30487 345.384 -12.5269L312.15 -13.9993ZM369.287 -11.4678L346.643 -12.4711C352.286 -4.25379 354.036 4.18741 355.558 12.2851C355.625 12.6418 355.692 12.9977 355.758 13.3528C357.299 21.592 358.762 29.4157 363.944 36.4534C369.339 43.7805 378.819 50.3169 396.826 55.4348C423.946 63.1391 447.318 58.1622 470.385 53.2499L470.759 53.1703C493.929 48.2366 516.823 43.4343 542.718 51.9412L542.725 51.9437C581.827 65.4517 627.839 66.1873 660.618 54.12C677.005 48.0876 690.036 38.8745 697.276 26.5114C701.232 19.7552 703.472 12.0359 703.572 3.34328L668.435 1.78646C667.858 3.06716 667.215 4.31643 666.508 5.53393C660.298 16.2295 649.228 24.4088 635.45 29.9184C607.9 40.9351 569.351 41.3515 536.446 29.6973C514.148 22.0591 494.041 25.3874 473.757 29.0573C473.195 29.1589 472.634 29.2607 472.072 29.3626C452.359 32.9377 432.413 36.5548 410.264 30.2614C393.9 25.6091 384.778 19.9404 379.325 13.5928C373.872 7.24603 372.139 0.275116 370.435 -6.8121L370.353 -7.1539C370.009 -8.58749 369.663 -10.0262 369.287 -11.4678ZM370.333 -11.4215C370.677 -10.0873 370.996 -8.76141 371.311 -7.44684L371.313 -7.43787L371.314 -7.43723L371.408 -7.04578C373.114 0.0530697 374.806 6.79877 380.083 12.9411C385.36 19.0827 394.273 24.6756 410.537 29.2995C432.46 35.5285 452.202 31.949 471.957 28.3672L472.74 28.2253L473.579 28.0733C493.855 24.4047 514.201 21.0194 536.773 28.7521L536.778 28.7539C569.479 40.3368 607.778 39.907 635.079 28.9899C648.726 23.5325 659.581 15.4728 665.643 5.03182C666.265 3.95983 666.837 2.86211 667.357 1.73873L619.362 -0.387801C616.45 1.49239 613.291 3.1891 609.932 4.69231C587.865 14.5671 557.013 16.1631 530.479 6.4207C511.485 -0.445608 493.909 1.4809 476.531 3.8834C475.517 4.02354 474.504 4.16532 473.492 4.30704L473.474 4.30942C457.155 6.59342 440.929 8.86441 423.965 4.04291C409.362 -0.109953 400.837 -4.81961 395.51 -9.93854C395.376 -10.0666 395.245 -10.1949 395.116 -10.3234L370.333 -11.4215ZM609.523 3.77953C612.381 2.50096 615.085 1.08351 617.608 -0.465468L396.63 -10.2563C401.823 -5.44723 410.11 -0.937101 424.239 3.08103C440.993 7.84281 457.022 5.60084 473.381 3.31257C474.384 3.17231 475.388 3.03187 476.394 2.89283C493.777 0.489632 511.573 -1.47741 530.82 5.48069L530.822 5.48155C557.118 15.1367 587.7 13.5454 609.523 3.77953Z" fill="url(#paint0_linear_3940_76311)"/>
</g>
<defs>
<linearGradient id="paint0_linear_3940_76311" x1="206.5" y1="-2.99999" x2="206.497" y2="118.5" gradientUnits="userSpaceOnUse">
<stop stop-color="#6CF9D8"/>
<stop offset="1" stop-color="#474851" stop-opacity="0"/>
</linearGradient>
<clipPath id="clip0_3940_76311">
<path d="M0 0H364V179H0V0Z" fill="white"/>
</clipPath>
</defs>
</svg>
