<svg width="458" height="98" viewBox="0 0 458 98" fill="none" xmlns="http://www.w3.org/2000/svg">
<g clip-path="url(#clip0_7564_39234)">
<path fill-rule="evenodd" clip-rule="evenodd" d="M368.944 403.03C294.144 426.606 214.213 448.788 109.745 419.336C57.4838 404.603 33.8434 381.912 22.8897 354.6C17.4221 340.967 15.1289 326.216 13.9833 310.794C13.3235 301.912 13.0431 292.769 12.7584 283.485L12.7584 283.482L12.7584 283.48L12.7584 283.478L12.7584 283.476L12.7584 283.473L12.7584 283.471L12.7584 283.47L12.7584 283.468L12.7584 283.466L12.7584 283.464L12.7584 283.463L12.7584 283.461L12.7584 283.46C12.5498 276.663 12.3389 269.79 11.9745 262.887C10.2481 230.142 5.07179 196.354 -19.5384 164.814C-44.1549 133.267 -88.2702 103.899 -168.029 80.142C-247.955 56.3347 -298.194 11.8301 -324.186 -41.648C-350.173 -95.1158 -351.895 -157.497 -334.9 -217.022C-300.918 -336.052 -192.039 -443.835 -52.2629 -446.29C17.4767 -447.515 64.9538 -452.906 101.305 -462.846C137.64 -472.782 162.876 -487.269 188.13 -506.721C201.566 -517.071 215.014 -528.834 230.142 -542.067C271.893 -578.587 326.441 -626.301 428.871 -686.401C568.566 -768.366 756.022 -752.396 893.908 -685.929C962.856 -652.693 1019.46 -606.807 1051.52 -554.161C1083.59 -501.496 1091.08 -442.068 1061.77 -381.85C1032.56 -321.817 1017.98 -280.279 1014.34 -246.578C1010.7 -212.908 1017.97 -187.028 1032.55 -158.291C1040.54 -142.549 1050.72 -125.944 1062.51 -106.736L1062.51 -106.735C1093.76 -55.7979 1136.24 13.4403 1178.68 133.414C1205.71 209.806 1200.98 269.135 1174.06 313.689C1147.14 358.229 1098.11 387.897 1036.75 405.114C914.046 439.544 741.783 424.251 597.399 378.16C517.864 355.782 451.256 376.919 380.926 399.237C376.945 400.5 372.952 401.767 368.944 403.03ZM380.679 398.266C450.965 375.96 517.843 354.735 597.678 377.2L597.686 377.202L597.695 377.205C741.968 423.262 914.024 438.511 1036.48 404.151C1097.71 386.972 1146.47 357.412 1173.2 313.172C1199.93 268.948 1204.7 209.95 1177.74 133.748C1135.33 13.884 1092.95 -55.1918 1061.71 -106.121C1049.9 -125.364 1039.68 -142.016 1031.66 -157.839C1017.01 -186.697 1009.68 -212.773 1013.34 -246.685C1017 -280.565 1031.65 -322.232 1060.87 -382.288C1090.01 -442.16 1082.58 -501.228 1050.67 -553.641C1018.74 -606.074 962.308 -651.848 893.473 -685.029C755.793 -751.396 568.704 -767.287 429.377 -685.538C327.037 -625.491 272.599 -577.874 230.855 -541.36C215.706 -528.108 202.228 -516.319 188.74 -505.929C163.404 -486.413 138.052 -471.858 101.568 -461.881C65.0997 -451.909 17.5266 -446.516 -52.2453 -445.29C-191.492 -442.844 -300.051 -335.446 -333.939 -216.748C-350.88 -157.409 -349.145 -95.2887 -323.287 -42.0851C-297.433 11.1081 -247.438 55.4453 -167.743 79.1837C-87.8803 102.972 -43.544 132.424 -18.75 164.199C6.05019 195.982 11.2431 230.021 12.9732 262.834C13.3386 269.768 13.5488 276.63 13.7562 283.403L13.7562 283.407L13.7581 283.462L13.7581 283.468L13.7584 283.474L13.7588 283.48L13.7592 283.487L13.7595 283.494C14.0427 292.75 14.3209 301.84 14.9806 310.72C16.1229 326.098 18.4055 340.733 23.8178 354.228C34.6235 381.171 57.9584 403.697 110.016 418.374C214.187 447.741 293.878 425.641 368.644 402.077C372.668 400.808 376.679 399.535 380.679 398.266ZM125.896 390.205C225.024 418.161 300.87 397.105 371.843 374.728C375.645 373.529 379.433 372.326 383.21 371.127C449.941 349.944 513.132 329.884 588.588 351.122C725.585 394.871 889.036 409.387 1005.47 376.706C1063.69 360.363 1110.22 332.2 1135.76 289.917C1161.31 247.619 1165.8 191.297 1140.15 118.784C1099.88 4.90551 1059.57 -60.8174 1029.92 -109.166C1018.74 -127.396 1009.07 -143.157 1001.5 -158.097C987.663 -185.37 980.765 -209.93 984.218 -241.881C987.674 -273.865 1001.5 -313.289 1029.23 -370.27C1057.04 -427.435 1049.92 -483.852 1019.49 -533.846C989.076 -583.822 935.362 -627.378 869.939 -658.926C739.106 -722.017 561.236 -737.177 428.681 -659.372C331.491 -602.326 279.733 -557.035 240.119 -522.371L240.117 -522.37L240.116 -522.369L240.11 -522.364L240.108 -522.362L240.108 -522.362C225.759 -509.806 213.004 -498.645 200.26 -488.825C176.301 -470.363 152.359 -456.614 117.888 -447.184C83.4005 -437.75 38.356 -432.633 -27.8132 -431.47C-160.448 -429.14 -263.763 -326.826 -296.008 -213.838C-312.134 -157.334 -310.501 -98.117 -285.841 -47.3604C-261.176 3.40664 -213.502 45.6533 -137.66 68.2523C-61.9872 90.8012 -20.1355 118.674 3.21645 148.612C26.5622 178.542 31.473 210.606 33.1111 241.685C33.4567 248.237 33.6569 254.761 33.8549 261.213L33.8549 261.214L33.8549 261.216L33.8549 261.217L33.8549 261.218L33.8549 261.22L33.8549 261.221L33.8549 261.222L33.8549 261.224L33.8549 261.225L33.8549 261.226L33.8549 261.228L33.8549 261.229L33.8549 261.231L33.8549 261.233C34.125 270.047 34.3911 278.726 35.0171 287.157C36.1041 301.796 38.2803 315.801 43.4692 328.744C53.8661 354.677 76.3042 376.219 125.896 390.205ZM588.868 350.162C513.112 328.836 449.65 348.984 382.962 370.157C379.167 371.362 375.361 372.57 371.542 373.774C300.604 396.14 224.999 417.115 126.167 389.242C76.7791 375.314 54.6464 353.936 44.3975 328.372C39.2637 315.567 37.0982 301.679 36.0144 287.083C35.3886 278.655 35.1246 270.029 34.856 261.245C34.6585 254.787 34.4583 248.245 34.1098 241.633C32.4682 210.485 27.5405 178.171 4.0049 147.997C-19.5245 117.831 -61.597 89.8739 -137.375 67.2939C-212.984 44.764 -260.415 2.6848 -284.941 -47.7973C-309.473 -98.2898 -311.119 -157.246 -295.046 -213.564C-262.895 -326.22 -159.902 -428.149 -27.7956 -430.471C38.4058 -431.634 83.5463 -436.753 118.151 -446.219C152.772 -455.69 176.829 -469.507 200.87 -488.032C213.664 -497.891 226.446 -509.076 240.813 -521.647L240.813 -521.647L240.815 -521.649L240.819 -521.652L240.826 -521.659L240.832 -521.664L240.832 -521.664C280.44 -556.322 332.088 -601.517 429.187 -658.51C561.374 -736.098 738.877 -721.017 869.505 -658.026C934.813 -626.533 988.352 -583.088 1018.64 -533.326C1048.92 -483.584 1055.97 -427.527 1028.33 -370.707C1000.59 -313.703 986.699 -274.151 983.223 -241.989C979.745 -209.795 986.71 -185.039 1000.6 -157.645C1008.22 -142.625 1017.92 -126.817 1029.12 -108.551C1058.77 -60.2114 1098.97 5.34902 1139.21 119.117C1164.79 191.441 1160.26 247.432 1134.9 289.4C1109.54 331.383 1063.28 359.438 1005.2 375.743C889.015 408.355 725.77 393.882 588.885 350.167L588.876 350.164L588.868 350.162ZM374.629 347.512C307.342 368.738 235.43 388.712 141.443 362.193C94.4226 348.925 73.1422 328.489 63.2817 303.882C58.3608 291.602 56.2975 278.315 55.2669 264.429C54.6735 256.442 54.4213 248.218 54.1652 239.869L54.1652 239.867L54.1652 239.865L54.1652 239.863L54.1652 239.861L54.1652 239.859L54.1652 239.858L54.1652 239.856L54.1652 239.854L54.1652 239.852L54.1652 239.851L54.1652 239.849L54.1652 239.847L54.1652 239.845L54.1648 239.835C53.9772 233.709 53.7874 227.516 53.4599 221.298C51.907 191.82 47.2516 161.414 25.1236 133.031C2.9894 104.641 -36.6825 78.2055 -108.422 56.8186C-180.33 35.3815 -225.533 -4.69413 -248.92 -52.8543C-272.303 -101.004 -273.851 -157.178 -258.561 -210.778C-227.988 -317.955 -130.033 -415.011 -4.27411 -417.222C58.457 -418.325 101.159 -423.178 133.851 -432.126C166.528 -441.069 189.223 -454.108 211.935 -471.618C224.019 -480.934 236.114 -491.522 249.721 -503.435C287.277 -536.314 336.35 -579.275 428.493 -633.385C554.171 -707.189 722.811 -692.807 846.854 -632.963C908.881 -603.038 959.809 -561.721 988.651 -514.314C1017.5 -466.888 1024.25 -413.366 997.877 -359.136C971.597 -305.09 958.486 -267.699 955.21 -237.367C951.937 -207.067 958.476 -183.777 971.588 -157.912C978.771 -143.743 987.933 -128.795 998.532 -111.504C1026.64 -65.645 1064.86 -3.30229 1103.04 104.715C1127.36 173.499 1123.11 226.929 1098.88 267.058C1074.66 307.171 1030.54 333.887 975.337 349.389C864.948 380.389 709.983 366.619 580.1 325.122C508.571 304.98 448.669 324.005 385.404 344.098C381.824 345.235 378.233 346.375 374.629 347.512ZM385.156 343.127C448.378 323.046 508.55 303.933 580.379 324.162L580.388 324.164L580.396 324.167C710.168 365.63 864.926 379.357 975.067 348.426C1030.13 332.962 1073.98 306.354 1098.02 266.541C1122.05 226.742 1126.35 173.643 1102.1 105.048C1063.95 -2.85893 1025.84 -65.0393 997.732 -110.89C987.111 -128.216 977.919 -143.211 970.696 -157.459C957.522 -183.446 950.917 -206.932 954.216 -237.475C957.511 -267.985 970.686 -305.504 996.978 -359.573C1023.18 -413.459 1016.5 -466.619 987.796 -513.794C959.085 -560.988 908.332 -602.193 846.419 -632.062C722.582 -691.808 554.31 -706.11 429 -632.523C336.947 -578.466 287.985 -535.601 250.435 -502.728L250.434 -502.727C236.806 -490.796 224.681 -480.182 212.546 -470.826C189.752 -453.253 166.941 -440.145 134.115 -431.161C101.305 -422.181 58.5068 -417.326 -4.25653 -416.222C-129.486 -414.021 -227.121 -317.351 -257.6 -210.503C-272.836 -157.09 -271.275 -101.177 -248.021 -53.2911C-224.772 -5.41572 -179.812 34.4923 -108.136 55.8603C-36.2922 77.2784 3.60049 103.798 25.9123 132.416C48.2301 161.043 52.9021 191.7 54.4585 221.245C54.789 227.518 54.9788 233.724 55.166 239.849C55.4207 248.18 55.6708 256.361 56.2642 264.355C57.2915 278.197 59.3442 291.367 64.21 303.51C73.9227 327.748 94.8977 348.02 141.715 361.23C235.405 387.666 307.076 367.773 374.328 346.559C377.948 345.417 381.555 344.271 385.153 343.128L385.156 343.127ZM154.606 338.664C244.242 363.976 312.825 344.911 376.993 324.653C380.397 323.578 383.789 322.5 387.17 321.426L387.238 321.404L387.267 321.395C447.6 302.218 504.719 284.063 572.924 303.284C696.787 342.89 844.572 356.033 949.849 326.444C1002.49 311.648 1044.57 286.148 1067.67 247.857C1090.78 209.551 1094.84 158.55 1071.65 92.8986C1035.23 -10.1953 998.789 -69.6987 971.981 -113.467L971.98 -113.468C961.874 -129.969 953.137 -144.234 946.288 -157.754C933.785 -182.437 927.551 -204.661 930.672 -233.574C933.795 -262.519 946.297 -298.201 971.358 -349.782C996.509 -401.547 990.078 -452.636 962.559 -497.905C935.052 -543.155 886.48 -582.591 827.326 -611.152C709.031 -668.27 548.201 -681.997 428.341 -611.554C340.468 -559.911 293.668 -518.906 257.853 -487.526C244.877 -476.158 233.344 -466.052 221.821 -457.162C200.164 -440.452 178.524 -428.01 147.366 -419.475C116.192 -410.936 75.472 -406.305 15.6503 -405.252C-104.29 -403.142 -197.711 -310.503 -226.869 -208.205C-241.451 -157.046 -239.975 -103.428 -217.674 -57.4677C-195.368 -11.4974 -152.254 26.7545 -83.6751 47.2157C-15.2644 67.6266 22.563 92.8542 43.6669 119.945C64.7647 147.028 69.2039 176.042 70.6846 204.173C70.997 210.094 71.1779 215.992 71.3568 221.825L71.3568 221.828L71.3568 221.83L71.3568 221.832L71.3568 221.835L71.3568 221.837L71.3568 221.839L71.3568 221.842L71.3568 221.844L71.3568 221.847L71.3568 221.85L71.3568 221.852L71.3568 221.855L71.3568 221.858L71.3568 221.861L71.3568 221.864L71.3572 221.872L71.3576 221.879L71.3579 221.886L71.3583 221.894L71.3587 221.902C71.6024 229.869 71.8425 237.717 72.408 245.338C73.3909 258.592 75.3588 271.276 80.0527 282.999C89.4594 306.492 109.76 326 154.606 338.664ZM573.203 302.324C504.698 283.015 447.309 301.258 387.019 320.424C383.587 321.515 380.146 322.609 376.692 323.699C312.559 343.946 244.216 362.93 154.877 337.702C110.236 325.096 90.2401 305.752 80.9811 282.627C76.3422 271.041 74.3849 258.475 73.4052 245.264C72.8394 237.635 72.6008 229.828 72.358 221.877C72.1795 216.032 71.9984 210.109 71.6832 204.121C70.199 175.922 65.7432 146.657 44.4558 119.33C23.1745 92.0118 -14.8738 66.6996 -83.3893 46.2575C-151.736 25.8656 -194.606 -12.2186 -216.774 -57.9043C-238.947 -103.6 -240.436 -156.958 -225.907 -207.931C-196.844 -309.899 -103.743 -402.151 15.6679 -404.252C75.5218 -405.305 116.338 -409.94 147.63 -418.511C178.937 -427.086 200.693 -439.597 222.432 -456.37C234.007 -465.301 245.57 -475.432 258.567 -486.82C294.375 -518.194 341.065 -559.102 428.848 -610.692C548.339 -680.919 708.801 -667.27 826.892 -610.252C885.931 -581.745 934.327 -542.423 961.704 -497.386C989.071 -452.368 995.442 -401.64 970.459 -350.219C945.386 -298.615 932.82 -262.805 929.677 -233.681C926.531 -204.526 932.831 -182.107 945.396 -157.302C952.285 -143.701 961.051 -129.39 971.18 -112.852C997.983 -69.0932 1034.33 -9.75215 1070.71 93.2317C1093.83 158.694 1089.73 209.365 1066.82 247.341C1043.9 285.331 1002.09 310.723 949.578 325.481C844.551 355 696.972 341.9 573.22 302.329L573.212 302.326L573.203 302.324ZM379.889 296.347C319.549 315.406 255.05 333.346 170.754 309.529C128.578 297.613 109.48 279.254 100.63 257.139C96.2145 246.106 94.3637 234.169 93.4392 221.698C92.907 214.516 92.6806 207.12 92.4508 199.61C92.2826 194.11 92.1124 188.549 91.8187 182.968C90.4265 156.502 86.2527 129.212 66.4193 103.739C46.58 78.2574 11.0163 54.5248 -53.3094 35.3223C-117.804 16.0695 -158.352 -19.9246 -179.331 -63.1838C-200.305 -106.433 -201.692 -156.886 -187.979 -205.025C-160.559 -301.28 -72.7025 -388.45 40.0975 -390.436C96.3488 -391.427 134.636 -395.784 163.946 -403.817C193.241 -411.845 213.587 -423.55 233.949 -439.269C244.782 -447.632 255.627 -457.139 267.827 -467.834C301.505 -497.358 345.516 -535.94 428.149 -584.53C540.868 -650.812 692.112 -637.894 803.356 -584.153C858.983 -557.279 904.662 -520.174 930.532 -477.594C956.413 -434.995 962.462 -386.918 938.807 -338.205C915.241 -289.676 903.488 -256.109 900.551 -228.881C897.618 -201.686 903.478 -180.782 915.233 -157.564C921.671 -144.845 929.886 -131.426 939.389 -115.903L939.39 -115.901C964.598 -74.7218 998.872 -18.7337 1033.12 78.2646C1054.92 140.038 1051.11 188.032 1029.37 224.081C1007.65 260.116 968.069 284.111 918.563 298.032C819.56 325.872 680.587 313.506 564.111 276.242C499.985 258.161 446.283 275.239 389.549 293.282C386.339 294.302 383.12 295.326 379.889 296.347ZM389.301 292.311C445.992 274.28 499.964 257.113 564.391 275.282L564.399 275.284L564.407 275.287C680.772 312.516 819.538 324.84 918.292 297.069C967.665 283.185 1006.97 259.299 1028.52 223.565C1050.06 187.845 1053.91 140.182 1032.17 78.5975C997.968 -18.2908 963.793 -74.1167 938.589 -115.287C929.064 -130.847 920.82 -144.313 914.34 -157.112C902.524 -180.452 896.598 -201.551 899.557 -228.989C902.513 -256.394 914.331 -290.09 937.908 -338.642C961.396 -387.011 955.406 -434.727 929.677 -477.075C903.937 -519.441 858.434 -556.434 802.921 -583.252C691.883 -636.895 541.006 -649.733 428.656 -583.668C346.114 -535.131 302.213 -496.646 268.542 -467.128C256.32 -456.414 245.445 -446.881 234.56 -438.478C214.115 -422.695 193.654 -410.922 164.211 -402.852C134.782 -394.787 96.3986 -390.427 40.115 -389.436C-72.1547 -387.46 -159.691 -300.676 -187.017 -204.751C-200.678 -156.799 -199.277 -106.605 -178.431 -63.6202C-157.59 -20.6456 -117.285 15.1806 -53.0233 34.364C11.4071 53.5978 47.1916 77.4152 67.2084 103.124C87.2312 128.841 91.4215 156.382 92.8174 182.915C93.1123 188.524 93.282 194.071 93.4494 199.546L93.4494 199.55L93.4512 199.605L93.4512 199.611L93.4516 199.617L93.4519 199.624C93.6803 207.103 93.9046 214.446 94.4365 221.624C95.3577 234.052 97.1979 245.872 101.558 256.768C110.261 278.514 129.054 296.708 171.026 308.567C255.025 332.3 319.283 314.442 379.588 295.393C382.825 294.371 386.051 293.345 389.268 292.321L389.284 292.316L389.301 292.311ZM183.902 285.998C263.848 308.608 325.018 291.577 382.239 273.485C385.292 272.52 388.334 271.551 391.367 270.586L391.382 270.581L391.398 270.576C445.2 253.449 496.118 237.241 556.921 254.401C667.377 289.773 799.17 301.513 893.06 275.085C940.011 261.869 977.548 239.09 998.158 204.878C1018.78 170.651 1022.39 125.086 1001.71 66.4458C969.234 -25.6292 936.73 -78.778 912.825 -117.866C903.813 -132.601 896.024 -145.338 889.919 -157.409C878.773 -179.445 873.218 -199.282 875.999 -225.091C878.783 -250.931 889.927 -282.79 912.275 -328.854C934.711 -375.102 928.973 -420.746 904.426 -461.188C879.89 -501.61 836.569 -536.835 783.814 -562.345C678.317 -613.36 534.883 -625.623 427.982 -562.702C349.62 -516.578 307.882 -479.953 275.944 -451.929C264.375 -441.777 254.093 -432.754 243.821 -424.816C224.513 -409.897 205.223 -398.789 177.447 -391.169C149.655 -383.545 113.35 -379.409 60.0076 -378.469C-46.9741 -376.584 -130.296 -293.83 -156.301 -202.455C-169.306 -156.757 -167.991 -108.859 -148.098 -67.7999C-128.2 -26.7304 -89.7424 7.44004 -28.5768 25.7169C32.4202 43.9433 66.1394 66.4685 84.9485 90.6499C103.752 114.824 107.709 140.722 109.029 165.841C109.308 171.137 109.469 176.415 109.629 181.636L109.629 181.649L109.629 181.652C109.847 188.775 110.062 195.793 110.566 202.605C111.443 214.444 113.198 225.777 117.387 236.254C125.783 257.254 143.901 274.686 183.902 285.998ZM557.201 253.441C496.097 236.193 444.908 252.49 391.15 269.605C388.088 270.58 385.018 271.558 381.938 272.532C324.751 290.612 263.822 307.562 184.174 285.036C144.378 273.781 126.564 256.515 118.315 235.883C114.182 225.543 112.437 214.327 111.563 202.531C111.059 195.722 110.847 188.758 110.63 181.663L110.63 181.65C110.471 176.429 110.309 171.139 110.028 165.789C108.704 140.602 104.73 114.453 85.7378 90.0359C66.7515 65.6266 32.8116 43.0165 -28.2905 24.7588C-89.2237 6.55136 -127.438 -27.451 -147.198 -68.2359C-166.963 -109.031 -168.292 -156.669 -155.339 -202.181C-129.428 -293.227 -46.4256 -375.593 60.0253 -377.469C113.4 -378.41 149.801 -382.548 177.711 -390.205C205.636 -397.865 225.043 -409.042 244.432 -424.025C254.756 -432.003 265.068 -441.052 276.659 -451.222L276.659 -451.222L276.659 -451.223C308.59 -479.241 350.218 -515.769 428.49 -561.84C535.022 -624.545 678.087 -612.36 783.379 -561.445C836.019 -535.99 879.165 -500.878 903.571 -460.669C927.965 -420.479 933.644 -375.194 911.375 -329.291C889.017 -283.204 877.808 -251.216 875.005 -225.198C872.197 -199.148 877.819 -179.116 889.026 -156.957C895.172 -144.807 902.99 -132.023 912.024 -117.252C935.924 -78.1732 968.329 -25.1867 1000.76 66.7784C1021.38 125.23 1017.72 170.465 997.301 204.362C976.873 238.274 939.606 260.944 892.789 274.122C799.149 300.48 667.563 288.784 557.217 253.446L557.209 253.444L557.201 253.441ZM384.924 247.357C331.247 264.343 273.859 280.335 198.857 259.106C161.329 248.483 144.323 232.112 136.443 212.385C132.512 202.544 130.865 191.901 130.043 180.785C129.569 174.384 129.368 167.79 129.163 161.096C129.014 156.194 128.862 151.239 128.601 146.268C127.363 122.686 123.651 98.3796 106.019 75.6914C88.3804 52.9956 56.7572 31.8505 -0.457246 14.7395C-57.8404 -2.42196 -93.9229 -34.5083 -112.592 -73.0751C-131.257 -111.632 -132.49 -156.608 -120.289 -199.518C-95.892 -285.316 -17.723 -363.021 82.6472 -364.792C132.683 -365.674 166.736 -369.557 192.802 -376.714C218.853 -383.866 236.944 -394.293 255.053 -408.298C264.686 -415.749 274.331 -424.219 285.182 -433.749L285.184 -433.75C315.142 -460.062 354.298 -494.45 427.808 -537.755C528.097 -596.836 662.655 -585.319 761.623 -537.421C811.112 -513.469 851.755 -480.395 874.774 -442.438C897.805 -404.461 903.189 -361.597 882.138 -318.167C861.176 -274.92 850.724 -245.013 848.113 -220.758C845.505 -196.535 850.714 -177.917 861.167 -157.231C866.892 -145.901 874.198 -133.944 882.651 -120.112L882.651 -120.111C905.075 -83.4129 935.568 -33.5091 966.031 52.9386C985.434 107.999 982.046 150.788 962.699 182.932C943.361 215.061 908.14 236.451 864.095 248.86C776.014 273.674 652.38 262.651 548.764 229.441C491.738 213.332 443.983 228.547 393.513 244.627C390.66 245.536 387.797 246.448 384.924 247.357ZM393.265 243.656C443.691 227.588 491.717 212.284 549.044 228.481L549.053 228.483L549.061 228.486C652.566 261.662 775.992 272.641 863.824 247.897C907.735 235.526 942.684 214.245 961.842 182.416C980.991 150.602 984.424 108.143 965.088 53.271C934.664 -33.0673 904.269 -82.809 881.85 -119.498L881.849 -119.499C873.375 -133.367 866.04 -145.37 860.274 -156.78C849.76 -177.587 844.484 -196.401 847.118 -220.865C849.749 -245.298 860.265 -275.334 881.238 -318.603C902.122 -361.689 896.797 -404.194 873.919 -441.919C851.029 -479.663 810.562 -512.624 761.187 -536.521C662.425 -584.32 528.235 -595.757 428.315 -536.893C354.896 -493.641 315.85 -459.35 285.898 -433.045C275.025 -423.495 265.351 -414.998 255.665 -407.507C237.474 -393.439 219.267 -382.943 193.067 -375.75C166.882 -368.56 132.733 -364.675 82.6649 -363.792C-17.174 -362.031 -95.0238 -284.713 -119.327 -199.245C-131.475 -156.521 -130.229 -111.804 -111.692 -73.5108C-93.1606 -35.2284 -57.3213 -3.31045 -0.170625 13.7814C57.1488 30.9238 88.9928 52.154 106.808 75.0778C124.63 98.0093 128.358 122.567 129.6 146.216C129.864 151.241 130.015 156.208 130.164 161.109L130.165 161.121L130.165 161.125C130.368 167.783 130.567 174.319 131.04 180.711C131.859 191.784 133.496 202.311 137.372 212.014C145.105 231.373 161.806 247.579 199.13 258.144C273.834 279.289 330.98 263.379 384.622 246.404C387.512 245.489 390.393 244.571 393.265 243.656ZM213.216 233.335C283.471 253.242 337.228 238.245 387.502 222.319C390.192 221.467 392.871 220.613 395.543 219.761L395.544 219.761L395.545 219.76L395.546 219.76C442.817 204.683 487.534 190.421 540.935 205.521C637.984 236.659 753.785 246.996 836.289 223.728C877.546 212.093 910.542 192.035 928.659 161.901C946.786 131.753 949.958 91.6253 931.783 39.9955C903.25 -41.0605 874.688 -87.8546 853.685 -122.262L853.684 -122.265C845.769 -135.232 838.928 -146.44 833.566 -157.06C823.778 -176.451 818.901 -193.901 821.343 -216.605C823.788 -239.34 833.575 -267.377 853.208 -307.924C872.93 -348.654 867.885 -388.854 846.31 -424.467C824.746 -460.062 786.675 -491.075 740.32 -513.534C647.621 -558.447 521.583 -569.247 427.641 -513.846C358.789 -473.242 322.113 -440.997 294.054 -416.328L294.053 -416.328C283.891 -407.393 274.858 -399.452 265.837 -392.468C248.879 -379.339 231.938 -369.565 207.544 -362.86C183.135 -356.151 151.245 -352.51 104.382 -351.683C10.3593 -350.023 -62.8632 -277.155 -85.7158 -196.702C-97.1451 -156.465 -95.9902 -114.287 -78.5055 -78.1295C-61.0157 -41.961 -27.2135 -11.8719 26.5388 4.22062C80.1219 20.2626 109.733 40.0853 126.247 61.3573C142.756 82.6218 146.232 105.404 147.391 127.512C147.636 132.17 147.778 136.815 147.918 141.411C148.109 147.688 148.298 153.873 148.742 159.874C149.512 170.298 151.055 180.281 154.738 189.511C162.123 208.019 178.06 223.373 213.216 233.335ZM541.215 204.561C487.514 189.373 442.525 203.724 395.297 218.789C392.606 219.648 389.908 220.508 387.2 221.366C336.961 237.281 283.446 252.196 213.488 232.373C178.537 222.469 162.905 207.28 155.667 189.141C152.038 180.048 150.506 170.181 149.739 159.801C149.296 153.814 149.109 147.694 148.919 141.458L148.919 141.457L148.919 141.456L148.919 141.455L148.919 141.454L148.919 141.453L148.919 141.452L148.919 141.45L148.919 141.449L148.919 141.448L148.919 141.446L148.919 141.445L148.919 141.443L148.919 141.441L148.919 141.439L148.919 141.437L148.919 141.436L148.919 141.426L148.919 141.416L148.918 141.407L148.918 141.398L148.918 141.389L148.917 141.381L148.917 141.373L148.916 141.365L148.916 141.358L148.916 141.35L148.915 141.344L148.915 141.337L148.915 141.332C148.776 136.767 148.636 132.14 148.39 127.459C147.227 105.284 143.734 82.2518 127.037 60.7441C110.346 39.2439 80.5139 19.3361 26.8256 3.26264C-26.6937 -12.7602 -60.2529 -42.6806 -77.6052 -78.5648C-94.9626 -114.46 -96.1303 -156.378 -84.7537 -196.429C-61.9946 -276.553 10.909 -349.032 104.4 -350.683C151.295 -351.511 183.282 -355.154 207.81 -361.896C232.353 -368.642 249.409 -378.484 266.449 -391.677C275.523 -398.702 284.585 -406.669 294.769 -415.623C322.822 -440.286 359.388 -472.434 428.149 -512.985C521.722 -568.168 647.391 -557.447 739.884 -512.635C786.124 -490.231 824.02 -459.331 845.454 -423.949C866.877 -388.586 871.863 -348.746 852.308 -308.36C832.664 -267.79 822.813 -239.625 820.349 -216.712C817.881 -193.767 822.824 -176.122 832.674 -156.61C838.075 -145.909 844.946 -134.654 852.884 -121.65C873.881 -87.2505 902.346 -40.6185 930.84 40.3275C948.948 91.7689 945.731 131.567 927.802 161.386C909.865 191.219 877.141 211.168 836.018 222.766C753.764 245.963 638.17 235.67 541.232 204.566L541.224 204.564L541.215 204.561ZM390.079 197.28C343.207 212.147 293.081 226.148 227.572 207.563C194.789 198.262 179.921 183.925 173.031 166.637C169.595 158.016 168.157 148.694 167.438 138.963C167.025 133.361 166.849 127.586 166.67 121.726C166.539 117.436 166.407 113.1 166.179 108.754C165.098 88.1199 161.858 66.8629 146.474 47.022C131.083 27.1736 103.484 8.67351 53.5325 -6.29946C3.41129 -21.3231 -28.1106 -49.4149 -44.4209 -83.185C-60.726 -116.945 -61.8022 -156.323 -51.145 -193.888C-29.8366 -268.995 38.4393 -337.026 126.115 -338.576C169.804 -339.348 199.532 -342.746 222.285 -349.007C245.022 -355.264 260.812 -364.385 276.619 -376.638C285.026 -383.155 293.445 -390.565 302.917 -398.903L302.919 -398.905L302.922 -398.907C329.082 -421.935 363.279 -452.036 427.472 -489.939C515.067 -541.659 632.585 -531.575 719.015 -489.649C762.236 -468.683 797.735 -439.731 817.843 -406.499C837.963 -373.247 842.668 -335.712 824.276 -297.682C805.973 -259.835 796.85 -233.669 794.571 -212.453C792.296 -191.269 796.84 -174.986 805.964 -156.891C810.961 -146.98 817.339 -136.519 824.718 -124.415C844.298 -92.2969 870.93 -48.6125 897.533 27.0512C914.479 75.2502 911.523 112.718 894.618 140.869C877.721 169.007 846.95 187.734 808.481 198.596C731.554 220.317 623.586 210.667 533.103 181.601C483.329 167.509 441.648 180.818 397.576 194.892C395.085 195.687 392.587 196.485 390.079 197.28ZM397.327 193.921C441.355 179.859 483.308 166.461 533.384 180.641L533.392 180.643L533.401 180.646C623.772 209.678 731.533 219.284 808.209 197.633C846.544 186.809 877.044 168.192 893.76 140.355C910.468 112.532 913.469 75.3936 896.589 27.3829C870.026 -48.1706 843.492 -91.6929 823.916 -123.802L823.916 -123.802C816.515 -135.942 810.108 -146.45 805.071 -156.44C795.886 -174.658 791.275 -191.134 793.577 -212.56C795.875 -233.954 805.061 -260.248 823.376 -298.117C841.601 -335.804 836.955 -372.98 816.987 -405.981C797.008 -439 761.684 -467.839 718.578 -488.749C632.354 -530.575 515.206 -540.58 427.981 -489.078C363.878 -451.229 329.791 -421.224 303.638 -398.203L303.638 -398.203C294.142 -389.844 285.693 -382.406 277.232 -375.848C261.343 -363.531 245.437 -354.341 222.55 -348.043C199.679 -341.749 169.854 -338.349 126.133 -337.576C38.9898 -336.035 -28.9676 -268.394 -50.1829 -193.615C-60.7876 -156.236 -59.6984 -117.116 -43.5203 -83.62C-27.3474 -50.134 3.93167 -22.2111 53.8196 -7.25734C103.877 7.74721 131.697 26.3326 147.264 46.4092C162.837 66.4933 166.094 88.0005 167.178 108.702C167.409 113.103 167.541 117.451 167.671 121.74L167.672 121.749C167.849 127.576 168.022 133.294 168.436 138.889C169.151 148.577 170.579 157.783 173.96 166.267C180.703 183.186 195.267 197.358 227.845 206.601C293.056 225.101 342.939 211.182 389.776 196.327C392.301 195.526 394.817 194.723 397.327 193.921ZM392.382 172.241C348.889 186.048 302.369 199.053 241.572 181.791C211.146 173.151 197.339 159.83 190.941 143.762C187.751 135.751 186.416 127.089 185.749 118.051C185.366 112.852 185.202 107.492 185.037 102.053L185.036 102.04L185.036 102.033C184.915 98.051 184.792 94.0274 184.581 89.9949C183.578 70.8346 180.572 51.1022 166.304 32.6848C152.029 14.2599 126.429 -2.91792 80.0827 -16.822C33.5672 -30.777 4.3096 -56.8718 -10.8294 -88.244C-25.9633 -119.606 -26.9615 -156.185 -17.0709 -191.078C2.70427 -260.841 66.068 -324.035 147.441 -325.475C187.978 -326.192 215.559 -329.348 236.667 -335.161C257.759 -340.971 272.407 -349.439 287.071 -360.815C294.87 -366.866 302.68 -373.747 311.469 -381.49L311.473 -381.494L311.474 -381.494C335.747 -402.879 367.482 -430.838 427.05 -466.04C508.341 -514.08 617.399 -504.712 697.604 -465.772C737.712 -446.299 770.658 -419.407 789.321 -388.537C807.995 -357.648 812.363 -322.776 795.291 -287.446C778.308 -252.299 769.846 -228.003 767.732 -208.306C765.621 -188.641 769.836 -173.526 778.299 -156.725C782.934 -147.524 788.851 -137.811 795.697 -126.573L795.698 -126.571C813.866 -96.7428 838.582 -56.1676 863.267 14.1046C878.994 58.8734 876.253 93.6807 860.559 119.837C844.874 145.979 816.312 163.374 780.613 173.463C709.224 193.638 609.034 184.674 525.072 157.679C478.897 144.596 440.232 156.953 399.337 170.023C397.026 170.762 394.709 171.502 392.382 172.241ZM399.088 169.053C439.939 155.994 478.877 143.548 525.353 156.72L525.361 156.722L525.37 156.725C609.22 183.685 709.203 192.605 780.341 172.501C815.906 162.45 844.197 145.164 859.702 119.322C875.198 93.4951 877.984 59.0167 862.324 14.4361C837.677 -55.7265 813.059 -96.1397 794.895 -125.959L794.895 -125.959L794.893 -125.962C788.026 -137.236 782.081 -146.995 777.406 -156.275C768.881 -173.198 764.601 -188.506 766.738 -208.413C768.871 -228.287 777.397 -252.711 794.391 -287.881C811.296 -322.868 806.987 -357.381 788.465 -388.019C769.931 -418.677 737.16 -445.455 697.167 -464.872C617.168 -503.712 508.48 -513 427.559 -465.179C368.081 -430.03 336.456 -402.169 312.19 -380.789C303.378 -373.026 295.536 -366.118 287.684 -360.025C272.937 -348.585 258.174 -340.048 236.933 -334.197C215.706 -328.351 188.028 -325.193 147.459 -324.475C66.6192 -323.045 3.57353 -260.241 -16.1087 -190.805C-25.9469 -156.098 -24.9358 -119.777 -9.9288 -88.6786C5.07315 -57.5905 34.0879 -31.6648 80.37 -17.7799C126.822 -3.8441 152.643 13.4192 167.094 32.0723C181.551 50.7329 184.573 70.7154 185.58 89.9426C185.794 94.0269 185.916 98.0606 186.037 102.039L186.037 102.042L186.037 102.054L186.038 102.06L186.038 102.061C186.202 107.472 186.363 112.781 186.746 117.977C187.41 126.973 188.735 135.518 191.87 143.392C198.122 159.092 211.625 172.247 241.846 180.829C302.343 198.007 348.621 185.083 392.08 171.288C394.423 170.544 396.758 169.797 399.088 169.053ZM395.195 148.551C354.603 161.09 311.342 172.972 255.296 157.058C226.625 148.916 213.4 136.55 207.119 121.691C203.988 114.283 202.596 106.287 201.848 97.9511C201.398 92.94 201.18 87.7736 200.958 82.5329L200.958 82.531L200.958 82.5276L200.957 82.5247L200.957 82.522L200.957 82.5199L200.956 82.4903C200.81 79.0496 200.663 75.5772 200.448 72.0958C199.358 54.4461 196.517 36.2782 183.376 19.2788C170.23 2.27254 146.72 -13.6323 104.143 -26.6106L104.28 -27.0597L104.143 -26.6108C61.2984 -39.7146 34.2159 -64.0261 20.1209 -93.1961C6.0308 -122.356 4.94438 -156.318 13.9852 -188.693C32.0613 -253.422 90.6778 -311.971 167.191 -313.28C205.075 -313.932 230.843 -316.899 250.54 -322.341C270.222 -327.78 283.863 -335.694 297.487 -346.275C304.635 -351.825 311.784 -358.116 319.799 -365.169L319.8 -365.17C342.36 -385.023 371.785 -410.915 427.357 -443.339C502.823 -487.369 603.634 -478.727 677.823 -442.721C714.923 -424.715 745.417 -399.842 762.767 -371.227C780.128 -342.594 784.321 -310.216 768.797 -277.299L768.795 -277.297C753.357 -245.053 745.657 -222.639 743.74 -204.368C741.825 -186.127 745.671 -171.982 753.414 -156.257C757.755 -147.44 763.33 -138.119 769.797 -127.305C786.409 -99.5288 808.912 -61.9018 831.545 2.33133C846.01 43.4269 843.45 75.5306 828.939 99.7578C814.437 123.97 788.06 140.213 755.101 149.73C689.192 168.759 596.709 160.966 519.132 135.891C475.893 123.482 439.534 134.778 401.155 146.702L401.139 146.707C399.163 147.321 397.182 147.937 395.195 148.551ZM400.917 145.729C439.251 133.817 475.879 122.434 519.415 134.932L519.423 134.934L519.431 134.936C596.892 159.976 689.165 167.726 754.823 148.769C787.648 139.292 813.758 123.159 828.081 99.244C842.396 75.3437 844.999 43.5682 830.601 2.66349C808.005 -61.4665 785.599 -98.9283 768.994 -126.693L768.993 -126.694C762.504 -137.544 756.9 -146.914 752.517 -155.815C744.715 -171.66 740.806 -185.996 742.745 -204.473C744.681 -222.919 752.443 -245.459 767.893 -277.727C783.256 -310.302 779.122 -342.325 761.912 -370.709C744.691 -399.111 714.371 -423.871 677.386 -441.821C603.404 -477.727 502.96 -486.291 427.861 -442.475C372.382 -410.106 343.067 -384.31 320.513 -364.463C312.477 -357.391 305.298 -351.074 298.101 -345.485C284.394 -334.841 270.638 -326.857 250.806 -321.378C230.99 -315.902 205.126 -312.932 167.208 -312.28C91.2253 -310.98 32.931 -252.819 14.9483 -188.424C5.95976 -156.236 7.05668 -122.531 21.0213 -93.6312C34.981 -64.7414 61.8244 -40.5995 104.435 -27.567C147.118 -14.5565 170.846 1.43438 184.167 18.6672C197.494 35.9069 200.352 54.3215 201.446 72.0341C201.665 75.5745 201.813 79.0754 201.959 82.5323C202.179 87.748 202.396 92.8633 202.844 97.8617C203.588 106.151 204.966 114.031 208.04 121.302C214.169 135.801 227.094 148.01 255.569 156.096C311.318 171.926 354.339 160.125 394.9 147.595C396.846 146.994 398.787 146.391 400.723 145.789L400.85 145.75L400.917 145.729ZM269.004 132.323C320.3 146.89 360.302 136.131 397.993 124.859C399.641 124.366 401.284 123.872 402.924 123.379L402.946 123.373C438.81 112.597 472.87 102.363 513.177 114.1C584.369 137.257 669.145 143.878 729.575 125.994C759.794 117.051 783.987 101.96 797.305 79.677C810.632 57.3788 813.011 27.9789 799.808 -9.44375L799.807 -9.44409C779.236 -67.616 758.947 -102.274 743.895 -127.986L743.895 -127.987C737.799 -138.399 732.563 -147.344 728.514 -155.79C721.492 -170.439 718.014 -183.616 719.733 -200.433C721.454 -217.278 728.392 -237.809 742.285 -267.15L742.288 -267.156C756.265 -297.659 752.247 -327.543 736.199 -353.919C720.163 -380.278 692.12 -403.132 658.028 -419.672C589.855 -452.745 497.29 -460.66 427.651 -420.64C376.08 -391.004 348.969 -367.178 328.122 -348.857L328.12 -348.856L328.118 -348.854L328.117 -348.853C320.873 -342.487 314.385 -336.785 307.89 -331.736C295.304 -321.951 282.671 -314.59 264.399 -309.524C246.112 -304.452 222.158 -301.673 186.927 -301.086C115.273 -299.908 61.404 -246.006 45.0268 -186.309C36.8357 -156.452 38.0107 -125.108 51.0569 -98.15C64.1079 -71.1825 89.015 -48.6542 128.188 -36.4013L128.189 -36.401C166.998 -24.3486 188.416 -9.71681 200.434 5.87102C212.448 21.4527 215.124 38.0563 216.301 54.1959C216.517 57.1477 216.682 60.0915 216.846 63.0119L216.847 63.0308C217.13 68.0675 217.409 73.0342 217.933 77.8513C218.762 85.4847 220.21 92.815 223.284 99.6202C229.447 113.269 242.09 124.68 269.004 132.323ZM513.464 113.142C472.864 101.317 438.539 111.632 402.721 122.396L402.712 122.399C401.047 122.899 399.378 123.401 397.706 123.901C360.042 135.165 320.279 145.844 269.278 131.361C242.549 123.771 230.201 112.509 224.195 99.2086C221.183 92.5396 219.751 85.3267 218.927 77.7433C218.406 72.9472 218.13 68.0317 217.848 63.0172C217.684 60.085 217.517 57.119 217.298 54.1231C216.117 37.9255 213.423 21.079 201.226 5.26043C189.034 -10.552 167.401 -25.2706 128.486 -37.356C89.5464 -49.536 64.8744 -71.8939 51.9571 -98.5857C39.0348 -125.287 37.852 -156.376 45.9911 -186.044C62.2742 -245.398 115.817 -298.917 186.943 -300.087C222.209 -300.674 246.259 -303.456 264.666 -308.56C283.088 -313.668 295.837 -321.098 308.504 -330.946C315.048 -336.034 321.566 -341.762 328.832 -348.147C349.673 -366.463 376.675 -390.193 428.149 -419.773C497.425 -459.584 589.626 -451.744 657.591 -418.772C691.568 -402.289 719.437 -379.547 735.345 -353.399C751.242 -327.27 755.201 -297.738 741.381 -267.576C727.475 -238.209 720.477 -217.553 718.738 -200.535C716.996 -183.488 720.533 -170.124 727.612 -155.358C731.705 -146.821 736.971 -137.826 743.089 -127.377L743.09 -127.373L743.091 -127.373C758.135 -101.677 778.327 -67.1885 798.865 -9.11105C812 28.1176 809.579 57.1905 796.446 79.164C783.304 101.152 759.376 116.132 729.291 125.036C669.113 142.845 584.548 136.265 513.479 113.146L513.471 113.144L513.464 113.142ZM400.784 101.166C365.996 111.171 329.252 120.806 282.708 107.588C257.55 100.443 245.49 89.9877 239.443 77.5504C234.426 67.2297 233.581 55.5801 232.707 43.5355L232.707 43.5272C232.533 41.1301 232.358 38.7174 232.148 36.2964C230.884 21.6665 228.373 6.62676 217.486 -7.53748C206.595 -21.7071 187.269 -35.0659 152.229 -46.1923L152.227 -46.1928C116.725 -57.5948 93.9939 -78.3398 81.9871 -103.105C69.9849 -127.86 68.7215 -156.586 76.0625 -183.925C90.7408 -238.59 139.864 -287.846 206.656 -288.894C239.235 -289.415 261.375 -292.006 278.252 -296.706C295.113 -301.402 306.74 -308.208 318.287 -317.197C324.135 -321.75 329.968 -326.868 336.45 -332.557C355.584 -349.347 380.377 -371.104 427.939 -397.943C491.753 -433.952 576.07 -426.763 638.227 -396.623C669.311 -381.55 694.902 -360.715 709.626 -336.612C724.36 -312.492 728.204 -285.102 715.774 -257.013L715.77 -257.004C703.421 -230.566 697.246 -211.917 695.721 -196.498C694.198 -181.105 697.307 -168.896 703.609 -155.323C707.384 -147.193 712.287 -138.606 718.021 -128.562C721.891 -121.783 726.141 -114.339 730.678 -105.925C741.921 -85.0753 754.877 -58.3526 768.065 -21.2201L768.065 -21.2196C780.007 12.5306 777.809 39.2266 765.665 59.5955C753.531 79.949 731.523 93.8878 704.044 102.258C649.094 118.997 572.024 113.547 507.216 92.3085C469.836 81.2398 438.067 90.4081 404.715 100.033C403.407 100.411 402.097 100.789 400.784 101.166ZM404.505 99.053C437.81 89.4398 469.838 80.1951 507.507 91.3517L507.514 91.3537L507.521 91.3559C572.199 112.553 649.054 117.963 703.752 101.302C731.097 92.9722 752.845 79.1458 764.806 59.0834C776.758 39.0365 778.995 12.6662 767.122 -20.886C753.955 -57.9622 741.021 -84.6378 729.798 -105.45C725.293 -113.805 721.055 -121.229 717.186 -128.007L717.185 -128.008L717.183 -128.012L717.182 -128.013C711.428 -138.093 706.49 -146.744 702.702 -154.901C696.347 -168.59 693.181 -180.98 694.726 -196.597C696.268 -212.187 702.501 -230.958 714.862 -257.423C727.14 -285.174 723.356 -312.216 708.772 -336.091C694.177 -359.984 668.759 -380.707 637.791 -395.723C575.843 -425.762 491.884 -432.878 428.431 -397.072C380.97 -370.29 356.285 -348.629 337.156 -331.843C330.655 -326.138 324.795 -320.996 318.901 -316.408C307.273 -307.356 295.531 -300.48 278.52 -295.743C261.523 -291.01 239.286 -288.416 206.672 -287.894C140.402 -286.855 91.6117 -237.977 77.0282 -183.666C69.7384 -156.517 71.0069 -128.044 82.887 -103.541C94.7626 -79.0466 117.264 -58.4724 152.532 -47.1452C187.678 -35.9848 207.217 -22.5386 218.279 -8.14689C229.345 6.25021 231.875 21.5282 233.145 36.2102C233.357 38.6679 233.535 41.106 233.71 43.5189C234.586 55.5617 235.417 66.9816 240.343 77.1132C246.226 89.2145 257.998 99.5305 282.981 106.626C329.234 119.761 365.74 110.204 400.507 100.205C401.82 99.8279 403.13 99.4497 404.438 99.0721L404.505 99.053ZM296.424 82.8499C338.217 94.7191 371.702 86.2081 403.588 77.4711C404.552 77.2069 405.515 76.9424 406.476 76.6784C437.32 68.2075 466.809 60.1085 501.269 70.5137C559.692 89.8338 629.057 94.1117 678.527 78.5188C703.267 70.7209 723.088 57.934 734.039 39.5106C744.999 21.0714 747.017 -2.92069 736.336 -32.9987L736.336 -32.9995C724.419 -66.3784 712.811 -90.5788 702.78 -109.574C698.999 -116.735 695.448 -123.145 692.191 -129.024L692.189 -129.028L692.184 -129.038L692.176 -129.052L692.175 -129.053L692.175 -129.054C687.793 -136.964 683.944 -143.912 680.783 -150.432L671.697 -192.299C671.705 -192.388 671.713 -192.478 671.722 -192.567C673.051 -206.561 678.465 -223.327 689.268 -246.862L689.271 -246.869L689.274 -246.876C700.156 -272.55 696.486 -297.445 683.065 -319.308C669.655 -341.155 646.516 -359.971 618.44 -373.578C562.298 -400.785 486.228 -407.247 428.242 -375.248C384.699 -351.221 362.228 -331.535 344.807 -316.273L344.806 -316.273C339.08 -311.257 333.9 -306.719 328.697 -302.662C318.189 -294.469 307.569 -288.216 292.118 -283.892C276.652 -279.563 256.325 -277.161 226.4 -276.705C164.468 -275.788 120.091 -231.178 107.112 -181.544C100.621 -156.722 101.973 -130.615 112.931 -108.062C123.893 -85.5008 144.449 -66.5391 176.279 -55.9878L176.282 -55.987C207.552 -45.7867 224.788 -33.7011 234.552 -20.9494C244.313 -8.20206 246.657 5.27423 248.01 18.3952C248.205 20.2937 248.38 22.1869 248.554 24.0704C249.579 35.1663 250.572 45.927 255.619 55.4794C261.548 66.7038 273.024 76.2027 296.424 82.8499ZM691.333 -128.51C687.719 -135.032 684.459 -140.919 681.647 -146.448L702.103 -52.1884C692.353 -78.3649 683.001 -98.0174 674.873 -113.816C671.85 -119.692 669.001 -125.026 666.366 -129.961L666.364 -129.964L666.36 -129.971C661.299 -139.448 657.024 -147.452 653.818 -154.984C648.956 -166.407 646.583 -176.681 647.714 -189.23C648.824 -201.543 653.311 -216.079 662.199 -236.064L671.03 -195.372C672.782 -208.977 678.222 -225.194 688.356 -247.273C699.093 -272.612 695.484 -297.165 682.213 -318.785C668.931 -340.424 645.963 -359.128 618.004 -372.678C562.073 -399.783 486.356 -406.175 428.725 -374.373C385.288 -350.403 362.925 -330.813 345.508 -315.556L345.505 -315.553L345.502 -315.551L345.501 -315.55L345.498 -315.548L345.498 -315.547L345.491 -315.541C339.754 -310.516 334.553 -305.96 329.312 -301.873C318.724 -293.618 307.989 -287.296 292.388 -282.929C276.801 -278.567 256.376 -276.162 226.415 -275.705C165 -274.795 120.963 -230.56 108.079 -181.291C101.639 -156.662 102.992 -130.805 113.831 -108.499C124.664 -86.2023 144.995 -67.4121 176.592 -56.9378C207.97 -46.7023 225.414 -34.5281 235.346 -21.5573C245.281 -8.58216 247.647 5.1268 249.004 18.2926C249.202 20.2071 249.378 22.108 249.552 23.9925L249.554 24.012C250.582 35.1175 251.558 45.6513 256.503 55.0123C262.263 65.9167 273.46 75.2869 296.698 81.888C338.203 93.6755 371.451 85.24 403.323 76.5066C404.311 76.2359 405.298 75.9649 406.283 75.6943C437.078 67.2354 466.821 59.0656 501.564 69.5583L501.577 69.5621C559.863 88.8382 629.008 93.0786 678.226 77.5651C702.832 69.8095 722.399 57.1363 733.179 38.9997C743.95 20.8791 746.003 -2.78879 735.393 -32.6641C723.496 -65.9894 711.909 -90.1455 701.896 -109.108C698.136 -116.228 694.591 -122.628 691.333 -128.51ZM661.844 -237.702L662.199 -236.064C662.383 -236.478 662.57 -236.895 662.758 -237.314L662.762 -237.323L662.765 -237.332C672.098 -260.592 668.602 -282.991 656.496 -302.598C644.399 -322.188 623.711 -338.986 598.643 -351.125C548.517 -375.399 480.695 -381.134 428.537 -353.148C389.025 -331.948 368.881 -314.335 353.172 -300.6C348.193 -296.247 343.66 -292.284 339.098 -288.719C329.629 -281.323 320.016 -275.624 305.975 -271.671C291.919 -267.713 273.406 -265.499 246.134 -265.108C189.064 -264.322 149.432 -224.359 138.152 -179.756C132.511 -157.451 133.952 -133.962 143.866 -113.613C153.783 -93.2554 172.162 -76.0771 200.321 -66.3762L200.324 -66.3752C227.826 -57.101 242.971 -46.2886 251.608 -34.9545C260.243 -23.6234 262.422 -11.71 263.862 -0.0970192C264.032 1.27832 264.193 2.65063 264.352 4.01797L264.354 4.035C265.537 14.1736 266.688 24.0369 271.787 32.818C277.599 42.8275 288.489 51.3697 310.132 57.5186C347.173 68.039 377.399 60.6523 406.381 53.1829C406.987 53.0266 407.593 52.8702 408.199 52.714C436.538 45.402 463.762 38.3776 495.312 48.1257C547.353 65.528 609.012 68.6338 653.002 54.1858C675.001 46.9604 692.637 35.3255 702.403 18.8326C712.179 2.32339 714.018 -18.9645 704.597 -45.371L704.597 -45.3721C703.763 -47.6924 702.932 -49.964 702.103 -52.1884L703.655 -45.035C693.027 -74.6097 682.788 -96.2467 673.984 -113.359C670.983 -119.192 668.144 -124.507 665.512 -129.436C660.433 -138.947 656.122 -147.018 652.898 -154.592C647.99 -166.124 645.568 -176.566 646.718 -189.32C647.866 -202.051 652.57 -217.053 661.841 -237.714L661.837 -237.705L661.844 -237.702ZM661.844 -237.702L662.301 -237.519L661.845 -237.723L661.841 -237.714L661.844 -237.702ZM200.646 -67.3218C228.254 -58.0114 243.603 -47.1097 252.404 -35.5606C261.207 -24.008 263.41 -11.8687 264.854 -0.220066C265.027 1.16934 265.188 2.55053 265.349 3.92236L265.349 3.92547C266.537 14.0864 267.664 23.7274 272.651 32.3158C278.289 42.0251 288.912 50.4502 310.405 56.5566C347.163 66.9967 377.155 59.6827 406.131 52.2145C406.763 52.0516 407.395 51.8886 408.027 51.7256C436.316 44.4257 463.787 37.3368 495.612 47.172L495.623 47.1755C547.516 64.5296 608.952 67.601 652.69 53.2357C674.555 46.0543 691.943 34.5344 701.543 18.3231C711.132 2.12823 713.001 -18.8373 703.655 -45.035L676.406 -46.2423C680.171 -28.9677 677.772 -14.4312 670.773 -2.55341C662.191 12.0082 646.743 22.4912 627.483 29.1443C588.973 42.4479 535.018 40.5148 489.359 25.0298C460.707 15.9296 435.726 21.8719 409.886 28.0186L409.177 28.1872C383.1 34.3889 356.132 40.6509 323.844 31.4794C303.96 25.8291 293.657 18.2442 287.962 9.4519C282.777 1.44604 281.458 -7.50879 280.108 -16.6795L280.108 -16.68L280.103 -16.7122C279.977 -17.5712 279.85 -18.432 279.72 -19.2941C278.192 -29.4005 276.179 -39.752 268.669 -49.6677C264.665 -54.9551 259.084 -60.135 251.149 -65.0842L200.646 -67.3218ZM200.646 -67.3218L200.643 -67.3227L200.484 -66.8489L200.646 -67.3218ZM253.149 -64.9955C260.401 -60.2741 265.632 -55.3349 269.466 -50.2714C277.138 -40.1425 279.177 -29.5735 280.708 -19.4435C280.839 -18.5757 280.967 -17.7116 281.094 -16.8516C282.452 -7.64456 283.741 1.09442 288.802 8.90829C294.317 17.425 304.368 24.9054 324.117 30.5174C356.129 39.6104 382.863 33.4173 408.945 27.2144L409.739 27.0256C435.527 20.8909 460.747 14.8915 489.666 24.0782L489.675 24.0812C535.174 39.5127 588.898 41.4157 627.157 28.1991C646.283 21.5921 661.492 11.2255 669.911 -3.06113C676.796 -14.7448 679.173 -29.1058 675.372 -46.2882L645.571 -47.6085C645.465 -38.7712 643.187 -30.8923 639.138 -23.9793C631.742 -11.35 618.482 -2.01881 601.963 4.0624C568.933 16.222 522.682 15.4628 483.401 1.89402C457.796 -6.51668 435.156 -1.78536 411.967 3.15229L411.523 3.24677C388.493 8.15122 364.912 13.173 337.552 5.40061C319.428 0.249207 309.714 -6.37793 304.139 -13.9498C298.818 -21.1763 297.317 -29.2076 295.786 -37.3983C295.716 -37.774 295.645 -38.15 295.575 -38.5263C294.015 -46.826 292.242 -55.3011 286.383 -63.5231L253.149 -64.9955ZM310.286 -62.464L287.642 -63.4673C293.285 -55.2499 295.036 -46.8087 296.557 -38.711C296.624 -38.3543 296.691 -37.9984 296.757 -37.6433C298.299 -29.4041 299.762 -21.5804 304.944 -14.5427C310.339 -7.21555 319.819 -0.679169 337.826 4.43866C364.946 12.143 388.317 7.16611 411.385 2.25379L411.759 2.17423C434.929 -2.75948 457.823 -7.56182 483.717 0.945141L483.724 0.947582C522.826 14.4556 568.838 15.1912 601.618 3.12395C618.004 -2.90849 631.035 -12.1216 638.275 -24.4847C642.232 -31.2409 644.472 -38.9602 644.572 -47.6528L609.434 -49.2096C608.857 -47.9289 608.214 -46.6797 607.507 -45.4622C601.298 -34.7666 590.227 -26.5873 576.449 -21.0776C548.9 -10.061 510.35 -9.64461 477.445 -21.2988C455.148 -28.937 435.04 -25.6087 414.756 -21.9387C414.195 -21.8372 413.634 -21.7354 413.072 -21.6335C393.358 -18.0584 373.413 -14.4413 351.264 -20.7347C334.899 -25.387 325.778 -31.0557 320.324 -37.4033C314.871 -43.7501 313.138 -50.721 311.435 -57.8082L311.353 -58.15C311.008 -59.5836 310.663 -61.0224 310.286 -62.464ZM312.311 -58.4417L312.313 -58.434L312.313 -58.4333L312.407 -58.0419C314.113 -50.943 315.805 -44.1973 321.083 -38.055C326.359 -31.9134 335.272 -26.3205 351.537 -21.6966C373.46 -15.4676 393.201 -19.0471 412.956 -22.6289L413.739 -22.7708L414.578 -22.9228C434.855 -26.5914 455.201 -29.9767 477.772 -22.2439L477.777 -22.2422C510.479 -10.6593 548.777 -11.0891 576.078 -22.0062C589.726 -27.4636 600.581 -35.5233 606.642 -45.9643C607.265 -47.0363 607.837 -48.134 608.357 -49.2574L560.361 -51.3839C557.45 -49.5037 554.291 -47.807 550.931 -46.3038C528.864 -36.429 498.013 -34.833 471.478 -44.5754C452.485 -51.4417 434.909 -49.5152 417.53 -47.1127C416.517 -46.9726 415.504 -46.8308 414.491 -46.689L414.474 -46.6867C398.155 -44.4027 381.929 -42.1317 364.965 -46.9532C350.362 -51.106 341.837 -55.8157 336.509 -60.9346C336.376 -61.0627 336.244 -61.191 336.115 -61.3196L311.332 -62.4176C311.677 -61.0831 311.995 -59.7567 312.311 -58.4417ZM550.523 -47.2166C553.38 -48.4952 556.085 -49.9126 558.608 -51.4616L337.629 -61.2525C342.822 -56.4434 351.109 -51.9332 365.238 -47.9151C381.992 -43.1533 398.021 -45.3953 414.381 -47.6835C415.383 -47.8238 416.388 -47.9642 417.393 -48.1033C434.777 -50.5065 452.573 -52.4735 471.819 -45.5154L471.822 -45.5145C498.118 -35.8594 528.699 -37.4507 550.523 -47.2166Z" fill="url(#paint0_linear_7564_39234)" fill-opacity="0.15"/>
</g>
<defs>
<linearGradient id="paint0_linear_7564_39234" x1="255.5" y1="-3.99998" x2="255.5" y2="54" gradientUnits="userSpaceOnUse">
<stop stop-color="#FF8391"/>
<stop offset="1" stop-color="#2D2E33"/>
</linearGradient>
<clipPath id="clip0_7564_39234">
<rect width="458" height="98" fill="white"/>
</clipPath>
</defs>
</svg>
