<svg width="562" height="200" viewBox="0 0 562 200" fill="none" xmlns="http://www.w3.org/2000/svg">
<g clip-path="url(#clip0_7564_38861)">
<path fill-rule="evenodd" clip-rule="evenodd" d="M396.944 411.03C322.144 434.606 242.213 456.788 137.745 427.336C85.4838 412.603 61.8434 389.912 50.8897 362.6C45.4221 348.967 43.1289 334.216 41.9833 318.794C41.3235 309.912 41.0431 300.769 40.7584 291.485L40.7584 291.482L40.7584 291.48L40.7584 291.478L40.7584 291.476L40.7584 291.473L40.7584 291.471L40.7584 291.47L40.7584 291.468L40.7584 291.466L40.7584 291.464L40.7584 291.463L40.7584 291.461L40.7584 291.46C40.5498 284.663 40.3389 277.79 39.9745 270.887C38.2481 238.142 33.0718 204.354 8.46157 172.814C-16.1549 141.267 -60.2702 111.899 -140.029 88.142C-219.955 64.3347 -270.194 19.8301 -296.186 -33.648C-322.173 -87.1158 -323.895 -149.497 -306.9 -209.022C-272.918 -328.052 -164.039 -435.835 -24.2629 -438.29C45.4767 -439.515 92.9538 -444.906 129.305 -454.846C165.64 -464.782 190.876 -479.269 216.13 -498.721C229.566 -509.071 243.014 -520.834 258.142 -534.067C299.893 -570.587 354.441 -618.301 456.871 -678.401C596.566 -760.366 784.022 -744.396 921.908 -677.929C990.856 -644.693 1047.46 -598.807 1079.52 -546.161C1111.59 -493.496 1119.08 -434.068 1089.77 -373.85C1060.56 -313.817 1045.98 -272.279 1042.34 -238.578C1038.7 -204.908 1045.97 -179.028 1060.55 -150.291C1068.54 -134.549 1078.72 -117.944 1090.51 -98.7363L1090.51 -98.7354C1121.76 -47.7979 1164.24 21.4403 1206.68 141.414C1233.71 217.806 1228.98 277.135 1202.06 321.689C1175.14 366.229 1126.11 395.897 1064.75 413.114C942.046 447.544 769.783 432.251 625.399 386.16C545.864 363.782 479.256 384.919 408.926 407.237C404.945 408.5 400.952 409.767 396.944 411.03ZM408.679 406.266C478.965 383.96 545.843 362.735 625.678 385.2L625.686 385.202L625.695 385.205C769.968 431.262 942.024 446.511 1064.48 412.151C1125.71 394.972 1174.47 365.412 1201.2 321.172C1227.93 276.948 1232.7 217.95 1205.74 141.748C1163.33 21.884 1120.95 -47.1918 1089.71 -98.1206C1077.9 -117.364 1067.68 -134.016 1059.66 -149.839C1045.01 -178.697 1037.68 -204.773 1041.34 -238.685C1045 -272.565 1059.65 -314.232 1088.87 -374.288C1118.01 -434.16 1110.58 -493.228 1078.67 -545.641C1046.74 -598.074 990.308 -643.848 921.473 -677.029C783.793 -743.396 596.704 -759.287 457.377 -677.538C355.037 -617.491 300.599 -569.874 258.855 -533.36C243.706 -520.108 230.228 -508.319 216.74 -497.929C191.404 -478.413 166.052 -463.858 129.568 -453.881C93.0997 -443.909 45.5266 -438.516 -24.2453 -437.29C-163.492 -434.844 -272.051 -327.446 -305.939 -208.748C-322.88 -149.409 -321.145 -87.2887 -295.287 -34.0851C-269.433 19.1081 -219.438 63.4453 -139.743 87.1837C-59.8803 110.972 -15.544 140.424 9.25002 172.199C34.0502 203.982 39.2431 238.021 40.9732 270.834C41.3386 277.768 41.5488 284.63 41.7562 291.403L41.7562 291.407L41.7581 291.462L41.7581 291.468L41.7584 291.474L41.7588 291.48L41.7592 291.487L41.7595 291.494C42.0427 300.75 42.3209 309.84 42.9806 318.72C44.1229 334.098 46.4055 348.733 51.8178 362.228C62.6235 389.171 85.9584 411.697 138.016 426.374C242.187 455.741 321.878 433.641 396.644 410.077C400.668 408.808 404.679 407.535 408.679 406.266ZM153.896 398.205C253.024 426.161 328.87 405.105 399.843 382.728C403.645 381.529 407.433 380.326 411.21 379.127C477.941 357.944 541.132 337.884 616.588 359.122C753.585 402.871 917.036 417.387 1033.47 384.706C1091.69 368.363 1138.22 340.2 1163.76 297.917C1189.31 255.619 1193.8 199.297 1168.15 126.784C1127.88 12.9055 1087.57 -52.8174 1057.92 -101.166L1057.92 -101.167C1046.74 -119.397 1037.07 -135.157 1029.5 -150.097C1015.66 -177.37 1008.77 -201.93 1012.22 -233.881C1015.67 -265.865 1029.5 -305.289 1057.23 -362.27C1085.04 -419.435 1077.92 -475.852 1047.49 -525.846C1017.08 -575.822 963.362 -619.378 897.939 -650.926C767.106 -714.017 589.236 -729.177 456.681 -651.372C359.491 -594.326 307.733 -549.035 268.119 -514.371L268.117 -514.37L268.116 -514.369L268.11 -514.364L268.108 -514.362L268.108 -514.362C253.759 -501.806 241.004 -490.645 228.26 -480.825C204.301 -462.363 180.359 -448.614 145.888 -439.184C111.4 -429.75 66.356 -424.633 0.186828 -423.47C-132.448 -421.14 -235.763 -318.826 -268.008 -205.838C-284.134 -149.334 -282.501 -90.117 -257.841 -39.3604C-233.176 11.4066 -185.502 53.6533 -109.66 76.2523C-33.9872 98.8012 7.86452 126.674 31.2165 156.612C54.5622 186.542 59.473 218.606 61.1111 249.685C61.4567 256.237 61.6569 262.761 61.8549 269.213L61.8549 269.214L61.8549 269.216L61.8549 269.217L61.8549 269.218L61.8549 269.22L61.8549 269.221L61.8549 269.222L61.8549 269.224L61.8549 269.225L61.8549 269.226L61.8549 269.228L61.8549 269.229L61.8549 269.231L61.8549 269.233C62.125 278.047 62.3911 286.726 63.0171 295.157C64.1041 309.796 66.2803 323.801 71.4692 336.744C81.8661 362.677 104.304 384.219 153.896 398.205ZM616.868 358.162C541.112 336.836 477.65 356.984 410.962 378.157C407.167 379.362 403.361 380.57 399.542 381.774C328.604 404.14 252.999 425.115 154.167 397.242C104.779 383.314 82.6464 361.936 72.3975 336.372C67.2637 323.567 65.0982 309.679 64.0144 295.083C63.3886 286.655 63.1246 278.029 62.856 269.245C62.6585 262.787 62.4583 256.245 62.1098 249.633C60.4682 218.485 55.5405 186.171 32.0049 155.997C8.47549 125.831 -33.597 97.8739 -109.375 75.2939C-184.984 52.764 -232.415 10.6848 -256.941 -39.7973C-281.473 -90.2898 -283.119 -149.246 -267.046 -205.564C-234.895 -318.22 -131.902 -420.149 0.204406 -422.471C66.4058 -423.634 111.546 -428.753 146.151 -438.219C180.772 -447.69 204.829 -461.507 228.87 -480.032C241.664 -489.891 254.446 -501.076 268.813 -513.647L268.813 -513.647L268.815 -513.649L268.819 -513.652L268.826 -513.659L268.832 -513.664L268.832 -513.664C308.44 -548.322 360.088 -593.517 457.187 -650.51C589.374 -728.098 766.877 -713.017 897.505 -650.026C962.813 -618.533 1016.35 -575.088 1046.64 -525.326C1076.92 -475.584 1083.97 -419.527 1056.33 -362.707C1028.59 -305.703 1014.7 -266.151 1011.22 -233.989C1007.74 -201.795 1014.71 -177.039 1028.6 -149.645C1036.22 -134.625 1045.92 -118.818 1057.12 -100.552L1057.12 -100.551C1086.77 -52.2114 1126.97 13.349 1167.21 127.117C1192.79 199.441 1188.26 255.432 1162.9 297.4C1137.54 339.383 1091.28 367.438 1033.2 383.743C917.015 416.355 753.77 401.882 616.885 358.167L616.876 358.164L616.868 358.162ZM402.629 355.512C335.342 376.738 263.43 396.712 169.443 370.193C122.423 356.925 101.142 336.489 91.2817 311.882C86.3608 299.602 84.2975 286.315 83.2669 272.429C82.6735 264.442 82.4213 256.218 82.1652 247.869L82.1652 247.867L82.1652 247.865L82.1652 247.863L82.1652 247.861L82.1652 247.859L82.1652 247.858L82.1652 247.856L82.1652 247.854L82.1652 247.852L82.1652 247.851L82.1652 247.849L82.1652 247.847L82.1652 247.845L82.1648 247.835C81.9772 241.709 81.7874 235.516 81.4599 229.298C79.907 199.82 75.2516 169.414 53.1236 141.031C30.9894 112.641 -8.68247 86.2055 -80.422 64.8186C-152.33 43.3815 -197.533 3.30587 -220.92 -44.8543C-244.303 -93.0041 -245.851 -149.178 -230.561 -202.778C-199.988 -309.955 -102.033 -407.011 23.7259 -409.222C86.457 -410.325 129.159 -415.178 161.851 -424.126C194.528 -433.069 217.223 -446.108 239.935 -463.618C252.019 -472.934 264.114 -483.522 277.721 -495.435C315.277 -528.314 364.35 -571.275 456.493 -625.385C582.171 -699.189 750.811 -684.807 874.854 -624.963C936.881 -595.038 987.809 -553.721 1016.65 -506.314C1045.5 -458.888 1052.25 -405.366 1025.88 -351.136C999.597 -297.09 986.486 -259.699 983.21 -229.367C979.937 -199.067 986.476 -175.777 999.588 -149.912C1006.77 -135.743 1015.93 -120.795 1026.53 -103.504C1054.64 -57.645 1092.86 4.69771 1131.04 112.715C1155.36 181.499 1151.11 234.929 1126.88 275.058C1102.66 315.171 1058.54 341.887 1003.34 357.389C892.948 388.389 737.983 374.619 608.1 333.122C536.571 312.98 476.669 332.005 413.404 352.098C409.824 353.235 406.233 354.375 402.629 355.512ZM413.156 351.127C476.378 331.046 536.55 311.933 608.379 332.162L608.388 332.164L608.396 332.167C738.168 373.63 892.926 387.357 1003.07 356.426C1058.13 340.962 1101.98 314.354 1126.02 274.541C1150.05 234.742 1154.35 181.643 1130.1 113.048C1091.95 5.14107 1053.84 -57.0393 1025.73 -102.89C1015.11 -120.216 1005.92 -135.211 998.696 -149.459C985.522 -175.446 978.917 -198.932 982.216 -229.475C985.511 -259.985 998.686 -297.504 1024.98 -351.573C1051.18 -405.459 1044.5 -458.619 1015.8 -505.794C987.085 -552.988 936.332 -594.193 874.419 -624.062C750.582 -683.808 582.31 -698.11 457 -624.523C364.947 -570.466 315.985 -527.601 278.435 -494.728L278.434 -494.727C264.806 -482.796 252.681 -472.182 240.546 -462.826C217.752 -445.253 194.941 -432.145 162.115 -423.161C129.305 -414.181 86.5068 -409.326 23.7435 -408.222C-101.486 -406.021 -199.121 -309.351 -229.6 -202.503C-244.836 -149.09 -243.275 -93.1769 -220.021 -45.2911C-196.772 2.58428 -151.812 42.4923 -80.1362 63.8603C-8.29221 85.2784 31.6005 111.798 53.9123 140.416C76.2301 169.043 80.9021 199.7 82.4585 229.245C82.789 235.518 82.9788 241.724 83.166 247.849C83.4207 256.18 83.6708 264.361 84.2642 272.355C85.2915 286.197 87.3442 299.367 92.21 311.51C101.923 335.748 122.898 356.02 169.715 369.23C263.405 395.666 335.076 375.773 402.328 354.559C405.948 353.417 409.555 352.271 413.153 351.128L413.156 351.127ZM182.606 346.664C272.242 371.976 340.825 352.911 404.993 332.653C408.43 331.568 411.854 330.48 415.267 329.395C475.6 310.218 532.719 292.063 600.924 311.284C724.787 350.89 872.572 364.033 977.849 334.444C1030.49 319.648 1072.57 294.148 1095.67 255.857C1118.78 217.551 1122.84 166.55 1099.65 100.899C1063.23 -2.19529 1026.79 -61.6987 999.981 -105.467L999.98 -105.468C989.874 -121.969 981.137 -136.234 974.288 -149.754C961.785 -174.437 955.551 -196.661 958.672 -225.574C961.795 -254.519 974.297 -290.201 999.358 -341.782C1024.51 -393.547 1018.08 -444.636 990.559 -489.905C963.052 -535.155 914.48 -574.591 855.326 -603.152C737.031 -660.27 576.201 -673.997 456.341 -603.554C368.468 -551.911 321.668 -510.906 285.853 -479.526C272.877 -468.158 261.344 -458.052 249.821 -449.162C228.164 -432.452 206.524 -420.01 175.366 -411.475C144.192 -402.936 103.472 -398.305 43.6503 -397.252C-76.2903 -395.142 -169.711 -302.503 -198.869 -200.205C-213.451 -149.046 -211.975 -95.4277 -189.674 -49.4678C-167.368 -3.49741 -124.254 34.7545 -55.6751 55.2157C12.7356 75.6266 50.563 100.854 71.6669 127.945C92.7647 155.028 97.2039 184.042 98.6846 212.173C98.997 218.094 99.1779 223.992 99.3568 229.826L99.3568 229.828L99.3568 229.83L99.3568 229.832L99.3568 229.834L99.3568 229.836L99.3568 229.839L99.3568 229.841L99.3568 229.844L99.3568 229.846L99.3568 229.849L99.3568 229.852L99.3568 229.855L99.3568 229.858L99.3568 229.861L99.3568 229.864L99.3572 229.871L99.3576 229.879L99.3579 229.886L99.3583 229.893L99.3587 229.901L99.359 229.909L99.3594 229.917C99.6029 237.879 99.8428 245.722 100.408 253.338C101.391 266.592 103.359 279.276 108.053 290.999C117.459 314.492 137.76 334 182.606 346.664ZM601.203 310.324C532.698 291.015 475.309 309.258 415.019 328.424L415.016 328.425C411.585 329.516 408.144 330.61 404.692 331.699C340.559 351.946 272.216 370.93 182.877 345.702C138.236 333.096 118.24 313.752 108.981 290.627C104.342 279.041 102.385 266.475 101.405 253.264C100.839 245.635 100.601 237.828 100.358 229.877C100.179 224.032 99.9984 218.109 99.6832 212.121C98.199 183.922 93.7432 154.657 72.4558 127.33C51.1745 100.012 13.1262 74.6996 -55.3893 54.2574C-123.736 33.8655 -166.606 -4.21863 -188.774 -49.9043C-210.947 -95.6004 -212.436 -148.958 -197.907 -199.931C-168.844 -301.899 -75.743 -394.151 43.6679 -396.252C103.522 -397.305 144.338 -401.94 175.63 -410.511C206.937 -419.086 228.693 -431.597 250.432 -448.37C262.007 -457.301 273.57 -467.432 286.567 -478.82C322.375 -510.194 369.065 -551.102 456.848 -602.692C576.339 -672.919 736.801 -659.27 854.892 -602.252C913.931 -573.745 962.327 -534.423 989.704 -489.386C1017.07 -444.368 1023.44 -393.64 998.459 -342.219C973.386 -290.615 960.82 -254.805 957.677 -225.681C954.531 -196.526 960.831 -174.107 973.396 -149.302C980.285 -135.701 989.051 -121.39 999.18 -104.852C1025.98 -61.0932 1062.33 -1.75215 1098.71 101.232C1121.83 166.694 1117.73 217.365 1094.82 255.341C1071.9 293.331 1030.09 318.723 977.578 333.481C872.551 363 724.972 349.9 601.22 310.329L601.212 310.326L601.203 310.324ZM407.889 304.347C347.549 323.406 283.05 341.346 198.754 317.529C156.578 305.613 137.48 287.254 128.63 265.139C124.214 254.106 122.364 242.169 121.439 229.698C120.907 222.516 120.681 215.12 120.451 207.61C120.283 202.11 120.112 196.549 119.819 190.968C118.427 164.502 114.253 137.212 94.4193 111.739C74.58 86.2574 39.0163 62.5248 -25.3094 43.3223C-89.8036 24.0695 -130.352 -11.9246 -151.331 -55.1838C-172.305 -98.4327 -173.692 -148.886 -159.979 -197.025C-132.559 -293.28 -44.7025 -380.45 68.0975 -382.436C124.349 -383.427 162.636 -387.784 191.946 -395.817C221.241 -403.845 241.587 -415.55 261.949 -431.269C272.782 -439.632 283.627 -449.139 295.827 -459.834C329.505 -489.358 373.516 -527.94 456.149 -576.53C568.868 -642.812 720.112 -629.894 831.356 -576.153C886.983 -549.279 932.662 -512.174 958.532 -469.594C984.413 -426.995 990.462 -378.918 966.807 -330.205C943.241 -281.676 931.488 -248.109 928.551 -220.881C925.618 -193.686 931.478 -172.782 943.233 -149.564C949.671 -136.845 957.886 -123.426 967.389 -107.903L967.39 -107.901C992.598 -66.7218 1026.87 -10.7337 1061.12 86.2646C1082.92 148.038 1079.11 196.032 1057.37 232.081C1035.65 268.116 996.069 292.111 946.563 306.032C847.56 333.872 708.587 321.506 592.111 284.242C527.985 266.161 474.283 283.239 417.549 301.282C414.339 302.302 411.12 303.326 407.889 304.347ZM417.301 300.311C473.992 282.28 527.964 265.113 592.391 283.282L592.399 283.284L592.407 283.287C708.772 320.516 847.538 332.84 946.292 305.069C995.665 291.185 1034.97 267.299 1056.52 231.565C1078.06 195.845 1081.91 148.182 1060.17 86.5975C1025.97 -10.2908 991.793 -66.1167 966.589 -107.287C957.064 -122.847 948.82 -136.313 942.34 -149.112C930.524 -172.452 924.598 -193.551 927.557 -220.989C930.513 -248.394 942.331 -282.09 965.908 -330.642C989.396 -379.011 983.406 -426.727 957.677 -469.075C931.937 -511.441 886.434 -548.434 830.921 -575.252C719.883 -628.895 569.006 -641.733 456.656 -575.668C374.114 -527.131 330.213 -488.646 296.542 -459.128C284.32 -448.414 273.445 -438.881 262.56 -430.478C242.115 -414.695 221.654 -402.922 192.211 -394.852C162.782 -386.787 124.399 -382.427 68.115 -381.436C-44.1547 -379.46 -131.691 -292.676 -159.017 -196.751C-172.678 -148.799 -171.277 -98.6052 -150.431 -55.6202C-129.59 -12.6456 -89.2852 23.1806 -25.0233 42.364C39.4071 61.5978 75.1916 85.4152 95.2084 111.124C115.231 136.841 119.422 164.382 120.817 190.915C121.112 196.524 121.282 202.071 121.449 207.546L121.449 207.55L121.451 207.605L121.451 207.611L121.452 207.617L121.452 207.624C121.68 215.103 121.905 222.446 122.437 229.624C123.358 242.052 125.198 253.872 129.558 264.768C138.261 286.514 157.054 304.708 199.026 316.567C283.025 340.3 347.283 322.442 407.588 303.393C410.825 302.371 414.051 301.345 417.268 300.321L417.284 300.316L417.301 300.311ZM211.902 293.998C291.848 316.608 353.018 299.577 410.239 281.485C413.292 280.52 416.334 279.551 419.367 278.586L419.382 278.581L419.398 278.576C473.2 261.449 524.118 245.241 584.921 262.401C695.377 297.773 827.17 309.513 921.06 283.085C968.011 269.869 1005.55 247.09 1026.16 212.878C1046.78 178.651 1050.39 133.086 1029.71 74.4458C997.234 -17.6292 964.73 -70.778 940.825 -109.866C931.813 -124.601 924.024 -137.338 917.919 -149.409C906.773 -171.445 901.218 -191.282 903.999 -217.091C906.783 -242.931 917.927 -274.79 940.275 -320.854C962.711 -367.102 956.973 -412.746 932.426 -453.188C907.89 -493.61 864.569 -528.835 811.814 -554.345C706.317 -605.36 562.883 -617.623 455.982 -554.702C377.62 -508.578 335.882 -471.953 303.944 -443.929C292.375 -433.777 282.093 -424.754 271.821 -416.816C252.513 -401.897 233.223 -390.789 205.447 -383.169C177.655 -375.545 141.35 -371.409 88.0076 -370.469C-18.9741 -368.584 -102.296 -285.83 -128.301 -194.455C-141.306 -148.757 -139.991 -100.859 -120.098 -59.7999C-100.2 -18.7304 -61.7424 15.44 -0.576754 33.7169C60.4202 51.9433 94.1394 74.4685 112.949 98.6499C131.752 122.824 135.709 148.722 137.029 173.841C137.308 179.137 137.469 184.415 137.629 189.636L137.629 189.649L137.629 189.652C137.847 196.775 138.062 203.793 138.566 210.605C139.443 222.444 141.198 233.777 145.387 244.254C153.783 265.254 171.901 282.686 211.902 293.998ZM585.201 261.441C524.097 244.193 472.908 260.49 419.15 277.605C416.088 278.58 413.018 279.558 409.938 280.532C352.751 298.612 291.822 315.562 212.174 293.036C172.378 281.781 154.564 264.515 146.315 243.883C142.182 233.543 140.437 222.327 139.563 210.531C139.059 203.722 138.847 196.758 138.63 189.663L138.63 189.65C138.471 184.429 138.309 179.139 138.028 173.789C136.704 148.602 132.73 122.453 113.738 98.0359C94.7515 73.6266 60.8116 51.0165 -0.290499 32.7588C-61.2237 14.5514 -99.4382 -19.451 -119.198 -60.2359C-138.963 -101.031 -140.292 -148.669 -127.339 -194.181C-101.428 -285.227 -18.4256 -367.593 88.0253 -369.469C141.4 -370.41 177.801 -374.548 205.711 -382.205C233.636 -389.865 253.043 -401.042 272.432 -416.025C282.756 -424.003 293.068 -433.052 304.659 -443.222L304.659 -443.222L304.659 -443.223C336.59 -471.241 378.218 -507.769 456.49 -553.84C563.022 -616.545 706.087 -604.36 811.379 -553.445C864.019 -527.99 907.165 -492.878 931.571 -452.669C955.965 -412.479 961.644 -367.194 939.375 -321.291C917.017 -275.204 905.808 -243.216 903.005 -217.198C900.197 -191.148 905.819 -171.116 917.026 -148.957C923.172 -136.807 930.99 -124.023 940.024 -109.252C963.924 -70.1732 996.329 -17.1867 1028.76 74.7784C1049.38 133.23 1045.72 178.465 1025.3 212.362C1004.87 246.274 967.606 268.944 920.789 282.122C827.149 308.48 695.563 296.784 585.217 261.446L585.209 261.444L585.201 261.441ZM412.924 255.357C359.247 272.343 301.859 288.335 226.857 267.106C189.329 256.483 172.323 240.112 164.443 220.385C160.512 210.544 158.865 199.901 158.043 188.785C157.569 182.384 157.368 175.79 157.163 169.096C157.014 164.194 156.862 159.239 156.601 154.268C155.363 130.686 151.651 106.38 134.019 83.6914C116.38 60.9956 84.7572 39.8505 27.5428 22.7395C-29.8404 5.57804 -65.9229 -26.5083 -84.5922 -65.0751C-103.257 -103.632 -104.49 -148.608 -92.2887 -191.518C-67.892 -277.316 10.277 -355.021 110.647 -356.792C160.683 -357.674 194.736 -361.557 220.802 -368.714C246.853 -375.866 264.944 -386.293 283.053 -400.298C292.686 -407.749 302.331 -416.219 313.182 -425.749L313.184 -425.75C343.142 -452.062 382.298 -486.45 455.808 -529.755C556.097 -588.836 690.655 -577.319 789.623 -529.421C839.112 -505.469 879.755 -472.395 902.774 -434.438C925.805 -396.461 931.189 -353.597 910.138 -310.167C889.176 -266.92 878.724 -237.013 876.113 -212.758C873.505 -188.535 878.714 -169.917 889.167 -149.231C894.892 -137.901 902.198 -125.944 910.651 -112.112L910.651 -112.111C933.075 -75.4129 963.568 -25.5091 994.031 60.9386C1013.43 115.999 1010.05 158.788 990.699 190.932C971.361 223.061 936.14 244.451 892.095 256.86C804.014 281.674 680.38 270.651 576.764 237.441C519.738 221.332 471.983 236.547 421.513 252.627C418.66 253.536 415.797 254.448 412.924 255.357ZM421.265 251.656C471.691 235.588 519.717 220.284 577.044 236.481L577.053 236.483L577.061 236.486C680.566 269.662 803.992 280.641 891.824 255.897C935.735 243.526 970.684 222.245 989.842 190.416C1008.99 158.602 1012.42 116.143 993.088 61.271C962.664 -25.0673 932.269 -74.809 909.85 -111.498L909.849 -111.499C901.375 -125.367 894.04 -137.37 888.274 -148.78C877.76 -169.587 872.484 -188.401 875.118 -212.865C877.749 -237.298 888.265 -267.334 909.238 -310.603C930.122 -353.689 924.797 -396.194 901.919 -433.919C879.029 -471.663 838.562 -504.624 789.187 -528.521C690.425 -576.32 556.235 -587.757 456.315 -528.893C382.896 -485.641 343.85 -451.35 313.898 -425.045C303.025 -415.495 293.351 -406.998 283.665 -399.507C265.474 -385.439 247.267 -374.943 221.067 -367.75C194.882 -360.56 160.733 -356.675 110.665 -355.792C10.826 -354.031 -67.0238 -276.713 -91.3267 -191.245C-103.475 -148.521 -102.229 -103.804 -83.6922 -65.5108C-65.1606 -27.2284 -29.3213 4.68955 27.8294 21.7814C85.1488 38.9238 116.993 60.154 134.808 83.0778C152.63 106.009 156.358 130.567 157.6 154.216C157.864 159.241 158.015 164.208 158.164 169.109L158.165 169.121L158.165 169.125C158.368 175.783 158.567 182.319 159.04 188.711C159.859 199.784 161.496 210.311 165.372 220.014C173.105 239.373 189.806 255.579 227.13 266.144C301.834 287.289 358.98 271.379 412.622 254.404C415.512 253.489 418.393 252.571 421.265 251.656ZM241.216 241.335C311.471 261.242 365.228 246.245 415.502 230.319C418.192 229.467 420.871 228.613 423.543 227.761L423.544 227.761L423.545 227.76L423.546 227.76C470.817 212.683 515.534 198.421 568.935 213.521C665.984 244.659 781.785 254.996 864.289 231.728C905.546 220.093 938.542 200.035 956.659 169.901C974.786 139.753 977.958 99.6253 959.783 47.9955C931.25 -33.0605 902.688 -79.8546 881.685 -114.262L881.684 -114.265C873.769 -127.232 866.928 -138.44 861.566 -149.06C851.778 -168.451 846.901 -185.901 849.343 -208.605C851.788 -231.34 861.575 -259.377 881.208 -299.924C900.93 -340.654 895.885 -380.854 874.31 -416.467C852.746 -452.062 814.675 -483.075 768.32 -505.534C675.621 -550.447 549.583 -561.247 455.641 -505.846C386.789 -465.242 350.113 -432.997 322.054 -408.328L322.053 -408.328C311.891 -399.393 302.858 -391.452 293.837 -384.468C276.879 -371.339 259.938 -361.565 235.544 -354.86C211.135 -348.151 179.245 -344.51 132.382 -343.683C38.3593 -342.023 -34.8632 -269.155 -57.7158 -188.702C-69.1451 -148.465 -67.9902 -106.287 -50.5055 -70.1295C-33.0157 -33.961 0.78653 -3.87194 54.5388 12.2206C108.122 28.2626 137.733 48.0853 154.247 69.3573C170.756 90.6218 174.232 113.404 175.391 135.512C175.636 140.17 175.778 144.815 175.918 149.411C176.109 155.688 176.298 161.873 176.742 167.874C177.512 178.298 179.055 188.281 182.738 197.511C190.123 216.019 206.06 231.373 241.216 241.335ZM569.215 212.561C515.514 197.373 470.525 211.724 423.297 226.789C420.606 227.648 417.908 228.508 415.2 229.366C364.961 245.281 311.446 260.196 241.488 240.373C206.537 230.469 190.905 215.28 183.667 197.141C180.038 188.048 178.506 178.181 177.739 167.801C177.296 161.814 177.109 155.694 176.919 149.458L176.919 149.457L176.919 149.456L176.919 149.455L176.919 149.454L176.919 149.453L176.919 149.452L176.919 149.45L176.919 149.449L176.919 149.448L176.919 149.446L176.919 149.445L176.919 149.443L176.919 149.441L176.919 149.439L176.919 149.437L176.919 149.436L176.919 149.426L176.919 149.416L176.918 149.407L176.918 149.398L176.918 149.389L176.917 149.381L176.917 149.373L176.916 149.365L176.916 149.358L176.916 149.35L176.915 149.344L176.915 149.337L176.915 149.332C176.776 144.767 176.636 140.14 176.39 135.459C175.227 113.284 171.734 90.2518 155.037 68.7441C138.346 47.2439 108.514 27.3361 54.8256 11.2626C1.30631 -4.76019 -32.2529 -34.6806 -49.6052 -70.5648C-66.9626 -106.46 -68.1303 -148.378 -56.7537 -188.429C-33.9946 -268.553 38.909 -341.032 132.4 -342.683C179.295 -343.511 211.282 -347.154 235.81 -353.896C260.353 -360.642 277.409 -370.484 294.449 -383.677C303.523 -390.702 312.585 -398.669 322.769 -407.623C350.822 -432.286 387.388 -464.434 456.149 -504.985C549.722 -560.168 675.391 -549.447 767.884 -504.635C814.124 -482.231 852.02 -451.331 873.454 -415.949C894.877 -380.586 899.863 -340.746 880.308 -300.36C860.664 -259.79 850.813 -231.625 848.349 -208.712C845.881 -185.767 850.824 -168.122 860.674 -148.61C866.075 -137.909 872.946 -126.654 880.884 -113.65C901.881 -79.2505 930.346 -32.6185 958.84 48.3275C976.948 99.7689 973.731 139.567 955.802 169.386C937.865 199.219 905.141 219.168 864.018 230.766C781.764 253.963 666.17 243.67 569.232 212.566L569.224 212.564L569.215 212.561ZM418.079 205.28C371.207 220.147 321.081 234.148 255.572 215.563C222.789 206.262 207.921 191.925 201.031 174.637C197.595 166.016 196.157 156.694 195.438 146.963C195.025 141.361 194.849 135.586 194.67 129.726C194.539 125.436 194.407 121.1 194.179 116.754C193.098 96.1199 189.858 74.8629 174.474 55.022C159.083 35.1736 131.484 16.6735 81.5325 1.70054C31.4113 -13.3231 -0.110562 -41.4149 -16.4209 -75.185C-32.726 -108.945 -33.8022 -148.323 -23.145 -185.888C-1.83662 -260.995 66.4393 -329.026 154.115 -330.576C197.804 -331.348 227.532 -334.746 250.285 -341.007C273.022 -347.264 288.812 -356.385 304.619 -368.638C313.026 -375.155 321.445 -382.565 330.917 -390.903L330.919 -390.905L330.922 -390.907C357.082 -413.935 391.279 -444.036 455.472 -481.939C543.067 -533.659 660.585 -523.575 747.015 -481.649C790.236 -460.683 825.735 -431.731 845.843 -398.499C865.963 -365.247 870.668 -327.712 852.276 -289.682C833.973 -251.835 824.85 -225.669 822.571 -204.453C820.296 -183.269 824.84 -166.986 833.964 -148.891C838.961 -138.98 845.339 -128.519 852.718 -116.415C872.298 -84.2969 898.93 -40.6125 925.533 35.0512C942.479 83.2502 939.523 120.718 922.618 148.869C905.721 177.007 874.95 195.734 836.481 206.596C759.554 228.317 651.586 218.667 561.103 189.601C511.329 175.509 469.648 188.818 425.576 202.892C423.085 203.687 420.587 204.485 418.079 205.28ZM425.327 201.921C469.355 187.859 511.308 174.461 561.384 188.641L561.392 188.643L561.401 188.646C651.772 217.678 759.533 227.284 836.209 205.633C874.544 194.809 905.044 176.192 921.76 148.355C938.468 120.532 941.469 83.3936 924.589 35.3829C898.026 -40.1706 871.492 -83.6929 851.916 -115.802L851.916 -115.802C844.515 -127.942 838.108 -138.45 833.071 -148.44C823.886 -166.658 819.275 -183.134 821.577 -204.56C823.875 -225.954 833.061 -252.248 851.376 -290.117C869.601 -327.804 864.955 -364.98 844.987 -397.981C825.008 -431 789.684 -459.839 746.578 -480.749C660.354 -522.575 543.206 -532.58 455.981 -481.078C391.878 -443.229 357.791 -413.224 331.638 -390.203L331.638 -390.203C322.142 -381.844 313.693 -374.406 305.232 -367.848C289.343 -355.531 273.437 -346.341 250.55 -340.043C227.679 -333.749 197.854 -330.349 154.133 -329.576C66.9898 -328.035 -0.967603 -260.394 -22.1829 -185.615C-32.7876 -148.236 -31.6984 -109.116 -15.5203 -75.62C0.652622 -42.134 31.9317 -14.2111 81.8196 0.742657C131.877 15.7472 159.697 34.3326 175.264 54.4092C190.837 74.4933 194.094 96.0005 195.178 116.702C195.409 121.103 195.541 125.451 195.671 129.74L195.672 129.749C195.849 135.576 196.022 141.294 196.436 146.889C197.151 156.577 198.579 165.783 201.96 174.267C208.703 191.186 223.267 205.358 255.845 214.601C321.056 233.101 370.939 219.182 417.776 204.327C420.301 203.526 422.817 202.723 425.327 201.921ZM420.382 180.241C376.889 194.048 330.369 207.053 269.572 189.791C239.146 181.151 225.339 167.83 218.941 151.762C215.751 143.751 214.416 135.089 213.749 126.051C213.366 120.852 213.202 115.492 213.037 110.053L213.036 110.04L213.036 110.033C212.915 106.051 212.792 102.027 212.581 97.9949C211.578 78.8346 208.572 59.1022 194.304 40.6848C180.029 22.2599 154.429 5.08208 108.083 -8.82204C61.5672 -22.777 32.3096 -48.8718 17.1706 -80.244C2.03666 -111.606 1.03849 -148.185 10.9291 -183.078C30.7043 -252.841 94.068 -316.035 175.441 -317.475C215.978 -318.192 243.559 -321.348 264.667 -327.161C285.759 -332.971 300.407 -341.439 315.071 -352.815C322.87 -358.866 330.68 -365.747 339.469 -373.49L339.473 -373.494L339.474 -373.494C363.747 -394.879 395.482 -422.838 455.05 -458.04C536.341 -506.08 645.399 -496.712 725.604 -457.772C765.712 -438.299 798.658 -411.407 817.321 -380.537C835.995 -349.648 840.363 -314.776 823.291 -279.446C806.308 -244.299 797.846 -220.003 795.732 -200.306C793.621 -180.641 797.836 -165.526 806.299 -148.725C810.934 -139.524 816.851 -129.811 823.697 -118.573L823.698 -118.571C841.866 -88.7428 866.582 -48.1676 891.267 22.1046C906.994 66.8734 904.253 101.681 888.559 127.837C872.874 153.979 844.312 171.374 808.613 181.463C737.224 201.638 637.034 192.674 553.072 165.679C506.897 152.596 468.232 164.953 427.337 178.023C425.026 178.762 422.709 179.502 420.382 180.241ZM427.088 177.053C467.939 163.994 506.877 151.548 553.353 164.72L553.361 164.722L553.37 164.725C637.22 191.685 737.203 200.605 808.341 180.501C843.906 170.45 872.197 153.164 887.702 127.322C903.198 101.495 905.984 67.0167 890.324 22.4361C865.677 -47.7265 841.059 -88.1397 822.895 -117.959L822.895 -117.959L822.893 -117.962C816.026 -129.236 810.081 -138.995 805.406 -148.275C796.881 -165.198 792.601 -180.506 794.738 -200.413C796.871 -220.287 805.397 -244.711 822.391 -279.881C839.296 -314.868 834.987 -349.381 816.465 -380.019C797.931 -410.677 765.16 -437.455 725.167 -456.872C645.168 -495.712 536.48 -505 455.559 -457.179C396.081 -422.03 364.456 -394.169 340.19 -372.789C331.378 -365.026 323.536 -358.118 315.684 -352.025C300.937 -340.585 286.174 -332.048 264.933 -326.197C243.706 -320.351 216.028 -317.193 175.459 -316.475C94.6192 -315.045 31.5735 -252.241 11.8913 -182.805C2.05314 -148.098 3.06425 -111.777 18.0712 -80.6786C33.0732 -49.5905 62.0879 -23.6648 108.37 -9.77986C154.822 4.1559 180.643 21.4192 195.094 40.0723C209.551 58.7329 212.573 78.7154 213.58 97.9426C213.794 102.027 213.916 106.061 214.037 110.039L214.037 110.042L214.037 110.054L214.038 110.06L214.038 110.061C214.202 115.472 214.363 120.781 214.746 125.977C215.41 134.973 216.735 143.518 219.87 151.392C226.122 167.092 239.625 180.247 269.846 188.829C330.343 206.007 376.621 193.083 420.08 179.288C422.423 178.544 424.758 177.797 427.088 177.053ZM423.195 156.551C382.603 169.09 339.342 180.972 283.296 165.058C254.625 156.916 241.4 144.55 235.119 129.691C231.988 122.283 230.596 114.287 229.848 105.951C229.398 100.94 229.18 95.7736 228.958 90.5329L228.958 90.531L228.958 90.5276L228.957 90.5247L228.957 90.522L228.957 90.5199L228.956 90.4903C228.81 87.0496 228.663 83.5772 228.448 80.0958C227.358 62.4461 224.517 44.2782 211.376 27.2788C198.23 10.2725 174.72 -5.63234 132.143 -18.6106L132.28 -19.0597L132.143 -18.6108C89.2984 -31.7146 62.2159 -56.0261 48.1209 -85.1961C34.0308 -114.356 32.9444 -148.318 41.9852 -180.693C60.0613 -245.422 118.678 -303.971 195.191 -305.28C233.075 -305.932 258.843 -308.899 278.54 -314.341C298.222 -319.78 311.863 -327.694 325.487 -338.275C332.635 -343.825 339.784 -350.116 347.799 -357.169L347.8 -357.17C370.36 -377.023 399.785 -402.915 455.357 -435.339C530.823 -479.369 631.634 -470.727 705.823 -434.721C742.923 -416.715 773.417 -391.842 790.767 -363.227C808.128 -334.594 812.321 -302.216 796.797 -269.299L796.795 -269.297C781.357 -237.053 773.657 -214.639 771.74 -196.368C769.825 -178.127 773.671 -163.982 781.414 -148.257C785.755 -139.44 791.33 -130.119 797.797 -119.305C814.409 -91.5288 836.912 -53.9018 859.545 10.3313C874.01 51.4269 871.45 83.5306 856.939 107.758C842.437 131.97 816.06 148.213 783.101 157.73C717.192 176.759 624.709 168.966 547.132 143.891C503.893 131.482 467.534 142.778 429.155 154.702L429.139 154.707C427.163 155.321 425.182 155.937 423.195 156.551ZM428.917 153.729C467.251 141.817 503.879 130.434 547.415 142.932L547.423 142.934L547.431 142.936C624.892 167.976 717.165 175.726 782.823 156.769C815.648 147.292 841.758 131.159 856.081 107.244C870.396 83.3437 872.999 51.5682 858.601 10.6635C836.005 -53.4665 813.599 -90.9283 796.994 -118.693L796.993 -118.694C790.504 -129.544 784.9 -138.914 780.517 -147.815C772.715 -163.66 768.806 -177.996 770.745 -196.473C772.681 -214.919 780.443 -237.459 795.893 -269.727C811.256 -302.302 807.122 -334.325 789.912 -362.709C772.691 -391.111 742.371 -415.871 705.386 -433.821C631.404 -469.727 530.96 -478.291 455.861 -434.475C400.382 -402.106 371.067 -376.31 348.513 -356.463C340.477 -349.391 333.298 -343.074 326.101 -337.485C312.394 -326.841 298.638 -318.857 278.806 -313.378C258.99 -307.902 233.126 -304.932 195.208 -304.28C119.225 -302.98 60.931 -244.819 42.9483 -180.424C33.9598 -148.236 35.0567 -114.531 49.0213 -85.6312C62.981 -56.7414 89.8244 -32.5995 132.435 -19.567C175.118 -6.55647 198.846 9.43438 212.167 26.6672C225.494 43.9069 228.352 62.3215 229.446 80.0341C229.665 83.5745 229.813 87.0754 229.959 90.5323C230.179 95.748 230.396 100.863 230.844 105.862C231.588 114.151 232.966 122.031 236.04 129.302C242.169 143.801 255.094 156.01 283.569 164.096C339.318 179.926 382.339 168.125 422.9 155.595C424.846 154.994 426.787 154.391 428.723 153.789L428.85 153.75L428.917 153.729ZM297.004 140.323C348.3 154.89 388.302 144.131 425.993 132.859C427.641 132.366 429.284 131.872 430.924 131.379L430.946 131.373C466.81 120.597 500.87 110.363 541.177 122.1C612.369 145.257 697.145 151.878 757.575 133.994C787.794 125.051 811.987 109.96 825.305 87.677C838.632 65.3788 841.011 35.9789 827.808 -1.44375L827.807 -1.44409C807.236 -59.616 786.947 -94.2742 771.895 -119.986L771.895 -119.987C765.799 -130.399 760.563 -139.344 756.514 -147.79C749.492 -162.439 746.014 -175.616 747.733 -192.433C749.454 -209.278 756.392 -229.809 770.285 -259.15L770.288 -259.156C784.265 -289.659 780.247 -319.543 764.199 -345.919C748.163 -372.278 720.12 -395.132 686.028 -411.672C617.855 -444.745 525.29 -452.66 455.651 -412.64C404.08 -383.004 376.969 -359.178 356.122 -340.857L356.12 -340.856L356.118 -340.854L356.117 -340.853C348.873 -334.487 342.385 -328.785 335.89 -323.736C323.304 -313.951 310.671 -306.59 292.399 -301.524C274.112 -296.452 250.158 -293.673 214.927 -293.086C143.273 -291.908 89.404 -238.006 73.0268 -178.309C64.8357 -148.452 66.0107 -117.108 79.0569 -90.15C92.1079 -63.1825 117.015 -40.6542 156.188 -28.4013L156.189 -28.401C194.998 -16.3486 216.416 -1.71681 228.434 13.871C240.448 29.4527 243.124 46.0563 244.301 62.1959C244.517 65.1477 244.682 68.0915 244.846 71.0119L244.847 71.0308C245.13 76.0675 245.409 81.0342 245.933 85.8513C246.762 93.4847 248.21 100.815 251.284 107.62C257.447 121.269 270.09 132.68 297.004 140.323ZM541.464 121.142C500.864 109.317 466.539 119.632 430.721 130.396L430.712 130.399C429.047 130.899 427.378 131.401 425.706 131.901C388.042 143.165 348.279 153.844 297.278 139.361C270.549 131.771 258.201 120.509 252.195 107.209C249.183 100.54 247.751 93.3267 246.927 85.7433C246.406 80.9472 246.13 76.0317 245.848 71.0172C245.684 68.085 245.517 65.119 245.298 62.1231C244.117 45.9255 241.423 29.079 229.226 13.2604C217.034 -2.55201 195.401 -17.2706 156.486 -29.356C117.546 -41.536 92.8744 -63.8939 79.9571 -90.5857C67.0348 -117.287 65.852 -148.376 73.9911 -178.044C90.2742 -237.398 143.817 -290.917 214.943 -292.087C250.209 -292.674 274.259 -295.456 292.666 -300.56C311.088 -305.668 323.837 -313.098 336.504 -322.946C343.048 -328.034 349.566 -333.762 356.832 -340.147C377.673 -358.463 404.675 -382.193 456.149 -411.773C525.425 -451.584 617.626 -443.744 685.591 -410.772C719.568 -394.289 747.437 -371.547 763.345 -345.399C779.242 -319.27 783.201 -289.738 769.381 -259.576C755.475 -230.209 748.477 -209.553 746.738 -192.535C744.996 -175.488 748.533 -162.124 755.612 -147.358C759.705 -138.821 764.971 -129.826 771.089 -119.377L771.09 -119.373L771.091 -119.373C786.135 -93.6766 806.327 -59.1885 826.865 -1.11105C840 36.1176 837.579 65.1905 824.446 87.164C811.304 109.152 787.376 124.132 757.291 133.036C697.113 150.845 612.548 144.265 541.479 121.146L541.471 121.144L541.464 121.142ZM428.784 109.166C393.996 119.171 357.252 128.806 310.708 115.588C285.55 108.443 273.49 97.9877 267.443 85.5504C262.426 75.2297 261.581 63.5801 260.707 51.5355L260.707 51.5272C260.533 49.1301 260.358 46.7174 260.148 44.2964C258.884 29.6665 256.373 14.6268 245.486 0.462517C234.595 -13.7071 215.269 -27.0659 180.229 -38.1923L180.227 -38.1928C144.725 -49.5948 121.994 -70.3398 109.987 -95.1045C97.9849 -119.86 96.7215 -148.586 104.063 -175.925C118.741 -230.59 167.864 -279.846 234.656 -280.894C267.235 -281.415 289.375 -284.006 306.252 -288.706C323.113 -293.402 334.74 -300.208 346.287 -309.197C352.135 -313.75 357.968 -318.868 364.45 -324.557C383.584 -341.347 408.377 -363.104 455.939 -389.943C519.753 -425.952 604.07 -418.763 666.227 -388.623C697.311 -373.55 722.902 -352.715 737.626 -328.612C752.36 -304.492 756.204 -277.102 743.774 -249.013L743.77 -249.004C731.421 -222.566 725.246 -203.917 723.721 -188.498C722.198 -173.105 725.307 -160.896 731.609 -147.323C735.384 -139.193 740.287 -130.606 746.021 -120.562C749.891 -113.783 754.141 -106.339 758.678 -97.9247C769.921 -77.0753 782.877 -50.3526 796.065 -13.2201L796.065 -13.2196C808.007 20.5306 805.809 47.2266 793.665 67.5955C781.531 87.949 759.523 101.888 732.044 110.258C677.094 126.997 600.024 121.547 535.216 100.308C497.836 89.2398 466.067 98.4081 432.715 108.033C431.407 108.411 430.097 108.789 428.784 109.166ZM432.505 107.053C465.81 97.4398 497.838 88.1951 535.507 99.3517L535.514 99.3537L535.521 99.3559C600.199 120.553 677.054 125.963 731.752 109.302C759.097 100.972 780.845 87.1458 792.806 67.0834C804.758 47.0365 806.995 20.6662 795.122 -12.886C781.955 -49.9622 769.021 -76.6378 757.798 -97.4501C753.293 -105.805 749.055 -113.229 745.186 -120.007L745.185 -120.008L745.183 -120.012L745.182 -120.013C739.428 -130.093 734.49 -138.744 730.702 -146.901C724.347 -160.59 721.181 -172.98 722.726 -188.597C724.268 -204.187 730.501 -222.958 742.862 -249.423C755.14 -277.174 751.356 -304.216 736.772 -328.091C722.177 -351.984 696.759 -372.707 665.791 -387.723C603.843 -417.762 519.884 -424.878 456.431 -389.072C408.97 -362.29 384.285 -340.629 365.156 -323.843C358.655 -318.138 352.795 -312.996 346.901 -308.408C335.273 -299.356 323.531 -292.48 306.52 -287.743C289.523 -283.01 267.286 -280.416 234.672 -279.894C168.402 -278.855 119.612 -229.977 105.028 -175.666C97.7384 -148.517 99.0069 -120.044 110.887 -95.5407C122.763 -71.0466 145.264 -50.4724 180.532 -39.1452C215.678 -27.9848 235.217 -14.5386 246.279 -0.146888C257.345 14.2502 259.875 29.5282 261.145 44.2102C261.357 46.6679 261.535 49.106 261.71 51.5189C262.586 63.5617 263.417 74.9816 268.343 85.1132C274.226 97.2145 285.998 107.53 310.981 114.626C357.234 127.761 393.74 118.204 428.507 108.205C429.82 107.828 431.13 107.45 432.438 107.072L432.505 107.053ZM324.424 90.8499C366.217 102.719 399.702 94.2081 431.588 85.4711C432.552 85.2069 433.515 84.9424 434.476 84.6784C465.32 76.2075 494.809 68.1085 529.269 78.5137C587.692 97.8338 657.057 102.112 706.527 86.5188C731.267 78.7209 751.088 65.934 762.039 47.5106C772.999 29.0714 775.017 5.07931 764.336 -24.9987L764.336 -24.9995C752.419 -58.3784 740.811 -82.5788 730.78 -101.574C726.999 -108.735 723.448 -115.145 720.191 -121.024L720.189 -121.028L720.184 -121.038L720.176 -121.052L720.175 -121.053L720.175 -121.054C715.793 -128.964 711.944 -135.912 708.783 -142.432L699.697 -184.299C699.705 -184.388 699.713 -184.478 699.722 -184.567C701.051 -198.561 706.465 -215.327 717.268 -238.862L717.271 -238.869L717.274 -238.876C728.156 -264.55 724.486 -289.445 711.065 -311.308C697.655 -333.155 674.516 -351.971 646.44 -365.578C590.298 -392.785 514.228 -399.247 456.242 -367.248C412.699 -343.221 390.228 -323.535 372.807 -308.273L372.806 -308.273C367.08 -303.257 361.9 -298.719 356.697 -294.662C346.189 -286.469 335.569 -280.216 320.118 -275.892C304.652 -271.563 284.325 -269.161 254.4 -268.705C192.468 -267.788 148.091 -223.178 135.112 -173.544C128.621 -148.722 129.973 -122.615 140.931 -100.062C151.893 -77.5008 172.449 -58.5391 204.279 -47.9878L204.282 -47.987C235.552 -37.7867 252.788 -25.7011 262.552 -12.9494C272.313 -0.202062 274.657 13.2742 276.01 26.3952C276.205 28.2937 276.38 30.1869 276.554 32.0704C277.579 43.1663 278.572 53.927 283.619 63.4794C289.548 74.7038 301.024 84.2027 324.424 90.8499ZM719.333 -120.51C715.719 -127.032 712.459 -132.919 709.647 -138.448L730.103 -44.1884C720.353 -70.3649 711.001 -90.0174 702.873 -105.816C699.85 -111.692 697.001 -117.026 694.366 -121.961L694.364 -121.964L694.36 -121.971C689.299 -131.448 685.024 -139.452 681.818 -146.984C676.956 -158.407 674.583 -168.681 675.714 -181.23C676.824 -193.543 681.311 -208.079 690.199 -228.064L699.03 -187.372C700.782 -200.977 706.222 -217.194 716.356 -239.273C727.093 -264.612 723.484 -289.165 710.213 -310.785C696.931 -332.424 673.963 -351.128 646.004 -364.678C590.073 -391.783 514.356 -398.175 456.725 -366.373C413.288 -342.403 390.925 -322.813 373.508 -307.556L373.505 -307.553L373.502 -307.551L373.501 -307.55L373.498 -307.548L373.498 -307.547L373.491 -307.541C367.754 -302.516 362.553 -297.96 357.312 -293.873C346.724 -285.618 335.989 -279.296 320.388 -274.929C304.801 -270.567 284.376 -268.162 254.415 -267.705C193 -266.795 148.963 -222.56 136.079 -173.291C129.639 -148.662 130.992 -122.805 141.831 -100.499C152.664 -78.2023 172.995 -59.4121 204.592 -48.9378C235.97 -38.7023 253.414 -26.5281 263.346 -13.5573C273.281 -0.582158 275.647 13.1268 277.004 26.2926C277.202 28.2071 277.378 30.108 277.552 31.9925L277.554 32.012C278.582 43.1175 279.558 53.6513 284.503 63.0123C290.263 73.9167 301.46 83.2869 324.698 89.888C366.203 101.676 399.451 93.24 431.323 84.5066C432.311 84.2359 433.298 83.9649 434.283 83.6943C465.078 75.2354 494.821 67.0656 529.564 77.5583L529.577 77.5621C587.863 96.8382 657.008 101.079 706.226 85.5651C730.832 77.8095 750.399 65.1363 761.179 46.9997C771.95 28.8791 774.003 5.21121 763.393 -24.6641C751.496 -57.9894 739.909 -82.1455 729.896 -101.108C726.136 -108.228 722.591 -114.628 719.333 -120.51ZM689.844 -229.702L690.199 -228.064C690.383 -228.478 690.57 -228.895 690.758 -229.314L690.762 -229.323L690.765 -229.332C700.098 -252.592 696.602 -274.991 684.496 -294.598C672.399 -314.188 651.711 -330.986 626.643 -343.125C576.517 -367.399 508.695 -373.134 456.537 -345.148C417.025 -323.948 396.881 -306.335 381.172 -292.6C376.193 -288.247 371.66 -284.284 367.098 -280.719C357.629 -273.323 348.016 -267.624 333.975 -263.671C319.919 -259.713 301.406 -257.499 274.134 -257.108C217.064 -256.322 177.432 -216.359 166.152 -171.756C160.511 -149.451 161.952 -125.962 171.866 -105.613C181.783 -85.2554 200.162 -68.0771 228.321 -58.3762L228.324 -58.3752C255.826 -49.101 270.971 -38.2886 279.608 -26.9545C288.243 -15.6234 290.422 -3.71 291.862 7.90298C292.032 9.27832 292.193 10.6506 292.352 12.018L292.354 12.035C293.537 22.1736 294.688 32.0369 299.787 40.818C305.599 50.8275 316.489 59.3697 338.132 65.5186C375.173 76.039 405.399 68.6523 434.381 61.1829C434.987 61.0266 435.593 60.8702 436.199 60.714C464.538 53.402 491.762 46.3776 523.312 56.1257C575.353 73.528 637.012 76.6338 681.002 62.1858C703.001 54.9604 720.637 43.3255 730.403 26.8326C740.179 10.3234 742.018 -10.9645 732.597 -37.371L732.597 -37.3721C731.763 -39.6924 730.932 -41.964 730.103 -44.1884L731.655 -37.035C721.027 -66.6097 710.788 -88.2467 701.984 -105.359C698.983 -111.192 696.144 -116.507 693.512 -121.436C688.433 -130.947 684.122 -139.018 680.898 -146.592C675.99 -158.124 673.568 -168.566 674.718 -181.32C675.866 -194.051 680.57 -209.053 689.841 -229.714L689.837 -229.705L689.844 -229.702ZM689.844 -229.702L690.301 -229.519L689.845 -229.723L689.841 -229.714L689.844 -229.702ZM228.646 -59.3218C256.254 -50.0114 271.603 -39.1097 280.404 -27.5606C289.207 -16.008 291.41 -3.86869 292.854 7.77993C293.027 9.16934 293.188 10.5505 293.349 11.9224L293.349 11.9255C294.537 22.0864 295.664 31.7274 300.651 40.3158C306.289 50.0251 316.912 58.4502 338.405 64.5566C375.163 74.9967 405.155 67.6827 434.131 60.2145C434.763 60.0516 435.395 59.8886 436.027 59.7256C464.316 52.4257 491.787 45.3368 523.612 55.172L523.623 55.1755C575.516 72.5296 636.952 75.601 680.69 61.2357C702.555 54.0543 719.943 42.5344 729.543 26.3231C739.132 10.1282 741.001 -10.8373 731.655 -37.035L704.406 -38.2423C708.171 -20.9677 705.772 -6.43122 698.773 5.44659C690.191 20.0082 674.743 30.4912 655.483 37.1443C616.973 50.4479 563.018 48.5148 517.359 33.0298C488.707 23.9296 463.726 29.8719 437.886 36.0186L437.177 36.1872C411.1 42.3889 384.132 48.6509 351.844 39.4794C331.96 33.8291 321.657 26.2442 315.962 17.4519C310.777 9.44604 309.458 0.491208 308.108 -8.67954L308.108 -8.68L308.103 -8.71222C307.977 -9.57117 307.85 -10.432 307.72 -11.2941C306.192 -21.4005 304.179 -31.752 296.669 -41.6677C292.665 -46.9551 287.084 -52.135 279.149 -57.0842L228.646 -59.3218ZM228.646 -59.3218L228.643 -59.3227L228.484 -58.8489L228.646 -59.3218ZM281.149 -56.9955C288.401 -52.2741 293.632 -47.3349 297.466 -42.2714C305.138 -32.1425 307.177 -21.5735 308.708 -11.4435C308.839 -10.5757 308.967 -9.71164 309.094 -8.8516C310.452 0.355436 311.741 9.09442 316.802 16.9083C322.317 25.425 332.368 32.9054 352.117 38.5174C384.129 47.6104 410.863 41.4173 436.945 35.2144L437.739 35.0256C463.527 28.8909 488.747 22.8915 517.666 32.0782L517.675 32.0812C563.174 47.5127 616.898 49.4157 655.157 36.1991C674.283 29.5921 689.492 19.2255 697.911 4.93887C704.796 -6.74485 707.173 -21.1058 703.372 -38.2882L673.571 -39.6085C673.465 -30.7712 671.187 -22.8923 667.138 -15.9793C659.742 -3.34998 646.482 5.98119 629.963 12.0624C596.933 24.222 550.682 23.4628 511.401 9.89402C485.796 1.48332 463.156 6.21464 439.967 11.1523L439.523 11.2468C416.493 16.1512 392.912 21.173 365.552 13.4006C347.428 8.24921 337.714 1.62207 332.139 -5.9498C326.818 -13.1763 325.317 -21.2076 323.786 -29.3983C323.716 -29.774 323.645 -30.15 323.575 -30.5263C322.015 -38.826 320.242 -47.3011 314.383 -55.5231L281.149 -56.9955ZM338.286 -54.464L315.642 -55.4673C321.285 -47.2499 323.036 -38.8087 324.557 -30.711C324.624 -30.3543 324.691 -29.9984 324.757 -29.6433C326.299 -21.4041 327.762 -13.5804 332.944 -6.54273C338.339 0.784454 347.819 7.32083 365.826 12.4387C392.946 20.143 416.317 15.1661 439.385 10.2538L439.759 10.1742C462.929 5.24052 485.823 0.438181 511.717 8.94514L511.724 8.94758C550.826 22.4556 596.838 23.1912 629.618 11.124C646.004 5.09151 659.035 -4.12156 666.275 -16.4847C670.232 -23.2409 672.472 -30.9602 672.572 -39.6528L637.434 -41.2096C636.857 -39.9289 636.214 -38.6797 635.507 -37.4622C629.298 -26.7666 618.227 -18.5873 604.449 -13.0776C576.9 -2.06102 538.35 -1.64461 505.445 -13.2988C483.148 -20.937 463.04 -17.6087 442.756 -13.9387C442.195 -13.8372 441.634 -13.7354 441.072 -13.6335C421.358 -10.0584 401.413 -6.44128 379.264 -12.7347C362.899 -17.387 353.778 -23.0557 348.324 -29.4033C342.871 -35.7501 341.138 -42.721 339.435 -49.8082L339.353 -50.15C339.008 -51.5836 338.663 -53.0224 338.286 -54.464ZM340.311 -50.4417L340.313 -50.434L340.313 -50.4333L340.407 -50.0419C342.113 -42.943 343.805 -36.1973 349.083 -30.055C354.359 -23.9134 363.272 -18.3205 379.537 -13.6966C401.46 -7.46759 421.201 -11.0471 440.956 -14.6289L441.739 -14.7708L442.578 -14.9228C462.855 -18.5914 483.201 -21.9767 505.772 -14.2439L505.777 -14.2422C538.479 -2.65926 576.777 -3.08906 604.078 -14.0062C617.726 -19.4636 628.581 -27.5233 634.642 -37.9643C635.265 -39.0363 635.837 -40.134 636.357 -41.2574L588.361 -43.3839C585.45 -41.5037 582.291 -39.807 578.931 -38.3038C556.864 -28.429 526.013 -26.833 499.478 -36.5754C480.485 -43.4417 462.909 -41.5152 445.53 -39.1127C444.517 -38.9726 443.504 -38.8308 442.491 -38.689L442.474 -38.6867C426.155 -36.4027 409.929 -34.1317 392.965 -38.9532C378.362 -43.106 369.837 -47.8157 364.509 -52.9346C364.376 -53.0627 364.244 -53.191 364.115 -53.3196L339.332 -54.4176C339.677 -53.0831 339.995 -51.7567 340.311 -50.4417ZM578.523 -39.2166C581.38 -40.4952 584.085 -41.9126 586.608 -43.4616L365.629 -53.2525C370.822 -48.4434 379.109 -43.9332 393.238 -39.9151C409.992 -35.1533 426.021 -37.3953 442.381 -39.6835C443.383 -39.8238 444.388 -39.9642 445.393 -40.1033C462.777 -42.5065 480.573 -44.4735 499.819 -37.5154L499.822 -37.5145C526.118 -27.8594 556.699 -29.4507 578.523 -39.2166Z" fill="url(#paint0_linear_7564_38861)"/>
</g>
<defs>
<linearGradient id="paint0_linear_7564_38861" x1="268.499" y1="-35.4961" x2="268.497" y2="37.0039" gradientUnits="userSpaceOnUse">
<stop stop-color="#737373"/>
<stop offset="1" stop-color="#474851" stop-opacity="0"/>
</linearGradient>
<clipPath id="clip0_7564_38861">
<rect width="562" height="200" fill="white"/>
</clipPath>
</defs>
</svg>
