<svg viewBox="0 0 364 179" fill="none" xmlns="http://www.w3.org/2000/svg">
<g clip-path="url(#clip0_3940_76376)">
<mask id="path-1-inside-1_3940_76376" fill="white">
<path d="M0 0H364V179H0V0Z"/>
</mask>
<path d="M0 0H364V179H0V0Z" fill="#34353B"/>
<path fill-rule="evenodd" clip-rule="evenodd" d="M223.945 451.026C149.145 474.602 69.2139 496.784 -35.2539 467.332C-87.5153 452.599 -111.156 429.908 -122.109 402.596C-127.577 388.964 -129.87 374.212 -131.016 358.79C-131.676 349.908 -131.956 340.766 -132.241 331.481L-132.241 331.478L-132.241 331.476L-132.241 331.474L-132.241 331.472L-132.241 331.469L-132.241 331.468L-132.241 331.466L-132.241 331.464L-132.241 331.462L-132.241 331.46L-132.241 331.459L-132.241 331.457L-132.241 331.456C-132.449 324.659 -132.66 317.786 -133.025 310.883C-134.751 278.138 -139.927 244.35 -164.537 212.81C-189.154 181.263 -233.269 151.895 -313.028 128.138C-392.954 104.331 -443.193 59.8262 -469.185 6.3481C-495.172 -47.1197 -496.894 -109.501 -479.899 -169.026C-445.917 -288.056 -337.038 -395.838 -197.262 -398.294C-127.522 -399.519 -80.0452 -404.91 -43.6945 -414.85C-7.35919 -424.786 17.8774 -439.273 43.1306 -458.725C56.5672 -469.075 70.015 -480.838 85.1427 -494.071C126.894 -530.591 181.442 -578.305 283.871 -638.405C423.567 -720.37 611.023 -704.4 748.909 -637.933C817.857 -604.697 874.465 -558.811 906.521 -506.165C938.588 -453.5 946.081 -394.072 916.775 -333.854C887.558 -273.821 872.98 -232.282 869.337 -198.581C865.697 -164.912 872.969 -139.032 887.55 -110.295C895.537 -94.5531 905.724 -77.9477 917.508 -58.7402L917.509 -58.7393C948.759 -7.8018 991.237 61.4364 1033.69 181.41C1060.71 257.802 1055.98 317.131 1029.06 361.686C1002.14 406.225 953.11 435.894 891.752 453.11C769.047 487.54 596.784 472.247 452.4 426.156C372.865 403.778 306.257 424.915 235.927 447.233C231.946 448.496 227.953 449.763 223.945 451.026ZM235.68 446.262C305.966 423.956 372.844 402.731 452.679 425.196L452.687 425.198L452.696 425.201C596.969 471.258 769.025 486.507 891.482 452.147C952.707 434.968 1001.47 405.408 1028.2 361.168C1054.93 316.944 1059.7 257.946 1032.74 181.744C990.334 61.8801 947.954 -7.19569 916.709 -58.1245C904.903 -77.3678 894.686 -94.0203 886.658 -109.843C872.016 -138.701 864.677 -164.777 868.343 -198.689C872.005 -232.569 886.648 -274.235 915.876 -334.292C945.014 -394.164 937.581 -453.232 905.666 -505.645C873.74 -558.078 817.309 -603.852 748.474 -637.033C610.794 -703.4 423.705 -719.291 284.378 -637.542C182.038 -577.495 127.6 -529.878 85.8561 -493.363C70.7069 -480.112 57.2294 -468.323 43.7408 -457.933C18.4053 -438.417 -6.94671 -423.862 -43.4307 -413.885C-79.8994 -403.913 -127.472 -398.52 -197.244 -397.294C-336.491 -394.848 -445.05 -287.45 -478.938 -168.751C-495.879 -109.413 -494.144 -47.2926 -468.286 5.91097C-442.432 59.1042 -392.437 103.441 -312.742 127.18C-232.879 150.968 -188.543 180.42 -163.749 212.195C-138.949 243.978 -133.756 278.017 -132.026 310.831C-131.66 317.764 -131.45 324.626 -131.243 331.399L-131.243 331.403L-131.241 331.458L-131.241 331.464L-131.241 331.47L-131.24 331.476L-131.24 331.483L-131.239 331.49C-130.956 340.746 -130.678 349.836 -130.018 358.716C-128.876 374.094 -126.593 388.729 -121.181 402.224C-110.375 429.167 -87.0406 451.693 -34.9825 466.37C69.1885 495.738 148.879 473.637 223.645 450.073C227.669 448.804 231.68 447.531 235.68 446.262ZM-19.1031 438.201C80.0251 466.158 155.871 445.101 226.844 422.724C230.646 421.525 234.434 420.322 238.211 419.123C304.941 397.94 368.133 377.88 443.589 399.118C580.586 442.867 744.037 457.383 860.468 424.702C918.689 408.359 965.218 380.196 990.761 337.913C1016.31 295.615 1020.8 239.293 995.153 166.78C954.877 52.9016 914.571 -12.8213 884.92 -61.1698C873.74 -79.4004 864.074 -95.1608 856.497 -110.101C842.664 -137.373 835.766 -161.934 839.219 -193.885C842.675 -225.869 856.505 -265.292 884.226 -322.274C912.036 -379.439 904.926 -435.856 874.496 -485.85C844.077 -535.825 790.363 -579.382 724.94 -610.93C594.107 -674.021 416.236 -689.181 283.682 -611.376C186.492 -554.33 134.734 -509.039 95.1196 -474.375L95.1177 -474.374L95.1172 -474.373L95.1113 -474.368L95.1093 -474.366L95.1086 -474.365C80.7601 -461.81 68.0048 -450.649 55.2605 -440.828C31.3021 -422.367 7.36017 -408.618 -27.1115 -399.188C-61.5986 -389.754 -106.643 -384.637 -172.812 -383.474C-305.447 -381.144 -408.762 -278.829 -441.007 -165.842C-457.133 -109.338 -455.5 -50.121 -430.84 0.6357C-406.175 51.4027 -358.501 93.6493 -282.659 116.248C-206.986 138.797 -165.134 166.67 -141.783 196.608C-118.437 226.538 -113.526 258.602 -111.888 289.681C-111.542 296.233 -111.342 302.757 -111.144 309.209L-111.144 309.21L-111.144 309.212L-111.144 309.213L-111.144 309.214L-111.144 309.216L-111.144 309.217L-111.144 309.218L-111.144 309.22L-111.144 309.221L-111.144 309.222L-111.144 309.224L-111.144 309.225L-111.144 309.227L-111.144 309.23C-110.874 318.043 -110.608 326.722 -109.982 335.154C-108.895 349.792 -106.719 363.797 -101.53 376.74C-91.1329 402.673 -68.6948 424.215 -19.1031 438.201ZM443.869 398.158C368.112 376.832 304.651 396.981 237.963 418.153C234.168 419.358 230.362 420.566 226.543 421.77C155.605 444.136 79.9997 465.111 -18.8317 437.238C-68.22 423.31 -90.3527 401.932 -100.602 376.368C-105.735 363.563 -107.901 349.675 -108.985 335.079C-109.61 326.651 -109.874 318.025 -110.143 309.241C-110.341 302.783 -110.541 296.241 -110.889 289.629C-112.531 258.481 -117.458 226.167 -140.994 195.993C-164.524 165.827 -206.596 137.87 -282.374 115.29C-357.983 92.7601 -405.414 50.6809 -429.94 0.198719C-454.472 -50.2937 -456.118 -109.25 -440.045 -165.567C-407.894 -278.224 -304.901 -380.153 -172.795 -382.475C-106.593 -383.638 -61.4527 -388.757 -26.8477 -398.223C7.77277 -407.694 31.8301 -421.511 55.8709 -440.036C68.6645 -449.895 81.447 -461.08 95.8135 -473.651L95.8139 -473.651L95.8156 -473.652L95.8198 -473.656L95.8271 -473.663L95.8328 -473.668L95.8331 -473.668C135.44 -508.326 187.089 -553.521 284.188 -610.514C416.375 -688.102 593.878 -673.021 724.506 -610.029C789.814 -578.537 843.353 -535.092 873.641 -485.33C903.918 -435.587 910.969 -379.531 883.327 -322.711C855.595 -265.707 841.7 -226.155 838.224 -193.993C834.746 -161.799 841.711 -137.043 855.605 -109.649C863.223 -94.6284 872.917 -78.8212 884.12 -60.5551C913.766 -12.2153 953.974 53.3451 994.211 167.113C1019.79 239.437 1015.26 295.428 989.905 337.396C964.543 379.379 918.286 407.434 860.198 423.739C744.016 456.351 580.771 441.878 443.886 398.163L443.877 398.16L443.869 398.158ZM229.63 395.509C162.343 416.734 90.4309 436.708 -3.55566 410.189C-50.5764 396.922 -71.8568 376.485 -81.7173 351.878C-86.6382 339.598 -88.7015 326.311 -89.7322 312.425C-90.3255 304.438 -90.5777 296.215 -90.8338 287.865L-90.8338 287.863L-90.8338 287.861L-90.8338 287.859L-90.8338 287.857L-90.8338 287.855L-90.8338 287.854L-90.8338 287.852L-90.8338 287.85L-90.8338 287.849L-90.8338 287.847L-90.8338 287.845L-90.8338 287.843L-90.8338 287.841L-90.8342 287.831C-91.0218 281.705 -91.2117 275.512 -91.5392 269.294C-93.092 239.816 -97.7474 209.41 -119.875 181.027C-142.01 152.637 -181.681 126.202 -253.421 104.815C-325.329 83.3776 -370.532 43.302 -393.92 -4.85819C-417.302 -53.008 -418.85 -109.182 -403.56 -162.781C-372.987 -269.959 -275.032 -367.015 -149.273 -369.226C-86.5421 -370.329 -43.8403 -375.182 -11.1478 -384.13C21.5292 -393.073 44.2244 -406.112 66.9362 -423.621C79.0202 -432.938 91.1152 -443.526 104.722 -455.438C142.278 -488.318 191.351 -531.279 283.494 -585.389C409.172 -659.193 577.812 -644.811 701.855 -584.967C763.882 -555.042 814.81 -513.725 843.652 -466.318C872.505 -418.891 879.248 -365.37 852.878 -311.14C826.598 -257.094 813.487 -219.703 810.211 -189.371C806.938 -159.071 813.476 -135.78 826.589 -109.916C833.771 -95.7474 842.933 -80.8006 853.532 -63.5108L853.532 -63.5101L853.533 -63.5086L853.533 -63.5081C881.644 -17.6489 919.859 44.6938 958.044 152.711C982.359 221.495 978.106 274.925 953.877 315.054C929.657 355.167 885.538 381.883 830.338 397.385C719.949 428.385 564.984 414.616 435.101 373.118C363.572 352.976 303.67 372.001 240.405 392.094C236.825 393.231 233.234 394.372 229.63 395.509ZM240.157 391.123C303.379 371.042 363.551 351.929 435.38 372.158L435.389 372.161L435.397 372.163C565.169 413.626 719.927 427.353 830.068 396.422C885.134 380.958 928.982 354.35 953.021 314.537C977.051 274.738 981.35 221.639 957.101 153.044C918.955 45.1372 880.839 -17.0432 852.733 -62.8936C842.112 -80.22 832.92 -95.2145 825.697 -109.463C812.523 -135.45 805.918 -158.936 809.217 -189.479C812.512 -219.989 825.687 -257.508 851.979 -311.577C878.181 -365.463 871.498 -418.623 842.797 -465.798C814.085 -512.992 763.333 -554.197 701.42 -584.066C577.583 -643.812 409.311 -658.114 284.001 -584.527C191.948 -530.47 142.985 -487.605 105.436 -454.732L105.435 -454.731C91.807 -442.8 79.6824 -432.185 67.5468 -422.83C44.7527 -405.257 21.9421 -392.149 -10.8837 -383.165C-43.6943 -374.185 -86.4923 -369.33 -149.256 -368.226C-274.485 -366.025 -372.12 -269.354 -402.599 -162.507C-417.835 -109.094 -416.274 -53.1808 -393.02 -5.29502C-369.771 42.5804 -324.811 82.4884 -253.135 103.856C-181.291 125.274 -141.399 151.794 -119.087 180.412C-96.7689 209.039 -92.0969 239.696 -90.5405 269.241C-90.2101 275.514 -90.0202 281.72 -89.833 287.845C-89.5784 296.176 -89.3282 304.357 -88.7349 312.351C-87.7075 326.194 -85.6548 339.364 -80.7891 351.506C-71.0763 375.744 -50.1013 396.017 -3.28405 409.227C90.4055 435.662 162.077 415.769 229.329 394.555C232.949 393.413 236.556 392.267 240.154 391.124L240.157 391.123ZM9.6067 386.66C99.2425 411.972 167.826 392.907 231.994 372.649C235.431 371.564 238.855 370.476 242.268 369.391C302.601 350.214 359.719 332.059 427.925 351.28C551.788 390.886 699.573 404.029 804.85 374.44C857.493 359.644 899.573 334.144 922.675 295.853C945.785 257.547 949.84 206.546 926.65 140.895C890.235 37.8008 853.79 -21.7026 826.982 -65.4706L826.981 -65.4719C816.875 -81.973 808.138 -96.2374 801.289 -109.758C788.786 -134.441 782.552 -156.665 785.673 -185.578C788.796 -214.523 801.298 -250.205 826.359 -301.786C851.51 -353.551 845.079 -404.64 817.56 -449.909C790.053 -495.159 741.481 -534.595 682.327 -563.156C564.032 -620.274 403.202 -634.001 283.342 -563.558C195.469 -511.914 148.669 -470.91 112.854 -439.53C99.8782 -428.162 88.3447 -418.056 76.8222 -409.166C55.1653 -392.456 33.5251 -380.014 2.36664 -371.479C-28.8072 -362.94 -69.527 -358.309 -129.349 -357.256C-249.289 -355.146 -342.71 -262.507 -371.868 -160.209C-386.45 -109.05 -384.974 -55.4316 -362.673 -9.47169C-340.367 36.4987 -297.253 74.7506 -228.674 95.2118C-160.263 115.623 -122.436 140.85 -101.332 167.941C-80.2344 195.024 -75.7951 224.038 -74.3144 252.17C-74.0021 258.09 -73.8212 263.988 -73.6422 269.822L-73.6422 269.824L-73.6422 269.826L-73.6422 269.828L-73.6422 269.83L-73.6422 269.833L-73.6422 269.835L-73.6422 269.837L-73.6422 269.84L-73.6422 269.843L-73.6422 269.845L-73.6422 269.848L-73.6422 269.851L-73.6422 269.854L-73.6422 269.857L-73.6422 269.86L-73.6418 269.868L-73.6415 269.875L-73.6411 269.882L-73.6407 269.89L-73.6404 269.897L-73.64 269.905L-73.6396 269.913C-73.3961 277.875 -73.1562 285.718 -72.5911 293.334C-71.6081 306.588 -69.6402 319.272 -64.9463 330.995C-55.5397 354.488 -35.2389 373.997 9.6067 386.66ZM428.204 350.32C359.699 331.011 302.31 349.255 242.02 368.42L242.017 368.421L241.934 368.447C238.531 369.529 235.118 370.614 231.693 371.696C167.56 391.942 99.217 410.926 9.87842 385.698C-34.7633 373.092 -54.7589 353.748 -64.0179 330.623C-68.6568 319.038 -70.6141 306.471 -71.5939 293.26C-72.1597 285.631 -72.3982 277.824 -72.641 269.873C-72.8196 264.028 -73.0006 258.105 -73.3158 252.117C-74.8 223.918 -79.2558 194.653 -100.543 167.326C-121.825 140.008 -159.873 114.696 -228.388 94.2535C-296.735 73.8616 -339.605 35.7775 -361.773 -9.90824C-383.946 -55.6043 -385.435 -108.962 -370.906 -159.935C-341.843 -261.902 -248.742 -354.155 -129.331 -356.256C-69.4772 -357.309 -28.6611 -361.943 2.6308 -370.515C33.9382 -379.09 55.694 -391.601 77.433 -408.374C89.0075 -417.305 100.571 -427.436 113.568 -438.823C149.376 -470.198 196.066 -511.106 283.849 -562.696C403.34 -632.923 563.802 -619.274 681.893 -562.256C740.932 -533.749 789.328 -494.427 816.705 -449.39C844.072 -404.372 850.443 -353.644 825.46 -302.223C800.387 -250.619 787.821 -214.808 784.678 -185.685C781.532 -156.53 787.832 -134.11 800.397 -109.306C807.286 -95.7053 816.052 -81.3935 826.181 -64.8564C852.984 -21.0972 889.331 38.2439 925.707 141.228C948.83 206.69 944.73 257.361 921.818 295.337C898.898 333.328 857.089 358.719 804.579 373.477C699.551 402.996 551.973 389.896 428.221 350.325L428.212 350.322L428.204 350.32ZM234.89 344.343C174.55 363.402 110.051 381.342 25.755 357.525C-16.4209 345.609 -35.5193 327.25 -44.369 305.136C-48.7845 294.102 -50.6354 282.165 -51.5598 269.694C-52.092 262.512 -52.3185 255.116 -52.5482 247.606C-52.7164 242.106 -52.8866 236.545 -53.1803 230.964C-54.5725 204.499 -58.7463 177.208 -78.5797 151.735C-98.419 126.253 -133.983 102.521 -198.308 83.3184C-262.803 64.0656 -303.351 28.0715 -324.33 -15.1877C-345.304 -58.4366 -346.691 -108.89 -332.978 -157.029C-305.558 -253.284 -217.701 -340.454 -104.902 -342.44C-48.6502 -343.431 -10.3631 -347.788 18.9472 -355.821C48.242 -363.849 68.5875 -375.554 88.9497 -391.273C99.7831 -399.636 110.628 -409.143 122.828 -419.838C156.506 -449.362 200.517 -487.944 283.15 -536.534C395.869 -602.816 547.113 -589.898 658.357 -536.157C713.984 -509.283 759.663 -472.177 785.533 -429.598C811.414 -386.999 817.463 -338.922 793.808 -290.209C770.242 -241.68 758.489 -208.113 755.552 -180.885C752.619 -153.69 758.479 -132.786 770.234 -109.567C776.672 -96.8492 784.887 -83.4303 794.39 -67.9066L794.391 -67.9047C819.599 -26.7258 853.873 29.2623 888.116 126.261C909.924 188.034 906.113 236.028 884.375 272.077C862.647 308.112 823.07 332.107 773.564 346.028C674.561 373.868 535.588 361.502 419.112 324.238C354.986 306.157 301.284 323.235 244.55 341.278C241.34 342.299 238.121 343.322 234.89 344.343ZM244.302 340.307C300.993 322.276 354.965 305.109 419.392 323.278L419.4 323.28L419.408 323.283C535.773 360.513 674.539 372.836 773.293 345.065C822.666 331.181 861.972 307.295 883.519 271.561C905.057 235.841 908.915 188.178 887.173 126.594C852.969 29.7053 818.794 -26.1206 793.59 -67.2909C784.065 -82.8507 775.821 -96.3172 769.341 -109.116C757.525 -132.456 751.598 -153.555 754.558 -180.993C757.514 -208.398 769.332 -242.094 792.909 -290.646C816.397 -339.015 810.407 -386.731 784.678 -429.079C758.938 -471.445 713.435 -508.438 657.922 -535.256C546.884 -588.899 396.007 -601.737 283.657 -535.672C201.115 -487.135 157.214 -448.65 123.542 -419.132C111.32 -408.418 100.446 -398.885 89.5608 -390.481C69.1163 -374.699 48.6553 -362.926 19.2115 -354.856C-10.2169 -346.791 -48.6004 -342.431 -104.884 -341.44C-217.154 -339.464 -304.69 -252.68 -332.016 -156.755C-345.677 -108.803 -344.276 -58.6091 -323.43 -15.6241C-302.589 27.3505 -262.284 63.1767 -198.022 82.3601C-133.592 101.594 -97.8075 125.411 -77.7906 151.12C-57.7678 176.837 -53.5775 204.378 -52.1816 230.911C-51.8867 236.52 -51.717 242.067 -51.5497 247.542L-51.5497 247.546L-51.5478 247.601L-51.5478 247.607L-51.5475 247.613L-51.5471 247.62C-51.3187 255.099 -51.0945 262.442 -50.5625 269.62C-49.6413 282.048 -47.8011 293.868 -43.4407 304.764C-34.7384 326.51 -15.9449 344.704 26.0269 356.563C110.026 380.296 174.284 362.438 234.589 343.389C237.837 342.363 241.074 341.334 244.302 340.307ZM38.9031 333.994C118.849 356.604 180.019 339.573 237.24 321.481C240.293 320.516 243.335 319.547 246.368 318.582L246.383 318.577L246.399 318.572C300.201 301.445 351.119 285.237 411.922 302.397C522.378 337.769 654.171 349.509 748.061 323.081C795.012 309.865 832.549 287.086 853.159 252.874C873.777 218.647 877.391 173.083 856.709 114.442C824.235 22.3669 791.731 -30.7819 767.826 -69.8698C758.814 -84.6049 751.025 -97.3418 744.92 -109.413C733.774 -131.449 728.219 -151.286 731 -177.095C733.784 -202.935 744.928 -234.794 767.276 -280.858C789.712 -327.106 783.974 -372.75 759.427 -413.192C734.891 -453.614 691.57 -488.839 638.815 -514.349C533.318 -565.364 389.884 -577.627 282.983 -514.706C204.621 -468.582 162.883 -431.957 130.945 -403.932C119.376 -393.781 109.094 -384.758 98.8216 -376.82C79.5143 -361.901 60.2238 -350.793 32.4475 -343.173C4.65582 -335.549 -31.6494 -331.413 -84.9914 -330.473C-191.973 -328.588 -275.295 -245.834 -301.3 -154.459C-314.306 -108.761 -312.99 -60.8628 -293.097 -19.8038C-273.199 21.2657 -234.741 55.4361 -173.576 73.713C-112.579 91.9394 -78.8596 114.465 -60.0505 138.646C-41.2474 162.82 -37.2898 188.718 -35.9696 213.837C-35.6913 219.133 -35.5299 224.411 -35.3703 229.632L-35.37 229.645L-35.37 229.648C-35.1521 236.772 -34.9374 243.789 -34.4328 250.601C-33.5561 262.44 -31.8008 273.773 -27.6122 284.25C-19.2163 305.251 -1.09765 322.682 38.9031 333.994ZM412.202 301.437C351.098 284.189 299.909 300.486 246.151 317.602C243.089 318.576 240.019 319.554 236.939 320.528C179.752 338.608 118.823 355.558 39.1752 333.032C-0.621083 321.777 -18.435 304.511 -26.6836 283.879C-30.8174 273.539 -32.5621 262.323 -33.4355 250.527C-33.9398 243.718 -34.1523 236.754 -34.3688 229.66L-34.3691 229.646C-34.5283 224.426 -34.6897 219.135 -34.9709 213.785C-36.2947 188.598 -40.2688 162.449 -59.2612 138.032C-78.2475 113.623 -112.187 91.0126 -173.29 72.7549C-234.223 54.5475 -272.437 20.5451 -292.197 -20.2398C-311.962 -61.0352 -313.291 -108.673 -300.338 -154.185C-274.427 -245.231 -191.425 -327.597 -84.9737 -329.473C-31.5993 -330.414 4.80206 -334.552 32.712 -342.209C60.6374 -349.869 80.0435 -361.046 99.433 -376.029C109.757 -384.006 120.069 -393.056 131.66 -403.226L131.66 -403.226L131.66 -403.227C163.591 -431.245 205.219 -467.773 283.491 -513.844C390.023 -576.549 533.088 -564.364 638.38 -513.449C691.02 -487.994 734.166 -452.882 758.572 -412.673C782.966 -372.482 788.645 -327.198 766.376 -281.295C744.018 -235.208 732.809 -203.22 730.006 -177.202C727.198 -151.152 732.82 -131.119 744.027 -108.961C750.173 -96.8106 757.991 -84.0268 767.025 -69.2563C790.925 -30.1771 823.33 22.8094 855.766 114.774C876.381 173.226 872.722 218.461 852.302 252.358C831.874 286.27 794.607 308.94 747.79 322.118C654.15 348.476 522.564 336.78 412.218 301.442L412.21 301.44L412.202 301.437ZM239.925 295.353C186.248 312.339 128.86 328.332 53.8583 307.102C16.3296 296.479 -0.675889 280.109 -8.55601 260.381C-12.4868 250.541 -14.1338 239.897 -14.9562 228.781C-15.4297 222.38 -15.6312 215.786 -15.8357 209.092C-15.9853 204.19 -16.1367 199.235 -16.3978 194.264C-17.6361 170.682 -21.348 146.376 -38.9803 123.688C-56.6186 100.992 -88.2418 79.8466 -145.456 62.7356C-202.839 45.5741 -238.922 13.4878 -257.591 -25.079C-276.256 -63.6354 -277.489 -108.612 -265.288 -151.522C-240.891 -237.32 -162.722 -315.025 -62.3519 -316.795C-12.3157 -317.678 21.7369 -321.561 47.8029 -328.718C73.8536 -335.87 91.9454 -346.297 110.054 -360.302C119.687 -367.753 129.332 -376.223 140.183 -385.753L140.184 -385.754C170.143 -412.065 209.299 -446.454 282.809 -489.759C383.098 -548.84 517.656 -537.323 616.624 -489.425C666.113 -465.473 706.756 -432.399 729.775 -394.441C752.806 -356.465 758.19 -313.601 737.139 -270.171C716.177 -226.924 705.725 -197.017 703.114 -172.762C700.506 -148.539 705.714 -129.921 716.168 -109.235C721.893 -97.9051 729.199 -85.9484 737.652 -72.1154C760.076 -35.4173 790.569 14.4865 821.032 100.935C840.435 155.995 837.047 198.784 817.7 230.928C798.362 263.057 763.141 284.447 719.096 296.856C631.015 321.67 507.381 310.647 403.765 277.437C346.739 261.328 298.984 276.543 248.514 292.623C245.661 293.532 242.798 294.444 239.925 295.353ZM248.266 291.652C298.692 275.584 346.718 260.28 404.045 276.477L404.053 276.479L404.062 276.482C507.567 309.658 630.993 320.637 718.825 295.893C762.736 283.522 797.685 262.242 816.843 230.412C835.992 198.598 839.425 156.139 820.089 101.267C789.665 14.9288 759.27 -34.8129 736.85 -71.5023C728.376 -85.3707 721.041 -97.3742 715.275 -108.784C704.761 -129.591 699.485 -148.405 702.119 -172.869C704.75 -197.302 715.266 -227.337 736.239 -270.607C757.123 -313.693 751.798 -356.198 728.92 -393.923C706.03 -431.667 665.563 -464.628 616.188 -488.525C517.426 -536.324 383.236 -547.761 283.316 -488.897C209.897 -445.645 170.851 -411.354 140.899 -385.048C130.026 -375.499 120.351 -367.002 110.666 -359.511C92.4749 -345.443 74.2675 -334.947 48.0677 -327.754C21.8834 -320.564 -12.2658 -316.679 -62.3342 -315.796C-162.173 -314.035 -240.023 -236.717 -264.326 -151.249C-276.474 -108.525 -275.228 -63.8076 -256.691 -25.5147C-238.16 12.7677 -202.32 44.6856 -145.17 61.7775C-87.8502 78.9199 -56.0062 100.15 -38.1908 123.074C-20.3694 146.005 -16.641 170.563 -15.3991 194.212C-15.1352 199.237 -14.9839 204.204 -14.8346 209.105L-14.8342 209.118L-14.8342 209.121C-14.6312 215.779 -14.4319 222.315 -13.959 228.707C-13.1396 239.78 -11.5033 250.307 -7.62743 260.01C0.105605 279.369 16.8065 295.575 54.1306 306.14C128.835 327.285 185.981 311.375 239.623 294.4C242.513 293.485 245.394 292.568 248.266 291.652ZM68.2166 281.331C138.472 301.238 192.229 286.242 242.503 270.315C245.193 269.463 247.872 268.609 250.544 267.757L250.545 267.757L250.546 267.756L250.547 267.756C297.818 252.679 342.535 238.417 395.936 253.517C492.985 284.655 608.786 294.992 691.29 271.724C732.547 260.089 765.543 240.031 783.66 209.897C801.787 179.749 804.959 139.621 786.784 87.9916C758.251 6.93562 729.689 -39.8585 708.686 -74.2664L708.685 -74.2686C700.77 -87.2361 693.929 -98.4444 688.567 -109.064C678.779 -128.455 673.902 -145.905 676.344 -168.609C678.789 -191.344 688.576 -219.381 708.209 -259.928C727.931 -300.658 722.886 -340.857 701.311 -376.471C679.747 -412.066 641.676 -443.079 595.321 -465.538C502.622 -510.45 376.584 -521.251 282.642 -465.85C213.79 -425.246 177.114 -393.001 149.055 -368.332L149.054 -368.332C138.892 -359.397 129.859 -351.456 120.838 -344.472C103.88 -331.343 86.9394 -321.569 62.5455 -314.864C38.136 -308.155 6.24566 -304.514 -40.6166 -303.687C-134.64 -302.027 -207.862 -229.159 -230.715 -148.706C-242.144 -108.469 -240.989 -66.2913 -223.504 -30.1334C-206.015 6.03513 -172.212 36.1242 -118.46 52.2167C-64.8772 68.2587 -35.2661 88.0813 -18.7517 109.353C-2.24338 130.618 1.23269 153.4 2.39236 175.508C2.63674 180.166 2.77859 184.811 2.91884 189.407C3.11037 195.684 3.29909 201.869 3.74269 207.87C4.51296 218.294 6.05593 228.277 9.73903 237.508C17.124 256.015 33.0609 271.369 68.2166 281.331ZM396.216 252.557C342.515 237.369 297.526 251.72 250.298 266.785C247.607 267.644 244.909 268.504 242.201 269.362C191.962 285.277 138.447 300.192 68.4892 280.369C33.5383 270.465 17.906 255.276 10.6677 237.137C7.03932 228.044 5.5071 218.177 4.73989 207.797C4.29689 201.81 4.11037 195.69 3.92031 189.454L3.92031 189.453L3.92031 189.452L3.92031 189.451L3.92031 189.45L3.92031 189.449L3.92031 189.448L3.92031 189.446L3.92031 189.445L3.92031 189.444L3.92031 189.442L3.92031 189.441L3.92031 189.439L3.92031 189.437L3.92031 189.435L3.92031 189.434L3.92031 189.432L3.91994 189.422L3.91958 189.412L3.91921 189.403L3.91884 189.394L3.91848 189.385L3.91811 189.377L3.91774 189.369L3.91738 189.361L3.91701 189.354L3.91665 189.347L3.91628 189.34L3.91591 189.334L3.91591 189.328C3.77736 184.763 3.63686 180.136 3.39113 175.455C2.22781 153.28 -1.26462 130.248 -17.9619 108.74C-34.6533 87.24 -64.4851 67.3322 -118.173 51.2587C-171.693 35.2359 -205.252 5.31546 -222.604 -30.5687C-239.962 -66.4634 -241.129 -108.382 -229.753 -148.433C-206.994 -228.557 -134.09 -301.036 -40.5991 -302.687C6.29571 -303.515 38.2826 -307.158 62.8105 -313.9C87.3538 -320.645 104.41 -330.488 121.45 -343.681C130.524 -350.706 139.586 -358.673 149.77 -367.627C177.823 -392.29 214.389 -424.438 283.15 -464.989C376.723 -520.171 502.392 -509.451 594.885 -464.638C641.125 -442.235 679.021 -411.335 700.455 -375.953C721.878 -340.59 726.864 -300.75 707.309 -260.364C687.665 -219.794 677.814 -191.629 675.35 -168.716C672.882 -145.771 677.825 -128.126 687.675 -108.614C693.076 -97.9132 699.947 -86.6575 707.885 -73.6536C728.882 -39.2544 757.347 7.3776 785.841 88.3236C803.949 139.765 800.732 179.563 782.803 209.382C764.866 239.215 732.141 259.164 691.019 270.762C608.765 293.959 493.171 283.666 396.233 252.562L396.225 252.56L396.216 252.557ZM245.08 245.276C198.208 260.143 148.082 274.144 82.5726 255.559C49.7898 246.258 34.9218 231.921 28.0319 214.633C24.5962 206.013 23.1575 196.69 22.4392 186.959C22.0257 181.357 21.8496 175.582 21.671 169.722C21.5403 165.432 21.4081 161.097 21.1804 156.75C20.0994 136.116 16.8592 114.859 1.47464 95.0181C-13.9157 75.1697 -41.5146 56.6696 -91.4665 41.6966C-141.588 26.673 -173.11 -1.41879 -189.42 -35.1889C-205.725 -68.9486 -206.801 -108.327 -196.144 -145.892C-174.836 -220.999 -106.56 -289.03 -18.8837 -290.58C24.8047 -291.352 54.5328 -294.75 77.2856 -301.011C100.023 -307.268 115.813 -316.389 131.62 -328.642C140.027 -335.159 148.446 -342.569 157.918 -350.907L157.92 -350.909L157.923 -350.911C184.083 -373.938 218.28 -404.04 282.473 -441.943C370.068 -493.663 487.586 -483.579 574.016 -441.653C617.236 -420.687 652.736 -391.735 672.844 -358.502C692.963 -325.251 697.669 -287.716 679.277 -249.686C660.974 -211.839 651.851 -185.673 649.572 -164.457C647.297 -143.272 651.841 -126.99 660.965 -108.895C665.962 -98.9836 672.339 -88.5224 679.719 -76.4184C699.299 -44.3008 725.931 -0.616447 752.534 75.0473C769.48 123.246 766.524 160.714 749.619 188.866C732.722 217.003 701.951 235.73 663.482 246.592C586.555 268.313 478.587 258.663 388.104 229.597C338.33 215.505 296.649 228.815 252.577 242.888C250.086 243.683 247.588 244.481 245.08 245.276ZM252.328 241.917C296.356 227.856 338.309 214.457 388.385 228.637L388.393 228.639L388.402 228.642C478.773 257.674 586.534 267.28 663.21 245.629C701.544 234.805 732.045 216.188 748.761 188.351C765.469 160.528 768.47 123.39 751.59 75.3789C725.027 -0.174522 698.493 -43.6968 678.917 -75.8056L678.917 -75.8062C671.516 -87.9456 665.109 -98.4536 660.072 -108.444C650.887 -126.662 646.276 -143.138 648.578 -164.564C650.876 -185.957 660.062 -212.252 678.377 -250.121C696.602 -287.808 691.956 -324.984 671.988 -357.985C652.009 -391.004 616.685 -419.843 573.579 -440.753C487.355 -482.579 370.207 -492.583 282.982 -441.082C218.879 -403.233 184.792 -373.228 158.639 -350.207L158.639 -350.207C149.143 -341.848 140.693 -334.41 132.233 -327.852C116.344 -315.535 100.438 -306.345 77.551 -300.047C54.6796 -293.753 24.8548 -290.353 -18.8662 -289.58C-106.009 -288.039 -173.967 -220.398 -195.182 -145.619C-205.787 -108.24 -204.697 -69.1204 -188.519 -35.6239C-172.346 -2.1379 -141.067 25.785 -91.1794 40.7388C-41.122 55.7433 -13.3025 74.3287 2.2648 94.4053C17.8379 114.489 21.0945 135.997 22.179 156.698C22.4096 161.099 22.5418 165.447 22.6721 169.737L22.6725 169.745C22.8496 175.572 23.0235 181.29 23.4365 186.885C24.1516 196.573 25.5799 205.779 28.9608 214.263C35.7041 231.183 50.268 245.354 82.8455 254.597C148.057 273.097 197.94 259.178 244.777 244.323C247.302 243.522 249.818 242.719 252.328 241.917ZM247.383 220.237C203.89 234.044 157.37 247.05 96.5734 229.787C66.147 221.147 52.3404 207.826 45.942 191.758C42.7522 183.747 41.4169 175.086 40.7501 166.047C40.3668 160.848 40.2034 155.488 40.0376 150.049L40.0373 150.036L40.0371 150.029C39.9158 146.047 39.7932 142.023 39.5821 137.991C38.5791 118.831 35.5731 99.0983 21.3046 80.6809C7.03042 62.256 -18.5704 45.0781 -64.9164 31.174C-111.432 17.219 -140.689 -8.87569 -155.828 -40.2479C-170.962 -71.6096 -171.961 -108.189 -162.07 -143.082C-142.295 -212.845 -78.931 -276.039 2.44231 -277.479C42.9793 -278.196 70.5601 -281.352 91.668 -287.165C112.76 -292.974 127.408 -301.443 142.072 -312.819C149.87 -318.87 157.679 -325.75 166.467 -333.491L166.469 -333.493L166.472 -333.496L166.474 -333.498C190.748 -354.883 222.483 -382.842 282.051 -418.044C363.342 -466.083 472.4 -456.716 552.605 -417.776C592.713 -398.303 625.659 -371.411 644.322 -340.541C662.996 -309.652 667.364 -274.78 650.292 -239.45C633.309 -204.303 624.847 -180.007 622.733 -160.31C620.622 -140.645 624.837 -125.53 633.3 -108.729C637.935 -99.5282 643.852 -89.8152 650.698 -78.5764L650.699 -78.5744C668.867 -48.7467 693.583 -8.17156 718.268 62.1007C733.995 106.869 731.254 141.677 715.56 167.833C699.875 193.975 671.313 211.37 635.614 221.459C564.225 241.634 464.035 232.67 380.073 205.675C333.898 192.592 295.233 204.949 254.338 218.019C252.027 218.758 249.71 219.499 247.383 220.237ZM254.089 217.049C294.94 203.99 333.878 191.544 380.354 204.716L380.362 204.718L380.371 204.721C464.221 231.682 564.204 240.601 635.342 220.497C670.907 210.446 699.198 193.16 714.703 167.318C730.199 141.491 732.985 107.013 717.325 62.4321C692.678 -7.73037 668.06 -48.1436 649.896 -77.9626C643.028 -89.2376 637.083 -98.998 632.407 -108.279C623.882 -125.202 619.602 -140.51 621.739 -160.416C623.872 -180.291 632.398 -204.715 649.392 -239.885C666.297 -274.872 661.988 -309.385 643.466 -340.023C624.932 -370.681 592.161 -397.459 552.168 -416.876C472.169 -455.716 363.481 -465.004 282.56 -417.183C223.082 -382.034 191.457 -354.173 167.19 -332.793C158.379 -325.03 150.537 -318.122 142.685 -312.029C127.938 -300.589 113.175 -292.052 91.9335 -286.201C70.7071 -280.355 43.0295 -277.197 2.46001 -276.479C-78.3798 -275.048 -141.425 -212.245 -161.108 -142.809C-170.946 -108.102 -169.935 -71.7812 -154.928 -40.6825C-139.926 -9.59441 -110.911 16.3313 -64.629 30.2162C-18.1775 44.152 7.64407 61.4153 22.0951 80.0684C36.5519 98.729 39.5742 118.712 40.5807 137.939C40.7946 142.023 40.9171 146.057 41.038 150.036L41.038 150.038L41.0384 150.05L41.0385 150.056L41.0385 150.057C41.2029 155.468 41.3642 160.777 41.7475 165.973C42.4109 174.969 43.7359 183.514 46.8711 191.388C53.1228 207.088 66.6258 220.244 96.8466 228.825C157.344 246.003 203.622 233.079 247.081 219.284C249.416 218.543 251.743 217.799 254.064 217.057L254.07 217.055L254.076 217.053L254.082 217.051L254.089 217.049ZM250.196 196.547C209.604 209.086 166.343 220.968 110.297 205.054C81.626 196.912 68.401 184.546 62.12 169.687C58.9885 162.279 57.5971 154.283 56.8491 145.947C56.3994 140.936 56.1807 135.77 55.9588 130.529L55.9588 130.527L55.9586 130.524L55.9585 130.521L55.9583 130.518L55.9583 130.516L55.957 130.486C55.8113 127.046 55.6643 123.573 55.4492 120.092C54.3589 102.442 51.5181 84.2743 38.377 67.2749C25.2307 50.2686 1.72147 34.3638 -40.8557 21.3855L-40.7188 20.9364L-40.8562 21.3853C-83.7007 8.28148 -110.783 -16.03 -124.878 -45.2C-138.968 -74.3599 -140.055 -108.322 -131.014 -140.696C-112.938 -205.426 -54.3212 -263.974 22.1921 -265.284C60.0763 -265.935 85.8436 -268.903 105.541 -274.345C125.223 -279.784 138.864 -287.698 152.488 -298.279C159.636 -303.829 166.785 -310.12 174.8 -317.173L174.801 -317.174C197.361 -337.027 226.786 -362.919 282.358 -395.343C357.824 -439.373 458.635 -430.731 532.824 -394.725C569.924 -376.719 600.418 -351.846 617.768 -323.231C635.129 -294.598 639.322 -262.22 623.798 -229.303L623.796 -229.301C608.358 -197.056 600.658 -174.643 598.741 -156.372C596.826 -138.131 600.672 -123.986 608.415 -108.261C612.756 -99.4442 618.331 -90.1231 624.798 -79.3086C641.41 -51.5327 663.913 -13.9057 686.546 50.3274C701.01 91.423 698.451 123.527 683.94 147.754C669.438 171.966 643.061 188.21 610.102 197.726C544.193 216.755 451.709 208.963 374.133 183.887C330.894 171.478 294.535 182.774 256.156 194.699L256.14 194.704C254.164 195.317 252.183 195.933 250.196 196.547ZM255.918 193.725C294.252 181.813 330.88 170.431 374.416 182.928L374.424 182.93L374.432 182.933C451.893 207.972 544.166 215.722 609.824 196.765C642.649 187.288 668.759 171.155 683.082 147.24C697.397 123.34 700 91.5643 685.602 50.6596C663.006 -13.4704 640.6 -50.9322 623.995 -78.6965L623.994 -78.6976C617.504 -89.5482 611.901 -98.9177 607.518 -107.819C599.716 -123.664 595.807 -138 597.746 -156.477C599.682 -174.923 607.444 -197.463 622.893 -229.731C638.257 -262.306 634.123 -294.329 616.913 -322.712C599.692 -351.115 569.372 -375.875 532.387 -393.825C458.405 -429.731 357.961 -438.295 282.862 -394.479C227.383 -362.11 198.068 -336.314 175.514 -316.467C167.478 -309.395 160.299 -303.078 153.102 -297.489C139.395 -286.844 125.639 -278.861 105.807 -273.381C85.9909 -267.906 60.1266 -264.936 22.2093 -264.284C-53.7738 -262.984 -112.068 -204.823 -130.051 -140.428C-139.039 -108.24 -137.942 -74.5351 -123.978 -45.6351C-110.018 -16.7453 -83.1746 7.39659 -40.5637 20.4291C2.11917 33.4396 25.8467 49.4305 39.1682 66.6633C52.495 83.903 55.3531 102.318 56.4473 120.03C56.666 123.571 56.8139 127.072 56.96 130.528C57.1804 135.744 57.3966 140.859 57.8451 145.858C58.5889 154.147 59.9674 162.027 63.041 169.298C69.1702 183.797 82.0954 196.006 110.57 204.092C166.319 219.922 209.339 208.121 249.901 195.591C251.847 194.99 253.788 194.387 255.724 193.785L255.851 193.746L255.918 193.725ZM124.005 180.319C175.301 194.886 215.303 184.127 252.994 172.855C254.642 172.362 256.285 171.868 257.925 171.375L257.947 171.369C293.811 160.593 327.871 150.359 368.178 162.096C439.37 185.253 524.146 191.874 584.576 173.991C614.795 165.047 638.988 149.956 652.306 127.673C665.633 105.375 668.012 75.975 654.809 38.5523L654.808 38.552C634.237 -19.6199 613.948 -54.2781 598.896 -79.9902L598.896 -79.9911C592.8 -90.4032 587.564 -99.3483 583.515 -107.794C576.493 -122.443 573.015 -135.62 574.734 -152.437C576.455 -169.282 583.393 -189.812 597.286 -219.154L597.289 -219.16C611.266 -249.663 607.247 -279.546 591.2 -305.923C575.164 -332.282 547.121 -355.136 513.029 -371.676C444.856 -404.749 352.291 -412.664 282.652 -372.644C231.081 -343.008 203.97 -319.182 183.123 -300.861L183.121 -300.86L183.119 -300.858L183.117 -300.857C175.874 -294.491 169.386 -288.789 162.891 -283.739C150.305 -273.955 137.672 -266.594 119.4 -261.527C101.113 -256.456 77.159 -253.677 41.9275 -253.09C-29.7257 -251.912 -83.595 -198.009 -99.9722 -138.313C-108.163 -108.456 -106.988 -77.1118 -93.9421 -50.1539C-80.8911 -23.1864 -55.984 -0.658128 -16.8108 11.5948L-16.8098 11.5951C21.9987 23.6475 43.4165 38.2793 55.4351 53.8671C67.449 69.4488 70.1245 86.0524 71.3022 102.192C71.5175 105.144 71.683 108.088 71.8472 111.008L71.8483 111.027C72.1313 116.064 72.4104 121.03 72.9339 125.847C73.7633 133.481 75.2112 140.811 78.2846 147.616C84.4483 161.265 97.0911 172.676 124.005 180.319ZM368.465 161.138C327.865 149.313 293.54 159.628 257.722 170.392L257.713 170.395C256.048 170.895 254.379 171.397 252.707 171.897C215.043 183.161 175.28 193.84 124.279 179.357C97.5503 171.767 85.2022 160.505 79.1958 147.205C76.1841 140.536 74.7521 133.323 73.928 125.739C73.4069 120.943 73.1308 116.028 72.8493 111.013C72.6846 108.081 72.518 105.115 72.2995 102.119C71.1176 85.9216 68.4236 69.0751 56.2271 53.2565C44.0352 37.4441 22.4016 22.7255 -16.5132 10.6401C-55.4526 -1.53987 -80.1246 -23.8978 -93.042 -50.5896C-105.964 -77.2911 -107.147 -108.38 -99.0079 -138.048C-82.7248 -197.402 -29.1823 -250.921 41.944 -252.091C77.2095 -252.678 101.26 -255.46 119.667 -260.564C138.089 -265.672 150.838 -273.102 163.505 -282.95C170.049 -288.038 176.567 -293.766 183.833 -300.151C204.674 -318.467 231.676 -342.196 283.15 -371.777C352.426 -411.588 444.627 -403.748 512.592 -370.776C546.569 -354.293 574.438 -331.551 590.346 -305.403C606.243 -279.274 610.201 -249.742 596.381 -219.58C582.476 -190.213 575.478 -169.557 573.739 -152.538C571.997 -135.492 575.534 -122.128 582.613 -107.361C586.706 -98.8247 591.972 -89.8295 598.09 -79.3806L598.091 -79.3774L598.092 -79.377C613.136 -53.6805 633.328 -19.1924 653.866 38.885C667.001 76.1137 664.58 105.187 651.447 127.16C638.305 149.149 614.377 164.128 584.292 173.032C524.114 190.841 439.549 184.261 368.48 161.143L368.472 161.14L368.465 161.138ZM255.785 149.163C220.997 159.167 184.253 168.802 137.709 155.584C112.551 148.439 100.491 137.984 94.4444 125.546C89.4268 115.226 88.5818 103.576 87.7083 91.5316L87.7077 91.5233C87.5338 89.1262 87.3588 86.7135 87.1494 84.2925C85.8844 69.6626 83.3744 54.6229 72.4873 40.4586C61.5962 26.289 42.2694 12.9302 7.22989 1.80379L7.2283 1.8033C-28.2738 -9.59874 -51.0052 -30.3437 -63.0119 -55.1084C-75.0142 -79.864 -76.2777 -108.59 -68.9366 -135.929C-54.2583 -190.594 -5.13545 -239.85 61.6574 -240.898C94.2358 -241.419 116.376 -244.01 133.253 -248.71C150.114 -253.406 161.741 -260.212 173.288 -269.201C179.136 -273.754 184.969 -278.872 191.451 -284.56C210.585 -301.351 235.378 -323.108 282.94 -349.947C346.753 -385.956 431.071 -378.767 493.228 -348.627C524.312 -333.554 549.903 -312.719 564.627 -288.616C579.36 -264.496 583.205 -237.106 570.775 -209.017L570.771 -209.008C558.422 -182.57 552.247 -163.921 550.722 -148.502C549.199 -133.109 552.308 -120.9 558.61 -107.326C562.385 -99.1964 567.288 -90.6096 573.021 -80.5663C576.892 -73.7866 581.142 -66.3432 585.679 -57.9286C596.922 -37.0792 609.878 -10.3565 623.066 26.776L623.066 26.7765C635.008 60.5267 632.81 87.2227 620.666 107.592C608.532 127.945 586.524 141.884 559.045 150.254C504.095 166.993 427.024 161.543 362.217 140.305C324.837 129.236 293.068 138.404 259.716 148.029C258.408 148.407 257.098 148.785 255.785 149.163ZM259.506 147.049C292.811 137.436 324.839 128.191 362.508 139.348L362.515 139.35L362.522 139.352C427.2 160.55 504.055 165.959 558.753 149.298C586.098 140.968 607.846 127.142 619.807 107.08C631.759 87.0326 633.996 60.6623 622.123 27.1101C608.956 -9.9661 596.022 -36.6418 584.799 -57.454C580.294 -65.8086 576.056 -73.2327 572.187 -80.0108C566.431 -90.0933 561.492 -98.7462 557.703 -106.905C551.348 -120.594 548.182 -132.984 549.727 -148.601C551.269 -164.191 557.502 -182.962 569.863 -209.427C582.141 -237.178 578.357 -264.22 563.773 -288.095C549.178 -311.988 523.76 -332.711 492.792 -347.727C430.844 -377.766 346.885 -384.882 283.432 -349.076C235.971 -322.294 211.286 -300.633 192.157 -283.847C185.656 -278.142 179.796 -273 173.902 -268.412C162.274 -259.36 150.532 -252.484 133.521 -247.747C116.524 -243.013 94.2865 -240.42 61.673 -239.898C-4.59712 -238.858 -53.3873 -189.981 -67.9708 -135.67C-75.2606 -108.521 -73.9921 -80.0481 -62.112 -55.5446C-50.2364 -31.0505 -27.7352 -10.4763 7.53336 0.850941C42.6794 12.0113 62.2184 25.4575 73.2802 39.8492C84.3462 54.2463 86.8762 69.5243 88.1457 84.2063C88.3582 86.664 88.5355 89.102 88.7111 91.515C89.5872 103.558 90.418 114.978 95.3438 125.109C101.227 137.211 112.999 147.527 137.982 154.622C184.235 167.757 220.741 158.2 255.508 148.201C256.067 148.041 256.625 147.88 257.183 147.719L258.363 147.379L259.257 147.121L259.506 147.049ZM151.425 130.846C193.218 142.715 226.703 134.204 258.589 125.467C259.553 125.203 260.516 124.939 261.477 124.674C292.321 116.204 321.81 108.105 356.27 118.51C414.693 137.83 484.058 142.108 533.528 126.515C558.267 118.717 578.089 105.93 589.04 87.5067C600 69.0675 602.018 45.0754 591.337 14.9974L591.337 14.9966C579.42 -18.3823 567.812 -42.5827 557.781 -61.5784C554 -68.7393 550.449 -75.1494 547.192 -81.0282L547.19 -81.0319L547.185 -81.0414L547.177 -81.0555L547.176 -81.0564L547.176 -81.0579C542.794 -88.9679 538.945 -95.9158 535.784 -102.436L526.698 -144.303C526.706 -144.392 526.714 -144.482 526.723 -144.571C528.052 -158.565 533.466 -175.331 544.269 -198.866L544.272 -198.873L544.275 -198.879C555.157 -224.554 551.487 -249.449 538.066 -271.312C524.656 -293.159 501.517 -311.975 473.441 -325.582C417.299 -352.789 341.229 -359.25 283.243 -327.252C239.7 -303.225 217.229 -283.539 199.808 -268.277L199.807 -268.277C194.081 -263.261 188.901 -258.723 183.698 -254.666C173.19 -246.473 162.57 -240.22 147.119 -235.896C131.653 -231.567 111.326 -229.165 81.4009 -228.709C19.469 -227.791 -24.9079 -183.182 -37.8873 -133.548C-44.3784 -108.726 -43.0261 -82.6189 -32.0678 -60.066C-21.1057 -37.5047 -0.550502 -18.543 31.2802 -7.99168L31.2825 -7.99095C62.5532 2.20943 79.7892 14.295 89.5531 27.0467C99.3138 39.794 101.658 53.2703 103.011 66.3913C103.206 68.2898 103.381 70.1829 103.555 72.0665C104.58 83.1624 105.573 93.9231 110.62 103.475C116.549 114.7 128.025 124.199 151.425 130.846ZM546.332 -80.5169C542.719 -87.0382 539.459 -92.9236 536.648 -98.4515L557.104 -4.1923C547.354 -30.3688 538.002 -50.0213 529.874 -65.8202C526.851 -71.6955 524.002 -77.0302 521.366 -81.9653L521.366 -81.9659C516.303 -91.4468 512.026 -99.4535 508.819 -106.988C503.957 -118.41 501.584 -128.685 502.715 -141.234C503.825 -153.547 508.312 -168.083 517.2 -188.068L526.031 -147.376C527.783 -160.981 533.223 -177.198 543.357 -199.277C554.094 -224.616 550.485 -249.169 537.214 -270.789C523.932 -292.428 500.964 -311.132 473.005 -324.682C417.074 -351.787 341.357 -358.179 283.726 -326.377C240.289 -302.407 217.926 -282.817 200.509 -267.56L200.506 -267.557L200.503 -267.555L200.502 -267.554L200.499 -267.552L200.499 -267.551L200.492 -267.545C194.755 -262.519 189.554 -257.964 184.313 -253.877C173.725 -245.622 162.99 -239.299 147.388 -234.933C131.802 -230.57 111.377 -228.165 81.4158 -227.709C20.0013 -226.799 -24.0358 -182.564 -36.9199 -133.295C-43.3603 -108.666 -42.0066 -82.8089 -31.1684 -60.5031C-20.3347 -38.2063 -0.00435971 -19.416 31.5926 -8.94166C62.9709 1.29382 80.4154 13.468 90.3471 26.4388C100.282 39.4139 102.648 53.1229 104.005 66.2887C104.203 68.2032 104.379 70.1041 104.553 71.9886L104.555 72.0081C105.583 83.1136 106.559 93.6474 111.504 103.008C117.264 113.913 128.461 123.283 151.699 129.884C193.204 141.672 226.452 133.236 258.324 124.503C259.312 124.232 260.299 123.961 261.284 123.69C292.079 115.232 321.822 107.062 356.565 117.554L356.578 117.558C414.864 136.834 484.009 141.075 533.227 125.561C557.833 117.806 577.4 105.132 588.18 86.9958C598.951 68.8752 601.004 45.2073 590.394 15.332C578.497 -17.9933 566.91 -42.1494 556.897 -61.1114C553.137 -68.2323 549.592 -74.6316 546.334 -80.5136L546.332 -80.5169ZM516.845 -189.706L517.2 -188.068C517.384 -188.482 517.571 -188.899 517.759 -189.318L517.763 -189.327L517.766 -189.336C527.099 -212.596 523.603 -234.995 511.497 -254.602C499.4 -274.192 478.712 -290.99 453.644 -303.129C403.518 -327.403 335.696 -333.138 283.537 -305.152C244.026 -283.951 223.882 -266.339 208.173 -252.604C203.194 -248.251 198.661 -244.288 194.099 -240.723C184.63 -233.326 175.017 -227.628 160.976 -223.675C146.92 -219.717 128.407 -217.503 101.135 -217.112C44.065 -216.326 4.43291 -176.363 -6.84749 -131.76C-12.4885 -109.455 -11.047 -85.9661 -1.13326 -65.6166C8.78422 -45.2593 27.1626 -28.081 55.3217 -18.3801L55.3248 -18.3791C82.8266 -9.1049 97.9724 1.70745 106.609 13.0416C115.244 24.3726 117.423 36.2861 118.863 47.8991C119.034 49.2801 119.195 50.6581 119.355 52.0311C120.538 62.1697 121.689 72.033 126.788 80.8141C132.6 90.8236 143.49 99.3658 165.133 105.515C202.174 116.035 232.4 108.648 261.382 101.179C261.955 101.031 262.528 100.883 263.1 100.736L263.2 100.71C291.539 93.3981 318.763 86.3737 350.313 96.1218C402.353 113.524 464.013 116.63 508.003 102.182C530.002 94.9564 547.638 83.3216 557.404 66.8287C567.18 50.3195 569.019 29.0316 559.598 2.62506L559.598 2.62399C558.764 0.303707 557.933 -1.96787 557.104 -4.1923L558.656 2.96109C548.028 -26.6136 537.789 -48.2506 528.985 -65.3627C525.984 -71.1956 523.146 -76.5105 520.514 -81.4388L520.513 -81.4399C515.433 -90.9512 511.123 -99.022 507.899 -106.596C502.991 -118.128 500.569 -128.57 501.719 -141.323C502.867 -154.055 507.571 -169.057 516.842 -189.718L516.838 -189.709L516.845 -189.706ZM516.845 -189.706L517.302 -189.523L516.846 -189.727L516.842 -189.718L516.845 -189.706ZM55.6474 -19.3256C83.2553 -10.0153 98.6039 0.886439 107.405 12.4355C116.208 23.9881 118.411 36.1274 119.855 47.776C120.027 49.1622 120.188 50.5402 120.348 51.9087L120.349 51.912L120.349 51.9152L120.349 51.9184L120.35 51.9216C121.538 62.0825 122.665 71.7235 127.652 80.3119C133.29 90.0211 143.913 98.4463 165.406 104.553C202.164 114.993 232.156 107.679 261.132 100.211L262.145 99.9494L263.028 99.7217C291.317 92.4218 318.788 85.3329 350.613 95.1681L350.624 95.1716C402.517 112.526 463.953 115.597 507.691 101.232C529.556 94.0504 546.944 82.5305 556.544 66.3192C566.133 50.1243 568.002 29.1588 558.656 2.96109L531.407 1.75375C535.172 19.0284 532.773 33.5649 525.774 45.4427C517.192 60.0043 501.744 70.4873 482.484 77.1404C443.974 90.444 390.019 88.5109 344.36 73.0259C315.708 63.9257 290.727 69.868 264.887 76.0147L264.178 76.1833C238.101 82.385 211.133 88.647 178.845 79.4755C158.961 73.8252 148.657 66.2403 142.963 57.448C137.778 49.4421 136.459 40.4873 135.109 31.3166L135.109 31.3161L135.104 31.2839C134.978 30.4249 134.851 29.5641 134.72 28.702C133.193 18.5956 131.18 8.24414 123.67 -1.6716C119.666 -6.95896 114.085 -12.1388 106.151 -17.0879L55.6474 -19.3256ZM55.6474 -19.3256L55.6443 -19.3266L55.4845 -18.8529L55.6474 -19.3256ZM108.15 -16.9993C115.402 -12.2779 120.633 -7.33878 124.467 -2.27533C132.139 7.85363 134.178 18.4226 135.709 28.5525C135.84 29.4203 135.968 30.2845 136.095 31.1445C137.453 40.3515 138.742 49.0905 143.803 56.9044C149.318 65.421 159.369 72.9015 179.118 78.5135C211.13 87.6064 237.864 81.4134 263.946 75.2105L264.74 75.0217C290.528 68.887 315.748 62.8876 344.667 72.0743L344.676 72.0773C390.175 87.5088 443.899 89.4118 482.158 76.1952C501.284 69.5882 516.493 59.2216 524.912 44.935C531.797 33.2513 534.174 18.8903 530.373 1.70794L500.572 0.387565C500.466 9.22491 498.188 17.1038 494.139 24.0168C486.743 36.6461 473.483 45.9773 456.964 52.0585C423.934 64.2181 377.683 63.4589 338.402 49.8901C312.797 41.4794 290.157 46.2107 266.968 51.1484L266.524 51.2429C243.494 56.1473 219.913 61.1691 192.553 53.3967C174.429 48.2453 164.715 41.6182 159.14 34.0463C153.819 26.8198 152.318 18.7885 150.787 10.5978C150.717 10.2221 150.646 9.84607 150.576 9.46979C149.016 1.17016 147.243 -7.30487 141.384 -15.5269L108.15 -16.9993ZM165.287 -14.4678L142.644 -15.4711C148.286 -7.25379 150.037 1.18741 151.558 9.28509C151.625 9.64175 151.692 9.99768 151.758 10.3528C153.3 18.592 154.763 26.4157 159.945 33.4534C165.34 40.7805 174.82 47.3169 192.827 52.4348C219.947 60.1391 243.318 55.1622 266.386 50.2499L266.76 50.1703C289.93 45.2366 312.824 40.4343 338.718 48.9412L338.725 48.9437C377.827 62.4517 423.839 63.1873 456.619 51.12C473.005 45.0876 486.036 35.8745 493.276 23.5114C497.233 16.7552 499.473 9.03594 499.573 0.343284L464.435 -1.21354C463.858 0.0671588 463.215 1.31643 462.508 2.53393C456.299 13.2295 445.228 21.4088 431.45 26.9184C403.901 37.9351 365.351 38.3515 332.446 26.6973C310.149 19.0591 290.041 22.3874 269.757 26.0573C269.196 26.1589 268.635 26.2607 268.073 26.3626C248.359 29.9377 228.414 33.5548 206.265 27.2614C189.9 22.6091 180.779 16.9404 175.325 10.5928C169.872 4.24603 168.139 -2.72488 166.436 -9.8121L166.354 -10.1539C166.009 -11.5875 165.664 -13.0262 165.287 -14.4678ZM166.333 -14.4215C166.678 -13.0873 166.996 -11.7614 167.312 -10.4468L167.314 -10.4379L167.314 -10.4372L167.408 -10.0458C169.114 -2.94693 170.806 3.79877 176.084 9.94113C181.36 16.0827 190.273 21.6756 206.538 26.2995C228.46 32.5285 248.202 28.949 267.957 25.3672L268.74 25.2253L269.579 25.0733C289.856 21.4047 310.202 18.0194 332.773 25.7521L332.778 25.7539C365.48 37.3368 403.778 36.907 431.079 25.9899C444.727 20.5325 455.582 12.4728 461.643 2.03182C462.266 0.959828 462.838 -0.137889 463.358 -1.26127L415.362 -3.3878C412.451 -1.50761 409.292 0.189103 405.932 1.69231C383.865 11.5671 353.014 13.1631 326.479 3.4207C307.486 -3.44561 289.91 -1.5191 272.531 0.883399C271.518 1.02354 270.505 1.16532 269.492 1.30704L269.475 1.30942C253.156 3.59342 236.93 5.86441 219.966 1.04291C205.363 -3.10995 196.838 -7.81961 191.51 -12.9385C191.377 -13.0666 191.246 -13.1949 191.116 -13.3234L166.333 -14.4215ZM405.524 0.779527C408.381 -0.499038 411.086 -1.91649 413.609 -3.46547L192.631 -13.2563C197.823 -8.44723 206.11 -3.9371 220.239 0.0810274C236.993 4.84281 253.022 2.60084 269.382 0.312568C270.384 0.172309 271.389 0.0318671 272.394 -0.107171C289.778 -2.51037 307.574 -4.47741 326.82 2.48069L326.823 2.48155C353.119 12.1367 383.7 10.5454 405.524 0.779527Z" fill="url(#paint0_linear_3940_76376)"/>
</g>
<defs>
<linearGradient id="paint0_linear_3940_76376" x1="177" y1="-4.31349e-05" x2="176.997" y2="113.5" gradientUnits="userSpaceOnUse">
<stop stop-color="#CD8EFF"/>
<stop offset="1" stop-color="#474851" stop-opacity="0"/>
</linearGradient>
<clipPath id="clip0_3940_76376">
<path d="M0 0H364V179H0V0Z" fill="white"/>
</clipPath>
</defs>
</svg>
