<svg width="1140" height="273" viewBox="0 0 1140 273" fill="none" xmlns="http://www.w3.org/2000/svg">
<path fill-rule="evenodd" clip-rule="evenodd" d="M395.944 432.027C321.144 455.603 241.213 477.785 136.745 448.333C84.4838 433.6 60.8434 410.909 49.8897 383.597C44.4221 369.964 42.1289 355.213 40.9833 339.791C40.3235 330.909 40.0431 321.767 39.7584 312.482L39.7584 312.479L39.7584 312.477L39.7584 312.475L39.7584 312.473L39.7584 312.47L39.7584 312.468L39.7584 312.467L39.7584 312.465L39.7584 312.463L39.7584 312.461L39.7584 312.46L39.7584 312.458L39.7584 312.457C39.5498 305.66 39.3389 298.787 38.9745 291.884C37.2481 259.139 32.0718 225.351 7.46157 193.811C-17.1549 162.264 -61.2702 132.896 -141.029 109.139C-220.955 85.3317 -271.194 40.8272 -297.186 -12.6509C-323.173 -66.1188 -324.895 -128.5 -307.9 -188.025C-273.918 -307.055 -165.039 -414.837 -25.2629 -417.293C44.4767 -418.518 91.9538 -423.909 128.305 -433.849C164.64 -443.785 189.876 -458.272 215.13 -477.724C228.566 -488.074 242.014 -499.837 257.142 -513.07C298.893 -549.59 353.441 -597.304 455.871 -657.404C595.566 -739.369 783.022 -723.399 920.908 -656.932C989.856 -623.696 1046.46 -577.81 1078.52 -525.164C1110.59 -472.499 1118.08 -413.071 1088.77 -352.853C1059.56 -292.82 1044.98 -251.282 1041.34 -217.58C1037.7 -183.911 1044.97 -158.031 1059.55 -129.294C1067.54 -113.552 1077.72 -96.9467 1089.51 -77.7393L1089.51 -77.7384C1120.76 -26.8008 1163.24 42.4373 1205.68 162.411C1232.71 238.803 1227.98 298.132 1201.06 342.687C1174.14 387.226 1125.11 416.894 1063.75 434.111C941.046 468.541 768.783 453.248 624.399 407.157C544.864 384.779 478.256 405.916 407.926 428.234C403.945 429.497 399.952 430.764 395.944 432.027ZM407.679 427.263C477.965 404.957 544.843 383.732 624.678 406.197L624.686 406.199L624.695 406.202C768.968 452.259 941.024 467.508 1063.48 433.148C1124.71 415.969 1173.47 386.409 1200.2 342.169C1226.93 297.945 1231.7 238.947 1204.74 162.745C1162.33 42.881 1119.95 -26.1947 1088.71 -77.1235C1076.9 -96.3668 1066.68 -113.019 1058.66 -128.842C1044.01 -157.7 1036.68 -183.776 1040.34 -217.688C1044 -251.568 1058.65 -293.234 1087.87 -353.291C1117.01 -413.163 1109.58 -472.231 1077.67 -524.644C1045.74 -577.077 989.308 -622.851 920.473 -656.032C782.793 -722.399 595.704 -738.29 456.377 -656.541C354.037 -596.494 299.599 -548.877 257.855 -512.362C242.706 -499.111 229.228 -487.322 215.74 -476.932C190.404 -457.416 165.052 -442.861 128.568 -432.884C92.0997 -422.912 44.5266 -417.519 -25.2453 -416.293C-164.492 -413.847 -273.051 -306.449 -306.939 -187.75C-323.88 -128.412 -322.145 -66.2917 -296.287 -13.0881C-270.433 40.1052 -220.438 84.4424 -140.743 108.181C-60.8803 131.969 -16.544 161.421 8.25002 193.196C33.0502 224.979 38.2431 259.018 39.9732 291.832C40.3386 298.765 40.5488 305.627 40.7562 312.4L40.7562 312.404L40.7581 312.459L40.7581 312.465L40.7584 312.471L40.7588 312.477L40.7592 312.484L40.7595 312.491C41.0427 321.747 41.3209 330.837 41.9806 339.717C43.1229 355.095 45.4055 369.73 50.8178 383.225C61.6235 410.168 84.9584 432.694 137.016 447.371C241.187 476.739 320.878 454.638 395.644 431.074C399.668 429.805 403.679 428.532 407.679 427.263ZM152.896 419.202C252.024 447.159 327.87 426.102 398.843 403.725C402.645 402.526 406.433 401.323 410.21 400.124C476.94 378.941 540.132 358.881 615.588 380.119C752.585 423.868 916.036 438.384 1032.47 405.703C1090.69 389.36 1137.22 361.197 1162.76 318.914C1188.31 276.616 1192.8 220.294 1167.15 147.781C1126.88 33.9026 1086.57 -31.8203 1056.92 -80.1688C1045.74 -98.3994 1036.07 -114.16 1028.5 -129.1C1014.66 -156.372 1007.77 -180.933 1011.22 -212.884C1014.67 -244.868 1028.5 -284.292 1056.23 -341.273C1084.04 -398.438 1076.92 -454.855 1046.49 -504.849C1016.08 -554.824 962.362 -598.381 896.939 -629.929C766.106 -693.02 588.235 -708.18 455.681 -630.375C358.491 -573.329 306.733 -528.038 267.119 -493.374L267.117 -493.373L267.116 -493.372L267.11 -493.367L267.108 -493.365L267.108 -493.365C252.759 -480.809 240.004 -469.648 227.26 -459.828C203.301 -441.366 179.359 -427.617 144.888 -418.187C110.4 -408.753 65.356 -403.636 -0.813172 -402.473C-133.448 -400.143 -236.763 -297.828 -269.008 -184.841C-285.134 -128.337 -283.501 -69.12 -258.841 -18.3633C-234.176 32.4037 -186.502 74.6503 -110.66 97.2493C-34.9872 119.798 6.86452 147.671 30.2165 177.609C53.5622 207.539 58.473 239.603 60.1111 270.682C60.4567 277.234 60.6569 283.759 60.8549 290.211L60.8549 290.212L60.8549 290.214L60.8549 290.215L60.8549 290.216L60.8549 290.217L60.8549 290.218L60.8549 290.22L60.8549 290.221L60.8549 290.222L60.8549 290.223L60.8549 290.225L60.8549 290.226L60.8549 290.228L60.8549 290.23C61.125 299.044 61.3911 307.723 62.0171 316.154C63.1041 330.793 65.2803 344.798 70.4692 357.741C80.8661 383.674 103.304 405.216 152.896 419.202ZM615.868 379.159C540.111 357.833 476.65 377.982 409.962 399.154C406.167 400.359 402.361 401.567 398.542 402.771C327.604 425.137 251.999 446.112 153.167 418.239C103.779 404.311 81.6464 382.933 71.3975 357.369C66.2637 344.564 64.0982 330.676 63.0144 316.08C62.3886 307.652 62.1246 299.026 61.856 290.242C61.6585 283.784 61.4583 277.242 61.1098 270.63C59.4682 239.482 54.5405 207.168 31.0049 176.994C7.47549 146.828 -34.597 118.871 -110.375 96.291C-185.984 73.761 -233.415 31.6818 -257.941 -18.8003C-282.473 -69.2928 -284.119 -128.249 -268.046 -184.566C-235.895 -297.223 -132.902 -399.152 -0.795594 -401.474C65.4058 -402.637 110.546 -407.756 145.151 -417.222C179.772 -426.693 203.829 -440.51 227.87 -459.035C240.664 -468.894 253.446 -480.079 267.813 -492.65L267.813 -492.65L267.815 -492.651L267.819 -492.655L267.826 -492.662L267.832 -492.667L267.832 -492.667C307.44 -527.325 359.088 -572.52 456.187 -629.513C588.374 -707.101 765.877 -692.02 896.505 -629.028C961.813 -597.536 1015.35 -554.091 1045.64 -504.329C1075.92 -454.586 1082.97 -398.53 1055.33 -341.71C1027.59 -284.706 1013.7 -245.154 1010.22 -212.992C1006.74 -180.798 1013.71 -156.042 1027.6 -128.648C1035.22 -113.627 1044.92 -97.8202 1056.12 -79.5541C1085.77 -31.2144 1125.97 34.3461 1166.21 148.114C1191.79 220.438 1187.26 276.429 1161.9 318.397C1136.54 360.38 1090.28 388.435 1032.2 404.74C916.015 437.352 752.77 422.879 615.885 379.164L615.876 379.161L615.868 379.159ZM401.629 376.51C334.342 397.735 262.43 417.709 168.443 391.19C121.423 377.923 100.142 357.486 90.2817 332.879C85.3608 320.599 83.2974 307.312 82.2669 293.426C81.6731 285.435 81.4209 277.209 81.1648 268.855L81.1648 268.854L81.1648 268.852L81.1648 268.851L81.1648 268.849L81.1648 268.847L81.1648 268.846L81.1648 268.844L81.1648 268.843L81.1648 268.841L81.1648 268.839L81.1648 268.837L81.1648 268.836L81.1648 268.834L81.1648 268.832L81.1644 268.814C80.9768 262.695 80.787 256.507 80.4597 250.295C78.907 220.817 74.2515 190.411 52.1236 162.028C29.9893 133.638 -9.68259 107.203 -81.4221 85.8156C-153.33 64.3785 -198.533 24.3029 -221.921 -23.8572C-245.303 -72.007 -246.851 -128.181 -231.561 -181.78C-200.988 -288.958 -103.033 -386.014 22.7259 -388.225C85.4568 -389.328 128.159 -394.181 160.851 -403.129C193.528 -412.072 216.223 -425.111 238.935 -442.62C251.019 -451.937 263.114 -462.525 276.721 -474.438C314.277 -507.317 363.35 -550.278 455.493 -604.388C581.171 -678.192 749.811 -663.81 873.854 -603.966C935.881 -574.041 986.809 -532.724 1015.65 -485.317C1044.5 -437.891 1051.25 -384.369 1024.88 -330.139C998.597 -276.093 985.486 -238.702 982.21 -208.37C978.937 -178.07 985.475 -154.779 998.588 -128.915C1005.77 -114.746 1014.93 -99.798 1025.53 -82.5071C1053.64 -36.648 1091.86 25.6948 1130.04 133.712C1154.36 202.496 1150.11 255.926 1125.88 296.055C1101.66 336.168 1057.54 362.884 1002.34 378.386C891.948 409.386 736.983 395.616 607.1 354.119C535.571 333.977 475.669 353.002 412.404 373.095C408.824 374.232 405.233 375.373 401.629 376.51ZM412.156 372.124C475.378 352.043 535.55 332.93 607.379 353.159L607.388 353.162L607.396 353.164C737.168 394.627 891.926 408.354 1002.07 377.423C1057.13 361.959 1100.98 335.351 1125.02 295.538C1149.05 255.739 1153.35 202.64 1129.1 134.045C1090.95 26.1381 1052.84 -36.0422 1024.73 -81.8926C1014.11 -99.219 1004.92 -114.214 997.696 -128.462C984.522 -154.449 977.917 -177.935 981.216 -208.478C984.511 -238.988 997.686 -276.507 1023.98 -330.576C1050.18 -384.462 1043.5 -437.622 1014.8 -484.797C986.084 -531.991 935.332 -573.196 873.419 -603.065C749.582 -662.811 581.31 -677.113 455.999 -603.526C363.947 -549.469 314.984 -506.604 277.435 -473.731L277.434 -473.73C263.806 -461.799 251.681 -451.185 239.546 -441.829C216.752 -424.256 193.941 -411.148 161.115 -402.164C128.305 -393.184 85.5067 -388.329 22.7435 -387.225C-102.486 -385.024 -200.121 -288.353 -230.6 -181.506C-245.836 -128.093 -244.275 -72.1798 -221.021 -24.294C-197.772 23.5814 -152.812 63.4893 -81.1362 84.8573C-9.29221 106.275 30.6004 132.795 52.9121 161.413C75.23 190.04 79.9021 220.697 81.4585 250.242C81.7888 256.515 81.9788 262.721 82.166 268.846L82.166 268.849C82.4207 277.179 82.6708 285.359 83.2642 293.352C84.2915 307.195 86.3442 320.365 91.21 332.507C100.923 356.745 121.898 377.018 168.715 390.228C262.404 416.663 334.076 396.77 401.328 375.556C404.949 374.414 408.558 373.267 412.156 372.124ZM181.606 367.661C271.242 392.973 339.825 373.908 403.993 353.65C407.43 352.565 410.854 351.477 414.267 350.392C474.6 331.215 531.719 313.06 599.924 332.281C723.787 371.887 871.572 385.03 976.849 355.441C1029.49 340.645 1071.57 315.145 1094.67 276.854C1117.78 238.548 1121.84 187.547 1098.65 121.896C1062.23 18.8018 1025.79 -40.7016 998.981 -84.4696L998.98 -84.4709C988.874 -100.972 980.137 -115.236 973.288 -128.757C960.785 -153.44 954.551 -175.664 957.672 -204.577C960.795 -233.522 973.297 -269.204 998.358 -320.785C1023.51 -372.55 1017.08 -423.639 989.559 -468.908C962.052 -514.158 913.48 -553.594 854.326 -582.155C736.031 -639.273 575.201 -653 455.341 -582.557C367.468 -530.914 320.668 -489.909 284.853 -458.529C271.877 -447.161 260.344 -437.055 248.821 -428.165C227.164 -411.455 205.524 -399.013 174.366 -390.478C143.192 -381.939 102.472 -377.308 42.6502 -376.255C-77.2905 -374.145 -170.711 -281.506 -199.869 -179.208C-214.451 -128.049 -212.975 -74.4306 -190.674 -28.4707C-168.368 17.4997 -125.254 55.7516 -56.6753 76.2128C11.7356 96.6237 49.563 121.851 70.6668 148.942C91.7647 176.025 96.2039 205.039 97.6846 233.17C97.9968 239.104 98.1779 245.015 98.3568 250.861C98.6011 258.842 98.8418 266.702 99.408 274.335C100.391 287.589 102.359 300.273 107.053 311.996C116.459 335.489 136.76 354.998 181.606 367.661ZM600.203 331.321C531.698 312.012 474.309 330.256 414.019 349.421L414.016 349.422L413.933 349.448C410.53 350.53 407.117 351.615 403.692 352.696C339.559 372.943 271.216 391.927 181.877 366.699C137.236 354.093 117.24 334.749 107.981 311.624C103.342 300.039 101.385 287.472 100.405 274.261C99.8394 266.632 99.6008 258.825 99.3579 250.874C99.1795 245.029 98.9984 239.106 98.6832 233.118C97.199 204.919 92.7432 175.654 71.4558 148.327C50.1743 121.009 12.1262 95.6966 -56.3894 75.2545C-124.736 54.8626 -167.606 16.7784 -189.774 -28.9073C-211.947 -74.6033 -213.436 -127.961 -198.907 -178.934C-169.844 -280.901 -76.7431 -373.154 42.6678 -375.255C102.522 -376.308 143.338 -380.943 174.63 -389.514C205.937 -398.089 227.693 -410.6 249.432 -427.373C261.007 -436.304 272.57 -446.435 285.567 -457.823C321.375 -489.197 368.065 -530.105 455.848 -581.695C575.339 -651.922 735.801 -638.273 853.892 -581.255C912.931 -552.748 961.327 -513.426 988.704 -468.389C1016.07 -423.371 1022.44 -372.643 997.459 -321.222C972.386 -269.618 959.82 -233.807 956.677 -204.684C953.531 -175.529 959.831 -153.109 972.396 -128.305C979.285 -114.704 988.051 -100.393 998.18 -83.8554C1024.98 -40.0962 1061.33 19.2449 1097.71 122.229C1120.83 187.691 1116.73 238.362 1093.82 276.338C1070.9 314.328 1029.09 339.72 976.578 354.478C871.55 383.997 723.972 370.897 600.22 331.326L600.211 331.323L600.203 331.321ZM406.889 325.344C346.549 344.403 282.05 362.343 197.754 338.526C155.578 326.61 136.48 308.251 127.63 286.137C123.214 275.103 121.364 263.166 120.439 250.695C119.907 243.513 119.681 236.117 119.451 228.607L119.451 228.605L119.451 228.603L119.451 228.601L119.451 228.598L119.451 228.596L119.451 228.594L119.451 228.592L119.451 228.59L119.451 228.588L119.451 228.585L119.451 228.583L119.451 228.581L119.451 228.579L119.451 228.577L119.451 228.575L119.451 228.573C119.282 223.084 119.112 217.534 118.819 211.965C117.426 185.5 113.253 158.209 93.4192 132.736C73.5799 107.254 38.0161 83.5218 -26.3095 64.3194C-90.8037 45.0666 -131.352 9.07248 -152.331 -34.1867C-173.305 -77.4356 -174.693 -127.889 -160.979 -176.028C-133.559 -272.283 -45.7026 -359.453 67.0975 -361.439C123.349 -362.43 161.636 -366.787 190.946 -374.82C220.241 -382.848 240.586 -394.553 260.949 -410.272C271.782 -418.635 282.627 -428.142 294.827 -438.837C328.505 -468.361 372.516 -506.943 455.149 -555.533C567.868 -621.815 719.112 -608.897 830.356 -555.156C885.983 -528.282 931.662 -491.176 957.532 -448.597C983.413 -405.998 989.462 -357.921 965.807 -309.208C942.241 -260.679 930.488 -227.112 927.551 -199.884C924.618 -172.689 930.478 -151.785 942.233 -128.566C948.671 -115.848 956.886 -102.429 966.389 -86.9056L966.39 -86.9038C991.598 -45.7247 1025.87 10.2634 1060.12 107.262C1081.92 169.035 1078.11 217.029 1056.37 253.078C1034.65 289.113 995.069 313.108 945.563 327.029C846.56 354.869 707.587 342.503 591.111 305.239C526.985 287.158 473.283 304.236 416.549 322.279C413.339 323.3 410.12 324.323 406.889 325.344ZM416.301 321.308C472.992 303.277 526.964 286.11 591.391 304.279L591.399 304.281L591.407 304.284C707.772 341.514 846.538 353.837 945.292 326.066C994.665 312.182 1033.97 288.296 1055.52 252.562C1077.06 216.842 1080.91 169.179 1059.17 107.595C1024.97 10.7063 990.793 -45.1196 965.589 -86.2899C956.064 -101.85 947.82 -115.316 941.34 -128.115C929.524 -151.455 923.597 -172.554 926.557 -199.992C929.513 -227.397 941.331 -261.093 964.908 -309.645C988.396 -358.014 982.406 -405.73 956.677 -448.078C930.937 -490.444 885.434 -527.437 829.921 -554.255C718.883 -607.898 568.006 -620.736 455.656 -554.671C373.114 -506.134 329.213 -467.649 295.541 -438.131C283.32 -427.417 272.445 -417.884 261.56 -409.48C241.115 -393.698 220.654 -381.925 191.211 -373.855C161.782 -365.79 123.399 -361.43 67.115 -360.439C-45.1549 -358.463 -132.691 -271.679 -160.018 -175.754C-173.678 -127.802 -172.277 -77.6081 -151.431 -34.6231C-130.59 8.35147 -90.2854 44.1776 -26.0234 63.3611C38.407 82.5949 74.1916 106.412 94.2083 132.121C114.231 157.838 118.422 185.379 119.817 211.912C120.114 217.548 120.284 223.121 120.452 228.621C120.68 236.1 120.904 243.443 121.437 250.621C122.358 263.049 124.198 274.869 128.558 285.765C137.261 307.511 156.054 325.705 198.026 337.564C282.025 361.297 346.282 343.439 406.588 324.39C409.825 323.368 413.051 322.342 416.268 321.319L416.284 321.313L416.301 321.308ZM210.902 314.995C290.848 337.605 352.018 320.574 409.239 302.482C412.303 301.513 415.355 300.542 418.398 299.573C472.2 282.446 523.118 266.238 583.92 283.398C694.377 318.77 826.17 330.51 920.06 304.082C967.011 290.866 1004.55 268.087 1025.16 233.875C1045.78 199.648 1049.39 154.083 1028.71 95.4429C996.234 3.36787 963.73 -49.7809 939.825 -88.8689C930.813 -103.604 923.024 -116.341 916.919 -128.412C905.773 -150.448 900.218 -170.285 902.999 -196.094C905.783 -221.934 916.927 -253.793 939.275 -299.857C961.711 -346.105 955.973 -391.749 931.426 -432.191C906.89 -472.613 863.569 -507.838 810.814 -533.348C705.317 -584.363 561.883 -596.626 454.982 -533.705C376.62 -487.581 334.882 -450.956 302.944 -422.931L302.943 -422.93L302.941 -422.929C291.374 -412.778 281.092 -403.756 270.821 -395.819C251.513 -380.9 232.223 -369.792 204.446 -362.172C176.655 -354.548 140.35 -350.412 87.0076 -349.472C-19.9741 -347.587 -103.296 -264.833 -129.301 -173.458C-142.306 -127.76 -140.991 -79.8619 -121.098 -38.8028C-101.2 2.26663 -62.7424 36.4371 -1.57675 54.714C59.4202 72.9404 93.1394 95.4656 111.949 119.647C130.752 143.821 134.709 169.719 136.029 194.838C136.308 200.134 136.469 205.412 136.629 210.633L136.629 210.646L136.629 210.649C136.847 217.773 137.062 224.79 137.566 231.602C138.443 243.441 140.198 254.774 144.387 265.251C152.783 286.251 170.901 303.683 210.902 314.995ZM584.201 282.438C523.097 265.19 471.908 281.487 418.15 298.602C415.088 299.577 412.018 300.555 408.938 301.529C351.751 319.609 290.822 336.559 211.174 314.033C171.378 302.778 153.564 285.512 145.315 264.88C141.182 254.54 139.437 243.324 138.563 231.528C138.059 224.715 137.846 217.746 137.63 210.647L137.63 210.638L137.629 210.629L137.629 210.621L137.628 210.614L137.628 210.606L137.628 210.599L137.627 210.592L137.627 210.586L137.627 210.58C137.469 205.381 137.308 200.113 137.028 194.786C135.704 169.599 131.73 143.45 112.738 119.033C93.7515 94.6236 59.8114 72.0136 -1.2905 53.7558C-62.2237 35.5484 -100.438 1.54611 -120.198 -39.2388C-139.963 -80.0342 -141.292 -127.672 -128.339 -173.184C-102.428 -264.23 -19.4256 -346.596 87.0253 -348.472C140.4 -349.413 176.801 -353.551 204.711 -361.208C232.636 -368.868 252.043 -380.045 271.432 -395.028C281.755 -403.005 292.067 -412.054 303.657 -422.223L303.657 -422.224L303.659 -422.226C335.59 -450.244 377.218 -486.772 455.49 -532.843C562.022 -595.548 705.087 -583.363 810.379 -532.448C863.019 -506.993 906.165 -471.881 930.571 -431.672C954.965 -391.481 960.644 -346.197 938.375 -300.294C916.016 -254.207 904.808 -222.219 902.005 -196.201C899.197 -170.151 904.819 -150.118 916.026 -127.96C922.172 -115.81 929.99 -103.026 939.023 -88.2553C962.924 -49.1761 995.329 3.81044 1027.76 95.7754C1048.38 154.227 1044.72 199.462 1024.3 233.359C1003.87 267.271 966.606 289.941 919.789 303.119C826.149 329.477 694.563 317.781 584.217 282.443L584.209 282.441L584.201 282.438ZM411.924 276.354C358.247 293.34 300.859 309.333 225.857 288.103C188.329 277.48 171.323 261.11 163.443 241.382C159.512 231.542 157.865 220.898 157.043 209.782C156.569 203.392 156.368 196.808 156.163 190.126L156.163 190.124L156.163 190.123L156.163 190.121L156.163 190.12L156.163 190.118L156.163 190.117L156.163 190.115L156.163 190.113L156.163 190.112L156.163 190.11L156.163 190.108L156.163 190.106L156.163 190.104L156.163 190.102L156.163 190.1L156.163 190.097L156.163 190.095L156.163 190.093L156.163 190.088C156.014 185.188 155.862 180.234 155.601 175.265C154.363 151.683 150.651 127.377 133.019 104.689C115.38 81.9927 83.7572 60.8476 26.5428 43.7366C-30.8405 26.5751 -66.9231 -5.51117 -85.5924 -44.078C-104.257 -82.6344 -105.49 -127.611 -93.2888 -170.521C-68.8922 -256.319 9.27703 -334.024 109.647 -335.795C159.683 -336.677 193.736 -340.56 219.802 -347.717C245.853 -354.869 263.944 -365.296 282.053 -379.301C291.686 -386.752 301.331 -395.222 312.182 -404.752L312.183 -404.753C342.142 -431.065 381.298 -465.453 454.808 -508.758C555.097 -567.839 689.655 -556.322 788.623 -508.424C838.112 -484.472 878.754 -451.398 901.774 -413.44C924.805 -375.464 930.189 -332.6 909.138 -289.17C888.176 -245.923 877.724 -216.016 875.112 -191.761C872.505 -167.538 877.713 -148.92 888.167 -128.234C893.892 -116.904 901.198 -104.947 909.651 -91.1144C932.075 -54.4163 962.568 -4.5125 993.031 81.9357C1012.43 136.996 1009.05 179.785 989.699 211.929C970.361 244.058 935.14 265.448 891.095 277.857C803.014 302.671 679.38 291.648 575.764 258.438C518.738 242.329 470.983 257.544 420.513 273.624L420.48 273.634C417.637 274.54 414.786 275.449 411.924 276.354ZM420.265 272.653C470.691 256.585 518.717 241.281 576.044 257.478L576.052 257.48L576.061 257.483C679.566 290.659 802.992 301.638 890.823 276.894C934.735 264.523 969.684 243.243 988.842 211.413C1007.99 179.599 1011.42 137.14 992.088 82.2681C961.664 -4.07021 931.269 -53.8119 908.849 -90.5012C900.375 -104.37 893.04 -116.373 887.274 -127.783C876.76 -148.59 871.484 -167.404 874.118 -191.868C876.749 -216.301 887.265 -246.336 908.238 -289.606C929.122 -332.692 923.797 -375.197 900.919 -412.922C878.029 -450.666 837.562 -483.627 788.187 -507.524C689.425 -555.323 555.235 -566.76 455.315 -507.896C381.896 -464.644 342.85 -430.353 312.898 -404.047C302.025 -394.498 292.35 -386.001 282.665 -378.51C264.474 -364.442 246.267 -353.946 220.067 -346.753C193.882 -339.563 159.733 -335.678 109.665 -334.795C9.82598 -333.034 -68.0239 -255.716 -92.3269 -170.248C-104.475 -127.524 -103.229 -82.8066 -84.6923 -44.5137C-66.1607 -6.23132 -30.3214 25.6866 26.8293 42.7785C84.1487 59.9209 115.993 81.151 133.808 104.075C151.63 127.006 155.358 151.564 156.6 175.213C156.862 180.213 157.013 185.157 157.161 190.035L157.161 190.041L157.162 190.047L157.162 190.053L157.162 190.06L157.163 190.066L157.163 190.073L157.163 190.081L157.164 190.089L157.164 190.097L157.164 190.106C157.367 196.77 157.567 203.311 158.04 209.708C158.859 220.781 160.496 231.308 164.372 241.011C172.105 260.37 188.805 276.576 226.13 287.141C300.834 308.286 357.98 292.376 411.622 275.401C414.512 274.486 417.392 273.569 420.265 272.653ZM240.216 262.332C310.471 282.239 364.228 267.243 414.502 251.316C417.193 250.464 419.873 249.609 422.545 248.757L422.546 248.757C469.817 233.68 514.534 219.418 567.935 234.518C664.984 265.656 780.785 275.993 863.289 252.725C904.546 241.09 937.542 221.032 955.659 190.898C973.786 160.75 976.957 120.622 958.783 68.9926C930.25 -12.0634 901.688 -58.8575 880.685 -93.2653L880.685 -93.2663C872.769 -106.234 865.928 -117.443 860.566 -128.063C850.778 -147.454 845.901 -164.904 848.343 -187.608C850.788 -210.343 860.575 -238.38 880.208 -278.927C899.929 -319.657 894.885 -359.856 873.31 -395.47C851.746 -431.065 813.675 -462.078 767.32 -484.537C674.621 -529.449 548.583 -540.25 454.641 -484.849C385.789 -444.245 349.113 -412 321.054 -387.331L321.053 -387.331C310.891 -378.396 301.858 -370.455 292.837 -363.471C275.879 -350.342 258.938 -340.568 234.544 -333.863C210.135 -327.154 178.245 -323.513 131.382 -322.686C37.3593 -321.026 -35.8632 -248.158 -58.7158 -167.705C-70.1451 -127.468 -68.9902 -85.2904 -51.5055 -49.1324C-34.0157 -12.9639 -0.21347 17.1252 53.5387 33.2177C107.122 49.2597 136.733 69.0823 153.247 90.3544C169.756 111.619 173.232 134.401 174.391 156.509C174.636 161.167 174.778 165.812 174.918 170.408C175.109 176.685 175.298 182.87 175.742 188.871C176.512 199.295 178.055 209.278 181.738 218.509C189.123 237.016 205.06 252.37 240.216 262.332ZM568.215 233.558C514.514 218.37 469.525 232.721 422.297 247.786L422.288 247.789L422.279 247.792C419.594 248.649 416.902 249.507 414.2 250.363C363.961 266.278 310.446 281.193 240.488 261.37C205.537 251.466 189.905 236.277 182.667 218.138C179.038 209.045 177.506 199.178 176.739 188.798C176.296 182.8 176.109 176.669 175.919 170.423L175.919 170.413L175.918 170.404L175.918 170.395L175.918 170.386L175.917 170.378L175.917 170.37L175.916 170.363L175.916 170.355L175.916 170.348L175.915 170.342L175.915 170.336L175.915 170.33C175.776 165.765 175.636 161.138 175.39 156.456C174.227 134.281 170.734 111.249 154.037 89.7412C137.346 68.241 107.514 48.3332 53.8256 32.2597C0.306305 16.2369 -33.2529 -13.6836 -50.6052 -49.5677C-67.9626 -85.4624 -69.1303 -127.381 -57.7537 -167.432C-34.9946 -247.556 37.909 -320.035 131.4 -321.686C178.295 -322.514 210.282 -326.157 234.81 -332.899C259.353 -339.644 276.409 -349.487 293.449 -362.68C302.523 -369.705 311.585 -377.672 321.769 -386.626L321.77 -386.626C349.822 -411.29 386.388 -443.437 455.149 -483.988C548.722 -539.17 674.391 -528.45 766.884 -483.637C813.124 -461.234 851.02 -430.334 872.454 -394.952C893.877 -359.589 898.863 -319.749 879.308 -279.363C859.664 -238.793 849.813 -210.628 847.349 -187.715C844.881 -164.77 849.824 -147.125 859.674 -127.613C865.075 -116.913 871.946 -105.657 879.883 -92.6533L879.884 -92.6526C900.881 -58.2534 929.346 -11.6214 957.84 69.3246C975.948 120.766 972.731 160.564 954.802 190.383C936.865 220.216 904.14 240.165 863.018 251.763C780.764 274.96 665.17 264.667 568.232 233.563L568.224 233.561L568.215 233.558ZM417.079 226.277C370.207 241.144 320.081 255.145 254.572 236.56C221.789 227.259 206.921 212.922 200.031 195.634C196.595 187.013 195.157 177.691 194.438 167.96C194.025 162.358 193.849 156.583 193.67 150.723L193.669 150.7L193.669 150.694L193.668 150.639L193.668 150.635L193.668 150.632L193.668 150.629L193.668 150.626L193.668 150.623L193.668 150.621L193.668 150.618L193.668 150.615L193.668 150.613L193.668 150.61L193.668 150.607L193.668 150.605L193.668 150.603L193.668 150.6L193.668 150.598L193.668 150.596L193.668 150.594C193.537 146.346 193.406 142.054 193.179 137.751C192.098 117.117 188.858 95.86 173.474 76.0191C158.083 56.1707 130.484 37.6706 80.5325 22.6976C30.4113 7.67393 -1.11056 -20.4178 -17.4209 -54.188C-33.726 -87.9476 -34.8023 -127.326 -24.145 -164.891C-2.83662 -239.998 65.4393 -308.029 153.115 -309.579C196.804 -310.351 226.532 -313.749 249.285 -320.01C272.022 -326.267 287.812 -335.388 303.619 -347.641C312.028 -354.159 320.447 -361.57 329.921 -369.91L329.922 -369.91C356.082 -392.937 390.279 -423.039 454.472 -460.942C542.067 -512.662 659.585 -502.578 746.015 -460.652C789.235 -439.686 824.735 -410.734 844.843 -377.501C864.962 -344.25 869.668 -306.715 851.276 -268.685C832.973 -230.838 823.85 -204.672 821.571 -183.456C819.296 -162.272 823.84 -145.989 832.964 -127.894C837.961 -117.983 844.338 -107.521 851.718 -95.4174C871.298 -63.2998 897.93 -19.6154 924.533 56.0483C941.479 104.247 938.523 141.715 921.618 169.867C904.721 198.004 873.95 216.731 835.481 227.593C758.554 249.314 650.586 239.664 560.103 210.598C510.329 196.506 468.648 209.816 424.576 223.889L424.542 223.9L424.511 223.909L424.484 223.918L424.461 223.925C422.008 224.709 419.548 225.494 417.079 226.277ZM424.327 222.918C468.355 208.857 510.308 195.458 560.384 209.638L560.392 209.64L560.401 209.643C650.772 238.675 758.533 248.281 835.209 226.63C873.543 215.806 904.043 197.189 920.76 169.352C937.468 141.529 940.469 104.391 923.589 56.3799C897.026 -19.1739 870.491 -62.6963 850.916 -94.8052L850.915 -94.8068C843.514 -106.946 837.108 -117.453 832.071 -127.443C822.886 -145.661 818.275 -162.137 820.577 -183.563C822.875 -204.956 832.061 -231.251 850.376 -269.12C868.601 -306.807 863.955 -343.983 843.987 -376.984C824.008 -410.003 788.684 -438.842 745.578 -459.752C659.354 -501.578 542.206 -511.582 454.981 -460.081C390.878 -422.232 356.791 -392.227 330.638 -369.206L330.638 -369.206C321.142 -360.847 312.692 -353.409 304.232 -346.851C288.343 -334.534 272.437 -325.344 249.55 -319.046C226.679 -312.752 196.854 -309.352 153.133 -308.579C65.9897 -307.038 -1.9676 -239.397 -23.1829 -164.618C-33.7876 -127.239 -32.6984 -88.1194 -16.5203 -54.6229C-0.347378 -21.1369 30.9317 6.78599 80.8196 21.7398C130.877 36.7443 158.697 55.3297 174.264 75.4063C189.837 95.4903 193.093 116.998 194.178 137.699C194.409 142.1 194.541 146.448 194.671 150.738L194.672 150.746C194.849 156.573 195.022 162.291 195.435 167.886C196.151 177.574 197.579 186.78 200.96 195.264C207.703 212.184 222.267 226.355 254.844 235.598C320.056 254.098 369.939 240.179 416.776 225.324C419.301 224.523 421.817 223.72 424.327 222.918ZM419.382 201.238C375.889 215.045 329.369 228.051 268.572 210.788C238.146 202.148 224.339 188.827 217.941 172.759C214.751 164.748 213.416 156.087 212.749 147.048C212.366 141.847 212.202 136.483 212.036 131.041L212.036 131.037C211.915 127.053 211.792 123.027 211.581 118.992C210.578 99.8317 207.572 80.0993 193.304 61.6819C179.029 43.257 153.429 26.0791 107.083 12.175C60.5672 -1.77996 31.3096 -27.8747 16.1706 -59.2469C1.03666 -90.6086 0.0383711 -127.188 9.92912 -162.081C29.7041 -231.844 93.068 -295.038 174.441 -296.478C214.978 -297.195 242.559 -300.351 263.667 -306.164C284.759 -311.973 299.407 -320.442 314.071 -331.818C321.86 -337.862 329.66 -344.733 338.435 -352.462L338.439 -352.466L338.439 -352.466L338.441 -352.468L338.447 -352.473L338.447 -352.473L338.449 -352.474L338.454 -352.48L338.46 -352.485L338.461 -352.485L338.464 -352.488L338.471 -352.494L338.473 -352.497L338.474 -352.497C362.748 -373.883 394.483 -401.841 454.05 -437.043C535.341 -485.082 644.399 -475.715 724.604 -436.775C764.712 -417.302 797.658 -390.41 816.321 -359.54C834.995 -328.651 839.363 -293.779 822.291 -258.449C805.308 -223.302 796.846 -199.006 794.732 -179.309C792.621 -159.643 796.836 -144.529 805.299 -127.728C809.935 -118.527 815.851 -108.813 822.698 -97.5735C840.866 -67.7458 865.582 -27.1706 890.267 43.1017C905.994 87.8704 903.253 122.678 887.559 148.834C871.874 174.976 843.312 192.371 807.613 202.46C736.224 222.635 636.034 213.671 552.072 186.676C505.897 173.593 467.232 185.95 426.337 199.02C424.026 199.759 421.709 200.5 419.382 201.238ZM426.088 198.05C466.939 184.991 505.877 172.545 552.353 185.717L552.361 185.719L552.37 185.722C636.22 212.683 736.203 221.602 807.341 201.498C842.906 191.447 871.197 174.161 886.702 148.319C902.198 122.492 904.984 88.0138 889.324 43.4331C864.677 -26.7294 840.059 -67.1426 821.895 -96.9616L821.894 -96.964C815.026 -108.238 809.081 -117.998 804.406 -127.278C795.881 -144.201 791.601 -159.509 793.738 -179.415C795.871 -199.29 804.397 -223.714 821.391 -258.884C838.296 -293.871 833.987 -328.384 815.465 -359.022C796.931 -389.68 764.16 -416.458 724.167 -435.875C644.168 -474.715 535.48 -484.003 454.559 -436.182C395.082 -401.033 363.457 -373.172 339.19 -351.793L339.189 -351.792C330.378 -344.029 322.536 -337.121 314.684 -331.028C299.937 -319.588 285.174 -311.051 263.932 -305.2C242.706 -299.354 215.028 -296.196 174.459 -295.478C93.6192 -294.047 30.5735 -231.244 10.8912 -161.808C1.05314 -127.101 2.06425 -90.7802 17.0712 -59.6815C32.073 -28.5934 61.0879 -2.66774 107.37 11.2172C153.822 25.153 179.643 42.4162 194.094 61.0694C208.551 79.73 211.573 99.7125 212.58 118.94C212.793 123.017 212.916 127.043 213.036 131.015L213.036 131.017L213.037 131.044L213.037 131.047L213.037 131.051L213.038 131.057L213.038 131.058C213.202 136.469 213.363 141.778 213.746 146.974C214.41 155.97 215.735 164.515 218.87 172.389C225.122 188.089 238.625 201.245 268.846 209.826C329.343 227.004 375.621 214.08 419.08 200.285C421.423 199.541 423.758 198.795 426.088 198.05ZM422.195 177.548C381.603 190.087 338.342 201.969 282.296 186.055C253.625 177.913 240.4 165.547 234.119 150.688C230.988 143.28 229.596 135.284 228.848 126.948C228.399 121.94 228.18 116.776 227.958 111.538L227.958 111.528C227.812 108.074 227.664 104.588 227.448 101.093C226.358 83.4432 223.517 65.2753 210.376 48.2759C197.23 31.2696 173.72 15.3647 131.143 2.38646L131.28 1.93736L131.143 2.38631C88.2984 -10.7175 61.2159 -35.029 47.1209 -64.1991C33.0307 -93.359 31.9443 -127.321 40.9852 -159.696C59.0613 -224.425 117.678 -282.973 194.191 -284.283C232.075 -284.935 257.843 -287.902 277.54 -293.344C297.222 -298.783 310.863 -306.697 324.487 -317.278C331.632 -322.825 338.777 -329.113 346.788 -336.163L346.79 -336.164L346.792 -336.166L346.794 -336.168L346.795 -336.169L346.796 -336.169L346.8 -336.173C369.36 -356.026 398.785 -381.918 454.357 -414.342C529.823 -458.372 630.634 -449.73 704.823 -413.724C741.923 -395.718 772.417 -370.845 789.767 -342.23C807.128 -313.597 811.321 -281.219 795.797 -248.302L795.795 -248.3C780.357 -216.055 772.657 -193.642 770.74 -175.371C768.825 -157.13 772.671 -142.985 780.414 -127.26C784.755 -118.444 790.329 -109.123 796.797 -98.3087L796.797 -98.3076C813.409 -70.5318 835.912 -32.9047 858.545 31.3284C873.009 72.424 870.45 104.528 855.939 128.755C841.437 152.967 815.06 169.211 782.101 178.727C716.192 197.756 623.708 189.964 546.132 164.888C502.893 152.479 466.534 163.775 428.155 175.699L428.077 175.724C426.122 176.331 424.162 176.94 422.195 177.548ZM427.917 174.726C466.251 162.814 502.879 151.432 546.415 163.929L546.423 163.931L546.431 163.933C623.892 188.973 716.165 196.723 781.823 177.766C814.648 168.289 840.758 152.156 855.081 128.241C869.396 104.341 871.999 72.5653 857.601 31.6606C835.005 -32.4694 812.599 -69.9312 795.994 -97.6955C789.504 -108.547 783.9 -117.916 779.517 -126.818C771.715 -142.663 767.806 -156.999 769.745 -175.476C771.681 -193.922 779.443 -216.462 794.892 -248.73C810.256 -281.305 806.122 -313.328 788.912 -341.711C771.691 -370.114 741.371 -394.874 704.386 -412.824C630.404 -448.73 529.96 -457.294 454.861 -413.478C399.382 -381.109 370.067 -355.313 347.513 -335.466C339.477 -328.394 332.298 -322.077 325.101 -316.488C311.394 -305.843 297.638 -297.86 277.806 -292.38C257.99 -286.905 232.126 -283.935 194.208 -283.283C118.225 -281.983 59.931 -223.822 41.9483 -159.427C32.9596 -127.239 34.0567 -93.5341 48.0213 -64.6341C61.9809 -35.7443 88.8244 -11.6024 131.435 1.43004C174.118 14.4406 197.846 30.4314 211.167 47.6643C224.494 64.904 227.352 83.3186 228.446 101.031C228.665 104.57 228.813 108.069 228.959 111.524L228.959 111.529C229.179 116.745 229.396 121.86 229.844 126.859C230.588 135.148 231.966 143.028 235.04 150.299C241.169 164.798 254.094 177.007 282.569 185.093C338.318 200.923 381.339 189.122 421.9 176.592C423.898 175.975 425.891 175.356 427.879 174.738L427.917 174.726ZM296.004 161.32C347.3 175.887 387.302 165.128 424.993 153.856C426.648 153.361 428.299 152.865 429.946 152.37C465.81 141.594 499.87 131.36 540.177 143.097C611.369 166.254 696.145 172.875 756.575 154.991C786.794 146.048 810.987 130.957 824.305 108.674C837.632 86.3759 840.011 56.976 826.808 19.5533L826.807 19.553C806.236 -38.619 785.947 -73.2771 770.895 -98.9892C764.8 -109.402 759.563 -118.347 755.514 -126.793C748.492 -141.442 745.014 -154.619 746.733 -171.436C748.454 -188.281 755.392 -208.811 769.285 -238.153L769.288 -238.159C783.265 -268.662 779.246 -298.545 763.199 -324.922C747.163 -351.281 719.12 -374.135 685.028 -390.675C616.855 -423.748 524.29 -431.663 454.651 -391.643C403.082 -362.008 375.971 -338.183 355.124 -319.862L355.123 -319.861L355.122 -319.86L355.122 -319.86L355.117 -319.856C347.873 -313.49 341.385 -307.788 334.89 -302.738C322.304 -292.954 309.671 -285.593 291.399 -280.526C273.112 -275.455 249.158 -272.676 213.927 -272.089C142.273 -270.911 88.4039 -217.009 72.0267 -157.312C63.8357 -127.455 65.0105 -96.1109 78.0569 -69.1529C91.1079 -42.1854 116.015 -19.6572 155.188 -7.40425L155.189 -7.40394C193.998 4.64843 215.415 19.2803 227.434 34.8681C239.448 50.4498 242.124 67.0534 243.301 83.1929C243.517 86.1511 243.683 89.1013 243.847 92.0279C244.13 97.0645 244.409 102.031 244.933 106.848C245.762 114.482 247.21 121.812 250.284 128.617C256.447 142.266 269.09 153.677 296.004 161.32ZM540.464 142.139C499.864 130.314 465.539 140.629 429.721 151.393C428.053 151.894 426.381 152.397 424.706 152.898C387.042 164.162 347.279 174.841 296.278 160.358C269.549 152.768 257.201 141.506 251.195 128.206C248.183 121.537 246.751 114.324 245.927 106.74C245.406 101.944 245.13 97.0288 244.848 92.0143L244.848 92.0124L244.848 92.0107L244.848 92.0087L244.847 92.0068L244.847 92.0046L244.847 92.0025L244.847 92.0013L244.847 92C244.683 89.0725 244.517 86.1112 244.298 83.1202C243.117 66.9226 240.423 50.0761 228.226 34.2575C216.034 18.4451 194.401 3.72649 155.486 -8.35896C116.546 -20.5389 91.8744 -42.8969 78.9571 -69.5886C66.0347 -96.2901 64.8518 -127.379 72.991 -157.047C89.2742 -216.401 142.817 -269.92 213.943 -271.09C249.208 -271.677 273.259 -274.459 291.666 -279.563C310.088 -284.671 322.837 -292.101 335.504 -301.949C342.048 -307.037 348.566 -312.765 355.832 -319.15C376.673 -337.466 403.675 -361.195 455.149 -390.776C524.425 -430.587 616.626 -422.747 684.591 -389.775C718.568 -373.292 746.437 -350.55 762.345 -324.402C778.242 -298.273 782.2 -268.741 768.38 -238.579C754.475 -209.212 747.477 -188.556 745.738 -171.538C743.996 -154.491 747.533 -141.127 754.612 -126.361C758.705 -117.823 763.972 -108.826 770.091 -98.376C785.135 -72.6795 805.327 -38.1915 825.865 19.886C839 57.1147 836.579 86.1876 823.446 108.161C810.304 130.15 786.376 145.129 756.291 154.033C696.113 171.842 611.548 165.262 540.479 142.144L540.471 142.141L540.464 142.139ZM427.784 130.164C392.996 140.168 356.252 149.803 309.707 136.585C284.55 129.44 272.49 118.985 266.443 106.547C261.426 96.2268 260.581 84.5771 259.707 72.5326L259.707 72.5243C259.533 70.1272 259.358 67.7144 259.148 65.2935C257.883 50.6635 255.373 35.6238 244.486 21.4596C233.595 7.28997 214.268 -6.0688 179.229 -17.1952L179.227 -17.1957C143.725 -28.5978 120.994 -49.3427 108.987 -74.1074C96.9848 -98.863 95.7214 -127.589 103.062 -154.928C117.741 -209.593 166.864 -258.849 233.656 -259.897C266.235 -260.418 288.375 -263.009 305.252 -267.709C322.113 -272.405 333.74 -279.211 345.287 -288.2C351.134 -292.752 356.966 -297.87 363.447 -303.557L363.45 -303.559C382.584 -320.35 407.377 -342.107 454.939 -368.946C518.752 -404.955 603.07 -397.766 665.227 -367.626C696.311 -352.553 721.902 -331.718 736.626 -307.615C751.359 -283.495 755.204 -256.105 742.774 -228.016L742.77 -228.007C730.421 -201.569 724.246 -182.92 722.721 -167.501C721.198 -152.108 724.307 -139.899 730.609 -126.325C734.384 -118.195 739.287 -109.609 745.02 -99.5653C748.891 -92.7856 753.141 -85.3422 757.678 -76.9276C768.921 -56.0782 781.877 -29.3555 795.065 7.77695L795.065 7.7775C807.007 41.5277 804.809 68.2237 792.665 88.5926C780.531 108.946 758.523 122.885 731.044 131.255C676.094 147.994 599.024 142.544 534.216 121.306C496.836 110.237 465.067 119.405 431.715 129.03C430.407 129.408 429.097 129.786 427.784 130.164ZM431.505 128.05C464.81 118.437 496.838 109.192 534.507 120.349L534.514 120.351L534.521 120.353C599.199 141.551 676.054 146.96 730.752 130.299C758.097 121.969 779.845 108.143 791.806 88.0805C803.758 68.0336 805.995 41.6632 794.122 8.11108C780.955 -28.9651 768.021 -55.6408 756.798 -76.453C752.293 -84.8076 748.055 -92.2317 744.186 -99.0098L744.185 -99.0107L744.183 -99.0147L744.182 -99.0164C738.428 -109.096 733.49 -117.747 729.702 -125.904C723.347 -139.593 720.181 -151.983 721.726 -167.6C723.268 -183.19 729.501 -201.961 741.862 -228.426C754.14 -256.177 750.356 -283.219 735.772 -307.094C721.177 -330.987 695.759 -351.71 664.791 -366.726C602.843 -396.765 518.884 -403.881 455.431 -368.075C407.97 -341.293 383.285 -319.632 364.156 -302.846L364.154 -302.845L364.154 -302.844L364.153 -302.844C357.653 -297.14 351.794 -291.999 345.901 -287.411C334.273 -278.359 322.531 -271.483 305.52 -266.746C288.523 -262.012 266.286 -259.419 233.672 -258.897C167.402 -257.857 118.612 -208.98 104.028 -154.669C96.7383 -127.52 98.0069 -99.0471 109.887 -74.5437C121.762 -50.0495 144.264 -29.4753 179.532 -18.1481C214.678 -6.98774 234.217 6.45852 245.279 20.8502C256.345 35.2473 258.875 50.5252 260.145 65.2073C260.357 67.665 260.535 70.103 260.71 72.516C261.586 84.5588 262.417 95.9787 267.343 106.11C273.226 118.212 284.998 128.528 309.981 135.623C356.234 148.758 392.74 139.201 427.507 129.202L428.508 128.914L429.553 128.613L431.304 128.108L431.505 128.05ZM323.424 111.847C365.217 123.716 398.702 115.205 430.588 106.468C431.552 106.204 432.515 105.939 433.476 105.675C464.32 97.2045 493.809 89.1056 528.269 99.5108C586.692 118.831 656.057 123.109 705.527 107.516C730.267 99.718 750.088 86.9311 761.039 68.5077C771.999 50.0685 774.017 26.0764 763.336 -4.00165L763.336 -4.00244C751.419 -37.3813 739.811 -61.5817 729.78 -80.5774C725.999 -87.7383 722.448 -94.1484 719.191 -100.027L719.189 -100.031L719.184 -100.04L719.176 -100.055L719.175 -100.055L719.175 -100.057C714.793 -107.967 710.944 -114.915 707.783 -121.435L698.697 -163.302C698.705 -163.391 698.713 -163.481 698.722 -163.57C700.051 -177.564 705.465 -194.33 716.268 -217.865L716.271 -217.872L716.274 -217.879C727.156 -243.553 723.486 -268.448 710.065 -290.311C696.655 -312.158 673.516 -330.974 645.44 -344.581C589.298 -371.788 513.228 -378.249 455.242 -346.251C411.699 -322.224 389.228 -302.538 371.807 -287.276L371.806 -287.276C366.08 -282.26 360.9 -277.722 355.697 -273.665C345.189 -265.472 334.569 -259.219 319.118 -254.895C303.652 -250.566 283.325 -248.164 253.4 -247.708C191.468 -246.79 147.091 -202.181 134.112 -152.547C127.621 -127.725 128.973 -101.618 139.931 -79.065C150.893 -56.5037 171.449 -37.5421 203.279 -26.9907L203.282 -26.99C234.552 -16.7896 251.788 -4.70399 261.552 8.04769C271.313 20.795 273.657 34.2713 275.01 47.3922C275.205 49.2908 275.38 51.1839 275.554 53.0674C276.579 64.1634 277.572 74.924 282.619 84.4765C288.548 95.7009 300.024 105.2 323.424 111.847ZM718.33 -99.518C714.718 -106.039 711.458 -111.923 708.647 -117.451L729.103 -23.1913C719.353 -49.3679 710.001 -69.0204 701.873 -84.8193C698.85 -90.6946 696.001 -96.0292 693.366 -100.964L693.364 -100.967L693.36 -100.974C688.299 -110.451 684.024 -118.455 680.818 -125.987C675.956 -137.409 673.583 -147.684 674.714 -160.233C675.824 -172.546 680.311 -187.082 689.199 -207.067L698.03 -166.374C699.782 -179.98 705.222 -196.197 715.356 -218.276C726.093 -243.615 722.484 -268.168 709.213 -289.788C695.931 -311.427 672.963 -330.131 645.004 -343.681C589.073 -370.786 513.356 -377.178 455.725 -345.376C412.288 -321.406 389.925 -301.816 372.508 -286.559L372.505 -286.556L372.502 -286.554L372.501 -286.553L372.498 -286.551L372.498 -286.55L372.491 -286.544C366.754 -281.518 361.553 -276.963 356.312 -272.876C345.724 -264.621 334.989 -258.298 319.388 -253.932C303.801 -249.57 283.376 -247.164 253.415 -246.708C192 -245.798 147.963 -201.563 135.079 -152.294C128.639 -127.665 129.992 -101.808 140.831 -79.5021C151.664 -57.2053 171.995 -38.4151 203.592 -27.9407C234.97 -17.7052 252.414 -5.53107 262.346 7.43975C272.281 20.4149 274.647 34.1239 276.004 47.2897C276.202 49.2041 276.378 51.1051 276.552 52.9895L276.554 53.0091C277.582 64.1145 278.558 74.6484 283.503 84.0094C289.263 94.9137 300.46 104.284 323.698 110.885C365.203 122.673 398.451 114.237 430.323 105.504C431.311 105.233 432.298 104.962 433.283 104.691C464.078 96.2325 493.821 88.0627 528.564 98.5554L528.577 98.5591C586.863 117.835 656.008 122.076 705.226 106.562C729.832 98.8066 749.399 86.1334 760.179 67.9968C770.95 49.8761 773.003 26.2083 762.393 -3.66699C750.496 -36.9923 738.909 -61.1485 728.896 -80.1104C725.136 -87.2313 721.591 -93.6307 718.333 -99.5127L718.33 -99.518ZM688.844 -208.705L689.199 -207.067C689.383 -207.481 689.57 -207.898 689.758 -208.317L689.762 -208.326L689.765 -208.335C699.098 -231.595 695.602 -253.994 683.496 -273.601C671.399 -293.191 650.711 -309.989 625.643 -322.128C575.517 -346.402 507.695 -352.137 455.536 -324.151C416.025 -302.95 395.881 -285.338 380.172 -271.603C375.193 -267.25 370.66 -263.287 366.098 -259.722C356.629 -252.325 347.016 -246.627 332.975 -242.674C318.919 -238.716 300.406 -236.502 273.134 -236.111C216.064 -235.325 176.432 -195.362 165.151 -150.759C159.511 -128.454 160.952 -104.965 170.866 -84.6156C180.783 -64.2584 199.162 -47.08 227.321 -37.3791L227.324 -37.3781C254.826 -28.1039 269.971 -17.2916 278.608 -5.9574C287.243 5.37362 289.422 17.2871 290.862 28.9001C291.033 30.2811 291.194 31.6591 291.354 33.0321C292.537 43.1707 293.688 53.034 298.787 61.815C304.599 71.8246 315.489 80.3668 337.132 86.5156C374.173 97.036 404.399 89.6494 433.381 82.18L434.784 81.8182L435.001 81.762L435.199 81.7111C463.538 74.3991 490.762 67.3747 522.312 77.1228C574.352 94.5251 636.012 97.6309 680.002 83.1829C702.001 75.9574 719.637 64.3225 729.403 47.8297C739.179 31.3205 741.018 10.0325 731.597 -16.374L731.597 -16.375C730.763 -18.6953 729.932 -20.9669 729.103 -23.1913L730.655 -16.0379C720.027 -45.6126 709.788 -67.2497 700.984 -84.3617C697.983 -90.1951 695.144 -95.5104 692.512 -100.439L692.511 -100.44L692.51 -100.442C687.432 -109.952 683.122 -118.022 679.898 -125.595C674.99 -137.127 672.568 -147.569 673.718 -160.322C674.866 -173.054 679.57 -188.056 688.841 -208.717L688.837 -208.708L688.844 -208.705ZM688.844 -208.705L689.301 -208.522L688.845 -208.726L688.841 -208.717L688.844 -208.705ZM227.646 -38.3246C255.254 -29.0143 270.603 -18.1126 279.404 -6.56351C288.207 4.98904 290.41 17.1284 291.854 28.777C292.026 30.1632 292.187 31.5412 292.347 32.9097L292.348 32.9129L292.348 32.9161L292.348 32.9193L292.349 32.9225C293.537 43.0835 294.664 52.7245 299.651 61.3129C305.289 71.0221 315.912 79.4472 337.405 85.5537C374.163 95.9938 404.155 88.6797 433.131 81.2116C433.763 81.0487 434.395 80.8856 435.027 80.7227C463.316 73.4228 490.787 66.3339 522.612 76.1691L522.623 76.1725C574.516 93.5267 635.952 96.598 679.69 82.2328C701.555 75.0514 718.943 63.5315 728.543 47.3202C738.132 31.1253 740.001 10.1598 730.655 -16.0379L703.406 -17.2453C707.171 0.029383 704.772 14.5659 697.773 26.4437C689.191 41.0052 673.743 51.4882 654.483 58.1414C615.973 71.445 562.018 69.5119 516.359 54.0269C487.707 44.9266 462.726 50.869 436.886 57.0157L436.177 57.1843C410.1 63.3859 383.132 69.648 350.844 60.4764C330.96 54.8262 320.657 47.2413 314.962 38.449C309.777 30.4431 308.458 21.4883 307.108 12.3175L307.108 12.3171L307.103 12.2848C306.977 11.4259 306.85 10.5651 306.72 9.703C305.192 -0.403445 303.179 -10.7549 295.669 -20.6706C291.665 -25.958 286.084 -31.1378 278.15 -36.0869L227.646 -38.3246ZM227.646 -38.3246L227.643 -38.3257L227.484 -37.8519L227.646 -38.3246ZM280.15 -35.9984C287.401 -31.2769 292.632 -26.3378 296.466 -21.2744C304.138 -11.1454 306.177 -0.576449 307.708 9.55353C307.839 10.4213 307.967 11.2854 308.094 12.1455C309.452 21.3525 310.741 30.0915 315.802 37.9054C321.317 46.422 331.368 53.9025 351.117 59.5145C383.129 68.6074 409.863 62.4143 435.945 56.2114L436.739 56.0227C462.527 49.8879 487.747 43.8886 516.666 53.0753L516.675 53.0783C562.174 68.5098 615.898 70.4128 654.157 57.1962C673.283 50.5892 688.492 40.2226 696.911 25.9359C703.796 14.2523 706.173 -0.10877 702.372 -17.2911L672.571 -18.6115C672.465 -9.77412 670.187 -1.89527 666.138 5.01775C658.742 17.6471 645.482 26.9783 628.963 33.0595C595.933 45.2191 549.682 44.4599 510.401 30.8911C484.796 22.4804 462.156 27.2117 438.967 32.1494L438.523 32.2438C415.493 37.1483 391.912 42.1701 364.552 34.3977C346.428 29.2463 336.714 22.6191 331.139 15.0473C325.818 7.82077 324.317 -0.210512 322.786 -8.40122C322.716 -8.77692 322.645 -9.15296 322.575 -9.52924C321.015 -17.8289 319.242 -26.3039 313.383 -34.5259L280.15 -35.9984ZM337.286 -33.4668L314.643 -34.4701C320.285 -26.2528 322.036 -17.8116 323.557 -9.71393C323.624 -9.35727 323.691 -9.00134 323.757 -8.64618C325.299 -0.407014 326.762 7.41666 331.944 14.4543C337.339 21.7815 346.819 28.3179 364.826 33.4357C391.946 41.1401 415.317 36.1632 438.385 31.2509L438.759 31.1713C461.929 26.2376 484.823 21.4353 510.717 29.9422L510.724 29.9447C549.826 43.4527 595.838 44.1883 628.618 32.121C645.004 26.0886 658.035 16.8755 665.275 4.51241C669.232 -2.24381 671.472 -9.96308 671.572 -18.6557L636.434 -20.2126C635.857 -18.9319 635.214 -17.6826 634.507 -16.4651C628.298 -5.76954 617.227 2.40981 603.449 7.91942C575.9 18.9361 537.35 19.3525 504.445 7.69828C482.148 0.0600681 462.04 3.38834 441.756 7.05833C441.195 7.15986 440.634 7.26166 440.072 7.36353C420.358 10.9387 400.413 14.5558 378.264 8.26236C361.899 3.61011 352.778 -2.05865 347.324 -8.40622C341.871 -14.753 340.138 -21.7239 338.435 -28.8111L338.353 -29.1529C338.008 -30.5865 337.663 -32.0252 337.286 -33.4668ZM338.332 -33.4205C338.677 -32.0864 338.995 -30.7604 339.311 -29.4459L339.313 -29.4369L339.313 -29.4362L339.407 -29.0448C341.113 -21.946 342.805 -15.2003 348.083 -9.05789C353.359 -2.91632 362.272 2.67658 378.537 7.30045C400.46 13.5295 420.201 9.95002 439.956 6.36814L440.739 6.22626L441.578 6.07429C461.855 2.40571 482.201 -0.979605 504.772 6.75312L504.777 6.75483C537.479 18.3378 575.777 17.908 603.078 6.99089C616.726 1.53347 627.581 -6.5262 633.642 -16.9672C634.265 -18.0392 634.837 -19.1369 635.357 -20.2603L587.361 -22.3868C584.45 -20.5066 581.291 -18.8099 577.931 -17.3067C555.864 -7.43196 525.013 -5.83593 498.478 -15.5783C479.485 -22.4446 461.909 -20.5181 444.53 -18.1156C443.517 -17.9755 442.504 -17.8337 441.491 -17.692L441.474 -17.6896C425.155 -15.4056 408.929 -13.1346 391.965 -17.9561C377.362 -22.109 368.837 -26.8186 363.509 -31.9376C363.376 -32.0656 363.245 -32.1939 363.115 -32.3224L338.332 -33.4205ZM577.523 -18.2195C580.38 -19.4981 583.085 -20.9155 585.608 -22.4645L364.63 -32.2553C369.822 -27.4463 378.109 -22.9361 392.238 -18.918C408.992 -14.1562 425.021 -16.3982 441.381 -18.6865C442.383 -18.8267 443.388 -18.9672 444.393 -19.1062C461.777 -21.5094 479.573 -23.4764 498.819 -16.5183L498.822 -16.5175C525.118 -6.86235 555.699 -8.45363 577.523 -18.2195Z" fill="url(#paint0_linear_8289_28207)"/>
<defs>
<linearGradient id="paint0_linear_8289_28207" x1="572.5" y1="-71.5" x2="572.496" y2="106.001" gradientUnits="userSpaceOnUse">
<stop stop-color="#444444"/>
<stop offset="1" stop-color="#474851" stop-opacity="0"/>
</linearGradient>
</defs>
</svg>
