<svg width="84" height="75" viewBox="0 0 84 75" fill="none" xmlns="http://www.w3.org/2000/svg">
<path d="M75.6799 8.32007C73.6731 6.30638 71.2887 4.70862 68.6631 3.61843C66.0376 2.52823 63.2227 1.96704 60.3799 1.96704C57.537 1.96704 54.7221 2.52823 52.0966 3.61843C49.4711 4.70862 47.0866 6.30638 45.0799 8.32007L41.9999 11.4401L38.9199 8.32007C36.9131 6.30638 34.5287 4.70862 31.9031 3.61843C29.2776 2.52823 26.4627 1.96704 23.6199 1.96704C20.777 1.96704 17.9621 2.52823 15.3366 3.61843C12.7111 4.70862 10.3266 6.30638 8.31986 8.32007C-0.160143 16.8001 -0.680143 31.1201 9.99986 42.0001L41.9999 74.0001L73.9999 42.0001C84.6799 31.1201 84.1599 16.8001 75.6799 8.32007Z" stroke="#E36D3A" stroke-width="2" stroke-linecap="round" stroke-linejoin="round"/>
</svg>
