<svg width="90" height="90" viewBox="0 0 90 90" fill="none" xmlns="http://www.w3.org/2000/svg">
<path fill-rule="evenodd" clip-rule="evenodd" d="M25.366 2.11304C22.6718 2.11304 20.088 3.18329 18.1829 5.08834C16.2779 6.9934 15.2076 9.5772 15.2076 12.2714C15.2076 14.9655 16.2779 17.5493 18.1829 19.4544C20.088 21.3594 22.6718 22.4297 25.366 22.4297H44.0574L44.056 22.4241C43.9101 21.8405 43.6841 21.0033 43.3655 19.9972C42.7275 17.9825 41.7224 15.3042 40.2532 12.6328C37.2973 7.25846 32.5847 2.11304 25.366 2.11304ZM1.3667 22.4369H19.6583C18.737 21.9197 17.8826 21.2753 17.1223 20.515C14.9359 18.3287 13.7076 15.3633 13.7076 12.2714C13.7076 9.17938 14.9359 6.21404 17.1223 4.02768C19.3086 1.84132 22.274 0.613037 25.366 0.613037C33.4189 0.613037 38.5238 6.37594 41.5675 11.9099C43.098 14.6927 44.1382 17.4685 44.7956 19.5444C44.868 19.7732 44.9358 19.9936 44.9992 20.2047C45.0626 19.9936 45.1304 19.7732 45.2029 19.5444C45.8602 17.4685 46.9004 14.6927 48.4309 11.9099C51.4746 6.37594 56.5796 0.613037 64.6325 0.613037C67.7244 0.613037 70.6898 1.84132 72.8761 4.02768C75.0625 6.21404 76.2908 9.17938 76.2908 12.2714C76.2908 15.3633 75.0625 18.3287 72.8761 20.515C72.1159 21.2753 71.2614 21.9197 70.3402 22.4369H88.6333C89.0475 22.4369 89.3833 22.7727 89.3833 23.1869V45.0036C89.3833 45.4178 89.0475 45.7536 88.6333 45.7536H80.6487V88.6328C80.6487 89.047 80.3129 89.3828 79.8987 89.3828H45.0735C45.0476 89.3855 45.0213 89.3869 44.9946 89.3869C44.9815 89.3869 44.9685 89.3865 44.9556 89.3859C44.9422 89.3852 44.9289 89.3841 44.9158 89.3828H10.0855C9.67125 89.3828 9.33547 89.047 9.33547 88.6328V45.7536H1.3667C0.952486 45.7536 0.616699 45.4178 0.616699 45.0036V23.1869C0.616699 22.7727 0.952486 22.4369 1.3667 22.4369ZM45.7446 87.8828H79.1487V45.7536H45.7446V87.8828ZM44.2446 45.7536V87.8828H10.8355V45.7536H44.2446ZM45.7446 44.2536H79.8198C79.8457 44.2509 79.8721 44.2495 79.8987 44.2495C79.9254 44.2495 79.9517 44.2509 79.9776 44.2536H87.8833V23.9369H45.7446V44.2536ZM44.2446 23.9369V44.2536H10.1644C10.1384 44.2509 10.1121 44.2495 10.0855 44.2495C10.0588 44.2495 10.0325 44.2509 10.0066 44.2536H2.1167V23.9369H44.2446ZM64.6325 22.4297H45.941L45.9424 22.4241C46.0883 21.8405 46.3143 21.0033 46.6329 19.9972C47.2709 17.9825 48.276 15.3042 49.7453 12.6328C52.7011 7.25846 57.4137 2.11304 64.6325 2.11304C67.3266 2.11304 69.9104 3.18329 71.8155 5.08834C73.7205 6.9934 74.7908 9.5772 74.7908 12.2714C74.7908 14.9655 73.7205 17.5493 71.8155 19.4544C69.9104 21.3594 67.3266 22.4297 64.6325 22.4297Z" fill="#E36D3A"/>
</svg>
