<svg width="96" height="96" viewBox="0 0 96 96" fill="none" xmlns="http://www.w3.org/2000/svg">
<path d="M65.864 30C62.572 16.948 55.808 8 48 8C36.956 8 28 25.908 28 48C28 70.092 36.956 88 48 88C49.368 88 50.708 87.724 52 87.2" stroke="#E36D3A" stroke-width="1.5" stroke-linecap="round" stroke-linejoin="round"/>
<path d="M60.7759 54.8279L76.0319 62.2679L68.5919 77.5239" stroke="#E36D3A" stroke-width="1.5" stroke-linecap="round" stroke-linejoin="round"/>
<path d="M76 62.28C68.784 65.82 58.904 68 48 68C25.908 68 8 59.044 8 48C8 36.956 25.908 28 48 28C67.352 28 83.492 34.872 87.2 44" stroke="#E36D3A" stroke-width="1.5" stroke-linecap="round" stroke-linejoin="round"/>
</svg>
