<svg width="160" height="160" viewBox="0 0 160 160" fill="none" xmlns="http://www.w3.org/2000/svg">
<circle cx="80" cy="80" r="80" fill="#EBEBEB"/>
<path d="M80.11 21.4885L79.3259 24.1556V101.542L80.11 102.325L115.978 81.092L80.11 21.4885Z" fill="#6B6B6B"/>
<path d="M80.11 21.4885L44.2407 81.092L80.11 102.325V64.7641V21.4885Z" fill="#A2A2A2"/>
<path d="M80.11 109.126L79.6681 109.666V137.232L80.11 138.524L116 87.904L80.11 109.126Z" fill="#4F4E4E"/>
<path d="M80.11 138.524V109.126L44.2407 87.904L80.11 138.524Z" fill="#A2A2A2"/>
<path d="M80.11 102.325L115.978 81.092L80.11 64.7641V102.325Z" fill="#797979"/>
<path d="M44.2407 81.092L80.11 102.325V64.7641L44.2407 81.092Z" fill="#D4D4D4"/>
<g style="mix-blend-mode:overlay">
<path d="M80.1114 21.4885L79.3272 24.1557V101.545L80.1114 102.328L115.981 81.0943L80.1114 21.4885Z" fill="#ACE730"/>
<path d="M80.1114 21.4885L44.2407 81.0943L80.1114 102.328V64.7657V21.4885Z" fill="#ACE730"/>
<path d="M80.1114 109.129L79.6695 109.669V137.236L80.1114 138.528L116.003 87.9065L80.1114 109.129Z" fill="#ACE730"/>
<path d="M80.1114 138.528V109.129L44.2407 87.9065L80.1114 138.528Z" fill="#ACE730"/>
<path d="M80.1114 102.328L115.981 81.0943L80.1114 64.7657V102.328Z" fill="#ACE730"/>
<path d="M44.2407 81.0943L80.1114 102.328V64.7657L44.2407 81.0943Z" fill="#ACE730"/>
</g>
</svg>
