<svg viewBox="0 0 120 120" fill="none" xmlns="http://www.w3.org/2000/svg">
  <g clip-path="url(#clip0_2450_7959)">
    <circle cx="60" cy="60" r="60" fill="#E0F3FF" fill-opacity="0.2"/>
    <circle cx="60" cy="60" r="60" fill="url(#paint0_linear_2450_7959)" fill-opacity="0.5" style="mix-blend-mode:overlay"/>
    <circle cx="60" cy="60" r="58.125" stroke="#E0F3FF" stroke-opacity="0.2" stroke-width="3.75"/>
    <circle cx="60" cy="60" r="58.125" stroke="url(#paint1_linear_2450_7959)" stroke-opacity="0.5" stroke-width="3.75" style="mix-blend-mode:overlay"/>
    <g style="mix-blend-mode:soft-light">
      <path fill-rule="evenodd" clip-rule="evenodd" d="M49.9541 32.1611L32.1611 49.9541C26.613 55.5023 26.613 64.498 32.1611 70.0462L49.9541 87.8388C55.5023 93.3871 64.498 93.3871 70.0462 87.8388L87.8388 70.0462C93.3871 64.498 93.3871 55.5023 87.8388 49.9541L70.0462 32.1611C64.498 26.613 55.5023 26.613 49.9541 32.1611Z" fill="#E0F3FF"/>
    </g>
    <g opacity="0.5">
      <path d="M51.7217 33.9287C56.2935 29.3569 63.7064 29.3571 68.2783 33.9287L86.0713 51.7217C90.6431 56.2935 90.643 63.7064 86.0713 68.2783L68.2783 86.0713C63.7064 90.643 56.2935 90.6431 51.7217 86.0713L33.9287 68.2783C29.3571 63.7064 29.3569 56.2935 33.9287 51.7217L51.7217 33.9287Z" stroke="url(#paint2_linear_2450_7959)" stroke-width="5" style="mix-blend-mode:overlay"/>
    </g>
  </g>
  <defs>
    <linearGradient id="paint0_linear_2450_7959" x1="60" y1="0" x2="60" y2="120" gradientUnits="userSpaceOnUse">
      <stop stop-color="white"/>
      <stop offset="1"/>
    </linearGradient>
    <linearGradient id="paint1_linear_2450_7959" x1="60" y1="0" x2="60" y2="120" gradientUnits="userSpaceOnUse">
      <stop/>
      <stop offset="1" stop-color="white"/>
    </linearGradient>
    <linearGradient id="paint2_linear_2450_7959" x1="60" y1="28" x2="60" y2="92" gradientUnits="userSpaceOnUse">
      <stop stop-color="white"/>
      <stop offset="1"/>
    </linearGradient>
    <clipPath id="clip0_2450_7959">
      <rect width="120" height="120" fill="white"/>
    </clipPath>
  </defs>
</svg>
