<svg viewBox="0 0 153 153" fill="none" xmlns="http://www.w3.org/2000/svg">
  <path fill="" d="M0 76.5C0 34.2502 34.2502 0 76.5 0C118.75 0 153 34.2502 153 76.5C153 118.75 118.75 153 76.5 153C34.2502 153 0 118.75 0 76.5Z"/>
  <path d="M133 76.2646C133 113.622 110.138 125.609 98.0924 114.936C88.1767 106.232 85.2269 87.8408 70.3132 85.9528C51.3842 83.5711 49.7457 108.778 37.2898 108.778C22.7858 108.778 20 87.6768 20 76.839C20 65.754 23.1138 50.6465 35.4873 50.6465C49.9097 50.6465 50.7289 72.2405 68.7564 71.0909C86.7022 69.8589 87.0294 47.3625 98.666 37.7559C108.827 29.4637 133 38.4127 133 76.2646Z" fill="#97FCE4"/>
</svg>
