<svg width="138" height="138" viewBox="0 0 138 138" fill="none" xmlns="http://www.w3.org/2000/svg">
    <path d="M69.211 137.461C106.904 137.461 137.461 106.904 137.461 69.211C137.461 31.5176 106.904 0.960999 69.211 0.960999C31.5176 0.960999 0.960999 31.5176 0.960999 69.211C0.960999 106.904 31.5176 137.461 69.211 137.461Z" fill="#FF0420"/>
    <path d="M97.7249 44.9404H72.7212L72.7471 101.901H88.2615V91.5873H97.7249C110.603 91.5873 121.042 81.1478 121.042 68.2701V68.2576C121.042 55.3798 110.603 44.9404 97.7249 44.9404ZM104.492 68.3425C100.757 70.2039 97.9588 73.0019 96.0975 76.7367H95.94C94.0787 73.0019 91.2806 70.2039 87.546 68.3425V68.185C91.2806 66.3237 94.0787 63.5256 95.94 59.791H96.0975C97.9588 63.5256 100.757 66.3237 104.492 68.185V68.3425ZM42.0597 43.6665C28.4751 43.6665 17.4624 54.6791 17.4624 68.2638C17.4624 81.8484 28.475 92.8611 42.0596 92.8611C55.6443 92.8611 66.6569 81.8485 66.6569 68.2638C66.6569 54.6792 55.6445 43.6665 42.0597 43.6665ZM50.5325 68.3425C46.7979 70.2039 43.9998 73.0019 42.1385 76.7367H41.9809C40.1196 73.0019 37.3216 70.2039 33.5868 68.3425V68.185C37.3216 66.3237 40.1196 63.5256 41.9809 59.791H42.1385C43.9998 63.5256 46.7979 66.3237 50.5325 68.185V68.3425Z" fill="white"/>
    </svg>
    