<svg viewBox="0 0 208 208" fill="none" xmlns="http://www.w3.org/2000/svg">
  <circle cx="104" cy="104" r="104" fill="#1E1E1E"/>
  <g clip-path="url(#clip0_32_13)">
    <path d="M172.31 137.246L150.189 160.407C149.708 160.91 149.127 161.311 148.48 161.585C147.833 161.859 147.136 162 146.431 162H41.5681C41.0677 162 40.5782 161.857 40.1598 161.589C39.7414 161.322 39.4123 160.94 39.2128 160.492C39.0134 160.044 38.9523 159.549 39.0372 159.068C39.1221 158.586 39.3491 158.14 39.6905 157.782L61.8279 134.622C62.3075 134.12 62.8874 133.72 63.5318 133.446C64.1763 133.172 64.8716 133.03 65.5746 133.029H170.432C170.932 133.029 171.422 133.171 171.84 133.439C172.258 133.707 172.587 134.088 172.788 134.536C172.987 134.984 173.048 135.479 172.963 135.961C172.878 136.442 172.651 136.889 172.31 137.246ZM150.189 90.6077C149.708 90.1046 149.127 89.7034 148.48 89.4293C147.833 89.1553 147.136 89.0139 146.431 89.0143H41.5681C41.0677 89.0143 40.5782 89.157 40.1598 89.4249C39.7414 89.6928 39.4123 90.0741 39.2128 90.522C39.0134 90.9701 38.9523 91.4652 39.0372 91.9466C39.1221 92.4279 39.3491 92.8747 39.6905 93.2319L61.8279 116.392C62.3075 116.894 62.8874 117.294 63.5318 117.568C64.1763 117.842 64.8716 117.985 65.5746 117.986H170.432C170.932 117.986 171.422 117.843 171.84 117.575C172.258 117.307 172.587 116.926 172.788 116.478C172.987 116.03 173.048 115.535 172.963 115.053C172.878 114.572 172.651 114.125 172.31 113.768L150.189 90.6077ZM41.5681 73.9715H146.431C147.136 73.9717 147.833 73.8305 148.48 73.5564C149.127 73.2822 149.708 72.8811 150.189 72.378L172.31 49.2176C172.651 48.8604 172.878 48.4137 172.963 47.9323C173.048 47.4509 172.987 46.9558 172.788 46.5078C172.587 46.0598 172.258 45.6785 171.84 45.4106C171.422 45.1427 170.932 45 170.432 45H65.5746C64.8716 45.0012 64.1763 45.1432 63.5318 45.4173C62.8874 45.6914 62.3075 46.0917 61.8279 46.5934L39.6962 69.7539C39.3551 70.1106 39.1282 70.5569 39.0431 71.0377C38.9581 71.5186 39.0187 72.0133 39.2174 72.4611C39.4161 72.9089 39.7444 73.2902 40.162 73.5585C40.5795 73.8268 41.0682 73.9703 41.5681 73.9715Z" fill="url(#paint0_linear_32_13)"/>
  </g>
  <defs>
    <linearGradient id="paint0_linear_32_13" x1="50.3112" y1="164.788" x2="157.329" y2="41.214" gradientUnits="userSpaceOnUse">
      <stop offset="0.08" stop-color="#9945FF"/>
      <stop offset="0.3" stop-color="#8752F3"/>
      <stop offset="0.5" stop-color="#5497D5"/>
      <stop offset="0.6" stop-color="#43B4CA"/>
      <stop offset="0.72" stop-color="#28E0B9"/>
      <stop offset="0.97" stop-color="#19FB9B"/>
    </linearGradient>
    <clipPath id="clip0_32_13">
      <rect width="134" height="117" fill="white" transform="translate(39 45)"/>
    </clipPath>
  </defs>
</svg>
