<svg width="676" height="676" viewBox="0 0 676 676" fill="none" xmlns="http://www.w3.org/2000/svg">
<rect width="675.156" height="675.156" rx="337.578" fill="url(#paint0_linear_434_908)"/>
<path fill-rule="evenodd" clip-rule="evenodd" d="M174.854 284.933C174.854 284.933 127.149 207.854 180.411 180.944C214.201 166.113 248.426 176.752 266.226 185.94C268.229 186.852 269.99 187.677 271.57 188.417C283.497 194.001 285.058 194.732 301.697 191.226C342.851 181.843 385.413 186.722 416.017 199.519C454.44 162.625 540.664 160.892 495.29 254.75C495.29 254.75 503.812 264.357 509.168 272.188C510.598 275.386 508.643 278.292 506.52 281.448C504.084 285.068 501.427 289.017 503.4 294.115C506.345 301.726 510.98 309.176 516.305 317.735C523.016 328.52 530.822 341.065 537.72 357.91C550.094 388.125 532.677 434.861 515.95 461.985C487.301 506.383 439.858 488.699 400.937 469.564C395.436 466.86 388.778 469.331 386.466 475.008L365.745 525.867C362.459 533.933 353.969 538.65 345.595 536.257C286.598 519.394 186.323 459.902 134.58 332.596C130.77 323.223 135.781 312.639 144.743 307.942C154.697 302.725 166.906 294.918 174.854 284.933ZM510.667 252.621C513.496 256.051 517.081 260.565 519.974 264.796L520.639 265.768L521.12 266.843C523.811 272.86 522.714 278.427 521.114 282.238C519.966 284.971 518.155 287.629 517.257 288.947C517.134 289.128 517.028 289.283 516.943 289.41C516.585 289.948 516.322 290.369 516.132 290.689C518.621 296.646 522.38 302.699 527.476 310.902C528.144 311.977 528.835 313.09 529.549 314.244C535.867 324.455 543.235 336.831 549.836 352.949C557.608 371.926 555.591 394.497 550.419 414.399C545.154 434.661 536.057 454.323 527.094 468.857L527.024 468.971L526.951 469.084C518.633 481.975 508.518 490.974 496.953 496.431C485.452 501.858 473.322 503.403 461.483 502.667C439.262 501.284 416.576 491.722 397.557 482.485L377.87 530.806C372.357 544.338 357.519 553.281 341.997 548.845C279.704 531.04 175.92 469.079 122.451 337.526C115.624 320.731 124.929 303.545 138.665 296.346C145.563 292.731 152.893 288.141 158.773 282.88C158.031 281.431 157.236 279.83 156.411 278.096C152.532 269.949 147.828 258.544 144.908 245.998C142.018 233.582 140.628 219.014 144.446 205.084C148.419 190.588 157.813 177.693 174.507 169.258L174.824 169.098L175.149 168.955C213.915 151.94 252.389 164.14 271.936 174.155C274.164 175.171 275.863 175.968 277.319 176.652C278.921 177.404 280.228 178.018 281.623 178.633C283.973 179.669 285.05 179.995 285.796 180.139C287.18 180.406 289.216 180.473 298.894 178.437C339.345 169.237 381.128 172.904 413.387 184.464C423.45 176.491 435.285 170.477 447.186 166.859C461.576 162.485 477.416 161.22 491.104 165.645C505.605 170.332 517.069 181.349 520.323 198.956C523.034 213.62 519.804 231.529 510.667 252.621Z" fill="white"/>
<path d="M430.017 204.711C438.208 197.327 464.5 183.994 484.5 191.034C459.076 192.227 452.706 217.013 430.017 204.711Z" fill="white"/>
<path d="M176.062 336.5C172.067 322.914 161.998 309.098 145.095 322.874C179.624 413.138 240.791 461.258 240.791 461.258C208.223 427.077 187.007 368.977 176.062 336.5Z" fill="white"/>
<path d="M318.99 398.526C335.842 413.315 367.516 414.303 415.2 412.399C393.52 424.479 358.181 424.082 358.181 424.082C374.143 434.888 406.918 447.472 440.682 449.268C474.446 451.064 499.231 442.084 499.18 411.58C499.18 379.759 443.851 344.409 318.99 398.526Z" fill="white"/>
<path d="M529.745 378.994C523.002 383.71 515.373 395.7 513.038 410.41C502.9 470.283 534.561 411.052 529.745 378.994Z" fill="white"/>
<path d="M406.771 455.373C432.984 469.299 485.234 492.926 505.979 453.303L504.424 451.688C503.634 450.867 502.409 450.654 501.375 451.133C479.133 461.431 445.54 464.992 406.771 455.373Z" fill="white"/>
<path d="M427.052 299.026C433.196 315.983 440.849 335.559 447.583 348.194C451.336 355.238 458.588 359.264 466.517 360.181C500.938 364.162 511.729 360.966 518.51 357.874C521.573 356.478 523.235 353.022 521.362 350.225C521.362 350.225 494.657 305.76 481.454 288.426C474.215 277.833 465.624 266.882 488.739 267.297C424.675 201.009 366.012 190.381 297.823 205.339C284.562 207.945 277.324 206.034 263.601 199.143C248.951 191.732 228.105 183.335 201.179 188.083C220.338 200.597 236.215 220.274 247.312 237.44C261.24 258.985 284.854 274.809 310.438 272.907L377.295 267.934C398.156 266.383 419.926 279.358 427.052 299.026Z" fill="white"/>
<path d="M336.605 284.168L285.911 287.216C188.225 294.481 237.128 403.798 356.209 371.136C420.746 353.434 431.093 341.71 417.417 310.207C415.325 306.441 411.157 304.302 406.853 304.468C374.961 305.699 356.89 297.995 349.903 290.841C346.338 287.189 341.7 283.862 336.605 284.168Z" fill="white"/>
<defs>
<linearGradient id="paint0_linear_434_908" x1="337.578" y1="0" x2="337.577" y2="675.156" gradientUnits="userSpaceOnUse">
<stop stop-color="#FF9E00"/>
<stop offset="1" stop-color="#FE5200"/>
</linearGradient>
</defs>
</svg>
