<svg viewBox="0 0 153 153" fill="none" xmlns="http://www.w3.org/2000/svg">
  <path id="path-to-animate" d="M0 76.5C0 34.2502 34.2502 0 76.5 0V0C118.75 0 153 34.2502 153 76.5V76.5C153 118.75 118.75 153 76.5 153V153C34.2502 153 0 118.75 0 76.5V76.5Z" fill="#9DAAB3"/>
  <path d="M121 77.2358C121 77.6819 120.994 78.1281 120.981 78.5742H120.93H99.58V77.5991H78.9821C78.9821 77.3951 78.9884 77.1912 78.9884 76.9936C78.9884 76.7961 78.9884 76.5858 78.9821 76.3882H99.58V75.4195H99.612H120.962C120.987 76.0249 121 76.6303 121 77.2358ZM78.6187 72.8447L98.7771 70.3656L98.8983 71.3343L120.184 68.715C119.981 67.6698 119.738 66.6373 119.464 65.624L98.5091 68.2051L98.6303 69.1738L78.3766 71.6657C78.4658 72.0609 78.5487 72.4559 78.6187 72.8575V72.8447ZM77.5672 68.9444L96.8331 64.1327L97.0691 65.0759L117.514 59.971C117.093 58.9832 116.641 58.0081 116.157 57.0585L96.3103 62.0168L96.5463 62.96L77.1211 67.8163C77.2804 68.1923 77.427 68.5683 77.5672 68.9507V68.9444ZM75.8592 65.2926L93.8697 58.4925L94.2137 59.4038L113.269 52.2086C112.651 51.3036 112.001 50.4241 111.313 49.5701L93.0983 56.4467L93.4429 57.3581L75.2155 64.241C75.4386 64.5851 75.6553 64.9357 75.8592 65.2926ZM73.4948 61.9149L89.4023 53.6234L89.848 54.4902L107.438 45.3193C106.629 44.5353 105.787 43.7897 104.921 43.0695L88.3886 51.686L88.8349 52.5527L72.6599 60.9843C72.9403 61.2903 73.2207 61.5962 73.4884 61.9149H73.4948ZM69.6582 58.2694L84.0614 49.1113L84.584 49.9334L100.478 39.8256C99.4777 39.1883 98.4583 38.5956 97.4069 38.0411L82.8951 47.2694L83.4177 48.0915L68.6002 57.511C68.9635 57.7532 69.314 58.0081 69.6645 58.2694H69.6582ZM66.2549 56.1408L78.3256 46.2433L78.9438 46.9954L92.5377 35.8424C91.384 35.4027 90.1989 35.0075 89.0006 34.6634L76.9426 44.5545L77.5609 45.3065L65.0504 55.5672C65.4583 55.7457 65.8598 55.9369 66.2549 56.1408ZM61.7491 54.3882L71.2833 44.8986L71.9653 45.5869L84.0805 33.5481C82.7677 33.3314 81.4357 33.1721 80.0846 33.0701L69.7538 43.3499L70.4357 44.0382L60.3662 54.0568C60.8314 54.1524 61.2903 54.2607 61.7491 54.3882ZM56.4786 53.5915L64.0817 44.376L64.8337 44.9942L74.7311 33C73.2271 33.0701 71.7422 33.2167 70.2827 33.4334L62.3992 42.9867L63.1512 43.6049L54.9171 53.5851C55.1466 53.5788 55.3824 53.5724 55.6118 53.5724C55.905 53.5724 56.1918 53.5724 56.4786 53.5851V53.5915ZM51.9218 53.8656L57.7787 44.803L58.5945 45.332L65.675 34.3702C64.0562 34.7908 62.4757 35.3007 60.9334 35.8934L55.9496 43.6113L56.7654 44.1402L50.2775 54.1842C50.8193 54.0568 51.3673 53.9485 51.9218 53.8592V53.8656ZM46.8615 55.2741L51.0742 47.3778L51.9282 47.8366L57.5046 37.3911C55.7138 38.2642 53.993 39.252 52.3488 40.3482L49.1431 46.3517L50.0035 46.8106L45.0452 56.1026C45.6315 55.803 46.237 55.529 46.8551 55.2804L46.8615 55.2741ZM43.2289 57.1286L45.0197 52.0429L45.9374 52.3679L49.4171 42.4895C47.6518 43.8917 45.9948 45.4212 44.4589 47.0718L42.9612 51.3227L43.8789 51.6477L41.5336 58.3013C42.0817 57.887 42.6425 57.4983 43.2225 57.135L43.2289 57.1286ZM38.7613 60.7677L39.5515 57.0713L40.5011 57.2752L42.0945 49.8314C40.4183 51.96 38.9334 54.2479 37.6651 56.6634L38.3725 56.8163L36.9195 62.9345C37.4867 62.1761 38.1049 61.4496 38.7613 60.7677ZM35.4791 65.0886V60.1941C34.2937 63.3233 33.4525 67.2173 33 71.0347C33.5545 68.9189 34.3957 66.9241 35.4791 65.0886ZM33.0319 83.0799C33.4971 86.3366 34.3129 89.4786 35.4473 92.4674V88.854C34.4021 87.0695 33.58 85.1321 33.0319 83.0799ZM37.0724 91.2691L38.3407 97.1834L37.6333 97.3366C38.9015 99.7583 40.3865 102.04 42.0626 104.169L40.4693 96.7246L39.5197 96.9286L38.7167 93.1874C38.1367 92.576 37.5823 91.9389 37.0724 91.2629V91.2691ZM41.489 95.6669L43.847 102.359L42.9293 102.683L44.427 106.934C45.9629 108.585 47.6199 110.115 49.3853 111.517L45.9055 101.638L44.9878 101.963L43.1906 96.852C42.6107 96.4829 42.0434 96.0937 41.4954 95.6794L41.489 95.6669ZM45.007 97.8783L49.978 107.196L49.1176 107.655L52.3233 113.658C53.9675 114.754 55.6883 115.742 57.4791 116.615L51.9027 106.17L51.0423 106.629L46.8169 98.7131C46.1987 98.4646 45.5933 98.184 45.0006 97.8846L45.007 97.8783ZM50.2393 99.8029L56.7335 109.86L55.9177 110.389L60.9015 118.107C62.4438 118.699 64.0243 119.209 65.6431 119.63L58.5626 108.668L57.7468 109.197L51.8835 100.122C51.3291 100.033 50.7746 99.924 50.2329 99.7966L50.2393 99.8029ZM54.8789 100.415L63.113 110.395L62.361 111.013L70.2445 120.567C71.7039 120.783 73.1889 120.93 74.6929 121L64.7955 108.999L64.0434 109.618L56.4403 100.402C56.1663 100.415 55.8859 100.415 55.6054 100.415C55.3633 100.415 55.1147 100.415 54.8725 100.402L54.8789 100.415ZM60.3407 99.9434L70.4038 109.955L69.7219 110.643L80.0527 120.923C81.4038 120.822 82.7358 120.662 84.0487 120.446L71.9397 108.401L71.2514 109.095L61.7237 99.612C61.2711 99.7331 60.8059 99.8474 60.3407 99.9434ZM65.0313 98.4457L77.529 108.7L76.9108 109.452L88.9686 119.343C90.1669 118.999 91.352 118.603 92.5057 118.164L78.9055 107.011L78.2874 107.763L66.2294 97.872C65.8343 98.076 65.4328 98.2669 65.0249 98.4457H65.0313ZM68.5747 96.4954L83.3731 105.909L82.8505 106.731L97.3623 115.959C98.4137 115.405 99.44 114.805 100.434 114.174L84.5394 104.067L84.0168 104.889L69.6327 95.7434C69.2822 96.0046 68.9317 96.2594 68.5683 96.5017L68.5747 96.4954ZM72.6535 93.0286L88.8091 101.447L88.3634 102.314L104.895 110.93C105.762 110.21 106.603 109.465 107.413 108.681L89.8229 99.5097L89.3766 100.377L73.4884 92.0977C73.2207 92.4166 72.9467 92.7286 72.6599 93.0286H72.6535ZM75.2091 89.7654L93.4109 96.6417L93.0669 97.5531L111.281 104.43C111.963 103.576 112.613 102.697 113.238 101.791L94.1817 94.596L93.8377 95.5074L75.8529 88.7138C75.6489 89.0707 75.4322 89.4212 75.2091 89.7654ZM77.1147 86.1964L96.508 91.04L96.2726 91.9834L116.118 96.9417C116.609 95.992 117.061 95.0166 117.482 94.0291L97.0371 88.9241L96.8011 89.8673L77.5609 85.062C77.4206 85.4444 77.2677 85.8204 77.1147 86.1964ZM78.3766 82.347L98.5983 84.8326L98.4771 85.8013L119.432 88.3824C119.706 87.3627 119.949 86.3302 120.153 85.2914L98.8663 82.6721L98.7451 83.6408L78.6187 81.1617C78.5487 81.5631 78.4658 81.9583 78.3766 82.3534V82.347Z" fill="#2D2E33"/>
</svg>
