<svg width="416" height="397" viewBox="0 0 416 397" fill="none" xmlns="http://www.w3.org/2000/svg">
    <path
        d="M311.584 220.334H361.5C362.693 220.334 363.838 219.86 364.682 219.016C365.526 218.173 366 217.028 366 215.834V179.834C366 178.641 365.526 177.496 364.682 176.652C363.838 175.809 362.693 175.334 361.5 175.334H291.549L236.44 51.5596C235.969 50.4999 235.2 49.5997 234.227 48.968C233.254 48.3362 232.119 48 230.959 48H186.041C184.881 48 183.746 48.3362 182.773 48.968C181.8 49.5997 181.031 50.4999 180.56 51.5596L125.452 175.334H55.5C54.3065 175.334 53.1619 175.809 52.318 176.652C51.4741 177.496 51 178.641 51 179.834V215.834C51 217.028 51.4741 218.173 52.318 219.016C53.1619 219.86 54.3065 220.334 55.5 220.334H105.416L51.3946 341.669C51.0895 342.354 50.9605 343.105 51.0194 343.853C51.0782 344.6 51.323 345.322 51.7315 345.951C52.1401 346.58 52.6993 347.097 53.3585 347.455C54.0176 347.813 54.7558 348 55.5059 348H95.6792C96.8392 348 97.9743 347.664 98.9472 347.032C99.92 346.4 100.689 345.5 101.161 344.44L208.5 103.352L315.839 344.44C316.311 345.5 317.08 346.4 318.053 347.032C319.026 347.664 320.161 348 321.321 348H361.495C362.245 348 362.983 347.813 363.642 347.455C364.301 347.097 364.86 346.58 365.269 345.951C365.677 345.322 365.922 344.601 365.981 343.853C366.04 343.105 365.911 342.355 365.606 341.67L311.584 220.334Z"
        fill="#9DAAB3" />
</svg>
	