<svg width="32" height="32" viewBox="0 0 32 32" fill="none" xmlns="http://www.w3.org/2000/svg">
<rect width="32" height="32" rx="16" fill="#9DAAB3"/>
<g clip-path="url(#clip0_5961_127052)">
<path d="M10.0353 20.8002C8.96705 20.8002 8.09182 20.5513 7.4096 20.0535C6.73634 19.5469 6.39972 18.8269 6.39972 17.8935C6.39972 17.698 6.42216 17.458 6.46704 17.1735C6.58374 16.5335 6.74981 15.7646 6.96525 14.8669C7.57567 12.4224 9.15107 11.2002 11.6915 11.2002C12.3827 11.2002 13.0021 11.3158 13.5497 11.5469C14.0972 11.7691 14.5281 12.1069 14.8423 12.5602C15.1565 13.0046 15.3136 13.538 15.3136 14.1602C15.3136 14.3469 15.2911 14.5824 15.2463 14.8669C15.1116 15.658 14.95 16.4269 14.7615 17.1735C14.4473 18.3913 13.9042 19.3024 13.1322 19.9069C12.3602 20.5024 11.3279 20.8002 10.0353 20.8002ZM10.2238 18.8802C10.7265 18.8802 11.1529 18.7335 11.503 18.4402C11.862 18.1469 12.1179 17.698 12.2705 17.0935C12.477 16.258 12.634 15.5291 12.7418 14.9069C12.7777 14.7202 12.7956 14.5291 12.7956 14.3335C12.7956 13.5246 12.3692 13.1202 11.5164 13.1202C11.0137 13.1202 10.5829 13.2669 10.2238 13.5602C9.8737 13.8535 9.62235 14.3024 9.46975 14.9069C9.30816 15.5024 9.14659 16.2313 8.985 17.0935C8.9491 17.2713 8.93114 17.458 8.93114 17.6535C8.93114 18.4713 9.36202 18.8802 10.2238 18.8802Z" fill="#2D2E33"/>
<path d="M16.6798 20.6671C16.5811 20.6671 16.5048 20.636 16.4509 20.5737C16.4061 20.5026 16.3926 20.4226 16.4105 20.3337L18.2687 11.6671C18.2866 11.5693 18.336 11.4893 18.4168 11.4271C18.4976 11.3649 18.5829 11.3337 18.6727 11.3337H22.2543C23.2508 11.3337 24.0497 11.5382 24.6511 11.9471C25.2615 12.356 25.5668 12.9471 25.5668 13.7204C25.5668 13.9426 25.5398 14.1737 25.486 14.4137C25.2615 15.436 24.8082 16.1915 24.126 16.6804C23.4527 17.1693 22.5281 17.4137 21.3522 17.4137H19.5344L18.915 20.3337C18.8971 20.4315 18.8477 20.5115 18.7669 20.5737C18.6861 20.636 18.6009 20.6671 18.511 20.6671H16.6798ZM21.4464 15.5737C21.8235 15.5737 22.1511 15.4715 22.4294 15.2671C22.7167 15.0626 22.9052 14.7693 22.9949 14.3871C23.0218 14.236 23.0353 14.1026 23.0353 13.9871C23.0353 13.7293 22.959 13.5337 22.8064 13.4004C22.6538 13.2582 22.3935 13.1871 22.0255 13.1871H20.4096L19.898 15.5737H21.4464Z" fill="#2D2E33"/>
</g>
<defs>
<clipPath id="clip0_5961_127052">
<rect width="19.2" height="9.6" fill="white" transform="translate(6.39972 11.2002)"/>
</clipPath>
</defs>
</svg>
