<svg width="416" height="397" viewBox="0 0 416 397" fill="none" xmlns="http://www.w3.org/2000/svg">
    <path
        id="path-to-animate"
        d="M299.803 217.803H344.014C345.071 217.803 346.085 217.383 346.833 216.635C347.58 215.886 348 214.871 348 213.813V181.893C348 180.835 347.58 179.82 346.833 179.072C346.085 178.324 345.071 177.903 344.014 177.903H282.058L233.247 68.1562C232.829 67.2166 232.148 66.4184 231.287 65.8583C230.425 65.2981 229.42 65 228.392 65H188.608C187.58 65 186.575 65.2981 185.713 65.8583C184.852 66.4184 184.171 67.2166 183.753 68.1562L134.943 177.903H72.9857C71.9286 177.903 70.9149 178.324 70.1674 179.072C69.4199 179.82 69 180.835 69 181.893V213.813C69 214.871 69.4199 215.886 70.1674 216.635C70.9149 217.383 71.9286 217.803 72.9857 217.803H117.197L69.3495 325.387C69.0793 325.994 68.965 326.66 69.0172 327.323C69.0693 327.986 69.2861 328.625 69.6479 329.183C70.0098 329.741 70.5051 330.199 71.0889 330.516C71.6728 330.834 72.3266 331 72.9909 331H108.573C109.6 331 110.606 330.702 111.468 330.142C112.329 329.582 113.01 328.783 113.428 327.844L208.5 114.079L303.572 327.844C303.99 328.783 304.671 329.582 305.533 330.142C306.394 330.702 307.4 331 308.427 331H344.01C344.674 331 345.328 330.834 345.912 330.516C346.495 330.199 346.991 329.741 347.353 329.183C347.714 328.625 347.931 327.986 347.983 327.323C348.035 326.66 347.921 325.995 347.651 325.387L299.803 217.803Z"
        fill="#9DAAB3" />
</svg>
    