<svg width="301" height="301" viewBox="0 0 301 301" fill="none" xmlns="http://www.w3.org/2000/svg">
<rect x="2.23801" y="2.28" width="296.44" height="296.44" rx="148.22" fill="#331400"/>
<rect x="2.23801" y="2.28" width="296.44" height="296.44" rx="148.22" stroke="white" stroke-width="3.56"/>
<circle cx="150.458" cy="150.495" r="118.63" fill="#F25D00"/>
<path d="M221.857 140.464V99.1728H201.785V79.1007H181.14V58.4551H160.494V79.1007H140.422V58.4551H119.776V79.1007H79.0586V99.7463H99.1307V201.254H79.0586V221.899H119.776V242.545H140.422V221.899H160.494V242.545H181.14V221.899H200.925L201.785 221.039V201.827H221.857V160.536H201.785V140.464H221.857ZM140.422 99.7463H180.566V139.89H140.422V99.7463ZM140.422 201.254V161.11H180.566V201.254H140.422Z" fill="white"/>
</svg>
