<?xml version="1.0" encoding="UTF-8"?>
<svg version="1.1" xmlns="http://www.w3.org/2000/svg" width="301" height="301">
<path d="M0 0 C99.33 0 198.66 0 301 0 C301 99.33 301 198.66 301 301 C201.67 301 102.34 301 0 301 C0 201.67 0 102.34 0 0 Z " fill="#1A1A1A" transform="translate(0,0)"/>
<path d="M0 0 C15.61486504 13.3907893 26.86941237 27.89466337 35.3125 46.6875 C35.79589844 47.75484375 36.27929688 48.8221875 36.77734375 49.921875 C45.95241497 71.89742553 48.11134417 98.77667796 41.3125 121.6875 C41.01448486 122.72511475 41.01448486 122.72511475 40.71044922 123.78369141 C34.69600869 144.41299715 25.09102073 161.01649311 10.3125 176.6875 C9.70019531 177.36425781 9.08789062 178.04101562 8.45703125 178.73828125 C-11.24453868 199.70007954 -41.34715543 210.97658662 -69.62890625 211.86328125 C-103.86157407 212.55298596 -133.41056008 201.01574998 -158.22192383 177.48999023 C-179.29273627 156.94434903 -192.41827311 127.47827356 -192.91552734 98.06591797 C-193.07532649 74.85953155 -188.91829131 55.01563481 -177.6875 34.6875 C-177.17058594 33.74003906 -176.65367187 32.79257813 -176.12109375 31.81640625 C-161.40807421 6.11873453 -135.95234145 -13.02187323 -107.6875 -21.3125 C-107.02395508 -21.50859863 -106.36041016 -21.70469727 -105.67675781 -21.90673828 C-69.25793361 -32.23131454 -29.47462691 -23.260603 0 0 Z " fill="#757575" transform="translate(224.6875,57.3125)"/>
<path d="M0 0 C99.33 0 198.66 0 301 0 C301 99.33 301 198.66 301 301 C201.67 301 102.34 301 0 301 C0 201.67 0 102.34 0 0 Z M115 4 C114.10732422 4.25281738 113.21464844 4.50563477 112.29492188 4.76611328 C88.83679066 11.58812083 68.14219944 22.18284212 50.23046875 38.92578125 C48.18839681 40.82480087 46.08548418 42.59837655 43.9375 44.375 C25.27729337 60.66505942 12.99463029 85.67504745 5.75 108.9375 C5.38032104 110.09813965 5.38032104 110.09813965 5.00317383 111.28222656 C1.18343874 124.10005864 0.58276608 137.28528029 0.625 150.5625 C0.62654083 151.30256287 0.62808167 152.04262573 0.62966919 152.80511475 C0.83315348 194.09302051 17.89719166 230.55916968 46.71484375 259.75 C75.95935864 287.23383191 112.65148399 300.14364138 152.3125 300.375 C153.02766785 300.38294586 153.74283569 300.39089172 154.47967529 300.39907837 C188.85356011 300.69248871 223.33341784 286.59901788 249 264 C249.92425781 263.20851563 250.84851563 262.41703125 251.80078125 261.6015625 C258.28511053 255.9154425 263.79470347 249.86809959 269 243 C269.40605469 242.46890625 269.81210937 241.9378125 270.23046875 241.390625 C290.31097751 214.94613962 300.44893975 183.61070322 300.25 150.4375 C300.25773437 149.14392578 300.26546875 147.85035156 300.2734375 146.51757812 C300.24954258 134.59998666 298.88024972 123.06841993 295.75 111.5625 C295.53384033 110.76102539 295.31768066 109.95955078 295.0949707 109.13378906 C288.89032407 86.86342103 277.70223234 66.98344568 261.953125 50.10546875 C260.35939276 48.38742539 258.88541074 46.65134665 257.4375 44.8125 C240.80077751 25.61628174 216.23571882 13.65567464 192.4375 6.1875 C191.52871094 5.8972998 190.61992187 5.60709961 189.68359375 5.30810547 C176.36084437 1.29850671 162.92671511 0.61195231 149.125 0.6875 C148.00282074 0.69172974 148.00282074 0.69172974 146.85797119 0.69604492 C135.98194561 0.75757502 125.51769797 0.95478152 115 4 Z " fill="#010101" transform="translate(0,0)"/>
<path d="M0 0 C6.93 0 13.86 0 21 0 C21 6.93 21 13.86 21 21 C27.6 21 34.2 21 41 21 C41 14.4 41 7.8 41 1 C47.6 1 54.2 1 61 1 C61 7.6 61 14.2 61 21 C67.93 21 74.86 21 82 21 C82 27.6 82 34.2 82 41 C88.6 41 95.2 41 102 41 C102 54.86 102 68.72 102 83 C95.4 83 88.8 83 82 83 C82 89.27 82 95.54 82 102 C88.6 102 95.2 102 102 102 C102 115.86 102 129.72 102 144 C95.4 144 88.8 144 82 144 C82 150.6 82 157.2 82 164 C75.07 164 68.14 164 61 164 C61 170.93 61 177.86 61 185 C54.07 185 47.14 185 40 185 C40 178.07 40 171.14 40 164 C33.73 164 27.46 164 21 164 C21 170.93 21 177.86 21 185 C14.07 185 7.14 185 0 185 C0 178.07 0 171.14 0 164 C-13.53 164 -27.06 164 -41 164 C-41 157.07 -41 150.14 -41 143 C-34.4 143 -27.8 143 -21 143 C-21 109.67 -21 76.34 -21 42 C-27.6 42 -34.2 42 -41 42 C-41 35.07 -41 28.14 -41 21 C-27.47 21 -13.94 21 0 21 C0 14.07 0 7.14 0 0 Z " fill="#FCFCFC" transform="translate(120,58)"/>
<path d="M0 0 C0.72075714 -0.00376648 1.44151428 -0.00753296 2.18411255 -0.01141357 C16.84129274 -0.05017871 30.71497203 1.46200061 44.75 5.9375 C45.87277344 6.29231445 46.99554688 6.64712891 48.15234375 7.01269531 C69.46646648 13.93183217 87.70616887 24.75000004 103.875 40.3125 C104.94753995 41.20069715 106.02901126 42.07840466 107.125 42.9375 C127.1456806 60.22808779 140.37720403 87.19155666 146.875 112.3125 C147.308125 113.89417969 147.308125 113.89417969 147.75 115.5078125 C150.58723379 126.17472029 151.061642 136.46673324 151.06030273 147.48754883 C151.06247748 149.47937133 151.08095832 151.47115426 151.09960938 153.46289062 C151.12001656 167.2377393 149.43575019 180.05781325 145.25 193.1875 C144.89663574 194.30809814 144.54327148 195.42869629 144.17919922 196.58325195 C137.86515504 216.06438826 128.19679149 232.75772251 114.875 248.3125 C114.10542969 249.21613281 113.33585937 250.11976563 112.54296875 251.05078125 C106.83345793 257.55153137 100.74338007 263.06420393 93.875 268.3125 C93.02421875 268.97894531 92.1734375 269.64539063 91.296875 270.33203125 C76.24056575 281.7594995 59.66487861 289.03528305 41.6875 294.5625 C40.49495605 294.93217896 40.49495605 294.93217896 39.27832031 295.30932617 C27.36834845 298.83816155 15.72145122 299.69188699 3.375 299.625 C2.2488327 299.62077026 2.2488327 299.62077026 1.09991455 299.61645508 C-41.23472772 299.37794371 -77.81710327 283.27129009 -107.875 253.59765625 C-133.47283458 226.3599604 -148.6028613 190.03233716 -148.38574219 152.62939453 C-148.37504487 150.44665545 -148.38569316 148.26474523 -148.3984375 146.08203125 C-148.41317694 133.2367476 -147.33818887 120.69241938 -143.4375 108.375 C-143.17622314 107.53291992 -142.91494629 106.69083984 -142.64575195 105.82324219 C-129.75946392 65.46831237 -102.01996894 33.87889789 -64.50390625 14.40234375 C-54.77612149 9.54173734 -44.60422883 6.15516203 -34.125 3.3125 C-32.87332031 2.96960938 -31.62164062 2.62671875 -30.33203125 2.2734375 C-20.30466182 0.04975143 -10.22616363 0.02952468 0 0 Z M-110.69921875 54.296875 C-135.96547798 85.70678181 -148.68968203 124.02089205 -144.82763672 164.42333984 C-142.44522899 185.31990938 -136.16397937 203.91115431 -126.125 222.3125 C-125.63386719 223.22128906 -125.14273438 224.13007813 -124.63671875 225.06640625 C-115.75901321 240.64615429 -103.3126609 254.47136364 -89.125 265.3125 C-88.27421875 265.97894531 -87.4234375 266.64539063 -86.546875 267.33203125 C-68.37975872 281.12054615 -47.45600238 290.004997 -25.125 294.3125 C-24.11308594 294.53679687 -23.10117188 294.76109375 -22.05859375 294.9921875 C15.8217216 302.35640327 54.44682104 290.52386962 86.09765625 269.97265625 C90.93662881 266.68304167 95.13255143 262.82497485 99.32421875 258.7578125 C101.73946753 256.44242852 104.26265116 254.39806114 106.875 252.3125 C132.6264646 226.86906727 147.50131525 189.14174203 148.10986328 153.28759766 C148.30733611 116.10537456 136.53980619 81.46887585 111.875 53.3125 C111.19566406 52.51199219 110.51632812 51.71148437 109.81640625 50.88671875 C94.62070808 33.26207857 74.37613834 20.75802146 52.875 12.3125 C51.70839844 11.84972656 50.54179687 11.38695312 49.33984375 10.91015625 C-7.10957292 -9.65668548 -71.66676733 9.57884555 -110.69921875 54.296875 Z " fill="#ECECEC" transform="translate(149.125,0.6875)"/>
<path d="M0 0 C12.87 0 25.74 0 39 0 C39 13.2 39 26.4 39 40 C26.13 40 13.26 40 0 40 C0 26.8 0 13.6 0 0 Z " fill="#757575" transform="translate(141,161)"/>
<path d="M0 0 C12.87 0 25.74 0 39 0 C39 13.2 39 26.4 39 40 C26.13 40 13.26 40 0 40 C0 26.8 0 13.6 0 0 Z " fill="#767676" transform="translate(141,100)"/>
</svg>
