<svg xmlns="http://www.w3.org/2000/svg" fill="none" viewBox="0 0 284 284">
  <circle cx="142" cy="142" r="142" fill="#F0B90B" />
  <path
    fill="#fff"
    d="M88.109 71.276 142.363 40l54.255 31.276-19.947 11.554-34.308-19.722-34.308 19.722-19.946-11.554Zm108.509 39.443-19.947-11.554-34.308 19.722-34.308-19.722-19.946 11.554v23.109l34.308 19.722v39.443l19.946 11.555 19.947-11.555V153.55l34.308-19.722v-23.109Zm0 62.552v-23.108l-19.947 11.554v23.109l19.947-11.555Zm14.162 8.168-34.308 19.722v23.107l54.254-31.275v-62.552l-19.946 11.554v39.444Zm-19.946-90.441 19.946 11.554v23.108l19.946-11.554V90.998L210.78 79.443l-19.946 11.555Zm-68.417 118.53v23.108l19.946 11.554 19.947-11.554v-23.108l-19.947 11.553-19.946-11.553Zm-34.308-36.257 19.946 11.555v-23.109l-19.946-11.554v23.108Zm34.308-82.273 19.946 11.554 19.947-11.554-19.947-11.555-19.946 11.555Zm-48.47 11.554 19.946-11.554-19.947-11.555L54 90.999v23.108l19.947 11.554v-23.108Zm0 39.443L54 130.441v62.552l54.254 31.275v-23.107l-34.308-19.722v-39.444Z"
  />
</svg>
