<svg width="32" height="32" viewBox="0 0 32 32" fill="none" xmlns="http://www.w3.org/2000/svg">
<circle cx="16" cy="16" r="16" fill="#9DAAB3"/>
<path d="M13.8207 26.5946L16.5142 23.5682C16.5596 23.5228 16.5294 23.4472 16.4537 23.4472H13.4878C13.4727 23.4472 13.4424 23.432 13.4273 23.4169L10.9154 20.6023C10.9003 20.5721 10.8851 20.5418 10.9003 20.5116L15.1069 13.2936C15.1221 13.2633 15.1221 13.2331 15.1069 13.2179L13.3668 10.2218C13.3365 10.1764 13.2609 10.1764 13.2306 10.2218L7.01135 20.905C6.99622 20.9352 6.99622 20.9655 7.01135 20.9958L12.0049 26.6097C12.02 26.6249 12.0352 26.64 12.0654 26.64H13.7602C13.7753 26.6249 13.8056 26.6097 13.8207 26.5946Z" fill="#2D2E33"/>
<path d="M15.6669 6.0454L13.9116 9.04153C13.8965 9.07179 13.8965 9.10205 13.9116 9.11719L15.7274 12.2344L20.5394 20.4964C20.5545 20.5267 20.5545 20.557 20.5243 20.5872L17.9821 23.432L15.2735 26.4887C15.2281 26.5341 15.2583 26.6097 15.334 26.6097H19.3894C19.4045 26.6097 19.4348 26.5946 19.4499 26.5795L24.4434 20.9655C24.4586 20.9353 24.4737 20.905 24.4586 20.8747L15.788 6.0454C15.7728 5.98487 15.6972 5.98487 15.6669 6.0454Z" fill="#2D2E33"/>
</svg>
