<svg width="32" height="32" viewBox="0 0 32 32" fill="none" xmlns="http://www.w3.org/2000/svg">
<rect width="32" height="32" rx="16" fill="#9DAAB3"/>
<path d="M19.443 25.7247C20.5367 25.7247 21.4199 24.8771 21.4199 23.8313C21.4199 22.7857 20.5367 21.9379 19.443 21.9379C18.3578 21.9379 17.4746 22.7857 17.4746 23.8313C17.4746 24.8771 18.3578 25.7247 19.443 25.7247Z" fill="#2D2E33"/>
<path d="M12.3583 25.7811C13.4519 25.7811 14.3269 24.9335 14.3269 23.8877C14.3269 22.8421 13.4519 21.9943 12.3583 21.9943C11.273 21.9943 10.3897 22.8421 10.3897 23.8877C10.3897 24.9335 11.273 25.7811 12.3583 25.7811Z" fill="#2D2E33"/>
<path d="M12.7386 6C13.6223 8.29628 15.9285 14.8024 16.0968 15.1649C16.1389 14.9837 18.4618 7.89345 19.1183 6.04028H24V22.215C23.394 21.8927 22.788 21.5704 22.1315 21.2078C21.6768 20.9863 21.2562 20.7445 20.7932 20.5632C20.7512 17.421 20.7091 14.2988 20.6081 11.0357C19.9516 12.909 17.6875 19.5158 17.5023 19.6971H14.4808C14.4808 19.6971 11.5433 11.6803 11.4002 11.3177C11.3582 14.3995 11.3161 17.4814 11.2067 20.664C9.4055 21.5503 8.33663 22.0538 8 22.1746V6H12.7386Z" fill="#2D2E33"/>
</svg>
