
<svg width="137" height="137" viewBox="0 0 137 137" fill="none" xmlns="http://www.w3.org/2000/svg">
    <path d="M136.4 68.3C136.4 30.6 105.8 0.1 68.2 0C30.5 0 0 30.6 0 68.3C0 106 30.6 136.5 68.2 136.6C105.9 136.6 136.4 106 136.4 68.3ZM68.1 102.4V133.7C40.6 133.7 18.3 111.4 18.3 83.9C18.3 56.4 40.6 34.1 68.1 34.1V2.8C95.6 2.8 117.9 25.1 117.9 52.6C117.9 80.1 95.6 102.4 68.1 102.4Z"/>
    <path d="M68.3 44.8H67.9C62.7 55.2 55 62.9 44.6 68.1V68.5C55 73.7 62.7 81.4 67.9 91.8H68.3C73.5 81.4 81.2 73.7 91.6 68.5V68.1C81.2 62.9 73.5 55.2 68.3 44.8Z"/>
    </svg>
    