
<svg width="137" height="138" viewBox="0 0 137 138" fill="none" xmlns="http://www.w3.org/2000/svg">
    <path d="M136.5 69.2C136.5 31.5 105.9 1 68.3 0.900002C30.6 0.900002 0.0999985 31.5 0.0999985 69.2C0.0999985 106.9 30.7 137.4 68.3 137.5C106 137.5 136.5 106.9 136.5 69.2ZM68.2 103.3V134.6C40.7 134.6 18.4 112.3 18.4 84.8C18.4 57.3 40.7 35 68.2 35V3.7C95.7 3.7 118 26 118 53.5C118 81 95.7 103.3 68.2 103.3Z" fill="#FF0420"/>
    <path d="M68.4 45.7H68C62.8 56.1 55.1 63.8 44.7 69V69.4C55.1 74.6 62.8 82.3 68 92.7H68.4C73.6 82.3 81.3 74.6 91.7 69.4V69C81.3 63.8 73.6 56.1 68.4 45.7Z" fill="#FF0420"/>
    </svg>
    