<svg width="32" height="32" viewBox="0 0 32 32" fill="none" xmlns="http://www.w3.org/2000/svg">
<rect width="32" height="32" rx="16" fill="#9DAAB3"/>
<path d="M20.1149 13.2638C19.8225 13.0967 19.4465 13.0967 19.1123 13.2638L16.7728 14.6424L15.1854 15.5197L12.8877 16.8983C12.5953 17.0654 12.2193 17.0654 11.8851 16.8983L10.0888 15.8121C9.79634 15.645 9.58747 15.3108 9.58747 14.9348V12.8461C9.58747 12.5119 9.75457 12.1776 10.0888 11.9688L11.8851 10.9244C12.1775 10.7573 12.5535 10.7573 12.8877 10.9244L14.6841 12.0105C14.9765 12.1776 15.1854 12.5119 15.1854 12.8878V14.2664L16.7728 13.3474V11.927C16.7728 11.5928 16.6057 11.2586 16.2715 11.0497L12.9295 9.08626C12.6371 8.91916 12.2611 8.91916 11.9269 9.08626L8.50131 11.0915C8.1671 11.2586 8 11.5928 8 11.927V15.8539C8 16.1881 8.1671 16.5223 8.50131 16.7312L11.8851 18.6946C12.1775 18.8617 12.5535 18.8617 12.8877 18.6946L15.1854 17.3578L16.7728 16.4387L19.0705 15.1019C19.3629 14.9348 19.7389 14.9348 20.0731 15.1019L21.8695 16.1463C22.1619 16.3134 22.3708 16.6476 22.3708 17.0236V19.1124C22.3708 19.4466 22.2037 19.7808 21.8695 19.9897L20.1149 21.034C19.8225 21.2011 19.4465 21.2011 19.1123 21.034L17.3159 19.9897C17.0235 19.8226 16.8146 19.4884 16.8146 19.1124V17.7756L15.2272 18.6946V20.0732C15.2272 20.4074 15.3943 20.7416 15.7285 20.9505L19.1123 22.9139C19.4047 23.081 19.7807 23.081 20.1149 22.9139L23.4987 20.9505C23.7911 20.7834 24 20.4492 24 20.0732V16.1045C24 15.7703 23.8329 15.4361 23.4987 15.2273L20.1149 13.2638Z" fill="#2D2E33"/>
</svg>
