<svg width="153" height="153" viewBox="0 0 153 153" fill="none" xmlns="http://www.w3.org/2000/svg">
  <path id="path-to-animate" d="M0 76.5C0 34.2502 34.2502 0 76.5 0V0C118.75 0 153 34.2502 153 76.5V76.5C153 118.75 118.75 153 76.5 153V153C34.2502 153 0 118.75 0 76.5V76.5Z" fill="#9DAAB3"/>
  <g clip-path="url(#clip0_24_11)">
    <g mask="url(#mask0_24_11)">
      <path d="M114.037 95.2478L101.752 108.115C101.485 108.394 101.162 108.617 100.802 108.769C100.443 108.922 100.056 109 99.6647 109H41.4262C41.1483 109 40.8765 108.921 40.6441 108.772C40.4118 108.623 40.229 108.411 40.1182 108.162C40.0074 107.913 39.9735 107.638 40.0207 107.371C40.0678 107.103 40.1939 106.855 40.3835 106.657L52.678 93.79C52.9444 93.5112 53.2665 93.2888 53.6244 93.1366C53.9823 92.9843 54.3684 92.9054 54.7589 92.9047H112.994C113.272 92.9047 113.544 92.9841 113.776 93.1328C114.008 93.2817 114.191 93.4936 114.302 93.7424C114.413 93.9914 114.447 94.2663 114.4 94.5338C114.353 94.8013 114.227 95.0494 114.037 95.2478ZM101.752 69.3376C101.485 69.0581 101.162 68.8352 100.802 68.6829C100.443 68.5307 100.056 68.4522 99.6647 68.4524H41.4262C41.1483 68.4524 40.8765 68.5317 40.6441 68.6805C40.4118 68.8293 40.229 69.0412 40.1182 69.29C40.0074 69.5389 39.9735 69.814 40.0207 70.0815C40.0678 70.3489 40.1939 70.597 40.3835 70.7955L52.678 83.6624C52.9444 83.9412 53.2665 84.1635 53.6244 84.3158C53.9823 84.468 54.3684 84.547 54.7589 84.5476H112.994C113.272 84.5476 113.544 84.4683 113.776 84.3195C114.008 84.1707 114.191 83.9588 114.302 83.71C114.413 83.4611 114.447 83.186 114.4 82.9185C114.353 82.6511 114.227 82.403 114.037 82.2045L101.752 69.3376ZM41.4262 60.0953H99.6647C100.056 60.0954 100.443 60.017 100.802 59.8647C101.162 59.7123 101.485 59.4895 101.752 59.21L114.037 46.3431C114.227 46.1447 114.353 45.8965 114.4 45.6291C114.447 45.3616 114.413 45.0866 114.302 44.8377C114.191 44.5888 114.008 44.3769 113.776 44.2281C113.544 44.0793 113.272 44 112.994 44H54.7589C54.3684 44.0006 53.9823 44.0796 53.6244 44.2318C53.2665 44.3841 52.9444 44.6065 52.678 44.8852L40.3866 57.7522C40.1972 57.9503 40.0712 58.1983 40.024 58.4654C39.9767 58.7325 40.0104 59.0074 40.1207 59.2562C40.2311 59.5049 40.4134 59.7168 40.6453 59.8658C40.8772 60.0149 41.1486 60.0946 41.4262 60.0953Z" fill="#2D2E33"/>
    </g>
  </g>
</svg>
