<svg width="300" height="66" viewBox="0 0 300 66" fill="none" xmlns="http://www.w3.org/2000/svg">
    <g clip-path="url(#clip0_1_3)">
        <path
            d="M105.607 14.4369L104.261 20.7329C101.56 19.7333 98.6658 19.3376 96.021 19.3376C92.9251 19.3376 89.9264 20.24 89.9264 23.3845C89.9264 26.0848 92.1268 27.3829 97.1664 29.4792C103.511 32.0754 107.808 34.6715 107.808 41.4187C107.808 49.1099 101.165 52.7057 93.6193 52.7057C90.1207 52.7057 85.7267 52.1087 81.9297 50.7551L83.3249 44.3619C86.768 45.7572 90.565 46.4097 93.3624 46.4097C97.6107 46.4097 99.9569 44.9103 99.9569 41.9671C99.9569 39.0239 97.6592 37.7188 92.4114 35.6225C86.3167 33.1721 82.0755 30.0762 82.0755 24.1828C82.0755 16.1931 89.017 13.0416 95.5629 13.0416C99.2558 13.0416 102.803 13.5414 105.6 14.4369H105.607Z"
            fill="#9DAAB3" />
        <path
            d="M140.419 37.8161C140.419 47.0553 134.678 52.6988 125.987 52.6988C117.296 52.6988 111.5 47.0553 111.5 37.8161C111.5 28.5769 117.143 23.0306 125.987 23.0306C134.831 23.0306 140.419 28.5769 140.419 37.8161ZM132.824 37.8161C132.824 32.4711 130.575 28.7782 125.98 28.7782C121.385 28.7782 119.136 32.478 119.136 37.8161C119.136 43.1541 121.385 46.9581 125.98 46.9581C130.575 46.9581 132.824 43.3624 132.824 37.8161Z"
            fill="#9DAAB3" />
        <path
            d="M145.659 23.6761H153.149V27.4732H153.246C154.697 24.5785 158.189 23.0306 161.84 23.0306C168.233 23.0306 172.329 27.1261 172.329 33.3665V52.0463H164.686V36.2126C164.686 31.5687 163.638 28.7712 159.438 28.7712C156.488 28.7712 153.295 30.8676 153.295 36.6638V52.0463H145.652V23.6761H145.659Z"
            fill="#9DAAB3" />
        <path
            d="M204.35 40.1137H184.872C185.323 44.9589 189.315 47.0067 194.216 47.0067C196.361 47.0067 198.964 46.6596 201.011 45.9585L201.858 51.5534C199.359 52.2545 196.666 52.6988 193.32 52.6988C183.179 52.6988 177.285 46.6527 177.285 37.9133C177.285 29.1739 182.679 23.0306 191.571 23.0306C199.81 23.0306 204.357 28.5213 204.357 37.0664V40.1137H204.35ZM191.418 28.1743C187.822 28.1743 185.323 30.8745 184.872 34.8173H197.207C197.256 30.819 194.958 28.1743 191.411 28.1743H191.418Z"
            fill="#9DAAB3" />
        <path
            d="M209.348 12.6876H216.99V19.3307H209.348V12.6876ZM209.348 23.6761H216.99V52.0462H209.348V23.6761Z"
            fill="#9DAAB3" />
        <path
            d="M249.955 52.0532H242.466V48.2561H242.368C240.918 51.1508 237.475 52.6987 233.83 52.6987C227.437 52.6987 223.293 48.6032 223.293 42.3628V23.683H230.936V39.5167C230.936 44.112 232.081 46.9581 236.232 46.9581C239.231 46.9581 242.327 44.8617 242.327 39.0655V23.683H249.969V52.0532H249.955Z"
            fill="#9DAAB3" />
        <path
            d="M256.444 23.6761H263.934V27.5217H264.032C265.427 24.6757 268.578 23.0236 272.223 23.0236C276.221 23.0236 279.164 24.5716 280.518 27.6189H280.67C282.468 24.4744 285.918 23.0236 289.458 23.0236C296.65 23.0236 299.996 27.1677 299.996 33.3596V52.0393H292.353V36.2056C292.353 31.6103 291.756 28.7643 287.556 28.7643C284.96 28.7643 282.163 30.3608 282.163 34.859V52.0393H274.52V36.0529C274.52 31.5062 273.868 28.7573 269.675 28.7573C266.78 28.7573 264.08 30.8537 264.08 36.5527V52.0393H256.438V23.6692L256.444 23.6761Z"
            fill="#9DAAB3" />
        <path
            d="M36.7937 50.1998C30.8795 51.602 24.403 49.9985 19.7938 45.3893C13.838 39.4334 12.6718 30.5899 16.9756 23.5859C18.7526 20.6912 20.4394 18.9628 21.9041 17.512C27.9155 11.5284 38.9595 0.623211 38.9595 0.623211C28.6513 -1.41761 17.5448 1.55338 9.54811 9.54311C-3.1827 22.2739 -3.1827 42.9042 9.54811 55.635C13.4909 59.5778 18.1973 62.2989 23.1952 63.7983L36.7937 50.1998Z"
            fill="#9DAAB3" />
        <path
            d="M28.3962 14.9783C34.3104 13.5761 40.7869 15.1796 45.3961 19.7888C51.3519 25.7447 52.5181 34.5882 48.2144 41.5922C46.4373 44.4869 44.7505 46.2153 43.2859 47.6661C37.2745 53.6567 26.2305 64.5618 26.2305 64.5618C36.5387 66.6027 47.6452 63.6317 55.6418 55.642C68.3726 42.9111 68.3726 22.2809 55.6418 9.55005C51.699 5.60724 46.9927 2.88616 41.9947 1.38678L28.3962 14.9853V14.9783Z"
            fill="#9DAAB3" />
    </g>
    <defs>
        <clipPath id="clip0_1_3">
            <rect width="300" height="66" fill="white" />
        </clipPath>
    </defs>
</svg>