<?xml version="1.0" encoding="UTF-8"?>
<svg width="120px" height="120px" viewBox="0 0 120 120" version="1.1" xmlns="http://www.w3.org/2000/svg" xmlns:xlink="http://www.w3.org/1999/xlink">
    <title>logo/icon</title>
    <defs>
        <linearGradient x1="80.1491883%" y1="20.5698831%" x2="0%" y2="94.4792036%" id="linearGradient-1">
            <stop stop-color="#5FBFFF" offset="0%"></stop>
            <stop stop-color="#B090F5" offset="100%"></stop>
        </linearGradient>
        <linearGradient x1="0%" y1="94.0951088%" x2="112.081307%" y2="-8.91022163%" id="linearGradient-2">
            <stop stop-color="#68D7FA" offset="0%"></stop>
            <stop stop-color="#7EF1B3" offset="100%"></stop>
        </linearGradient>
    </defs>
    <g id="logo/icon" stroke="none" stroke-width="1" fill="none" fill-rule="evenodd">
        <path d="M105.157896,25.0405872 L99.1946494,30.9873028 C98.2921039,31.8874128 98.1631688,33.2908624 98.8625974,34.3556697 L98.8625974,34.3556697 C101.046987,37.6844037 102.78761,41.2676697 104.052234,45.0182752 L104.052234,45.0182752 L104.06813,45.0028624 C105.683792,49.789211 106.519662,54.8393394 106.519662,59.9383486 L106.519662,59.9383486 C106.519662,85.6971743 85.5067792,106.652917 59.6787013,106.652917 L59.6787013,106.652917 C51.9059481,106.652917 44.4396364,104.791046 37.7257403,101.217908 L37.7257403,101.217908 L47.8321299,91.1392294 C51.603039,92.5651376 55.6216623,93.3058349 59.6787013,93.3058349 L59.6787013,93.3058349 C78.1274545,93.3058349 93.1364675,78.3373211 93.1364675,59.9383486 L93.1364675,59.9383486 C93.1364675,58.7889908 93.0671429,57.6361101 92.9461558,56.4863119 L92.9461558,56.4863119 C92.5438961,52.6185688 91.4722338,48.868844 89.7894545,45.3978716 L89.7894545,45.3978716 C88.9858182,43.7407706 86.7842078,43.3638165 85.478961,44.6659817 L85.478961,44.6659817 L79.4260779,50.7029725 C78.7716883,51.355156 78.5014545,52.2988624 78.7120779,53.1976514 L78.7120779,53.1976514 L79.2198701,55.3651376 C79.574,56.8764771 79.7532727,58.4155596 79.7532727,59.9383486 L79.7532727,59.9383486 C79.7532727,70.9779083 70.7481299,79.9587523 59.6787013,79.9587523 L59.6787013,79.9587523 C56.1948052,79.9587523 52.7581558,79.0480734 49.7401039,77.3240367 L49.7401039,77.3240367 L47.0770649,75.8025688 C46.0283636,75.2036697 44.7085455,75.3789358 43.8541299,76.2310459 L43.8541299,76.2310459 L19.1767532,100.840514 C18.0331169,101.980624 18.1576364,103.864514 19.4408052,104.846532 L19.4408052,104.846532 L23.0757143,107.625688 C33.6616364,115.721394 46.3197922,120 59.6787013,120 L59.6787013,120 C92.8861039,120 119.902416,93.0561468 119.902416,59.9383486 L119.902416,59.9383486 C119.902416,49.4827156 117.16387,39.1820917 111.982623,30.1501651 L111.982623,30.1501651 L109.373455,25.6024954 C108.869636,24.7239633 107.963117,24.2584954 107.046442,24.2584954 L107.046442,24.2584954 C106.369532,24.2584954 105.687325,24.5121468 105.157896,25.0405872" id="Fill-1" fill="url(#linearGradient-1)"></path>
        <path d="M60.486,0.0973211009 C27.1337739,0.0973211009 0,27.0407339 0,60.1585321 L0,60.1585321 C0,70.6154862 2.7500087,80.9165505 7.95378261,89.947156 L7.95378261,89.947156 L10.5747391,94.4948257 C11.4546,96.0220183 13.5558,96.3007706 14.8086261,95.0567339 L14.8086261,95.0567339 L20.796913,89.1108991 C21.7029391,88.210789 21.8319913,86.8082202 21.1308522,85.7429725 L21.1308522,85.7429725 C18.9391826,82.4164404 17.1887739,78.8305321 15.9182087,75.0799266 L15.9182087,75.0799266 L15.9035739,75.0944587 C14.280887,70.3081101 13.4409391,65.258422 13.4409391,60.1585321 L13.4409391,60.1585321 C13.4409391,34.4005872 34.5456261,13.4439633 60.486,13.4439633 L60.486,13.4439633 C68.2916609,13.4439633 75.7904348,15.3058349 82.5339652,18.8794128 L82.5339652,18.8794128 L72.3840783,28.9580917 C68.5967739,27.5321835 64.5602348,26.7910459 60.486,26.7910459 L60.486,26.7910459 C41.9565913,26.7910459 26.8827652,41.76 26.8827652,60.1585321 L26.8827652,60.1585321 C26.8827652,60.7155963 26.9031652,61.2731009 26.9315478,61.8306055 L26.9315478,61.8306055 C26.9408609,62.0115963 26.9528348,62.1917064 26.9652522,62.3722569 L26.9652522,62.3722569 C26.9945217,62.8073394 27.0322174,63.242422 27.0792261,63.6770642 L27.0792261,63.6770642 C27.4903304,67.5126606 28.5657652,71.2438899 30.2461043,74.6972477 L30.2461043,74.6972477 C31.0523478,76.354789 33.2644174,76.7308624 34.5748957,75.4286972 L34.5748957,75.4286972 L40.6523217,69.394789 C41.309113,68.7421651 41.5800783,67.7984587 41.3689826,66.9001101 L41.3689826,66.9001101 L40.8589826,64.7317431 C40.5042,63.2221651 40.3241478,61.6839633 40.3241478,60.1585321 L40.3241478,60.1585321 C40.3241478,49.1194128 49.3684435,40.1381284 60.486,40.1381284 L60.486,40.1381284 C63.9846,40.1381284 67.4357478,41.0492477 70.4660348,42.772844 L70.4660348,42.772844 L73.1419826,44.2951927 C74.1948,44.8945321 75.5208,44.7183853 76.3793739,43.8667156 L76.3793739,43.8667156 L101.163157,19.2568073 C102.311765,18.1158165 102.187148,16.232367 100.8984,15.250789 L100.8984,15.250789 L97.2472435,12.471633 C86.6144087,4.37636697 73.9021043,0.0973211009 60.486,0.0973211009 Z" id="Fill-4" fill="url(#linearGradient-2)"></path>
    </g>
</svg>