<svg width="24" height="24" viewBox="0 0 24 24" fill="none" xmlns="http://www.w3.org/2000/svg">
<circle cx="12" cy="12" r="12" fill="white"/>
<g clip-path="url(#clip0_142_87197)">
<path d="M12.4347 5.09998C8.83394 5.09998 5.79999 7.98572 5.79999 11.5482C5.79999 11.6625 5.80292 18.225 5.80292 18.225L12.4347 18.2191C16.0385 18.2191 18.9579 15.222 18.9579 11.6595C18.9579 8.09705 16.0385 5.09998 12.4347 5.09998ZM12.3789 15.4125C11.8092 15.4125 11.2658 15.2865 10.7812 15.058L8.39926 15.6469L9.07184 13.4496C8.78401 12.9193 8.61954 12.3099 8.61954 11.6625C8.61954 9.59119 10.3025 7.91248 12.3789 7.91248C14.4554 7.91248 16.1383 9.59119 16.1383 11.6625C16.1383 13.7338 14.4554 15.4125 12.3789 15.4125Z" fill="#2D2E33"/>
</g>
<defs>
<clipPath id="clip0_142_87197">
<rect width="13.1579" height="15" fill="#cacbcf" transform="translate(5.79999 4)"/>
</clipPath>
</defs>
</svg>
