<svg width="120" height="120" viewBox="0 0 120 120" fill="none" xmlns="http://www.w3.org/2000/svg">
<circle cx="60" cy="60" r="60" fill="#6CF9D8"/>
<path fill-rule="evenodd" clip-rule="evenodd" d="M84.6586 30L90.78 36.1214L70.3231 56.5783C69.2448 53.7701 67.0099 51.5352 64.2017 50.4569L84.6586 30ZM56.5783 50.4569L36.1214 30L30 36.1214L50.4568 56.5783C51.5351 53.77 53.77 51.5352 56.5783 50.4569ZM50.4568 64.2018L30 84.6586L36.1214 90.78L56.5783 70.3231C53.7701 69.2449 51.5352 67.01 50.4568 64.2018ZM64.2017 70.3231L84.6586 90.78L90.78 84.6586L70.3231 64.2017C69.2448 67.0099 67.0099 69.2448 64.2017 70.3231Z" fill="#2D2E33"/>
</svg>
