<svg width="32" height="32" viewBox="0 0 32 32" fill="none" xmlns="http://www.w3.org/2000/svg">
<rect width="32" height="32" rx="16" fill="#6CF9D8"/>
<path fill-rule="evenodd" clip-rule="evenodd" d="M6.95021 8.41988L8.50949 6.8606L14.7408 13.0919C14.3626 13.253 14.0083 13.4879 13.6998 13.7964C13.4609 14.0353 13.2662 14.3017 13.1157 14.5853L6.95021 8.41988ZM12.9982 17.4399L6.85803 23.5801L8.41732 25.1394L14.495 19.0617C14.209 18.9107 13.9405 18.7149 13.6998 18.4742C13.3932 18.1675 13.1593 17.8156 12.9982 17.4399ZM17.5887 19.0584L23.5826 25.0522L25.1418 23.493L19.0822 17.4333C18.921 17.8114 18.6862 18.1657 18.3777 18.4742C18.1388 18.7131 17.8724 18.9079 17.5887 19.0584ZM18.9652 14.5916L25.0497 8.50706L23.4904 6.94778L17.3434 13.0947C17.7191 13.2558 18.071 13.4897 18.3777 13.7964C18.6184 14.037 18.8142 14.3055 18.9652 14.5916Z" fill="#2D2E33"/>
</svg>
