<svg width="99" height="15" viewBox="0 0 99 15" fill="none" xmlns="http://www.w3.org/2000/svg">
<g clip-path="url(#clip0_373:29160)">
<path fill-rule="evenodd" clip-rule="evenodd" d="M86.8083 12.2608H85.3703C85.1001 12.2608 84.8812 12.0424 84.8812 11.7732V7.98365L82.3569 9.56192C82.1452 9.69437 81.8758 9.69437 81.6641 9.56192L79.1398 7.98349V11.7732C79.1398 12.0424 78.9207 12.2608 78.6507 12.2608H77.2127C76.9424 12.2608 76.7236 12.0424 76.7236 11.7732V4.46923C76.7236 3.94623 77.3115 3.63727 77.7442 3.9329L81.7342 6.65827C81.9006 6.7722 82.1204 6.7722 82.287 6.65827L86.2767 3.9329C86.7095 3.63711 87.2974 3.94607 87.2974 4.46907V11.7732C87.2974 12.0424 87.0784 12.2608 86.8083 12.2608Z" fill="white" fill-opacity="0.5"/>
<path fill-rule="evenodd" clip-rule="evenodd" d="M74.5575 12.1959L65.649 12.1957C65.2906 12.1957 65 11.9058 65 11.5483V4.23019C65 3.962 65.2179 3.74463 65.4867 3.74463H66.9179C67.1866 3.74463 67.4046 3.962 67.4046 4.23019V9.79686L72.8019 9.79702V4.23019C72.8019 3.962 73.0196 3.74463 73.2886 3.74463H74.7198C74.9884 3.74463 75.2065 3.962 75.2065 4.23019V11.5485C75.2065 11.906 74.9159 12.1959 74.5575 12.1959Z" fill="white" fill-opacity="0.5"/>
<path fill-rule="evenodd" clip-rule="evenodd" d="M89.4429 3.74463L98.3515 3.74479C98.7099 3.74479 99.0005 4.03467 99.0005 4.39221V11.7103C99.0005 11.9785 98.7824 12.1959 98.5137 12.1959H97.0826C96.8137 12.1959 96.5958 11.9785 96.5958 11.7103V6.46735C96.5958 6.28866 96.4505 6.14364 96.2713 6.14364L91.5231 6.14348C91.344 6.14348 91.1986 6.28834 91.1986 6.46719V11.7103C91.1986 11.9785 90.9807 12.1959 90.7118 12.1959H89.2807C89.0118 12.1959 88.7939 11.9785 88.7939 11.7103V4.39205C88.7939 4.03451 89.0845 3.74463 89.4429 3.74463Z" fill="white" fill-opacity="0.5"/>
<path fill-rule="evenodd" clip-rule="evenodd" d="M92.6943 8.19229V9.63299C92.6943 9.89939 92.9124 10.1153 93.1815 10.1153H94.6126C94.8816 10.1153 95.0997 9.89939 95.0997 9.63299V8.19229C95.0997 7.92588 94.8816 7.70996 94.6126 7.70996H93.1815C92.9124 7.70996 92.6943 7.92588 92.6943 8.19229Z" fill="white" fill-opacity="0.5"/>
</g>
<path d="M4.61966 3.588C5.10766 3.588 5.53566 3.692 5.90366 3.9C6.27966 4.1 6.56766 4.384 6.76766 4.752C6.97566 5.12 7.07966 5.544 7.07966 6.024C7.07966 6.504 6.97566 6.924 6.76766 7.284C6.55966 7.644 6.26366 7.924 5.87966 8.124C5.50366 8.324 5.06766 8.424 4.57166 8.424H2.45966C2.42766 8.424 2.41166 8.44 2.41166 8.472V11.88C2.41166 11.96 2.37166 12 2.29166 12H1.37966C1.29966 12 1.25966 11.96 1.25966 11.88V3.708C1.25966 3.628 1.29966 3.588 1.37966 3.588H4.61966ZM4.46366 7.488C4.90366 7.488 5.25566 7.356 5.51966 7.092C5.79166 6.828 5.92766 6.48 5.92766 6.048C5.92766 5.608 5.79166 5.256 5.51966 4.992C5.25566 4.72 4.90366 4.584 4.46366 4.584H2.45966C2.42766 4.584 2.41166 4.6 2.41166 4.632V7.44C2.41166 7.472 2.42766 7.488 2.45966 7.488H4.46366ZM10.5274 12.096C9.93541 12.096 9.41941 11.948 8.97941 11.652C8.53941 11.348 8.23141 10.928 8.05541 10.392C7.91141 9.96 7.83941 9.472 7.83941 8.928C7.83941 8.36 7.90741 7.88 8.04341 7.488C8.21941 6.96 8.52741 6.548 8.96741 6.252C9.40741 5.948 9.93141 5.796 10.5394 5.796C11.1154 5.796 11.6154 5.948 12.0394 6.252C12.4714 6.548 12.7794 6.956 12.9634 7.476C13.1074 7.884 13.1794 8.364 13.1794 8.916C13.1794 9.476 13.1074 9.968 12.9634 10.392C12.7874 10.928 12.4834 11.348 12.0514 11.652C11.6194 11.948 11.1114 12.096 10.5274 12.096ZM10.5274 11.1C10.8474 11.1 11.1274 11.012 11.3674 10.836C11.6074 10.652 11.7794 10.396 11.8834 10.068C11.9714 9.764 12.0154 9.388 12.0154 8.94C12.0154 8.492 11.9754 8.12 11.8954 7.824C11.7914 7.496 11.6194 7.244 11.3794 7.068C11.1394 6.884 10.8474 6.792 10.5034 6.792C10.1754 6.792 9.89141 6.884 9.65141 7.068C9.41141 7.244 9.23941 7.496 9.13541 7.824C9.04741 8.104 9.00341 8.476 9.00341 8.94C9.00341 9.404 9.04741 9.78 9.13541 10.068C9.23141 10.396 9.39941 10.652 9.63941 10.836C9.88741 11.012 10.1834 11.1 10.5274 11.1ZM15.7624 12C15.6984 12 15.6544 11.968 15.6304 11.904L13.9024 6.024L13.8904 5.988C13.8904 5.924 13.9304 5.892 14.0104 5.892H14.9464C15.0184 5.892 15.0624 5.928 15.0784 6L16.2184 10.356C16.2264 10.372 16.2344 10.38 16.2424 10.38C16.2584 10.38 16.2704 10.372 16.2784 10.356L17.4424 6C17.4584 5.928 17.5024 5.892 17.5744 5.892H18.4024C18.4744 5.892 18.5184 5.928 18.5344 6L19.7224 10.344C19.7304 10.36 19.7384 10.368 19.7464 10.368C19.7624 10.368 19.7744 10.36 19.7824 10.344L20.9704 6C20.9864 5.928 21.0304 5.892 21.1024 5.892L22.0264 5.904C22.0664 5.904 22.0944 5.916 22.1104 5.94C22.1344 5.964 22.1424 5.996 22.1344 6.036L20.3944 11.904C20.3704 11.968 20.3264 12 20.2624 12H19.3264C19.2624 12 19.2184 11.968 19.1944 11.904L18.0184 7.848C18.0104 7.832 17.9984 7.824 17.9824 7.824C17.9744 7.824 17.9664 7.832 17.9584 7.848L16.8424 11.892C16.8264 11.964 16.7824 12 16.7104 12H15.7624ZM27.9988 8.184C28.0308 8.512 28.0428 8.88 28.0348 9.288C28.0348 9.368 27.9948 9.408 27.9148 9.408H24.0868C24.0548 9.408 24.0388 9.424 24.0388 9.456C24.0388 9.728 24.0628 9.936 24.1108 10.08C24.1988 10.4 24.3748 10.652 24.6388 10.836C24.9108 11.012 25.2508 11.1 25.6588 11.1C26.2508 11.1 26.7068 10.856 27.0268 10.368C27.0668 10.288 27.1188 10.276 27.1828 10.332L27.8668 10.788C27.9228 10.836 27.9348 10.888 27.9028 10.944C27.6788 11.304 27.3588 11.588 26.9428 11.796C26.5348 12.004 26.0708 12.108 25.5508 12.108C24.9668 12.108 24.4748 11.98 24.0748 11.724C23.6748 11.468 23.3748 11.104 23.1748 10.632C22.9828 10.16 22.8868 9.588 22.8868 8.916C22.8868 8.332 22.9308 7.888 23.0188 7.584C23.1628 7.032 23.4508 6.596 23.8828 6.276C24.3148 5.956 24.8388 5.796 25.4548 5.796C26.2628 5.796 26.8668 6 27.2668 6.408C27.6668 6.808 27.9108 7.4 27.9988 8.184ZM25.4548 6.792C25.1108 6.792 24.8268 6.88 24.6028 7.056C24.3788 7.224 24.2268 7.452 24.1468 7.74C24.0908 7.916 24.0548 8.14 24.0388 8.412C24.0388 8.444 24.0548 8.46 24.0868 8.46H26.8348C26.8668 8.46 26.8828 8.444 26.8828 8.412C26.8668 8.148 26.8428 7.952 26.8108 7.824C26.7308 7.512 26.5708 7.264 26.3308 7.08C26.0988 6.888 25.8068 6.792 25.4548 6.792ZM32.1644 5.832C32.4204 5.832 32.6524 5.884 32.8604 5.988C32.9164 6.012 32.9364 6.06 32.9204 6.132L32.7284 7.032C32.7204 7.104 32.6724 7.128 32.5844 7.104C32.4484 7.048 32.2884 7.02 32.1044 7.02L31.9364 7.032C31.5604 7.048 31.2484 7.18 31.0004 7.428C30.7604 7.668 30.6404 7.984 30.6404 8.376V11.88C30.6404 11.96 30.6004 12 30.5204 12H29.6084C29.5284 12 29.4884 11.96 29.4884 11.88V6.012C29.4884 5.932 29.5284 5.892 29.6084 5.892H30.5204C30.6004 5.892 30.6404 5.932 30.6404 6.012V6.648C30.6404 6.672 30.6444 6.688 30.6524 6.696C30.6684 6.696 30.6804 6.688 30.6884 6.672C31.0484 6.112 31.5404 5.832 32.1644 5.832ZM38.7918 8.184C38.8238 8.512 38.8358 8.88 38.8278 9.288C38.8278 9.368 38.7878 9.408 38.7078 9.408H34.8798C34.8478 9.408 34.8318 9.424 34.8318 9.456C34.8318 9.728 34.8558 9.936 34.9038 10.08C34.9918 10.4 35.1678 10.652 35.4318 10.836C35.7038 11.012 36.0438 11.1 36.4518 11.1C37.0438 11.1 37.4998 10.856 37.8198 10.368C37.8598 10.288 37.9118 10.276 37.9758 10.332L38.6598 10.788C38.7158 10.836 38.7278 10.888 38.6958 10.944C38.4718 11.304 38.1518 11.588 37.7358 11.796C37.3278 12.004 36.8638 12.108 36.3438 12.108C35.7598 12.108 35.2678 11.98 34.8678 11.724C34.4678 11.468 34.1678 11.104 33.9678 10.632C33.7758 10.16 33.6798 9.588 33.6798 8.916C33.6798 8.332 33.7238 7.888 33.8118 7.584C33.9558 7.032 34.2438 6.596 34.6758 6.276C35.1078 5.956 35.6318 5.796 36.2478 5.796C37.0558 5.796 37.6598 6 38.0598 6.408C38.4598 6.808 38.7038 7.4 38.7918 8.184ZM36.2478 6.792C35.9038 6.792 35.6198 6.88 35.3958 7.056C35.1718 7.224 35.0198 7.452 34.9398 7.74C34.8838 7.916 34.8478 8.14 34.8318 8.412C34.8318 8.444 34.8478 8.46 34.8798 8.46H37.6278C37.6598 8.46 37.6758 8.444 37.6758 8.412C37.6598 8.148 37.6358 7.952 37.6038 7.824C37.5238 7.512 37.3638 7.264 37.1238 7.08C36.8918 6.888 36.5998 6.792 36.2478 6.792ZM44.0734 3.72C44.0734 3.64 44.1134 3.6 44.1934 3.6H45.1054C45.1854 3.6 45.2254 3.64 45.2254 3.72V11.88C45.2254 11.96 45.1854 12 45.1054 12H44.1934C44.1134 12 44.0734 11.96 44.0734 11.88V11.484C44.0734 11.468 44.0654 11.456 44.0494 11.448C44.0414 11.44 44.0294 11.444 44.0134 11.46C43.8374 11.66 43.6294 11.816 43.3894 11.928C43.1494 12.04 42.8894 12.096 42.6094 12.096C42.0334 12.096 41.5534 11.956 41.1694 11.676C40.7934 11.388 40.5174 10.984 40.3414 10.464C40.1894 10.04 40.1134 9.528 40.1134 8.928C40.1134 8.368 40.1774 7.884 40.3054 7.476C40.4734 6.948 40.7494 6.536 41.1334 6.24C41.5174 5.944 42.0094 5.796 42.6094 5.796C42.8814 5.796 43.1374 5.852 43.3774 5.964C43.6254 6.068 43.8374 6.22 44.0134 6.42C44.0294 6.436 44.0414 6.44 44.0494 6.432C44.0654 6.424 44.0734 6.412 44.0734 6.396V3.72ZM43.7734 10.452C43.9574 10.116 44.0494 9.612 44.0494 8.94C44.0494 8.268 43.9494 7.756 43.7494 7.404C43.5174 6.996 43.1774 6.792 42.7294 6.792C42.2494 6.792 41.8934 6.984 41.6614 7.368C41.4054 7.768 41.2774 8.296 41.2774 8.952C41.2774 9.568 41.3774 10.064 41.5774 10.44C41.8094 10.88 42.1894 11.1 42.7174 11.1C43.1814 11.1 43.5334 10.884 43.7734 10.452ZM54.2486 7.476C54.3766 7.884 54.4406 8.368 54.4406 8.928C54.4406 9.528 54.3646 10.04 54.2126 10.464C54.0366 10.984 53.7566 11.388 53.3726 11.676C52.9966 11.956 52.5206 12.096 51.9446 12.096C51.6646 12.096 51.4046 12.04 51.1646 11.928C50.9246 11.816 50.7166 11.66 50.5406 11.46C50.5246 11.444 50.5086 11.44 50.4926 11.448C50.4846 11.456 50.4806 11.468 50.4806 11.484V11.88C50.4806 11.96 50.4406 12 50.3606 12H49.4486C49.3686 12 49.3286 11.96 49.3286 11.88V3.72C49.3286 3.64 49.3686 3.6 49.4486 3.6H50.3606C50.4406 3.6 50.4806 3.64 50.4806 3.72V6.396C50.4806 6.412 50.4846 6.424 50.4926 6.432C50.5086 6.44 50.5246 6.436 50.5406 6.42C50.7166 6.22 50.9246 6.068 51.1646 5.964C51.4126 5.852 51.6726 5.796 51.9446 5.796C52.5446 5.796 53.0366 5.944 53.4206 6.24C53.8046 6.536 54.0806 6.948 54.2486 7.476ZM52.9766 10.44C53.1766 10.064 53.2766 9.568 53.2766 8.952C53.2766 8.296 53.1486 7.768 52.8926 7.368C52.6606 6.984 52.3046 6.792 51.8246 6.792C51.3766 6.792 51.0366 6.996 50.8046 7.404C50.5966 7.772 50.4926 8.284 50.4926 8.94C50.4926 9.596 50.5886 10.1 50.7806 10.452C51.0206 10.884 51.3726 11.1 51.8366 11.1C52.3646 11.1 52.7446 10.88 52.9766 10.44ZM55.6053 14.388C55.5493 14.388 55.5213 14.348 55.5213 14.268V13.56C55.5213 13.48 55.5613 13.44 55.6413 13.44H55.6653C55.9853 13.432 56.2373 13.392 56.4213 13.32C56.6053 13.248 56.7573 13.112 56.8773 12.912C56.9973 12.72 57.1133 12.428 57.2253 12.036C57.2333 12.028 57.2333 12.016 57.2253 12C57.2253 11.976 57.2253 11.964 57.2253 11.964L55.2213 6.024L55.2093 5.976C55.2093 5.92 55.2453 5.892 55.3173 5.892H56.2893C56.3613 5.892 56.4093 5.924 56.4333 5.988L57.7893 10.512C57.7973 10.528 57.8093 10.536 57.8253 10.536C57.8413 10.536 57.8533 10.528 57.8613 10.512L59.2053 5.988C59.2293 5.924 59.2773 5.892 59.3493 5.892H60.2973C60.3853 5.892 60.4173 5.936 60.3933 6.024L58.2093 12.42C58.0253 12.972 57.8413 13.38 57.6573 13.644C57.4733 13.916 57.2333 14.108 56.9373 14.22C56.6413 14.332 56.2253 14.388 55.6893 14.388H55.6053Z" fill="white" fill-opacity="0.5"/>
<defs>
<clipPath id="clip0_373:29160">
<rect width="34" height="8.68613" fill="white" transform="translate(65 3.74463)"/>
</clipPath>
</defs>
</svg>
