<svg width="19" height="19" viewBox="0 0 19 19" fill="none" xmlns="http://www.w3.org/2000/svg">
<path fill-rule="evenodd" clip-rule="evenodd" d="M17.9566 0.795301C18.3157 0.851116 18.5905 1.16165 18.5905 1.53636V13.086C18.5905 13.5003 18.2547 13.836 17.8405 13.836C17.4263 13.836 17.0905 13.5003 17.0905 13.086V3.34567L1.87017 18.566C1.57728 18.8589 1.10241 18.8589 0.809514 18.566C0.51662 18.2731 0.51662 17.7982 0.809514 17.5053L16.0285 2.28637H6.29083C5.87661 2.28637 5.54083 1.95058 5.54083 1.53636C5.54083 1.12215 5.87661 0.786365 6.29083 0.786365H17.8207C17.8661 0.785238 17.9116 0.788216 17.9566 0.795301Z" fill="#9DAAB2"/>
</svg>
