<svg width="185" height="120" viewBox="0 0 185 120" fill="none" xmlns="http://www.w3.org/2000/svg">
<circle cx="95" cy="60" r="60" fill="#6CF9D8" fill-opacity="0.1"/>
<path d="M32.7183 67.2697C12.5876 62.5406 1.13147 79.3856 0 89H124C124 84.0288 119.091 78.8862 110.648 78.8862C109.517 68.7723 94.7605 47 71.3297 47C47.8988 47 42.1943 56.3599 32.7183 67.2697Z" fill="url(#paint0_linear_800_30150)"/>
<path d="M162.544 29.961C176.361 26.4704 184.223 38.9037 185 46H101C101 39.983 104.106 37.9094 109.057 38.535C109.834 31.07 119.961 15 136.043 15C152.125 15 156.04 21.9085 162.544 29.961Z" fill="url(#paint1_linear_800_30150)"/>
<defs>
<linearGradient id="paint0_linear_800_30150" x1="57.5" y1="38" x2="57.5" y2="96.5" gradientUnits="userSpaceOnUse">
<stop stop-color="#6CF9D8"/>
<stop offset="0.59375" stop-color="#6CF9D8"/>
<stop offset="1" stop-color="#56C9AE"/>
</linearGradient>
<linearGradient id="paint1_linear_800_30150" x1="143" y1="15" x2="143" y2="46" gradientUnits="userSpaceOnUse">
<stop stop-color="white"/>
<stop offset="0.614583" stop-color="white"/>
<stop offset="1" stop-color="#F1F0F0"/>
</linearGradient>
</defs>
</svg>
