<svg width="66" height="66" viewBox="0 0 66 66" fill="none" xmlns="http://www.w3.org/2000/svg">
<path d="M27.7498 11.4775C30.5899 8.43873 35.4089 8.43873 38.249 11.4775C39.8626 13.204 42.1438 14.1489 44.5056 14.0691C48.6626 13.9286 52.0702 17.3362 51.9297 21.4931C51.8499 23.855 52.7947 26.1361 54.5213 27.7498C57.56 30.5899 57.56 35.4089 54.5213 38.249C52.7947 39.8626 51.8499 42.1438 51.9297 44.5056C52.0702 48.6626 48.6626 52.0702 44.5056 51.9297C42.1438 51.8499 39.8626 52.7947 38.249 54.5213C35.4089 57.56 30.5899 57.56 27.7498 54.5213C26.1361 52.7947 23.855 51.8499 21.4931 51.9297C17.3362 52.0702 13.9286 48.6626 14.0691 44.5056C14.1489 42.1438 13.204 39.8626 11.4775 38.249C8.43873 35.4089 8.43873 30.5899 11.4775 27.7498C13.204 26.1361 14.1489 23.855 14.0691 21.4931C13.9286 17.3362 17.3362 13.9286 21.4931 14.0691C23.855 14.1489 26.1361 13.204 27.7498 11.4775Z" stroke="#6CF9D8"/>
<path opacity="0.2" d="M25.3371 4.18725C29.7527 0.424238 36.2473 0.424238 40.6629 4.18725C42.7153 5.93628 45.2672 6.99328 47.9552 7.20779C53.7384 7.66929 58.3307 12.2616 58.7922 18.0448C59.0067 20.7328 60.0637 23.2847 61.8128 25.3371C65.5758 29.7527 65.5758 36.2473 61.8128 40.6629C60.0637 42.7153 59.0067 45.2672 58.7922 47.9552C58.3307 53.7384 53.7384 58.3307 47.9552 58.7922C45.2672 59.0067 42.7153 60.0637 40.6629 61.8128C36.2473 65.5758 29.7527 65.5758 25.3371 61.8128C23.2847 60.0637 20.7328 59.0067 18.0448 58.7922C12.2616 58.3307 7.66929 53.7384 7.20779 47.9552C6.99328 45.2672 5.93628 42.7153 4.18725 40.6629C0.424238 36.2473 0.424238 29.7527 4.18725 25.3371C5.93628 23.2847 6.99328 20.7328 7.20779 18.0448C7.66929 12.2616 12.2616 7.66929 18.0448 7.20779C20.7328 6.99328 23.2847 5.93628 25.3371 4.18725Z" stroke="#6CF9D8"/>
<path d="M38.0877 40.2134V38.3454C38.0877 37.3545 37.7334 36.4042 37.1028 35.7035C36.4722 35.0029 35.617 34.6093 34.7252 34.6093H28.0002C27.1084 34.6093 26.2531 35.0029 25.6225 35.7035C24.992 36.4042 24.6377 37.3545 24.6377 38.3454V40.2134" stroke="#6CF9D8" stroke-width="1.5" stroke-linecap="round" stroke-linejoin="round"/>
<path d="M31.362 29.9685C33.2191 29.9685 34.7245 28.4631 34.7245 26.606C34.7245 24.749 33.2191 23.2435 31.362 23.2435C29.505 23.2435 27.9995 24.749 27.9995 26.606C27.9995 28.4631 29.505 29.9685 31.362 29.9685Z" stroke="#6CF9D8" stroke-width="1.5" stroke-linecap="round" stroke-linejoin="round"/>
<path d="M42.5693 40.2134V38.304C42.5688 37.4579 42.3484 36.6359 41.9427 35.9672C41.5369 35.2984 40.9688 34.8208 40.3276 34.6093" stroke="#6CF9D8" stroke-width="1.5" stroke-linecap="round" stroke-linejoin="round"/>
<path d="M38.2476 24.3627C38.8888 24.522 39.4572 24.8838 39.863 25.3912C40.2689 25.8985 40.4892 26.5225 40.4892 27.1648C40.4892 27.807 40.2689 28.431 39.863 28.9383C39.4572 29.4457 38.8888 29.8075 38.2476 29.9668" stroke="#6CF9D8" stroke-width="1.5" stroke-linecap="round" stroke-linejoin="round"/>
</svg>
