<svg width="24" height="24" viewBox="0 0 24 24" fill="none" xmlns="http://www.w3.org/2000/svg">
<circle cx="12" cy="12" r="12" fill="#ffffff"/>
<path fill-rule="evenodd" clip-rule="evenodd" d="M6.66017 8.74411C6.67767 8.57379 6.61175 8.40579 6.48342 8.29148L5.17675 6.73267V6.5H9.23558L12.3727 13.3097L15.1307 6.5H19V6.73267L17.8823 7.79323C17.7861 7.86598 17.7382 7.98549 17.7581 8.10384V15.8967C17.7382 16.0145 17.7861 16.134 17.8823 16.2068L18.9737 17.2673V17.5H13.4834V17.2673L14.6145 16.1808C14.7253 16.0711 14.7253 16.0388 14.7253 15.8708V9.57201L11.5817 17.4746H11.1571L7.49667 9.57201V14.8685C7.46633 15.0908 7.541 15.3154 7.69908 15.4759L9.16967 17.2414V17.4746H5V17.2414L6.47058 15.4759C6.62808 15.3148 6.69808 15.089 6.66017 14.8685V8.74411Z" fill="#2D2E33"/>
</svg>
