<svg width="228" height="50" viewBox="0 0 228 50" fill="none" xmlns="http://www.w3.org/2000/svg">
<path d="M73.4408 40C73.2408 40 73.1108 39.9 73.0508 39.7L72.1508 36.76C72.1108 36.68 72.0608 36.64 72.0008 36.64H64.6208C64.5608 36.64 64.5108 36.68 64.4708 36.76L63.6008 39.7C63.5408 39.9 63.4108 40 63.2108 40H59.4008C59.2808 40 59.1908 39.97 59.1308 39.91C59.0708 39.83 59.0608 39.72 59.1008 39.58L65.5808 19.3C65.6408 19.1 65.7708 19 65.9708 19H70.6808C70.8808 19 71.0108 19.1 71.0708 19.3L77.5508 39.58C77.5708 39.62 77.5808 39.67 77.5808 39.73C77.5808 39.91 77.4708 40 77.2508 40H73.4408ZM65.5508 33.19C65.5308 33.31 65.5708 33.37 65.6708 33.37H70.9508C71.0708 33.37 71.1108 33.31 71.0708 33.19L68.3708 24.28C68.3508 24.2 68.3208 24.17 68.2808 24.19C68.2408 24.19 68.2108 24.22 68.1908 24.28L65.5508 33.19Z" fill="#2D2E33"/>
<path d="M89.9532 40.24C88.3932 40.24 87.0232 39.94 85.8432 39.34C84.6632 38.72 83.7532 37.86 83.1132 36.76C82.4732 35.66 82.1532 34.39 82.1532 32.95V26.02C82.1532 24.58 82.4732 23.31 83.1132 22.21C83.7532 21.11 84.6632 20.26 85.8432 19.66C87.0232 19.06 88.3932 18.76 89.9532 18.76C91.4932 18.76 92.8432 19.05 94.0032 19.63C95.1832 20.19 96.0932 21 96.7332 22.06C97.3932 23.1 97.7232 24.31 97.7232 25.69C97.7232 25.87 97.6032 25.98 97.3632 26.02L93.8532 26.23H93.7932C93.5932 26.23 93.4932 26.12 93.4932 25.9C93.4932 24.84 93.1632 23.99 92.5032 23.35C91.8632 22.71 91.0132 22.39 89.9532 22.39C88.8732 22.39 88.0032 22.71 87.3432 23.35C86.7032 23.99 86.3832 24.84 86.3832 25.9V33.13C86.3832 34.17 86.7032 35.01 87.3432 35.65C88.0032 36.29 88.8732 36.61 89.9532 36.61C91.0132 36.61 91.8632 36.29 92.5032 35.65C93.1632 35.01 93.4932 34.17 93.4932 33.13C93.4932 32.91 93.6132 32.8 93.8532 32.8L97.3632 32.95C97.4632 32.95 97.5432 32.98 97.6032 33.04C97.6832 33.1 97.7232 33.17 97.7232 33.25C97.7232 34.63 97.3932 35.85 96.7332 36.91C96.0932 37.97 95.1832 38.79 94.0032 39.37C92.8432 39.95 91.4932 40.24 89.9532 40.24Z" fill="#2D2E33"/>
<path d="M115.345 40C115.145 40 115.005 39.91 114.925 39.73L111.175 31.42C111.135 31.34 111.075 31.3 110.995 31.3H108.205C108.105 31.3 108.055 31.35 108.055 31.45V39.64C108.055 39.74 108.015 39.83 107.935 39.91C107.875 39.97 107.795 40 107.695 40H104.185C104.085 40 103.995 39.97 103.915 39.91C103.855 39.83 103.825 39.74 103.825 39.64V19.36C103.825 19.26 103.855 19.18 103.915 19.12C103.995 19.04 104.085 19 104.185 19H112.765C114.045 19 115.165 19.26 116.125 19.78C117.105 20.3 117.855 21.04 118.375 22C118.915 22.96 119.185 24.07 119.185 25.33C119.185 26.69 118.845 27.86 118.165 28.84C117.485 29.8 116.535 30.48 115.315 30.88C115.215 30.92 115.185 30.99 115.225 31.09L119.305 39.58C119.345 39.66 119.365 39.72 119.365 39.76C119.365 39.92 119.255 40 119.035 40H115.345ZM108.205 22.63C108.105 22.63 108.055 22.68 108.055 22.78V27.91C108.055 28.01 108.105 28.06 108.205 28.06H112.135C112.975 28.06 113.655 27.81 114.175 27.31C114.715 26.81 114.985 26.16 114.985 25.36C114.985 24.56 114.715 23.91 114.175 23.41C113.655 22.89 112.975 22.63 112.135 22.63H108.205Z" fill="#2D2E33"/>
<path d="M132.723 40.33C131.163 40.33 129.783 40.01 128.583 39.37C127.403 38.73 126.483 37.84 125.823 36.7C125.163 35.54 124.833 34.21 124.833 32.71V26.29C124.833 24.81 125.163 23.5 125.823 22.36C126.483 21.22 127.403 20.34 128.583 19.72C129.783 19.08 131.163 18.76 132.723 18.76C134.303 18.76 135.683 19.08 136.863 19.72C138.063 20.34 138.993 21.22 139.653 22.36C140.313 23.5 140.643 24.81 140.643 26.29V32.71C140.643 34.21 140.313 35.54 139.653 36.7C138.993 37.86 138.063 38.76 136.863 39.4C135.683 40.02 134.303 40.33 132.723 40.33ZM132.723 36.7C133.823 36.7 134.713 36.35 135.393 35.65C136.073 34.95 136.413 34.02 136.413 32.86V26.26C136.413 25.1 136.073 24.17 135.393 23.47C134.733 22.75 133.843 22.39 132.723 22.39C131.623 22.39 130.733 22.75 130.053 23.47C129.393 24.17 129.063 25.1 129.063 26.26V32.86C129.063 34.02 129.393 34.95 130.053 35.65C130.733 36.35 131.623 36.7 132.723 36.7Z" fill="#2D2E33"/>
<path d="M154.086 40.24C152.486 40.24 151.086 39.99 149.886 39.49C148.686 38.97 147.756 38.24 147.096 37.3C146.456 36.34 146.136 35.23 146.136 33.97V33.31C146.136 33.21 146.166 33.13 146.226 33.07C146.306 32.99 146.396 32.95 146.496 32.95H149.916C150.016 32.95 150.096 32.99 150.156 33.07C150.236 33.13 150.276 33.21 150.276 33.31V33.76C150.276 34.56 150.646 35.24 151.386 35.8C152.126 36.34 153.126 36.61 154.386 36.61C155.446 36.61 156.236 36.39 156.756 35.95C157.276 35.49 157.536 34.93 157.536 34.27C157.536 33.79 157.376 33.39 157.056 33.07C156.736 32.73 156.296 32.44 155.736 32.2C155.196 31.94 154.326 31.59 153.126 31.15C151.786 30.69 150.646 30.22 149.706 29.74C148.786 29.26 148.006 28.61 147.366 27.79C146.746 26.95 146.436 25.92 146.436 24.7C146.436 23.5 146.746 22.45 147.366 21.55C147.986 20.65 148.846 19.96 149.946 19.48C151.046 19 152.316 18.76 153.756 18.76C155.276 18.76 156.626 19.03 157.806 19.57C159.006 20.11 159.936 20.87 160.596 21.85C161.276 22.81 161.616 23.93 161.616 25.21V25.66C161.616 25.76 161.576 25.85 161.496 25.93C161.436 25.99 161.356 26.02 161.256 26.02H157.806C157.706 26.02 157.616 25.99 157.536 25.93C157.476 25.85 157.446 25.76 157.446 25.66V25.42C157.446 24.58 157.096 23.87 156.396 23.29C155.716 22.69 154.776 22.39 153.576 22.39C152.636 22.39 151.896 22.59 151.356 22.99C150.836 23.39 150.576 23.94 150.576 24.64C150.576 25.14 150.726 25.56 151.026 25.9C151.346 26.24 151.806 26.55 152.406 26.83C153.026 27.09 153.976 27.45 155.256 27.91C156.676 28.43 157.786 28.89 158.586 29.29C159.406 29.69 160.136 30.29 160.776 31.09C161.436 31.87 161.766 32.89 161.766 34.15C161.766 36.03 161.076 37.52 159.696 38.62C158.316 39.7 156.446 40.24 154.086 40.24Z" fill="#2D2E33"/>
<path d="M174.927 40.24C173.327 40.24 171.928 39.99 170.728 39.49C169.528 38.97 168.597 38.24 167.938 37.3C167.297 36.34 166.978 35.23 166.978 33.97V33.31C166.978 33.21 167.007 33.13 167.067 33.07C167.147 32.99 167.238 32.95 167.338 32.95H170.757C170.857 32.95 170.937 32.99 170.997 33.07C171.077 33.13 171.118 33.21 171.118 33.31V33.76C171.118 34.56 171.488 35.24 172.228 35.8C172.968 36.34 173.968 36.61 175.228 36.61C176.288 36.61 177.077 36.39 177.597 35.95C178.117 35.49 178.378 34.93 178.378 34.27C178.378 33.79 178.217 33.39 177.897 33.07C177.577 32.73 177.137 32.44 176.577 32.2C176.037 31.94 175.167 31.59 173.967 31.15C172.627 30.69 171.488 30.22 170.548 29.74C169.628 29.26 168.847 28.61 168.207 27.79C167.587 26.95 167.277 25.92 167.277 24.7C167.277 23.5 167.587 22.45 168.207 21.55C168.827 20.65 169.687 19.96 170.787 19.48C171.887 19 173.157 18.76 174.597 18.76C176.117 18.76 177.467 19.03 178.647 19.57C179.847 20.11 180.778 20.87 181.438 21.85C182.118 22.81 182.457 23.93 182.457 25.21V25.66C182.457 25.76 182.418 25.85 182.338 25.93C182.278 25.99 182.197 26.02 182.097 26.02H178.647C178.547 26.02 178.458 25.99 178.378 25.93C178.318 25.85 178.287 25.76 178.287 25.66V25.42C178.287 24.58 177.938 23.87 177.238 23.29C176.558 22.69 175.617 22.39 174.417 22.39C173.477 22.39 172.738 22.59 172.198 22.99C171.678 23.39 171.418 23.94 171.418 24.64C171.418 25.14 171.568 25.56 171.868 25.9C172.188 26.24 172.647 26.55 173.247 26.83C173.867 27.09 174.817 27.45 176.097 27.91C177.517 28.43 178.627 28.89 179.427 29.29C180.247 29.69 180.977 30.29 181.618 31.09C182.278 31.87 182.607 32.89 182.607 34.15C182.607 36.03 181.917 37.52 180.537 38.62C179.157 39.7 177.287 40.24 174.927 40.24Z" fill="#2D2E33"/>
<path fill-rule="evenodd" clip-rule="evenodd" d="M35.9714 10L40 14.0286L26.5371 27.4915C25.8275 25.6433 24.3567 24.1725 22.5085 23.4629L35.9714 10ZM17.4915 23.4629L4.02857 10L0 14.0286L13.4629 27.4915C14.1725 25.6433 15.6433 24.1725 17.4915 23.4629ZM13.4629 32.5085L0 45.9714L4.02857 50L17.4915 36.5371C15.6433 35.8275 14.1725 34.3567 13.4629 32.5085ZM22.5085 36.5371L35.9714 50L40 45.9714L26.5371 32.5085C25.8275 34.3567 24.3567 35.8275 22.5085 36.5371Z" fill="#2D2E33"/>
<rect x="195" width="33" height="22" rx="2" fill="#27282D"/>
<path d="M206.917 16C206.824 16 206.763 15.9533 206.735 15.86L204.481 9.028C204.472 9.00933 204.467 8.986 204.467 8.958C204.467 8.874 204.519 8.832 204.621 8.832H206.049C206.152 8.832 206.217 8.87867 206.245 8.972L207.603 13.648C207.613 13.676 207.627 13.69 207.645 13.69C207.664 13.69 207.678 13.676 207.687 13.648L209.045 8.972C209.073 8.87867 209.139 8.832 209.241 8.832L210.669 8.86C210.725 8.86 210.767 8.87867 210.795 8.916C210.823 8.944 210.828 8.99067 210.809 9.056L208.569 15.86C208.541 15.9533 208.481 16 208.387 16H206.917ZM214.042 14.516C214.023 14.5347 214.014 14.5533 214.014 14.572C214.023 14.5907 214.042 14.6 214.07 14.6H218.06C218.107 14.6 218.144 14.6187 218.172 14.656C218.209 14.684 218.228 14.7213 218.228 14.768V15.832C218.228 15.8787 218.209 15.9207 218.172 15.958C218.144 15.986 218.107 16 218.06 16H212.04C211.993 16 211.951 15.986 211.914 15.958C211.886 15.9207 211.872 15.8787 211.872 15.832V14.824C211.872 14.74 211.9 14.67 211.956 14.614C212.665 13.858 213.487 12.9293 214.42 11.828L215.078 11.058C215.937 10.0593 216.366 9.30333 216.366 8.79C216.366 8.40733 216.231 8.09467 215.96 7.852C215.689 7.60933 215.339 7.488 214.91 7.488C214.481 7.488 214.131 7.60933 213.86 7.852C213.599 8.09467 213.468 8.41667 213.468 8.818V9.182C213.468 9.22867 213.449 9.27067 213.412 9.308C213.384 9.336 213.347 9.35 213.3 9.35H211.998C211.951 9.35 211.909 9.336 211.872 9.308C211.844 9.27067 211.83 9.22867 211.83 9.182V8.58C211.849 8.076 211.993 7.63733 212.264 7.264C212.535 6.89067 212.899 6.60133 213.356 6.396C213.823 6.19067 214.341 6.088 214.91 6.088C215.535 6.088 216.081 6.20467 216.548 6.438C217.015 6.67133 217.374 6.99333 217.626 7.404C217.878 7.80533 218.004 8.258 218.004 8.762C218.004 9.52733 217.598 10.4093 216.786 11.408C216.338 11.968 215.601 12.808 214.574 13.928L214.042 14.516Z" fill="#6CF9D8"/>
</svg>
