<svg width="16" height="16" viewBox="0 0 16 16" fill="none" xmlns="http://www.w3.org/2000/svg">
<rect width="16" height="16" rx="8" fill="#6CF9D8"/>
<path fill-rule="evenodd" clip-rule="evenodd" d="M3.47516 4.20982L4.25481 3.43018L7.37046 6.54583C7.18137 6.6264 7.00423 6.74381 6.84998 6.89806C6.73052 7.01752 6.63316 7.1507 6.55789 7.29254L3.47516 4.20982ZM6.49918 8.71984L3.42908 11.7899L4.20872 12.5696L7.24758 9.53072C7.10458 9.45523 6.97032 9.35731 6.84998 9.23698C6.69664 9.08364 6.57971 8.90768 6.49918 8.71984ZM8.79442 9.52908L11.7913 12.526L12.571 11.7464L9.54114 8.71651C9.46057 8.9056 9.34316 9.08273 9.18891 9.23698C9.06945 9.35644 8.93626 9.45381 8.79442 9.52908ZM9.48265 7.29565L12.5249 4.25341L11.7453 3.47377L8.67177 6.54725C8.85961 6.62778 9.03557 6.74472 9.18891 6.89806C9.30924 7.01839 9.40716 7.15265 9.48265 7.29565Z" fill="#2D2E33"/>
</svg>
