<svg viewBox="0 0 32 32" fill="none" xmlns="http://www.w3.org/2000/svg">
<rect width="32" height="32" rx="16" fill="#6CF9D8"/>
<path fill-rule="evenodd" clip-rule="evenodd" d="M6.95033 8.41988L8.50961 6.8606L14.7409 13.0919C14.3627 13.253 14.0085 13.4879 13.7 13.7964C13.4611 14.0353 13.2663 14.3017 13.1158 14.5853L6.95033 8.41988ZM12.9984 17.4399L6.85815 23.5801L8.41744 25.1394L14.4952 19.0617C14.2092 18.9107 13.9406 18.7149 13.7 18.4742C13.3933 18.1675 13.1594 17.8156 12.9984 17.4399ZM17.5888 19.0584L23.5827 25.0522L25.142 23.493L19.0823 17.4333C18.9211 17.8114 18.6863 18.1657 18.3778 18.4742C18.1389 18.7131 17.8725 18.9079 17.5888 19.0584ZM18.9653 14.5916L25.0498 8.50706L23.4905 6.94778L17.3435 13.0947C17.7192 13.2558 18.0711 13.4897 18.3778 13.7964C18.6185 14.037 18.8143 14.3055 18.9653 14.5916Z" fill="#2D2E33"/>
</svg>
