<svg  viewBox="0 0 600 348" fill="none" xmlns="http://www.w3.org/2000/svg">
<path opacity="0.25" d="M339.159 -77.7162L347.157 -69.12C357.769 -57.7144 372.803 -51.4685 388.373 -51.997L400.141 -52.3965C430.69 -53.4336 455.734 -28.3963 454.707 2.15241L454.292 14.494C453.771 29.974 459.946 44.9274 471.238 55.5288L480.265 64.0034C502.481 84.8602 502.481 120.14 480.265 140.997L471.238 149.471C459.946 160.073 453.771 175.026 454.292 190.506L454.707 202.848C455.734 233.396 430.69 258.434 400.141 257.397L388.373 256.997C372.803 256.468 357.769 262.714 347.157 274.12L339.159 282.716C318.274 305.163 282.726 305.163 261.841 282.716L253.843 274.12C243.231 262.714 228.197 256.468 212.627 256.997L200.859 257.397C170.31 258.434 145.265 233.396 146.293 202.848L146.708 190.506C147.229 175.026 141.054 160.073 129.762 149.471L120.735 140.997C98.5194 120.14 98.5194 84.8602 120.735 64.0033L129.762 55.5288C141.054 44.9274 147.229 29.974 146.708 14.494L146.293 2.15239C145.265 -28.3963 170.31 -53.4336 200.859 -52.3965L212.627 -51.997C228.197 -51.4685 243.231 -57.7144 253.843 -69.12L261.841 -77.7162C282.726 -100.163 318.274 -100.163 339.159 -77.7162Z" stroke="#6CF9D8" stroke-opacity="0.15"/>
<path opacity="0.25" d="M339.078 -96.9913L352.911 -82.1908C363.517 -70.8421 378.511 -64.6313 394.036 -65.156L414.283 -65.8402C444.832 -66.8726 469.873 -41.8315 468.84 -11.283L468.156 8.96378C467.631 24.4886 473.842 39.4827 485.191 50.0894L499.991 63.9222C522.322 84.7933 522.322 120.207 499.991 141.078L485.191 154.911C473.842 165.517 467.631 180.511 468.156 196.036L468.84 216.283C469.873 246.832 444.832 271.873 414.283 270.84L394.036 270.156C378.511 269.631 363.517 275.842 352.911 287.191L339.078 301.991C318.207 324.322 282.793 324.322 261.922 301.991L248.089 287.191C237.483 275.842 222.489 269.631 206.964 270.156L186.717 270.84C156.168 271.873 131.127 246.832 132.16 216.283L132.844 196.036C133.369 180.511 127.158 165.517 115.809 154.911L101.009 141.078C78.6776 120.207 78.6776 84.7933 101.009 63.9222L115.809 50.0894C127.158 39.4827 133.369 24.4886 132.844 8.96378L132.16 -11.283C131.127 -41.8316 156.168 -66.8726 186.717 -65.8402L206.964 -65.156C222.489 -64.6313 237.483 -70.8421 248.089 -82.1908L261.922 -96.9913C282.793 -119.322 318.207 -119.322 339.078 -96.9913Z" stroke="#6CF9D8" stroke-opacity="0.15"/>
<path opacity="0.25" d="M339.078 -115.991L358.364 -95.3561C368.971 -84.0073 383.965 -77.7966 399.489 -78.3213L427.718 -79.2753C458.267 -80.3077 483.308 -55.2666 482.275 -24.718L481.321 3.51054C480.797 19.0354 487.007 34.0294 498.356 44.6362L518.991 63.9222C541.322 84.7933 541.322 120.207 518.991 141.078L498.356 160.364C487.007 170.971 480.797 185.965 481.321 201.489L482.275 229.718C483.308 260.267 458.267 285.308 427.718 284.275L399.489 283.321C383.965 282.797 368.971 289.007 358.364 300.356L339.078 320.991C318.207 343.322 282.793 343.322 261.922 320.991L242.636 300.356C232.029 289.007 217.035 282.797 201.511 283.321L173.282 284.275C142.733 285.308 117.692 260.267 118.725 229.718L119.679 201.489C120.203 185.965 113.993 170.971 102.644 160.364L82.0087 141.078C59.6776 120.207 59.6776 84.7933 82.0087 63.9222L102.644 44.6362C113.993 34.0294 120.203 19.0354 119.679 3.51053L118.725 -24.7181C117.692 -55.2666 142.733 -80.3077 173.282 -79.2753L201.511 -78.3213C217.035 -77.7966 232.029 -84.0073 242.636 -95.3561L261.922 -115.991C282.793 -138.322 318.207 -138.322 339.078 -115.991Z" stroke="#6CF9D8" stroke-opacity="0.15"/>
<path opacity="0.25" d="M339.11 -136.883L364.099 -110.098C374.707 -98.7269 389.718 -92.5022 405.26 -93.0284L441.86 -94.2675C472.409 -95.3018 497.451 -70.2622 496.421 -39.7136L495.177 -2.8428C494.654 12.6643 500.851 27.6423 512.177 38.247L539.1 63.4543C561.385 84.3198 561.385 119.68 539.1 140.546L512.177 165.753C500.851 176.358 494.654 191.336 495.177 206.843L496.421 243.714C497.451 274.262 472.409 299.302 441.86 298.268L405.26 297.028C389.718 296.502 374.707 302.727 364.099 314.098L339.11 340.883C318.233 363.259 282.767 363.259 261.89 340.883L236.901 314.098C226.293 302.727 211.282 296.502 195.74 297.028L159.14 298.268C128.591 299.302 103.549 274.262 104.579 243.714L105.823 206.843C106.346 191.336 100.149 176.358 88.823 165.753L61.9003 140.546C39.6149 119.68 39.6149 84.3198 61.9003 63.4543L88.823 38.247C100.149 27.6423 106.346 12.6643 105.823 -2.84277L104.579 -39.7135C103.549 -70.2622 128.591 -95.3018 159.14 -94.2675L195.74 -93.0284C211.282 -92.5022 226.293 -98.7269 236.901 -110.098L261.89 -136.883C282.767 -159.259 318.233 -159.259 339.11 -136.883Z" stroke="#6CF9D8" stroke-opacity="0.15"/>
<path opacity="0.25" d="M339.108 -156.89L369.839 -123.954C380.448 -112.584 395.457 -106.36 410.998 -106.886L456.002 -108.41C486.551 -109.444 511.593 -84.4043 510.563 -53.8557L509.035 -8.58505C508.512 6.92323 514.71 21.9023 526.038 32.5071L559.092 63.4521C581.381 84.318 581.381 119.682 559.092 140.548L526.038 171.493C514.71 182.098 508.512 197.077 509.035 212.585L510.563 257.856C511.593 288.404 486.551 313.444 456.002 312.41L410.998 310.886C395.457 310.36 380.448 316.584 369.839 327.954L339.108 360.89C318.231 383.264 282.769 383.264 261.892 360.89L231.161 327.954C220.552 316.584 205.543 310.36 190.002 310.886L144.998 312.41C114.449 313.444 89.4066 288.404 90.4373 257.856L91.9647 212.585C92.4879 197.077 86.2901 182.098 74.9623 171.493L41.9075 140.548C19.6191 119.682 19.6191 84.318 41.9076 63.4521L74.9623 32.5071C86.2901 21.9023 92.4879 6.92323 91.9647 -8.58504L90.4373 -53.8557C89.4066 -84.4043 114.449 -109.444 144.998 -108.41L190.002 -106.886C205.543 -106.36 220.552 -112.584 231.161 -123.954L261.892 -156.89C282.769 -179.264 318.231 -179.264 339.108 -156.89Z" stroke="#6CF9D8" stroke-opacity="0.15"/>
<path opacity="0.25" d="M339.134 -174.8L375.001 -136.303C385.611 -124.915 400.634 -118.68 416.19 -119.207L468.73 -120.989C499.279 -122.024 524.323 -96.9857 523.293 -66.4371L521.506 -13.3696C520.984 2.12396 527.17 17.0898 538.479 27.6928L577.182 63.9786C599.433 84.8399 599.433 120.16 577.182 141.021L538.479 177.307C527.17 187.91 520.984 202.876 521.506 218.37L523.293 271.437C524.323 301.986 499.279 327.024 468.73 325.989L416.19 324.207C400.634 323.68 385.611 329.915 375.001 341.303L339.134 379.8C318.253 402.212 282.747 402.212 261.866 379.8L225.999 341.303C215.389 329.915 200.366 323.68 184.81 324.207L132.269 325.989C101.721 327.024 76.6773 301.986 77.7065 271.437L79.4943 218.37C80.0163 202.876 73.83 187.91 62.5208 177.307L23.8181 141.021C1.56741 120.16 1.56742 84.8399 23.8181 63.9786L62.5208 27.6928C73.83 17.0898 80.0163 2.12398 79.4943 -13.3696L77.7065 -66.437C76.6773 -96.9857 101.721 -122.024 132.27 -120.989L184.81 -119.207C200.366 -118.68 215.389 -124.915 225.999 -136.303L261.866 -174.8C282.747 -197.212 318.253 -197.212 339.134 -174.8Z" stroke="#6CF9D8" stroke-opacity="0.15"/>
<path opacity="0.25" d="M339.131 -194.811L380.742 -150.158C391.352 -138.772 406.373 -132.538 421.927 -133.065L482.873 -135.131C513.421 -136.166 538.465 -111.128 537.435 -80.5792L535.364 -19.113C534.842 -3.61757 541.03 11.3499 552.341 21.9532L597.171 63.9753C619.426 84.8371 619.426 120.163 597.171 141.025L552.341 183.047C541.03 193.65 534.842 208.618 535.364 224.113L537.435 285.579C538.465 316.128 513.421 341.166 482.873 340.131L421.927 338.065C406.373 337.538 391.352 343.772 380.742 355.158L339.131 399.811C318.251 422.218 282.749 422.218 261.869 399.811L220.258 355.158C209.648 343.772 194.627 337.538 179.073 338.065L118.127 340.131C87.579 341.166 62.5354 316.128 63.5647 285.579L65.6359 224.113C66.158 208.618 59.9703 193.65 48.6587 183.047L3.82935 141.025C-18.4261 120.163 -18.4261 84.8371 3.82934 63.9753L48.6587 21.9532C59.9703 11.3499 66.158 -3.61758 65.6359 -19.113L63.5647 -80.5792C62.5354 -111.128 87.5789 -136.166 118.127 -135.131L179.073 -133.065C194.627 -132.538 209.648 -138.772 220.258 -150.158L261.869 -194.811C282.749 -217.218 318.251 -217.218 339.131 -194.811Z" stroke="#6CF9D8" stroke-opacity="0.15"/>
<path opacity="0.25" d="M339.128 -216.822L387.057 -165.398C397.667 -154.014 412.686 -147.782 428.238 -148.309L498.429 -150.688C528.977 -151.723 554.021 -126.684 552.991 -96.1356L550.608 -25.4304C550.086 -9.93315 556.275 5.03598 567.589 15.6394L619.16 63.9721C641.42 84.8345 641.42 120.166 619.16 141.028L567.589 189.361C556.275 199.964 550.086 214.933 550.608 230.43L552.991 301.136C554.021 331.684 528.977 356.723 498.429 355.688L428.238 353.309C412.686 352.782 397.667 359.014 387.057 370.398L339.128 421.822C318.248 444.224 282.752 444.224 261.872 421.822L213.943 370.398C203.333 359.014 188.314 352.782 172.762 353.309L102.571 355.688C72.0226 356.723 46.9792 331.684 48.0087 301.136L50.3916 230.43C50.9139 214.933 44.7248 199.964 33.4109 189.361L-18.1597 141.028C-40.4198 120.166 -40.4198 84.8345 -18.1597 63.9721L33.4109 15.6394C44.7248 5.03598 50.9139 -9.93314 50.3916 -25.4304L48.0087 -96.1356C46.9792 -126.684 72.0226 -151.723 102.571 -150.688L172.762 -148.309C188.314 -147.782 203.333 -154.014 213.943 -165.398L261.872 -216.822C282.752 -239.224 318.248 -239.224 339.128 -216.822Z" stroke="#6CF9D8" stroke-opacity="0.15"/>
<path opacity="0.25" d="M339.125 -239.832L393.659 -181.331C404.268 -169.95 419.286 -163.719 434.837 -164.246L514.692 -166.952C545.241 -167.987 570.284 -142.948 569.254 -112.399L566.546 -32.0345C566.023 -16.5356 572.214 -1.565 583.529 9.03867L642.15 63.9691C664.414 84.832 664.414 120.168 642.15 141.031L583.529 195.961C572.214 206.565 566.023 221.536 566.546 237.034L569.254 317.399C570.284 347.948 545.241 372.987 514.692 371.952L434.837 369.246C419.286 368.719 404.268 374.95 393.659 386.331L339.125 444.832C318.246 467.23 282.755 467.23 261.875 444.832L207.341 386.331C196.732 374.95 181.714 368.719 166.163 369.246L86.3076 371.952C55.7591 372.987 30.7159 347.948 31.7456 317.399L34.4544 237.034C34.9769 221.536 28.7865 206.565 17.4705 195.961L-41.1497 141.031C-63.414 120.168 -63.414 84.832 -41.1497 63.9691L17.4705 9.03867C28.7865 -1.565 34.9769 -16.5356 34.4544 -32.0345L31.7456 -112.399C30.7159 -142.948 55.7592 -167.987 86.3076 -166.952L166.163 -164.246C181.714 -163.719 196.732 -169.95 207.341 -181.331L261.875 -239.832C282.754 -262.23 318.245 -262.23 339.125 -239.832Z" stroke="#6CF9D8" stroke-opacity="0.15"/>
<path opacity="0.25" d="M339.159 -77.7162L347.157 -69.12C357.769 -57.7144 372.803 -51.4685 388.373 -51.997L400.141 -52.3965C430.69 -53.4336 455.734 -28.3963 454.707 2.15241L454.292 14.494C453.771 29.974 459.946 44.9274 471.238 55.5288L480.265 64.0034C502.481 84.8602 502.481 120.14 480.265 140.997L471.238 149.471C459.946 160.073 453.771 175.026 454.292 190.506L454.707 202.848C455.734 233.396 430.69 258.434 400.141 257.397L388.373 256.997C372.803 256.468 357.769 262.714 347.157 274.12L339.159 282.716C318.274 305.163 282.726 305.163 261.841 282.716L253.843 274.12C243.231 262.714 228.197 256.468 212.627 256.997L200.859 257.397C170.31 258.434 145.265 233.396 146.293 202.848L146.708 190.506C147.229 175.026 141.054 160.073 129.762 149.471L120.735 140.997C98.5194 120.14 98.5194 84.8602 120.735 64.0033L129.762 55.5288C141.054 44.9274 147.229 29.974 146.708 14.494L146.293 2.15239C145.265 -28.3963 170.31 -53.4336 200.859 -52.3965L212.627 -51.997C228.197 -51.4685 243.231 -57.7144 253.843 -69.12L261.841 -77.7162C282.726 -100.163 318.274 -100.163 339.159 -77.7162Z" stroke="#6CF9D8" stroke-opacity="0.15"/>
<path opacity="0.5" d="M339.078 -59.9913L342.291 -56.5532C352.898 -45.2044 367.892 -38.9937 383.417 -39.5183L388.12 -39.6773C418.669 -40.7097 443.71 -15.6686 442.677 14.8799L442.518 19.5832C441.994 35.1081 448.204 50.1021 459.553 60.7089L462.991 63.9222C485.322 84.7933 485.322 120.207 462.991 141.078L459.553 144.291C448.204 154.898 441.994 169.892 442.518 185.417L442.677 190.12C443.71 220.669 418.669 245.71 388.12 244.677L383.417 244.518C367.892 243.994 352.898 250.204 342.291 261.553L339.078 264.991C318.207 287.322 282.793 287.322 261.922 264.991L258.709 261.553C248.102 250.204 233.108 243.994 217.583 244.518L212.88 244.677C182.331 245.71 157.29 220.669 158.323 190.12L158.482 185.417C159.006 169.892 152.796 154.898 141.447 144.291L138.009 141.078C115.678 120.207 115.678 84.7933 138.009 63.9222L141.447 60.7089C152.796 50.1021 159.006 35.1081 158.482 19.5832L158.323 14.8799C157.29 -15.6686 182.331 -40.7097 212.88 -39.6773L217.583 -39.5183C233.108 -38.9937 248.102 -45.2044 258.709 -56.5531L261.922 -59.9913C282.793 -82.3223 318.207 -82.3224 339.078 -59.9913Z" stroke="#6CF9D8" stroke-opacity="0.15"/>
<path opacity="0.65" d="M222.753 -29.2608C237.907 -28.7474 252.543 -34.8192 262.882 -45.9101C283.217 -67.7252 317.783 -67.7252 338.118 -45.9101C348.457 -34.8192 363.093 -28.7474 378.247 -29.2608C408.01 -30.2694 432.416 -5.7277 431.413 24.0396C430.901 39.2039 436.958 53.9167 448.03 64.2926C469.815 84.7071 469.815 119.293 448.03 139.707C436.958 150.083 430.901 164.796 431.413 179.96C432.416 209.728 408.01 234.269 378.247 233.261C363.093 232.747 348.457 238.819 338.118 249.91C317.783 271.725 283.217 271.725 262.882 249.91C252.543 238.819 237.907 232.747 222.753 233.261C192.99 234.269 168.584 209.728 169.587 179.96C170.099 164.796 164.042 150.083 152.97 139.707C131.185 119.293 131.185 84.7071 152.97 64.2926C164.042 53.9167 170.099 39.2039 169.587 24.0396C168.584 -5.72769 192.99 -30.2694 222.753 -29.2608Z" stroke="#6CF9D8" stroke-opacity="0.15"/>
<path opacity="0.75" d="M230.197 -15.8629C243.908 -15.3996 257.149 -20.8844 266.516 -30.9068C284.902 -50.5785 316.098 -50.5785 334.484 -30.9068C343.851 -20.8844 357.092 -15.3996 370.803 -15.8629C397.713 -16.7724 419.772 5.28664 418.863 32.1972C418.4 45.9076 423.884 59.1493 433.907 68.5163C453.579 86.9019 453.579 118.098 433.907 136.484C423.884 145.851 418.4 159.092 418.863 172.803C419.772 199.713 397.713 221.772 370.803 220.863C357.092 220.4 343.851 225.884 334.484 235.907C316.098 255.579 284.902 255.579 266.516 235.907C257.149 225.884 243.908 220.4 230.197 220.863C203.287 221.772 181.228 199.713 182.137 172.803C182.6 159.092 177.116 145.851 167.093 136.484C147.421 118.098 147.421 86.9019 167.093 68.5164C177.116 59.1493 182.6 45.9076 182.137 32.1972C181.228 5.28664 203.287 -16.7724 230.197 -15.8629Z" stroke="#6CF9D8" stroke-opacity="0.15"/>
<path opacity="0.8" d="M237.174 -4.16399C249.513 -3.74834 261.498 -8.67478 269.944 -17.6823C286.49 -35.3274 314.51 -35.3274 331.056 -17.6823C339.502 -8.67477 351.487 -3.74834 363.826 -4.16399C387.93 -4.97595 407.829 14.7878 407.012 38.8876C406.594 51.2164 411.536 63.1251 420.562 71.5337C438.237 87.9993 438.237 116.001 420.562 132.466C411.536 140.875 406.594 152.784 407.012 165.112C407.829 189.212 387.931 208.976 363.826 208.164C351.487 207.748 339.502 212.675 331.056 221.682C314.51 239.327 286.49 239.327 269.944 221.682C261.498 212.675 249.513 207.748 237.174 208.164C213.069 208.976 193.171 189.212 193.988 165.112C194.406 152.784 189.464 140.875 180.438 132.466C162.763 116.001 162.763 87.9993 180.438 71.5337C189.464 63.1251 194.406 51.2164 193.988 38.8876C193.171 14.7878 213.069 -4.97595 237.174 -4.16399Z" stroke="#6CF9D8" stroke-opacity="0.15"/>
<path opacity="0.9" d="M244.625 7.53704C255.551 7.90627 266.103 3.53548 273.567 -4.45115C288.138 -20.0413 312.862 -20.0413 327.433 -4.45115C334.897 3.53548 345.449 7.90627 356.375 7.53704C377.702 6.81629 395.184 24.2984 394.463 45.6254C394.094 56.551 398.465 67.103 406.451 74.5674C422.041 89.1383 422.041 113.862 406.451 128.433C398.465 135.897 394.094 146.449 394.463 157.375C395.184 178.702 377.702 196.184 356.375 195.463C345.449 195.094 334.897 199.465 327.433 207.451C312.862 223.041 288.138 223.041 273.567 207.451C266.103 199.465 255.551 195.094 244.625 195.463C223.298 196.184 205.816 178.702 206.537 157.375C206.906 146.449 202.535 135.897 194.549 128.433C178.959 113.862 178.959 89.1383 194.549 74.5675C202.535 67.103 206.906 56.551 206.537 45.6254C205.816 24.2984 223.298 6.81629 244.625 7.53704Z" stroke="#6CF9D8" stroke-opacity="0.15"/>
<path d="M252.022 19.2362C261.526 19.5588 270.707 15.7468 277.186 8.78535C289.782 -4.7495 311.218 -4.7495 323.814 8.78535C330.293 15.7468 339.474 19.5588 348.978 19.2362C367.414 18.6105 382.536 33.8664 381.915 52.3083C381.595 61.8227 385.391 71.0795 392.334 77.5959C405.84 90.2721 405.84 111.728 392.334 124.404C385.391 130.921 381.595 140.177 381.915 149.692C382.536 168.134 367.414 183.389 348.978 182.764C339.474 182.441 330.293 186.253 323.814 193.215C311.218 206.749 289.782 206.749 277.186 193.215C270.707 186.253 261.526 182.441 252.022 182.764C233.586 183.389 218.464 168.134 219.085 149.692C219.405 140.177 215.609 130.92 208.666 124.404C195.16 111.728 195.16 90.2721 208.666 77.5959C215.609 71.0795 219.405 61.8227 219.085 52.3082C218.464 33.8665 233.586 18.6105 252.022 19.2362Z" stroke="#6CF9D8" stroke-opacity="0.15"/>
<path d="M259.847 32.1788C267.809 32.4465 275.568 29.2712 281.024 23.4627C291.575 12.2311 309.425 12.2311 319.976 23.4627C325.432 29.2712 333.191 32.4465 341.153 32.1788C356.485 31.6633 369.19 44.236 368.67 59.5605C368.399 67.5132 371.591 75.1956 377.418 80.6143C388.679 91.0852 388.679 108.915 377.418 119.386C371.591 124.804 368.399 132.487 368.67 140.44C369.19 155.764 356.485 168.337 341.153 167.821C333.191 167.553 325.432 170.729 319.976 176.537C309.425 187.769 291.575 187.769 281.024 176.537C275.568 170.729 267.809 167.553 259.847 167.821C244.515 168.337 231.81 155.764 232.33 140.439C232.601 132.487 229.409 124.804 223.582 119.386C212.321 108.915 212.321 91.0852 223.582 80.6143C229.409 75.1956 232.601 67.5132 232.33 59.5605C231.81 44.236 244.515 31.6633 259.847 32.1788Z" stroke="#6CF9D8" stroke-opacity="0.15"/>
<path d="M268.099 44.4247C274.5 44.6424 280.684 42.0717 285.043 37.3784C293.389 28.3922 307.611 28.3922 315.957 37.3784C320.316 42.0717 326.5 44.6424 332.901 44.4247C345.114 44.0094 355.137 54.1638 354.727 66.3854C354.512 72.7961 357.066 79.0559 361.74 83.4525C370.698 91.878 370.698 106.122 361.74 114.548C357.066 118.944 354.512 125.204 354.727 131.615C355.137 143.836 345.114 153.991 332.901 153.575C326.5 153.358 320.316 155.928 315.957 160.622C307.611 169.608 293.389 169.608 285.043 160.622C280.684 155.928 274.5 153.358 268.099 153.575C255.886 153.991 245.863 143.836 246.273 131.615C246.488 125.204 243.934 118.944 239.26 114.548C230.302 106.122 230.302 91.878 239.26 83.4525C243.934 79.0559 246.488 72.7961 246.273 66.3854C245.863 54.1638 255.886 44.0094 268.099 44.4247Z" stroke="#6CF9D8" stroke-opacity="0.15"/>
<path d="M276.898 57.4598C281.498 57.6152 285.941 55.775 289.084 52.4124C294.989 46.0933 305.011 46.0933 310.916 52.4124C314.059 55.775 318.502 57.6152 323.102 57.4598C331.746 57.1677 338.832 64.2536 338.54 72.898C338.385 77.498 340.225 81.9408 343.588 85.0835C349.907 90.9895 349.907 101.011 343.588 106.916C340.225 110.059 338.385 114.502 338.54 119.102C338.832 127.746 331.746 134.832 323.102 134.54C318.502 134.385 314.059 136.225 310.916 139.588C305.011 145.907 294.989 145.907 289.084 139.588C285.941 136.225 281.498 134.385 276.898 134.54C268.254 134.832 261.168 127.746 261.46 119.102C261.615 114.502 259.775 110.059 256.412 106.916C250.093 101.011 250.093 90.9895 256.412 85.0835C259.775 81.9408 261.615 77.498 261.46 72.898C261.168 64.2536 268.254 57.1677 276.898 57.4598Z" fill="#34353B" stroke="#6CF9D8"/>
<path fill-rule="evenodd" clip-rule="evenodd" d="M293.266 81.5C292.438 81.5 291.645 81.8288 291.059 82.4141C290.474 82.9993 290.145 83.7931 290.145 84.6208C290.145 85.4485 290.474 86.2423 291.059 86.8276C291.607 87.3752 292.337 87.6983 293.107 87.7376H299.263C299.241 87.6646 299.217 87.5881 299.192 87.5085C298.972 86.8133 298.627 85.8943 298.125 84.9823C297.104 83.1267 295.559 81.5 293.266 81.5ZM288.645 84.6208C288.645 85.7767 289.078 86.888 289.855 87.7376H284.75C284.336 87.7376 284 88.0734 284 88.4876V96.2293C284 96.6435 284.336 96.9793 284.75 96.9793H287.094V111.718C287.094 112.132 287.43 112.468 287.844 112.468H312.617C313.031 112.468 313.367 112.132 313.367 111.718V96.9793H315.717C316.131 96.9793 316.467 96.6435 316.467 96.2293V88.4876C316.467 88.0734 316.131 87.7376 315.717 87.7376H310.611C311.387 86.888 311.82 85.7767 311.82 84.6208C311.82 83.3953 311.334 82.22 310.467 81.3534C309.6 80.4868 308.425 80 307.2 80C304.073 80 302.135 82.2442 301.026 84.2594C300.705 84.8439 300.443 85.4261 300.233 85.9588C300.023 85.4261 299.761 84.8439 299.439 84.2594C298.331 82.2442 296.393 80 293.266 80C292.041 80 290.865 80.4868 289.999 81.3534C289.132 82.22 288.645 83.3953 288.645 84.6208ZM307.359 87.7376H301.203C301.225 87.6646 301.248 87.5881 301.274 87.5085C301.494 86.8133 301.839 85.8943 302.341 84.9823C303.361 83.1267 304.907 81.5 307.2 81.5C308.027 81.5 308.821 81.8288 309.406 82.4141C309.992 82.9993 310.32 83.7931 310.32 84.6208C310.32 85.4485 309.992 86.2423 309.406 86.8276C308.859 87.3752 308.129 87.6983 307.359 87.7376ZM300.981 89.2417V95.4793H314.967V89.2376H307.394C307.329 89.2403 307.264 89.2417 307.2 89.2417H300.981ZM285.5 89.2376H293.072C293.137 89.2403 293.201 89.2417 293.266 89.2417H299.481V95.4793H285.5V89.2376ZM299.481 96.9793H288.594V110.968H299.481V96.9793ZM300.981 110.968V96.9793H311.867V110.968H300.981Z" fill="#6CF9D8"/>
</svg>
