<svg width="96" height="96" viewBox="0 0 96 96" fill="none" xmlns="http://www.w3.org/2000/svg">
<path d="M25.7225 10.8541C30.1634 11.0042 34.4524 9.22758 37.4864 5.98128C43.1744 -0.104586 52.8256 -0.104586 58.5136 5.98128C61.5476 9.22758 65.8366 11.0042 70.2775 10.8541C78.6029 10.5727 85.4273 17.3971 85.1459 25.7225C84.9958 30.1634 86.7724 34.4524 90.0187 37.4864C96.1046 43.1744 96.1046 52.8256 90.0187 58.5136C86.7724 61.5476 84.9958 65.8366 85.1459 70.2775C85.4273 78.6029 78.6029 85.4273 70.2775 85.1459C65.8366 84.9958 61.5476 86.7724 58.5135 90.0187C52.8256 96.1046 43.1744 96.1046 37.4864 90.0187C34.4524 86.7724 30.1634 84.9958 25.7225 85.1459C17.3971 85.4273 10.5727 78.6029 10.8541 70.2775C11.0042 65.8366 9.22758 61.5476 5.98128 58.5135C-0.104586 52.8256 -0.104587 43.1744 5.98128 37.4864C9.22758 34.4524 11.0042 30.1634 10.8541 25.7225C10.5727 17.3971 17.3971 10.5727 25.7225 10.8541Z" fill="#34353B" stroke="#F9D26C"/>
<path fill-rule="evenodd" clip-rule="evenodd" d="M59.804 37.3075C60.0969 37.0146 60.0969 36.5398 59.804 36.2469C59.5111 35.954 59.0362 35.954 58.7433 36.2469L48.0253 46.965L37.3072 36.2469C37.0143 35.954 36.5394 35.954 36.2465 36.2469C35.9536 36.5398 35.9536 37.0146 36.2465 37.3075L46.9646 48.0256L36.2465 58.7437C35.9536 59.0366 35.9536 59.5115 36.2465 59.8044C36.5394 60.0972 37.0143 60.0972 37.3072 59.8044L48.0253 49.0863L58.7433 59.8044C59.0362 60.0972 59.5111 60.0972 59.804 59.8044C60.0969 59.5115 60.0969 59.0366 59.804 58.7437L49.0859 48.0256L59.804 37.3075Z" fill="#F9D26C"/>
</svg>
