<svg viewBox="0 0 600 302" fill="none" xmlns="http://www.w3.org/2000/svg">
<g clip-path="url(#clip0_1844_128836)">
<path fill-rule="evenodd" clip-rule="evenodd" d="M497.729 1300.66C374.424 1339.53 242.677 1376.09 70.4856 1327.54C-15.6514 1303.26 -54.5995 1265.87 -72.6455 1220.87C-81.6545 1198.41 -85.4341 1174.1 -87.3223 1148.68C-88.4101 1134.03 -88.8722 1118.96 -89.3414 1103.66C-89.6852 1092.44 -90.0329 1081.1 -90.6336 1069.71C-93.48 1015.72 -102.014 960.004 -142.598 907.993C-183.191 855.971 -255.931 807.553 -387.419 768.387C-519.159 729.146 -601.96 655.793 -644.797 567.657C-687.626 479.536 -690.465 376.721 -662.454 278.608C-606.441 82.4143 -426.98 -95.2355 -196.601 -99.2826C-81.6337 -101.302 -3.36159 -110.189 56.5708 -126.578C116.48 -142.96 158.091 -166.847 199.726 -198.918C221.88 -215.983 244.05 -235.375 268.989 -257.19L268.99 -257.191L268.991 -257.192C337.816 -317.394 427.729 -396.042 596.576 -495.111C826.835 -630.213 1135.83 -603.893 1363.11 -494.332C1476.77 -439.547 1570.07 -363.912 1622.9 -277.142C1675.75 -190.344 1688.1 -92.4031 1639.8 6.83873C1591.64 105.804 1567.6 174.289 1561.6 229.858C1555.59 285.379 1567.59 328.058 1591.63 375.438C1604.8 401.395 1621.59 428.773 1641.02 460.439C1692.54 544.408 1762.55 658.534 1832.52 856.301C1877.07 982.217 1869.27 1080 1824.9 1153.42C1780.55 1226.82 1699.74 1275.72 1598.6 1304.1C1396.34 1360.85 1112.38 1335.64 874.376 1259.67C743.241 1222.77 633.418 1257.62 517.484 1294.41L517.457 1294.42C510.902 1296.5 504.328 1298.58 497.729 1300.66ZM517.113 1292.95C632.982 1256.18 743.21 1221.2 874.795 1258.22L874.808 1258.23L874.82 1258.23C1112.66 1334.16 1396.31 1359.3 1598.2 1302.65C1699.13 1274.33 1779.53 1225.59 1823.62 1152.64C1867.69 1079.72 1875.56 982.433 1831.11 856.802C1761.2 659.2 1691.33 545.317 1639.82 461.362L1639.82 461.361C1620.36 429.642 1603.52 402.194 1590.29 376.117C1566.16 328.554 1554.06 285.582 1560.1 229.697C1566.14 173.86 1590.27 105.182 1638.45 6.18236C1686.5 -92.5418 1674.24 -189.941 1621.62 -276.362C1568.98 -362.812 1475.94 -438.278 1362.46 -492.981C1135.48 -602.394 827.042 -628.596 597.335 -493.818C428.623 -394.828 338.876 -316.324 270.061 -256.13C245.089 -234.287 222.874 -214.855 200.642 -197.73C158.883 -165.563 117.099 -141.574 56.9665 -125.131C-3.14272 -108.693 -81.5591 -99.8034 -196.574 -97.7829C-426.16 -93.7497 -605.141 83.3227 -661.012 279.02C-688.943 376.853 -686.084 479.276 -643.447 567.001C-600.818 654.71 -518.384 727.812 -386.991 766.949C-255.346 806.162 -182.275 854.707 -141.415 907.071C-100.547 959.447 -91.9874 1015.54 -89.1357 1069.63C-88.5306 1081.1 -88.1828 1092.47 -87.8396 1103.68C-87.3725 1118.94 -86.9138 1133.93 -85.8264 1148.57C-83.943 1173.92 -80.1794 1198.06 -71.2533 1220.31C-53.4292 1264.75 -14.9393 1301.9 70.8926 1326.1C242.639 1374.52 374.025 1338.08 497.278 1299.23C503.911 1297.14 510.521 1295.04 517.113 1292.95ZM97.1099 1279.52C260.499 1325.6 385.512 1290.89 502.507 1254.01C508.762 1252.03 514.994 1250.06 521.208 1248.08L521.249 1248.07C631.251 1213.15 735.441 1180.07 859.853 1215.09C1085.68 1287.21 1355.11 1311.14 1547.03 1257.27C1643 1230.33 1719.68 1183.91 1761.77 1114.23C1803.88 1044.53 1811.28 951.705 1769.01 832.182C1702.61 644.464 1636.18 536.133 1587.3 456.432C1568.87 426.376 1552.93 400.392 1540.44 375.757C1517.63 330.79 1506.25 290.288 1511.95 237.598C1517.64 184.861 1540.45 119.862 1586.15 25.928C1631.98 -68.2824 1620.26 -161.258 1570.11 -243.654C1519.98 -326.022 1431.44 -397.816 1323.6 -449.819C1107.94 -553.815 814.751 -578.8 596.263 -450.557C436.055 -356.521 350.739 -281.867 285.437 -224.724L285.432 -224.719L285.419 -224.708C261.764 -204.009 240.735 -185.609 219.722 -169.417C180.221 -138.978 140.745 -116.308 83.9076 -100.76C27.0475 -85.2054 -47.2147 -76.7708 -156.296 -74.8538C-374.903 -71.0121 -545.192 97.6224 -598.341 283.856C-624.92 376.989 -622.227 474.587 -581.585 558.239C-540.935 641.906 -462.363 711.537 -337.357 748.786C-212.603 785.96 -143.595 831.913 -105.087 881.283C-66.5877 930.641 -58.4909 983.516 -55.7904 1034.75C-55.2204 1045.57 -54.8905 1056.33 -54.5642 1066.98C-54.119 1081.51 -53.6806 1095.81 -52.6484 1109.71C-50.8568 1133.84 -47.2703 1156.92 -38.7203 1178.25C-21.5923 1220.97 15.3739 1256.47 97.1099 1279.52ZM860.272 1213.65C735.411 1178.5 630.815 1211.71 520.878 1246.61C514.623 1248.6 508.35 1250.59 502.056 1252.58C385.113 1289.45 260.461 1324.03 97.517 1278.08C16.0862 1255.11 -20.4219 1219.86 -37.328 1177.69C-45.7952 1156.57 -49.3657 1133.67 -51.1526 1109.6C-52.1843 1095.71 -52.6195 1081.5 -53.0626 1067.02L-53.0626 1067.02L-53.0626 1067.02L-53.0626 1067.02L-53.0626 1067.02L-53.0626 1067.01L-53.0626 1067.01L-53.0626 1067.01L-53.0626 1067.01L-53.0626 1067.01L-53.0626 1067.01L-53.0626 1067L-53.0626 1067L-53.0626 1067C-53.3883 1056.36 -53.7182 1045.57 -54.2925 1034.68C-56.9984 983.335 -65.1201 930.083 -103.904 880.36C-142.679 830.649 -212.018 784.569 -336.929 747.348C-461.588 710.203 -539.793 640.824 -580.236 557.584C-620.685 474.328 -623.398 377.121 -596.899 284.268C-543.891 98.5305 -374.084 -69.5263 -156.27 -73.354C-47.14 -75.2719 27.2663 -83.7102 84.3034 -99.3131C141.364 -114.922 181.013 -137.695 220.638 -168.228C241.734 -184.484 262.813 -202.93 286.507 -223.663C351.8 -280.797 436.95 -355.307 597.023 -449.263C814.958 -577.182 1107.6 -552.315 1322.95 -448.468C1430.62 -396.548 1518.89 -324.922 1568.83 -242.875C1618.75 -160.856 1630.38 -68.421 1584.8 25.2717C1539.08 119.24 1516.18 184.432 1510.45 237.437C1504.72 290.491 1516.2 331.286 1539.1 376.436C1551.65 401.189 1567.63 427.243 1586.1 457.35L1586.1 457.353L1586.1 457.354C1634.97 537.042 1701.26 645.129 1767.59 832.683C1809.76 951.921 1802.29 1044.25 1760.49 1113.45C1718.67 1182.68 1642.39 1228.94 1546.62 1255.82C1355.08 1309.59 1085.96 1285.73 860.297 1213.66L860.284 1213.66L860.272 1213.65ZM507.099 1209.14C396.181 1244.13 277.653 1277.05 122.74 1233.34C45.2417 1211.48 10.184 1177.8 -6.05992 1137.26C-14.1678 1117.03 -17.5685 1095.13 -19.2672 1072.25C-20.2457 1059.06 -20.6615 1045.49 -21.0836 1031.71C-21.3929 1021.61 -21.7058 1011.4 -22.2459 1001.15C-24.806 952.549 -32.4815 902.406 -68.9735 855.599C-105.475 808.781 -170.889 765.197 -289.158 729.938C-407.68 694.605 -482.179 628.553 -520.723 549.183C-559.258 469.828 -561.811 377.246 -536.611 288.902C-486.218 112.245 -324.764 -47.7211 -117.492 -51.3652C-14.0788 -53.1835 56.3218 -61.1837 110.223 -75.936C164.102 -90.682 201.523 -112.182 238.969 -141.051C258.894 -156.411 278.834 -173.868 301.266 -193.507C363.177 -247.707 444.064 -318.521 595.954 -407.717C803.105 -529.365 1081.08 -505.663 1285.54 -407.018C1387.79 -357.691 1471.73 -289.59 1519.26 -211.455C1566.82 -133.292 1577.93 -45.0901 1534.47 44.2822C1491.15 133.379 1469.53 195.025 1464.13 245.041C1458.73 295.008 1469.51 333.417 1491.13 376.064C1502.98 399.426 1518.08 424.07 1535.56 452.576L1535.56 452.578C1581.9 528.175 1644.89 630.934 1707.83 808.991C1747.91 922.366 1740.9 1010.42 1700.97 1076.55C1661.06 1142.65 1588.35 1186.68 1497.36 1212.24C1315.4 1263.33 1059.96 1240.64 845.859 1172.23C727.922 1139.02 629.155 1170.39 524.866 1203.51C518.963 1205.39 513.042 1207.27 507.099 1209.14ZM524.495 1202.06C628.718 1168.95 727.891 1137.45 846.278 1170.79L846.291 1170.8L846.303 1170.8C1060.24 1239.15 1315.37 1261.79 1496.95 1210.79C1587.74 1185.3 1660.04 1141.43 1699.68 1075.77C1739.31 1010.14 1746.4 922.582 1706.42 809.491C1643.53 631.599 1580.69 529.084 1534.36 453.499L1534.36 453.498C1516.85 424.939 1501.7 400.225 1489.8 376.742C1468.08 333.912 1457.2 295.211 1462.64 244.88C1468.07 194.596 1489.78 132.757 1533.12 43.6263C1576.33 -45.2287 1565.31 -132.89 1517.98 -210.676C1470.64 -288.49 1386.96 -356.423 1284.89 -405.667C1080.73 -504.164 803.313 -527.747 596.714 -406.423C444.961 -317.308 364.239 -246.639 302.339 -192.448L302.338 -192.447C279.873 -172.78 259.887 -155.283 239.885 -139.863C202.316 -110.899 164.721 -89.2963 110.619 -74.4893C56.5407 -59.6885 -14.0041 -51.6846 -117.466 -49.8655C-323.944 -46.2353 -484.918 113.153 -535.168 289.313C-560.289 377.377 -557.716 469.569 -519.373 548.528C-481.037 627.471 -406.904 693.271 -288.73 728.501C-170.304 763.806 -104.558 807.517 -67.7905 854.677C-31.0139 901.849 -23.3134 952.368 -20.748 1001.07C-20.2035 1011.4 -19.8906 1021.63 -19.5819 1031.73L-19.5819 1031.73C-19.1618 1045.47 -18.7492 1058.96 -17.7713 1072.14C-16.0774 1094.96 -12.6927 1116.68 -4.66759 1136.7C11.3547 1176.69 45.9545 1210.12 123.147 1231.9C277.615 1275.48 395.782 1242.68 506.648 1207.71C512.616 1205.83 518.564 1203.94 524.495 1202.06ZM144.438 1194.56C292.179 1236.28 405.22 1204.85 510.997 1171.46C516.649 1169.67 522.28 1167.88 527.894 1166.1L527.938 1166.09C627.393 1134.47 721.571 1104.54 834.029 1136.23C1038.21 1201.52 1281.81 1223.18 1455.34 1174.41C1542.12 1150.02 1611.46 1107.99 1649.53 1044.89C1687.61 981.772 1694.3 897.722 1656.08 789.511C1596.05 619.571 1535.98 521.493 1491.79 449.342L1491.79 449.342C1475.13 422.137 1460.72 398.618 1449.43 376.323C1428.81 335.625 1418.53 298.974 1423.68 251.294C1428.83 203.565 1449.44 144.734 1490.75 59.7015C1532.2 -25.6068 1521.61 -109.799 1476.25 -184.406C1430.92 -258.984 1350.86 -323.984 1253.35 -371.064C1058.36 -465.214 793.263 -487.837 595.703 -371.729C450.853 -286.599 373.712 -219.011 314.671 -167.282L314.669 -167.28L314.657 -167.269L314.649 -167.262L314.635 -167.25L314.628 -167.244L314.626 -167.242C293.253 -148.517 274.252 -131.869 255.267 -117.221C219.559 -89.671 183.877 -69.1542 132.502 -55.0822C81.1036 -41.0038 13.9706 -33.3684 -84.6471 -31.6332C-282.328 -28.1548 -436.308 124.53 -484.366 293.142C-508.4 377.463 -505.966 465.833 -469.213 541.577C-432.452 617.337 -361.398 680.383 -248.364 714.108C-135.582 747.757 -73.2075 789.35 -38.4049 834.026C-3.61142 878.69 3.70779 926.538 6.14907 972.917C6.66409 982.702 6.96243 992.446 7.25747 1002.08C7.66006 1015.24 8.05654 1028.19 8.98977 1040.78C10.6099 1062.62 13.8532 1083.52 21.5871 1102.84C37.0828 1141.54 70.5255 1173.68 144.438 1194.56ZM834.449 1134.79C721.54 1102.97 626.956 1133.04 527.566 1164.63L527.545 1164.64C521.895 1166.43 516.23 1168.23 510.545 1170.03C404.821 1203.41 292.141 1234.71 144.845 1193.11C71.2389 1172.33 38.2539 1140.43 22.9795 1102.28C15.3283 1083.17 12.101 1062.44 10.4856 1040.66C9.55288 1028.09 9.15957 1015.21 8.75918 1002.11C8.46475 992.469 8.16641 982.705 7.647 972.838C5.20035 926.357 -2.14364 878.133 -37.2215 833.104C-72.2904 788.087 -134.996 746.366 -247.935 712.67C-360.621 679.049 -431.31 616.256 -467.863 540.922C-504.424 465.574 -506.878 377.595 -482.924 293.553C-435.006 125.437 -281.507 -26.669 -84.6208 -30.1334C14.0453 -31.8695 81.3227 -39.5085 132.898 -53.6355C184.497 -67.7687 220.352 -88.3883 256.183 -116.034C275.259 -130.752 294.319 -147.452 315.743 -166.223C374.773 -217.943 451.749 -285.386 596.463 -370.436C793.471 -486.219 1058.02 -463.714 1252.7 -369.713C1350.04 -322.717 1429.83 -257.885 1474.97 -183.627C1520.09 -109.397 1530.6 -25.7453 1489.41 59.046C1448.07 144.113 1427.36 203.137 1422.18 251.133C1417 299.177 1427.38 336.12 1448.09 377C1459.44 399.415 1473.89 423.005 1490.59 450.263C1534.77 522.4 1594.7 620.235 1654.67 790.011C1692.79 897.938 1686.03 981.492 1648.25 1044.12C1610.45 1106.77 1541.51 1148.64 1454.94 1172.97C1281.78 1221.63 1038.49 1200.04 834.474 1134.8L834.461 1134.8L834.449 1134.79ZM515.771 1124.8C416.304 1156.22 309.997 1185.78 171.058 1146.53C101.547 1126.89 70.0858 1096.64 55.5082 1060.21C48.2334 1042.03 45.1831 1022.36 43.6596 1001.81C42.782 989.967 42.4091 977.777 42.0304 965.4C41.7531 956.333 41.4726 947.165 40.9883 937.962C38.6929 894.329 31.8112 849.323 -0.897911 807.312C-33.6159 765.289 -92.2585 726.16 -198.306 694.503C-304.606 662.77 -371.431 603.447 -406.005 532.156C-440.571 460.88 -442.859 377.727 -420.257 298.386C-375.062 139.735 -230.256 -3.9352 -44.3463 -7.20826C48.3855 -8.84082 111.509 -16.0243 159.835 -29.2684C208.138 -42.5062 241.686 -61.8063 275.259 -87.7237C293.121 -101.513 311 -117.187 331.114 -134.819C386.632 -183.489 459.175 -247.082 595.387 -327.179C781.175 -436.428 1030.47 -415.139 1213.84 -326.554C1305.53 -282.258 1380.82 -221.098 1423.46 -150.922C1466.11 -80.7171 1476.08 -1.49002 1437.09 78.7868C1398.25 158.788 1378.87 214.133 1374.02 259.03C1369.19 303.879 1378.85 338.353 1398.23 376.638C1408.85 397.611 1422.39 419.736 1438.06 445.331C1479.62 513.213 1536.11 605.496 1592.56 765.388C1628.5 867.206 1622.22 946.299 1586.4 1005.7C1550.59 1065.08 1485.37 1104.63 1403.77 1127.58C1240.58 1173.46 1011.5 1153.08 819.501 1091.66C713.768 1061.84 625.221 1090 531.699 1119.74L531.672 1119.75C526.389 1121.43 521.09 1123.12 515.771 1124.8ZM531.327 1118.29C624.784 1088.56 713.737 1060.27 819.921 1090.22L819.934 1090.22L819.946 1090.22C1011.78 1151.6 1240.55 1171.92 1403.36 1126.13C1484.76 1103.24 1549.58 1063.86 1585.11 1004.93C1620.63 946.019 1626.99 867.422 1591.14 765.888C1534.75 606.161 1478.41 514.121 1436.86 446.252C1421.16 420.604 1407.57 398.408 1396.89 377.316C1377.42 338.848 1367.66 304.082 1372.53 258.869C1377.4 213.705 1396.88 158.167 1435.75 78.1317C1474.48 -1.62832 1464.6 -80.3152 1422.17 -150.143C1379.73 -219.999 1304.71 -280.99 1213.19 -325.204C1030.13 -413.639 781.382 -434.81 596.147 -325.886C460.071 -245.869 387.693 -182.42 332.186 -133.76C312.04 -116.099 294.116 -100.386 276.175 -86.5365C242.479 -60.5236 208.758 -41.1208 160.231 -27.8218C111.728 -14.5292 48.4603 -7.34192 -44.3199 -5.70851C-229.434 -2.44949 -373.76 140.641 -418.814 298.797C-441.337 377.859 -439.029 460.622 -404.655 531.501C-370.289 602.365 -303.829 661.437 -197.877 693.066C-91.6723 724.77 -32.6984 764.026 0.285682 806.39C33.279 848.766 40.1855 894.149 42.4862 937.883C42.9748 947.16 43.2553 956.338 43.5321 965.397L43.5321 965.398L43.5321 965.399L43.5321 965.4L43.5321 965.402L43.5321 965.403L43.5321 965.405L43.5321 965.406L43.5321 965.408L43.5321 965.409L43.5321 965.411L43.5321 965.413L43.5321 965.415L43.5321 965.417L43.5321 965.419L43.5321 965.421L43.5321 965.422L43.5325 965.434L43.5325 965.437C43.909 977.763 44.2787 989.867 45.1554 1001.7C46.6742 1022.19 49.7085 1041.68 56.9008 1059.65C71.2572 1095.53 102.261 1125.53 171.466 1145.09C309.959 1184.21 415.904 1154.77 515.319 1123.37C520.672 1121.68 526.007 1119.98 531.327 1118.29ZM192.732 1107.74C324.5 1145 425.319 1116.93 519.645 1087.11C524.613 1085.54 529.563 1083.96 534.498 1082.39L534.701 1082.33L534.747 1082.31C623.436 1054.08 707.394 1027.35 807.649 1055.65C989.726 1113.96 1206.97 1133.31 1361.73 1089.75C1439.11 1067.96 1500.98 1030.42 1534.94 974.044C1568.91 917.646 1574.87 842.558 1540.78 745.904C1487.25 594.128 1433.68 506.525 1394.27 442.09L1394.27 442.09C1379.41 417.797 1366.57 396.796 1356.5 376.892C1338.12 340.556 1328.96 307.84 1333.55 265.278C1338.14 222.668 1356.52 170.138 1393.36 94.2007C1430.33 17.9878 1420.87 -57.2293 1380.42 -123.878C1339.98 -190.498 1268.58 -248.556 1181.63 -290.606C1007.73 -374.695 771.309 -394.906 595.112 -291.197C465.94 -215.166 397.144 -154.798 344.496 -108.601L344.493 -108.598C325.421 -91.8629 308.468 -76.9872 291.532 -63.9C259.698 -39.3011 227.89 -20.984 182.09 -8.42004C136.267 4.15015 76.4115 10.9687 -11.5244 12.5183C-187.843 15.6256 -325.174 152.014 -368.036 302.62C-389.471 377.94 -387.302 456.879 -354.518 524.545C-321.727 592.226 -258.348 648.543 -157.535 678.667C-56.9742 708.715 -1.37227 745.854 29.6474 785.734C60.658 825.602 67.1834 868.313 69.36 909.727C69.819 918.461 70.085 927.162 70.3481 935.769L70.3484 935.775L70.3488 935.781L70.3491 935.788L70.3495 935.794L70.3499 935.801L70.3502 935.808L70.3506 935.815L70.351 935.822L70.3513 935.83L70.3517 935.837L70.3521 935.845L70.3524 935.853C70.7102 947.574 71.0626 959.119 71.8932 970.33C73.338 989.843 76.231 1008.52 83.1317 1025.78C96.9613 1060.37 126.807 1089.09 192.732 1107.74ZM808.069 1054.21C707.362 1025.78 622.999 1052.64 534.375 1080.86C529.329 1082.46 524.27 1084.07 519.193 1085.68C424.92 1115.49 324.461 1143.43 193.141 1106.29C127.522 1087.74 98.1332 1059.26 84.5246 1025.22C77.7062 1008.17 74.8291 989.667 73.3891 970.219C72.5574 958.987 72.2068 947.495 71.8498 935.791C71.5873 927.185 71.3213 918.465 70.8579 909.648C68.6759 868.133 62.1259 825.046 30.8313 784.813C-0.454181 744.591 -56.3874 707.325 -157.105 677.23C-257.57 647.21 -320.584 591.145 -353.168 523.891C-385.76 456.621 -387.949 378.071 -366.593 303.031C-323.872 152.919 -187.02 17.1113 -11.4981 14.0182C76.4863 12.4676 136.486 5.64527 182.487 -6.97351C228.51 -19.5987 260.492 -38.0189 292.449 -62.7131C309.465 -75.8612 326.463 -90.7771 345.569 -107.542L345.57 -107.543C398.207 -153.732 466.838 -213.954 595.873 -289.904C771.517 -393.288 1007.39 -373.196 1180.97 -289.255C1267.76 -247.289 1338.9 -189.4 1379.14 -123.1C1419.36 -56.8277 1428.73 17.8495 1392.01 93.5459C1355.15 169.518 1336.68 222.24 1332.06 265.117C1327.43 308.042 1336.69 341.051 1355.16 377.569C1365.29 397.593 1378.18 418.664 1393.07 443.01C1432.47 507.432 1485.9 594.792 1539.37 746.403C1573.36 842.774 1567.33 917.366 1533.65 973.27C1499.96 1029.2 1438.51 1066.58 1361.32 1088.3C1206.94 1131.76 990.005 1112.47 808.094 1054.22L808.081 1054.21L808.069 1054.21ZM524.071 1044.04C435.587 1072.04 341.003 1098.4 217.386 1063.41C155.535 1045.9 127.525 1018.92 114.545 986.431C108.07 970.22 105.355 952.682 104 934.361C103.221 923.832 102.89 912.988 102.554 901.979L102.554 901.971L102.553 901.964L102.553 901.956L102.553 901.949L102.552 901.942L102.552 901.935L102.551 901.928L102.551 901.921L102.551 901.915L102.55 901.909L102.55 901.906L102.55 901.904L102.55 901.902L102.55 901.9L102.55 901.898L102.55 901.896L102.55 901.894L102.55 901.892L102.55 901.891L102.55 901.889L102.55 901.888L102.55 901.886L102.55 901.885L102.55 901.884L102.55 901.883L102.55 901.882L102.55 901.881L102.55 901.88C102.303 893.809 102.054 885.65 101.624 877.462C99.5819 838.583 93.4617 798.495 64.381 761.076C35.2914 723.646 -16.8553 688.782 -111.18 660.572C-205.758 632.287 -265.222 579.406 -295.988 515.85C-326.746 452.31 -328.78 378.186 -308.67 307.464C-268.46 166.052 -139.623 37.9845 25.7961 35.0668C108.282 33.6119 164.425 27.2105 207.403 15.4103C250.358 3.61659 280.191 -13.5773 310.048 -36.6691C325.926 -48.9485 341.819 -62.9066 359.699 -78.6087L359.707 -78.6153L359.718 -78.6257L359.719 -78.6268L359.723 -78.6301L359.726 -78.6323C409.112 -122.005 473.651 -178.687 594.824 -250.071C760.122 -347.449 981.912 -328.47 1145.04 -249.517C1226.62 -210.037 1293.6 -155.523 1331.54 -92.9671C1369.49 -30.3822 1378.37 40.2518 1343.68 111.82C1309.12 183.113 1291.88 232.425 1287.58 272.422C1283.28 312.371 1291.87 343.077 1309.11 377.186C1318.55 395.867 1330.59 415.579 1344.52 438.382L1344.53 438.386L1344.53 438.389C1381.49 498.885 1431.75 581.139 1481.97 723.639C1513.95 814.392 1508.36 884.903 1476.48 937.868C1444.62 990.81 1386.58 1026.06 1313.98 1046.52C1168.8 1087.42 965.004 1069.25 794.203 1014.5C700.173 987.943 621.43 1013.03 538.235 1039.54C533.529 1041.04 528.809 1042.54 524.071 1044.04ZM537.862 1038.08C620.992 1011.59 700.142 986.371 794.623 1013.06L794.635 1013.07L794.648 1013.07C965.283 1067.76 1168.76 1085.87 1313.57 1045.07C1385.97 1024.68 1443.6 989.587 1475.2 937.094C1506.78 884.624 1512.44 814.607 1480.55 724.137C1430.4 581.802 1380.28 499.791 1343.33 439.309C1329.36 416.45 1317.27 396.666 1307.77 377.862C1290.44 343.571 1281.75 312.572 1286.09 272.261C1290.42 231.997 1307.75 182.493 1342.33 111.166C1376.77 40.1136 1367.98 -29.981 1330.26 -92.1892C1292.51 -154.426 1225.79 -208.77 1144.39 -248.167C981.567 -326.971 760.329 -345.83 595.586 -248.778C474.55 -177.476 410.177 -120.94 360.801 -77.5765L360.8 -77.5754L360.798 -77.574C342.876 -61.8335 326.929 -47.8285 310.966 -35.4825C280.985 -12.2954 250.979 5.00172 207.8 16.8568C164.644 28.7056 108.357 35.1108 25.8226 36.5665C-138.799 39.4702 -267.157 166.956 -307.227 307.874C-327.258 378.317 -325.204 452.052 -294.637 515.197C-264.078 578.326 -204.979 630.955 -110.75 659.135C-16.2679 687.392 36.21 722.383 65.5655 760.156C94.9297 797.94 101.075 838.404 103.121 877.384C103.556 885.663 103.806 893.851 104.052 901.931C104.387 912.918 104.716 923.705 105.496 934.25C106.847 952.507 109.545 969.869 115.938 985.875C128.697 1017.82 156.251 1044.54 217.794 1061.96C340.965 1096.83 435.187 1070.59 523.618 1042.61C528.369 1041.11 533.104 1039.6 537.825 1038.09L537.862 1038.08ZM241.055 1020.92C356.849 1053.73 445.447 1029.02 528.322 1002.76C532.758 1001.36 537.178 999.95 541.585 998.544C619.507 973.692 693.244 950.174 781.296 975.073C941.273 1026.4 1132.15 1043.44 1268.14 1005.09C1336.14 985.909 1390.52 952.851 1420.37 903.199C1450.24 853.525 1455.47 787.399 1425.51 702.302C1378.48 568.691 1331.4 491.564 1296.78 434.844C1283.73 413.463 1272.45 394.981 1263.61 377.467C1247.47 345.493 1239.42 316.712 1243.45 279.268C1247.48 241.776 1263.62 195.548 1295.99 128.706C1328.48 61.5886 1320.17 -4.65336 1284.62 -63.3437C1249.08 -122.006 1186.33 -173.122 1109.93 -210.141C957.129 -284.17 749.384 -301.968 594.55 -210.658C481.056 -143.727 420.603 -90.5787 374.349 -49.9126C357.594 -35.182 342.702 -22.0892 327.826 -10.5724C299.866 11.0751 271.93 27.1926 231.706 38.2483C191.458 49.3102 138.881 55.3121 61.6264 56.6761C-93.3296 59.4121 -214.012 179.505 -251.677 312.105C-270.514 378.422 -268.609 447.932 -239.796 507.518C-210.974 567.12 -155.27 616.709 -66.6774 643.232C21.6613 669.68 70.491 702.363 97.7277 737.447C124.956 772.519 130.687 810.093 132.599 846.543C133.002 854.227 133.236 861.886 133.467 869.463L133.467 869.468C133.783 879.811 134.094 890 134.825 899.891C136.095 917.071 138.637 933.519 144.705 948.725C156.868 979.207 183.117 1004.51 241.055 1020.92ZM781.717 973.633C693.213 948.602 619.069 972.253 541.212 997.089C536.777 998.503 532.331 999.922 527.869 1001.33C445.047 1027.57 356.81 1052.16 241.464 1019.48C183.833 1003.15 158.041 978.099 146.098 948.169C140.112 933.169 137.586 916.895 136.321 899.78C135.59 889.893 135.282 879.782 134.969 869.482C134.738 861.907 134.504 854.229 134.097 846.464C132.18 809.914 126.424 771.964 98.9126 736.527C71.4102 701.101 22.2494 668.29 -66.2473 641.795C-154.49 615.377 -209.83 566.041 -238.445 506.865C-267.068 447.674 -268.992 378.553 -250.234 312.515C-212.709 180.407 -92.505 60.8978 61.6529 58.1759C138.956 56.811 191.678 50.8054 232.103 39.6946C272.552 28.5774 300.66 12.3567 328.744 -9.38622C343.698 -20.9634 358.634 -34.0954 375.422 -48.8544C421.666 -89.5118 481.953 -142.515 595.312 -209.366C749.592 -300.35 956.783 -282.671 1109.27 -208.791C1185.51 -171.855 1247.99 -120.908 1283.33 -62.5664C1318.66 -4.2526 1326.88 61.4505 1294.64 128.052C1262.25 194.929 1246.02 241.349 1241.96 279.108C1237.89 316.914 1246.04 345.987 1262.27 378.144C1271.17 395.777 1282.49 414.329 1295.58 435.763C1330.19 492.47 1377.12 569.354 1424.1 702.8C1453.95 787.615 1448.65 853.246 1419.08 902.426C1389.5 951.628 1335.53 984.522 1267.73 1003.64C1132.12 1041.89 941.552 1024.92 781.742 973.641L781.73 973.637L781.717 973.633ZM532.569 961.488C455.303 985.994 372.69 1009.07 264.721 978.438C210.694 963.111 186.207 939.488 174.86 911.017C169.201 896.816 166.83 881.457 165.646 865.418C164.964 856.184 164.674 846.669 164.38 837.011C164.164 829.939 163.946 822.791 163.571 815.621C161.788 781.601 156.446 746.541 131.07 713.815C105.687 681.079 60.174 650.575 -22.1787 625.89C-104.785 601.129 -156.731 554.833 -183.608 499.184C-210.477 443.552 -212.252 378.656 -194.688 316.745C-159.568 192.956 -47.0402 80.8379 97.4527 78.2834C169.475 77.0103 218.488 71.4081 256.005 61.0842C293.498 50.7666 319.536 35.7257 345.6 15.5225C359.466 4.77431 373.348 -7.44554 388.968 -21.1944L388.968 -21.1952L388.971 -21.197C432.094 -59.1557 488.459 -108.77 594.271 -171.247C738.642 -256.49 932.342 -239.873 1074.8 -170.766C1146.04 -136.209 1204.55 -88.4897 1237.69 -33.7222C1270.85 21.0736 1278.6 82.9233 1248.29 145.589C1218.12 207.981 1203.08 251.125 1199.32 286.113C1195.56 321.053 1203.06 347.908 1218.1 377.748C1226.34 394.089 1236.86 411.334 1249.02 431.285L1249.02 431.286L1249.02 431.291L1249.03 431.294L1249.03 431.296C1281.3 484.241 1325.2 556.242 1369.05 680.964C1396.98 760.405 1392.11 822.145 1364.25 868.529C1336.41 914.89 1285.71 945.753 1222.3 963.656C1095.51 999.458 917.538 983.553 768.386 935.64C686.311 912.403 617.58 934.351 544.931 957.55L544.859 957.573C540.776 958.877 536.68 960.184 532.569 961.488ZM544.558 956.094C617.142 932.912 686.28 910.831 768.807 934.201L768.82 934.204L768.833 934.208C917.817 982.07 1095.47 997.909 1221.89 962.213C1285.1 944.366 1335.4 913.668 1362.97 867.756C1390.52 821.866 1395.47 760.62 1367.64 681.461C1323.84 556.904 1280.09 485.146 1247.82 432.214L1247.82 432.212C1235.62 412.204 1225.07 394.886 1216.77 378.423C1201.63 348.401 1194.03 321.254 1197.83 285.952C1201.61 250.698 1216.75 207.362 1246.94 144.936C1277 82.7855 1269.33 21.4737 1236.41 -32.9456C1203.46 -87.3932 1145.22 -134.943 1074.15 -169.417C931.996 -238.373 738.85 -254.871 595.034 -169.955C489.355 -107.558 433.156 -58.0885 390.043 -20.138L390.042 -20.1373C374.39 -6.35984 360.463 5.89943 346.519 16.708C320.332 37.0067 294.12 52.1513 256.403 62.5304C218.709 72.9032 169.55 78.5092 97.4792 79.7832C-46.2145 82.3235 -158.265 193.857 -193.245 317.155C-210.73 378.787 -208.936 443.294 -182.257 498.532C-155.586 553.754 -104.005 599.797 -21.748 624.453C60.7627 649.186 106.607 679.817 132.256 712.896C157.914 745.986 163.281 781.422 165.069 815.542C165.449 822.793 165.666 829.96 165.881 837.03C166.174 846.644 166.46 856.079 167.142 865.308C168.321 881.282 170.676 896.466 176.254 910.461C187.381 938.38 211.412 961.755 265.13 976.995C372.652 1007.5 454.902 984.548 532.115 960.059C536.276 958.739 540.423 957.415 544.558 956.094ZM536.366 920.211C464.67 942.97 388.001 964.404 287.801 935.953C237.659 921.715 214.921 899.767 204.385 873.307C199.13 860.112 196.93 845.842 195.831 830.944C195.199 822.369 194.929 813.529 194.656 804.558L194.656 804.551L194.656 804.544L194.655 804.537L194.655 804.531L194.655 804.525C194.455 797.968 194.253 791.341 193.906 784.697C192.252 753.106 187.295 720.559 163.76 690.18C140.216 659.79 97.9974 631.466 21.5888 608.543C-55.0739 585.544 -103.287 542.54 -128.233 490.844C-153.171 439.164 -154.818 378.883 -138.517 321.377C-105.925 206.397 -1.49442 102.252 132.608 99.8798C199.436 98.6973 244.909 93.4948 279.714 83.9088C314.496 74.3292 338.65 60.3645 362.829 41.6054C375.693 31.6258 388.572 20.2787 403.064 7.51113C443.079 -27.7418 495.385 -73.8241 593.575 -131.85C727.555 -211.027 907.308 -195.59 1039.51 -131.406C1105.62 -99.3094 1159.92 -54.9867 1190.67 -4.11321C1221.44 46.7885 1228.64 104.247 1200.51 162.463C1172.51 220.404 1158.56 260.465 1155.07 292.948C1151.59 325.384 1158.54 350.314 1172.5 378.02C1180.14 393.194 1189.9 409.21 1201.19 427.74L1201.19 427.741L1201.19 427.742C1231.14 476.911 1271.87 543.787 1312.56 659.621C1338.48 733.408 1333.96 790.763 1308.11 833.856C1282.26 876.928 1235.2 905.596 1176.36 922.225C1058.7 955.478 893.549 940.705 755.146 896.206C679.006 874.631 615.247 895.009 547.834 916.554C544.024 917.772 540.202 918.993 536.366 920.211ZM547.46 915.098C614.808 893.571 678.975 873.059 755.568 894.767L755.581 894.77L755.593 894.774C893.828 939.221 1058.66 953.928 1175.95 920.781C1234.59 904.21 1281.25 875.706 1306.82 833.084C1332.38 790.484 1336.97 733.623 1311.15 660.118C1270.52 544.449 1229.93 477.817 1199.99 428.66L1199.98 428.659L1199.98 428.659C1188.66 410.075 1178.87 393.988 1171.16 378.695C1157.11 350.807 1150.06 325.585 1153.58 292.788C1157.1 260.039 1171.15 219.786 1199.16 161.81C1227.04 104.109 1219.93 47.1884 1189.39 -3.33708C1158.83 -53.8909 1104.79 -98.0438 1038.85 -130.056C906.961 -194.091 727.764 -209.408 594.338 -130.559C496.284 -72.6128 444.143 -26.6761 404.139 8.56789L404.137 8.56972L404.124 8.58071C389.606 21.3715 376.686 32.7539 363.749 42.7905C339.446 61.6453 315.118 75.7135 280.112 85.3549C245.13 94.9899 199.511 100.196 132.635 101.38C-0.66776 103.738 -104.621 207.297 -137.074 321.786C-153.296 379.014 -151.63 438.907 -126.882 490.192C-102.141 541.462 -54.2927 584.212 22.0198 607.107C98.5867 630.077 141.137 658.529 164.946 689.261C188.764 720.005 193.745 752.927 195.404 784.618C195.756 791.353 195.958 798.008 196.158 804.572L196.158 804.578C196.429 813.504 196.695 822.264 197.327 830.834C198.421 845.667 200.606 859.762 205.778 872.752C216.095 898.661 238.377 920.36 288.211 934.51C387.963 962.834 464.269 941.524 535.912 918.781C539.774 917.555 543.622 916.325 547.46 915.098ZM647.097 485.311C669.889 495.102 695.386 488.508 713.634 476.005C722.765 469.748 730.133 461.98 734.468 453.967C738.801 445.957 740.141 437.62 737.037 430.325C719.189 388.384 719.538 358.291 719.784 337.123L719.784 337.111L719.784 337.1L719.784 337.089C719.811 334.764 719.837 332.547 719.837 330.434C719.837 301.675 703.694 281.833 680.536 270.817C657.41 259.816 627.265 257.59 599.047 263.961C584.928 267.149 575.716 271.347 568.667 275.866C563.708 279.045 559.807 282.399 556.064 285.616L556.059 285.62C554.512 286.95 552.991 288.257 551.435 289.518C546.092 293.847 540.193 297.765 530.987 300.611C521.762 303.462 509.181 305.247 490.469 305.247C467.57 305.247 451.472 310.178 440.866 318.143C430.241 326.123 425.206 337.091 424.338 348.977C422.607 372.676 437.419 400.047 457.413 415.168C468.817 423.793 472.801 430.612 476.481 436.911L476.482 436.913L476.483 436.915C478.033 439.568 479.529 442.128 481.502 444.692C488.145 453.322 499.882 461.312 536.371 471.699C543.385 473.696 551.273 474.431 559.764 474.698C564.874 474.859 570.241 474.851 575.781 474.843C579.428 474.837 583.149 474.831 586.923 474.874C605.991 475.088 626.647 476.527 647.097 485.311ZM735.656 430.912C738.522 437.646 737.349 445.488 733.149 453.253C728.95 461.014 721.765 468.615 712.786 474.767C694.815 487.081 669.865 493.46 647.689 483.933C626.959 475.028 606.059 473.588 586.94 473.374C583.124 473.331 579.391 473.337 575.744 473.343L575.734 473.343L575.732 473.343L575.731 473.343L575.73 473.343L575.729 473.343L575.728 473.343L575.727 473.343L575.726 473.343L575.725 473.343L575.724 473.343L575.723 473.343L575.721 473.343C570.212 473.351 564.902 473.36 559.812 473.199C551.362 472.933 543.619 472.202 536.781 470.256C500.336 459.882 489.019 451.997 482.691 443.777C480.866 441.407 479.429 438.951 477.912 436.358C474.184 429.986 469.971 422.784 458.318 413.972C438.638 399.089 424.147 372.174 425.834 349.087C426.675 337.58 431.529 327.032 441.767 319.342C452.025 311.638 467.764 306.747 490.469 306.747C509.265 306.747 522.01 304.955 531.43 302.044C540.868 299.126 546.934 295.096 552.379 290.684C554.001 289.37 555.556 288.032 557.124 286.685L557.126 286.683L557.126 286.683L557.127 286.682L557.128 286.681L557.128 286.68L557.129 286.68L557.13 286.679L557.131 286.678C560.84 283.49 564.613 280.247 569.477 277.129C576.362 272.714 585.409 268.578 599.377 265.425C627.331 259.113 657.124 261.341 679.892 272.172C702.629 282.987 718.337 302.358 718.337 330.434C718.337 332.551 718.311 334.775 718.284 337.111C718.037 358.311 717.683 388.676 735.656 430.912ZM541.003 881.158C474.09 901.828 402.793 921.41 310.423 895.181C263.175 881.764 241.396 861.39 231.053 836.922C225.895 824.72 223.603 811.548 222.37 797.81C221.629 789.559 221.269 781.055 220.904 772.428L220.904 772.42L220.903 772.398L220.902 772.383L220.901 772.37L220.901 772.359C220.66 766.677 220.418 760.942 220.062 755.19C218.265 726.09 213.58 696.122 191.904 668.081C170.219 640.029 131.449 613.804 61.2527 592.407L61.4712 591.69L61.252 592.407C-9.35908 570.811 -53.9863 530.746 -77.2119 482.681C-100.43 434.63 -102.222 378.664 -87.3217 325.308C-57.5304 218.627 39.0738 122.14 165.166 119.983C227.62 118.908 270.104 114.016 302.584 105.042C335.04 96.0744 357.535 83.0226 380.001 65.5758C391.787 56.4232 403.574 46.0513 416.788 34.4229L416.789 34.4218L416.79 34.421L416.792 34.4199C453.982 1.69351 502.479 -40.9829 594.082 -94.4279C718.458 -166.995 884.617 -152.755 1006.9 -93.4063C1068.05 -63.7276 1118.31 -22.7332 1146.9 24.4219C1175.51 71.6044 1182.41 124.953 1156.83 179.19L1156.83 179.194C1131.38 232.35 1118.68 269.307 1115.52 299.439C1112.36 329.527 1118.71 352.86 1131.48 378.791C1138.64 393.331 1147.83 408.701 1158.49 426.531C1185.87 472.318 1222.96 534.334 1260.27 640.213L1259.6 640.447L1260.27 640.213C1284.11 707.944 1279.89 760.842 1255.98 800.756C1232.09 840.648 1188.63 867.417 1134.3 883.101C1025.67 914.465 873.23 901.622 745.354 860.288C674.054 839.825 614.096 858.454 550.832 878.11C547.565 879.125 544.29 880.142 541.003 881.158ZM550.476 876.649C613.672 857.011 674.033 838.254 745.78 858.849L745.792 858.853L745.804 858.857C873.505 900.137 1025.63 912.915 1133.89 881.66C1188.01 866.034 1231.07 839.431 1254.69 799.986C1278.31 760.562 1282.6 708.156 1258.86 640.711C1221.6 534.986 1184.66 473.219 1157.29 427.449C1146.59 409.564 1137.35 394.122 1130.13 379.454C1117.27 353.343 1110.83 329.724 1114.03 299.283C1117.22 268.887 1130.01 231.741 1155.48 178.55C1180.82 124.825 1174 72.0089 1145.62 25.1997C1117.22 -21.637 1067.22 -62.4622 1006.25 -92.0569C884.272 -151.255 718.664 -165.378 594.838 -93.1324C503.375 -39.7689 455.042 2.76284 417.861 35.4809L417.86 35.4816C404.614 47.1381 392.783 57.5491 380.921 66.7604C358.332 84.3026 335.664 97.4581 302.983 106.488C270.325 115.511 227.695 120.407 165.191 121.483C39.8951 123.627 -56.226 219.533 -85.8771 325.712C-100.698 378.787 -98.8908 434.368 -75.861 482.028C-52.8388 529.673 -8.57001 569.483 61.69 590.972C132.045 612.418 171.143 638.772 193.09 667.163C215.046 695.565 219.756 725.903 221.559 755.097C221.92 760.93 222.164 766.7 222.404 772.399L222.405 772.41C222.768 781.006 223.125 789.438 223.864 797.675C225.09 811.344 227.364 824.342 232.435 836.338C242.55 860.267 263.879 880.405 310.833 893.738C402.757 919.841 473.694 900.38 540.56 879.725C543.863 878.704 547.156 877.681 550.441 876.66L550.476 876.649ZM333.022 854.407C417.56 878.413 483.486 860.684 545.616 842.102C548.346 841.286 551.069 840.468 553.786 839.651C612.904 821.888 669.072 805.012 735.538 824.367C852.888 862.538 992.625 873.45 1092.22 843.974C1142.03 829.235 1181.89 804.366 1203.83 767.654C1225.79 730.92 1229.71 682.479 1207.95 620.803L1207.95 620.802C1174.04 524.914 1140.6 467.793 1115.79 425.408C1105.74 408.24 1097.11 393.49 1090.43 379.561C1078.85 355.403 1073.11 333.667 1075.95 305.928C1078.79 278.146 1090.23 244.292 1113.13 195.922L1113.13 195.913C1136.16 145.654 1129.54 96.4173 1103.1 52.9543C1076.68 9.51777 1030.46 -28.1486 974.268 -55.4095C861.902 -109.923 709.338 -122.965 594.565 -57.0089C509.558 -8.15781 464.875 31.1111 430.508 61.3129C418.562 71.8117 407.863 81.2146 397.15 89.5436C376.396 105.678 355.561 117.817 325.429 126.173C295.274 134.535 255.78 139.116 197.699 140.084C79.619 142.026 -9.15959 230.855 -36.1501 329.238C-49.6491 378.443 -47.7119 430.094 -26.2143 474.515C-4.7099 518.95 36.3316 556.075 100.891 576.268L100.892 576.268C164.875 596.139 200.198 620.266 220.024 645.979C239.842 671.683 244.254 699.071 246.195 725.681C246.551 730.552 246.824 735.408 247.095 740.224L247.096 740.251C247.563 748.552 248.023 756.735 248.885 764.674C250.252 777.254 252.638 789.329 257.699 800.538C267.849 823.011 288.668 841.811 333.022 854.407ZM735.969 822.93C669.061 803.443 612.498 820.441 553.448 838.186L553.367 838.211C550.646 839.028 547.919 839.848 545.186 840.665C483.095 859.235 417.529 876.845 333.432 852.964C289.357 840.447 268.98 821.871 259.066 799.92C254.097 788.916 251.735 777.017 250.376 764.512C249.517 756.604 249.062 748.498 248.597 740.23L248.596 740.201C248.325 735.377 248.051 730.498 247.691 725.572C245.743 698.875 241.304 671.122 221.211 645.063C201.126 619.013 165.48 594.756 101.337 574.836C37.1287 554.752 -3.56 517.883 -24.8642 473.861C-46.1755 429.825 -48.1249 378.557 -34.7035 329.635C-7.85417 231.766 80.4339 143.513 197.724 141.584C255.856 140.615 295.496 136.03 325.83 127.618C356.187 119.2 377.195 106.957 398.07 90.7278C408.855 82.3429 419.597 72.903 431.573 62.3778L431.575 62.3767C465.932 32.183 510.452 -6.94138 595.312 -55.7083C709.539 -121.351 861.559 -108.422 973.614 -54.06C1029.63 -26.8832 1075.59 10.6141 1101.82 53.7338C1128.04 96.8256 1134.57 145.535 1111.77 195.283C1088.85 243.692 1077.32 277.733 1074.45 305.775C1071.58 333.86 1077.41 355.875 1089.08 380.209C1095.82 394.276 1104.5 409.101 1114.58 426.325L1114.59 426.328C1139.39 468.689 1172.68 525.555 1206.54 621.302C1228.2 682.687 1224.21 730.637 1202.55 766.884C1180.87 803.154 1141.4 827.856 1091.8 842.536C992.576 871.9 853.157 861.051 735.991 822.937L735.98 822.933L735.969 822.93ZM550.218 803.046C492.872 819.538 432.318 835.415 355.612 813.632C314.153 801.856 294.294 784.632 284.338 764.154C276.073 747.154 274.681 727.967 273.241 708.112C272.954 704.155 272.665 700.172 272.319 696.173C270.234 672.052 266.095 647.242 248.134 623.875C230.168 600.5 198.292 578.472 140.522 560.128L140.52 560.127C82.0123 541.336 44.5569 507.151 24.7737 466.347C4.99713 425.557 2.91413 378.222 15.012 333.167C39.2017 243.08 120.155 161.91 230.223 160.183C283.931 159.323 320.436 155.052 348.266 147.302C376.073 139.558 395.248 128.332 414.288 113.51C423.931 106.003 433.547 97.5651 444.232 88.1885L444.237 88.1845C475.779 60.5056 516.643 24.6474 595.04 -19.5918C700.208 -78.9373 839.178 -67.0925 941.627 -17.4144C992.86 7.42889 1035.03 41.767 1059.3 81.4848C1083.57 121.228 1089.91 166.354 1069.43 212.633L1069.42 212.64L1069.42 212.647C1049.06 256.232 1038.88 286.983 1036.36 312.414C1033.85 337.806 1038.98 357.946 1049.37 380.33C1055.6 393.735 1063.68 407.895 1073.14 424.454L1073.14 424.455C1079.52 435.631 1086.52 447.899 1094 461.766C1112.53 496.133 1133.89 540.181 1155.63 601.39L1155.63 601.39C1175.31 657.012 1171.68 700.996 1151.68 734.55C1131.68 768.081 1095.43 791.05 1050.14 804.846C959.57 832.433 832.537 823.452 725.712 788.444C664.071 770.191 611.68 785.31 556.703 801.176L554.476 801.819C553.058 802.228 551.639 802.637 550.218 803.046ZM556.388 799.706C611.294 783.858 664.074 768.624 726.149 787.009L726.159 787.012L726.169 787.015C832.8 821.962 959.511 830.883 1049.7 803.411C1094.79 789.677 1130.66 766.876 1150.39 733.782C1170.1 700.711 1173.79 657.216 1154.21 601.892C1132.5 540.767 1111.18 496.789 1092.68 462.478C1085.25 448.701 1078.26 436.461 1071.88 425.287C1062.4 408.669 1054.26 394.41 1048.01 380.962C1037.54 358.405 1032.33 337.993 1034.87 312.266C1037.41 286.579 1047.68 255.644 1068.06 212.019C1088.31 166.247 1082.07 121.642 1058.02 82.2668C1033.95 42.8638 992.032 8.69428 940.973 -16.0646C838.837 -65.5904 700.406 -77.3263 595.777 -18.2854C517.534 25.867 476.834 61.5807 445.299 89.2516L445.298 89.2527L445.296 89.2542C434.58 98.6576 424.923 107.132 415.21 114.694C396.048 129.61 376.7 140.94 348.668 148.747C320.659 156.547 284.007 160.822 230.247 161.683C120.963 163.397 40.5084 243.998 16.4605 333.556C4.43952 378.324 6.53034 425.281 26.1236 465.693C45.7098 506.091 82.8196 540.02 140.976 558.698C198.906 577.093 231.101 599.253 249.324 622.961C267.552 646.677 271.721 671.845 273.814 696.044C274.164 700.09 274.456 704.104 274.745 708.078L274.745 708.079L274.745 708.08L274.745 708.084L274.745 708.088L274.745 708.089C276.19 727.941 277.56 746.783 285.687 763.498C295.398 783.472 314.825 800.488 356.021 812.189C432.291 833.848 492.487 818.087 549.803 801.604C550.883 801.293 551.962 800.983 553.041 800.672C554.157 800.35 555.273 800.028 556.388 799.706ZM378.223 772.85C447.097 792.41 502.279 778.386 554.84 763.983L556.611 763.498C557.611 763.223 558.609 762.949 559.607 762.675C610.449 748.712 659.081 735.355 715.908 752.515C812.209 784.361 926.539 791.41 1008.07 765.711C1048.84 752.859 1081.5 731.789 1099.54 701.44C1117.59 671.066 1120.92 631.54 1103.32 581.972L1103.32 581.971C1083.68 526.95 1064.54 487.059 1048.01 455.748C1041.77 443.928 1035.91 433.347 1030.53 423.644L1030.53 423.642C1021.65 407.609 1014.09 393.971 1008.34 381.095C999.135 360.484 994.613 341.94 996.802 318.893C998.994 295.813 1007.92 268.165 1025.73 229.366L1025.74 229.356L1025.74 229.345C1043.67 187.046 1037.62 146.032 1015.51 110.009C993.415 74.0102 955.282 43.0002 909.008 20.5746C816.476 -24.2683 691.102 -34.9151 595.538 17.8185C523.767 57.4236 486.731 89.8678 458.013 115.026L458.012 115.027C448.572 123.297 440.03 130.779 431.449 137.47C414.122 150.98 396.607 161.293 371.124 168.425C345.619 175.563 312.104 179.524 262.77 180.276C160.715 181.787 87.5853 255.298 66.1961 337.091C55.4996 377.995 57.7288 421.014 75.7842 458.174C93.8458 495.346 127.714 526.591 180.169 543.979L180.173 543.98C231.73 560.798 260.159 580.728 276.267 601.765C292.37 622.796 296.236 645.028 298.466 666.661C298.788 669.787 299.076 672.904 299.363 676.004L299.364 676.02C301.053 694.312 302.69 712.034 311.001 727.767C320.763 746.247 339.66 761.896 378.223 772.85ZM716.351 751.082C659.099 733.791 610.087 747.253 559.318 761.199C557.695 761.644 556.071 762.091 554.444 762.536C501.903 776.933 447.076 790.845 378.633 771.407C340.314 760.522 321.836 745.066 312.328 727.066C304.168 711.621 302.559 694.239 300.864 675.933L300.863 675.92C300.575 672.808 300.284 669.668 299.958 666.508C297.722 644.807 293.823 622.225 277.458 600.853C261.098 579.487 232.356 559.425 180.638 542.554C128.534 525.282 95.0023 494.294 77.1334 457.518C59.2581 420.729 57.0264 378.085 67.6473 337.47C88.8934 256.225 161.513 183.275 262.792 181.776C312.181 181.023 345.843 177.058 371.529 169.869C397.236 162.674 414.924 152.257 432.372 138.653C441.017 131.912 449.596 124.397 459.063 116.104L459.064 116.103L459.065 116.103L459.065 116.102C487.776 90.9508 524.649 58.6498 596.263 19.132C691.294 -33.3079 816.138 -22.765 908.354 21.9245C954.454 44.2653 992.328 75.1074 1014.23 110.794C1036.12 146.452 1042.08 186.953 1024.37 228.749C1006.54 267.591 997.524 295.419 995.308 318.752C993.089 342.12 997.69 360.927 1006.97 381.707C1012.75 394.635 1020.35 408.372 1029.27 424.458C1034.64 434.155 1040.48 444.706 1046.68 456.448C1063.19 487.709 1082.29 527.534 1101.91 582.474C1119.4 631.738 1116.02 670.778 1098.25 700.673C1080.47 730.592 1048.19 751.492 1007.62 764.28C926.466 789.86 812.464 782.867 716.37 751.088L716.361 751.084L716.351 751.082ZM965.993 725.6C893.494 749.411 791.866 744.294 706.088 715.61C654.059 699.533 609.162 711.118 562.449 723.171L561.404 723.44L559.446 723.945C511.671 736.258 461.861 748.43 400.82 731.093C365.154 720.96 347.221 706.887 337.652 690.408C329.255 675.947 327.36 659.704 325.41 642.989L325.369 642.644L325.368 642.629L325.366 642.614C325.273 641.817 325.18 641.018 325.085 640.219C324.927 638.874 324.766 637.526 324.598 636.177C322.224 617.03 318.631 597.374 304.384 578.679C290.134 559.979 265.151 542.148 219.807 526.857L219.802 526.855C173.399 510.87 143.119 482.564 126.78 449.025C110.446 415.497 108.07 376.794 117.365 340.04C135.953 266.54 201.26 200.689 295.302 199.393C340.262 198.749 370.787 195.099 393.967 188.572C417.125 182.052 432.981 172.653 448.595 160.455C456.118 154.578 463.591 148.044 471.796 140.87L471.802 140.865C497.698 118.224 530.897 89.1966 596.023 54.2527C681.98 8.132 793.758 17.5804 876.374 57.5882C917.689 77.5959 951.78 105.278 971.712 137.557C991.659 169.86 997.416 206.761 982.042 245.079L982.036 245.093L982.03 245.107C966.766 279.12 959.094 303.665 957.225 324.397C955.358 345.098 959.275 362.048 967.293 380.887C972.581 393.309 979.633 406.512 987.981 422.143L987.981 422.144L987.982 422.145C992.327 430.28 997.023 439.073 1002 448.755C1016.54 477.011 1033.45 512.743 1051 561.576L1051 561.577C1066.52 605.092 1063.49 640.161 1047.39 667.353C1031.3 694.521 1002.25 713.692 965.993 725.6ZM1049.59 562.081C1065 605.283 1061.92 639.869 1046.1 666.589C1030.26 693.334 1001.58 712.333 965.525 724.175C893.404 747.862 792.112 742.796 706.556 714.184L706.548 714.182L706.54 714.179C654.096 697.972 608.829 709.653 562.191 721.688C561.152 721.956 560.112 722.224 559.072 722.493C511.304 734.804 461.846 746.866 401.23 729.65C365.787 719.58 348.256 705.683 338.95 689.655C330.72 675.483 328.86 659.574 326.902 642.825C326.637 640.562 326.371 638.284 326.087 635.992C323.706 616.792 320.077 596.798 305.577 577.77C291.081 558.747 265.794 540.782 220.29 525.437C174.235 509.571 144.28 481.523 128.128 448.368C111.97 415.201 109.598 376.868 118.819 340.407C137.264 267.477 202.047 202.178 295.322 200.893C340.34 200.248 371.013 196.594 394.374 190.016C417.757 183.433 433.785 173.928 449.519 161.637C457.104 155.711 464.615 149.144 472.849 141.945L472.85 141.945C498.738 119.311 531.774 90.4281 596.732 55.5745C682.166 9.73478 793.423 19.0851 875.72 58.9382C916.86 78.861 950.695 106.375 970.436 138.345C990.16 170.288 995.825 206.686 980.655 244.507C965.372 278.565 957.622 303.286 955.731 324.262C953.837 345.271 957.825 362.472 965.913 381.474C971.227 393.957 978.33 407.257 986.702 422.934C991.041 431.059 995.721 439.822 1000.67 449.442C1015.18 477.653 1032.07 513.324 1049.59 562.081ZM696.276 677.536C771.533 703.059 860.459 706.243 923.924 684.319C955.663 673.355 981.112 656.082 995.246 632.098C1009.4 608.089 1012.13 577.478 998.687 540.014L998.687 540.012C983.233 497.368 968.547 465.795 956.008 440.596C952.328 433.2 948.837 426.361 945.567 419.956L945.567 419.955C937.686 404.516 931.095 391.603 926.255 379.513C919.422 362.446 916.112 347.089 917.656 328.731C919.202 310.347 925.619 288.904 938.336 259.678L938.344 259.66L938.351 259.641C951.171 225.304 945.701 192.518 927.92 163.937C910.153 135.377 880.104 111.023 843.747 93.4332C771.048 58.2603 672.867 50.0111 596.518 89.5172C538.064 119.763 508.713 145.368 485.64 165.496C478.644 171.599 472.226 177.199 465.748 182.271C451.847 193.157 437.651 201.643 416.818 207.551C395.963 213.466 368.428 216.805 327.841 217.342C241.815 218.422 184.328 276.611 168.541 341.822C152.748 407.053 178.678 479.371 259.44 508.562L259.446 508.564C298.578 522.328 320.115 538.06 332.509 554.424C344.9 570.786 348.22 587.866 350.739 604.528C350.913 605.68 351.083 606.831 351.253 607.979L351.379 608.836C353.606 623.957 355.778 638.703 364.316 651.886C373.69 666.36 390.656 678.856 423.424 688.167C476.631 703.28 521.069 692.963 564.057 682.739L565.232 682.46C607.825 672.328 649.024 662.528 696.276 677.536ZM993.954 631.337C1007.83 607.791 1010.6 577.661 997.276 540.522C981.847 497.947 967.186 466.427 954.665 441.265C951.011 433.92 947.534 427.109 944.273 420.719L944.266 420.707C936.368 405.234 929.73 392.228 924.862 380.07C917.967 362.847 914.593 347.253 916.161 328.605C917.727 309.986 924.216 288.373 936.953 259.098C949.583 225.252 944.207 192.956 926.647 164.729C909.069 136.475 879.274 112.288 843.094 94.7834C770.717 59.7668 673.045 51.6081 597.207 90.8495C538.931 121.003 509.745 146.463 486.679 166.584L486.674 166.588L486.668 166.593L486.663 166.597C479.65 172.715 473.202 178.34 466.673 183.452C452.654 194.431 438.286 203.022 417.227 208.995C396.19 214.96 368.506 218.304 327.86 218.842C242.587 219.913 185.642 277.562 169.999 342.175C154.361 406.765 180.003 478.254 259.948 507.151C299.24 520.972 321.073 536.84 333.704 553.518C346.338 570.2 349.698 587.607 352.222 604.304C352.33 605.021 352.437 605.737 352.543 606.451C352.649 607.162 352.753 607.871 352.858 608.579C355.096 623.754 357.223 638.176 365.575 651.071C374.681 665.131 391.267 677.47 423.834 686.724C476.626 701.72 520.714 691.505 563.71 681.28L565.012 680.97C607.527 670.856 649.084 660.971 696.737 676.109L696.744 676.111L696.751 676.113C771.766 701.556 860.347 704.695 923.435 682.901C954.973 672.006 980.063 654.909 993.954 631.337ZM881.854 642.973C827.422 663.012 751.196 661.762 686.456 639.398C644.225 625.526 606.883 633.331 568.658 641.47L567.932 641.625C529.964 649.71 491.106 657.985 446.022 645.178C416.153 636.688 400.157 625.77 390.98 613.306C382.219 601.407 379.747 588.183 377.223 574.678L377.221 574.668L377.219 574.659C377.105 574.047 376.991 573.435 376.876 572.822C374.211 558.642 371.165 544.135 360.627 530.105C350.09 516.076 331.995 502.443 299.077 490.207L299.069 490.204C230.429 463.819 206.724 400.47 219.711 343.542C232.697 286.617 282.367 236.092 360.375 235.228C396.588 234.798 421.133 231.769 439.662 226.467C458.17 221.171 470.706 213.598 482.896 204.024C488.338 199.749 493.716 195.07 499.524 190.016C519.776 172.394 545.264 150.217 597.01 124.717C663.75 91.8276 748.331 98.8764 811.114 129.215C842.513 144.387 868.52 165.412 884.122 190.252C899.737 215.112 904.919 243.781 894.656 274.134L894.647 274.159L894.638 274.182C884.467 298.621 879.304 316.963 878.081 333C876.859 349.017 879.565 362.783 885.211 378.079C889.634 390.059 895.847 402.947 903.388 418.586C905.494 422.955 907.704 427.538 910.007 432.377C920.547 454.517 933.009 481.93 946.368 518.384L946.369 518.387C957.737 549.801 955.293 575.954 943.098 596.779C930.917 617.579 909.075 632.952 881.854 642.973ZM944.959 518.899C956.203 549.972 953.734 575.648 941.803 596.021C929.857 616.421 908.358 631.618 881.335 641.566C827.281 661.465 751.412 660.251 686.94 637.978L686.929 637.975C644.264 623.958 606.543 631.87 568.346 640.003L567.724 640.135C529.7 648.233 491.157 656.44 446.432 643.735C416.74 635.296 401.095 624.514 392.188 612.417C383.635 600.801 381.22 587.889 378.68 574.31C378.571 573.723 378.461 573.135 378.35 572.545C375.683 558.354 372.592 543.537 361.826 529.204C351.06 514.87 332.683 501.099 299.602 488.802C231.744 462.715 208.333 400.163 221.173 343.876C234.015 287.586 283.119 237.584 360.392 236.727C396.666 236.297 421.362 233.264 440.075 227.909C458.809 222.548 471.517 214.869 483.822 205.204C489.301 200.9 494.696 196.207 500.508 191.151L500.526 191.135L500.534 191.128L500.55 191.114L500.554 191.111C520.798 173.498 546.119 151.468 597.673 126.062C663.917 93.4172 748.005 100.385 810.462 130.565C841.683 145.652 867.438 166.511 882.852 191.05C898.248 215.562 903.336 243.756 893.243 273.63C883.052 298.122 877.826 316.626 876.585 332.886C875.343 349.17 878.103 363.155 883.804 378.598C888.254 390.653 894.51 403.627 902.057 419.28L902.06 419.287L902.063 419.292C904.163 423.648 906.364 428.212 908.653 433.021C919.181 455.136 931.622 482.505 944.959 518.899ZM676.638 601.165C730.866 620.371 794.396 619.684 839.793 601.531C862.496 592.452 880.729 578.977 890.954 561.365C901.195 543.726 903.347 522.031 894.054 496.664L894.053 496.66C882.791 466.399 872.553 443.146 864.013 424.067L863.731 423.437C863.457 422.826 863.186 422.219 862.916 421.617L861.77 419.062C854.27 402.335 848.244 388.897 844.173 376.556C839.712 363.03 837.611 350.852 838.511 337.172C839.412 323.479 843.322 308.237 850.946 288.586L850.957 288.556L850.966 288.525C866.394 235.723 831.328 190.392 778.486 164.901C725.618 139.398 654.638 133.55 597.511 159.82C552.524 180.507 530.917 199.251 513.483 214.375L513.483 214.376L513.482 214.376C508.828 218.414 504.472 222.193 500.047 225.682C489.57 233.945 478.693 240.604 462.511 245.288C446.307 249.978 424.752 252.696 392.913 253.018C322.926 253.667 281.069 296.526 270.885 345.172C260.705 393.794 282.186 448.17 338.697 471.748L338.707 471.752C365.412 482.46 380.065 493.993 388.749 505.69C397.297 517.204 400.116 528.942 402.884 540.465L403.02 541.033C405.828 552.717 408.682 564.191 417.658 574.639C426.635 585.087 441.656 594.426 468.625 602.094C505.121 612.463 537.986 606.503 570.486 600.609C571.411 600.442 572.335 600.274 573.258 600.107C606.696 594.057 639.86 588.566 676.638 601.165ZM889.657 560.612C899.645 543.408 901.806 522.186 892.646 497.182C881.401 466.966 871.179 443.748 862.644 424.679C861.88 422.973 861.13 421.3 860.394 419.658C852.904 402.956 846.845 389.445 842.749 377.026C838.243 363.364 836.098 350.99 837.014 337.074C837.928 323.176 841.891 307.783 849.535 288.074C864.636 236.327 830.385 191.602 777.834 166.252C725.299 140.909 654.792 135.13 598.138 161.182C553.362 181.772 531.928 200.364 514.503 215.478L514.502 215.479C509.829 219.532 505.445 223.335 500.976 226.86C490.385 235.213 479.338 241.979 462.928 246.729C446.539 251.472 424.832 254.195 392.928 254.518C323.651 255.16 282.394 297.517 272.353 345.479C262.307 393.463 283.489 447.085 339.269 470.362C366.138 481.136 381.055 492.81 389.953 504.796C398.685 516.558 401.566 528.554 404.324 540.04L404.479 540.682C407.291 552.384 410.083 563.52 418.796 573.661C427.507 583.801 442.216 593.026 469.035 600.651C505.191 610.924 537.75 605.02 570.313 599.116C571.206 598.954 572.098 598.793 572.991 598.631C606.417 592.583 639.94 587.007 677.128 599.747L677.136 599.75C731.059 618.849 794.212 618.142 839.236 600.138C861.743 591.138 879.654 577.842 889.657 560.612ZM797.724 559.947C761.365 576.217 710.527 578.848 666.802 562.794C635.473 551.468 606.483 554.647 577.834 558.608C576.155 558.84 574.477 559.075 572.799 559.309C545.895 563.075 519.161 566.816 491.212 558.873C467.145 552.029 453.104 544.269 444.334 535.842C435.549 527.401 432.119 518.352 429.156 509.123C428.841 508.144 428.532 507.163 428.222 506.181C425.612 497.899 422.972 489.525 416.854 481.137C410.02 471.769 398.803 462.334 378.31 453.156L378.299 453.151C333.93 432.38 314.672 386.987 322.041 346.67C329.422 306.293 363.477 271.105 425.435 270.672C452.9 270.457 471.464 268.05 485.342 263.973C499.2 259.901 508.417 254.155 517.182 247.204C520.612 244.484 523.975 241.576 527.519 238.512L527.524 238.507C542.146 225.865 559.845 210.562 598.005 194.783C645.513 175.138 702.888 179.781 745.841 200.451C788.783 221.115 817.558 257.953 807.262 302.767L807.253 302.804L807.241 302.841C797.098 332.528 796.579 351.435 803.121 374.906C806.402 386.677 811.461 399.602 818.005 415.627C819.226 418.618 820.499 421.716 821.821 424.934L821.897 425.12L821.9 425.128L821.903 425.133C827.64 439.101 834.304 455.321 841.721 474.798L841.722 474.802C848.942 494.129 847.077 511.365 838.795 525.813C830.528 540.235 815.907 551.81 797.724 559.947ZM840.318 475.329C847.389 494.261 845.541 511.028 837.494 525.067C829.431 539.132 815.104 550.526 797.111 558.578C761.117 574.685 710.684 577.308 667.317 561.385L667.314 561.384C635.605 549.921 606.285 553.16 577.629 557.122C575.989 557.349 574.351 557.578 572.715 557.807L572.687 557.81L572.659 557.814C545.694 561.586 519.256 565.284 491.622 557.43C467.674 550.62 453.896 542.95 445.373 534.761C436.866 526.586 433.529 517.834 430.584 508.665C430.271 507.691 429.963 506.712 429.653 505.729C427.048 497.458 424.337 488.851 418.065 480.253C411.038 470.618 399.584 461.041 378.929 451.79C335.214 431.322 316.264 386.622 323.517 346.94C330.759 307.317 364.16 272.6 425.447 272.172C452.981 271.957 471.699 269.544 485.765 265.412C499.851 261.273 509.238 255.419 518.114 248.38C521.583 245.629 524.971 242.7 528.532 239.621C543.14 226.992 560.658 211.849 598.578 196.169C645.648 176.705 702.577 181.297 745.191 201.802C787.804 222.308 815.856 258.57 805.809 302.393C795.596 332.299 795.044 351.513 801.676 375.308C804.983 387.175 810.075 400.175 816.616 416.194C817.84 419.192 819.116 422.298 820.44 425.522L820.453 425.552L820.512 425.696L820.514 425.702C826.253 439.67 832.908 455.87 840.318 475.329ZM656.969 524.221C690.207 537.131 728.363 532.543 755.678 518.154C769.339 510.957 780.34 501.283 786.645 490.058C792.962 478.813 794.55 466.033 789.397 452.737L789.395 452.732C775.259 416.982 766.271 393.082 762.078 373.069C757.894 353.101 758.485 337.003 763.551 316.865L763.561 316.826L763.567 316.786C768.719 279.982 746.251 251.639 713.204 235.8C680.164 219.965 636.4 216.529 598.523 229.541C567.295 240.27 553.535 252.126 541.718 262.309L541.716 262.311C539.214 264.467 536.799 266.548 534.324 268.527C527.27 274.167 519.712 278.999 508.18 282.457C496.628 285.922 481.055 288.019 457.967 288.126C431.034 288.234 410.982 295.146 397.081 306.086C383.176 317.028 375.485 331.957 373.205 347.979C368.65 379.989 385.685 416.384 417.891 434.342L417.902 434.348C432.185 441.995 439.974 449.331 444.963 456.38C448.684 461.635 450.853 466.723 453.006 471.772L453.007 471.773C453.757 473.533 454.506 475.289 455.317 477.045C458.45 483.824 462.461 490.435 471.039 496.854C479.591 503.253 492.643 509.431 513.806 515.452C533.29 520.992 553.653 519.294 574.721 517.536C577.272 517.324 579.833 517.11 582.405 516.908C606.264 515.036 631.083 514.167 656.969 524.221ZM785.337 489.324C791.451 478.439 792.977 466.128 787.999 453.281C773.875 417.561 764.834 393.538 760.61 373.377C756.379 353.182 756.978 336.861 762.087 316.539C767.096 280.618 745.227 252.812 712.556 237.153C679.865 221.485 636.508 218.077 599.01 230.96C568.068 241.59 554.509 253.271 542.712 263.434C540.198 265.599 537.765 267.696 535.26 269.699C528.1 275.424 520.373 280.366 508.611 283.894C496.869 287.416 481.138 289.518 457.973 289.626C431.292 289.733 411.588 296.577 398.009 307.264C384.433 317.948 376.92 332.516 374.69 348.19C370.224 379.571 386.944 415.365 418.616 433.029C433.056 440.761 441.038 448.239 446.188 455.513C450.009 460.911 452.266 466.205 454.435 471.293L454.441 471.308C455.178 473.035 455.904 474.74 456.679 476.416C459.743 483.048 463.618 489.428 471.937 495.653C480.282 501.897 493.138 508.012 514.216 514.009C533.42 519.47 553.495 517.798 574.605 516.04C577.151 515.828 579.711 515.615 582.287 515.413C606.175 513.538 631.289 512.638 657.512 522.823C690.304 535.56 728.007 531.035 754.979 516.827C768.461 509.725 779.211 500.23 785.337 489.324Z" fill="url(#paint0_linear_1844_128836)"/>
</g>
<defs>
<linearGradient id="paint0_linear_1844_128836" x1="46.0004" y1="183.5" x2="549.501" y2="106.999" gradientUnits="userSpaceOnUse">
<stop stop-color="#4C4E57"/>
<stop offset="1" stop-color="#4C4E57" stop-opacity="0"/>
</linearGradient>
<clipPath id="clip0_1844_128836">
<rect width="600" height="302" fill="white"/>
</clipPath>
</defs>
</svg>
