<svg width="600" height="554" viewBox="0 0 600 554" fill="none" xmlns="http://www.w3.org/2000/svg">
<g clip-path="url(#clip0_3907_54566)">
<rect width="600" height="554" fill="#2D2E33"/>
<path fill-rule="evenodd" clip-rule="evenodd" d="M497.654 1436.43C374.357 1475.29 242.671 1511.83 70.5533 1463.3C-15.5328 1439.03 -54.4045 1401.68 -72.4136 1356.78C-81.4088 1334.35 -85.1857 1310.07 -87.0731 1284.66C-88.1607 1270.02 -88.6223 1254.96 -89.0912 1239.67L-89.0912 1239.66C-89.4349 1228.45 -89.7827 1217.1 -90.3841 1205.69C-93.2313 1151.69 -101.77 1095.91 -142.401 1043.84C-183.038 991.761 -255.834 943.322 -387.348 904.148C-519.03 864.924 -601.77 791.613 -644.572 703.548C-687.369 615.493 -690.212 512.743 -662.214 414.677C-606.225 218.566 -426.844 41.0127 -196.597 36.9679C-81.6214 34.9481 -3.32521 26.061 56.6366 9.66418C116.583 -6.72851 158.223 -30.6321 199.879 -62.7194C222.046 -79.7943 244.224 -99.1937 269.168 -121.013C337.992 -181.215 427.877 -259.839 596.703 -358.895C826.869 -493.943 1135.77 -467.643 1363 -358.106C1476.63 -303.335 1569.89 -227.729 1622.69 -141.012C1675.5 -54.276 1687.83 43.5743 1639.58 142.73C1591.41 241.701 1567.36 310.218 1561.35 365.832C1555.34 421.414 1567.35 464.141 1591.4 511.551C1604.58 537.526 1621.38 564.912 1640.81 596.584L1640.82 596.586L1640.82 596.588L1640.82 596.589L1640.82 596.59L1640.82 596.592L1640.82 596.593C1692.33 680.56 1762.33 794.646 1832.29 992.385C1876.82 1118.25 1869.01 1215.95 1824.69 1289.29C1780.38 1362.62 1699.64 1411.49 1598.53 1439.86C1396.33 1496.59 1112.43 1471.4 874.448 1395.43C743.237 1358.51 633.347 1393.38 517.423 1430.17C510.854 1432.25 504.266 1434.34 497.654 1436.43ZM517.175 1429.2C633.056 1392.42 743.216 1357.46 874.727 1394.47L874.736 1394.47L874.744 1394.47C1112.61 1470.41 1396.31 1495.56 1598.26 1438.89C1699.23 1410.56 1779.7 1361.8 1823.83 1288.77C1867.95 1215.76 1875.81 1118.4 1831.35 992.719C1761.42 795.089 1691.53 681.166 1640.02 597.208L1640.02 597.206C1620.56 565.496 1603.73 538.061 1590.51 512.004C1566.39 464.472 1554.32 421.549 1560.35 365.724C1566.38 309.932 1590.5 241.287 1638.68 142.292C1686.77 43.4819 1674.49 -54.0076 1621.83 -140.492C1569.16 -226.995 1476.08 -302.489 1362.57 -357.205C1135.54 -466.643 827.007 -492.865 597.209 -358.033C428.474 -259.029 338.698 -180.501 269.882 -120.306L269.878 -120.303L269.874 -120.299L269.871 -120.297C244.909 -98.4621 222.705 -79.0395 200.489 -61.9271C158.751 -29.7765 116.996 -5.80456 56.9004 10.6288C-3.17934 27.0579 -81.5717 35.9474 -196.579 37.9678C-426.297 42.0031 -605.358 219.172 -661.252 414.952C-689.197 512.831 -686.342 615.32 -643.673 703.111C-601.009 790.891 -518.513 864.035 -387.062 903.189C-255.444 942.394 -182.427 990.918 -141.613 1043.22C-100.791 1095.54 -92.2363 1151.57 -89.3855 1205.64C-88.7812 1217.1 -88.4335 1228.46 -88.0901 1239.68C-87.6227 1254.94 -87.1633 1269.95 -86.0758 1284.59C-84.1916 1309.95 -80.4254 1334.11 -71.4855 1356.41C-53.6244 1400.94 -15.0581 1438.13 70.8246 1462.34C242.645 1510.78 374.092 1474.32 497.353 1435.47C503.978 1433.38 510.579 1431.29 517.162 1429.2L517.175 1429.2ZM97.1776 1415.28C260.493 1461.34 385.445 1426.65 502.432 1389.77C508.701 1387.79 514.948 1385.81 521.177 1383.83L521.187 1383.83C631.179 1348.91 735.438 1315.81 859.925 1350.85C1085.73 1422.96 1355.11 1446.88 1546.96 1393.03C1642.89 1366.1 1719.51 1319.71 1761.56 1250.1C1803.61 1180.48 1811.03 1087.74 1768.77 968.266C1702.39 780.575 1635.98 672.285 1587.1 592.586C1568.66 562.521 1552.72 536.525 1540.21 511.871C1517.39 466.873 1506 426.322 1511.7 373.572C1517.4 320.79 1540.22 255.759 1585.92 161.819C1631.71 67.6951 1620.01 -25.1907 1569.9 -107.524C1519.79 -189.838 1431.3 -261.604 1323.49 -313.593C1107.88 -417.564 814.785 -442.53 596.39 -314.341C436.204 -220.318 350.916 -145.688 285.615 -88.5469L285.614 -88.5454C261.947 -67.8358 240.905 -49.4237 219.875 -33.2181C180.353 -2.76342 140.848 19.9233 83.9735 35.4817C27.0838 51.0443 -47.2024 59.4795 -156.292 61.3966C-374.767 65.2361 -544.975 233.774 -598.101 419.925C-624.667 513.011 -621.97 610.544 -581.36 694.13C-540.745 777.726 -462.235 847.315 -337.286 884.547C-212.506 921.728 -143.443 967.703 -104.89 1017.13C-66.3432 1066.55 -58.2423 1119.49 -55.5409 1170.74C-54.9702 1181.57 -54.6402 1192.34 -54.3141 1202.98C-53.8692 1217.5 -53.4314 1231.8 -52.3993 1245.7C-50.6084 1269.81 -47.0245 1292.86 -38.4884 1314.15C-21.3973 1356.78 15.4926 1392.24 97.1776 1415.28ZM860.204 1349.89C735.417 1314.77 630.888 1347.95 520.94 1382.86C514.689 1384.84 508.421 1386.83 502.131 1388.81C385.179 1425.69 260.467 1460.29 97.449 1414.32C15.9674 1391.34 -20.6171 1356.04 -37.5602 1313.78C-46.0411 1292.63 -49.6144 1269.7 -51.402 1245.62C-52.4338 1231.73 -52.8696 1217.49 -53.3131 1203C-53.6388 1192.35 -53.9687 1181.57 -54.5422 1170.69C-57.2472 1119.37 -65.3648 1066.18 -104.101 1016.51C-142.832 966.86 -212.116 920.801 -337.001 883.588C-461.717 846.426 -539.984 777.005 -580.461 693.693C-620.942 610.371 -623.652 513.099 -597.139 420.2C-544.108 234.38 -374.221 66.2265 -156.274 62.3965C-47.1526 60.4789 27.2297 52.0411 84.2373 36.4463C141.26 20.8472 180.881 -1.90795 220.485 -32.426C241.568 -48.6721 262.64 -67.111 286.329 -87.84C351.624 -144.975 436.801 -219.509 596.896 -313.478C814.923 -441.451 1107.65 -416.565 1323.06 -312.692C1430.75 -260.759 1519.07 -189.105 1569.04 -107.004C1619 -24.9223 1630.65 67.6026 1585.02 161.382C1539.31 255.345 1516.43 320.504 1510.7 373.465C1504.98 426.458 1516.44 467.204 1539.32 512.323C1551.87 537.058 1567.84 563.101 1586.3 593.201C1635.17 672.891 1701.48 781.019 1767.83 968.6C1810.02 1087.89 1802.56 1180.29 1760.7 1249.58C1718.83 1318.89 1642.49 1365.17 1546.69 1392.06C1355.09 1445.85 1085.91 1421.97 860.221 1349.9L860.212 1349.9L860.204 1349.89ZM507.024 1344.9C396.114 1379.89 277.646 1412.79 122.807 1369.1C45.3604 1347.25 10.379 1313.61 -5.82799 1273.17C-13.9221 1252.97 -17.32 1231.11 -19.018 1208.23C-19.995 1195.07 -20.4089 1181.54 -20.8294 1167.79L-20.8298 1167.78L-20.8302 1167.78L-20.8305 1167.77L-20.8309 1167.76L-20.8313 1167.75L-20.8316 1167.75L-20.832 1167.74L-20.8324 1167.73L-20.8327 1167.73L-20.8331 1167.72L-20.8335 1167.71L-20.8335 1167.71L-20.8335 1167.71L-20.8335 1167.71L-20.8335 1167.7L-20.8335 1167.7L-20.8335 1167.7L-20.8335 1167.7L-20.8335 1167.69L-20.8335 1167.69L-20.8335 1167.69L-20.8335 1167.69L-20.8335 1167.68L-20.8335 1167.68L-20.8335 1167.68C-21.1427 1157.59 -21.4554 1147.39 -21.9964 1137.13C-24.5573 1088.52 -32.2371 1038.31 -68.7765 991.446C-105.322 944.57 -170.792 900.965 -289.087 865.699C-407.551 830.383 -481.989 764.373 -520.498 685.074C-559.002 605.786 -561.558 513.268 -536.37 424.971C-486.002 248.397 -324.628 88.5271 -117.488 84.8851C-14.0664 83.0668 56.3581 75.0659 110.289 60.3055C164.205 45.5494 201.655 24.0327 239.122 -4.85216C259.059 -20.2226 279.007 -37.6865 301.445 -57.3297C363.354 -111.529 444.213 -182.318 596.08 -271.501C803.14 -393.094 1081.02 -369.413 1285.44 -270.792C1387.65 -221.479 1471.55 -153.406 1519.05 -75.3247C1566.56 2.77549 1577.66 90.8873 1534.24 180.173C1490.92 269.276 1469.28 330.954 1463.88 381.014C1458.47 431.042 1469.27 469.5 1490.91 512.177C1502.76 535.56 1517.88 560.216 1535.36 588.732C1581.7 664.327 1644.66 767.045 1707.6 945.074C1747.66 1058.4 1740.63 1146.37 1700.75 1212.42C1660.89 1278.45 1588.24 1322.45 1497.29 1347.99C1315.4 1399.08 1060.01 1376.39 845.931 1307.99C727.918 1274.76 629.083 1306.15 524.804 1339.27L524.79 1339.28C518.887 1341.15 512.967 1343.03 507.024 1344.9ZM524.556 1338.3C628.792 1305.19 727.897 1273.71 846.21 1307.03L846.219 1307.04L846.227 1307.04C1060.19 1375.4 1315.38 1398.04 1497.02 1347.03C1587.84 1321.53 1660.21 1277.63 1699.9 1211.9C1739.58 1146.19 1746.65 1058.55 1706.65 945.408C1643.76 767.489 1580.89 664.933 1534.56 589.346L1534.55 589.343L1534.55 589.34C1517.05 560.792 1501.91 536.091 1490.02 512.629C1468.32 469.83 1457.45 431.177 1462.88 380.907C1468.31 330.668 1490.01 268.861 1533.35 179.736C1576.59 90.7949 1565.56 3.04368 1518.2 -74.805C1470.82 -152.673 1387.1 -220.634 1285 -269.892C1080.79 -368.413 803.278 -392.016 596.587 -270.639C444.81 -181.509 364.061 -110.816 302.159 -56.6228L302.155 -56.6199L302.15 -56.6155L302.147 -56.6129L302.138 -56.6048C279.687 -36.9501 259.715 -19.4658 239.733 -4.06017C202.184 24.8881 164.618 46.4733 110.553 61.2701C56.5041 76.0627 -14.0166 84.066 -117.47 85.885C-324.081 89.5177 -485.135 249.002 -535.409 425.245C-560.543 513.356 -557.974 605.613 -519.598 684.637C-481.228 763.651 -407.033 829.493 -288.802 864.741C-170.402 900.038 -104.711 943.728 -67.9878 990.831C-31.2586 1037.94 -23.5623 1088.4 -20.9978 1137.08C-20.4541 1147.4 -20.1412 1157.63 -19.8324 1167.73L-19.832 1167.73L-19.8316 1167.74L-19.8313 1167.75L-19.8309 1167.76C-19.411 1181.49 -18.9984 1194.98 -18.0207 1208.15C-16.326 1230.99 -12.9387 1252.74 -4.89976 1272.8C11.1594 1312.87 45.8355 1346.34 123.079 1368.14C277.621 1411.75 395.848 1378.93 506.723 1343.95C512.687 1342.07 518.63 1340.18 524.556 1338.3ZM144.505 1330.32C292.172 1372.01 405.153 1340.61 510.922 1307.22C516.593 1305.43 522.243 1303.63 527.876 1301.84C627.321 1270.23 721.567 1240.28 834.101 1271.99C1038.25 1337.27 1281.81 1358.92 1455.28 1310.17C1542.01 1285.79 1611.29 1243.79 1649.32 1180.77C1687.35 1117.73 1694.05 1033.76 1655.84 925.595C1595.83 755.682 1535.78 657.644 1491.59 585.496C1474.92 558.282 1460.51 534.751 1449.2 512.436C1428.57 471.708 1418.28 435.008 1423.43 387.267C1428.58 339.494 1449.21 280.631 1490.53 195.593C1531.94 110.371 1521.35 26.2688 1476.04 -48.2755C1430.73 -122.801 1350.72 -187.773 1253.25 -234.838C1058.3 -328.963 793.298 -351.567 595.83 -235.513C451.002 -150.397 373.889 -82.8331 314.85 -31.1058L314.85 -31.1051C293.453 -12.3583 274.431 4.30861 255.419 18.9772C219.692 46.5432 183.98 67.0772 132.568 81.1594C81.14 95.246 13.9829 102.882 -84.6428 104.617C-282.191 108.093 -436.091 260.682 -484.126 429.211C-508.147 513.486 -505.709 601.79 -468.988 677.469C-432.262 753.158 -361.269 816.161 -248.292 849.868C-135.484 883.526 -73.0548 925.14 -38.2077 969.873C-3.36691 1014.6 3.95645 1062.51 6.39859 1108.9C6.91433 1118.7 7.21267 1128.45 7.5076 1138.09C7.90982 1151.23 8.30581 1164.17 9.23892 1176.76C10.8583 1198.59 14.0989 1219.46 21.819 1238.74C37.2778 1277.35 70.6443 1309.46 144.505 1330.32ZM834.381 1271.03C721.547 1239.23 627.03 1269.28 527.628 1300.87C521.976 1302.67 516.308 1304.47 510.62 1306.27C404.887 1339.65 292.147 1370.97 144.777 1329.35C71.1199 1308.55 38.0586 1276.61 22.7473 1238.37C15.0823 1219.23 11.8523 1198.47 10.2362 1176.68C9.30337 1164.11 8.90945 1151.22 8.50857 1138.1L8.50857 1138.1C8.21414 1128.46 7.9158 1118.7 7.39725 1108.85C4.95145 1062.39 -2.38839 1014.23 -37.4189 969.258C-72.4433 924.298 -135.094 882.599 -248.006 848.91C-360.751 815.272 -431.5 752.436 -468.088 677.032C-504.681 601.617 -507.132 513.573 -483.164 429.485C-435.223 261.286 -281.644 109.084 -84.6253 105.617C14.0327 103.881 81.2861 96.2428 132.832 82.1239C184.394 68.0009 220.22 47.3984 256.03 19.7689C275.093 5.06031 294.146 -11.6327 315.564 -30.3983C374.596 -82.1201 451.599 -149.587 596.337 -234.651C793.436 -350.488 1058.07 -327.964 1252.81 -233.938C1350.17 -186.927 1430.01 -122.068 1475.18 -47.756C1520.35 26.5368 1530.87 110.278 1489.63 195.156C1448.3 280.217 1427.61 339.208 1422.43 387.16C1417.25 435.143 1427.62 472.038 1448.31 512.888C1459.66 535.283 1474.1 558.86 1490.79 586.11C1534.97 658.249 1594.92 756.125 1654.9 925.928C1693.04 1033.9 1686.3 1117.54 1648.46 1180.25C1610.62 1242.97 1541.61 1284.87 1455 1309.21C1281.79 1357.89 1038.44 1336.28 834.397 1271.04L834.389 1271.04L834.381 1271.03ZM515.696 1260.56C416.237 1291.98 309.99 1321.52 171.126 1282.29C101.666 1262.66 70.281 1232.45 55.7401 1196.12C48.4792 1177.97 45.4315 1158.33 43.9087 1137.79C43.0313 1125.95 42.6588 1113.77 42.2805 1101.41C42.0033 1092.34 41.7228 1083.17 41.2378 1073.95C38.9416 1030.3 32.0557 985.23 -0.700765 943.159C-33.4632 901.079 -92.161 861.929 -198.235 830.264C-304.477 798.548 -371.241 739.267 -405.78 668.047C-440.314 596.838 -442.606 513.75 -420.017 434.455C-374.845 275.886 -230.119 132.313 -44.3421 129.042C48.3978 127.409 111.545 120.225 159.901 106.973C208.241 93.7252 241.818 74.4081 275.411 48.4746C293.286 34.6757 311.172 18.9964 331.29 1.36012L331.293 1.35756C386.809 -47.31 459.324 -110.88 595.513 -190.963C781.209 -300.158 1030.41 -278.888 1213.73 -190.329C1305.39 -146.046 1380.64 -84.9142 1423.24 -14.7914C1465.86 55.3503 1475.81 134.487 1436.87 214.678C1398.02 294.685 1378.62 350.062 1373.77 395.004C1368.93 439.914 1378.61 474.436 1398.01 512.752C1408.64 533.744 1422.19 555.881 1437.86 581.484L1437.86 581.485C1479.42 649.365 1535.88 741.608 1592.32 901.472C1628.25 1003.24 1621.95 1082.25 1586.18 1141.57C1550.42 1200.88 1485.27 1240.4 1403.7 1263.34C1240.58 1309.21 1011.55 1288.83 819.574 1227.42C713.764 1197.58 625.149 1225.76 531.637 1255.5C526.34 1257.19 521.028 1258.88 515.696 1260.56ZM531.389 1254.53C624.857 1224.8 713.743 1196.53 819.853 1226.46L819.862 1226.46L819.87 1226.46C1011.73 1287.85 1240.55 1308.17 1403.43 1262.37C1484.86 1239.47 1549.75 1200.06 1585.33 1141.06C1620.9 1082.07 1627.24 1003.39 1591.38 901.805C1534.98 742.051 1478.61 649.97 1437.06 582.099C1421.37 556.46 1407.79 534.276 1397.12 513.203C1377.66 474.766 1367.91 440.049 1372.78 394.897C1377.65 349.777 1397.11 294.271 1435.97 214.241C1474.74 134.395 1464.85 55.6183 1422.39 -14.2722C1379.91 -84.1817 1304.85 -145.201 1213.3 -189.428C1030.18 -277.889 781.348 -299.079 596.02 -190.101C459.922 -110.071 387.517 -46.598 332.007 2.06374C311.866 19.72 293.95 35.4263 276.022 49.2661C242.347 75.2631 208.654 94.6488 160.165 107.938C111.691 121.222 48.4477 128.409 -44.3244 130.042C-229.571 133.303 -373.977 276.49 -419.055 434.729C-441.591 513.837 -439.286 596.665 -404.88 667.611C-370.479 738.546 -303.959 797.659 -197.949 829.306C-91.7701 861.002 -32.8515 900.237 0.0882973 942.544C33.0342 984.859 39.9366 1030.18 42.2365 1073.9C42.7243 1083.17 43.0048 1092.35 43.2816 1101.42L43.282 1101.42L43.2824 1101.43L43.2827 1101.44L43.2831 1101.44L43.2835 1101.45L43.2838 1101.46L43.2842 1101.47L43.2846 1101.47C43.6606 1113.79 44.0299 1125.9 44.906 1137.71C46.4256 1158.22 49.4625 1177.74 56.6686 1195.74C71.0619 1231.71 102.141 1261.76 171.398 1281.33C309.965 1320.48 415.971 1291.01 515.394 1259.61C520.729 1257.92 526.044 1256.23 531.345 1254.55L531.389 1254.53ZM192.8 1243.5C324.493 1280.74 425.253 1252.69 519.57 1222.87C524.616 1221.28 529.645 1219.68 534.658 1218.08L534.685 1218.07C623.364 1189.84 707.39 1163.09 807.721 1191.41C989.771 1249.71 1206.96 1269.05 1361.66 1225.51C1439.01 1203.73 1500.81 1166.22 1534.72 1109.92C1568.65 1053.6 1574.62 978.594 1540.55 881.987C1487.03 730.239 1433.47 642.677 1394.07 578.244L1394.07 578.243C1379.21 553.941 1366.36 532.929 1356.28 513.005C1337.89 476.639 1328.71 443.874 1333.3 401.252C1337.9 358.597 1356.29 306.035 1393.13 230.092C1430.06 153.965 1420.62 78.8382 1380.21 12.2523C1339.8 -54.3147 1268.44 -112.345 1181.52 -154.38C1007.67 -238.445 771.344 -258.636 595.239 -154.981C466.089 -78.9636 397.321 -18.6197 344.675 27.5764C325.596 44.3175 308.635 59.2006 291.685 72.2984C259.831 96.9131 227.993 115.247 182.156 127.822C136.303 140.4 76.4238 147.219 -11.5202 148.769C-187.706 151.874 -324.957 288.165 -367.795 438.689C-389.218 513.962 -387.045 592.837 -354.294 660.436C-321.537 728.046 -258.218 784.321 -157.463 814.428C-56.8765 844.484 -1.21932 881.644 29.8446 921.581C60.9026 961.51 67.432 1004.28 69.6095 1045.71C70.0669 1054.42 70.3316 1063.07 70.5932 1071.64L70.5932 1071.64L70.595 1071.7L70.595 1071.7L70.5954 1071.71L70.5957 1071.71L70.5961 1071.72L70.5965 1071.73L70.5968 1071.74L70.5972 1071.75L70.5976 1071.76L70.5979 1071.76L70.5983 1071.77L70.5983 1071.78L70.5983 1071.78L70.5983 1071.78L70.5983 1071.78L70.5983 1071.78L70.5983 1071.79L70.5983 1071.79L70.5983 1071.79L70.5983 1071.79L70.5983 1071.79L70.5983 1071.79L70.5983 1071.79L70.5983 1071.8L70.5983 1071.8L70.5983 1071.8L70.5983 1071.8L70.5983 1071.8C70.9571 1083.53 71.3102 1095.08 72.1424 1106.31C73.5865 1125.81 76.4767 1144.46 83.3638 1161.69C97.1565 1196.18 126.926 1224.87 192.8 1243.5ZM808.001 1190.45C707.369 1162.04 623.072 1188.88 534.437 1217.1C529.396 1218.7 524.341 1220.31 519.268 1221.92C424.986 1251.73 324.468 1279.69 193.072 1242.53C127.403 1223.96 97.9378 1195.45 84.2923 1161.31C77.4602 1144.23 74.5806 1125.7 73.1397 1106.24C72.3079 1095.01 71.9567 1083.5 71.5993 1071.79L71.5993 1071.79C71.3367 1063.18 71.0707 1054.46 70.6081 1045.66C68.427 1004.16 61.8811 961.139 30.634 920.967C-0.607377 880.802 -56.4853 843.557 -157.177 813.47C-257.7 783.433 -320.774 727.326 -353.393 660C-386.017 592.664 -388.203 514.05 -366.834 438.963C-324.089 288.769 -187.157 152.864 -11.5026 149.769C76.4737 148.218 136.45 141.397 182.421 128.786C228.407 116.171 260.36 97.768 292.296 73.0896C309.298 59.9519 326.289 45.0429 345.388 28.2831L345.389 28.2824C398.029 -17.9079 466.687 -78.155 595.746 -154.119C771.482 -257.557 1007.44 -237.445 1181.08 -153.48C1267.89 -111.5 1339.08 -53.5826 1379.35 12.7711C1419.62 79.1058 1429 153.873 1392.23 229.655C1355.38 305.622 1336.92 358.311 1332.31 401.144C1327.69 444.009 1336.93 476.969 1355.39 513.457C1365.5 533.46 1378.38 554.518 1393.27 578.854L1393.27 578.856L1393.27 578.857C1432.67 643.281 1486.12 730.682 1539.6 882.32C1573.61 978.738 1567.59 1053.41 1533.87 1109.4C1500.13 1165.4 1438.61 1202.81 1361.39 1224.54C1206.94 1268.02 989.956 1248.72 808.017 1190.46L808.009 1190.45L808.001 1190.45ZM523.995 1179.8C435.521 1207.8 340.996 1234.14 217.454 1199.17C155.654 1181.67 127.72 1154.74 114.777 1122.34C108.315 1106.16 105.604 1088.65 104.249 1070.34C103.469 1059.8 103.137 1048.96 102.8 1037.94L102.8 1037.94L102.8 1037.94L102.8 1037.94L102.8 1037.94L102.8 1037.94L102.8 1037.94L102.8 1037.93L102.8 1037.93L102.8 1037.93L102.8 1037.93L102.8 1037.93L102.8 1037.93L102.8 1037.92L102.8 1037.92L102.8 1037.92L102.8 1037.92L102.8 1037.92L102.8 1037.91C102.554 1029.83 102.304 1021.66 101.873 1013.45C99.8306 974.554 93.7062 934.403 64.5783 896.923C35.4445 859.436 -16.7575 824.551 -111.109 796.333C-205.629 768.066 -265.031 715.226 -295.763 651.742C-326.489 588.268 -328.527 514.208 -308.43 443.532C-268.243 302.203 -139.486 174.233 25.8004 171.317C108.295 169.862 164.461 163.46 207.469 151.652C250.462 139.848 280.323 122.637 310.201 99.5292C326.099 87.2337 342.008 73.2615 359.904 57.5447L359.905 57.5436C409.29 14.1721 473.801 -42.4846 594.951 -113.855C760.156 -211.178 981.855 -192.22 1144.93 -113.292C1226.48 -73.8251 1293.42 -19.34 1331.33 43.163C1369.24 105.685 1378.1 176.229 1343.45 247.712C1308.89 319.01 1291.64 368.354 1287.33 408.395C1283.02 448.405 1291.63 479.16 1308.88 513.299C1318.33 532.003 1330.39 551.728 1344.33 574.543C1381.29 635.037 1431.53 717.25 1481.73 859.723C1513.7 950.428 1508.1 1020.86 1476.27 1073.74C1444.45 1126.61 1386.48 1161.83 1313.91 1182.28C1168.79 1223.16 965.049 1205 794.275 1150.27C700.169 1123.68 621.358 1148.79 538.173 1175.29C533.462 1176.8 528.737 1178.3 523.995 1179.8ZM537.924 1174.32C621.066 1147.83 700.148 1122.63 794.555 1149.31L794.563 1149.31L794.571 1149.31C965.234 1204.01 1168.77 1222.13 1313.64 1181.31C1386.07 1160.91 1443.77 1125.79 1475.41 1073.22C1507.04 1020.67 1512.69 950.572 1480.79 860.055C1430.62 717.692 1380.49 635.641 1343.53 575.156L1343.52 575.152L1343.52 575.151L1343.52 575.147C1329.56 552.301 1317.48 532.531 1307.99 513.75C1290.68 479.489 1282 448.539 1286.34 408.288C1290.67 368.069 1307.98 318.597 1342.55 247.275C1377.03 176.137 1368.24 105.953 1330.47 43.6816C1292.7 -18.6082 1225.93 -72.9805 1144.5 -112.392C981.625 -191.22 760.295 -210.099 595.459 -112.993C474.399 -41.6761 409.998 14.8838 360.62 58.2495L360.619 58.2503C342.702 73.986 326.763 87.9844 310.813 100.32C280.853 123.491 250.875 140.771 207.734 152.616C164.608 164.457 108.345 170.861 25.8181 172.317C-138.937 175.223 -267.375 302.805 -307.468 443.806C-327.512 514.296 -325.461 588.095 -294.863 651.306C-264.269 714.506 -205.109 767.177 -110.822 795.375C-16.3659 823.624 36.0568 858.594 65.3678 896.31C94.6849 934.033 100.826 974.434 102.872 1013.4C103.306 1021.66 103.555 1029.84 103.802 1037.92L103.802 1037.93C104.137 1048.92 104.466 1059.72 105.246 1070.27C106.598 1088.54 109.299 1105.93 115.706 1121.97C128.501 1154 156.131 1180.77 217.726 1198.2C340.971 1233.09 435.254 1206.83 523.694 1178.85C528.453 1177.34 533.195 1175.83 537.924 1174.32ZM241.123 1156.68C356.842 1189.47 445.38 1164.78 528.246 1138.53C532.684 1137.12 537.105 1135.71 541.513 1134.31L541.523 1134.3C619.435 1109.45 693.24 1085.91 781.368 1110.83C941.317 1162.15 1132.15 1179.18 1268.07 1140.85C1336.04 1121.68 1390.35 1088.65 1420.15 1039.07C1449.97 989.479 1455.21 923.436 1425.28 838.386C1378.25 704.802 1331.2 627.715 1296.58 570.997C1283.52 549.607 1272.24 531.114 1263.38 513.581C1247.23 481.576 1239.17 452.747 1243.2 415.242C1247.24 377.705 1263.39 331.445 1295.76 264.597C1328.22 197.566 1319.92 131.414 1284.4 72.7863C1248.9 14.1777 1186.19 -36.9102 1109.82 -73.9155C957.071 -147.92 749.418 -165.698 594.677 -74.4421C481.206 -7.52475 420.781 45.5989 374.528 86.2636L374.527 86.2643L374.526 86.2654L374.514 86.276L374.509 86.2808C357.756 101.009 342.862 114.103 327.979 125.626C299.998 147.289 272.034 163.424 231.772 174.49C191.495 185.56 138.893 191.562 61.6307 192.927C-93.1923 195.66 -213.795 315.656 -251.437 448.174C-270.261 514.444 -268.353 583.889 -239.571 643.41C-210.784 702.941 -155.14 752.488 -66.6059 778.993C21.7592 805.448 70.6441 838.153 97.9251 873.294C125.2 908.427 130.936 946.064 132.849 982.53C133.252 990.214 133.485 997.863 133.715 1005.43L133.715 1005.43L133.716 1005.44L133.716 1005.45L133.716 1005.45L133.717 1005.46L133.717 1005.46L133.717 1005.47L133.717 1005.47L133.717 1005.47L133.717 1005.47L133.717 1005.47L133.717 1005.47L133.717 1005.47L133.717 1005.48L133.717 1005.48L133.717 1005.48L133.717 1005.48L133.717 1005.48L133.717 1005.48L133.717 1005.49L133.717 1005.49L133.717 1005.49L133.717 1005.49L133.717 1005.49L133.717 1005.5C134.033 1015.82 134.343 1025.99 135.074 1035.87C136.343 1053.04 138.883 1069.46 144.937 1084.63C157.063 1115.02 183.236 1140.28 241.123 1156.68ZM781.649 1109.87C693.219 1084.86 619.142 1108.49 541.274 1133.33L541.269 1133.33L541.263 1133.34L541.258 1133.34L541.252 1133.34L541.247 1133.34L541.241 1133.34L541.236 1133.34L541.23 1133.35L541.225 1133.35L541.22 1133.35C536.808 1134.76 532.384 1136.17 527.944 1137.57C445.113 1163.81 356.817 1188.43 241.396 1155.72C183.714 1139.38 157.845 1114.28 145.866 1084.26C139.866 1069.23 137.337 1052.92 136.071 1035.8C135.34 1025.91 135.032 1015.79 134.718 1005.48C134.488 997.904 134.254 990.229 133.847 982.478C131.931 945.944 126.179 908.057 98.715 872.681C71.2569 837.312 22.1513 804.522 -66.319 778.035C-154.62 751.599 -210.021 702.221 -238.67 642.975C-267.325 583.717 -269.246 514.532 -250.475 448.447C-212.926 316.257 -92.6426 196.651 61.6483 193.926C138.943 192.562 191.642 186.557 232.037 175.454C272.448 164.347 300.528 148.144 328.591 126.417C343.532 114.849 358.461 101.724 375.243 86.9695C421.489 46.3106 481.804 -6.71628 595.185 -73.5807C749.557 -164.619 956.841 -146.92 1109.38 -73.0154C1185.64 -36.066 1248.17 14.9091 1283.55 73.3045C1318.91 131.681 1327.15 197.474 1294.86 264.162C1262.48 331.032 1246.26 377.42 1242.21 415.135C1238.15 452.881 1246.27 481.905 1262.49 514.031C1271.38 531.644 1282.7 550.183 1295.78 571.607L1295.78 571.61C1330.39 628.319 1377.35 705.244 1424.33 838.718C1454.21 923.579 1448.92 989.293 1419.3 1038.56C1389.67 1087.83 1335.64 1120.75 1267.8 1139.88C1132.13 1178.15 941.504 1161.17 781.666 1109.88L781.657 1109.88L781.649 1109.87ZM532.493 1097.25C455.236 1121.75 372.684 1144.81 264.789 1114.2C210.814 1098.89 186.403 1075.3 175.092 1046.92C169.446 1032.76 167.078 1017.43 165.895 1001.4C165.213 992.167 164.924 982.665 164.63 973.014C164.414 965.942 164.197 958.791 163.82 951.608C162.037 917.572 156.69 882.449 131.268 849.663C105.84 816.869 60.272 786.344 -22.107 761.651C-104.655 736.907 -156.54 690.653 -183.383 635.076C-210.22 579.509 -211.999 514.678 -194.447 452.814C-159.351 329.107 -46.9027 217.086 97.457 214.534C169.488 213.261 218.525 207.658 256.071 197.326C293.602 186.998 319.669 171.94 345.753 151.721C359.629 140.964 373.517 128.74 389.139 114.989L389.14 114.988L389.147 114.982C432.269 77.0242 488.606 27.4336 594.398 -35.0312C738.677 -120.22 932.284 -103.623 1074.7 -34.5409C1145.91 0.00275783 1204.37 47.6936 1237.48 102.408C1270.59 157.141 1278.33 218.901 1248.07 281.481C1217.89 343.878 1202.83 387.055 1199.07 422.086C1195.31 457.087 1202.82 483.991 1217.88 513.86C1226.13 530.224 1236.65 547.485 1248.83 567.45C1281.1 620.392 1324.97 692.353 1368.81 817.047C1396.73 896.441 1391.84 958.099 1364.04 1004.4C1336.24 1050.69 1285.6 1081.52 1222.23 1099.42C1095.5 1135.2 917.583 1119.31 768.458 1071.4C686.307 1048.14 617.508 1070.11 544.869 1093.31L544.775 1093.34C540.694 1094.64 536.601 1095.95 532.493 1097.25ZM544.62 1092.34C617.215 1069.15 686.286 1047.09 768.739 1070.44L768.748 1070.44L768.756 1070.45C917.769 1118.32 1095.48 1134.17 1221.96 1098.45C1285.2 1080.6 1335.56 1049.87 1363.18 1003.89C1390.79 957.913 1395.72 896.585 1367.87 817.379C1324.07 692.794 1280.3 620.996 1248.02 568.062C1235.83 548.062 1225.28 530.754 1216.99 514.311C1201.87 484.319 1194.29 457.221 1198.07 421.98C1201.86 386.77 1216.98 343.466 1247.17 281.046C1277.26 218.809 1269.59 157.408 1236.62 102.925C1203.64 48.4245 1145.36 0.846752 1074.26 -33.6412C932.053 -102.623 738.815 -119.14 594.907 -34.1701C489.205 28.2412 432.978 77.7349 389.863 115.687C374.216 129.46 360.296 141.712 346.366 152.511C320.199 172.794 294.017 187.921 256.336 198.29C218.672 208.655 169.538 214.26 97.4747 215.534C-46.3522 218.076 -158.482 329.707 -193.485 453.087C-210.984 514.766 -209.193 579.337 -182.482 634.641C-155.777 689.934 -104.135 736.02 -21.8199 760.693C60.6645 785.418 106.453 816.028 132.058 849.05C157.669 882.079 163.032 917.452 164.819 951.556C165.198 958.793 165.416 965.957 165.631 973.028C165.923 982.648 166.211 992.097 166.892 1001.33C168.072 1017.31 170.43 1032.53 176.021 1046.55C187.185 1074.57 211.292 1097.98 265.062 1113.24C372.658 1143.76 454.969 1120.79 532.191 1096.3C536.347 1094.98 540.489 1093.66 544.62 1092.34ZM536.29 1055.97C464.603 1078.73 387.995 1100.14 287.869 1071.71C237.778 1057.49 215.117 1035.58 204.617 1009.21C199.376 996.054 197.178 981.813 196.08 966.927C195.448 958.351 195.179 949.525 194.906 940.561L194.906 940.556C194.706 933.991 194.504 927.351 194.155 920.684C192.501 889.077 187.54 856.467 163.958 826.027C140.37 795.58 98.0954 767.235 21.6606 744.304C-54.9439 721.322 -103.096 678.36 -128.008 626.736C-152.915 575.122 -154.564 514.905 -138.277 457.445C-105.708 342.548 -1.35672 238.5 132.613 236.13C199.448 234.948 244.946 229.744 279.78 220.15C314.599 210.56 338.782 196.578 362.983 177.803C375.859 167.814 388.746 156.46 403.243 143.688C443.256 108.436 495.535 62.3783 593.702 4.36563C727.59 -74.7563 907.25 -59.3397 1039.4 4.81952C1105.48 36.902 1159.73 81.1964 1190.46 132.017C1221.19 182.856 1228.37 240.225 1200.29 298.355C1172.29 356.301 1158.31 396.395 1154.82 428.922C1151.34 461.418 1158.3 486.397 1172.28 514.133C1179.93 529.327 1189.69 545.355 1200.99 563.895C1230.94 613.062 1271.65 679.897 1312.33 795.704C1338.23 869.444 1333.7 926.717 1307.89 969.728C1282.09 1012.72 1235.1 1041.37 1176.29 1057.98C1058.69 1091.22 893.594 1076.46 755.219 1031.97C679.002 1010.37 615.174 1030.77 547.772 1052.31L547.673 1052.34L547.633 1052.36L547.434 1052.42C543.731 1053.6 540.017 1054.79 536.29 1055.97ZM547.523 1051.34C614.882 1029.81 678.981 1009.32 755.5 1031.01L755.508 1031.01L755.517 1031.01C893.78 1075.47 1058.67 1090.19 1176.02 1057.02C1234.69 1040.44 1281.42 1011.91 1307.03 969.214C1332.64 926.531 1337.22 869.587 1311.39 796.036C1270.74 680.339 1230.13 613.665 1200.18 564.507C1188.87 545.931 1179.08 529.857 1171.38 514.583C1157.35 486.725 1150.32 461.552 1153.83 428.816C1157.34 396.11 1171.37 355.89 1199.38 297.92C1227.31 240.133 1220.18 183.122 1189.6 132.534C1159.01 81.927 1104.93 37.7458 1038.96 5.71906C907.019 -58.34 727.729 -73.677 594.211 5.22647C496.134 63.1857 443.965 109.147 403.959 144.392L403.954 144.397L403.952 144.399L403.943 144.407L403.939 144.411L403.937 144.412C389.427 157.196 376.517 168.569 363.596 178.593C339.313 197.432 315.014 211.483 280.046 221.114C245.093 230.741 199.498 235.947 132.63 237.13C-0.805697 239.491 -104.839 343.148 -137.315 457.718C-153.55 514.992 -151.887 574.95 -127.107 626.301C-102.332 677.642 -54.4232 720.435 21.9479 743.346C98.4882 766.309 140.983 794.74 164.748 825.415C188.519 856.098 193.496 888.958 195.154 920.632C195.506 927.355 195.708 934.008 195.907 940.575L195.907 940.576L195.907 940.577L195.907 940.578L195.907 940.579L195.907 940.581L195.907 940.582L195.907 940.583L195.907 940.584L195.907 940.585L195.907 940.586L195.907 940.586L195.907 940.587C196.179 949.517 196.445 958.286 197.078 966.853C198.172 981.696 200.36 995.821 205.546 1008.84C215.899 1034.85 238.257 1056.59 288.142 1070.75C387.969 1099.1 464.336 1077.77 535.988 1055.02C539.845 1053.8 543.689 1052.57 547.523 1051.34ZM647.195 621.082C669.885 630.829 695.291 624.27 713.493 611.799C722.599 605.56 729.936 597.819 734.248 589.848C738.559 581.879 739.871 573.625 736.806 566.423C718.938 524.434 719.288 494.294 719.534 473.121L719.534 473.108C719.561 470.776 719.587 468.553 719.587 466.434C719.587 437.789 703.517 418.026 680.429 407.043C657.362 396.07 627.276 393.845 599.102 400.206C585.008 403.388 575.824 407.575 568.802 412.077C563.858 415.246 559.978 418.581 556.241 421.794C554.688 423.129 553.161 424.442 551.592 425.713C546.232 430.056 540.305 433.992 531.061 436.85C521.803 439.711 509.195 441.498 490.469 441.498C467.602 441.498 451.564 446.422 441.016 454.343C430.456 462.275 425.451 473.173 424.587 484.996C422.863 508.592 437.622 535.888 457.564 550.969C469.009 559.625 473.031 566.507 476.719 572.819C478.264 575.463 479.751 578.008 481.7 580.54C488.291 589.101 499.957 597.074 536.439 607.459C543.424 609.447 551.288 610.182 559.772 610.449C564.869 610.61 570.216 610.602 575.741 610.593L575.743 610.593L575.746 610.593L575.749 610.593L575.752 610.593L575.755 610.593L575.758 610.593L575.761 610.593L575.764 610.593L575.767 610.593L575.77 610.593L575.773 610.593C579.42 610.587 583.144 610.582 586.925 610.624C606.002 610.838 626.699 612.278 647.195 621.082ZM735.886 566.815C738.792 573.642 737.591 581.567 733.368 589.372C729.147 597.176 721.932 604.804 712.928 610.974C694.91 623.319 669.869 629.734 647.59 620.163C626.907 611.279 606.047 609.839 586.937 609.624C583.125 609.581 579.391 609.587 575.741 609.593C570.224 609.602 564.901 609.61 559.804 609.449C551.347 609.183 543.58 608.452 536.713 606.497C500.26 596.121 488.873 588.218 482.493 579.93C480.643 577.527 479.196 575.054 477.673 572.45C473.953 566.09 469.778 558.952 458.167 550.172C438.435 535.249 423.89 508.258 425.585 485.069C426.43 473.499 431.314 462.881 441.617 455.143C451.933 447.395 467.732 442.498 490.469 442.498C509.251 442.498 521.968 440.707 531.356 437.805C540.756 434.9 546.794 430.888 552.221 426.49C553.833 425.184 555.383 423.852 556.947 422.507C560.664 419.312 564.46 416.049 569.342 412.918C576.254 408.487 585.329 404.34 599.322 401.181C627.32 394.86 657.171 397.087 679.999 407.946C702.806 418.796 718.587 438.244 718.587 466.434C718.587 468.552 718.561 470.777 718.534 473.113C718.287 494.308 717.934 524.628 735.886 566.815ZM540.929 1016.92C474.024 1037.59 402.786 1057.15 310.492 1030.94C263.292 1017.54 241.588 997.203 231.283 972.825C226.14 960.658 223.85 947.514 222.619 933.788C221.878 925.541 221.519 917.051 221.155 908.431L221.155 908.424L221.154 908.418L221.154 908.412L221.153 908.407L221.153 908.401L221.153 908.397C220.912 902.702 220.668 896.951 220.312 891.175C218.513 862.059 213.824 832.029 192.101 803.928C170.373 775.82 131.548 749.573 61.3254 728.168L61.4711 727.69L61.3249 728.168C-9.22773 706.59 -53.7952 666.568 -76.9869 618.572C-100.174 570.587 -101.968 514.685 -87.0812 461.376C-57.3132 354.779 39.2105 258.389 165.17 256.233C227.632 255.158 270.14 250.266 302.65 241.283C335.144 232.305 357.668 219.236 380.155 201.774C391.953 192.611 403.747 182.233 416.967 170.6L416.968 170.599L416.968 170.598C454.157 137.873 502.627 95.2204 594.207 41.7885C718.492 -30.7248 884.559 -16.5047 1006.79 42.819C1067.91 72.4837 1118.13 113.45 1146.68 160.552C1175.25 207.672 1182.15 260.932 1156.61 315.084L1156.61 315.086C1131.15 368.248 1118.44 405.238 1115.27 435.414C1112.11 465.56 1118.47 488.941 1131.25 514.902C1138.42 529.464 1147.62 544.845 1158.29 562.684C1185.67 608.469 1222.74 670.443 1260.03 776.296C1283.86 843.98 1279.62 896.796 1255.77 936.628C1231.92 976.446 1188.52 1003.19 1134.23 1018.86C1025.66 1050.21 873.274 1037.38 745.427 996.049C674.052 975.563 614.026 994.214 550.773 1013.87C547.501 1014.88 544.22 1015.9 540.929 1016.92ZM550.535 1012.89C613.743 993.252 674.037 974.516 745.711 995.09L745.719 995.092L745.727 995.095C873.457 1036.38 1025.64 1049.17 1133.96 1017.9C1188.11 1002.26 1231.24 975.634 1254.91 936.114C1278.57 896.609 1282.85 844.121 1259.09 776.629C1221.83 670.879 1184.86 609.07 1157.49 563.297L1157.49 563.296C1146.8 545.42 1137.57 529.99 1130.35 515.344C1117.51 489.263 1111.09 465.691 1114.28 435.309C1117.46 404.957 1130.24 367.841 1155.7 314.654C1181.08 260.845 1174.25 207.941 1145.83 161.071C1117.4 114.181 1067.36 73.3273 1006.35 43.7187C884.329 -15.5046 718.629 -29.6471 594.711 42.6521C503.225 96.0296 454.864 138.586 417.682 171.305L417.681 171.306C404.44 182.958 392.617 193.362 380.768 202.563C358.199 220.09 335.56 233.228 302.916 242.247C270.288 251.262 227.682 256.158 165.187 257.233C39.7581 259.379 -56.4435 355.382 -86.118 461.645C-100.953 514.767 -99.1475 570.412 -76.0864 618.137C-53.0302 665.853 -8.70173 705.705 61.617 727.212C131.945 748.649 170.989 774.982 192.893 803.317C214.801 831.658 219.507 861.934 221.31 891.113C221.669 896.934 221.913 902.7 222.154 908.397C222.518 917.004 222.875 925.454 223.615 933.698C224.842 947.379 227.119 960.405 232.204 972.436C242.357 996.455 263.762 1016.63 310.765 1029.98C402.763 1056.1 473.759 1036.62 540.634 1015.96C541.566 1015.68 542.497 1015.39 543.427 1015.1L545.243 1014.54C546.113 1014.27 546.982 1014 547.851 1013.73L550.431 1012.93L550.535 1012.89ZM333.09 990.167C417.554 1014.15 483.42 996.442 545.544 977.863C548.279 977.045 551.007 976.225 553.73 975.407C612.837 957.647 669.071 940.75 735.611 960.128C852.931 998.29 992.616 1009.19 1092.15 979.735C1141.93 965.005 1181.72 940.164 1203.62 903.526C1225.52 866.873 1229.46 818.514 1207.72 756.886C1173.82 661.021 1140.4 603.943 1115.59 561.562L1115.59 561.56C1105.53 544.384 1096.89 529.621 1090.2 515.669C1078.61 491.482 1072.86 469.7 1075.7 441.903C1078.54 414.078 1090 380.192 1112.9 331.815L1112.91 331.809C1135.9 281.636 1129.29 232.486 1102.89 189.085C1076.49 145.701 1030.32 108.063 974.159 80.8159C861.845 26.3276 709.371 13.3041 594.689 79.2084C509.707 128.045 465.051 167.29 430.686 197.491L430.682 197.495L430.68 197.496C418.731 207.997 408.026 217.404 397.303 225.741C376.529 241.892 355.665 254.048 325.496 262.414C295.311 270.785 255.792 275.367 197.703 276.334C79.7546 278.274 -8.94218 367.007 -35.9092 465.305C-49.3952 514.463 -47.4559 566.05 -25.9894 610.406C-4.51837 654.772 36.4644 691.855 100.965 712.03L100.966 712.03C164.976 731.909 200.353 756.057 220.221 781.827C240.085 807.589 244.502 835.039 246.445 861.664C246.801 866.553 247.075 871.421 247.346 876.248C247.812 884.543 248.271 892.714 249.133 900.648C250.499 913.215 252.881 925.261 257.927 936.435C268.037 958.822 288.783 977.584 333.09 990.167ZM735.899 959.17C669.064 939.704 612.566 956.682 553.504 974.431C550.761 975.255 548.013 976.081 545.257 976.905C483.16 995.477 417.534 1013.11 333.363 989.205C289.242 976.675 268.791 958.061 258.838 936.024C253.854 924.986 251.488 913.057 250.128 900.54C249.268 892.627 248.812 884.507 248.347 876.233L248.346 876.209C248.075 871.385 247.801 866.509 247.442 861.591C245.495 834.908 241.06 807.216 221.013 781.216C200.972 755.222 165.379 730.987 101.263 711.075C36.9963 690.973 -3.75165 654.061 -25.0893 609.971C-46.4317 565.87 -48.3791 514.538 -34.9449 465.569C-8.07194 367.614 80.2979 279.265 197.719 277.334C255.843 276.366 295.459 271.781 325.763 263.378C356.082 254.97 377.061 242.745 397.917 226.531C408.69 218.155 419.424 208.722 431.396 198.201C465.755 168.006 510.302 128.857 595.188 80.0754C709.506 14.3802 861.616 27.3283 973.722 81.7155C1029.77 108.906 1075.77 146.432 1102.03 189.604C1128.29 232.758 1134.83 281.557 1112 331.39C1089.08 379.792 1077.56 413.802 1074.7 441.801C1071.84 469.828 1077.65 491.797 1089.3 516.102C1096.03 530.146 1104.71 544.96 1114.79 562.175C1139.59 604.54 1172.91 661.449 1206.77 757.219C1228.45 818.653 1224.47 866.685 1202.76 903.013C1181.04 939.356 1141.51 964.086 1091.87 978.776C992.584 1008.16 853.111 997.299 735.913 959.175L735.906 959.172L735.899 959.17ZM550.148 938.806C492.808 955.296 432.313 971.154 355.68 949.392C314.265 937.629 294.478 920.439 284.563 900.045C276.321 883.093 274.933 863.963 273.492 844.108C273.204 840.148 272.915 836.159 272.568 832.152C270.482 808.018 266.337 783.148 248.332 759.723C230.323 736.293 198.394 714.243 140.597 695.89L140.596 695.889C82.1468 677.118 44.749 642.975 24.9986 602.239C5.25263 561.511 3.16816 514.239 15.2532 469.233C39.4194 379.233 120.29 298.158 230.227 296.433C283.944 295.573 320.473 291.302 348.333 283.543C376.177 275.789 395.381 264.546 414.442 249.708C424.098 242.191 433.721 233.746 444.413 224.363L444.414 224.363C475.955 196.685 516.791 160.851 595.163 116.626C700.241 57.3317 839.121 69.1584 941.518 118.811C992.722 143.64 1034.85 177.95 1059.08 217.616C1083.32 257.298 1089.64 302.337 1069.2 348.532L1069.19 348.542C1048.83 392.134 1038.63 422.916 1036.11 448.39C1033.6 473.838 1038.74 494.023 1049.15 516.436C1055.37 529.847 1063.47 544.023 1072.93 560.591L1072.93 560.593C1079.31 571.769 1086.31 584.033 1093.78 597.885C1112.31 632.243 1133.66 676.28 1155.39 737.474L1155.39 737.474C1175.05 793.047 1171.42 836.949 1151.46 870.422C1131.51 903.88 1095.32 926.822 1050.06 940.607C959.56 968.175 832.579 959.204 725.787 924.206C664.072 905.93 611.617 921.068 556.651 936.931C554.487 937.556 552.32 938.181 550.148 938.806ZM556.44 935.951C611.359 920.1 664.074 904.885 726.078 923.249L726.084 923.251L726.091 923.253C832.755 958.211 959.52 967.142 1049.77 939.651C1094.89 925.906 1130.83 903.077 1150.6 869.91C1170.37 836.759 1174.04 793.182 1154.45 737.808C1132.73 676.67 1111.41 632.68 1092.9 598.36C1085.46 584.568 1078.47 572.323 1072.09 561.149C1062.61 544.541 1054.48 530.298 1048.24 516.857C1037.78 494.329 1032.58 473.963 1035.12 448.291C1037.66 422.647 1047.91 391.742 1068.29 348.124C1088.58 302.267 1082.32 257.574 1058.23 218.137C1034.13 178.681 992.17 144.484 941.082 119.711C838.894 70.1596 700.373 58.4057 595.654 117.497C517.383 161.665 476.655 197.404 445.12 225.076C434.408 234.476 424.758 242.944 415.056 250.497C395.915 265.398 376.596 276.71 348.601 284.506C320.621 292.298 283.994 296.573 230.243 297.433C120.828 299.15 40.2904 379.846 16.2189 469.492C4.18525 514.308 6.2746 561.327 25.8984 601.802C45.5178 642.269 82.6856 676.24 140.902 694.937C198.804 713.324 230.945 735.461 249.125 759.114C267.309 782.772 271.473 807.88 273.565 832.066C273.913 836.1 274.205 840.105 274.493 844.073L274.495 844.092C275.938 863.945 277.312 882.845 285.462 899.608C295.214 919.666 314.713 936.716 355.953 948.43C432.295 970.11 492.551 954.33 549.872 937.845C550.939 937.538 552.006 937.231 553.072 936.923L555.895 936.109L556.3 935.992L556.44 935.951ZM378.291 908.61C447.093 928.15 502.216 914.144 554.774 899.742C556.313 899.321 557.85 898.898 559.385 898.477L559.559 898.429C610.389 884.469 659.085 871.095 715.984 888.277C812.25 920.112 926.526 927.152 1008 901.473C1048.73 888.632 1081.33 867.59 1099.32 837.312C1117.33 807.019 1120.67 767.573 1103.08 718.056L1103.08 718.055C1083.45 663.048 1064.32 623.168 1047.79 591.865C1041.55 580.061 1035.7 569.488 1030.32 559.788L1030.32 559.785L1030.32 559.78L1030.32 559.779C1021.43 543.737 1013.87 530.083 1008.11 517.198C998.894 496.559 994.358 477.97 996.552 454.87C998.749 431.747 1007.69 404.069 1025.51 365.262L1025.51 365.255L1025.51 365.248C1043.4 323.032 1037.37 282.103 1015.3 246.14C993.233 210.194 955.144 179.211 908.899 156.8C816.419 111.983 691.133 101.353 595.659 154.038C523.913 193.629 486.905 226.049 458.187 251.206L458.183 251.21L458.182 251.211L458.17 251.222C448.732 259.49 440.189 266.973 431.603 273.668C414.256 287.194 396.712 297.524 371.191 304.666C345.656 311.813 312.117 315.774 262.774 316.526C160.848 318.036 87.8032 391.453 66.4378 473.154C55.7539 514.01 57.9836 556.967 76.009 594.065C94.0385 631.171 127.851 662.374 180.248 679.742L180.25 679.743C231.834 696.57 260.315 716.521 276.465 737.613C292.612 758.701 296.484 780.992 298.715 802.636C299.038 805.773 299.327 808.899 299.614 812.006L299.614 812.008C301.304 830.302 302.936 847.966 311.222 863.651C320.942 882.05 339.769 897.667 378.291 908.61ZM716.279 887.321C659.097 870.052 610.148 883.497 559.366 897.445L556.916 898.118L555.866 898.406L554.51 898.778C501.965 913.176 447.079 927.106 378.565 907.648C340.205 896.751 321.657 881.263 312.106 863.184C303.922 847.69 302.308 830.252 300.614 811.948C300.326 808.833 300.035 805.693 299.709 802.534C297.474 780.844 293.58 758.321 277.259 737.005C260.941 715.694 232.252 695.654 180.56 678.793C128.397 661.501 94.8094 630.47 76.9084 593.628C59.003 556.777 56.7718 514.07 67.4053 473.407C88.6752 392.071 161.38 319.028 262.789 317.526C312.168 316.773 345.806 312.809 371.461 305.629C397.131 298.444 414.79 288.045 432.218 274.456C440.853 267.724 449.426 260.213 458.889 251.923C487.602 226.771 524.502 194.446 596.142 154.913C691.261 102.425 816.194 112.985 908.463 157.7C954.592 180.055 992.509 210.925 1014.45 246.663C1036.37 282.383 1042.34 322.971 1024.59 364.851C1006.77 403.686 997.769 431.485 995.557 454.776C993.343 478.091 997.931 496.854 1007.2 517.605C1012.97 530.524 1020.57 544.244 1029.47 560.32L1029.48 560.323C1034.85 570.021 1040.7 580.577 1046.9 592.332C1063.42 623.601 1082.52 663.437 1102.14 718.391C1119.65 767.705 1116.28 806.826 1098.47 836.801C1080.64 866.792 1048.3 887.721 1007.69 900.519C926.477 926.119 812.42 919.116 716.291 887.325L716.279 887.321ZM965.914 861.363C893.478 885.153 791.906 880.044 706.165 851.372C654.066 835.273 609.107 846.874 562.406 858.924C561.399 859.184 560.392 859.444 559.383 859.703C511.61 872.016 461.858 884.169 400.888 866.853C365.259 856.73 347.393 842.687 337.868 826.283C329.499 811.87 327.61 795.683 325.658 778.962L325.657 778.948C325.561 778.131 325.466 777.313 325.369 776.494C325.199 775.048 325.026 773.599 324.846 772.146C322.471 752.991 318.872 733.279 304.583 714.528C290.291 695.774 265.258 677.921 219.886 662.621L219.883 662.62C173.539 646.654 143.312 618.391 127.004 584.916C110.7 551.448 108.324 512.807 117.607 476.101C136.172 402.696 201.391 336.938 295.305 335.644C340.275 334.999 370.825 331.348 394.035 324.813C417.23 318.283 433.114 308.866 448.749 296.652C456.27 290.776 463.738 284.248 471.933 277.084L471.946 277.072L471.948 277.071L471.952 277.067L471.958 277.062L471.972 277.049L471.977 277.045C497.871 254.405 531.043 225.402 596.141 190.473C682.011 144.4 793.702 153.832 876.264 193.814C917.551 213.807 951.599 241.461 971.499 273.689C991.409 305.933 997.151 342.75 981.81 380.987L981.806 380.996L981.802 381.005C966.534 415.027 958.848 439.602 956.976 460.375C955.105 481.128 959.033 498.119 967.063 516.985C972.355 529.418 979.416 542.638 987.769 558.277L987.771 558.282L987.772 558.284C992.115 566.415 996.807 575.201 1001.78 584.87C1016.31 613.118 1033.22 648.841 1050.76 697.661L1050.76 697.662C1066.27 741.125 1063.23 776.113 1047.17 803.226C1031.13 830.323 1002.14 849.466 965.914 861.363ZM1049.82 697.998C1065.25 741.252 1062.18 775.918 1046.31 802.717C1030.43 829.532 1001.69 848.56 965.602 860.413C893.418 884.12 792.07 879.046 706.477 850.422L706.466 850.418C654.091 834.233 608.884 845.898 562.234 857.935C561.201 858.202 560.168 858.469 559.134 858.735C511.365 871.047 461.849 883.127 401.161 865.891C365.682 855.811 348.084 841.884 338.733 825.781C330.476 811.561 328.61 795.597 326.653 778.854L326.653 778.853C326.389 776.59 326.122 774.313 325.839 772.023C323.459 752.832 319.836 732.894 305.378 713.922C290.923 694.952 265.685 677.01 220.206 661.673C174.095 645.787 144.086 617.696 127.903 584.478C111.716 551.251 109.343 512.856 118.577 476.347C137.045 403.321 201.916 337.931 295.319 336.644C340.326 335.998 370.975 332.345 394.306 325.776C417.652 319.203 433.651 309.716 449.364 297.44C456.934 291.527 464.434 284.97 472.657 277.781L472.67 277.769L472.672 277.767L472.674 277.766C498.564 255.131 531.627 226.224 596.614 191.355C682.135 145.468 793.479 154.835 875.829 194.714C916.998 214.651 950.875 242.193 970.648 274.215C990.41 306.218 996.09 342.7 980.886 380.605C965.605 414.656 957.867 439.349 955.98 460.285C954.09 481.243 958.066 498.402 966.143 517.377C971.452 529.849 978.546 543.132 986.914 558.801L986.915 558.803C991.255 566.929 995.938 575.698 1000.89 585.328C1015.41 613.546 1032.3 649.228 1049.82 697.998ZM696.354 813.299C771.571 838.809 860.44 841.986 923.843 820.083C955.548 809.131 980.937 791.887 995.031 767.972C1009.13 744.039 1011.88 713.508 998.452 676.099L998.451 676.098C983.002 633.465 968.32 601.901 955.784 576.708C952.109 569.323 948.621 562.489 945.354 556.088L945.35 556.081C937.467 540.637 930.868 527.708 926.023 515.606C919.18 498.513 915.859 483.117 917.407 464.71C918.956 446.287 925.386 424.815 938.107 395.579L938.112 395.567L938.117 395.554C950.907 361.298 945.452 328.593 927.708 300.069C909.972 271.56 879.966 247.235 843.638 229.659C770.992 194.512 672.897 186.278 596.632 225.74C538.209 255.97 508.885 281.551 485.813 301.678L485.812 301.679L485.81 301.68L485.796 301.693L485.787 301.701L485.783 301.705C478.795 307.801 472.38 313.396 465.902 318.468C451.981 329.37 437.756 337.874 416.886 343.792C396.001 349.715 368.441 353.055 327.844 353.593C241.944 354.671 184.547 412.77 168.784 477.881C153.017 543.006 178.899 615.186 259.525 644.328L259.529 644.329C298.688 658.103 320.275 673.857 332.708 690.274C345.14 706.689 348.466 723.823 350.986 740.491C351.2 741.907 351.408 743.32 351.616 744.729L351.625 744.794C353.854 759.923 356.018 774.615 364.525 787.751C373.855 802.155 390.757 814.625 423.492 823.927C476.63 839.021 521.01 828.72 563.999 818.496L565.195 818.212C607.776 808.083 649.035 798.269 696.354 813.299ZM994.169 767.464C1008.09 743.841 1010.86 713.631 997.511 676.438C982.078 633.851 967.413 602.322 954.889 577.154C951.228 569.796 947.747 562.977 944.483 556.582C936.588 541.115 929.957 528.125 925.094 515.978C918.21 498.781 914.846 483.226 916.41 464.626C917.973 446.046 924.45 424.46 937.185 395.192C949.848 361.263 944.456 328.885 926.859 300.597C909.25 272.292 879.413 248.078 843.202 230.559C770.772 195.516 673.015 187.342 597.092 226.628C538.787 256.797 509.573 282.281 486.505 302.403L486.504 302.404C479.489 308.524 473.042 314.147 466.519 319.256C452.519 330.219 438.18 338.793 417.159 344.754C396.152 350.712 368.493 354.055 327.857 354.593C242.458 355.665 185.423 413.404 169.756 478.116C154.092 542.814 179.782 614.44 259.863 643.386C299.129 657.198 320.913 673.043 333.505 689.67C346.098 706.298 349.451 723.65 351.975 740.342C352.188 741.754 352.396 743.161 352.602 744.562L352.604 744.57L352.605 744.578L352.606 744.585L352.607 744.593L352.611 744.622C354.847 759.788 356.982 774.264 365.365 787.207C374.515 801.336 391.165 813.701 423.765 822.965C476.626 837.98 520.773 827.749 563.767 817.524L565.049 817.219C607.577 807.102 649.074 797.231 696.661 812.347L696.67 812.35C771.726 837.807 860.365 840.954 923.516 819.138C955.088 808.231 980.238 791.105 994.169 767.464ZM881.767 778.739C827.398 798.754 751.231 797.51 686.535 775.162C644.232 761.265 606.827 769.088 568.606 777.226L567.897 777.377C529.92 785.464 491.115 793.728 446.09 780.938C416.251 772.456 400.313 761.561 391.181 749.158C382.455 737.307 379.992 724.135 377.466 710.617L377.314 709.805L377.121 708.777C374.456 694.594 371.403 680.036 360.827 665.955C350.251 651.875 332.11 638.219 299.164 625.973L299.159 625.971C230.649 599.636 206.992 536.419 219.955 479.598C232.917 422.779 282.492 372.341 360.378 371.478C396.601 371.048 421.171 368.019 439.731 362.708C458.276 357.401 470.841 349.81 483.05 340.221C488.495 335.944 493.871 331.266 499.676 326.216L499.691 326.203L499.693 326.201L499.696 326.199C519.946 308.579 545.407 286.426 597.12 260.941C663.777 228.093 748.276 235.128 811.005 265.44C842.374 280.598 868.339 301.596 883.91 326.385C899.489 351.188 904.655 379.78 894.419 410.055L894.413 410.071L894.407 410.087C884.232 434.536 879.058 452.906 877.831 468.981C876.606 485.043 879.321 498.845 884.976 514.166C889.404 526.159 895.624 539.061 903.166 554.702C905.272 559.069 907.48 563.65 909.782 568.485C920.319 590.62 932.778 618.026 946.133 654.47L946.133 654.472C957.481 685.829 955.034 711.903 942.882 732.653C930.74 753.386 908.955 768.73 881.767 778.739ZM945.193 654.814C956.459 685.944 953.994 711.699 942.019 732.148C930.033 752.615 908.477 767.841 881.422 777.801C827.304 797.723 751.375 796.503 686.858 774.215L686.851 774.213C644.258 760.22 606.6 768.113 568.397 776.248L567.758 776.384C529.744 784.479 491.148 792.698 446.364 779.976C416.642 771.528 400.938 760.724 391.986 748.565C383.399 736.903 380.974 723.938 378.437 710.372C378.327 709.78 378.216 709.187 378.104 708.592C375.437 694.402 372.354 679.637 361.626 665.355C350.898 651.071 332.569 637.323 299.514 625.036C231.525 598.9 208.064 536.214 220.929 479.821C233.795 423.425 282.993 373.335 360.389 372.478C396.653 372.048 421.324 369.015 440.006 363.669C458.703 358.319 471.382 350.658 483.668 341.007C489.152 336.699 494.556 331.998 500.382 326.929L500.383 326.928L500.385 326.926C520.63 309.312 545.979 287.258 597.562 261.839C663.889 229.153 748.059 236.134 810.57 266.34C841.821 281.441 867.618 302.328 883.063 326.917C898.497 351.488 903.6 379.763 893.477 409.718C883.288 434.204 878.072 452.682 876.834 468.905C875.596 485.145 878.346 499.093 884.038 514.512C888.484 526.554 894.732 539.514 902.278 555.164L902.279 555.165L902.28 555.167C904.382 559.528 906.586 564.098 908.879 568.914C919.408 591.033 931.853 618.409 945.193 654.814ZM676.721 736.929C730.898 756.118 794.365 755.427 839.7 737.299C862.37 728.233 880.55 714.789 890.738 697.24C900.936 679.673 903.09 658.057 893.819 632.75L893.818 632.748C882.559 602.494 872.324 579.247 863.785 560.169C863.023 558.467 862.275 556.799 861.541 555.162L861.54 555.16C854.042 538.438 848.011 524.989 843.936 512.635C839.467 499.086 837.358 486.876 838.261 473.156C839.164 459.428 843.084 444.159 850.712 424.496L850.72 424.476L850.726 424.455C866.103 371.827 831.173 326.595 778.377 301.127C725.565 275.65 654.664 269.814 597.615 296.047C552.664 316.718 531.086 335.436 513.654 350.559L513.653 350.559C508.996 354.6 504.634 358.383 500.202 361.879C489.706 370.157 478.801 376.834 462.58 381.529C446.345 386.227 424.765 388.946 392.916 389.269C323.047 389.916 281.29 432.692 271.129 481.224C260.972 529.74 282.404 583.99 338.793 607.518L338.8 607.52C365.533 618.24 380.23 629.796 388.95 641.542C397.528 653.097 400.358 664.878 403.124 676.395L403.263 676.975C406.072 688.661 408.915 700.08 417.847 710.476C426.78 720.873 441.749 730.194 468.693 737.853C505.133 748.207 537.946 742.257 570.457 736.361C571.376 736.194 572.295 736.028 573.214 735.861C606.65 729.812 639.874 724.307 676.721 736.929ZM889.873 696.738C899.903 679.461 902.062 658.161 892.881 633.095C881.633 602.872 871.408 579.648 862.872 560.578C862.513 559.775 862.156 558.98 861.803 558.192C861.406 557.305 861.012 556.428 860.623 555.559C853.131 538.853 847.078 525.354 842.986 512.948C838.487 499.309 836.35 486.968 837.263 473.09C838.175 459.226 842.13 443.857 849.772 424.154C864.931 372.229 830.544 327.402 777.943 302.027C725.352 276.658 654.766 270.867 598.033 296.956C553.221 317.562 531.759 336.179 514.332 351.296C509.663 355.346 505.283 359.145 500.821 362.664C490.249 371.002 479.23 377.751 462.858 382.489C446.5 387.224 424.818 389.946 392.925 390.268C323.53 390.912 282.173 433.353 272.108 481.428C262.04 529.519 283.272 583.267 339.175 606.594C366.016 617.357 380.89 629.007 389.752 640.945C398.453 652.665 401.324 664.619 404.084 676.111L404.084 676.111L404.235 676.741C407.047 688.439 409.849 699.633 418.606 709.824C427.362 720.016 442.122 729.26 468.967 736.892C505.179 747.181 537.789 741.268 570.341 735.366L570.487 735.339L570.624 735.314C571.428 735.169 572.232 735.023 573.036 734.877C606.464 728.829 639.926 723.267 677.047 735.984L677.052 735.986C731.026 755.104 794.243 754.399 839.328 736.37C861.868 727.357 879.833 714.032 889.873 696.738ZM797.622 695.719C761.323 711.962 710.553 714.592 666.888 698.56C635.495 687.211 606.45 690.4 577.8 694.361C576.124 694.592 574.449 694.827 572.775 695.061C545.861 698.827 519.177 702.561 491.28 694.633C467.233 687.794 453.236 680.05 444.507 671.663C435.768 663.266 432.354 654.266 429.393 645.047C429.079 644.069 428.77 643.088 428.461 642.106L428.46 642.105C425.851 633.825 423.199 625.413 417.055 616.99C410.19 607.577 398.933 598.119 378.412 588.928L378.405 588.925C334.144 568.204 314.937 522.927 322.287 482.716C329.644 442.464 363.591 407.354 425.438 406.923C452.913 406.708 471.503 404.299 485.412 400.213C499.308 396.13 508.554 390.366 517.337 383.401C520.775 380.674 524.144 377.761 527.692 374.693C542.311 362.053 559.98 346.777 598.1 331.014C645.535 311.4 702.836 316.034 745.733 336.676C788.622 357.315 817.277 394.06 807.018 438.711L807.013 438.736L807.004 438.761C796.848 468.488 796.323 487.447 802.88 510.973C806.165 522.76 811.23 535.698 817.773 551.721C819.018 554.771 820.316 557.932 821.666 561.217C827.405 575.187 834.069 591.407 841.487 610.887L841.488 610.89C848.683 630.151 846.821 647.309 838.578 661.689C830.345 676.051 815.773 687.596 797.622 695.719ZM840.552 611.242C847.648 630.239 845.797 647.084 837.71 661.191C829.614 675.316 815.238 686.74 797.213 694.806C761.158 710.941 710.657 713.565 667.231 697.621L667.229 697.62C635.583 686.179 606.318 689.408 577.663 693.37C576.001 693.6 574.34 693.832 572.682 694.064C545.727 697.835 519.24 701.54 491.553 693.671C467.586 686.855 453.763 679.17 445.2 670.941C436.646 662.723 433.293 653.921 430.346 644.741C430.033 643.767 429.724 642.788 429.414 641.804C426.808 633.532 424.109 624.964 417.863 616.401C410.868 606.81 399.454 597.257 378.826 588.018C335.001 567.5 315.998 522.683 323.271 482.896C330.536 443.147 364.046 408.351 425.445 407.923C452.967 407.707 471.66 405.296 485.694 401.172C499.742 397.045 509.101 391.209 517.958 384.184C521.417 381.441 524.797 378.519 528.352 375.447L528.356 375.443L528.364 375.436C542.975 362.805 560.522 347.635 598.482 331.938C645.626 312.444 702.629 317.044 745.299 337.578C787.969 358.11 816.142 394.471 806.05 438.462C795.846 468.335 795.299 487.498 801.917 511.242C805.22 523.092 810.306 536.08 816.847 552.1C818.086 555.134 819.378 558.278 820.719 561.544L820.742 561.6C826.481 575.569 833.139 591.776 840.552 611.242ZM657.059 659.989C690.223 672.87 728.304 668.292 755.561 653.933C769.193 646.752 780.151 637.108 786.427 625.936C792.71 614.751 794.287 602.049 789.164 588.828L789.163 588.825C775.028 553.079 766.031 529.159 761.833 509.121C757.641 489.113 758.234 472.977 763.309 452.805L763.315 452.779L763.319 452.752C768.451 416.092 746.082 387.836 713.096 372.026C680.114 356.219 636.418 352.787 598.604 365.778C567.424 376.49 553.698 388.317 541.883 398.497C539.379 400.655 536.96 402.739 534.48 404.723C527.408 410.377 519.822 415.227 508.252 418.697C496.668 422.172 481.069 424.269 457.968 424.376C431.077 424.484 411.083 431.385 397.235 442.282C383.386 453.182 375.724 468.051 373.452 484.015C368.912 515.92 385.895 552.215 418.012 570.124L418.02 570.128C432.329 577.789 440.151 585.15 445.167 592.236C448.904 597.515 451.088 602.637 453.244 607.694C453.993 609.449 454.738 611.197 455.544 612.941C458.665 619.695 462.653 626.268 471.188 632.654C479.706 639.027 492.726 645.195 513.874 651.212C533.312 656.739 553.626 655.045 574.702 653.287C577.252 653.075 579.813 652.861 582.385 652.659C606.249 650.787 631.117 649.913 657.059 659.989ZM785.555 625.446C791.703 614.502 793.239 602.112 788.232 589.191C774.105 553.465 765.073 529.463 760.854 509.326C756.631 489.167 757.23 472.882 762.332 452.587C767.369 416.516 745.4 388.618 712.664 372.928C679.915 357.232 636.49 353.82 598.929 366.724C567.939 377.371 554.347 389.08 542.546 399.247C540.035 401.411 537.604 403.505 535.104 405.504C527.961 411.215 520.263 416.139 508.539 419.655C496.828 423.167 481.124 425.269 457.972 425.376C431.249 425.484 411.487 432.339 397.854 443.068C384.223 453.795 376.681 468.424 374.442 484.156C369.962 515.642 386.734 551.536 418.496 569.248C432.91 576.967 440.861 584.421 445.984 591.658C449.788 597.032 452.03 602.292 454.196 607.373C454.937 609.111 455.669 610.828 456.452 612.521C459.527 619.178 463.425 625.597 471.787 631.853C480.167 638.123 493.055 644.249 514.148 650.25C533.398 655.724 553.521 654.048 574.624 652.29L574.643 652.288C577.183 652.077 579.738 651.864 582.307 651.662C606.19 649.788 631.254 648.893 657.421 659.056C690.288 671.822 728.067 667.287 755.095 653.048C768.607 645.93 779.399 636.406 785.555 625.446Z" fill="url(#paint0_linear_3907_54566)"/>
</g>
<defs>
<linearGradient id="paint0_linear_3907_54566" x1="46.1073" y1="357.551" x2="549.507" y2="281.062" gradientUnits="userSpaceOnUse">
<stop stop-color="#47484E"/>
<stop offset="1" stop-color="#474851" stop-opacity="0"/>
</linearGradient>
<clipPath id="clip0_3907_54566">
<rect width="600" height="554" fill="white"/>
</clipPath>
</defs>
</svg>
