<svg width="60" height="60" viewBox="0 0 60 60" fill="none" xmlns="http://www.w3.org/2000/svg">
<g filter="url(#filter0_dd_7491_43900)">
<path d="M25.9708 10.3111C28.1506 7.97872 31.8494 7.97872 34.0292 10.3111C35.1164 11.4743 36.6533 12.1109 38.2447 12.0572C41.4353 11.9493 44.0507 14.5647 43.9428 17.7553C43.889 19.3467 44.5257 20.8836 45.6889 21.9708C48.0213 24.1506 48.0213 27.8494 45.6889 30.0292C44.5257 31.1164 43.889 32.6533 43.9428 34.2447C44.0507 37.4353 41.4353 40.0507 38.2447 39.9428C36.6533 39.889 35.1164 40.5257 34.0292 41.6889C31.8494 44.0213 28.1506 44.0213 25.9708 41.6889C24.8836 40.5257 23.3467 39.889 21.7553 39.9428C18.5647 40.0507 15.9493 37.4353 16.0572 34.2447C16.1109 32.6533 15.4743 31.1164 14.3111 30.0292C11.9787 27.8494 11.9787 24.1506 14.3111 21.9708C15.4743 20.8836 16.1109 19.3467 16.0572 17.7553C15.9493 14.5647 18.5647 11.9493 21.7553 12.0572C23.3467 12.1109 24.8836 11.4743 25.9708 10.3111Z" fill="#44D2FF" fill-opacity="0.05" shape-rendering="crispEdges"/>
<path d="M26.3361 10.6525C28.3183 8.53159 31.6817 8.53159 33.6639 10.6525C34.8497 11.9212 36.526 12.6155 38.2616 12.5569C41.1629 12.4588 43.5412 14.8371 43.4431 17.7384C43.3845 19.474 44.0788 21.1503 45.3475 22.3361C47.4684 24.3183 47.4684 27.6817 45.3475 29.6639C44.0788 30.8497 43.3845 32.526 43.4431 34.2616C43.5412 37.1629 41.1629 39.5412 38.2616 39.4431C36.526 39.3845 34.8497 40.0788 33.6639 41.3475C31.6817 43.4684 28.3183 43.4684 26.3361 41.3475C25.1503 40.0788 23.474 39.3845 21.7384 39.4431C18.8371 39.5412 16.4588 37.1629 16.5569 34.2616C16.6155 32.526 15.9212 30.8497 14.6525 29.6639C12.5316 27.6817 12.5316 24.3183 14.6525 22.3361C15.9212 21.1503 16.6155 19.474 16.5569 17.7384C16.4588 14.8371 18.8371 12.4588 21.7384 12.5569C23.474 12.6155 25.1503 11.9212 26.3361 10.6525Z" stroke="#44D2FF" stroke-opacity="0.15" shape-rendering="crispEdges"/>
</g>
<path d="M23.25 30.575L25.9641 26.3646C26.9647 24.8125 29.3655 25.4322 29.49 27.2746V27.2746C29.6194 29.1915 32.1737 29.7487 33.0897 28.0599L36.6477 21.5M36.6477 21.5L33.3166 22.7375M36.6477 21.5L37.875 24.3875" stroke="#44D2FF" stroke-width="1.5" stroke-linecap="round"/>
<defs>
<filter id="filter0_dd_7491_43900" x="0.5625" y="0.561768" width="58.875" height="58.8765" filterUnits="userSpaceOnUse" color-interpolation-filters="sRGB">
<feFlood flood-opacity="0" result="BackgroundImageFix"/>
<feColorMatrix in="SourceAlpha" type="matrix" values="0 0 0 0 0 0 0 0 0 0 0 0 0 0 0 0 0 0 127 0" result="hardAlpha"/>
<feOffset dy="4"/>
<feGaussianBlur stdDeviation="6"/>
<feComposite in2="hardAlpha" operator="out"/>
<feColorMatrix type="matrix" values="0 0 0 0 0 0 0 0 0 0 0 0 0 0 0 0 0 0 0.075 0"/>
<feBlend mode="normal" in2="BackgroundImageFix" result="effect1_dropShadow_7491_43900"/>
<feColorMatrix in="SourceAlpha" type="matrix" values="0 0 0 0 0 0 0 0 0 0 0 0 0 0 0 0 0 0 127 0" result="hardAlpha"/>
<feOffset dy="2"/>
<feGaussianBlur stdDeviation="3"/>
<feComposite in2="hardAlpha" operator="out"/>
<feColorMatrix type="matrix" values="0 0 0 0 0 0 0 0 0 0 0 0 0 0 0 0 0 0 0.075 0"/>
<feBlend mode="normal" in2="effect1_dropShadow_7491_43900" result="effect2_dropShadow_7491_43900"/>
<feBlend mode="normal" in="SourceGraphic" in2="effect2_dropShadow_7491_43900" result="shape"/>
</filter>
</defs>
</svg>
