<svg width="490" height="10" viewBox="0 0 490 10" fill="none" xmlns="http://www.w3.org/2000/svg">
	<circle cx="5" cy="5" r="5" fill="#2D2E33" />
	<circle cx="25" cy="5" r="5" fill="#2D2E33" />
	<circle cx="45" cy="5" r="5" fill="#2D2E33" />
	<circle cx="65" cy="5" r="5" fill="#2D2E33" />
	<circle cx="85" cy="5" r="5" fill="#2D2E33" />
	<circle cx="105" cy="5" r="5" fill="#2D2E33" />
	<circle cx="125" cy="5" r="5" fill="#2D2E33" />
	<circle cx="145" cy="5" r="5" fill="#2D2E33" />
	<circle cx="165" cy="5" r="5" fill="#2D2E33" />
	<circle cx="185" cy="5" r="5" fill="#2D2E33" />
	<circle cx="205" cy="5" r="5" fill="#2D2E33" />
	<circle cx="225" cy="5" r="5" fill="#2D2E33" />
	<circle cx="245" cy="5" r="5" fill="#2D2E33" />
	<circle cx="265" cy="5" r="5" fill="#2D2E33" />
	<circle cx="285" cy="5" r="5" fill="#2D2E33" />
	<circle cx="305" cy="5" r="5" fill="#2D2E33" />
	<circle cx="325" cy="5" r="5" fill="#2D2E33" />
	<circle cx="345" cy="5" r="5" fill="#2D2E33" />
	<circle cx="365" cy="5" r="5" fill="#2D2E33" />
	<circle cx="385" cy="5" r="5" fill="#2D2E33" />
	<circle cx="405" cy="5" r="5" fill="#2D2E33" />
	<circle cx="425" cy="5" r="5" fill="#2D2E33" />
	<circle cx="445" cy="5" r="5" fill="#2D2E33" />
	<circle cx="465" cy="5" r="5" fill="#2D2E33" />
	<circle cx="485" cy="5" r="5" fill="#2D2E33" />
</svg>