<svg width="95" height="95" viewBox="0 0 95 95" fill="none" xmlns="http://www.w3.org/2000/svg">
<path d="M38.0046 4.46339C42.9453 -0.822938 51.3286 -0.822938 56.2693 4.46339L58.0005 6.31578C60.6619 9.1633 64.4241 10.7216 68.3194 10.59L70.8535 10.5044C78.0851 10.26 84.0129 16.1878 83.7685 23.4194L83.6829 25.9535C83.5512 29.8488 85.1096 33.611 87.9571 36.2723L89.8095 38.0036C95.0958 42.9443 95.0958 51.3276 89.8095 56.2683L87.9571 57.9996C85.1096 60.6609 83.5512 64.4231 83.6829 68.3185L83.7685 70.8525C84.0129 78.0841 78.0851 84.0119 70.8535 83.7675L68.3194 83.6819C64.4241 83.5503 60.6619 85.1086 58.0005 87.9561L56.2693 89.8085C51.3286 95.0948 42.9453 95.0948 38.0046 89.8085L36.2733 87.9561C33.612 85.1086 29.8498 83.5503 25.9544 83.6819L23.4204 83.7675C16.1888 84.0119 10.2609 78.0841 10.5053 70.8525L10.591 68.3185C10.7226 64.4231 9.16428 60.6609 6.31675 57.9996L4.46437 56.2683C-0.821961 51.3276 -0.821961 42.9443 4.46437 38.0036L6.31676 36.2723C9.16428 33.611 10.7226 29.8488 10.591 25.9535L10.5053 23.4194C10.2609 16.1878 16.1888 10.26 23.4204 10.5044L25.9544 10.59C29.8498 10.7216 33.612 9.1633 36.2733 6.31578L38.0046 4.46339Z" fill="#2D2E33" stroke="white"/>
<path d="M38.0046 4.46437C42.9453 -0.821961 51.3286 -0.821961 56.2693 4.46437L58.0005 6.31676C60.6619 9.16428 64.4241 10.7226 68.3194 10.591L70.8535 10.5053C78.0851 10.2609 84.0129 16.1888 83.7685 23.4204L83.6829 25.9544C83.5512 29.8498 85.1096 33.612 87.9571 36.2733L89.8095 38.0046C95.0958 42.9453 95.0958 51.3286 89.8095 56.2693L87.9571 58.0005C85.1096 60.6619 83.5512 64.4241 83.6829 68.3194L83.7685 70.8535C84.0129 78.0851 78.0851 84.0129 70.8535 83.7685L68.3194 83.6829C64.4241 83.5512 60.6619 85.1096 58.0005 87.9571L56.2693 89.8095C51.3286 95.0958 42.9453 95.0958 38.0046 89.8095L36.2733 87.9571C33.612 85.1096 29.8498 83.5512 25.9544 83.6829L23.4204 83.7685C16.1888 84.0129 10.2609 78.0851 10.5053 70.8535L10.591 68.3194C10.7226 64.4241 9.16428 60.6619 6.31675 58.0005L4.46437 56.2693C-0.821961 51.3286 -0.821961 42.9453 4.46437 38.0046L6.31676 36.2733C9.16428 33.612 10.7226 29.8498 10.591 25.9544L10.5053 23.4204C10.2609 16.1888 16.1888 10.2609 23.4204 10.5053L25.9544 10.591C29.8498 10.7226 33.612 9.16428 36.2733 6.31676L38.0046 4.46437Z" stroke="url(#paint0_linear_7564_40992)"/>
<path d="M62.9651 37.4873L40.8776 59.644L30.8379 49.5728" stroke="white" stroke-width="1.5" stroke-linecap="round" stroke-linejoin="round"/>
<path d="M62.9651 37.4883L40.8776 59.6449L30.8379 49.5737" stroke="url(#paint1_linear_7564_40992)" stroke-width="1.5" stroke-linecap="round" stroke-linejoin="round"/>
<defs>
<linearGradient id="paint0_linear_7564_40992" x1="103.636" y1="-6.03906" x2="-6.03906" y2="-6.03906" gradientUnits="userSpaceOnUse">
<stop stop-color="#6CF9D8" stop-opacity="0"/>
<stop offset="1" stop-color="#6CF9D8"/>
</linearGradient>
<linearGradient id="paint1_linear_7564_40992" x1="63.969" y1="37.4883" x2="30.8379" y2="37.4883" gradientUnits="userSpaceOnUse">
<stop stop-color="#6CF9D8" stop-opacity="0"/>
<stop offset="1" stop-color="#6CF9D8"/>
</linearGradient>
</defs>
</svg>
