<svg viewBox="0 0 48 48" fill="none" xmlns="http://www.w3.org/2000/svg">
<path d="M21.4745 4.4533C22.7051 2.70644 25.2949 2.70644 26.5255 4.4533C27.6633 6.06849 29.7932 6.6392 31.5862 5.80931C33.5253 4.91177 35.7682 6.20671 35.9605 8.33482C36.1383 10.3025 37.6975 11.8617 39.6652 12.0395C41.7933 12.2318 43.0882 14.4747 42.1907 16.4138C41.3608 18.2068 41.9315 20.3367 43.5467 21.4745C45.2936 22.7051 45.2936 25.2949 43.5467 26.5255C41.9315 27.6633 41.3608 29.7932 42.1907 31.5862C43.0882 33.5253 41.7933 35.7682 39.6652 35.9605C37.6975 36.1383 36.1383 37.6975 35.9605 39.6652C35.7682 41.7933 33.5253 43.0882 31.5862 42.1907C29.7932 41.3608 27.6633 41.9315 26.5255 43.5467C25.2949 45.2936 22.7051 45.2936 21.4745 43.5467C20.3367 41.9315 18.2068 41.3608 16.4138 42.1907C14.4747 43.0882 12.2318 41.7933 12.0395 39.6652C11.8617 37.6975 10.3025 36.1383 8.33482 35.9605C6.20671 35.7682 4.91177 33.5253 5.80931 31.5862C6.6392 29.7932 6.06849 27.6633 4.4533 26.5255C2.70644 25.2949 2.70644 22.7051 4.4533 21.4745C6.06849 20.3367 6.6392 18.2068 5.80931 16.4138C4.91177 14.4747 6.20671 12.2318 8.33482 12.0395C10.3025 11.8617 11.8617 10.3025 12.0395 8.33482C12.2318 6.20671 14.4747 4.91177 16.4138 5.80931C18.2068 6.6392 20.3367 6.06849 21.4745 4.4533Z" stroke="#9DAAB2"/>
<path d="M30.6666 20L21.5 29.1667L17.3333 25" stroke="#9DAAB2" stroke-linecap="round" stroke-linejoin="round"/>
</svg>
