<svg width="95" height="95" viewBox="0 0 95 95" fill="none" xmlns="http://www.w3.org/2000/svg">
<path d="M38.0046 4.46339C42.9453 -0.822938 51.3286 -0.822938 56.2693 4.46339L58.0005 6.31578C60.6619 9.1633 64.4241 10.7216 68.3194 10.59L70.8535 10.5044C78.0851 10.26 84.0129 16.1878 83.7685 23.4194L83.6829 25.9535C83.5512 29.8488 85.1096 33.611 87.9571 36.2723L89.8095 38.0036C95.0958 42.9443 95.0958 51.3276 89.8095 56.2683L87.9571 57.9996C85.1096 60.6609 83.5512 64.4231 83.6829 68.3185L83.7685 70.8525C84.0129 78.0841 78.0851 84.0119 70.8535 83.7675L68.3194 83.6819C64.4241 83.5503 60.6619 85.1086 58.0005 87.9561L56.2693 89.8085C51.3286 95.0948 42.9453 95.0948 38.0046 89.8085L36.2733 87.9561C33.612 85.1086 29.8498 83.5503 25.9544 83.6819L23.4204 83.7675C16.1888 84.0119 10.2609 78.0841 10.5053 70.8525L10.591 68.3185C10.7226 64.4231 9.16428 60.6609 6.31675 57.9996L4.46437 56.2683C-0.821961 51.3276 -0.821961 42.9443 4.46437 38.0036L6.31676 36.2723C9.16428 33.611 10.7226 29.8488 10.591 25.9535L10.5053 23.4194C10.2609 16.1878 16.1888 10.26 23.4204 10.5044L25.9544 10.59C29.8498 10.7216 33.612 9.1633 36.2733 6.31578L38.0046 4.46339Z" fill="#2D2E33" stroke="#9DAAB3"/>
<path d="M56.2688 89.8091C51.3281 95.0954 42.9449 95.0954 38.0042 89.8091L36.2729 87.9567C33.6116 85.1092 29.8494 83.5508 25.954 83.6825L23.42 83.7681C16.1884 84.0125 10.2605 78.0846 10.5049 70.853L10.5906 68.319C10.7222 64.4236 9.16387 60.6615 6.31633 58.0001L4.46395 56.2688C-0.822376 51.3281 -0.822375 42.9449 4.46395 38.0042L6.31634 36.2729C9.16387 33.6115 10.7222 29.8494 10.5906 25.954L10.5049 23.42C10.2605 16.1884 16.1884 10.2605 23.42 10.5049L25.954 10.5906C29.8494 10.7222 33.6116 9.16386 36.2729 6.31632L38.0042 4.46394C42.9449 -0.822385 51.3281 -0.822384 56.2688 4.46394L58.0001 6.31633C60.6615 9.16386 64.4236 10.7222 68.319 10.5906L70.853 10.5049C78.0846 10.2605 84.0125 16.1884 83.7681 23.42L83.6825 25.954C83.5508 29.8494 85.1092 33.6115 87.9567 36.2729L89.8091 38.0042C95.0954 42.9449 95.0954 51.3281 89.8091 56.2688L87.9567 58.0001C85.1092 60.6615 83.5508 64.4236 83.6825 68.319L83.7681 70.853C84.0125 78.0846 78.0846 84.0125 70.853 83.7681L68.319 83.6825C64.4236 83.5508 60.6615 85.1092 58.0001 87.9567L56.2688 89.8091Z" stroke="url(#paint0_linear_9191_53535)"/>
<path d="M62.9631 37.4873L40.8757 59.644L30.8359 49.5728" stroke="#9DAAB3" stroke-width="1.5" stroke-linecap="round" stroke-linejoin="round"/>
<path d="M62.9631 37.4883L40.8757 59.6449L30.8359 49.5737" stroke="url(#paint1_linear_9191_53535)" stroke-width="1.5" stroke-linecap="round" stroke-linejoin="round"/>
<defs>
<linearGradient id="paint0_linear_9191_53535" x1="-9.36299" y1="100.312" x2="100.312" y2="100.313" gradientUnits="userSpaceOnUse">
<stop stop-color="#F9D26C"/>
<stop offset="1" stop-color="white" stop-opacity="0"/>
</linearGradient>
<linearGradient id="paint1_linear_9191_53535" x1="29.498" y1="50.4999" x2="62.998" y2="36.9999" gradientUnits="userSpaceOnUse">
<stop stop-color="#F9D26C"/>
<stop offset="1" stop-color="white" stop-opacity="0"/>
</linearGradient>
</defs>
</svg>
