<svg width="85" height="85" viewBox="0 0 85 85" fill="none" xmlns="http://www.w3.org/2000/svg">
<path fill-rule="evenodd" clip-rule="evenodd" d="M51.4807 5.55853L51.7264 5.82141C54.4863 8.7744 58.3879 10.3905 62.4275 10.2539L62.7871 10.2418C69.7295 10.0072 75.4202 15.6979 75.1856 22.6403L75.1734 22.9999C75.0369 27.0395 76.653 30.941 79.6059 33.701L79.8688 33.9466C84.9437 38.6897 84.9437 46.7376 79.8688 51.4807L79.606 51.7264C76.653 54.4863 75.0369 58.3879 75.1734 62.4275L75.1856 62.7871C75.4202 69.7294 69.7295 75.4202 62.7871 75.1856L62.4275 75.1734C58.3879 75.0369 54.4863 76.653 51.7264 79.6059L51.4807 79.8688C46.7376 84.9437 38.6897 84.9437 33.9466 79.8688L33.701 79.606C30.941 76.653 27.0395 75.0369 22.9999 75.1734L22.6403 75.1856C15.6979 75.4202 10.0072 69.7295 10.2418 62.7871L10.2539 62.4275C10.3905 58.3879 8.7744 54.4863 5.82141 51.7264L5.55853 51.4807C0.483653 46.7376 0.483652 38.6897 5.55853 33.9466L5.82141 33.701C8.7744 30.941 10.3905 27.0395 10.2539 22.9999L10.2418 22.6403C10.0072 15.6979 15.6979 10.0072 22.6403 10.2418L22.9999 10.2539C27.0395 10.3905 30.941 8.7744 33.7009 5.82141L33.9466 5.55853C38.6897 0.483654 46.7376 0.483652 51.4807 5.55853ZM33.2161 4.87571C38.3544 -0.622073 47.073 -0.622075 52.2113 4.87571L52.457 5.13859C55.0198 7.88065 58.6426 9.38128 62.3937 9.25451L62.7533 9.24236C70.2742 8.98819 76.4392 15.1532 76.185 22.674L76.1729 23.0336C76.0461 26.7847 77.5467 30.4076 80.2888 32.9704L80.5517 33.2161C86.0494 38.3544 86.0494 47.073 80.5517 52.2113L80.2888 52.457C77.5467 55.0198 76.0461 58.6426 76.1729 62.3937L76.185 62.7533C76.4392 70.2742 70.2742 76.4392 62.7533 76.185L62.3937 76.1729C58.6426 76.0461 55.0198 77.5467 52.457 80.2888L52.2113 80.5517C47.073 86.0494 38.3544 86.0494 33.2161 80.5517L32.9704 80.2888C30.4076 77.5467 26.7847 76.0461 23.0336 76.1729L22.674 76.185C15.1532 76.4392 8.98819 70.2742 9.24236 62.7533L9.25451 62.3937C9.38128 58.6426 7.88066 55.0198 5.13859 52.457L4.87571 52.2113C-0.622074 47.073 -0.622075 38.3544 4.87571 33.2161L5.13859 32.9704C7.88065 30.4076 9.38128 26.7847 9.25451 23.0337L9.24236 22.674C8.98819 15.1532 15.1532 8.98819 22.674 9.24236L23.0336 9.25451C26.7847 9.38128 30.4076 7.88066 32.9704 5.13859L33.2161 4.87571ZM57.5312 34.5295C57.8236 34.2361 57.8229 33.7613 57.5295 33.4688C57.2361 33.1764 56.7613 33.1772 56.4688 33.4705L37.0625 52.9377L28.5312 44.3796C28.2387 44.0862 27.7639 44.0855 27.4705 44.3779C27.1771 44.6704 27.1764 45.1452 27.4688 45.4386L36.5313 54.5295C36.6721 54.6707 36.8632 54.75 37.0625 54.75C37.2618 54.75 37.4529 54.6707 37.5937 54.5295L57.5312 34.5295Z" fill="url(#paint0_linear_3907_53598)"/>
<defs>
<linearGradient id="paint0_linear_3907_53598" x1="78.7364" y1="113.713" x2="38.184" y2="115.291" gradientUnits="userSpaceOnUse">
<stop stop-color="#6CF9D8"/>
<stop offset="1" stop-color="#C4FFF1"/>
</linearGradient>
</defs>
</svg>
