<svg viewBox="0 0 218 200" fill="none" xmlns="http://www.w3.org/2000/svg">
<mask id="mask0_1844_129026" style="mask-type:alpha" maskUnits="userSpaceOnUse" x="0" y="0" width="218" height="200">
<path d="M158.046 0C137.752 0 119.845 10.1144 109 25.5477C98.1554 10.1144 80.2481 0 59.9538 0C26.8421 0 0.00830078 26.8338 0.00830078 59.9455C0.00830078 122.278 70.853 173.711 109 200C147.147 173.711 217.992 122.278 217.992 59.9455C217.992 26.8338 191.158 0 158.046 0Z" fill="black"/>
</mask>
<g mask="url(#mask0_1844_129026)">
<path d="M532.359 -160.301L531.816 -160.523L531.811 -160.512L531.807 -160.5L532.359 -160.301ZM387.92 -428.296L387.764 -428.862L387.92 -428.296ZM532.903 -160.078C560.198 -226.769 569.278 -306.384 548.859 -363.144C538.643 -391.542 521.029 -414.25 494.591 -426.712C468.16 -439.17 432.998 -441.345 387.764 -428.862L388.077 -427.731C433.135 -440.165 467.99 -437.952 494.091 -425.65C520.185 -413.35 537.618 -390.924 547.754 -362.747C568.041 -306.356 559.048 -227.057 531.816 -160.523L532.903 -160.078ZM387.764 -428.862C289.992 -401.881 249.103 -374.853 215.132 -361.408C198.155 -354.69 182.875 -351.342 162.991 -353.018C143.079 -354.697 118.524 -361.416 83.0083 -374.898L82.5917 -373.8C118.135 -360.308 142.814 -353.541 162.892 -351.848C182.996 -350.153 198.46 -353.548 215.564 -360.317C249.751 -373.846 290.363 -400.765 388.077 -427.731L387.764 -428.862ZM83.0083 -374.898C11.5837 -402.01 -57.8512 -361.013 -97.2331 -297.29C-136.619 -233.56 -146.117 -146.855 -97.493 -82.2175L-96.5548 -82.9233C-144.804 -147.063 -135.449 -233.221 -96.2344 -296.673C-57.0159 -360.131 11.8975 -400.635 82.5917 -373.8L83.0083 -374.898ZM-97.493 -82.2175C-49.0282 -17.7913 -14.1263 5.65385 8.85759 28.9268C20.344 40.5577 28.879 52.1601 34.7341 68.8607C40.5958 85.58 43.7836 107.443 44.5082 139.612L45.6819 139.586C44.9562 107.366 41.7632 85.3612 35.842 68.4723C29.9144 51.5647 21.2646 39.819 9.69292 28.1018C-13.4394 4.67857 -48.1467 -18.5725 -96.5548 -82.9233L-97.493 -82.2175ZM44.5082 139.612C45.2378 172.008 61.6186 200.792 86.5932 223.42C111.567 246.047 145.161 262.549 180.415 270.399C250.892 286.093 328.282 267.234 356.564 193.176L355.468 192.757C327.482 266.038 250.862 284.884 180.67 269.253C145.59 261.442 112.186 245.024 87.3815 222.55C62.5784 200.077 46.4024 171.579 45.6819 139.586L44.5082 139.612ZM356.564 193.176C370.599 156.425 387.931 136.136 406.525 124.819C425.128 113.497 445.07 111.108 464.442 110.312C474.095 109.915 483.687 109.912 492.793 109.384C501.924 108.855 510.674 107.796 518.767 105.264C526.867 102.73 534.31 98.7215 540.826 92.299C547.339 85.8785 552.901 77.0697 557.275 64.9687L556.17 64.5696C551.843 76.5418 546.365 85.1897 540.001 91.4629C533.64 97.7341 526.368 101.656 518.416 104.144C510.457 106.633 501.818 107.686 492.725 108.212C483.606 108.741 474.137 108.738 464.394 109.139C444.973 109.937 424.781 112.334 405.915 123.816C387.039 135.304 369.567 155.838 355.468 192.757L356.564 193.176ZM557.275 64.9687C574.756 16.6036 561.576 -20.4116 547.621 -54.9466C533.653 -89.5129 518.98 -121.485 532.911 -160.101L531.807 -160.5C517.696 -121.386 532.607 -88.9695 546.532 -54.5067C560.471 -20.0126 573.494 16.6419 556.17 64.5696L557.275 64.9687Z" fill="#6CF9D8"/>
<path d="M556.53 -166.669L555.987 -166.891L555.982 -166.88L555.978 -166.868L556.53 -166.669ZM401.001 -455.492L400.845 -456.057L401.001 -455.492ZM557.073 -166.447C586.462 -238.314 596.236 -324.104 574.254 -385.261C563.257 -415.857 544.298 -440.319 515.843 -453.742C487.395 -467.163 449.545 -469.508 400.845 -456.057L401.157 -454.926C449.682 -468.328 487.225 -465.945 515.342 -452.681C543.453 -439.419 562.232 -415.239 573.15 -384.864C594.998 -324.076 585.312 -238.602 555.987 -166.891L557.073 -166.447ZM400.845 -456.057C295.567 -426.98 251.55 -397.855 214.961 -383.363C196.677 -376.121 180.216 -372.51 158.797 -374.318C137.351 -376.127 110.905 -383.371 72.6614 -397.9L72.2444 -396.803C110.516 -382.263 137.085 -374.972 158.698 -373.148C180.338 -371.322 196.982 -374.979 215.394 -382.271C252.198 -396.849 295.939 -425.864 401.157 -454.926L400.845 -456.057ZM72.6614 -397.9C-4.21967 -427.109 -78.966 -382.945 -121.365 -314.28C-163.769 -245.608 -173.99 -152.187 -121.647 -82.5454L-120.709 -83.2508C-172.677 -152.394 -162.598 -245.27 -120.366 -313.663C-78.1301 -382.064 -3.90546 -425.734 72.2444 -396.803L72.6614 -397.9ZM-121.647 -82.5454C-69.4636 -13.1153 -31.8894 12.1443 -7.13509 37.2317C5.23656 49.7698 14.4314 62.2794 20.7389 80.286C27.053 98.3112 30.4858 121.879 31.266 156.55L32.4397 156.524C31.6584 121.802 28.2204 98.0927 21.8469 79.8979C15.4669 61.6845 6.15746 49.0316 -6.29939 36.4071C-31.2021 11.1694 -68.5818 -13.8961 -120.709 -83.2508L-121.647 -82.5454ZM31.266 156.55C32.0513 191.448 49.6818 222.457 76.5674 246.838C103.452 271.217 139.619 288.999 177.573 297.458C253.45 314.369 336.753 294.045 367.195 214.261L366.098 213.842C335.953 292.848 253.42 313.159 177.828 296.312C140.048 287.891 104.072 270.195 77.3561 245.968C50.6419 221.743 33.2159 191.019 32.4397 156.524L31.266 156.55ZM367.195 214.261C382.31 174.648 400.978 152.772 421.011 140.569C441.052 128.361 462.535 125.787 483.396 124.928C493.793 124.5 504.117 124.497 513.923 123.929C523.754 123.359 533.171 122.217 541.881 119.49C550.597 116.761 558.605 112.444 565.615 105.528C572.623 98.6146 578.608 89.1275 583.316 76.0911L582.212 75.6924C577.55 88.5999 571.649 97.9261 564.79 104.693C557.934 111.457 550.098 115.687 541.53 118.37C532.955 121.054 523.648 122.189 513.855 122.757C504.037 123.326 493.836 123.323 483.348 123.755C462.437 124.616 440.705 127.198 420.4 139.567C400.086 151.941 381.277 174.061 366.098 213.842L367.195 214.261ZM583.316 76.0911C602.133 23.9846 587.948 -15.893 572.922 -53.1102C557.883 -90.3587 542.074 -124.833 557.082 -166.47L555.978 -166.868C540.79 -124.734 556.836 -89.8158 571.833 -52.6707C586.842 -15.4944 600.871 24.0229 582.212 75.6924L583.316 76.0911Z" fill="#6CF9D8"/>
<path d="M580.707 -172.886L580.163 -173.108L580.158 -173.097L580.154 -173.085L580.707 -172.886ZM414.085 -482.682L413.929 -483.248L414.085 -482.682ZM581.25 -172.664C612.732 -249.744 623.2 -341.753 599.656 -407.337C587.877 -440.146 567.572 -466.374 537.1 -480.767C506.635 -495.157 466.096 -497.674 413.929 -483.248L414.242 -482.116C466.234 -496.494 506.465 -493.939 536.599 -479.706C566.727 -465.476 586.851 -439.53 598.551 -406.94C621.963 -341.725 611.582 -250.032 580.163 -173.108L581.25 -172.664ZM413.929 -483.248C301.146 -452.059 253.999 -420.824 214.793 -405.276C195.2 -397.506 177.559 -393.632 154.604 -395.571C131.623 -397.513 103.287 -405.284 62.3148 -420.869L61.8974 -419.772C102.897 -404.176 131.357 -396.357 154.506 -394.401C177.681 -392.443 195.506 -396.364 215.226 -404.185C254.647 -419.818 301.518 -450.944 414.242 -482.116L413.929 -483.248ZM62.3148 -420.869C-20.0236 -452.189 -100.082 -404.835 -145.499 -331.193C-190.921 -257.545 -201.865 -157.36 -145.804 -82.6795L-144.865 -83.3843C-200.553 -157.567 -189.75 -257.207 -144.5 -330.577C-99.2455 -403.955 -19.7089 -450.813 61.8974 -419.772L62.3148 -420.869ZM-145.804 -82.6795C-89.9003 -8.21035 -49.6534 18.8766 -23.1283 45.7911C-9.87129 59.2428 -0.0165568 72.6661 6.74345 91.9878C13.51 111.328 17.1878 136.613 18.0237 173.803L19.1974 173.777C18.3604 136.536 14.6774 111.11 7.85161 91.6001C1.01927 72.0717 -8.94997 58.5051 -22.2921 44.9671C-48.9655 17.902 -89.0181 -8.99059 -144.865 -83.3843L-145.804 -82.6795ZM18.0237 173.803C18.8647 211.22 37.745 244.471 66.542 270.617C95.3375 296.761 134.077 315.831 174.732 324.902C256.011 343.039 345.227 321.24 377.83 235.69L376.733 235.272C344.426 320.044 255.98 341.83 174.988 323.757C134.507 314.724 95.958 295.739 67.3312 269.748C38.7057 243.758 20.0293 210.792 19.1974 173.777L18.0237 173.803ZM377.83 235.69C394.025 193.195 414.03 169.721 435.501 156.627C456.981 143.526 480.005 140.764 502.355 139.843C513.497 139.384 524.553 139.381 535.058 138.771C545.589 138.16 555.674 136.936 565 134.012C583.704 128.149 599.268 115.476 609.364 87.4879L608.259 87.0896C598.279 114.758 582.978 127.146 564.649 132.892C555.457 135.773 545.483 136.99 534.99 137.599C524.472 138.21 513.54 138.207 502.307 138.67C479.907 139.593 456.633 142.363 434.889 155.624C413.137 168.891 392.992 192.608 376.733 235.272L377.83 235.69ZM609.364 87.4879C629.517 31.6137 614.325 -11.1464 598.229 -51.0648C582.119 -91.0143 565.173 -128.008 581.259 -172.687L580.154 -173.085C563.89 -127.91 581.072 -90.4721 597.14 -50.6257C613.22 -10.7483 628.255 31.6519 608.259 87.0896L609.364 87.4879Z" fill="#6CF9D8"/>
<path d="M604.875 -179.102L604.331 -179.324L604.327 -179.313L604.323 -179.301L604.875 -179.102ZM427.162 -509.872L427.005 -510.438L427.162 -509.872ZM605.418 -178.88C638.995 -261.173 650.156 -359.4 625.049 -429.412C612.489 -464.435 590.839 -492.429 558.349 -507.791C525.867 -523.15 482.64 -525.839 427.005 -510.438L427.318 -509.306C482.777 -524.659 525.697 -521.932 557.848 -506.73C589.992 -491.531 611.463 -463.819 623.944 -429.015C648.919 -359.373 637.844 -261.461 604.331 -179.324L605.418 -178.88ZM427.005 -510.438C306.716 -477.138 256.439 -443.791 214.617 -427.188C193.716 -418.891 174.894 -414.752 150.404 -416.824C125.887 -418.897 95.6608 -427.196 51.96 -443.837L51.5423 -442.739C95.2707 -426.088 125.621 -417.742 150.305 -415.654C175.016 -413.564 194.021 -417.749 215.05 -426.097C257.088 -442.786 307.088 -476.023 427.318 -509.306L427.005 -510.438ZM51.96 -443.837C-35.8358 -477.268 -121.207 -426.724 -169.641 -348.106C-218.081 -269.481 -229.749 -162.532 -169.968 -82.8127L-169.029 -83.5171C-228.437 -162.739 -216.91 -269.143 -168.642 -347.49C-120.369 -425.845 -35.5205 -475.892 51.5423 -442.739L51.96 -443.837ZM-169.968 -82.8127C-110.345 -3.3045 -67.4256 25.6098 -39.1298 54.3515C-24.9874 68.7167 -14.4727 83.0537 -7.26021 103.691C-0.0411562 124.346 3.88163 151.347 4.77323 191.057L5.94694 191.031C5.05424 151.271 1.12626 124.128 -6.15193 103.303C-13.4367 82.4597 -24.0656 67.9796 -38.2932 53.5278C-66.7372 24.6356 -109.463 -4.08428 -169.029 -83.5171L-169.968 -82.8127ZM4.77323 191.057C5.6699 230.993 25.8001 266.486 56.5083 294.397C87.2152 322.306 128.527 342.663 171.883 352.348C258.564 371.711 353.693 348.435 388.456 257.121L387.359 256.703C352.892 347.24 258.532 370.501 172.139 351.202C128.957 341.557 87.8362 321.284 57.298 293.528C26.7612 265.773 6.83457 230.566 5.94694 191.031L4.77323 191.057ZM388.456 257.121C405.732 211.742 427.073 186.672 449.983 172.685C472.901 158.692 497.466 155.743 521.306 154.759C533.193 154.269 544.981 154.266 556.186 153.615C567.417 152.962 578.169 151.655 588.111 148.535C608.049 142.279 624.64 128.757 635.403 98.8857L634.299 98.4876C623.65 128.04 607.322 141.277 587.76 147.415C577.952 150.493 567.31 151.793 556.118 152.443C544.9 153.095 533.236 153.092 521.258 153.586C497.368 154.572 472.553 157.529 449.371 171.683C426.179 185.842 404.698 211.156 387.359 256.703L388.456 257.121ZM635.403 98.8857C656.893 39.2437 640.695 -6.39896 623.527 -49.0185C606.347 -91.6691 588.265 -131.183 605.427 -178.904L604.323 -179.301C586.982 -131.084 605.299 -91.1274 622.438 -48.5798C639.59 -6.00125 655.631 39.2818 634.299 98.4876L635.403 98.8857Z" fill="#6CF9D8"/>
<path d="M630.1 -185.582L629.556 -185.804L629.552 -185.792L629.547 -185.781L630.1 -185.582ZM440.812 -538.199L440.656 -538.765L440.812 -538.199ZM630.643 -185.361C666.404 -273.084 678.29 -377.788 651.552 -452.411C638.176 -489.741 615.122 -519.575 580.528 -535.946C545.94 -552.314 499.908 -555.182 440.656 -538.765L440.969 -537.633C500.045 -554.002 545.77 -551.096 580.026 -534.885C614.275 -518.677 637.15 -489.125 650.446 -452.015C677.053 -377.76 665.253 -273.371 629.556 -185.804L630.643 -185.361ZM440.656 -538.765C312.534 -503.266 258.992 -467.721 214.439 -450.018C192.172 -441.171 172.119 -436.758 146.026 -438.967C119.907 -441.178 87.7086 -450.026 41.1606 -467.766L40.7426 -466.669C87.3182 -448.918 119.641 -440.022 145.927 -437.797C172.241 -435.569 192.478 -440.029 214.872 -448.927C259.641 -466.715 312.906 -502.151 440.969 -537.633L440.656 -538.765ZM41.1606 -467.766C-52.3297 -503.397 -143.244 -449.53 -194.828 -365.728C-246.416 -281.919 -258.84 -167.924 -195.178 -82.9562L-194.238 -83.6602C-257.528 -168.131 -245.245 -281.582 -193.828 -365.113C-142.406 -448.651 -52.014 -502.02 40.7426 -466.669L41.1606 -467.766ZM-195.178 -82.9562C-131.673 1.80109 -85.9648 32.6187 -55.8212 63.2638C-40.755 78.5807 -29.5517 93.8693 -21.867 115.876C-14.1759 137.902 -9.9974 166.691 -9.04769 209.026L-7.87398 208.999C-8.82479 166.615 -13.0084 137.684 -20.7586 115.489C-28.5154 93.2758 -39.8328 77.844 -54.9842 62.4406C-85.276 31.6448 -130.79 1.02167 -194.238 -83.6602L-195.178 -82.9562ZM-9.04769 209.026C-8.09298 251.586 13.3415 289.414 46.0442 319.162C78.7454 348.91 122.742 370.61 168.916 380.933C261.233 401.573 362.533 376.76 399.55 279.44L398.453 279.022C361.731 375.565 261.201 400.363 169.172 379.787C123.172 369.503 79.3669 347.888 46.8342 318.294C14.303 288.701 -6.92825 251.159 -7.87398 208.999L-9.04769 209.026ZM399.55 279.44C417.953 231.058 440.689 204.324 465.1 189.407C489.52 174.485 515.692 171.341 541.087 170.292C553.75 169.77 566.302 169.767 578.237 169.072C590.198 168.377 601.648 166.984 612.233 163.659C633.457 156.993 651.12 142.588 662.58 110.754L661.476 110.356C650.13 141.871 632.729 155.991 611.881 162.539C601.431 165.821 590.092 167.207 578.169 167.9C566.221 168.595 553.793 168.593 541.038 169.119C515.594 170.17 489.171 173.322 464.488 188.405C439.795 203.494 416.919 230.472 398.453 279.022L399.55 279.44ZM662.58 110.754C685.464 47.1868 668.217 -1.45853 649.931 -46.8918C631.634 -92.356 612.366 -134.494 630.652 -185.384L629.547 -185.781C611.083 -134.396 630.586 -91.8147 648.842 -46.4534C667.111 -1.06119 684.203 47.2249 661.476 110.356L662.58 110.754Z" fill="#6CF9D8"/>
<path d="M652.169 -191.283L651.625 -191.505L651.62 -191.493L651.616 -191.482L652.169 -191.283ZM452.754 -563.126L452.597 -563.692L452.754 -563.126ZM652.712 -191.062C690.385 -283.564 702.904 -393.968 674.739 -472.65C660.65 -512.008 636.367 -543.461 599.931 -560.721C563.502 -577.977 515.015 -581.002 452.597 -563.692L452.911 -562.56C515.152 -579.822 563.332 -576.759 599.429 -559.66C635.52 -542.564 659.623 -511.394 673.634 -472.254C701.667 -393.94 689.234 -283.851 651.625 -191.505L652.712 -191.062ZM452.597 -563.692C317.622 -526.258 261.222 -488.777 214.28 -470.107C190.818 -460.776 169.687 -456.121 142.193 -458.451C114.672 -460.783 80.7476 -470.115 31.7086 -488.823L31.2901 -487.726C80.3569 -469.008 114.406 -459.627 142.094 -457.281C169.809 -454.933 191.124 -459.634 214.714 -469.016C261.873 -487.772 317.995 -525.143 452.911 -562.56L452.597 -563.692ZM31.7086 -488.823C-66.7646 -526.388 -162.529 -469.598 -216.868 -381.234C-271.212 -292.863 -284.297 -172.668 -217.239 -83.0812L-216.299 -83.7847C-282.985 -172.875 -270.041 -292.526 -215.868 -380.619C-161.69 -468.72 -66.4484 -525.011 31.2901 -487.726L31.7086 -488.823ZM-217.239 -83.0812C-150.338 6.29526 -102.189 38.7879 -70.429 71.1079C-54.5543 87.2623 -42.7485 103.388 -34.6507 126.601C-26.5464 149.832 -22.1442 180.195 -21.1437 224.839L-19.97 224.813C-20.9716 180.118 -25.379 149.614 -33.5423 126.214C-41.712 102.795 -53.6319 86.526 -69.5916 70.2851C-101.5 37.8144 -149.455 5.51627 -216.299 -83.7847L-217.239 -83.0812ZM-21.1437 224.839C-20.1381 269.709 2.43747 309.591 36.8853 340.958C71.3316 372.323 117.677 395.204 166.317 406.089C263.566 427.852 370.265 401.687 409.255 299.081L408.157 298.664C369.463 400.492 263.533 426.642 166.573 404.943C118.108 394.097 71.9535 371.302 37.6757 340.09C3.39945 308.879 -18.9734 269.282 -19.97 224.813L-21.1437 224.839ZM409.255 299.081C428.644 248.057 452.6 219.858 478.325 204.124C504.058 188.385 531.638 185.068 558.392 183.963C571.736 183.411 584.955 183.409 597.53 182.676C610.13 181.943 622.189 180.474 633.337 176.969C655.686 169.943 674.287 154.76 686.357 121.199L685.253 120.801C673.297 154.043 654.958 168.941 632.985 175.849C621.971 179.311 610.023 180.773 597.462 181.504C584.874 182.237 571.778 182.234 558.343 182.79C531.54 183.897 503.709 187.221 477.712 203.123C451.706 219.029 427.61 247.472 408.157 298.664L409.255 299.081ZM686.357 121.199C710.462 54.178 692.296 2.89038 673.032 -45.0189C653.757 -92.959 633.452 -137.407 652.721 -191.085L651.616 -191.482C632.169 -137.309 652.709 -92.4183 671.943 -44.5809C691.19 3.28741 709.2 54.2161 685.253 120.801L686.357 121.199Z" fill="#6CF9D8"/>
<path d="M679.495 -198.272L678.951 -198.494L678.946 -198.482L678.942 -198.471L679.495 -198.272ZM467.541 -593.71L467.384 -594.276L467.541 -593.71ZM680.038 -198.051C720.078 -296.418 733.381 -413.818 703.449 -497.48C688.477 -539.329 662.673 -572.769 623.957 -591.119C585.248 -609.465 533.721 -612.684 467.384 -594.276L467.698 -593.145C533.859 -611.503 585.077 -608.247 623.454 -590.058C661.825 -571.872 687.45 -538.715 702.344 -497.085C732.144 -413.79 718.927 -296.705 678.951 -198.494L680.038 -198.051ZM467.384 -594.276C323.924 -554.467 263.987 -514.612 214.086 -494.754C189.145 -484.83 166.68 -479.878 137.45 -482.356C108.193 -484.836 72.1318 -494.762 20.0084 -514.657L19.5897 -513.56C71.7408 -493.655 107.927 -483.681 137.351 -481.186C166.802 -478.689 189.451 -483.688 214.52 -493.664C264.637 -513.607 324.297 -553.353 467.698 -593.145L467.384 -594.276ZM20.0084 -514.657C-84.6337 -554.598 -186.403 -494.219 -244.154 -400.257C-301.91 -306.288 -315.812 -178.483 -244.55 -83.2269L-243.61 -83.9301C-314.501 -178.69 -300.739 -305.951 -243.154 -399.642C-185.564 -493.342 -84.3173 -553.221 19.5897 -513.56L20.0084 -514.657ZM-244.55 -83.2269C-173.444 11.8185 -122.274 46.3669 -88.512 80.7425C-71.6366 97.9247 -59.0849 115.079 -50.4756 139.771C-41.8598 164.481 -37.1806 196.775 -36.1172 244.254L-34.9434 244.228C-36.0081 196.699 -40.6923 164.264 -49.367 139.384C-58.0482 114.486 -70.7139 97.1887 -87.6745 79.9199C-121.585 45.3935 -172.561 11.0398 -243.61 -83.9301L-244.55 -83.2269ZM-36.1172 244.254C-35.0487 291.958 -11.06 334.362 25.5484 367.714C62.1553 401.065 111.409 425.394 163.101 436.969C266.456 460.112 379.841 432.286 421.272 323.195L420.175 322.778C379.038 431.092 266.424 458.901 163.358 435.823C111.84 424.288 62.7774 400.044 26.339 366.846C-10.0979 333.65 -33.8839 291.531 -34.9434 244.228L-36.1172 244.254ZM421.272 323.195C441.883 268.928 467.35 238.932 494.701 222.194C522.06 205.45 551.382 201.923 579.82 200.747C594.005 200.161 608.053 200.158 621.418 199.379C634.809 198.599 647.623 197.037 659.468 193.312C683.211 185.843 702.973 169.706 715.798 134.025L714.694 133.628C701.983 168.989 682.482 184.842 659.115 192.192C647.405 195.875 634.702 197.429 621.35 198.207C607.972 198.987 594.048 198.984 579.771 199.574C551.284 200.752 521.712 204.287 494.088 221.192C466.455 238.103 440.849 268.343 420.175 322.778L421.272 323.195ZM715.798 134.025C741.413 62.7658 722.11 8.2352 701.636 -42.7129C681.15 -93.6917 659.561 -140.974 680.047 -198.074L678.942 -198.471C658.278 -140.876 680.102 -93.1513 700.547 -42.2751C721.004 8.63193 740.152 62.8038 714.694 133.628L715.798 134.025Z" fill="#6CF9D8"/>
<path d="M701.567 -203.979L701.023 -204.2L701.019 -204.189L701.014 -204.177L701.567 -203.979ZM479.486 -618.643L479.329 -619.208L479.486 -618.643ZM702.111 -203.758C744.061 -306.903 757.998 -430.004 726.64 -517.725C710.954 -561.603 683.921 -596.662 643.364 -615.9C602.812 -635.134 548.831 -638.51 479.329 -619.208L479.643 -618.077C548.969 -637.33 602.642 -633.916 642.861 -614.839C683.073 -595.765 709.927 -560.989 725.534 -517.33C756.761 -429.976 742.91 -307.19 701.023 -204.2L702.111 -203.758ZM479.329 -619.208C329.015 -577.465 266.221 -535.674 213.93 -514.849C187.795 -504.441 164.252 -499.247 133.62 -501.846C102.962 -504.448 65.1739 -514.857 10.5593 -535.72L10.1403 -534.623C64.7827 -513.75 102.694 -503.292 133.521 -500.676C164.374 -498.059 188.101 -503.299 214.365 -513.759C266.872 -534.67 329.388 -576.35 479.643 -618.077L479.329 -619.208ZM10.5593 -535.72C-99.0655 -577.596 -205.685 -514.293 -266.191 -415.769C-326.703 -317.238 -341.266 -183.233 -266.607 -83.3577L-265.667 -84.0606C-339.955 -183.439 -325.532 -316.901 -265.191 -415.155C-204.846 -513.416 -98.7487 -576.218 10.1403 -534.623L10.5593 -535.72ZM-266.607 -83.3577C-192.106 16.3069 -138.496 52.5302 -103.117 88.5808C-85.4329 106.6 -72.2786 124.592 -63.2562 150.489C-54.2273 176.406 -49.3244 210.273 -48.2101 260.062L-47.0364 260.035C-48.1518 210.197 -53.0598 176.188 -62.1475 150.103C-71.2418 123.999 -84.5098 105.865 -102.279 87.7585C-137.806 51.5571 -191.222 15.5285 -265.667 -84.0606L-266.607 -83.3577ZM-48.2101 260.062C-47.0908 310.075 -21.9609 354.533 16.3926 389.503C54.7446 424.472 106.347 449.983 160.505 462.119C268.792 486.385 387.576 457.207 430.98 342.831L429.882 342.414C386.773 456.013 268.759 485.175 160.762 460.973C106.778 448.876 55.3672 423.451 17.1836 388.636C-20.9984 353.822 -45.9261 309.649 -47.0364 260.035L-48.2101 260.062ZM430.98 342.831C452.577 285.921 479.264 254.461 507.928 236.905C536.602 219.343 567.33 215.645 597.128 214.412C611.994 213.797 626.709 213.794 640.714 212.977C654.744 212.159 668.167 210.522 680.575 206.616C705.443 198.787 726.143 181.872 739.579 144.464L738.474 144.067C725.153 181.156 704.714 197.786 680.222 205.496C667.949 209.359 654.637 210.99 640.645 211.805C626.628 212.623 612.037 212.62 597.08 213.239C567.232 214.474 536.253 218.181 507.315 235.904C478.369 253.632 451.543 285.337 429.882 342.414L430.98 342.831ZM739.579 144.464C766.414 69.7511 746.192 12.5782 724.74 -40.8459C703.276 -94.3008 680.65 -143.893 702.119 -203.781L701.014 -204.177C679.367 -143.795 702.228 -93.7607 723.651 -40.4084C745.086 12.9747 765.153 69.7892 738.474 144.067L739.579 144.464Z" fill="#6CF9D8"/>
<path d="M727.838 -210.722L727.295 -210.943L727.29 -210.932L727.286 -210.92L727.838 -210.722ZM493.701 -648.107L493.544 -648.673L493.701 -648.107ZM728.382 -210.501C772.609 -319.294 787.3 -449.131 754.242 -541.648C737.707 -587.925 709.212 -624.897 666.462 -645.185C623.718 -665.469 566.815 -669.031 493.544 -648.673L493.858 -647.542C566.952 -667.85 623.547 -664.251 665.959 -644.124C708.364 -624 736.68 -587.311 753.137 -541.253C786.063 -449.103 771.458 -319.58 727.295 -210.943L728.382 -210.501ZM493.544 -648.673C335.071 -604.642 268.875 -560.565 213.74 -538.596C186.183 -527.616 161.357 -522.137 129.056 -524.879C96.7284 -527.623 56.8859 -538.604 -0.6944 -560.61L-1.11347 -559.514C56.4946 -537.497 96.4612 -526.467 128.957 -523.709C161.479 -520.948 186.489 -526.475 214.175 -537.506C269.526 -559.56 335.445 -603.528 493.858 -647.542L493.544 -648.673ZM-0.6944 -560.61C-116.251 -604.773 -228.645 -538.015 -292.431 -434.1C-356.223 -330.177 -371.573 -188.845 -292.871 -83.5106L-291.931 -84.2133C-370.262 -189.051 -355.052 -329.841 -291.431 -433.486C-227.805 -537.139 -115.934 -603.395 -1.11347 -559.514L-0.6944 -560.61ZM-292.871 -83.5106C-214.327 21.613 -157.811 59.8158 -120.508 97.8459C-101.862 116.855 -87.99 135.836 -78.4759 163.159C-68.9552 190.5 -63.786 226.227 -62.6112 278.745L-61.4375 278.719C-62.6134 226.151 -67.7877 190.282 -77.3672 162.773C-86.9531 135.244 -100.938 116.12 -119.67 97.0238C-157.121 58.8429 -213.443 20.8348 -291.931 -84.2133L-292.871 -83.5106ZM-62.6112 278.745C-61.4313 331.488 -34.9428 378.374 5.48825 415.256C45.9178 452.137 100.316 479.043 157.41 491.843C271.568 517.437 396.779 486.661 442.532 366.039L441.434 365.622C395.977 485.467 271.535 516.227 157.667 490.698C100.748 477.936 46.5406 451.116 6.27951 414.389C-33.9801 377.663 -60.2665 331.061 -61.4375 278.719L-62.6112 278.745ZM442.532 366.039C465.303 306.006 493.443 272.815 523.671 254.292C553.908 235.764 586.312 231.863 617.729 230.562C633.404 229.913 648.915 229.911 663.68 229.049C678.47 228.186 692.619 226.459 705.697 222.341C731.905 214.086 753.722 196.251 767.884 156.803L766.779 156.407C752.732 195.536 731.176 213.085 705.344 221.221C692.402 225.297 678.363 227.017 663.611 227.877C648.834 228.739 633.447 228.737 617.68 229.389C586.213 230.692 553.559 234.601 523.058 253.291C492.547 271.987 464.269 305.422 441.434 365.622L442.532 366.039ZM767.884 156.803C796.172 78.0082 774.856 17.7123 752.24 -38.6379C729.612 -95.019 705.751 -147.341 728.391 -210.524L727.286 -210.92C704.469 -147.243 728.563 -94.4792 751.151 -38.2006C773.75 18.1086 794.91 78.0462 766.779 156.407L767.884 156.803Z" fill="#6CF9D8"/>
<path d="M755.164 -217.714L754.62 -217.935L754.616 -217.924L754.612 -217.912L755.164 -217.714ZM508.488 -678.694L508.331 -679.26L508.488 -678.694ZM755.708 -217.493C802.301 -332.151 817.777 -468.983 782.953 -566.482C765.534 -615.249 735.518 -654.208 690.488 -675.586C645.464 -696.96 585.521 -700.715 508.331 -679.26L508.645 -678.129C585.659 -699.534 645.293 -695.742 689.984 -674.525C734.669 -653.311 764.507 -614.635 781.847 -566.087C816.54 -468.955 801.15 -332.437 754.62 -217.935L755.708 -217.493ZM508.331 -679.26C341.373 -632.855 271.64 -586.402 213.546 -563.247C184.509 -551.673 158.349 -545.896 124.312 -548.787C90.2492 -551.679 48.2698 -563.254 -12.3949 -586.448L-12.8142 -585.351C47.8783 -562.147 89.9819 -550.524 124.213 -547.617C158.471 -544.708 184.816 -550.531 213.981 -562.156C272.291 -585.398 341.747 -631.74 508.645 -678.129L508.331 -679.26ZM-12.3949 -586.448C-134.12 -632.986 -252.519 -562.64 -319.717 -453.126C-386.92 -343.604 -403.089 -194.662 -320.183 -83.6592L-319.242 -84.3617C-401.778 -194.869 -385.749 -343.268 -318.717 -452.512C-251.679 -561.764 -133.803 -631.608 -12.8142 -585.351L-12.3949 -586.448ZM-320.183 -83.6592C-237.433 27.1335 -177.896 67.3919 -138.591 107.478C-118.944 127.515 -104.327 147.524 -94.301 176.325C-84.2688 205.146 -78.8227 242.804 -77.5849 298.157L-76.4112 298.131C-77.6501 242.728 -83.1013 204.929 -93.1922 175.94C-103.29 146.932 -118.021 126.78 -137.753 106.656C-177.206 66.4192 -236.549 26.3554 -319.242 -84.3617L-320.183 -83.6592ZM-77.5849 298.157C-76.3421 353.734 -48.4405 403.142 -5.84885 442.01C36.7412 480.876 94.048 509.231 154.195 522.721C274.458 549.694 406.355 517.257 454.549 390.149L453.452 389.733C405.552 516.064 274.425 548.483 154.452 521.575C94.4797 508.125 37.3642 479.855 -5.05753 441.143C-47.4776 402.432 -75.1773 353.308 -76.4112 298.131L-77.5849 298.157ZM454.549 390.149C478.541 326.873 508.192 291.885 540.047 272.359C571.91 252.827 606.056 248.715 639.156 247.344C655.673 246.66 672.012 246.657 687.568 245.75C703.15 244.84 718.054 243.02 731.828 238.68C759.43 229.984 782.408 211.195 797.325 169.627L796.22 169.23C781.417 210.479 758.701 228.983 731.475 237.561C717.836 241.858 703.043 243.67 687.499 244.578C671.931 245.486 655.716 245.483 639.108 246.171C605.957 247.544 571.561 251.664 539.433 271.358C507.297 291.057 477.507 326.289 453.452 389.733L454.549 390.149ZM797.325 169.627C827.123 86.593 804.671 23.0542 780.844 -36.3348C757.005 -95.7546 731.859 -150.911 755.717 -217.516L754.612 -217.912C730.577 -150.813 755.956 -95.2151 779.754 -35.8977C803.565 23.4504 825.862 86.631 796.22 169.23L797.325 169.627Z" fill="#6CF9D8"/>
<path d="M280.484 -108.295L280.999 -108.013L280.484 -108.295ZM247.379 -151.133L247.565 -150.576L247.379 -151.133ZM237.541 -17.0225L237.118 -17.4296L237.541 -17.0225ZM272.12 -54.9277L271.568 -55.1277L272.12 -54.9277ZM280.999 -108.013C287.084 -119.14 282.96 -131.554 275.265 -140.377C271.409 -144.797 266.628 -148.358 261.703 -150.451C256.782 -152.542 251.67 -153.186 247.193 -151.69L247.565 -150.576C251.688 -151.955 256.494 -151.389 261.244 -149.37C265.989 -147.354 270.629 -143.906 274.38 -139.605C281.898 -130.986 285.727 -119.105 279.969 -108.576L280.999 -108.013ZM247.193 -151.69C218.65 -142.148 199.057 -143.408 185.964 -143.408L185.964 -142.234C199.038 -142.234 218.815 -140.965 247.565 -150.576L247.193 -151.69ZM185.964 -143.408C168.349 -143.408 156.134 -135.641 149.331 -124.405C142.542 -113.193 141.174 -98.5879 145.099 -84.9297L146.227 -85.2539C142.378 -98.6471 143.74 -112.906 150.335 -123.797C156.915 -134.663 168.738 -142.234 185.964 -142.234L185.964 -143.408ZM145.099 -84.9297C147.064 -78.0939 149.654 -73.6255 152.445 -70.206C155.211 -66.8168 158.203 -64.4367 160.83 -61.8892C163.474 -59.326 165.849 -56.5127 167.574 -52.1278C169.305 -47.7301 170.397 -41.7117 170.397 -32.7237L171.571 -32.7237C171.571 -41.7986 170.47 -47.9764 168.667 -52.5577C166.859 -57.1518 164.362 -60.1005 161.648 -62.7321C158.917 -65.3796 156.065 -67.6272 153.354 -70.9483C150.668 -74.2392 148.15 -78.564 146.227 -85.2539L145.099 -84.9297ZM170.397 -32.7237C170.397 -21.6352 173.439 -13.808 178.372 -8.6472C183.304 -3.48897 190.055 -1.06803 197.331 -0.650424C211.85 0.182829 228.654 -6.94426 237.964 -16.6153L237.118 -17.4296C228.035 -7.99434 211.56 -1.00974 197.398 -1.82251C190.334 -2.22794 183.895 -4.56943 179.221 -9.45848C174.55 -14.3449 171.571 -21.8499 171.571 -32.7237L170.397 -32.7237ZM237.964 -16.6153C245.458 -24.4006 250.685 -24.9569 256.03 -28.1893C261.369 -31.4181 266.294 -37.1264 272.672 -54.7278L271.568 -55.1277C265.219 -37.6053 260.412 -32.2116 255.422 -29.1939C250.438 -26.18 244.739 -25.3456 237.118 -17.4296L237.964 -16.6153ZM272.672 -54.7278C273.911 -58.1475 274.363 -61.9819 274.528 -66.0826C274.692 -70.165 274.57 -74.6126 274.636 -79.1694C274.767 -88.3358 275.647 -98.2252 280.999 -108.013L279.969 -108.576C274.478 -98.5333 273.593 -88.41 273.462 -79.1862C273.395 -74.5479 273.518 -70.2058 273.355 -66.1297C273.192 -62.0719 272.746 -58.3789 271.568 -55.1277L272.672 -54.7278Z" fill="#6CF9D8"/>
<path d="M376.021 -403.102C541.752 -448.929 560.985 -278.657 510.338 -155.575C483.859 -83.1085 563.807 -34.8665 531.726 53.8853C498.929 144.617 398.649 38.5017 346.122 173.874C293.298 309.556 60.053 244.994 57.4162 123.931C54.7795 3.57668 14.6883 36.7273 -74.0846 -82.802C-162.858 -202.331 -39.311 -402.346 93.0554 -353.303C223.444 -304.261 195.702 -353.189 376.021 -403.102Z" stroke="#6CF9D8" stroke-width="1.17402"/>
<path d="M364.12 -377.909C514.999 -419.729 535.083 -263.791 488.317 -150.851C463.401 -83.6482 536.085 -38.2111 506.73 42.9997C475.939 128.171 385.013 31.3749 336.228 154.78C286.847 278.805 72.1099 221.611 69.7369 108.261C67.3638 -3.67018 29.5271 27.2463 -51.1459 -83.0352C-131.819 -193.317 -19.3038 -376.398 103.31 -332.259C221.968 -288.121 198.969 -332.03 364.12 -377.909Z" stroke="#6CF9D8" stroke-width="1.17402"/>
<path d="M352.22 -352.715C488.245 -390.526 509.181 -248.922 466.295 -146.126C442.943 -84.1861 508.363 -41.5536 481.732 32.1161C452.949 111.726 371.377 24.2501 326.333 135.688C280.395 248.055 84.1664 198.229 82.057 92.5935C79.9477 -10.9151 44.3655 17.7672 -28.2078 -83.2665C-100.781 -184.3 0.703003 -350.448 113.564 -311.214C220.492 -271.979 202.235 -310.869 352.22 -352.715Z" stroke="#6CF9D8" stroke-width="1.17402"/>
<path d="M340.321 -327.523C461.493 -361.327 483.281 -234.057 444.275 -141.403C422.487 -84.7265 480.644 -44.8989 456.737 21.2298C429.961 95.2793 357.744 17.1226 316.441 116.594C273.946 217.303 96.2252 174.845 94.3795 76.923C92.5338 -18.1627 59.2062 8.2855 -5.26728 -83.5004C-69.7407 -175.286 20.7121 -324.5 123.821 -290.17C219.018 -255.84 205.504 -289.711 340.321 -327.523Z" stroke="#6CF9D8" stroke-width="1.17402"/>
<path d="M327.815 -302.331C434.134 -332.127 456.773 -219.191 421.648 -136.679C401.423 -85.2666 452.317 -48.2438 431.135 10.344C406.365 78.8327 343.503 9.9955 305.941 97.4994C266.889 186.551 107.676 151.461 106.094 61.2531C104.512 -25.4099 73.4391 -1.19583 17.0655 -83.734C-39.308 -166.272 40.1134 -298.552 133.47 -269.127C216.936 -239.701 208.165 -268.552 327.815 -302.331Z" stroke="#6CF9D8" stroke-width="1.17402"/>
<path d="M314.599 -277.134C406.065 -302.922 429.555 -204.32 398.311 -131.951C379.649 -85.8025 423.28 -51.5844 404.823 -0.537644C382.06 62.3902 328.552 2.87263 294.731 78.4094C259.122 155.804 118.418 128.081 117.099 45.5872C115.781 -32.6529 86.9625 -10.6729 38.6887 -83.9633C-9.58503 -157.254 58.8051 -272.6 142.409 -248.079C214.145 -223.557 210.117 -247.389 314.599 -277.134Z" stroke="#6CF9D8" stroke-width="1.17402"/>
<path d="M301.345 -251.941C377.958 -273.722 402.299 -189.453 374.935 -127.227C357.838 -86.3418 394.204 -54.9285 378.472 -11.4227C357.717 45.9444 313.563 -4.25369 283.483 59.316C251.317 125.053 129.121 104.698 128.066 29.918C127.011 -39.8993 100.447 -20.1535 60.2735 -84.196C20.0996 -148.239 77.4585 -246.652 151.31 -227.034C211.315 -207.417 212.03 -226.23 301.345 -251.941Z" stroke="#6CF9D8" stroke-width="1.17402"/>
<path d="M288.029 -226.742C349.788 -244.516 374.981 -174.581 351.498 -122.498C335.964 -86.8759 365.067 -58.2673 352.059 -22.3026C333.311 29.5037 298.511 -11.3748 272.173 40.2278C243.45 94.3068 139.762 81.3202 138.971 14.254C138.18 -47.1405 113.87 -29.6288 81.7962 -84.4236C49.7222 -139.218 96.0497 -220.698 160.149 -205.985C208.424 -191.272 213.881 -205.065 288.029 -226.742Z" stroke="#6CF9D8" stroke-width="1.17402"/>
<path d="M274.63 -201.543C321.536 -215.309 347.581 -159.709 327.978 -117.767C314.007 -87.4093 335.847 -61.6055 325.564 -33.1818C308.823 13.0636 283.377 -18.4952 260.78 21.1402C235.5 63.5617 150.32 57.9429 149.793 -1.4094C149.266 -54.381 127.21 -39.1035 103.236 -84.6505C79.2621 -130.197 114.558 -194.743 168.905 -184.934C205.45 -175.126 215.649 -183.899 274.63 -201.543Z" stroke="#6CF9D8" stroke-width="1.17402"/>
<path d="M261.105 -176.347C293.158 -186.104 320.054 -144.838 304.332 -113.039C291.925 -87.9449 306.502 -64.9459 298.943 -44.0632C284.209 -3.37853 268.118 -25.6178 249.261 2.05049C227.425 32.8144 160.753 34.5635 160.489 -17.0749C160.226 -61.6237 140.425 -48.5803 124.551 -84.8795C108.676 -121.179 132.941 -168.791 177.535 -163.886C202.35 -158.982 217.292 -162.736 261.105 -176.347Z" stroke="#6CF9D8" stroke-width="1.17402"/>
</g>
</svg>
