<svg viewBox="0 0 180 200" fill="none" xmlns="http://www.w3.org/2000/svg">
<mask id="mask0_1529_120515" style="mask-type:alpha" maskUnits="userSpaceOnUse" x="0" y="0" width="180" height="200">
<path d="M88.3587 112.5V25C39.9216 25 0.655762 64.175 0.655762 112.5C0.655762 160.825 39.9216 200 88.3587 200C136.796 200 176.062 160.825 176.062 112.5C176.062 98.425 172.729 85.1375 166.815 73.3625L88.3587 112.5ZM179.344 48.3625C164.948 19.6875 135.23 0 100.888 0V87.5L179.344 48.3625Z" fill="black"/>
</mask>
<g mask="url(#mask0_1529_120515)">
<path d="M590.231 -189.989L589.688 -190.212L589.683 -190.2L589.679 -190.188L590.231 -189.989ZM428.449 -490.164L428.293 -490.73L428.449 -490.164ZM590.774 -189.767C621.344 -264.455 631.509 -353.612 608.646 -417.165C597.208 -448.959 577.49 -474.377 547.898 -488.325C518.313 -502.27 478.947 -504.709 428.293 -490.73L428.605 -489.598C479.084 -503.528 518.143 -501.052 547.398 -487.263C576.645 -473.477 596.183 -448.342 607.541 -416.768C630.271 -353.584 620.193 -264.744 589.688 -190.212L590.774 -189.767ZM428.293 -490.73C318.784 -460.509 273.003 -430.242 234.939 -415.179C215.917 -407.651 198.791 -403.897 176.505 -405.776C154.193 -407.658 126.682 -415.187 86.9003 -430.288L86.4836 -429.19C126.293 -414.079 153.928 -406.502 176.407 -404.607C198.912 -402.709 216.221 -406.509 235.371 -414.087C273.65 -429.236 319.155 -459.394 428.605 -489.598L428.293 -490.73ZM86.9003 -430.288C6.94342 -460.639 -70.7975 -414.749 -114.898 -343.39C-159.003 -272.024 -169.632 -174.941 -115.193 -102.573L-114.255 -103.279C-168.32 -175.15 -157.833 -271.686 -113.9 -342.773C-69.9622 -413.867 7.25714 -459.264 86.4836 -429.19L86.9003 -430.288ZM-115.193 -102.573C-60.9123 -30.4153 -21.8313 -4.16668 3.92119 21.9097C16.7919 34.9423 26.3587 47.9465 32.9212 66.6648C39.4903 85.4018 43.0611 109.899 43.8728 145.933L45.0465 145.907C44.2337 109.822 40.6576 85.183 34.0291 66.2764C27.394 47.3511 17.7125 34.2037 4.75652 21.0848C-21.1444 -5.14196 -60.0308 -31.1965 -114.255 -103.279L-115.193 -102.573ZM43.8728 145.933C44.6894 182.195 63.0248 214.418 90.988 239.754C118.95 265.088 156.567 283.567 196.043 292.357C274.965 309.932 361.602 288.809 393.262 205.905L392.165 205.486C360.802 287.613 274.936 308.722 196.299 291.211C156.996 282.459 119.569 264.065 91.7763 238.884C63.9847 213.703 45.8541 181.765 45.0465 145.907L43.8728 145.933ZM393.262 205.905C408.986 164.732 428.408 141.991 449.251 129.306C470.103 116.615 492.455 113.938 514.156 113.046C524.973 112.601 535.709 112.598 545.91 112.007C556.135 111.415 565.929 110.228 574.985 107.395C584.049 104.56 592.376 100.075 599.664 92.8906C606.951 85.708 613.175 75.8511 618.072 62.3049L616.968 61.9058C612.118 75.3232 605.977 85.0191 598.84 92.0544C591.705 99.0877 583.55 103.486 574.635 106.275C565.712 109.066 556.029 110.245 545.842 110.835C535.629 111.427 525.016 111.424 514.107 111.873C492.358 112.767 469.756 115.451 448.64 128.303C427.515 141.16 407.953 164.144 392.165 205.486L393.262 205.905ZM618.072 62.3049C637.643 8.15875 622.889 -33.2793 607.26 -71.9586C591.618 -110.669 575.168 -146.507 590.783 -189.79L589.679 -190.188C573.884 -146.408 590.571 -110.126 606.171 -71.5187C621.784 -32.8804 636.38 8.19699 616.968 61.9058L618.072 62.3049Z" fill="#6CF9D8"/>
<path d="M617.308 -197.124L616.765 -197.346L616.76 -197.334L616.756 -197.323L617.308 -197.124ZM443.104 -520.626L442.948 -521.192L443.104 -520.626ZM617.851 -196.901C650.765 -277.388 661.707 -373.461 637.094 -441.938C624.781 -476.195 603.556 -503.577 571.706 -518.603C539.861 -533.626 497.485 -536.255 442.948 -521.192L443.26 -520.06C497.622 -535.075 539.691 -532.408 571.205 -517.541C602.711 -502.678 623.756 -475.578 635.989 -441.541C660.47 -373.433 649.615 -277.676 616.765 -197.346L617.851 -196.901ZM442.948 -521.192C325.033 -488.624 275.747 -456.009 234.752 -439.771C214.265 -431.656 195.817 -427.609 171.812 -429.635C147.781 -431.663 118.152 -439.779 75.3148 -456.054L74.8979 -454.956C117.763 -438.671 147.515 -430.507 171.713 -428.465C195.938 -426.421 214.57 -430.514 235.185 -438.68C276.395 -455.002 325.405 -487.508 443.26 -520.06L442.948 -521.192ZM75.3148 -456.054C-10.7535 -488.753 -94.4435 -439.315 -141.924 -362.422C-189.409 -285.521 -200.849 -180.915 -142.244 -102.941L-141.305 -103.647C-199.536 -181.123 -188.238 -285.182 -140.925 -361.805C-93.6077 -438.434 -10.4394 -487.378 74.8979 -454.956L75.3148 -456.054ZM-142.244 -102.941C-83.7975 -25.1792 -41.7233 3.10179 -13.9877 31.2105C-0.125505 45.2593 10.1802 59.2796 17.2495 79.4607C24.3252 99.6604 28.1706 126.067 29.0445 164.904L30.2182 164.877C29.3431 125.99 25.4927 99.4418 18.3575 79.0726C11.2157 58.6846 0.795394 44.521 -13.1521 30.3859C-41.036 2.12681 -82.9157 -25.96 -141.305 -103.647L-142.244 -102.941ZM29.0445 164.904C29.9236 203.967 49.6587 238.683 79.7623 265.982C109.864 293.28 150.363 313.191 192.864 322.663C277.835 341.601 371.094 318.837 405.173 229.52L404.076 229.102C370.293 317.641 277.805 340.391 193.119 321.517C150.792 312.084 110.484 292.257 80.551 265.112C50.6189 237.969 31.0882 203.538 30.2182 164.877L29.0445 164.904ZM405.173 229.52C422.107 185.141 443.025 160.624 465.48 146.946C487.943 133.262 512.021 130.378 535.39 129.416C547.041 128.936 558.597 128.934 569.581 128.297C580.59 127.658 591.131 126.38 600.878 123.328C610.633 120.274 619.592 115.444 627.434 107.707C635.274 99.972 641.974 89.3553 647.244 74.7614L646.14 74.3627C640.916 88.8279 634.3 99.2835 626.61 106.871C618.921 114.457 610.133 119.2 600.528 122.208C590.915 125.217 580.484 126.488 569.513 127.125C558.516 127.762 547.084 127.759 535.341 128.243C511.923 129.207 487.596 132.099 464.869 145.943C442.133 159.793 421.074 184.553 404.076 229.102L405.173 229.52ZM647.244 74.7614C668.311 16.4246 652.431 -28.2196 635.602 -69.9032C618.761 -111.618 601.039 -150.258 617.86 -196.925L616.756 -197.323C599.755 -150.16 617.714 -111.075 634.514 -69.4637C651.326 -27.821 667.049 16.4628 646.14 74.3627L647.244 74.7614Z" fill="#6CF9D8"/>
<path d="M644.384 -204.083L643.84 -204.305L643.836 -204.293L643.832 -204.281L644.384 -204.083ZM457.756 -551.077L457.6 -551.642L457.756 -551.077ZM644.927 -203.861C680.186 -290.186 691.905 -393.224 665.542 -466.66C652.354 -503.397 629.622 -532.757 595.512 -548.868C561.408 -564.976 516.02 -567.798 457.6 -551.642L457.913 -550.511C516.158 -566.618 561.238 -563.758 595.01 -547.807C628.776 -531.858 651.328 -502.78 664.437 -466.264C690.668 -393.196 679.035 -290.474 643.84 -204.305L644.927 -203.861ZM457.6 -551.642C331.278 -516.71 278.486 -481.73 234.56 -464.311C212.607 -455.605 192.837 -451.262 167.113 -453.436C141.362 -455.611 109.616 -464.319 63.7223 -481.776L63.305 -480.678C109.226 -463.211 141.096 -454.456 167.014 -452.266C192.959 -450.074 212.912 -454.463 234.993 -463.219C279.135 -480.725 331.65 -515.595 457.913 -550.511L457.6 -551.642ZM63.7223 -481.776C-28.4587 -516.84 -118.099 -463.829 -168.959 -381.361C-219.825 -298.886 -232.075 -186.704 -169.304 -103.087L-168.365 -103.792C-230.763 -186.912 -218.654 -298.548 -167.96 -380.745C-117.262 -462.949 -28.1439 -515.464 63.305 -480.678L63.7223 -481.776ZM-169.304 -103.087C-106.692 -19.6807 -61.6238 10.647 -31.9049 40.8022C-17.051 55.8742 -6.00606 70.9179 1.56999 92.5721C9.15263 114.245 13.2723 142.574 14.2087 184.233L15.3824 184.207C14.4449 142.497 10.32 114.027 2.67814 92.1844C-4.97023 70.3235 -16.1296 55.1366 -31.0687 39.9781C-60.9359 9.6724 -105.809 -20.461 -168.365 -103.792L-169.304 -103.087ZM14.2087 184.233C15.1501 226.118 36.2851 263.345 68.5296 292.621C100.772 321.895 144.152 343.249 189.678 353.408C280.699 373.719 380.582 349.302 417.081 253.528L415.984 253.109C379.781 348.106 280.669 372.509 189.934 352.262C144.582 342.142 101.393 320.873 69.3188 291.751C37.2458 262.631 16.3147 225.69 15.3824 184.207L14.2087 184.233ZM417.081 253.528C435.225 205.919 457.64 179.613 481.706 164.935C505.781 150.252 531.585 147.158 556.622 146.127C569.107 145.612 581.483 145.609 593.251 144.926C605.044 144.241 616.333 142.87 626.77 139.599C647.698 133.038 665.115 118.861 676.415 87.5312L675.311 87.1329C664.126 118.142 646.972 132.036 626.419 138.478C616.116 141.708 604.937 143.071 593.183 143.754C581.402 144.438 569.15 144.435 556.573 144.953C531.487 145.987 505.433 149.089 481.095 163.933C456.747 178.782 434.192 205.332 415.984 253.109L417.081 253.528ZM676.415 87.5312C698.979 24.9742 681.973 -22.8986 663.944 -67.6076C645.903 -112.348 626.909 -153.81 644.936 -203.884L643.832 -204.281C625.625 -153.712 644.856 -111.806 662.856 -67.1685C680.868 -22.5004 697.718 25.0125 675.311 87.1329L676.415 87.5312Z" fill="#6CF9D8"/>
<path d="M671.455 -211.051L670.912 -211.273L670.907 -211.261L670.903 -211.25L671.455 -211.051ZM472.404 -581.537L472.247 -582.103L472.404 -581.537ZM671.999 -210.829C709.603 -302.994 722.099 -412.997 693.985 -491.392C679.922 -530.608 655.683 -561.946 619.313 -579.143C582.95 -596.336 534.551 -599.35 472.247 -582.103L472.56 -580.971C534.689 -598.17 582.78 -595.118 618.811 -578.081C654.836 -561.048 678.896 -529.992 692.88 -490.996C720.862 -412.969 708.452 -303.282 670.912 -211.273L671.999 -210.829ZM472.247 -582.103C337.518 -544.806 281.221 -507.462 234.364 -488.86C210.945 -479.563 189.853 -474.925 162.409 -477.246C134.938 -479.569 101.075 -488.868 52.1254 -507.507L51.7076 -506.41C100.685 -487.76 134.672 -478.414 162.31 -476.076C189.975 -473.736 211.251 -478.421 234.797 -487.769C281.87 -506.456 337.89 -543.691 472.56 -580.971L472.247 -582.103ZM52.1254 -507.507C-46.1682 -544.936 -141.758 -488.352 -195.999 -400.311C-250.245 -312.261 -263.305 -192.503 -196.369 -103.242L-195.43 -103.947C-261.994 -192.711 -249.074 -311.924 -195 -399.695C-140.921 -487.473 -45.853 -543.559 51.7076 -506.41L52.1254 -507.507ZM-196.369 -103.242C-129.59 -14.1917 -81.5288 18.1827 -49.8264 50.3845C-33.9809 66.4798 -22.1968 82.5468 -14.1139 105.674C-6.0245 128.82 -1.63033 159.072 -0.631676 203.553L0.54203 203.527C-0.457785 158.995 -4.85708 128.602 -13.0056 105.287C-21.1607 81.9529 -33.059 65.7427 -48.9898 49.5609C-80.8403 17.2085 -128.708 -14.9715 -195.43 -103.947L-196.369 -103.242ZM-0.631676 203.553C0.372107 248.26 22.9071 287.997 57.2924 319.25C91.6761 350.501 137.937 373.298 186.488 384.143C283.56 405.827 390.066 379.757 428.985 277.525L427.887 277.108C389.264 378.562 283.528 404.617 186.744 382.997C138.367 372.191 92.2972 349.479 58.082 318.381C23.8683 287.284 1.53678 247.832 0.54203 203.527L-0.631676 203.553ZM428.985 277.525C448.338 226.688 472.251 198.592 497.928 182.916C523.614 167.233 551.144 163.929 577.849 162.828C591.169 162.278 604.364 162.276 616.916 161.546C629.493 160.815 641.53 159.352 652.658 155.86C674.966 148.859 693.534 133.731 705.583 100.292L704.478 99.8936C692.545 133.013 674.24 147.857 652.306 154.74C641.313 158.189 629.387 159.645 616.848 160.374C604.284 161.104 591.211 161.102 577.801 161.655C551.046 162.758 523.266 166.07 497.316 181.914C471.357 197.762 447.305 226.102 427.887 277.108L428.985 277.525ZM705.583 100.292C729.643 33.5144 711.51 -17.5871 692.282 -65.3216C673.041 -113.087 652.774 -157.372 672.008 -210.852L670.903 -211.25C651.491 -157.274 671.994 -112.545 691.193 -64.8829C710.405 -17.1893 728.382 33.5526 704.478 99.8936L705.583 100.292Z" fill="#6CF9D8"/>
<path d="M699.709 -218.305L699.166 -218.526L699.161 -218.515L699.157 -218.503L699.709 -218.305ZM487.694 -613.261L487.537 -613.827L487.694 -613.261ZM700.253 -218.083C740.304 -316.33 753.611 -433.588 723.671 -517.149C708.694 -558.947 682.882 -592.347 644.155 -610.674C605.434 -628.998 553.893 -632.212 487.537 -613.827L487.85 -612.696C554.03 -631.032 605.264 -627.78 643.653 -609.613C682.035 -591.449 707.667 -558.332 722.565 -516.753C752.374 -433.56 739.153 -316.617 699.166 -218.526L700.253 -218.083ZM487.537 -613.827C344.035 -574.067 284.08 -534.26 234.164 -514.427C209.216 -504.514 186.745 -499.568 157.506 -502.043C128.24 -504.521 92.1681 -514.435 40.0295 -534.305L39.6114 -533.208C91.7778 -513.327 127.974 -503.365 157.407 -500.873C186.866 -498.38 209.522 -503.372 234.598 -513.336C284.73 -533.255 344.407 -572.952 487.85 -612.696L487.537 -613.827ZM40.0295 -534.305C-64.6424 -574.197 -166.441 -513.892 -224.209 -420.044C-281.982 -326.189 -295.889 -198.539 -224.605 -103.398L-223.666 -104.102C-294.577 -198.746 -280.811 -325.851 -223.21 -419.429C-165.603 -513.014 -64.3267 -572.82 39.6114 -533.208L40.0295 -534.305ZM-224.605 -103.398C-153.479 -8.46865 -102.294 26.0376 -68.5219 60.3714C-51.6415 77.5327 -39.0861 94.6656 -30.4744 119.327C-21.8562 144.008 -17.1757 176.262 -16.112 223.683L-14.9383 223.657C-16.0031 176.186 -20.6888 143.79 -29.366 118.94C-38.0499 94.0721 -50.7194 76.7959 -67.685 59.5481C-101.605 25.0638 -152.596 -9.24807 -223.666 -104.102L-224.605 -103.398ZM-16.112 223.683C-15.0431 271.33 8.95285 313.682 45.5719 346.994C82.1895 380.304 131.457 404.604 183.165 416.164C286.549 439.279 399.967 411.487 441.411 302.528L440.314 302.111C399.165 410.292 286.518 438.068 183.421 415.019C131.888 403.497 82.811 379.282 46.362 346.125C9.91434 312.97 -13.8784 270.902 -14.9383 223.657L-16.112 223.683ZM441.411 302.528C462.027 248.327 487.502 218.368 514.861 201.65C542.228 184.927 571.559 181.405 600.005 180.23C614.195 179.644 628.246 179.642 641.616 178.864C655.01 178.085 667.828 176.525 679.676 172.804C703.426 165.344 723.194 149.226 736.023 113.589L734.919 113.191C722.204 148.509 702.698 164.342 679.324 171.683C667.611 175.362 654.904 176.915 641.547 177.692C628.165 178.47 614.238 178.468 599.957 179.057C571.461 180.234 541.88 183.764 514.248 200.649C486.608 217.539 460.994 247.742 440.314 302.111L441.411 302.528ZM736.023 113.589C761.646 42.4157 742.337 -12.049 721.857 -62.9351C701.364 -113.852 679.769 -161.077 700.262 -218.106L699.157 -218.503C678.487 -160.978 700.317 -113.311 720.768 -62.4967C741.231 -11.6517 760.384 42.4538 734.919 113.191L736.023 113.589Z" fill="#6CF9D8"/>
<path d="M724.428 -224.696L723.885 -224.917L723.88 -224.906L723.876 -224.894L724.428 -224.696ZM501.069 -641.187L500.912 -641.753L501.069 -641.187ZM724.972 -224.475C767.164 -328.074 781.181 -451.716 749.642 -539.823C733.866 -583.895 706.678 -619.107 665.888 -638.429C625.105 -657.749 570.814 -661.139 500.912 -641.753L501.226 -640.621C570.952 -659.959 624.934 -656.53 665.386 -637.368C705.831 -618.21 732.839 -583.28 748.537 -539.428C779.944 -451.688 766.013 -328.361 723.885 -224.917L724.972 -224.475ZM500.912 -641.753C349.734 -599.825 286.579 -557.851 233.987 -536.934C207.701 -526.479 184.022 -521.263 153.213 -523.873C122.377 -526.486 84.3716 -536.942 29.4427 -557.896L29.0242 -556.799C83.9809 -535.834 122.11 -525.33 153.114 -522.703C184.143 -520.074 208.007 -525.337 234.421 -535.843C287.229 -556.846 350.107 -598.71 501.226 -640.621L500.912 -641.753ZM29.4427 -557.896C-80.8103 -599.956 -188.042 -536.376 -248.896 -437.418C-309.755 -338.453 -324.402 -203.858 -249.315 -103.544L-248.375 -104.248C-323.091 -204.065 -308.584 -338.116 -247.896 -436.803C-187.203 -535.498 -80.4941 -598.578 29.0242 -556.799L29.4427 -557.896ZM-249.315 -103.544C-174.385 -3.44052 -120.466 32.9419 -84.8834 69.1518C-67.0976 87.251 -53.8673 105.322 -44.7929 131.334C-35.7119 157.365 -30.7808 191.382 -29.6601 241.39L-28.4864 241.363C-29.6082 191.305 -34.5445 157.147 -43.6844 130.947C-52.8308 104.729 -66.175 86.5147 -84.046 68.3289C-119.777 31.9684 -173.501 -4.21951 -248.375 -104.248L-249.315 -103.544ZM-29.6601 241.39C-28.5343 291.623 -3.26016 336.277 35.3136 371.4C73.8858 406.523 125.785 432.145 180.254 444.335C289.163 468.708 408.628 439.401 452.281 324.523L451.184 324.106C407.825 438.207 289.13 467.498 180.51 443.189C126.215 431.039 74.5077 405.501 36.104 370.532C-2.29825 335.565 -27.3696 291.196 -28.4864 241.363L-29.6601 241.39ZM452.281 324.523C474.002 267.362 500.843 235.763 529.673 218.129C558.513 200.49 589.419 196.775 619.388 195.536C634.34 194.918 649.14 194.916 663.225 194.095C677.335 193.274 690.835 191.629 703.314 187.706C728.324 179.843 749.143 162.854 762.656 125.282L761.551 124.885C748.153 162.138 727.596 178.842 702.962 186.586C690.618 190.467 677.228 192.104 663.156 192.923C649.059 193.744 634.383 193.742 619.34 194.363C589.321 195.604 558.164 199.327 529.061 217.127C499.949 234.934 472.968 266.777 451.184 324.106L452.281 324.523ZM762.656 125.282C789.645 50.2407 769.307 -7.18365 747.732 -60.843C726.144 -114.533 703.387 -164.345 724.981 -224.498L723.876 -224.894C702.104 -164.247 725.096 -113.993 746.642 -60.405C768.201 -6.78662 788.383 50.2788 761.551 124.885L762.656 125.282Z" fill="#6CF9D8"/>
<path d="M755.036 -232.528L754.492 -232.749L754.487 -232.737L754.483 -232.726L755.036 -232.528ZM517.632 -675.447L517.475 -676.012L517.632 -675.447ZM755.579 -232.306C800.422 -342.475 815.318 -473.952 781.8 -567.639C765.035 -614.499 736.143 -651.937 692.799 -672.48C649.462 -693.02 591.767 -696.627 517.475 -676.012L517.789 -674.881C591.905 -695.447 649.291 -691.802 692.297 -671.42C735.296 -651.04 764.008 -613.885 780.695 -567.243C814.081 -473.924 799.271 -342.762 754.492 -232.749L755.579 -232.306ZM517.475 -676.012C356.793 -631.425 289.676 -586.79 233.77 -564.543C205.827 -553.424 180.653 -547.875 147.9 -550.652C115.121 -553.431 74.7216 -564.551 16.3379 -586.836L15.9193 -585.739C74.3307 -563.444 114.854 -552.275 147.801 -549.482C180.775 -546.686 206.133 -552.282 234.204 -563.453C290.326 -585.786 357.166 -630.31 517.789 -674.881L517.475 -676.012ZM16.3379 -586.836C-100.825 -631.555 -214.782 -563.957 -279.458 -458.728C-344.138 -353.492 -359.702 -210.374 -279.905 -103.71L-278.964 -104.414C-358.39 -210.581 -342.967 -353.155 -278.458 -458.114C-213.943 -563.08 -100.508 -630.178 15.9193 -585.739L16.3379 -586.836ZM-279.905 -103.71C-200.265 2.74283 -142.962 41.4277 -105.137 79.94C-86.2305 99.1905 -72.1648 118.413 -62.5175 146.082C-52.8637 173.77 -47.6223 209.95 -46.4311 263.133L-45.2574 263.106C-46.4497 209.873 -51.6962 173.552 -61.4089 145.695C-71.1282 117.82 -85.3078 98.4544 -104.3 79.1173C-142.273 40.4544 -199.381 1.96408 -278.964 -104.414L-279.905 -103.71ZM-46.4311 263.133C-45.2349 316.541 -18.378 364.019 22.6158 401.366C63.6081 438.713 118.764 465.958 176.653 478.92C292.401 504.838 419.353 473.672 465.742 351.529L464.644 351.112C418.551 472.478 292.368 503.627 176.909 477.775C119.195 464.852 64.2302 437.691 23.4065 400.498C-17.4159 363.307 -44.0701 316.114 -45.2574 263.106L-46.4311 263.133ZM465.742 351.529C488.831 290.735 517.364 257.123 548.016 238.365C578.677 219.601 611.534 215.65 643.39 214.333C659.284 213.676 675.011 213.673 689.982 212.801C704.978 211.927 719.324 210.178 732.583 206.008C759.154 197.65 781.273 179.591 795.632 139.646L794.527 139.249C780.283 178.875 758.426 196.648 732.231 204.888C719.106 209.016 704.871 210.757 689.913 211.629C674.929 212.502 659.327 212.499 643.341 213.16C611.436 214.479 578.328 218.438 547.403 237.363C516.469 256.294 487.797 290.15 464.644 351.112L465.742 351.529ZM795.632 139.646C824.313 59.8564 802.702 -1.20032 779.77 -58.2633C756.826 -115.357 732.631 -168.344 755.588 -232.329L754.483 -232.726C731.349 -168.246 755.778 -114.817 778.681 -57.8256C801.596 -0.803528 823.052 59.8944 794.527 139.249L795.632 139.646Z" fill="#6CF9D8"/>
<path d="M779.757 -238.915L779.213 -239.136L779.208 -239.125L779.204 -239.113L779.757 -238.915ZM531.01 -703.368L530.853 -703.934L531.01 -703.368ZM780.3 -238.694C827.284 -354.215 842.89 -492.077 807.774 -590.309C790.209 -639.443 759.941 -678.694 714.535 -700.232C669.134 -721.767 608.69 -725.55 530.853 -703.934L531.167 -702.803C608.827 -724.37 668.963 -720.549 714.032 -699.171C759.093 -677.797 789.182 -638.829 806.668 -589.914C841.653 -492.049 826.133 -354.501 779.213 -239.136L780.3 -238.694ZM530.853 -703.934C362.494 -657.179 292.176 -610.377 233.594 -587.047C204.313 -575.385 177.932 -569.565 143.609 -572.477C109.259 -575.392 66.9268 -587.054 5.75274 -610.423L5.3338 -609.326C66.5355 -585.947 108.992 -574.236 143.51 -571.308C178.054 -568.377 204.619 -574.244 234.029 -585.956C292.827 -609.373 362.867 -656.064 531.167 -702.803L530.853 -703.934ZM5.75274 -610.423C-116.991 -657.31 -236.381 -586.436 -304.143 -476.098C-371.91 -365.752 -388.213 -215.69 -304.612 -103.852L-303.672 -104.555C-386.902 -215.896 -370.739 -365.416 -303.142 -475.484C-235.542 -585.56 -116.674 -655.932 5.3338 -609.326L5.75274 -610.423ZM-304.612 -103.852C-221.169 7.77469 -161.133 48.3357 -121.497 88.724C-101.685 108.913 -86.9442 129.073 -76.8342 158.092C-66.7177 187.13 -61.2258 225.073 -59.9776 280.843L-58.8039 280.816C-60.0532 224.997 -65.5502 186.913 -75.7256 157.706C-85.9074 128.48 -100.762 108.177 -120.659 87.9017C-160.443 47.3626 -220.285 6.99631 -303.672 -104.555L-304.612 -103.852ZM-59.9776 280.843C-58.7244 336.837 -30.5893 386.617 12.3592 425.777C55.3061 464.935 113.093 493.503 173.744 507.095C295.015 534.27 428.016 501.59 476.614 373.527L475.516 373.11C427.213 500.396 294.983 533.06 174 505.949C113.524 492.397 55.9286 463.914 13.1501 424.909C-29.6268 385.906 -57.5597 336.411 -58.8039 280.816L-59.9776 280.843ZM476.614 373.527C500.807 309.774 530.707 274.521 562.831 254.847C594.963 235.167 629.396 231.024 662.775 229.643C679.431 228.954 695.906 228.951 711.592 228.036C727.305 227.12 742.333 225.286 756.223 220.914C784.054 212.153 807.224 193.223 822.266 151.343L821.162 150.946C806.234 192.507 783.326 211.151 755.87 219.794C742.116 224.124 727.198 225.95 711.524 226.864C695.825 227.78 679.474 227.777 662.726 228.47C629.298 229.853 594.614 234.004 562.217 253.846C529.812 273.693 499.773 309.189 475.516 373.11L476.614 373.527ZM822.266 151.343C852.314 67.6851 829.674 3.66882 805.647 -56.1676C781.608 -116.035 756.251 -171.608 780.309 -238.717L779.204 -239.113C754.968 -171.51 780.56 -115.495 804.558 -55.7301C828.568 4.06525 851.053 67.7231 821.162 150.946L822.266 151.343Z" fill="#6CF9D8"/>
<path d="M809.184 -246.455L808.64 -246.676L808.636 -246.664L808.632 -246.653L809.184 -246.455ZM546.933 -736.357L546.776 -736.923L546.933 -736.357ZM809.728 -246.234C859.261 -368.08 875.711 -513.488 838.692 -617.092C820.176 -668.912 788.27 -710.307 740.408 -733.02C692.552 -755.731 628.834 -759.722 546.776 -736.923L547.09 -735.792C628.972 -758.542 692.381 -754.512 739.904 -731.96C787.422 -709.41 819.149 -668.298 837.587 -616.697C874.474 -513.46 858.11 -368.366 808.64 -246.676L809.728 -246.234ZM546.776 -736.923C369.279 -687.607 295.151 -638.243 233.383 -613.632C202.509 -601.33 174.69 -595.19 138.498 -598.262C102.279 -601.337 57.645 -613.64 -6.85077 -638.289L-7.26984 -637.192C57.2537 -612.533 102.012 -600.181 138.399 -597.093C174.813 -594.002 202.815 -600.189 233.818 -612.541C295.802 -637.239 369.652 -686.492 547.09 -735.792L546.776 -736.923ZM-6.85077 -638.289C-136.238 -687.738 -262.096 -612.994 -333.532 -496.617C-404.973 -380.233 -422.158 -221.962 -334.029 -104.01L-333.088 -104.713C-420.847 -222.169 -403.802 -379.896 -332.531 -496.003C-261.256 -612.118 -135.921 -686.36 -7.26984 -637.192L-6.85077 -638.289ZM-334.029 -104.01C-246.057 13.7311 -182.767 56.5094 -140.975 99.1148C-120.085 120.412 -104.541 141.681 -93.8799 172.296C-83.2126 202.93 -77.4224 242.956 -76.1064 301.783L-74.9327 301.756C-76.2498 242.879 -82.0451 202.713 -92.7712 171.91C-103.504 141.089 -119.162 119.677 -140.137 98.2928C-182.076 55.5365 -245.173 12.9529 -333.088 -104.713L-334.029 -104.01ZM-76.1064 301.783C-74.7854 360.834 -45.1285 413.334 0.146938 454.635C45.4208 495.935 106.34 526.066 170.278 540.401C298.126 569.064 438.326 534.593 489.554 399.534L488.457 399.118C437.523 533.4 298.093 567.854 170.535 539.255C106.771 524.96 46.0435 494.914 0.938137 453.768C-44.1657 412.623 -73.6206 360.408 -74.9327 301.756L-76.1064 301.783ZM489.554 399.534C515.063 332.283 546.59 295.093 580.465 274.336C614.349 253.573 650.658 249.203 685.85 247.746C703.413 247.019 720.779 247.016 737.318 246.051C753.882 245.085 769.723 243.151 784.363 238.54C813.696 229.302 838.116 209.343 853.972 165.177L852.867 164.78C837.126 208.627 812.967 228.3 784.01 237.42C769.505 241.989 753.775 243.915 737.249 244.879C720.698 245.845 703.456 245.842 685.802 246.573C650.56 248.032 613.999 252.41 579.852 273.335C545.695 294.264 514.029 331.699 488.457 399.118L489.554 399.534ZM853.972 165.177C885.646 76.9468 861.781 9.43262 836.451 -53.6813C811.108 -116.826 784.367 -175.457 809.737 -246.257L808.632 -246.653C783.085 -175.359 810.059 -116.286 835.361 -53.2441C860.675 9.82892 884.385 76.9848 852.867 164.78L853.972 165.177Z" fill="#6CF9D8"/>
<path d="M839.791 -254.295L839.247 -254.516L839.242 -254.505L839.238 -254.493L839.791 -254.295ZM563.495 -770.626L563.338 -771.192L563.495 -770.626ZM840.334 -254.074C892.518 -382.489 909.847 -535.733 870.849 -644.916C851.344 -699.526 817.734 -743.146 767.318 -767.08C716.907 -791.012 649.786 -795.22 563.338 -771.192L563.652 -770.061C649.924 -794.039 716.737 -789.793 766.814 -766.02C816.886 -742.249 850.317 -698.912 869.744 -644.521C908.61 -535.705 891.367 -382.776 839.247 -254.516L840.334 -254.074ZM563.338 -771.192C376.337 -719.216 298.247 -667.192 233.165 -641.251C200.634 -628.284 171.321 -621.811 133.185 -625.05C95.0214 -628.291 47.994 -641.259 -19.9565 -667.237L-20.3758 -666.141C47.6025 -640.151 94.7541 -627.135 133.085 -623.88C171.443 -620.623 200.941 -627.142 233.6 -640.16C298.898 -666.188 376.711 -718.101 563.652 -770.061L563.338 -771.192ZM-19.9565 -667.237C-156.253 -719.346 -288.837 -640.584 -364.095 -517.936C-439.357 -395.281 -457.458 -228.487 -364.62 -104.186L-363.679 -104.888C-456.147 -228.694 -438.186 -394.944 -363.094 -517.322C-287.997 -639.708 -155.936 -717.968 -20.3758 -666.141L-19.9565 -667.237ZM-364.62 -104.186C-271.938 19.9055 -205.264 64.9863 -161.23 109.894C-139.219 132.342 -122.839 154.763 -111.606 187.035C-100.365 219.326 -94.2649 261.515 -92.8784 323.517L-91.7047 323.49C-93.0923 261.439 -99.1978 219.109 -110.497 186.649C-121.802 154.171 -138.295 131.607 -160.392 109.072C-204.573 64.0135 -271.054 19.1275 -363.679 -104.888L-364.62 -104.186ZM-92.8784 323.517C-91.487 385.743 -60.2473 441.067 -12.5519 484.592C35.1421 528.115 99.3183 559.87 166.676 574.977C301.363 605.185 449.05 568.855 503.014 426.531L501.917 426.115C448.247 567.661 301.33 603.975 166.933 573.832C99.75 558.764 35.765 527.095 -11.7605 483.725C-59.2844 440.356 -90.3222 385.317 -91.7047 323.49L-92.8784 323.517ZM503.014 426.531C529.891 355.647 563.11 316.444 598.807 294.563C634.512 272.676 672.772 268.07 709.85 266.534C728.356 265.767 746.649 265.765 764.074 264.748C781.524 263.729 798.211 261.691 813.631 256.833C844.524 247.099 870.246 226.071 886.947 179.532L885.842 179.135C869.255 225.356 843.795 246.098 813.278 255.713C797.993 260.529 781.417 262.56 764.005 263.576C746.568 264.593 728.399 264.591 709.802 265.361C672.674 266.899 634.162 271.513 598.193 293.562C562.215 315.616 528.857 355.064 501.917 426.115L503.014 426.531ZM886.947 179.532C920.314 86.5536 895.175 15.407 868.488 -51.1106C841.789 -117.659 813.61 -179.465 840.343 -254.097L839.238 -254.493C812.328 -179.367 840.741 -117.119 867.398 -50.6735C894.069 15.8032 919.053 86.5916 885.842 179.135L886.947 179.532Z" fill="#6CF9D8"/>
<path d="M415.12 -461.944C600.751 -513.274 622.293 -322.557 565.565 -184.696C535.907 -103.528 625.453 -49.4935 589.521 49.9149C552.786 151.541 440.465 32.6842 381.631 184.311C322.464 336.285 61.2129 263.971 58.2596 128.371C55.3063 -6.43434 10.4012 30.6967 -89.031 -103.185C-188.463 -237.066 -50.0819 -461.097 98.1779 -406.166C244.222 -351.234 213.15 -406.038 415.12 -461.944Z" stroke="#6CF9D8" stroke-width="1.17402"/>
<path d="M401.793 -433.731C570.788 -480.571 593.284 -305.909 540.902 -179.409C512.995 -104.137 594.406 -53.2437 561.526 37.7182C527.038 133.116 425.194 24.6976 370.551 162.92C315.241 301.837 74.7199 237.775 72.0619 110.816C69.4039 -14.5554 27.0242 20.0732 -63.3356 -103.45C-153.695 -226.973 -27.67 -432.038 109.666 -382.599C242.572 -333.161 216.811 -382.342 401.793 -433.731Z" stroke="#6CF9D8" stroke-width="1.17402"/>
<path d="M388.462 -405.514C540.821 -447.866 564.27 -289.259 516.235 -174.119C490.079 -104.742 563.355 -56.9907 533.526 25.5247C501.286 114.694 409.92 16.7143 359.468 141.533C308.014 267.392 88.2232 211.583 85.8606 93.2638C83.4979 -22.6733 43.6433 9.45293 -37.644 -103.712C-118.931 -216.877 -5.26184 -402.975 121.151 -359.029C240.918 -315.084 220.469 -358.643 388.462 -405.514Z" stroke="#6CF9D8" stroke-width="1.17402"/>
<path d="M375.135 -377.294C510.856 -415.156 535.26 -272.605 491.571 -168.825C467.166 -105.344 532.306 -60.7342 505.529 13.3348C475.538 96.2756 394.649 8.7344 348.387 120.149C300.79 232.951 101.73 185.395 99.6622 75.7152C97.5949 -30.7877 60.2655 -1.16383 -11.9494 -103.971C-84.1644 -206.778 17.1493 -373.908 132.639 -335.456C239.266 -297.004 224.13 -334.941 375.135 -377.294Z" stroke="#6CF9D8" stroke-width="1.17402"/>
<path d="M361.13 -349.073C480.215 -382.447 505.572 -255.95 466.23 -163.531C443.576 -105.946 500.581 -64.4772 476.856 1.14529C449.112 77.8576 378.701 0.754971 336.629 98.7657C292.888 198.51 114.559 159.206 112.787 58.1672C111.015 -38.9016 76.2105 -11.7801 13.068 -104.229C-50.0745 -196.678 38.8832 -344.841 143.449 -311.882C236.938 -278.923 227.113 -311.238 361.13 -349.073Z" stroke="#6CF9D8" stroke-width="1.17402"/>
<path d="M346.326 -320.846C448.774 -349.731 475.084 -239.289 440.089 -158.231C419.187 -106.541 468.056 -68.2138 447.382 -11.0377C421.887 59.4461 361.953 -7.21796 324.072 77.3888C284.187 164.076 126.588 133.025 125.111 40.6255C123.635 -47.0091 91.3559 -22.39 37.2858 -104.48C-16.7843 -186.571 59.8177 -315.768 153.46 -288.302C233.81 -260.836 229.298 -287.529 346.326 -320.846Z" stroke="#6CF9D8" stroke-width="1.17402"/>
<path d="M331.478 -292.634C417.289 -317.03 444.553 -222.643 413.904 -152.945C394.753 -107.151 435.487 -71.9655 417.865 -23.2359C394.618 41.0194 345.162 -15.2061 311.47 55.9966C275.443 129.626 138.574 106.828 137.393 23.0687C136.211 -55.1317 106.457 -33.015 61.4598 -104.747C16.4622 -176.48 80.7083 -286.709 163.427 -264.737C230.638 -242.764 231.438 -263.835 331.478 -292.634Z" stroke="#6CF9D8" stroke-width="1.17402"/>
<path d="M316.565 -264.417C385.74 -284.324 413.958 -205.993 387.655 -147.655C370.256 -107.756 402.854 -75.7126 388.284 -35.4295C367.285 22.5973 328.306 -23.1896 298.805 34.6091C266.634 95.1815 150.496 80.6355 149.61 5.5165C148.724 -63.2497 121.495 -43.6354 85.5699 -105.01C49.6447 -166.384 101.535 -257.646 173.33 -241.167C227.402 -224.687 233.514 -240.136 316.565 -264.417Z" stroke="#6CF9D8" stroke-width="1.17402"/>
<path d="M301.556 -236.193C354.094 -251.611 383.266 -189.335 361.309 -142.357C345.661 -108.354 370.123 -79.4519 358.605 -47.6153C339.854 4.18298 311.353 -31.1653 286.043 13.2293C257.728 60.7444 162.32 54.451 161.729 -12.0279C161.138 -71.3599 136.435 -54.248 109.582 -105.264C82.7295 -156.28 122.264 -228.576 183.136 -217.589C224.069 -206.603 235.493 -216.43 301.556 -236.193Z" stroke="#6CF9D8" stroke-width="1.17402"/>
<path d="M286.41 -207.966C322.312 -218.896 352.437 -172.675 334.827 -137.058C320.93 -108.95 337.257 -83.1895 328.791 -59.7993C312.288 -14.2295 294.264 -39.1392 273.144 -8.14862C248.686 26.3092 174.008 28.2684 173.713 -29.5705C173.418 -79.4684 151.24 -64.8588 133.459 -105.517C115.679 -146.174 142.857 -199.503 192.806 -194.01C220.599 -188.517 237.336 -192.722 286.41 -207.966Z" stroke="#6CF9D8" stroke-width="1.17402"/>
</g>
</svg>
