<svg xmlns="http://www.w3.org/2000/svg" fill="none" viewBox="0 0 32 25" width="32px" height="25px">
  <g clip-path="url(#a)">
    <path fill="#F9856C" d="m13.8723 0 2.78172414 1.12339255-1.87232092 4.6362069-2.78172414-1.12339255z"/>
    <path fill="#9654E9" d="m20.4254 24.2162-1.56733464.52561281-1.10636773-2.72275202 1.56733464-.52561281z"/>
    <path stroke="#6CF9D8" stroke-width="1.2" d="M8.0821 25s-.48679-2.8918.91025-3.4682c1.17365-.4842 2.19115 1.6572 3.15555.8809.9768-.7864-1.4617-2.0322-.6675-2.9728.8358-.9898 3.5196 0 3.5196 0"/>
    <path stroke="#6CF9D8" d="m19.6732 11.3156.498-4.29527 3.4717 2.20088.3957-3.60325 3.1666 2.1814.9863-3.89541"/>
    <path fill="#fff" d="m15 11 .6735 2.0729h2.1797l-1.7634 1.2812.6736 2.073L15 15.1459l-1.7634 1.2812.6736-2.073-1.7634-1.2812h2.1797L15 11Z"/>
    <path stroke="#9654E9" stroke-width="1.2" d="M-.00000376 13.5575S6.39427 10.3727 7.84483 12.042c.79691.9171 1.39872 2.0278.68501 2.9302-.55017.6957-1.34448.7844-2.27517.6209-1.97086-.3461-1.94097-3.083-1.14982-4.778 1.09231-2.34036 6.89075-.959 6.89075-.959"/>
    <path stroke="#F9856C" stroke-width="1.2" d="M32.1461 20.0938s-7.1396-.2369-7.6225-2.395c-.2653-1.1857-.2669-2.449.79-2.9037.8147-.3506 1.5557-.0511 2.2968.535 1.5696 1.2412.2425 3.6351-1.2592 4.7504-2.0733 1.54-6.5185-2.4312-6.5185-2.4312"/>
  </g>
  <defs>
    <clipPath id="a">
      <path fill="#fff" d="M0 0h32v25H0z"/>
    </clipPath>
  </defs>
</svg>
