<svg width="24" height="24" viewBox="0 0 24 24" fill="none" xmlns="http://www.w3.org/2000/svg">
<path d="M12 0C18.628 0 24 5.37305 24 12C24 18.628 18.628 24 12 24C5.37305 24 0 18.6275 0 12C0 5.37305 5.37305 0 12 0Z" fill="#F5AC37"/>
<path d="M12.9112 12.7637H16.8347C16.9184 12.7637 16.9578 12.7637 16.9639 12.6491C16.9959 12.232 16.9959 11.8124 16.9639 11.3948C16.9639 11.3137 16.9253 11.2802 16.8412 11.2802H9.03277C8.93613 11.2802 8.9101 11.3137 8.9101 11.4084V12.6088C8.9101 12.7637 8.9101 12.7637 9.06483 12.7637H12.9112ZM16.5257 9.87719C16.5369 9.8466 16.5369 9.81309 16.5257 9.78298C16.4602 9.6339 16.3826 9.49161 16.2925 9.35807C16.1568 9.12982 15.997 8.91955 15.8148 8.73064C15.7288 8.61652 15.6294 8.51406 15.5179 8.42713C14.9594 7.93034 14.2954 7.57875 13.5817 7.40199C13.2216 7.31749 12.8536 7.27718 12.4847 7.28058H9.0193C8.92265 7.28058 8.90964 7.32089 8.90964 7.40879V9.80289C8.90964 9.9039 8.90964 9.9311 9.03231 9.9311H16.4793C16.4793 9.9311 16.5438 9.9175 16.5569 9.87719H16.5253H16.5257ZM16.5257 14.1667C16.4161 14.1541 16.3055 14.1541 16.1958 14.1667H9.03928C8.94263 14.1667 8.9101 14.1667 8.9101 14.3017V16.6424C8.9101 16.7502 8.9101 16.7774 9.03928 16.7774H12.3434C12.5014 16.79 12.6594 16.7783 12.8141 16.7439C13.2936 16.7079 13.7652 16.5992 14.215 16.42C14.3786 16.3607 14.5366 16.2835 14.6857 16.1907H14.7308C15.5054 15.7697 16.1345 15.1083 16.5313 14.2963C16.5313 14.2963 16.5764 14.1944 16.5257 14.1677V14.1667ZM7.61327 17.9909V17.9506V16.3792V15.8464V14.2614C7.61327 14.1735 7.61327 14.1604 7.51011 14.1604H6.10966C6.03206 14.1604 6 14.1604 6 14.0526V12.771H7.4971C7.58074 12.771 7.61327 12.771 7.61327 12.6564V11.3884C7.61327 11.3073 7.61327 11.2874 7.51011 11.2874H6.10966C6.03206 11.2874 6 11.2874 6 11.1796V9.99277C6 9.91847 6 9.89856 6.10315 9.89856H7.4906C7.58725 9.89856 7.61327 9.89856 7.61327 9.77036V6.135C7.61327 6.0272 7.61327 6 7.74244 6H12.5822C12.9335 6.01457 13.2825 6.05488 13.6277 6.12141C14.3391 6.25884 15.0226 6.52447 15.6475 6.90374C16.062 7.15869 16.4435 7.46657 16.7831 7.82108C17.0387 8.09837 17.2692 8.39848 17.4736 8.71802C17.6767 9.04193 17.8453 9.38817 17.9778 9.74996C17.994 9.84417 18.0804 9.90779 18.1706 9.89176H19.3257C19.4739 9.89176 19.4739 9.89176 19.4804 10.0404V11.1466C19.4804 11.2544 19.4419 11.2816 19.3383 11.2816H18.4475C18.3574 11.2816 18.3314 11.2816 18.3379 11.403C18.3732 11.8138 18.3732 12.2261 18.3379 12.637C18.3379 12.7516 18.3379 12.7652 18.461 12.7652H19.48C19.525 12.8259 19.48 12.8866 19.48 12.9478C19.4865 13.026 19.4865 13.1051 19.48 13.1833V13.9996C19.48 14.1142 19.4479 14.1482 19.3508 14.1482H18.1311C18.0461 14.1312 17.9633 14.188 17.9438 14.2764C17.6534 15.0656 17.1888 15.7731 16.5884 16.3403C16.3691 16.5467 16.1387 16.741 15.898 16.9201C15.6396 17.0755 15.3883 17.2373 15.1234 17.3655C14.636 17.5947 14.1249 17.7637 13.6003 17.871C13.1022 17.9642 12.5971 18.0065 12.0902 17.9992H7.61141V17.9924L7.61327 17.9909Z" fill="#FEFEFD"/>
</svg>
