<svg width="24" height="24" viewBox="0 0 24 24" fill="currentColor" xmlns="http://www.w3.org/2000/svg">
	<circle cx="12" cy="12" r="12" fill="#ffffff" />
	<path d="M7.33337 18.4H16.6667C16.9428 18.4 17.1667 18.1761 17.1667 17.9V9.30711C17.1667 9.1745 17.114 9.04732 17.0203 8.95355L14.2132 6.14645C14.1194 6.05268 13.9922 6 13.8596 6H7.33337C7.05723 6 6.83337 6.22386 6.83337 6.5V17.9C6.83337 18.1761 7.05723 18.4 7.33337 18.4Z"
		fill="#2D2E33" stroke="#2D2E33" />
	<path d="M16.9908 8.99083L14.3536 6.35355C14.2231 6.22308 14 6.31549 14 6.5V9.11667C14 9.39281 14.2239 9.61667 14.5 9.61667H16.7316C17.0582 9.61667 17.2218 9.22178 16.9908 8.99083Z"
		fill="currentColor" fill="#979799" stroke-width="0.6" />
	<line x1="9.5" y1="12.5" x2="14.5" y2="12.5" stroke="currentColor" stroke-linecap="round" />
	<line x1="9.5" y1="14.5" x2="14.5" y2="14.5" stroke="currentColor" stroke-linecap="round" />
</svg>