<svg width="476" height="486" viewBox="0 0 476 486" fill="none" xmlns="http://www.w3.org/2000/svg">
<path d="M306.4 154C312.1 154 317.6 154.6 323 155.6V15.4H289.9V155.5C295.2 154.6 300.7 154 306.4 154Z" fill="white"/>
<path d="M256.8 169.1L121.6 30.4L94 58.1L232.7 193.2C239.1 183.7 247.3 175.5 256.8 169.1Z" fill="white"/>
<path d="M232.3 193.7L38 108.8L21.9 147.7L219.3 225.1C221.6 213.8 226.1 203.1 232.3 193.7Z" fill="white"/>
<path d="M392.7 221.9L470.8 187.8L461.6 165.5L382.2 196.6C386.9 204.3 390.5 212.8 392.7 221.9Z" fill="white"/>
<path d="M354.4 168.1L397.9 61.2L370 49.7L325.2 156C335.8 158.3 345.6 162.5 354.4 168.1Z" fill="white"/>
<path d="M378.7 191.4L446.2 122.2L427.1 103L357.9 170.5C365.9 176.2 373 183.3 378.7 191.4Z" fill="white"/>
<path d="M288.7 155.8L225.5 0.400024L192.1 14.2L257.3 168.8C266.7 162.6 277.3 158.1 288.7 155.8Z" fill="white"/>
<path d="M306.4 331.7C300.7 331.7 295.2 331.1 289.8 330.1V470.6H322.9V330.1C317.5 331.1 312 331.7 306.4 331.7Z" fill="white"/>
<path d="M325.2 329.6L370.2 436.2L398 424.7L354.4 317.5C345.6 323.2 335.8 327.4 325.2 329.6Z" fill="white"/>
<path d="M357.8 315.2L427.2 382.8L446.4 363.6L378.8 294.2C373 302.4 365.9 309.5 357.8 315.2Z" fill="white"/>
<path d="M219.3 260.5L21.7 338L37.8 376.9L232.3 291.9C226.1 282.5 221.6 271.9 219.3 260.5Z" fill="white"/>
<path d="M257.3 316.9L191.9 471.9L225.3 485.7L288.6 329.9C277.3 327.6 266.7 323.1 257.3 316.9Z" fill="white"/>
<path d="M232.6 292.4L93.7 427.8L121.4 455.5L256.8 316.6C247.3 310.1 239.1 301.9 232.6 292.4Z" fill="white"/>
<path d="M475.5 253.4L0.399994 265.3L0.5 220.1L475.6 232.4L475.5 253.4Z" fill="white"/>
</svg>