<svg width="85" height="85" viewBox="0 0 85 85" fill="none" xmlns="http://www.w3.org/2000/svg">
<path fill-rule="evenodd" clip-rule="evenodd" d="M51.7264 5.82141L51.4807 5.55853C46.7376 0.483652 38.6897 0.483654 33.9466 5.55853L33.7009 5.82141C30.941 8.7744 27.0395 10.3905 22.9999 10.2539L22.6403 10.2418C15.6979 10.0072 10.0072 15.6979 10.2418 22.6403L10.2539 22.9999C10.3905 27.0395 8.7744 30.941 5.82141 33.701L5.55853 33.9466C0.483652 38.6897 0.483653 46.7376 5.55853 51.4807L5.82141 51.7264C8.7744 54.4863 10.3905 58.3879 10.2539 62.4275L10.2418 62.7871C10.0072 69.7295 15.6979 75.4202 22.6403 75.1856L22.9999 75.1734C27.0395 75.0369 30.941 76.653 33.7009 79.606L33.9466 79.8688C38.6897 84.9437 46.7376 84.9437 51.4807 79.8688L51.7264 79.6059C54.4863 76.653 58.3879 75.0369 62.4275 75.1734L62.7871 75.1856C69.7295 75.4202 75.4202 69.7294 75.1856 62.7871L75.1734 62.4275C75.0369 58.3879 76.653 54.4863 79.606 51.7264L79.8688 51.4807C84.9437 46.7376 84.9437 38.6897 79.8688 33.9466L79.6059 33.701C76.653 30.941 75.0369 27.0395 75.1734 22.9999L75.1856 22.6403C75.4202 15.6979 69.7295 10.0072 62.7871 10.2418L62.4275 10.2539C58.3879 10.3905 54.4863 8.7744 51.7264 5.82141ZM52.2113 4.87571C47.073 -0.622075 38.3544 -0.622073 33.2161 4.87571L32.9704 5.13859C30.4076 7.88066 26.7847 9.38128 23.0336 9.25451L22.674 9.24236C15.1532 8.98819 8.98819 15.1532 9.24236 22.674L9.25451 23.0337C9.38128 26.7847 7.88065 30.4076 5.13859 32.9704L4.87571 33.2161C-0.622075 38.3544 -0.622074 47.073 4.87571 52.2113L5.13859 52.457C7.88066 55.0198 9.38128 58.6426 9.25451 62.3937L9.24236 62.7533C8.98819 70.2742 15.1532 76.4392 22.674 76.185L23.0336 76.1729C26.7847 76.0461 30.4076 77.5467 32.9704 80.2888L33.2161 80.5517C38.3544 86.0494 47.073 86.0494 52.2113 80.5517L52.457 80.2888C55.0198 77.5467 58.6426 76.0461 62.3937 76.1729L62.7533 76.185C70.2742 76.4392 76.4392 70.2742 76.185 62.7533L76.1729 62.3937C76.0461 58.6426 77.5467 55.0198 80.2888 52.457L80.5517 52.2113C86.0494 47.073 86.0494 38.3544 80.5517 33.2161L80.2888 32.9704C77.5467 30.4076 76.0461 26.7847 76.1729 23.0336L76.185 22.674C76.4392 15.1532 70.2742 8.98819 62.7533 9.24236L62.3937 9.25451C58.6426 9.38128 55.0198 7.88065 52.457 5.13859L52.2113 4.87571Z" fill="#F9D26C"/>
<path fill-rule="evenodd" clip-rule="evenodd" d="M55.9414 31.2803C56.2343 30.9874 56.2343 30.5126 55.9414 30.2197C55.6485 29.9268 55.1736 29.9268 54.8807 30.2197L43.2443 41.8561L31.6079 30.2197C31.315 29.9268 30.8401 29.9268 30.5472 30.2197C30.2544 30.5126 30.2544 30.9874 30.5472 31.2803L42.1837 42.9167L30.5472 54.5532C30.2544 54.8461 30.2544 55.3209 30.5472 55.6138C30.8401 55.9067 31.315 55.9067 31.6079 55.6138L43.2443 43.9774L54.8807 55.6138C55.1736 55.9067 55.6485 55.9067 55.9414 55.6138C56.2343 55.3209 56.2343 54.8461 55.9414 54.5532L44.305 42.9167L55.9414 31.2803Z" fill="#F9D26C"/>
</svg>
