<svg width="184" height="40" viewBox="0 0 184 40" fill="none" xmlns="http://www.w3.org/2000/svg">
<path d="M73.4407 30C73.2407 30 73.1107 29.9 73.0507 29.7L72.1507 26.76C72.1107 26.68 72.0607 26.64 72.0007 26.64H64.6207C64.5607 26.64 64.5107 26.68 64.4707 26.76L63.6007 29.7C63.5407 29.9 63.4107 30 63.2107 30H59.4007C59.2807 30 59.1907 29.97 59.1307 29.91C59.0707 29.83 59.0607 29.72 59.1007 29.58L65.5807 9.3C65.6407 9.1 65.7707 9 65.9707 9H70.6807C70.8807 9 71.0107 9.1 71.0707 9.3L77.5507 29.58C77.5707 29.62 77.5807 29.67 77.5807 29.73C77.5807 29.91 77.4707 30 77.2507 30H73.4407ZM65.5507 23.19C65.5307 23.31 65.5707 23.37 65.6707 23.37H70.9507C71.0707 23.37 71.1107 23.31 71.0707 23.19L68.3707 14.28C68.3507 14.2 68.3207 14.17 68.2807 14.19C68.2407 14.19 68.2107 14.22 68.1907 14.28L65.5507 23.19ZM89.9532 30.24C88.3932 30.24 87.0232 29.94 85.8432 29.34C84.6632 28.72 83.7532 27.86 83.1132 26.76C82.4732 25.66 82.1532 24.39 82.1532 22.95V16.02C82.1532 14.58 82.4732 13.31 83.1132 12.21C83.7532 11.11 84.6632 10.26 85.8432 9.66C87.0232 9.06 88.3932 8.76 89.9532 8.76C91.4932 8.76 92.8432 9.05 94.0032 9.63C95.1832 10.19 96.0932 11 96.7332 12.06C97.3932 13.1 97.7232 14.31 97.7232 15.69C97.7232 15.87 97.6032 15.98 97.3632 16.02L93.8532 16.23H93.7932C93.5932 16.23 93.4932 16.12 93.4932 15.9C93.4932 14.84 93.1632 13.99 92.5032 13.35C91.8632 12.71 91.0132 12.39 89.9532 12.39C88.8732 12.39 88.0032 12.71 87.3432 13.35C86.7032 13.99 86.3832 14.84 86.3832 15.9V23.13C86.3832 24.17 86.7032 25.01 87.3432 25.65C88.0032 26.29 88.8732 26.61 89.9532 26.61C91.0132 26.61 91.8632 26.29 92.5032 25.65C93.1632 25.01 93.4932 24.17 93.4932 23.13C93.4932 22.91 93.6132 22.8 93.8532 22.8L97.3632 22.95C97.4632 22.95 97.5432 22.98 97.6032 23.04C97.6832 23.1 97.7232 23.17 97.7232 23.25C97.7232 24.63 97.3932 25.85 96.7332 26.91C96.0932 27.97 95.1832 28.79 94.0032 29.37C92.8432 29.95 91.4932 30.24 89.9532 30.24ZM115.345 30C115.145 30 115.005 29.91 114.925 29.73L111.175 21.42C111.135 21.34 111.075 21.3 110.995 21.3H108.205C108.105 21.3 108.055 21.35 108.055 21.45V29.64C108.055 29.74 108.015 29.83 107.935 29.91C107.875 29.97 107.795 30 107.695 30H104.185C104.085 30 103.995 29.97 103.915 29.91C103.855 29.83 103.825 29.74 103.825 29.64V9.36C103.825 9.26 103.855 9.18 103.915 9.12C103.995 9.04 104.085 9 104.185 9H112.765C114.045 9 115.165 9.26 116.125 9.78C117.105 10.3 117.855 11.04 118.375 12C118.915 12.96 119.185 14.07 119.185 15.33C119.185 16.69 118.845 17.86 118.165 18.84C117.485 19.8 116.535 20.48 115.315 20.88C115.215 20.92 115.185 20.99 115.225 21.09L119.305 29.58C119.345 29.66 119.365 29.72 119.365 29.76C119.365 29.92 119.255 30 119.035 30H115.345ZM108.205 12.63C108.105 12.63 108.055 12.68 108.055 12.78V17.91C108.055 18.01 108.105 18.06 108.205 18.06H112.135C112.975 18.06 113.655 17.81 114.175 17.31C114.715 16.81 114.985 16.16 114.985 15.36C114.985 14.56 114.715 13.91 114.175 13.41C113.655 12.89 112.975 12.63 112.135 12.63H108.205ZM132.723 30.33C131.163 30.33 129.783 30.01 128.583 29.37C127.403 28.73 126.483 27.84 125.823 26.7C125.163 25.54 124.833 24.21 124.833 22.71V16.29C124.833 14.81 125.163 13.5 125.823 12.36C126.483 11.22 127.403 10.34 128.583 9.72C129.783 9.08 131.163 8.76 132.723 8.76C134.303 8.76 135.683 9.08 136.863 9.72C138.063 10.34 138.993 11.22 139.653 12.36C140.313 13.5 140.643 14.81 140.643 16.29V22.71C140.643 24.21 140.313 25.54 139.653 26.7C138.993 27.86 138.063 28.76 136.863 29.4C135.683 30.02 134.303 30.33 132.723 30.33ZM132.723 26.7C133.823 26.7 134.713 26.35 135.393 25.65C136.073 24.95 136.413 24.02 136.413 22.86V16.26C136.413 15.1 136.073 14.17 135.393 13.47C134.733 12.75 133.843 12.39 132.723 12.39C131.623 12.39 130.733 12.75 130.053 13.47C129.393 14.17 129.063 15.1 129.063 16.26V22.86C129.063 24.02 129.393 24.95 130.053 25.65C130.733 26.35 131.623 26.7 132.723 26.7ZM154.086 30.24C152.486 30.24 151.086 29.99 149.886 29.49C148.686 28.97 147.756 28.24 147.096 27.3C146.456 26.34 146.136 25.23 146.136 23.97V23.31C146.136 23.21 146.166 23.13 146.226 23.07C146.306 22.99 146.396 22.95 146.496 22.95H149.916C150.016 22.95 150.096 22.99 150.156 23.07C150.236 23.13 150.276 23.21 150.276 23.31V23.76C150.276 24.56 150.646 25.24 151.386 25.8C152.126 26.34 153.126 26.61 154.386 26.61C155.446 26.61 156.236 26.39 156.756 25.95C157.276 25.49 157.536 24.93 157.536 24.27C157.536 23.79 157.376 23.39 157.056 23.07C156.736 22.73 156.296 22.44 155.736 22.2C155.196 21.94 154.326 21.59 153.126 21.15C151.786 20.69 150.646 20.22 149.706 19.74C148.786 19.26 148.006 18.61 147.366 17.79C146.746 16.95 146.436 15.92 146.436 14.7C146.436 13.5 146.746 12.45 147.366 11.55C147.986 10.65 148.846 9.96 149.946 9.48C151.046 9 152.316 8.76 153.756 8.76C155.276 8.76 156.626 9.03 157.806 9.57C159.006 10.11 159.936 10.87 160.596 11.85C161.276 12.81 161.616 13.93 161.616 15.21V15.66C161.616 15.76 161.576 15.85 161.496 15.93C161.436 15.99 161.356 16.02 161.256 16.02H157.806C157.706 16.02 157.616 15.99 157.536 15.93C157.476 15.85 157.446 15.76 157.446 15.66V15.42C157.446 14.58 157.096 13.87 156.396 13.29C155.716 12.69 154.776 12.39 153.576 12.39C152.636 12.39 151.896 12.59 151.356 12.99C150.836 13.39 150.576 13.94 150.576 14.64C150.576 15.14 150.726 15.56 151.026 15.9C151.346 16.24 151.806 16.55 152.406 16.83C153.026 17.09 153.976 17.45 155.256 17.91C156.676 18.43 157.786 18.89 158.586 19.29C159.406 19.69 160.136 20.29 160.776 21.09C161.436 21.87 161.766 22.89 161.766 24.15C161.766 26.03 161.076 27.52 159.696 28.62C158.316 29.7 156.446 30.24 154.086 30.24ZM174.927 30.24C173.327 30.24 171.927 29.99 170.727 29.49C169.527 28.97 168.597 28.24 167.937 27.3C167.297 26.34 166.977 25.23 166.977 23.97V23.31C166.977 23.21 167.007 23.13 167.067 23.07C167.147 22.99 167.237 22.95 167.337 22.95H170.757C170.857 22.95 170.937 22.99 170.997 23.07C171.077 23.13 171.117 23.21 171.117 23.31V23.76C171.117 24.56 171.487 25.24 172.227 25.8C172.967 26.34 173.967 26.61 175.227 26.61C176.287 26.61 177.077 26.39 177.597 25.95C178.117 25.49 178.377 24.93 178.377 24.27C178.377 23.79 178.217 23.39 177.897 23.07C177.577 22.73 177.137 22.44 176.577 22.2C176.037 21.94 175.167 21.59 173.967 21.15C172.627 20.69 171.487 20.22 170.547 19.74C169.627 19.26 168.847 18.61 168.207 17.79C167.587 16.95 167.277 15.92 167.277 14.7C167.277 13.5 167.587 12.45 168.207 11.55C168.827 10.65 169.687 9.96 170.787 9.48C171.887 9 173.157 8.76 174.597 8.76C176.117 8.76 177.467 9.03 178.647 9.57C179.847 10.11 180.777 10.87 181.437 11.85C182.117 12.81 182.457 13.93 182.457 15.21V15.66C182.457 15.76 182.417 15.85 182.337 15.93C182.277 15.99 182.197 16.02 182.097 16.02H178.647C178.547 16.02 178.457 15.99 178.377 15.93C178.317 15.85 178.287 15.76 178.287 15.66V15.42C178.287 14.58 177.937 13.87 177.237 13.29C176.557 12.69 175.617 12.39 174.417 12.39C173.477 12.39 172.737 12.59 172.197 12.99C171.677 13.39 171.417 13.94 171.417 14.64C171.417 15.14 171.567 15.56 171.867 15.9C172.187 16.24 172.647 16.55 173.247 16.83C173.867 17.09 174.817 17.45 176.097 17.91C177.517 18.43 178.627 18.89 179.427 19.29C180.247 19.69 180.977 20.29 181.617 21.09C182.277 21.87 182.607 22.89 182.607 24.15C182.607 26.03 181.917 27.52 180.537 28.62C179.157 29.7 177.287 30.24 174.927 30.24Z" fill="#2D2E33"/>
<path fill-rule="evenodd" clip-rule="evenodd" d="M35.9714 0L40 4.02857L26.5371 17.4915C25.8275 15.6433 24.3567 14.1725 22.5085 13.4629L35.9714 0ZM17.4915 13.4629L4.02857 0L0 4.02857L13.4629 17.4915C14.1725 15.6433 15.6433 14.1725 17.4915 13.4629ZM13.4629 22.5085L0 35.9714L4.02857 40L17.4915 26.5371C15.6433 25.8275 14.1725 24.3567 13.4629 22.5085ZM22.5085 26.5371L35.9714 40L40 35.9714L26.5371 22.5085C25.8275 24.3567 24.3567 25.8275 22.5085 26.5371Z" fill="#2D2E33"/>
</svg>
