<svg width="32" height="32" viewBox="0 0 32 32" fill="none" xmlns="http://www.w3.org/2000/svg">
<path d="M21.3334 28V25.3333C21.3334 23.9188 20.7715 22.5623 19.7713 21.5621C18.7711 20.5619 17.4146 20 16.0001 20H8.00008C6.58559 20 5.22904 20.5619 4.22885 21.5621C3.22865 22.5623 2.66675 23.9188 2.66675 25.3333V28" stroke="black" stroke-width="1.5" stroke-linecap="round" stroke-linejoin="round"/>
<path d="M21.3334 28V25.3333C21.3334 23.9188 20.7715 22.5623 19.7713 21.5621C18.7711 20.5619 17.4146 20 16.0001 20H8.00008C6.58559 20 5.22904 20.5619 4.22885 21.5621C3.22865 22.5623 2.66675 23.9188 2.66675 25.3333V28" stroke="url(#paint0_linear_4420_69598)" stroke-width="1.5" stroke-linecap="round" stroke-linejoin="round"/>
<path d="M12.0001 14.6667C14.9456 14.6667 17.3334 12.2789 17.3334 9.33333C17.3334 6.38781 14.9456 4 12.0001 4C9.05456 4 6.66675 6.38781 6.66675 9.33333C6.66675 12.2789 9.05456 14.6667 12.0001 14.6667Z" stroke="black" stroke-width="1.5" stroke-linecap="round" stroke-linejoin="round"/>
<path d="M12.0001 14.6667C14.9456 14.6667 17.3334 12.2789 17.3334 9.33333C17.3334 6.38781 14.9456 4 12.0001 4C9.05456 4 6.66675 6.38781 6.66675 9.33333C6.66675 12.2789 9.05456 14.6667 12.0001 14.6667Z" stroke="url(#paint1_linear_4420_69598)" stroke-width="1.5" stroke-linecap="round" stroke-linejoin="round"/>
<path d="M29.3335 27.9995V25.3329C29.3326 24.1512 28.9393 23.0032 28.2153 22.0693C27.4913 21.1353 26.4777 20.4683 25.3335 20.1729" stroke="black" stroke-width="1.5" stroke-linecap="round" stroke-linejoin="round"/>
<path d="M29.3335 27.9995V25.3329C29.3326 24.1512 28.9393 23.0032 28.2153 22.0693C27.4913 21.1353 26.4777 20.4683 25.3335 20.1729" stroke="url(#paint2_linear_4420_69598)" stroke-width="1.5" stroke-linecap="round" stroke-linejoin="round"/>
<path d="M21.3335 4.17285C22.4807 4.46659 23.4975 5.13379 24.2237 6.06927C24.9498 7.00474 25.344 8.15529 25.344 9.33952C25.344 10.5237 24.9498 11.6743 24.2237 12.6098C23.4975 13.5452 22.4807 14.2124 21.3335 14.5062" stroke="black" stroke-width="1.5" stroke-linecap="round" stroke-linejoin="round"/>
<path d="M21.3335 4.17285C22.4807 4.46659 23.4975 5.13379 24.2237 6.06927C24.9498 7.00474 25.344 8.15529 25.344 9.33952C25.344 10.5237 24.9498 11.6743 24.2237 12.6098C23.4975 13.5452 22.4807 14.2124 21.3335 14.5062" stroke="url(#paint3_linear_4420_69598)" stroke-width="1.5" stroke-linecap="round" stroke-linejoin="round"/>
<defs>
<linearGradient id="paint0_linear_4420_69598" x1="17.2485" y1="24" x2="9.95012" y2="25.5" gradientUnits="userSpaceOnUse">
<stop stop-color="#6CF9D8"/>
<stop offset="1" stop-color="#C4FFF1"/>
</linearGradient>
<linearGradient id="paint1_linear_4420_69598" x1="14.9992" y1="9.33333" x2="10.686" y2="9.71326" gradientUnits="userSpaceOnUse">
<stop stop-color="#6CF9D8"/>
<stop offset="1" stop-color="#C4FFF1"/>
</linearGradient>
<linearGradient id="paint2_linear_4420_69598" x1="28.4582" y1="24.0862" x2="26.8315" y2="24.1594" gradientUnits="userSpaceOnUse">
<stop stop-color="#6CF9D8"/>
<stop offset="1" stop-color="#C4FFF1"/>
</linearGradient>
<linearGradient id="paint3_linear_4420_69598" x1="24.4663" y1="9.33952" x2="22.834" y2="9.39532" gradientUnits="userSpaceOnUse">
<stop stop-color="#6CF9D8"/>
<stop offset="1" stop-color="#C4FFF1"/>
</linearGradient>
</defs>
</svg>
