<svg width="32" height="32" viewBox="0 0 32 32" fill="none" xmlns="http://www.w3.org/2000/svg">
<path d="M25.3333 6.66699C23.3333 6.66699 21.6 8.53366 21.3333 9.33366C16.6666 7.33366 6.66663 8.93366 6.66663 16.0003C6.66663 18.4003 6.66663 20.0003 9.33329 22.0003V26.667H14.6666V24.0003H18.6666V26.667H24V21.3337C25.3333 20.667 26.2666 20.0003 26.6666 18.667H29.3333V13.3337H26.6666C26.6666 12.0003 26 11.3337 25.3333 10.667V6.66699Z" stroke="#6CF9D8" stroke-width="1.5" stroke-linecap="round" stroke-linejoin="round"/>
<path d="M25.3333 6.66699C23.3333 6.66699 21.6 8.53366 21.3333 9.33366C16.6666 7.33366 6.66663 8.93366 6.66663 16.0003C6.66663 18.4003 6.66663 20.0003 9.33329 22.0003V26.667H14.6666V24.0003H18.6666V26.667H24V21.3337C25.3333 20.667 26.2666 20.0003 26.6666 18.667H29.3333V13.3337H26.6666C26.6666 12.0003 26 11.3337 25.3333 10.667V6.66699Z" stroke="url(#paint0_linear_4249_62661)" stroke-width="1.5" stroke-linecap="round" stroke-linejoin="round"/>
<path d="M2.66663 12V13.3333C2.66663 14.8 3.86663 16 5.33329 16H6.66663" stroke="#6CF9D8" stroke-width="1.5" stroke-linecap="round" stroke-linejoin="round"/>
<path d="M2.66663 12V13.3333C2.66663 14.8 3.86663 16 5.33329 16H6.66663" stroke="url(#paint1_linear_4249_62661)" stroke-width="1.5" stroke-linecap="round" stroke-linejoin="round"/>
<defs>
<linearGradient id="paint0_linear_4249_62661" x1="24.3731" y1="16.667" x2="15.2275" y2="17.58" gradientUnits="userSpaceOnUse">
<stop stop-color="#6CF9D8"/>
<stop offset="1" stop-color="#C4FFF1"/>
</linearGradient>
<linearGradient id="paint1_linear_4249_62661" x1="5.79129" y1="14" x2="4.17384" y2="14.1425" gradientUnits="userSpaceOnUse">
<stop stop-color="#6CF9D8"/>
<stop offset="1" stop-color="#C4FFF1"/>
</linearGradient>
</defs>
</svg>
