<svg width="48" height="48" viewBox="0 0 48 48" fill="none" xmlns="http://www.w3.org/2000/svg">
<path d="M19.5303 5.51468C21.9484 2.92733 26.0516 2.92733 28.4697 5.51469C29.873 7.01608 31.8566 7.83773 33.9105 7.76832C37.45 7.6487 40.3513 10.55 40.2317 14.0895C40.1623 16.1434 40.9839 18.127 42.4853 19.5303C45.0727 21.9484 45.0727 26.0516 42.4853 28.4697C40.9839 29.873 40.1623 31.8566 40.2317 33.9105C40.3513 37.45 37.45 40.3513 33.9105 40.2317C31.8566 40.1623 29.873 40.9839 28.4697 42.4853C26.0516 45.0727 21.9484 45.0727 19.5303 42.4853C18.127 40.9839 16.1434 40.1623 14.0895 40.2317C10.55 40.3513 7.6487 37.45 7.76832 33.9105C7.83773 31.8566 7.01607 29.873 5.51468 28.4697C2.92733 26.0516 2.92733 21.9484 5.51469 19.5303C7.01608 18.127 7.83773 16.1434 7.76832 14.0895C7.6487 10.55 10.55 7.6487 14.0895 7.76832C16.1434 7.83773 18.127 7.01607 19.5303 5.51468Z" fill="#2D2E33" stroke="#9DAAB2"/>
<g clip-path="url(#clip0_3907_53780)">
<path fill-rule="evenodd" clip-rule="evenodd" d="M29 24.8747C29.4142 24.8747 29.75 24.5389 29.75 24.1247C29.75 23.7105 29.4142 23.3747 29 23.3747L24.6251 23.3747L24.6251 18.9999C24.6251 18.5857 24.2893 18.2499 23.8751 18.2499C23.4609 18.2499 23.1251 18.5857 23.1251 18.9999L23.1251 23.3747L18.7503 23.3747C18.336 23.3747 18.0003 23.7105 18.0003 24.1247C18.0003 24.5389 18.336 24.8747 18.7503 24.8747L23.1251 24.8747V29.2496C23.1251 29.6638 23.4609 29.9996 23.8751 29.9996C24.2893 29.9996 24.6251 29.6638 24.6251 29.2496V24.8747L29 24.8747Z" fill="#9DAAB2"/>
</g>
<defs>
<clipPath id="clip0_3907_53780">
<rect x="18" y="18" width="12" height="12" rx="6" fill="white"/>
</clipPath>
</defs>
</svg>
