<svg width="16" height="16" viewBox="0 0 16 16" fill="none" xmlns="http://www.w3.org/2000/svg">
<rect width="16" height="16" rx="8" fill="#8247E5"/>
<path d="M10.0574 6.6319C9.91123 6.54835 9.72324 6.54835 9.55614 6.6319L8.38642 7.3212L7.59269 7.75984L6.44386 8.44914C6.29765 8.53269 6.10966 8.53269 5.94256 8.44914L5.04439 7.90606C4.89817 7.8225 4.79373 7.6554 4.79373 7.46741V6.42303C4.79373 6.25593 4.87728 6.08882 5.04439 5.98438L5.94256 5.46219C6.08877 5.37864 6.27676 5.37864 6.44386 5.46219L7.34204 6.00527C7.48825 6.08882 7.59269 6.25593 7.59269 6.44391V7.13321L8.38642 6.67368V5.9635C8.38642 5.7964 8.30287 5.62929 8.13577 5.52485L6.46475 4.54313C6.31854 4.45958 6.13055 4.45958 5.96345 4.54313L4.25065 5.54574C4.08355 5.62929 4 5.7964 4 5.9635V7.92694C4 8.09404 4.08355 8.26115 4.25065 8.36559L5.94256 9.34731C6.08877 9.43086 6.27676 9.43086 6.44386 9.34731L7.59269 8.6789L8.38642 8.21937L9.53525 7.55096C9.68146 7.46741 9.86945 7.46741 10.0366 7.55096L10.9347 8.07316C11.0809 8.15671 11.1854 8.32381 11.1854 8.5118V9.55619C11.1854 9.72329 11.1018 9.89039 10.9347 9.99483L10.0574 10.517C9.91123 10.6006 9.72324 10.6006 9.55614 10.517L8.65796 9.99483C8.51175 9.91128 8.40731 9.74418 8.40731 9.55619V8.88778L7.61358 9.34731V10.0366C7.61358 10.2037 7.69713 10.3708 7.86423 10.4752L9.55614 11.457C9.70235 11.5405 9.89034 11.5405 10.0574 11.457L11.7493 10.4752C11.8956 10.3917 12 10.2246 12 10.0366V8.05227C12 7.88517 11.9164 7.71807 11.7493 7.61363L10.0574 6.6319Z" fill="white"/>
</svg>
