<svg width="64" height="64" viewBox="0 0 64 64" fill="none" xmlns="http://www.w3.org/2000/svg">
<path d="M25.1912 4.40626C28.8749 0.464802 35.1254 0.464803 38.8092 4.40626C40.8436 6.58302 43.7196 7.77427 46.6974 7.67364C52.0892 7.49142 56.509 11.9112 56.3268 17.303C56.2261 20.2808 57.4174 23.1567 59.5941 25.1912C63.5356 28.8749 63.5356 35.1254 59.5941 38.8092C57.4174 40.8436 56.2261 43.7196 56.3268 46.6974C56.509 52.0892 52.0892 56.509 46.6974 56.3268C43.7196 56.2261 40.8436 57.4174 38.8092 59.5941C35.1254 63.5356 28.8749 63.5356 25.1912 59.5941C23.1567 57.4174 20.2808 56.2261 17.303 56.3268C11.9112 56.509 7.49142 52.0892 7.67364 46.6974C7.77427 43.7196 6.58302 40.8436 4.40626 38.8092C0.464802 35.1254 0.464803 28.8749 4.40626 25.1912C6.58302 23.1567 7.77427 20.2808 7.67364 17.303C7.49142 11.9112 11.9112 7.49142 17.303 7.67364C20.2808 7.77427 23.1567 6.58302 25.1912 4.40626Z" fill="#3E4047" stroke="#44D2FF"/>
<path d="M23.0002 38.1L27.5304 31.0724C28.5737 29.454 31.0771 30.1001 31.2069 32.0213L31.4498 35.6178C31.5847 37.6165 34.2481 38.1975 35.2033 36.4365L40.8639 26M40.8639 26L36.4223 27.65M40.8639 26L42.5002 29.85" stroke="#44D2FF" stroke-width="1.5" stroke-linecap="round"/>
</svg>
