<svg width="560" height="178" viewBox="0 0 560 178" fill="none" xmlns="http://www.w3.org/2000/svg">
<path fill-rule="evenodd" clip-rule="evenodd" d="M477.654 1248.43C354.357 1287.29 222.671 1323.83 50.5533 1275.3C-35.5328 1251.03 -74.4045 1213.68 -92.4136 1168.78C-101.409 1146.35 -105.186 1122.07 -107.073 1096.66C-108.161 1082.02 -108.622 1066.96 -109.091 1051.67L-109.091 1051.66C-109.435 1040.45 -109.783 1029.1 -110.384 1017.69C-113.231 963.691 -121.77 907.912 -162.401 855.84C-203.038 803.761 -275.834 755.321 -407.348 716.148C-539.03 676.924 -621.77 603.613 -664.572 515.548C-707.369 427.493 -710.212 324.743 -682.214 226.677C-626.225 30.5661 -446.844 -146.987 -216.597 -151.032C-101.621 -153.052 -23.3252 -161.939 36.6366 -178.336C96.5831 -194.729 138.223 -218.632 179.879 -250.719C202.046 -267.794 224.224 -287.194 249.168 -309.013C317.992 -369.215 407.877 -447.839 576.703 -546.895C806.869 -681.943 1115.77 -655.643 1343 -546.106C1456.63 -491.335 1549.89 -415.729 1602.69 -329.012C1655.5 -242.276 1667.83 -144.426 1619.58 -45.2702C1571.41 53.7012 1547.36 122.218 1541.35 177.832C1535.34 233.414 1547.35 276.141 1571.4 323.551C1584.58 349.529 1601.39 376.918 1620.82 408.593C1672.33 492.56 1742.33 606.646 1812.29 804.385C1856.82 930.254 1849.01 1027.95 1804.69 1101.29C1760.38 1174.62 1679.64 1223.49 1578.53 1251.86C1376.33 1308.59 1092.43 1283.4 854.448 1207.43C723.237 1170.51 613.347 1205.38 497.423 1242.17C490.854 1244.25 484.266 1246.34 477.654 1248.43ZM497.175 1241.2C613.056 1204.42 723.216 1169.46 854.727 1206.47L854.736 1206.47L854.744 1206.47C1092.61 1282.41 1376.31 1307.56 1578.26 1250.89C1679.23 1222.56 1759.7 1173.8 1803.83 1100.77C1847.95 1027.76 1855.81 930.398 1811.35 804.719C1741.42 607.089 1671.53 493.166 1620.02 409.208C1600.57 377.497 1583.73 350.061 1570.51 324.004C1546.39 276.472 1534.32 233.549 1540.35 177.724C1546.38 121.932 1570.5 53.2866 1618.68 -45.7078C1666.77 -144.518 1654.49 -242.008 1601.83 -328.492C1549.16 -414.995 1456.08 -490.489 1342.57 -545.205C1115.54 -654.643 807.007 -680.865 577.209 -546.033C408.474 -447.029 318.698 -368.501 249.882 -308.306L249.878 -308.303L249.874 -308.299L249.871 -308.297C224.909 -286.462 202.705 -267.04 180.489 -249.927C138.751 -217.776 96.9956 -193.805 36.9004 -177.371C-23.1793 -160.942 -101.572 -152.053 -216.579 -150.032C-446.297 -145.997 -625.358 31.1717 -681.252 226.952C-709.197 324.831 -706.342 427.32 -663.673 515.111C-621.009 602.891 -538.513 676.035 -407.062 715.189C-275.444 754.394 -202.427 802.918 -161.613 855.225C-120.791 907.54 -112.236 963.571 -109.385 1017.64C-108.781 1029.1 -108.433 1040.46 -108.09 1051.68C-107.623 1066.94 -107.163 1081.95 -106.076 1096.59C-104.192 1121.95 -100.425 1146.11 -91.4855 1168.41C-73.6244 1212.94 -35.0581 1250.13 50.8246 1274.34C222.645 1322.78 354.092 1286.32 477.353 1247.47C483.924 1245.4 490.471 1243.32 497.001 1241.25L497.154 1241.2L497.175 1241.2ZM77.1776 1227.28C240.493 1273.34 365.445 1238.65 482.432 1201.77C488.705 1199.79 494.955 1197.81 501.187 1195.83C611.179 1160.91 715.438 1127.81 839.925 1162.85C1065.73 1234.96 1335.11 1258.88 1526.96 1205.03C1622.89 1178.1 1699.51 1131.71 1741.56 1062.1C1783.61 992.48 1791.03 899.741 1748.77 780.266C1682.39 592.575 1615.98 484.285 1567.1 404.586C1548.66 374.521 1532.72 348.525 1520.21 323.871C1497.39 278.873 1486 238.322 1491.7 185.572C1497.4 132.79 1520.22 67.759 1565.92 -26.1809C1611.71 -120.305 1600.01 -213.191 1549.9 -295.524C1499.79 -377.838 1411.3 -449.604 1303.49 -501.593C1087.88 -605.564 794.785 -630.53 576.39 -502.341C416.204 -408.318 330.916 -333.688 265.615 -276.547L265.614 -276.545C241.947 -255.836 220.905 -237.424 199.875 -221.218C160.353 -190.763 120.848 -168.077 63.9735 -152.518C7.08384 -136.956 -67.2024 -128.521 -176.292 -126.603C-394.767 -122.764 -564.975 45.7742 -618.101 231.925C-644.667 325.011 -641.97 422.544 -601.36 506.13C-560.745 589.726 -482.235 659.315 -357.286 696.547C-232.506 733.728 -163.443 779.703 -124.89 829.13C-86.3432 878.548 -78.2423 931.486 -75.5409 982.742C-74.9702 993.569 -74.6402 1004.34 -74.3141 1014.98C-73.8692 1029.5 -73.4314 1043.8 -72.3993 1057.7C-70.6084 1081.81 -67.0245 1104.86 -58.4884 1126.15C-41.3973 1168.78 -4.50744 1204.24 77.1776 1227.28ZM840.204 1161.89C715.417 1126.77 610.888 1159.95 500.94 1194.86C494.689 1196.84 488.421 1198.83 482.131 1200.81C365.179 1237.69 240.467 1272.29 77.449 1226.32C-4.03259 1203.34 -40.6171 1168.04 -57.5602 1125.78C-66.0411 1104.63 -69.6144 1081.7 -71.402 1057.62C-72.4338 1043.73 -72.8696 1029.49 -73.3131 1015C-73.6388 1004.35 -73.9687 993.571 -74.5422 982.689C-77.2472 931.366 -85.3648 878.177 -124.101 828.515C-162.832 778.86 -232.116 732.801 -357.001 695.588C-481.717 658.426 -559.984 589.005 -600.461 505.693C-640.942 422.371 -643.652 325.099 -617.139 232.2C-564.108 46.3796 -394.221 -121.773 -176.274 -125.604C-67.1526 -127.521 7.22971 -135.959 64.2373 -151.554C121.26 -167.153 160.881 -189.908 200.485 -220.426C221.568 -236.672 242.64 -255.111 266.329 -275.84C331.624 -332.975 416.801 -407.509 576.896 -501.478C794.923 -629.451 1087.65 -604.565 1303.06 -500.692C1410.75 -448.759 1499.07 -377.105 1549.04 -295.004C1599 -212.922 1610.65 -120.397 1565.02 -26.6184C1519.31 67.3446 1496.43 132.504 1490.7 185.465C1484.98 238.458 1496.44 279.204 1519.32 324.323C1531.87 349.058 1547.84 375.101 1566.3 405.201C1615.17 484.891 1681.48 593.019 1747.83 780.6C1790.02 899.885 1782.56 992.293 1740.7 1061.58C1698.83 1130.89 1622.49 1177.17 1526.69 1204.06C1335.09 1257.85 1065.91 1233.97 840.221 1161.9L840.212 1161.9L840.204 1161.89ZM487.024 1156.9C376.114 1191.89 257.646 1224.79 102.807 1181.1C25.3604 1159.25 -9.62096 1125.61 -25.828 1085.17C-33.9221 1064.97 -37.3201 1043.11 -39.018 1020.23C-39.995 1007.07 -40.4089 993.538 -40.8294 979.79L-40.8298 979.783L-40.8302 979.775L-40.8305 979.768L-40.8309 979.761L-40.8313 979.754L-40.8316 979.747L-40.832 979.74L-40.8324 979.734L-40.8327 979.727L-40.8331 979.721L-40.8335 979.715L-40.8335 979.712L-40.8335 979.709L-40.8335 979.707L-40.8335 979.704L-40.8335 979.701L-40.8335 979.698L-40.8335 979.696L-40.8335 979.694L-40.8335 979.691L-40.8335 979.689L-40.8335 979.687L-40.8335 979.685L-40.8335 979.683L-40.8335 979.681C-41.1427 969.594 -41.4554 959.391 -41.9964 949.134C-44.5573 900.519 -52.2372 850.313 -88.7765 803.446C-125.322 756.57 -190.792 712.965 -309.087 677.699C-427.551 642.383 -501.989 576.373 -540.498 497.074C-579.002 417.786 -581.558 325.268 -556.37 236.971C-506.002 60.3968 -344.628 -99.4729 -137.488 -103.115C-34.0664 -104.933 36.3581 -112.934 90.2894 -127.694C144.205 -142.451 181.655 -163.967 219.122 -192.852C239.059 -208.223 259.007 -225.687 281.445 -245.33C343.354 -299.529 424.213 -370.318 576.08 -459.501C783.14 -581.094 1061.02 -557.413 1265.44 -458.792C1367.65 -409.479 1451.55 -341.406 1499.05 -263.325C1546.56 -185.225 1557.66 -97.1127 1514.24 -7.82656C1470.92 81.2756 1449.28 142.954 1443.88 193.014C1438.47 243.042 1449.27 281.5 1470.91 324.177C1482.76 347.56 1497.88 372.216 1515.36 400.732C1561.7 476.327 1624.66 579.045 1687.6 757.074C1727.66 870.402 1720.63 958.374 1680.75 1024.42C1640.89 1090.45 1568.24 1134.45 1477.29 1159.99C1295.4 1211.08 1040.01 1188.39 825.931 1119.99C707.918 1086.76 609.083 1118.15 504.804 1151.27L504.801 1151.27L504.798 1151.27L504.794 1151.27L504.791 1151.28L504.787 1151.28L504.784 1151.28L504.78 1151.28L504.777 1151.28L504.72 1151.3C498.84 1153.16 492.943 1155.04 487.024 1156.9ZM504.556 1150.3C608.792 1117.19 707.897 1085.71 826.21 1119.03L826.219 1119.04L826.227 1119.04C1040.19 1187.4 1295.38 1210.04 1477.02 1159.03C1567.84 1133.53 1640.21 1089.63 1679.9 1023.9C1719.58 958.187 1726.65 870.546 1686.65 757.408C1623.76 579.489 1560.89 476.933 1514.56 401.346L1514.56 401.344L1514.55 401.341L1514.55 401.34C1497.05 372.792 1481.91 348.091 1470.02 324.629C1448.32 281.83 1437.45 243.177 1442.88 192.907C1448.31 142.668 1470.01 80.8613 1513.35 -8.26394C1556.59 -97.2051 1545.56 -184.956 1498.2 -262.805C1450.82 -340.673 1367.1 -408.634 1265 -457.892C1060.79 -556.413 783.278 -580.016 576.587 -458.639C424.81 -369.509 344.061 -298.816 282.159 -244.623L282.155 -244.62L282.15 -244.615L282.147 -244.613L282.138 -244.605C259.687 -224.95 239.715 -207.466 219.733 -192.06C182.184 -163.112 144.618 -141.527 90.5533 -126.73C36.5041 -111.937 -34.0166 -103.934 -137.47 -102.115C-344.081 -98.4823 -505.135 61.0018 -555.409 237.245C-580.543 325.356 -577.974 417.613 -539.598 496.637C-501.228 575.651 -427.033 641.493 -308.802 676.741C-190.402 712.038 -124.711 755.728 -87.9878 802.831C-51.2586 849.942 -43.5624 900.399 -40.9978 949.081C-40.4541 959.404 -40.1412 969.63 -39.8324 979.727L-39.832 979.734L-39.8316 979.742L-39.8313 979.749L-39.8309 979.757C-39.411 993.49 -38.9984 1006.98 -38.0207 1020.15C-36.326 1042.99 -32.9387 1064.74 -24.8998 1084.8C-8.84057 1124.87 25.8355 1158.34 103.079 1180.14C257.621 1223.75 375.848 1190.93 486.723 1155.95C492.687 1154.07 498.63 1152.18 504.556 1150.3ZM124.505 1142.32C272.172 1184.01 385.153 1152.61 490.922 1119.22C496.593 1117.43 502.243 1115.63 507.876 1113.84C607.321 1082.23 701.567 1052.28 814.101 1083.99C1018.25 1149.27 1261.81 1170.92 1435.28 1122.17C1522.01 1097.79 1591.29 1055.79 1629.32 992.766C1667.35 929.726 1674.05 845.759 1635.84 737.595C1575.83 567.682 1515.78 469.644 1471.59 397.496C1454.92 370.282 1440.51 346.751 1429.2 324.436C1408.57 283.708 1398.28 247.008 1403.43 199.267C1408.58 151.494 1429.21 92.6311 1470.53 7.59275C1511.94 -77.6294 1501.35 -161.731 1456.04 -236.276C1410.73 -310.801 1330.72 -375.773 1233.25 -422.838C1038.3 -516.963 773.298 -539.567 575.83 -423.513C431.002 -338.397 353.889 -270.833 294.85 -219.106L294.85 -219.105C273.453 -200.358 254.431 -183.691 235.419 -169.023C199.692 -141.457 163.98 -120.923 112.568 -106.841C61.14 -92.754 -6.01712 -85.1182 -104.643 -83.3827C-302.191 -79.9066 -456.091 72.6816 -504.126 241.211C-528.147 325.486 -525.709 413.79 -488.988 489.469C-452.262 565.158 -381.269 628.161 -268.292 661.868C-155.484 695.526 -93.0548 737.14 -58.2077 781.873C-23.3669 826.598 -16.0436 874.508 -13.6014 920.904C-13.0857 930.703 -12.7873 940.451 -12.4924 950.088C-12.0902 963.235 -11.6942 976.175 -10.7611 988.757C-9.14171 1010.59 -5.90111 1031.46 1.81899 1050.74C17.2778 1089.35 50.6443 1121.46 124.505 1142.32ZM814.381 1083.03C701.547 1051.23 607.03 1081.28 507.628 1112.87C501.976 1114.67 496.308 1116.47 490.62 1118.27C384.887 1151.65 272.147 1182.97 124.777 1141.35C51.1199 1120.55 18.0586 1088.61 2.74733 1050.37C-4.91771 1031.23 -8.14769 1010.47 -9.76377 988.683C-10.6966 976.105 -11.0906 963.22 -11.4914 950.105L-11.4914 950.101C-11.7859 940.465 -12.0842 930.705 -12.6028 920.852C-15.0486 874.388 -22.3884 826.226 -57.4189 781.258C-92.4433 736.298 -155.094 694.599 -268.006 660.91C-380.751 627.272 -451.5 564.436 -488.088 489.032C-524.681 413.617 -527.132 325.573 -503.164 241.485C-455.223 73.2861 -301.644 -78.9162 -104.625 -82.3828C-5.96731 -84.1189 61.2861 -91.7572 112.832 -105.876C164.394 -119.999 200.22 -140.602 236.03 -168.231C255.093 -182.94 274.146 -199.633 295.564 -218.398C354.596 -270.12 431.599 -337.587 576.337 -422.651C773.436 -538.488 1038.07 -515.964 1232.81 -421.938C1330.17 -374.927 1410.01 -310.068 1455.18 -235.756C1500.35 -161.463 1510.87 -77.7217 1469.63 7.15574C1428.3 92.217 1407.61 151.208 1402.43 199.16C1397.25 247.143 1407.62 284.038 1428.31 324.888C1439.66 347.283 1454.1 370.86 1470.79 398.11L1470.79 398.11C1514.97 470.249 1574.92 568.125 1634.9 737.928C1673.04 845.903 1666.3 929.539 1628.46 992.249C1590.62 1054.97 1521.61 1096.87 1435 1121.21C1261.79 1169.89 1018.44 1148.28 814.397 1083.04L814.389 1083.04L814.381 1083.03ZM495.696 1072.56C396.237 1103.98 289.99 1133.52 151.126 1094.29C81.6655 1074.66 50.281 1044.45 35.7401 1008.12C28.4791 989.972 25.4315 970.332 23.9087 949.788C23.0313 937.95 22.6588 925.774 22.2805 913.405C22.0033 904.338 21.7228 895.167 21.2378 885.949C18.9416 842.299 12.0557 797.23 -20.7008 755.159C-53.4632 713.079 -112.161 673.929 -218.235 642.264C-324.477 610.548 -391.241 551.267 -425.78 480.047C-460.314 408.838 -462.606 325.75 -440.017 246.455C-394.845 87.8861 -250.119 -55.687 -64.3421 -58.9578C28.3978 -60.5906 91.5449 -67.7747 139.901 -81.0269C188.241 -94.2748 221.818 -113.592 255.411 -139.525C273.286 -153.324 291.172 -169.004 311.29 -186.64L311.293 -186.642C366.809 -235.31 439.324 -298.88 575.513 -378.963C761.209 -488.158 1010.41 -466.888 1193.73 -378.329C1285.39 -334.046 1360.64 -272.914 1403.24 -202.791C1445.86 -132.65 1455.81 -53.5126 1416.87 26.6782C1378.02 106.685 1358.62 162.062 1353.77 207.004C1348.93 251.914 1358.61 286.436 1378.01 324.752C1388.64 345.744 1402.19 367.881 1417.86 393.485C1459.42 461.365 1515.88 553.608 1572.32 713.472C1608.25 815.243 1601.95 894.253 1566.18 953.573C1530.42 1012.88 1465.27 1052.4 1383.7 1075.34C1220.58 1121.21 991.547 1100.83 799.574 1039.42C693.764 1009.58 605.149 1037.76 511.637 1067.5C506.34 1069.19 501.028 1070.88 495.696 1072.56ZM511.389 1066.53C604.857 1036.8 693.743 1008.53 799.853 1038.46L799.862 1038.46L799.87 1038.46C991.732 1099.85 1220.55 1120.17 1383.43 1074.37C1464.86 1051.47 1529.75 1012.06 1565.33 953.056C1600.9 894.066 1607.24 815.387 1571.38 713.805C1514.98 554.051 1458.61 461.97 1417.06 394.099C1401.37 368.46 1387.79 346.276 1377.12 325.203C1357.66 286.766 1347.91 252.048 1352.78 206.897C1357.65 161.777 1377.11 106.271 1415.97 26.2413C1454.74 -53.6048 1444.85 -132.382 1402.39 -202.272C1359.91 -272.182 1284.85 -333.201 1193.3 -377.428C1010.18 -465.889 761.348 -487.079 576.02 -378.101C439.922 -298.071 367.517 -234.598 312.007 -185.936C291.866 -168.28 273.95 -152.574 256.022 -138.734C222.347 -112.737 188.654 -93.3512 140.165 -80.0624C91.6911 -66.7778 28.4477 -59.5913 -64.3244 -57.9579C-249.571 -54.6966 -393.977 88.49 -439.055 246.729C-461.591 325.837 -459.286 408.665 -424.88 479.611C-390.479 550.546 -323.959 609.659 -217.949 641.306C-111.77 673.002 -52.8515 712.237 -19.9117 754.544C13.0342 796.859 19.9366 842.179 22.2365 885.896C22.7243 895.168 23.0048 904.351 23.2816 913.417L23.282 913.424L23.2824 913.431L23.2827 913.437L23.2831 913.444L23.2835 913.452L23.2838 913.459L23.2842 913.467L23.2846 913.475C23.6605 925.794 24.0299 937.898 24.906 949.714C26.4256 970.215 29.4625 989.738 36.6686 1007.74C51.0619 1043.71 82.1415 1073.76 151.398 1093.33C289.965 1132.48 395.971 1103.01 495.394 1071.61C500.743 1069.92 506.073 1068.22 511.389 1066.53ZM172.8 1055.5C304.493 1092.74 405.253 1064.69 499.57 1034.87C504.624 1033.27 509.659 1031.67 514.679 1030.07L514.685 1030.07C603.364 1001.84 687.389 975.092 787.721 1003.41C969.771 1061.71 1186.96 1081.05 1341.66 1037.51C1419.01 1015.73 1480.81 978.217 1514.72 921.916C1548.65 865.6 1554.62 790.594 1520.55 693.987C1467.03 542.239 1413.47 454.677 1374.07 390.244C1359.21 365.942 1346.36 344.93 1336.28 325.005C1317.89 288.639 1308.71 255.874 1313.3 213.252C1317.9 170.597 1336.29 118.035 1373.13 42.092C1410.06 -34.0348 1400.62 -109.162 1360.21 -175.748C1319.8 -242.315 1248.44 -300.345 1161.52 -342.38C987.673 -426.445 751.344 -446.636 575.239 -342.981C446.089 -266.964 377.321 -206.62 324.675 -160.424C305.596 -143.682 288.635 -128.799 271.685 -115.702C239.831 -91.0869 207.993 -72.7526 162.156 -60.1785C116.303 -47.6002 56.4238 -40.781 -31.5202 -39.2312C-207.706 -36.1264 -344.957 100.165 -387.795 250.689C-409.218 325.962 -407.045 404.837 -374.294 472.436C-341.537 540.046 -278.219 596.321 -177.463 626.428C-76.8765 656.484 -21.2193 693.644 9.84464 733.581C40.9026 773.51 47.432 816.283 49.6095 857.714C50.0669 866.416 50.3316 875.075 50.5932 883.637L50.5932 883.64L50.595 883.695L50.595 883.701L50.5954 883.708L50.5957 883.714L50.5961 883.722L50.5965 883.73L50.5968 883.738L50.5972 883.746L50.5976 883.755L50.5979 883.764L50.5983 883.774L50.5983 883.776L50.5983 883.778L50.5983 883.78L50.5983 883.782L50.5983 883.784L50.5983 883.786L50.5983 883.787L50.5983 883.789L50.5983 883.791L50.5983 883.792L50.5983 883.794L50.5983 883.795L50.5983 883.796L50.5983 883.798L50.5983 883.799L50.5983 883.8L50.5983 883.801C50.9571 895.534 51.3102 907.084 52.1424 918.312C53.5864 937.814 56.4767 956.459 63.3638 973.685C77.1565 1008.18 106.926 1036.87 172.8 1055.5ZM788.001 1002.45C687.369 974.044 603.072 1000.88 514.437 1029.1C509.396 1030.7 504.341 1032.31 499.268 1033.92C404.986 1063.73 304.468 1091.69 173.072 1054.53C107.403 1035.96 77.9378 1007.45 64.2923 973.314C57.4602 956.225 54.5806 937.697 53.1397 918.238C52.3079 907.006 51.9567 895.502 51.5993 883.791L51.5993 883.788C51.3367 875.182 51.0707 866.465 50.6081 857.662C48.427 816.163 41.8811 773.139 10.6339 732.967C-20.6074 692.802 -76.4853 655.557 -177.177 625.47C-277.7 595.433 -340.774 539.326 -373.393 472C-406.017 404.664 -408.203 326.05 -386.834 250.963C-344.089 100.769 -207.158 -35.1359 -31.5026 -38.2313C56.4737 -39.7817 116.45 -46.6034 162.421 -59.2141C208.407 -71.8291 240.36 -90.232 272.296 -114.91C289.298 -128.048 306.289 -142.957 325.388 -159.717L325.389 -159.718C378.029 -205.908 446.687 -266.155 575.746 -342.119C751.482 -445.557 987.443 -425.445 1161.08 -341.48C1247.89 -299.5 1319.08 -241.583 1359.35 -175.229C1399.62 -108.894 1409 -34.127 1372.23 41.6555C1335.38 117.622 1316.92 170.311 1312.31 213.144C1307.69 256.009 1316.93 288.969 1335.39 325.457C1345.51 345.461 1358.38 366.52 1373.27 390.857C1412.67 455.281 1466.12 542.682 1519.6 694.32C1553.61 790.738 1547.59 865.413 1513.87 921.4C1480.13 977.4 1418.61 1014.81 1341.39 1036.54C1186.94 1080.02 969.956 1060.72 788.017 1002.46L788.009 1002.45L788.001 1002.45ZM503.995 991.802C415.521 1019.8 320.996 1046.14 197.454 1011.17C135.654 993.673 107.72 966.74 94.7772 934.339C88.3153 918.162 85.6038 900.654 84.2491 882.343C83.4685 871.802 83.1371 860.958 82.8004 849.943L82.8004 849.942L82.8004 849.941L82.8004 849.94L82.8004 849.938L82.8004 849.937L82.8004 849.935L82.8004 849.934L82.8004 849.932L82.8004 849.931L82.8004 849.929L82.8004 849.928L82.8004 849.926L82.8004 849.924L82.8004 849.922L82.8004 849.92L82.8004 849.918L82.8004 849.916L82.8004 849.914C82.5537 841.833 82.3042 833.661 81.8731 825.45C79.8306 786.554 73.7062 746.403 44.5783 708.923C15.4445 671.436 -36.7575 636.551 -131.109 608.333C-225.629 580.066 -285.031 527.226 -315.763 463.742C-346.489 400.268 -348.527 326.208 -328.43 255.532C-288.243 114.203 -159.486 -13.7675 5.80038 -16.6827C88.2946 -18.1378 144.461 -24.5399 187.469 -36.3481C230.462 -48.1521 260.323 -65.3631 290.201 -88.4708C306.099 -100.766 322.008 -114.739 339.904 -130.455L339.905 -130.456C389.29 -173.828 453.801 -230.485 574.951 -301.855C740.156 -399.178 961.855 -380.22 1124.93 -301.292C1206.48 -261.825 1273.42 -207.34 1311.33 -144.837C1349.24 -82.3149 1358.1 -11.7708 1323.45 59.7116C1288.89 131.01 1271.64 180.354 1267.33 220.395C1263.02 260.405 1271.63 291.16 1288.88 325.299C1298.33 344.003 1310.39 363.728 1324.33 386.543C1361.29 447.037 1411.53 529.25 1461.73 671.723C1493.7 762.428 1488.1 832.857 1456.27 885.739C1424.45 938.607 1366.48 973.832 1293.91 994.275C1148.79 1035.16 945.049 1017 774.274 962.265C680.169 935.681 601.358 960.791 518.172 987.295L518.101 987.318C513.414 988.811 508.713 990.309 503.995 991.802ZM517.924 986.324C601.066 959.832 680.148 934.633 774.555 961.305L774.563 961.308L774.571 961.31C945.234 1016.01 1148.77 1034.13 1293.64 993.313C1366.07 972.907 1423.77 937.791 1455.41 885.224C1487.04 832.671 1492.69 762.572 1460.79 672.055C1410.62 529.692 1360.49 447.641 1323.53 387.156L1323.53 387.155C1309.56 364.305 1297.48 344.533 1287.99 325.75C1270.68 291.489 1262 260.539 1266.34 220.288C1270.67 180.069 1287.98 130.597 1322.55 59.2754C1357.03 -11.8628 1348.24 -82.0474 1310.47 -144.318C1272.7 -206.608 1205.93 -260.981 1124.5 -300.392C961.625 -379.22 740.295 -398.099 575.459 -300.993C454.399 -229.676 389.998 -173.116 340.62 -129.75L340.619 -129.75C322.702 -114.014 306.763 -100.016 290.813 -87.6798C260.853 -64.5085 230.875 -47.2286 187.734 -35.3838C144.608 -23.5431 88.3446 -17.1385 5.81808 -15.6829C-158.937 -12.777 -287.375 114.805 -327.468 255.806C-347.512 326.296 -345.461 400.095 -314.863 463.306C-284.269 526.506 -225.109 579.177 -130.822 607.375C-36.3659 635.624 16.0568 670.594 45.3678 708.31C74.6849 746.033 80.8257 786.434 82.8717 825.397C83.3056 833.662 83.5552 841.845 83.8015 849.923L83.8015 849.927C84.1367 860.922 84.4661 871.723 85.2464 882.269C86.5979 900.536 89.2989 917.928 95.706 933.968C108.501 966.001 136.131 992.769 197.726 1010.2C320.971 1045.09 415.254 1018.83 503.693 990.848C508.444 989.345 513.178 987.837 517.898 986.332L517.924 986.324ZM221.123 968.683C336.842 1001.47 425.38 976.777 508.246 950.527C512.684 949.121 517.105 947.711 521.513 946.305L521.523 946.302C599.435 921.452 673.24 897.912 761.368 922.834C921.317 974.155 1112.15 991.181 1248.07 952.847C1316.04 933.678 1370.35 900.648 1400.15 851.071C1429.97 801.479 1435.21 735.436 1405.28 650.386C1358.25 516.802 1311.2 439.715 1276.58 382.997C1263.52 361.607 1252.24 343.114 1243.38 325.581C1227.23 293.576 1219.17 264.747 1223.2 227.242C1227.24 189.705 1243.39 143.445 1275.76 76.5974C1308.22 9.566 1299.92 -56.5861 1264.4 -115.214C1228.9 -173.822 1166.19 -224.91 1089.82 -261.915C937.071 -335.92 729.418 -353.698 574.677 -262.442C461.206 -195.525 400.781 -142.401 354.528 -101.736L354.527 -101.736L354.526 -101.735L354.514 -101.724L354.509 -101.719C337.756 -86.9909 322.862 -73.897 307.979 -62.3741C279.998 -40.7108 252.034 -24.576 211.772 -13.5102C171.495 -2.44006 118.893 3.56238 41.6307 4.92663C-113.192 7.66026 -233.795 127.656 -271.437 260.174C-290.261 326.444 -288.353 395.889 -259.571 455.41C-230.784 514.941 -175.14 564.488 -86.6059 590.993C1.7592 617.448 50.6441 650.153 77.9251 685.294C105.2 720.427 110.936 758.064 112.849 794.53C113.252 802.221 113.486 809.877 113.716 817.447L113.716 817.452L113.717 817.458L113.717 817.465L113.717 817.466L113.717 817.467L113.717 817.468L113.717 817.469L113.717 817.47L113.717 817.471L113.717 817.472L113.717 817.473L113.717 817.474C114.033 827.809 114.343 837.984 115.074 847.873C116.343 865.042 118.883 881.461 124.937 896.633C137.063 927.023 163.236 952.28 221.123 968.683ZM761.649 921.874C673.219 896.864 599.142 920.493 521.274 945.332L521.216 945.35L521.006 945.417L520.909 945.448C516.6 946.823 512.279 948.2 507.944 949.574C425.113 975.813 336.817 1000.43 221.396 967.721C163.714 951.376 137.845 926.284 125.866 896.262C119.866 881.228 117.337 864.925 116.071 847.799C115.34 837.911 115.032 827.787 114.718 817.479C114.488 809.904 114.254 802.229 113.847 794.478C111.931 757.944 106.179 720.057 78.715 684.681C51.2569 649.312 2.15129 616.522 -86.319 590.035C-174.62 563.599 -230.021 514.221 -258.67 454.975C-287.325 395.717 -289.246 326.532 -270.475 260.447C-232.927 128.257 -112.643 8.65062 41.6483 5.92639C118.943 4.56165 171.642 -1.44323 212.037 -12.546C252.448 -23.6529 280.528 -39.8564 308.591 -61.5835C323.532 -73.1506 338.461 -86.2762 355.243 -101.03C401.489 -141.689 461.804 -194.716 575.185 -261.581C729.557 -352.619 936.841 -334.92 1089.38 -261.015C1165.64 -224.066 1228.17 -173.091 1263.55 -114.695C1298.91 -56.319 1307.15 9.47396 1274.86 76.1616C1242.48 143.032 1226.26 189.42 1222.21 227.135C1218.15 264.881 1226.27 293.905 1242.49 326.031C1251.38 343.643 1262.7 362.18 1275.77 383.601L1275.77 383.603L1275.78 383.607L1275.78 383.609L1275.78 383.61C1310.39 440.319 1357.35 517.244 1404.33 650.718C1434.21 735.579 1428.92 801.293 1399.3 850.556C1369.67 899.833 1315.64 932.754 1247.8 951.884C1112.13 990.148 921.504 973.166 761.666 921.879L761.657 921.877L761.649 921.874ZM512.493 909.251C435.236 933.754 352.684 956.808 244.789 926.198C190.814 910.885 166.403 887.304 155.092 858.924C149.446 844.758 147.078 829.428 145.895 813.401C145.213 804.167 144.924 794.665 144.63 785.014C144.414 777.942 144.197 770.791 143.82 763.608C142.037 729.572 136.69 694.449 111.268 661.663C85.8399 628.869 40.272 598.344 -42.107 573.651C-124.655 548.907 -176.54 502.653 -203.383 447.076C-230.22 391.509 -231.999 326.678 -214.448 264.814C-179.351 141.107 -66.9027 29.0858 77.457 26.5338C149.488 25.2606 198.525 19.6577 236.071 9.32569C273.602 -1.00206 299.669 -16.0604 325.753 -36.2794C339.629 -47.036 353.517 -59.2601 369.139 -73.011L369.14 -73.0121L369.147 -73.0179C412.269 -110.976 468.606 -160.566 574.398 -223.031C718.677 -308.22 912.284 -291.623 1054.7 -222.541C1125.91 -187.997 1184.37 -140.306 1217.48 -85.5922C1250.59 -30.8593 1258.33 30.9008 1228.07 93.4812C1197.89 155.878 1182.83 199.055 1179.07 234.086C1175.31 269.087 1182.82 295.991 1197.88 325.86C1206.13 342.223 1216.65 359.482 1228.82 379.445L1228.83 379.448L1228.83 379.45C1261.1 432.392 1304.97 504.353 1348.81 629.047C1376.73 708.441 1371.84 770.099 1344.04 816.4C1316.24 862.687 1265.6 893.522 1202.23 911.416C1075.5 947.201 897.583 931.306 748.458 883.401C666.307 860.141 597.508 882.111 524.869 905.307L524.775 905.337L524.74 905.349L524.706 905.36L524.678 905.368L524.65 905.377C520.61 906.667 516.559 907.961 512.493 909.251ZM524.62 904.337C597.215 881.152 666.286 859.093 748.739 882.442L748.748 882.444L748.756 882.447C897.769 930.318 1075.48 946.168 1201.96 910.454C1265.2 892.598 1315.56 861.872 1343.18 815.886C1370.79 769.913 1375.72 708.585 1347.87 629.379C1304.07 504.794 1260.3 432.996 1228.02 380.062L1228.02 380.06L1228.02 380.059L1228.02 380.057L1228.02 380.054L1228.02 380.047C1215.83 360.053 1205.28 342.751 1196.99 326.311C1181.87 296.319 1174.29 269.221 1178.07 233.98C1181.86 198.77 1196.98 155.466 1227.17 93.0457C1257.26 30.8088 1249.59 -30.5924 1216.62 -85.0745C1183.64 -139.575 1125.36 -187.153 1054.26 -221.641C912.053 -290.623 718.815 -307.14 574.907 -222.17C469.205 -159.759 412.978 -110.265 369.863 -72.3131C354.216 -58.5404 340.296 -46.2877 326.366 -35.4891C300.199 -15.2063 274.017 -0.0790885 236.336 10.2899C198.672 20.6545 149.538 26.2599 77.4747 27.5338C-66.3522 30.0763 -178.482 141.707 -213.485 265.087C-230.984 326.766 -229.193 391.337 -202.482 446.641C-175.777 501.934 -124.135 548.02 -41.8199 572.693C40.6645 597.418 86.4532 628.028 112.058 661.05C137.669 694.079 143.032 729.452 144.819 763.556C145.198 770.793 145.416 777.957 145.631 785.028C145.923 794.648 146.211 804.097 146.892 813.327C148.072 829.311 150.43 844.525 156.021 858.554C167.185 886.566 191.292 909.981 245.062 925.236C352.658 955.761 434.969 932.789 512.191 908.297C516.347 906.979 520.489 905.656 524.62 904.337ZM516.29 867.973C444.603 890.73 367.995 912.143 267.869 883.713C217.778 869.49 195.117 847.584 184.617 821.215C179.376 808.054 177.178 793.813 176.08 778.927C175.448 770.351 175.179 761.525 174.906 752.561L174.906 752.556C174.706 745.991 174.504 739.351 174.155 732.684C172.501 701.077 167.54 668.467 143.958 638.027C120.37 607.58 78.0954 579.235 1.66057 556.304C-74.9439 533.322 -123.096 490.36 -148.008 438.736C-172.915 387.122 -174.564 326.905 -158.277 269.445C-125.708 154.548 -21.3567 50.5005 112.613 48.1301C179.448 46.9476 224.946 41.7444 259.78 32.1503C294.599 22.5604 318.782 8.57839 342.983 -10.1966C355.859 -20.1863 368.746 -31.5399 383.243 -44.3122C423.256 -79.5637 475.535 -125.622 573.702 -183.634C707.59 -262.756 887.25 -247.34 1019.4 -183.18C1085.48 -151.098 1139.73 -106.804 1170.46 -55.9834C1201.19 -5.14433 1208.37 52.2246 1180.29 110.355C1152.29 168.301 1138.31 208.395 1134.82 240.922C1131.34 273.418 1138.3 298.397 1152.28 326.133C1159.93 341.327 1169.69 357.355 1180.99 375.895C1210.94 425.062 1251.65 491.897 1292.33 607.704C1318.23 681.444 1313.7 738.717 1287.89 781.728C1262.09 824.725 1215.1 853.365 1156.29 869.985C1038.69 903.22 873.594 888.458 735.219 843.967C659.002 822.369 595.174 842.769 527.772 864.312L527.673 864.344L527.633 864.356L527.434 864.42C523.731 865.603 520.017 866.79 516.29 867.973ZM527.523 863.341C594.881 841.811 658.981 821.321 735.5 843.008L735.508 843.01L735.517 843.013C873.78 887.469 1038.67 902.187 1156.02 869.022C1214.69 852.441 1261.42 823.91 1287.03 781.214C1312.64 738.531 1317.22 681.587 1291.39 608.036C1250.74 492.339 1210.13 425.665 1180.18 376.507C1168.87 357.931 1159.08 341.857 1151.38 326.583C1137.35 298.725 1130.32 273.552 1133.83 240.816C1137.34 208.11 1151.37 167.89 1179.38 109.92C1207.31 52.1326 1200.18 -4.87773 1169.6 -55.4661C1139.01 -106.073 1084.93 -150.254 1018.96 -182.281C887.019 -246.34 707.729 -261.677 574.211 -182.774C476.134 -124.814 423.965 -78.8532 383.959 -43.6076L383.954 -43.6033L383.952 -43.6007L383.943 -43.5926L383.939 -43.589L383.937 -43.5879C369.427 -30.8044 356.517 -19.431 343.596 -9.4066C319.313 9.43227 295.014 23.4833 260.046 33.1144C225.093 42.7411 179.498 47.9469 112.63 49.13C-20.8057 51.4908 -124.839 155.148 -157.315 269.718C-173.55 326.992 -171.887 386.95 -147.107 438.301C-122.332 489.642 -74.4232 532.435 1.94793 555.346C78.4882 578.309 120.983 606.74 144.748 637.415C168.519 668.098 173.496 700.958 175.154 732.632C175.506 739.355 175.708 746.008 175.907 752.575L175.907 752.576L175.907 752.578L175.907 752.58L175.907 752.582L175.907 752.584L175.907 752.587C176.179 761.516 176.446 770.285 177.078 778.853C178.172 793.696 180.36 807.821 185.546 820.845C195.899 846.846 218.257 868.586 268.142 882.751C367.969 911.096 444.336 889.765 515.988 867.02C519.845 865.796 523.689 864.567 527.523 863.341ZM627.195 433.082C649.885 442.829 675.291 436.27 693.493 423.799C702.599 417.56 709.936 409.819 714.248 401.848C718.559 393.879 719.871 385.625 716.806 378.423C698.938 336.434 699.288 306.294 699.534 285.121L699.534 285.108L699.534 285.096L699.534 285.084C699.561 282.761 699.587 280.546 699.587 278.434C699.587 249.789 683.517 230.026 660.429 219.043C637.362 208.07 607.276 205.845 579.102 212.206C565.008 215.388 555.824 219.575 548.802 224.077C543.858 227.246 539.978 230.581 536.241 233.794C534.688 235.129 533.161 236.442 531.592 237.713C526.232 242.056 520.305 245.992 511.06 248.85C501.803 251.711 489.195 253.498 470.469 253.498C447.602 253.498 431.564 258.422 421.016 266.343C410.456 274.275 405.451 285.173 404.587 296.996C402.863 320.592 417.622 347.888 437.564 362.969C449.009 371.625 453.031 378.507 456.719 384.819C458.264 387.463 459.751 390.008 461.7 392.54C468.291 401.101 479.957 409.074 516.439 419.459C523.424 421.447 531.288 422.182 539.772 422.449C544.869 422.61 550.216 422.602 555.741 422.593L555.743 422.593L555.746 422.593L555.749 422.593L555.752 422.593L555.755 422.593L555.758 422.593L555.761 422.593L555.764 422.593L555.767 422.593L555.77 422.593L555.773 422.593C559.42 422.587 563.144 422.582 566.925 422.624C586.002 422.838 606.699 424.278 627.195 433.082ZM715.886 378.815C718.792 385.642 717.591 393.567 713.368 401.372C709.147 409.176 701.932 416.804 692.928 422.974C674.91 435.319 649.869 441.734 627.59 432.163C606.907 423.279 586.047 421.839 566.937 421.624C563.125 421.581 559.391 421.587 555.741 421.593C550.224 421.602 544.901 421.61 539.804 421.449C531.347 421.183 523.58 420.452 516.713 418.497C480.26 408.121 468.873 400.218 462.493 391.93C460.643 389.527 459.196 387.054 457.673 384.45C453.953 378.09 449.778 370.952 438.167 362.172C418.435 347.249 403.89 320.258 405.585 297.069C406.43 285.499 411.314 274.881 421.617 267.143C431.933 259.395 447.732 254.498 470.469 254.498C489.251 254.498 501.968 252.707 511.356 249.805C520.756 246.9 526.794 242.888 532.221 238.49C533.833 237.184 535.383 235.852 536.947 234.507C540.664 231.312 544.46 228.049 549.342 224.918C556.254 220.487 565.329 216.34 579.322 213.181C607.32 206.86 637.171 209.087 659.999 219.946C682.806 230.796 698.587 250.244 698.587 278.434C698.587 280.552 698.561 282.777 698.534 285.113C698.287 306.308 697.934 336.628 715.886 378.815ZM520.929 828.919C454.024 849.587 382.786 869.149 290.492 842.941C243.292 829.538 221.588 809.203 211.283 784.825C206.14 772.658 203.85 759.514 202.619 745.788C201.878 737.541 201.519 729.051 201.155 720.431L201.155 720.424L201.154 720.418L201.154 720.412L201.153 720.407L201.153 720.401L201.153 720.397C200.912 714.702 200.668 708.951 200.312 703.175C198.513 674.059 193.824 644.029 172.101 615.928C150.373 587.82 111.548 561.573 41.3254 540.168L41.4711 539.69L41.3249 540.168C-29.2277 518.59 -73.7952 478.568 -96.9869 430.572C-120.174 382.587 -121.968 326.685 -107.081 273.376C-77.3132 166.779 19.2105 70.3885 145.17 68.2334C207.632 67.1583 250.14 62.2658 282.65 53.2833C315.144 44.3053 337.668 31.2365 360.155 13.7736C371.953 4.61123 383.747 -5.76719 396.967 -17.4002L396.968 -17.401L396.968 -17.4017C434.157 -50.1271 482.627 -92.7796 574.207 -146.212C698.492 -218.725 864.559 -204.505 986.791 -145.181C1047.91 -115.516 1098.13 -74.5501 1126.68 -27.448C1155.25 19.6723 1162.15 72.9316 1136.61 127.084L1136.61 127.086C1111.15 180.248 1098.44 217.238 1095.27 247.414C1092.11 277.56 1098.47 300.941 1111.25 326.902C1118.42 341.464 1127.62 356.845 1138.29 374.684C1165.67 420.469 1202.74 482.443 1240.03 588.296C1263.86 655.98 1259.62 708.796 1235.77 748.628C1211.92 788.446 1168.52 815.186 1114.23 830.861C1005.66 862.207 853.274 849.375 725.427 808.049C654.052 787.563 594.026 806.214 530.773 825.867C527.501 826.883 524.22 827.903 520.929 828.919ZM530.535 824.893C593.743 805.252 654.037 786.516 725.711 807.09L725.719 807.092L725.727 807.095C853.457 848.385 1005.64 861.174 1113.96 829.9C1168.11 814.265 1211.24 787.634 1234.91 748.114C1258.57 708.609 1262.85 656.121 1239.09 588.629C1201.83 482.879 1164.86 421.07 1137.49 375.297L1137.49 375.296C1126.8 357.42 1117.57 341.99 1110.35 327.344C1097.51 301.263 1091.09 277.691 1094.28 247.309C1097.46 216.957 1110.24 179.841 1135.7 126.654C1161.08 72.8447 1154.25 19.9411 1125.83 -26.9295C1097.4 -73.8194 1047.36 -114.673 986.354 -144.281C864.329 -203.505 698.629 -217.647 574.711 -145.348C483.225 -91.9704 434.864 -49.4144 397.682 -16.6947L397.681 -16.6939C384.44 -5.04222 372.617 5.36196 360.768 14.5634C338.199 32.0897 315.56 45.2279 282.916 54.2473C250.288 63.2625 207.682 68.1576 145.187 69.2333C19.7581 71.3793 -76.4435 167.382 -106.118 273.645C-120.953 326.767 -119.148 382.412 -96.0864 430.137C-73.0302 477.853 -28.7017 517.705 41.617 539.212C111.945 560.649 150.989 586.982 172.893 615.317C194.801 643.658 199.507 673.934 201.31 703.113C201.669 708.934 201.913 714.7 202.154 720.397C202.518 729.004 202.875 737.454 203.615 745.698C204.842 759.379 207.119 772.405 212.204 784.436C222.357 808.455 243.762 828.632 290.765 841.979C382.763 868.103 453.759 848.622 520.634 827.964C522.546 827.373 524.454 826.782 526.359 826.19L528.801 825.432L530.512 824.9L530.535 824.893ZM313.09 802.167C397.554 826.152 463.42 808.443 525.544 789.863C528.279 789.045 531.007 788.225 533.73 787.407C592.837 769.647 649.071 752.75 715.611 772.128C832.931 810.29 972.616 821.192 1072.15 791.735C1121.93 777.005 1161.72 752.164 1183.62 715.526C1205.52 678.873 1209.46 630.514 1187.72 568.886C1153.82 473.021 1120.4 415.943 1095.59 373.562L1095.59 373.56C1085.53 356.384 1076.89 341.621 1070.2 327.669C1058.61 303.482 1052.86 281.7 1055.7 253.903C1058.54 226.078 1070 192.192 1092.9 143.815L1092.91 143.809C1115.9 93.6357 1109.29 44.486 1082.89 1.08466C1056.49 -42.2991 1010.32 -79.9373 954.159 -107.184C841.845 -161.672 689.371 -174.696 574.689 -108.792C489.707 -59.9547 445.051 -20.7098 410.686 9.49075L410.682 9.49477L410.68 9.49624C398.731 19.9972 388.026 29.4044 377.303 37.7414C356.529 53.8919 335.665 66.0477 305.496 74.414C275.311 82.7846 235.792 87.3666 177.703 88.3341C59.7546 90.274 -28.9422 179.007 -55.9092 277.305C-69.3952 326.463 -67.4559 378.05 -45.9894 422.406C-24.5184 466.772 16.4644 503.855 80.9653 524.03L80.9662 524.03C144.976 543.909 180.353 568.057 200.221 593.827C220.085 619.589 224.502 647.039 226.444 673.664C226.801 678.553 227.075 683.421 227.346 688.248C227.812 696.543 228.271 704.714 229.133 712.648C230.499 725.215 232.881 737.261 237.927 748.435C248.037 770.822 268.783 789.584 313.09 802.167ZM715.899 771.17C649.064 751.704 592.566 768.682 533.504 786.431L530.845 787.23C528.985 787.789 527.123 788.347 525.257 788.905C463.16 807.477 397.534 825.107 313.363 801.205C269.242 788.675 248.791 770.061 238.838 748.024C233.854 736.986 231.488 725.057 230.128 712.54C229.268 704.627 228.812 696.507 228.347 688.233L228.346 688.209C228.075 683.385 227.801 678.509 227.442 673.591C225.495 646.908 221.06 619.216 201.013 593.216C180.972 567.222 145.379 542.987 81.2629 523.075C16.9963 502.973 -23.7517 466.061 -45.0893 421.971C-66.4317 377.87 -68.3791 326.538 -54.9449 277.569C-28.0719 179.614 60.2979 91.2653 177.719 89.334C235.843 88.3659 275.459 83.7811 305.763 75.3776C336.082 66.9699 357.061 54.7445 377.917 38.5309C388.69 30.1553 399.424 20.7216 411.396 10.2008C445.755 -19.9945 490.302 -59.1432 575.188 -107.925C689.506 -173.62 841.616 -160.672 953.722 -106.284C1009.77 -79.0937 1055.77 -41.5682 1082.03 1.60432C1108.29 44.7585 1114.83 93.5566 1092 143.39C1069.08 191.792 1057.56 225.802 1054.7 253.801C1051.84 281.828 1057.65 303.797 1069.3 328.102C1076.03 342.146 1084.71 356.96 1094.79 374.175C1119.59 416.54 1152.91 473.449 1186.77 569.219C1208.45 630.653 1204.47 678.685 1182.76 715.013C1161.04 751.356 1121.51 776.086 1071.87 790.776C972.584 820.159 833.111 809.299 715.913 771.175L715.906 771.172L715.899 771.17ZM530.148 750.806C472.808 767.296 412.313 783.154 335.68 761.392C294.265 749.629 274.478 732.439 264.563 712.045C256.321 695.093 254.933 675.963 253.492 656.108C253.204 652.148 252.915 648.159 252.568 644.152C250.482 620.018 246.337 595.148 228.332 571.723C210.323 548.293 178.394 526.243 120.597 507.89L120.596 507.889C62.1468 489.118 24.749 454.975 4.99859 414.239C-14.7474 373.511 -16.8318 326.239 -4.74676 281.232C19.4194 191.233 100.29 110.158 210.227 108.433C263.944 107.573 300.473 103.302 328.333 95.5431C356.177 87.7887 375.381 76.5458 394.442 61.7077C404.098 54.1908 413.721 45.7458 424.413 36.3633L424.414 36.3626C455.955 8.68496 496.791 -27.1493 575.163 -71.3736C680.241 -130.668 819.121 -118.842 921.518 -69.1889C972.722 -44.3598 1014.85 -10.0496 1039.08 29.6157C1063.32 69.298 1069.64 114.337 1049.2 160.532L1049.19 160.542C1028.83 204.134 1018.63 234.916 1016.11 260.39C1013.6 285.838 1018.74 306.023 1029.15 328.436C1035.37 341.847 1043.47 356.023 1052.93 372.591L1052.93 372.593C1059.31 383.769 1066.31 396.033 1073.78 409.885C1092.31 444.243 1113.66 488.28 1135.39 549.474L1135.39 549.474C1155.05 605.047 1151.42 648.949 1131.46 682.422C1111.51 715.88 1075.32 738.822 1030.06 752.607C939.56 780.175 812.579 771.204 705.787 736.206C644.072 717.93 591.617 733.068 536.651 748.931C534.487 749.556 532.32 750.181 530.148 750.806ZM536.44 747.951C591.359 732.1 644.074 716.885 706.078 735.249L706.084 735.251L706.091 735.253C812.755 770.211 939.52 779.142 1029.77 751.651C1074.89 737.906 1110.83 715.077 1130.6 681.91C1150.37 648.759 1154.04 605.182 1134.45 549.808C1112.73 488.67 1091.41 444.68 1072.9 410.36C1065.46 396.568 1058.47 384.323 1052.09 373.149C1042.61 356.541 1034.48 342.298 1028.24 328.857C1017.78 306.329 1012.58 285.963 1015.12 260.291C1017.66 234.647 1027.91 203.742 1048.29 160.124C1068.58 114.267 1062.32 69.5742 1038.23 30.1369C1014.13 -9.31854 972.17 -43.5163 921.082 -68.2891C818.894 -117.84 680.373 -129.594 575.654 -70.5027C497.383 -26.3348 456.655 9.40371 425.12 37.0763C414.408 46.4756 404.758 54.9442 395.056 62.4967C375.915 77.3978 356.596 88.7103 328.601 96.5065C300.621 104.298 263.994 108.573 210.243 109.433C100.828 111.15 20.2904 191.846 -3.78106 281.492C-15.8148 326.308 -13.7254 373.327 5.89838 413.802C25.5178 454.269 62.6856 488.24 120.902 506.937C178.804 525.324 210.945 547.461 229.125 571.114C247.309 594.772 251.473 619.88 253.565 644.066C253.913 648.1 254.205 652.105 254.493 656.073L254.495 656.092C255.938 675.945 257.312 694.845 265.462 711.608C275.214 731.666 294.713 748.716 335.953 760.43C412.295 782.11 472.551 766.33 529.872 749.845C532.065 749.214 534.255 748.582 536.44 747.951ZM358.291 720.61C427.093 740.15 482.216 726.144 534.774 711.742C536.313 711.321 537.85 710.898 539.385 710.477L539.559 710.429C590.389 696.469 639.085 683.095 695.984 700.277C792.25 732.112 906.526 739.152 987.996 713.473C1028.73 700.632 1061.33 679.59 1079.32 649.312C1097.33 619.019 1100.67 579.573 1083.08 530.056L1083.08 530.055C1063.45 475.048 1044.32 435.168 1027.79 403.865C1021.55 392.061 1015.7 381.488 1010.32 371.788L1010.32 371.785L1010.32 371.78L1010.32 371.779C1001.43 355.737 993.867 342.083 988.112 329.198C978.894 308.559 974.358 289.97 976.552 266.87C978.749 243.747 987.691 216.069 1005.51 177.262L1005.51 177.255L1005.51 177.248C1023.4 135.032 1017.37 94.1032 995.298 58.1402C973.233 22.1935 935.144 -8.78852 888.899 -31.1999C796.419 -76.0173 671.133 -86.6468 575.659 -33.9621C503.913 5.62857 466.905 38.0492 438.187 63.2064L438.183 63.2101L438.182 63.2112L438.17 63.2222C428.732 71.4898 420.189 78.9727 411.603 85.6676C394.256 99.1936 376.712 109.524 351.191 116.666C325.656 123.813 292.117 127.774 242.774 128.526C140.848 130.036 67.8032 203.453 46.4378 285.154C35.7539 326.01 37.9836 368.967 56.009 406.065C74.0385 443.171 107.851 474.374 160.248 491.742L160.25 491.743C211.834 508.57 240.315 528.521 256.465 549.613C272.612 570.701 276.484 592.992 278.715 614.636C279.036 617.755 279.323 620.863 279.609 623.953L279.611 623.98L279.614 624.006L279.614 624.008C281.304 642.302 282.936 659.966 291.222 675.651C300.942 694.05 319.769 709.667 358.291 720.61ZM696.279 699.321C639.097 682.052 590.148 695.497 539.366 709.445L537.19 710.043L535.504 710.505L534.51 710.778C481.965 725.176 427.079 739.106 358.565 719.648C320.205 708.751 301.657 693.263 292.106 675.184C283.922 659.69 282.308 642.252 280.614 623.948C280.326 620.833 280.035 617.693 279.709 614.534C277.474 592.844 273.58 570.321 257.259 549.005C240.941 527.694 212.252 507.654 160.56 490.793C108.397 473.501 74.8094 442.47 56.9084 405.628C39.003 368.777 36.7718 326.07 47.4053 285.407C68.6752 204.071 141.38 131.028 242.789 129.526C292.168 128.773 325.806 124.809 351.461 117.629C377.131 110.444 394.79 100.045 412.218 86.4562C420.853 79.7235 429.426 72.2129 438.889 63.9232C467.602 38.7709 504.502 6.44595 576.142 -33.0865C671.261 -85.5753 796.194 -75.0152 888.463 -30.3C934.592 -7.94513 972.509 22.9249 994.446 58.6633C1016.37 94.3835 1022.34 134.971 1004.59 176.851C986.767 215.686 977.769 243.485 975.557 266.776C973.343 290.091 977.931 308.854 987.199 329.605C992.97 342.524 1000.57 356.244 1009.47 372.32L1009.48 372.323C1014.85 382.021 1020.7 392.577 1026.9 404.332C1043.42 435.601 1062.52 475.437 1082.14 530.391C1099.65 579.705 1096.28 618.826 1078.47 648.801C1060.64 678.792 1028.3 699.721 987.695 712.519C906.477 738.119 792.42 731.116 696.291 699.325L696.279 699.321ZM945.914 673.363C873.478 697.153 771.906 692.044 686.165 663.372C634.066 647.273 589.107 658.874 542.406 670.924L540.708 671.362L539.383 671.703C491.61 684.016 441.858 696.169 380.888 678.853C345.259 668.73 327.393 654.687 317.868 638.283C309.499 623.87 307.61 607.683 305.658 590.962C305.394 588.699 305.129 586.426 304.846 584.146C302.471 564.991 298.872 545.279 284.583 526.528C270.291 507.774 245.258 489.921 199.886 474.621L199.883 474.62C153.539 458.654 123.312 430.391 107.004 396.916C90.6996 363.448 88.3242 324.807 97.6071 288.101C116.172 214.696 181.391 148.938 275.305 147.644C320.275 146.999 350.825 143.348 374.035 136.813C397.23 130.283 413.114 120.866 428.749 108.652C436.27 102.776 443.738 96.2484 451.933 89.0839L451.946 89.0722L451.948 89.0707L451.952 89.0667L451.958 89.0615L451.972 89.0495L451.977 89.0451C477.871 66.4052 511.043 37.4023 576.141 2.47342C662.011 -43.6004 773.702 -34.1684 856.264 5.81365C897.551 25.8073 931.599 53.4611 951.499 85.6891C971.409 117.933 977.151 154.75 961.81 192.987L961.806 192.996L961.802 193.005C946.534 227.027 938.848 251.602 936.976 272.375C935.105 293.128 939.033 310.119 947.063 328.985C952.355 341.418 959.416 354.638 967.769 370.277L967.771 370.282L967.772 370.284C972.115 378.415 976.807 387.201 981.782 396.87C996.315 425.118 1013.22 460.841 1030.76 509.661L1030.76 509.662C1046.27 553.125 1043.23 588.113 1027.17 615.226C1011.13 642.323 982.137 661.466 945.914 673.363ZM1029.82 509.998C1045.25 553.252 1042.18 587.918 1026.31 614.717C1010.43 641.532 981.691 660.56 945.602 672.413C873.418 696.12 772.07 691.046 686.477 662.422L686.466 662.418C634.091 646.233 588.884 657.898 542.234 669.935L540.923 670.274L539.134 670.735C491.365 683.047 441.849 695.127 381.161 677.891C345.682 667.811 328.084 653.884 318.733 637.781C310.476 623.561 308.61 607.597 306.653 590.854L306.653 590.853C306.389 588.59 306.122 586.313 305.839 584.023C303.459 564.832 299.836 544.894 285.378 525.922C270.923 506.952 245.685 489.01 200.206 473.673C154.095 457.787 124.086 429.696 107.903 396.478C91.716 363.251 89.3432 324.856 98.5766 288.347C117.045 215.321 181.916 149.931 275.319 148.644C320.326 147.998 350.975 144.345 374.306 137.776C397.652 131.203 413.651 121.716 429.364 109.44C436.934 103.527 444.434 96.9704 452.657 89.7812L452.67 89.7691L452.672 89.7672L452.674 89.7658C478.564 67.1308 511.627 38.2238 576.614 3.35465C662.135 -42.5319 773.479 -33.1654 855.829 6.71368C896.998 26.6506 930.875 54.1928 950.648 86.2145C970.41 118.218 976.09 154.7 960.886 192.605C945.605 226.656 937.867 251.349 935.98 272.285C934.09 293.243 938.066 310.402 946.143 329.377C951.452 341.849 958.546 355.132 966.914 370.801L966.915 370.803C971.255 378.929 975.938 387.698 980.892 397.328C995.41 425.546 1012.3 461.228 1029.82 509.998ZM676.354 625.299C751.571 650.809 840.44 653.986 903.843 632.083C935.548 621.131 960.937 603.887 975.031 579.972C989.134 556.039 991.878 525.508 978.452 488.099L978.451 488.098C963.002 445.465 948.32 413.901 935.784 388.708C932.109 381.323 928.621 374.489 925.354 368.088L925.35 368.081C917.467 352.637 910.868 339.708 906.023 327.606C899.18 310.513 895.859 295.117 897.407 276.71C898.956 258.287 905.386 236.815 918.107 207.579L918.112 207.567L918.117 207.554C930.907 173.298 925.452 140.593 907.708 112.069C889.972 83.5602 859.966 59.2346 823.638 41.6586C750.992 6.51176 652.897 -1.72225 576.632 37.7397C518.209 67.9704 488.885 93.5511 465.813 113.678L465.812 113.679L465.81 113.68L465.796 113.693L465.787 113.701L465.783 113.705C458.795 119.801 452.38 125.396 445.902 130.468C431.981 141.37 417.756 149.874 396.886 155.792C376.001 161.715 348.441 165.055 307.844 165.593C221.944 166.671 164.547 224.77 148.784 289.881C133.017 355.006 158.899 427.186 239.525 456.328L239.529 456.329C278.688 470.103 300.275 485.857 312.708 502.274C325.14 518.689 328.466 535.823 330.986 552.491C331.2 553.907 331.408 555.32 331.616 556.729L331.625 556.794C333.854 571.923 336.018 586.615 344.525 599.751C353.855 614.155 370.757 626.625 403.492 635.927C456.63 651.021 501.01 640.72 543.999 630.496L545.195 630.212C587.776 620.083 629.035 610.269 676.354 625.299ZM974.169 579.464C988.091 555.841 990.859 525.631 977.511 488.438C962.078 445.851 947.413 414.322 934.889 389.154C931.228 381.796 927.747 374.977 924.483 368.582C916.588 353.115 909.957 340.125 905.094 327.978C898.21 310.781 894.846 295.226 896.41 276.626C897.973 258.046 904.45 236.46 917.185 207.192C929.848 173.263 924.456 140.885 906.859 112.597C889.25 84.2923 859.412 60.0777 823.202 42.5588C750.772 7.51604 653.015 -0.657553 577.092 38.6278C518.787 68.7973 489.573 94.2812 466.505 114.403L466.504 114.404C459.489 120.524 453.042 126.147 446.519 131.256C432.519 142.219 418.18 150.793 397.159 156.754C376.152 162.712 348.493 166.055 307.857 166.593C222.458 167.665 165.423 225.404 149.756 290.116C134.092 354.814 159.782 426.44 239.863 455.386C279.129 469.198 300.913 485.043 313.505 501.67C326.098 518.298 329.451 535.65 331.975 552.342C332.098 553.158 332.219 553.972 332.34 554.784C332.429 555.385 332.517 555.986 332.606 556.585L332.607 556.593L332.611 556.622C334.847 571.788 336.982 586.264 345.365 599.207C354.515 613.336 371.165 625.701 403.765 634.965C456.626 649.98 500.773 639.749 543.767 629.524L545.049 629.219C587.577 619.102 629.074 609.231 676.661 624.347L676.67 624.35C751.726 649.807 840.365 652.954 903.516 631.138C935.088 620.231 960.238 603.105 974.169 579.464ZM861.767 590.739C807.398 610.754 731.231 609.51 666.535 587.162C624.232 573.265 586.827 581.088 548.606 589.226L547.897 589.377C509.92 597.464 471.115 605.728 426.09 592.938C396.251 584.456 380.313 573.561 371.181 561.158C362.455 549.307 359.992 536.135 357.466 522.617C357.351 522.004 357.237 521.391 357.121 520.777C354.456 506.594 351.403 492.036 340.827 477.955C330.251 463.875 312.11 450.219 279.164 437.973L279.159 437.971C210.648 411.636 186.992 348.419 199.955 291.598C212.917 234.779 262.492 184.341 340.378 183.478C376.601 183.048 401.171 180.019 419.731 174.708C438.276 169.401 450.841 161.81 463.05 152.221C468.495 147.944 473.871 143.266 479.676 138.216L479.691 138.203L479.693 138.201L479.696 138.199C499.946 120.579 525.407 98.4256 577.12 72.9414C643.777 40.0929 728.276 47.1282 791.005 77.44C822.374 92.5981 848.339 113.596 863.91 138.385C879.489 163.188 884.655 191.78 874.419 222.055L874.413 222.071L874.407 222.087C864.232 246.536 859.058 264.906 857.831 280.981C856.606 297.043 859.321 310.845 864.976 326.166C869.404 338.159 875.624 351.061 883.166 366.702C885.272 371.069 887.48 375.65 889.782 380.485C900.319 402.62 912.778 430.026 926.133 466.47L926.133 466.472C937.481 497.829 935.033 523.903 922.882 544.653C910.74 565.386 888.955 580.73 861.767 590.739ZM925.193 466.814C936.459 497.944 933.994 523.699 922.019 544.148C910.033 564.615 888.477 579.841 861.422 589.801C807.304 609.723 731.375 608.503 666.858 586.215L666.851 586.213C624.258 572.22 586.6 580.113 548.397 588.248L547.758 588.384C509.744 596.479 471.148 604.698 426.364 591.976C396.642 583.528 380.938 572.724 371.986 560.565C363.399 548.903 360.974 535.938 358.437 522.372L358.235 521.291L358.104 520.592C355.437 506.402 352.354 491.637 341.626 477.355C330.898 463.071 312.569 449.323 279.514 437.036C211.525 410.9 188.064 348.214 200.929 291.821C213.795 235.425 262.993 185.335 340.389 184.478C376.653 184.048 401.324 181.015 420.006 175.669C438.703 170.319 451.382 162.658 463.668 153.007C469.152 148.699 474.556 143.998 480.382 138.929L480.383 138.928L480.385 138.926C500.63 121.312 525.979 99.2583 577.562 73.8385C643.889 41.1527 728.059 48.134 790.57 78.3404C821.821 93.4412 847.618 114.328 863.063 138.917C878.497 163.488 883.6 191.763 873.477 221.718C863.288 246.204 858.072 264.682 856.834 280.905C855.596 297.145 858.346 311.093 864.038 326.512C868.484 338.554 874.732 351.514 882.278 367.164L882.279 367.165L882.28 367.167C884.382 371.528 886.586 376.098 888.879 380.914C899.408 403.033 911.853 430.409 925.193 466.814ZM656.721 548.929C710.898 568.118 774.365 567.427 819.7 549.299C842.37 540.233 860.55 526.789 870.738 509.24C880.936 491.673 883.09 470.057 873.819 444.75L873.818 444.748C862.559 414.494 852.324 391.247 843.785 372.169L843.069 370.571L842.358 368.984L841.541 367.162L841.54 367.16C834.042 350.438 828.011 336.989 823.936 324.635C819.467 311.086 817.358 298.876 818.261 285.156C819.164 271.428 823.084 256.159 830.712 236.496L830.72 236.476L830.726 236.455C846.103 183.827 811.173 138.595 758.377 113.127C705.565 87.6498 634.664 81.8141 577.615 108.047C532.664 128.718 511.086 147.436 493.654 162.559L493.653 162.559C488.996 166.6 484.634 170.383 480.202 173.879C469.706 182.157 458.801 188.834 442.58 193.529C426.345 198.227 404.765 200.946 372.916 201.269C303.047 201.916 261.29 244.692 251.129 293.224C240.972 341.74 262.404 395.99 318.793 419.518L318.799 419.52C345.533 430.24 360.23 441.796 368.95 453.542C377.528 465.097 380.358 476.878 383.124 488.395L383.263 488.975C386.072 500.661 388.915 512.08 397.847 522.476C406.78 532.873 421.749 542.194 448.693 549.853C485.132 560.207 517.946 554.257 550.457 548.361L551.742 548.128L553.214 547.861C586.65 541.812 619.874 536.307 656.721 548.929ZM869.873 508.738C879.903 491.461 882.062 470.161 872.881 445.095C861.633 414.872 851.408 391.648 842.872 372.578L842.345 371.401L841.788 370.158L840.85 368.067L840.623 367.559C833.131 350.853 827.078 337.354 822.986 324.948C818.487 311.309 816.35 298.968 817.263 285.09C818.175 271.226 822.13 255.857 829.772 236.154C844.931 184.229 810.544 139.402 757.943 114.027C705.352 88.6575 634.766 82.8675 578.033 108.956C533.221 129.562 511.759 148.179 494.332 163.296C489.663 167.346 485.283 171.145 480.821 174.664C470.249 183.002 459.23 189.751 442.858 194.489C426.5 199.224 404.818 201.946 372.925 202.268C303.53 202.912 262.173 245.353 252.108 293.428C242.04 341.519 263.272 395.267 319.175 418.594C346.016 429.357 360.89 441.007 369.752 452.945C378.453 464.665 381.324 476.619 384.084 488.111L384.084 488.111L384.235 488.741C387.047 500.439 389.849 511.633 398.606 521.824C407.362 532.016 422.122 541.26 448.967 548.892C485.179 559.181 517.789 553.268 550.341 547.366C551.24 547.203 552.138 547.04 553.036 546.877C586.464 540.829 619.926 535.267 657.047 547.984L657.052 547.986C711.026 567.104 774.243 566.399 819.328 548.37C841.868 539.357 859.833 526.032 869.873 508.738ZM777.622 507.719C741.323 523.962 690.553 526.592 646.888 510.56C615.495 499.211 586.45 502.4 557.8 506.361C557.288 506.431 556.776 506.502 556.265 506.573C555.557 506.672 554.85 506.771 554.143 506.869L552.775 507.061C525.861 510.827 499.177 514.561 471.28 506.633C447.233 499.794 433.236 492.05 424.507 483.663C415.768 475.266 412.354 466.266 409.393 457.047C409.079 456.069 408.77 455.088 408.461 454.106L408.46 454.105C405.851 445.825 403.199 437.413 397.055 428.99C390.19 419.577 378.933 410.119 358.412 400.928L358.405 400.925C314.144 380.204 294.937 334.927 302.287 294.716C309.644 254.464 343.591 219.354 405.438 218.923C432.913 218.708 451.503 216.299 465.412 212.213C479.308 208.13 488.554 202.366 497.337 195.401C500.775 192.674 504.144 189.761 507.692 186.693C522.311 174.053 539.98 158.777 578.1 143.014C625.535 123.4 682.836 128.034 725.733 148.676C768.622 169.315 797.277 206.06 787.018 250.711L787.013 250.736L787.004 250.761C776.848 280.488 776.323 299.447 782.88 322.973C786.165 334.76 791.23 347.698 797.773 363.721C799.018 366.771 800.316 369.932 801.666 373.217C807.405 387.187 814.069 403.407 821.487 422.887L821.488 422.89C828.683 442.151 826.821 459.309 818.578 473.689C810.345 488.051 795.773 499.596 777.622 507.719ZM820.552 423.242C827.648 442.239 825.797 459.084 817.71 473.191C809.614 487.316 795.238 498.74 777.213 506.806C741.158 522.941 690.657 525.565 647.231 509.621L647.229 509.62C615.583 498.179 586.318 501.408 557.663 505.37C557.018 505.459 556.375 505.548 555.731 505.638L554.722 505.779C554.041 505.874 553.362 505.969 552.682 506.064C525.727 509.835 499.24 513.54 471.553 505.671C447.586 498.855 433.763 491.17 425.2 482.941C416.646 474.723 413.293 465.921 410.346 456.741C410.179 456.222 410.013 455.702 409.848 455.181C409.704 454.723 409.559 454.264 409.414 453.804C406.808 445.532 404.109 436.964 397.863 428.401C390.868 418.81 379.454 409.257 358.826 400.018C315.001 379.5 295.998 334.683 303.271 294.896C310.536 255.147 344.046 220.351 405.445 219.923C432.967 219.707 451.66 217.296 465.694 213.172C479.742 209.045 489.101 203.209 497.958 196.184C501.417 193.441 504.797 190.519 508.352 187.447L508.356 187.443L508.364 187.436C522.975 174.805 540.522 159.635 578.482 143.938C625.626 124.444 682.629 129.044 725.299 149.578C767.969 170.11 796.142 206.471 786.05 250.462C775.846 280.335 775.299 299.498 781.917 323.242C785.22 335.092 790.306 348.08 796.847 364.1C798.093 367.151 799.393 370.314 800.742 373.6C806.481 387.569 813.139 403.776 820.552 423.242ZM637.059 471.989C670.223 484.87 708.304 480.292 735.561 465.933C749.193 458.752 760.151 449.108 766.427 437.936C772.71 426.751 774.287 414.049 769.164 400.828L769.163 400.825C755.028 365.079 746.031 341.159 741.833 321.121C737.641 301.113 738.234 284.977 743.309 264.805L743.315 264.779L743.319 264.752C748.451 228.092 726.082 199.836 693.096 184.026C660.114 168.219 616.418 164.787 578.604 177.778C547.424 188.49 533.698 200.317 521.883 210.497C519.379 212.655 516.96 214.739 514.48 216.723C507.408 222.377 499.822 227.227 488.252 230.697C476.668 234.172 461.069 236.269 437.968 236.376C411.077 236.484 391.083 243.385 377.235 254.282C363.386 265.182 355.724 280.051 353.452 296.015C348.912 327.92 365.895 364.215 398.012 382.124L398.02 382.128C412.329 389.789 420.151 397.15 425.167 404.236C428.904 409.515 431.088 414.637 433.244 419.694C433.993 421.449 434.738 423.197 435.544 424.941C438.665 431.695 442.653 438.268 451.188 444.654C459.706 451.027 472.726 457.195 493.874 463.212C513.312 468.739 533.626 467.045 554.702 465.287C557.252 465.075 559.813 464.861 562.385 464.659C586.249 462.787 611.117 461.913 637.059 471.989ZM765.555 437.446C771.703 426.502 773.239 414.112 768.232 401.191C754.105 365.465 745.073 341.463 740.854 321.326C736.631 301.167 737.23 284.882 742.332 264.587C747.369 228.516 725.4 200.618 692.664 184.928C659.915 169.232 616.49 165.82 578.929 178.724C547.939 189.371 534.347 201.08 522.546 211.247C520.034 213.411 517.604 215.505 515.104 217.504C507.961 223.215 500.263 228.139 488.539 231.655C476.828 235.167 461.124 237.269 437.972 237.376C411.249 237.484 391.487 244.339 377.854 255.068C364.223 265.795 356.681 280.424 354.442 296.156C349.962 327.642 366.734 363.536 398.496 381.248C412.91 388.967 420.861 396.421 425.984 403.658C429.788 409.032 432.03 414.292 434.196 419.373C434.937 421.111 435.669 422.828 436.452 424.521C439.527 431.178 443.425 437.597 451.787 443.853C460.167 450.123 473.055 456.249 494.148 462.25C513.398 467.724 533.521 466.048 554.624 464.29C557.171 464.078 559.732 463.864 562.307 463.662C586.19 461.788 611.254 460.893 637.421 471.056C670.288 483.822 708.067 479.287 735.095 465.048C748.607 457.93 759.399 448.406 765.555 437.446Z" fill="url(#paint0_linear_3016_181536)"/>
<defs>
<linearGradient id="paint0_linear_3016_181536" x1="26.1073" y1="106.551" x2="529.507" y2="30.0617" gradientUnits="userSpaceOnUse">
<stop stop-color="#47484E"/>
<stop offset="1" stop-color="#474851" stop-opacity="0"/>
</linearGradient>
</defs>
</svg>