<svg width="64" height="64" viewBox="0 0 64 64" fill="none" xmlns="http://www.w3.org/2000/svg">
<path d="M25.1912 4.40626C28.8749 0.464802 35.1254 0.464803 38.8092 4.40626C40.8436 6.58302 43.7196 7.77427 46.6974 7.67364C52.0892 7.49142 56.509 11.9112 56.3268 17.303C56.2261 20.2808 57.4174 23.1567 59.5941 25.1912C63.5356 28.8749 63.5356 35.1254 59.5941 38.8092C57.4174 40.8436 56.2261 43.7196 56.3268 46.6974C56.509 52.0892 52.0892 56.509 46.6974 56.3268C43.7196 56.2261 40.8436 57.4174 38.8092 59.5941C35.1254 63.5356 28.8749 63.5356 25.1912 59.5941C23.1567 57.4174 20.2808 56.2261 17.303 56.3268C11.9112 56.509 7.49142 52.0892 7.67364 46.6974C7.77427 43.7196 6.58302 40.8436 4.40626 38.8092C0.464802 35.1254 0.464803 28.8749 4.40626 25.1912C6.58302 23.1567 7.77427 20.2808 7.67364 17.303C7.49142 11.9112 11.9112 7.49142 17.303 7.67364C20.2808 7.77427 23.1567 6.58302 25.1912 4.40626Z" stroke="#CD8EFF"/>
<path d="M37.0741 41.6005V39.4869C37.0741 38.3658 36.6732 37.2906 35.9598 36.4979C35.2463 35.7051 34.2786 35.2598 33.2696 35.2598H25.6607C24.6517 35.2598 23.684 35.7051 22.9705 36.4979C22.257 37.2906 21.8562 38.3658 21.8562 39.4869V41.6005" stroke="#CD8EFF" stroke-width="1.5" stroke-linecap="round" stroke-linejoin="round"/>
<path d="M29.4645 30.0093C31.5656 30.0093 33.269 28.306 33.269 26.2049C33.269 24.1037 31.5656 22.4004 29.4645 22.4004C27.3634 22.4004 25.66 24.1037 25.66 26.2049C25.66 28.306 27.3634 30.0093 29.4645 30.0093Z" stroke="#CD8EFF" stroke-width="1.5" stroke-linecap="round" stroke-linejoin="round"/>
<path d="M42.1446 41.6005V39.4401C42.144 38.4828 41.8946 37.5528 41.4356 36.7962C40.9765 36.0395 40.3338 35.4991 39.6083 35.2598" stroke="#CD8EFF" stroke-width="1.5" stroke-linecap="round" stroke-linejoin="round"/>
<path d="M37.2546 23.6665C37.9802 23.8467 38.6232 24.2562 39.0825 24.8302C39.5417 25.4042 39.7909 26.1102 39.7909 26.8369C39.7909 27.5636 39.5417 28.2696 39.0825 28.8436C38.6232 29.4176 37.9802 29.827 37.2546 30.0073" stroke="#CD8EFF" stroke-width="1.5" stroke-linecap="round" stroke-linejoin="round"/>
</svg>
