<svg width="32" height="32" viewBox="0 0 32 32" fill="none" xmlns="http://www.w3.org/2000/svg">
<path d="M16 29.3337C16 29.3337 26.6667 24.0003 26.6667 16.0003V6.66699L16 2.66699L5.33337 6.66699V16.0003C5.33337 24.0003 16 29.3337 16 29.3337Z" stroke="#6CF9D8" stroke-width="1.5" stroke-linecap="round" stroke-linejoin="round"/>
<path d="M16 29.3337C16 29.3337 26.6667 24.0003 26.6667 16.0003V6.66699L16 2.66699L5.33337 6.66699V16.0003C5.33337 24.0003 16 29.3337 16 29.3337Z" stroke="url(#paint0_linear_4249_62597)" stroke-width="1.5" stroke-linecap="round" stroke-linejoin="round"/>
<path d="M12 15.9997L14.6667 18.6663L20 13.333" stroke="#6CF9D8" stroke-width="1.5" stroke-linecap="round" stroke-linejoin="round"/>
<path d="M12 15.9997L14.6667 18.6663L20 13.333" stroke="url(#paint1_linear_4249_62597)" stroke-width="1.5" stroke-linecap="round" stroke-linejoin="round"/>
<defs>
<linearGradient id="paint0_linear_4249_62597" x1="21.9983" y1="16.0003" x2="13.3478" y2="16.6099" gradientUnits="userSpaceOnUse">
<stop stop-color="#6CF9D8"/>
<stop offset="1" stop-color="#C4FFF1"/>
</linearGradient>
<linearGradient id="paint1_linear_4249_62597" x1="18.2493" y1="15.9997" x2="15.0453" y2="16.423" gradientUnits="userSpaceOnUse">
<stop stop-color="#6CF9D8"/>
<stop offset="1" stop-color="#C4FFF1"/>
</linearGradient>
</defs>
</svg>
