<svg width="239" height="230" viewBox="0 0 239 230" fill="none" xmlns="http://www.w3.org/2000/svg">
<rect width="238" height="238" transform="translate(0.503906)" fill="#2D2E33"/>
<path d="M223.474 125.962C235.219 105.732 225.283 88.0724 201.875 87.6202C188.666 68.4731 175.969 56.5493 168.71 56.5374C168.677 56.5296 168.642 56.5295 168.609 56.5369C168.576 56.5443 168.545 56.5592 168.518 56.5804C168.491 56.6015 168.47 56.6285 168.455 56.6592C168.44 56.6898 168.432 56.7235 168.432 56.7575C168.432 56.7916 168.44 56.8252 168.455 56.8559C168.47 56.8866 168.491 56.9135 168.518 56.9347C168.545 56.9559 168.576 56.9707 168.609 56.9782C168.642 56.9856 168.677 56.9855 168.71 56.9777H169.317C173.839 59.0245 178.23 64.8674 170.864 71.1506C168.867 72.7256 166.607 73.9343 164.188 74.7206C164.165 74.6731 164.126 74.6353 164.078 74.6136C164.029 74.5919 163.975 74.5878 163.924 74.6019C163.873 74.6161 163.829 74.6476 163.799 74.691C163.769 74.7344 163.755 74.787 163.76 74.8396C170.305 107.565 203.958 162.257 223.688 171.658L161.748 159.663C161.32 159.484 160.868 159.27 160.38 159.008C160.35 158.995 160.318 158.987 160.286 158.987C160.253 158.986 160.221 158.992 160.191 159.004C160.161 159.016 160.134 159.035 160.111 159.058C160.088 159.081 160.07 159.109 160.059 159.139C159.833 159.734 159.606 160.329 159.357 160.996C159.343 161.039 159.342 161.087 159.356 161.131C159.369 161.175 159.396 161.214 159.432 161.242C159.468 161.271 159.513 161.287 159.559 161.29C159.605 161.293 159.65 161.281 159.69 161.257L161.725 160.067L226.163 172.622C227.73 173.145 229.44 173.029 230.923 172.301C237.313 168.766 234.327 150.131 223.474 125.962ZM200.078 147.965C188.285 131.974 178.498 114.598 170.935 96.2239C181.836 90.4286 193.45 87.5845 203.672 88.1914C224.878 89.4647 233.827 105.315 223.902 124.129C218.749 133.947 209.765 142.194 200.078 147.965Z" fill="#6CF9D8"/>
<path d="M165.604 214.724L149.456 185.64C149.426 185.588 149.377 185.55 149.319 185.535C149.261 185.519 149.199 185.527 149.147 185.557C149.095 185.587 149.056 185.636 149.041 185.694C149.025 185.753 149.033 185.814 149.063 185.866L165.212 214.891C165.83 216 166.013 217.299 165.725 218.536C165.436 219.772 164.698 220.857 163.653 221.578C159.443 224.502 154.955 227.001 150.253 229.04C149.089 229.547 147.778 229.601 146.576 229.192C145.374 228.782 144.368 227.939 143.756 226.826L119.718 183.629L140.936 171.729C140.977 171.712 141.011 171.683 141.036 171.646C141.061 171.609 141.074 171.565 141.074 171.521C141.074 171.477 141.061 171.433 141.036 171.396C141.011 171.359 140.977 171.33 140.936 171.313C143.101 163.387 146.053 152.427 146.41 150.964C145.636 147.061 143.875 138.147 143.089 134.232L141.09 134.03L140.352 135.958L138.544 135.66L131.546 150.047C130.363 152.481 128.284 154.363 125.744 155.299C123.204 156.235 120.401 156.153 117.921 155.069L99.7021 146.287C99.7226 146.244 99.729 146.196 99.7205 146.149C99.712 146.102 99.689 146.06 99.6548 146.027C99.6205 145.994 99.5768 145.972 99.5297 145.966C99.4827 145.959 99.4347 145.967 99.3927 145.99L87.7664 152.535C75.557 159.413 74.6764 172.074 79.0794 181.095C67.1711 180.396 55.8291 175.775 46.824 167.952C37.8189 160.128 31.6575 149.544 29.3017 137.85C32.4707 137.548 35.4236 136.11 37.6152 133.802C39.8068 131.493 41.0891 128.469 41.2254 125.289C41.3618 122.108 40.3429 118.986 38.3569 116.498C36.3709 114.01 33.5518 112.325 30.4203 111.753C32.6427 104.258 36.4614 97.3326 41.6142 91.4532C46.767 85.5738 53.1316 80.8797 60.2707 77.6935C67.4098 74.5072 75.1541 72.9044 82.9714 72.9951C90.7887 73.0858 98.4937 74.868 105.557 78.219C105.584 78.2371 105.615 78.2491 105.647 78.2543C105.679 78.2595 105.712 78.2576 105.743 78.2489C105.774 78.2402 105.803 78.2248 105.828 78.2039C105.853 78.1829 105.873 78.1568 105.887 78.1273C105.901 78.0979 105.908 78.0658 105.909 78.0333C105.909 78.0007 105.902 77.9685 105.889 77.9388C105.876 77.9091 105.856 77.8826 105.832 77.8611C105.807 77.8397 105.778 77.8237 105.747 77.8144C98.6217 74.4335 90.8483 72.6365 82.9619 72.5471C75.0754 72.4577 67.2632 74.078 60.0629 77.2965C52.8625 80.515 46.4449 85.2553 41.2518 91.1912C36.0586 97.1271 32.2131 104.118 29.98 111.682C28.1462 111.395 26.2724 111.498 24.4813 111.984C22.6901 112.471 21.0219 113.331 19.5857 114.507C18.1496 115.682 16.9779 117.148 16.1474 118.808C15.3168 120.468 14.8461 122.285 14.7661 124.139C14.686 125.994 14.9983 127.844 15.6827 129.569C16.3671 131.295 17.408 132.856 18.7374 134.152C20.0668 135.447 21.6548 136.447 23.3973 137.086C25.1399 137.726 26.9978 137.99 28.8495 137.862C31.2413 149.699 37.499 160.405 46.6388 168.297C55.7786 176.19 67.2823 180.821 79.3412 181.463C82.6256 187.83 89.1706 193.125 97.4292 193.125C100.533 193.098 103.595 192.413 106.414 191.114L119.301 183.891L143.339 227.1C144.011 228.305 145.107 229.216 146.414 229.656C147.721 230.096 149.145 230.033 150.408 229.48C155.142 227.439 159.659 224.927 163.891 221.983C165.028 221.203 165.833 220.027 166.15 218.685C166.467 217.342 166.272 215.93 165.604 214.724ZM30.2537 112.194C33.2892 112.735 36.0252 114.359 37.9538 116.765C39.8823 119.171 40.8723 122.195 40.74 125.275C40.6077 128.356 39.3621 131.284 37.2344 133.515C35.1067 135.747 32.2415 137.131 29.1708 137.41C27.5529 129.035 27.9238 120.398 30.2537 112.194ZM106.223 190.734C81.9949 201.539 65.0255 165.851 87.9806 152.927L90.194 151.678C89.1111 162.185 96.8461 181.797 110.162 188.568L106.223 190.734Z" fill="#6CF9D8"/>
<path d="M141.959 77.5881C146.411 75.9056 142.815 69.1641 141.739 67.3369C141.674 67.3482 141.609 67.3595 141.544 67.3708L141.459 66.8781C141.879 66.6066 141.879 66.6067 141.879 66.6069L141.879 66.6074L141.88 66.6091L141.884 66.6147L141.897 66.6353C141.908 66.6532 141.925 66.6791 141.946 66.7127C141.959 66.7338 141.974 66.7579 141.99 66.7849C142.808 66.6399 143.618 66.4881 144.418 66.3254C144.416 66.3097 144.415 66.294 144.413 66.2783L144.91 66.2236L145.013 66.7129C145 66.7156 144.987 66.7184 144.974 66.7211C145.289 68.8334 146.066 70.2815 147.171 70.4362C148.991 70.6861 150.967 67.2232 151.598 62.725C152.093 59.1902 151.597 56.0449 150.478 54.7385L141.959 77.5881ZM141.959 77.5881C137.46 79.3136 127.167 70.6385 127.167 70.6385M141.959 77.5881L127.167 70.6385M127.167 70.6385C126.846 70.7932 126.489 70.9598 126.108 71.1145C112.854 76.6291 101.167 79.6324 78.6704 84.0459L127.167 70.6385ZM127.489 70.2562L127.242 70.0476L126.95 70.188C126.632 70.3411 126.286 70.5024 125.92 70.6513L125.916 70.6529C112.507 76.2319 100.706 79.2346 77.5348 83.7587C77.5033 83.7638 77.4717 83.7701 77.44 83.7776L77.6516 84.7548C77.6686 84.7514 77.6857 84.7481 77.7027 84.7448C77.7862 84.7341 77.9103 84.753 78.0905 84.8624C78.2975 84.9882 78.5401 85.2124 78.805 85.549L78.8058 85.55C80.2744 87.4068 81.3597 90.9365 81.7647 94.1208C81.9661 95.704 81.993 97.1561 81.8312 98.2281C81.75 98.7662 81.6256 99.1778 81.4737 99.457C81.3225 99.7348 81.1762 99.8277 81.0634 99.8532L81.2636 100.833C96.1932 98.0947 112.502 94.2984 126.537 88.1606C127.116 88.9848 127.795 89.8348 128.496 90.698C128.621 90.8525 128.747 91.0075 128.874 91.1629C129.558 92.0031 130.253 92.857 130.906 93.7296C132.463 95.8089 133.714 97.9106 133.965 100.008L134.007 100.358L134.351 100.436C137.513 101.154 141.003 101.456 144.199 101.256C147.383 101.058 150.333 100.358 152.371 99.0217L152.558 98.8992L152.592 98.6783C154.278 87.5234 153.863 81.931 152.518 78.429C157.373 77.6801 162.113 76.3125 166.622 74.3589C168.269 73.6656 169.803 72.7292 171.173 71.581L171.176 71.5784C173.405 69.6787 174.63 67.7793 175.089 65.96C175.55 64.1335 175.224 62.4397 174.448 60.9883C172.914 58.1209 169.609 56.1678 166.991 55.8154L166.991 55.8154C162.943 55.2736 158.568 54.723 155.205 54.3079C153.524 54.1003 152.095 53.9266 151.087 53.8047C150.583 53.7438 150.184 53.6959 149.911 53.6632L149.599 53.6258L149.518 53.6162L149.5 53.6141L149.498 53.6138L149.493 53.6131L149.491 53.613L149.491 53.613C149.491 53.6129 149.491 53.6129 149.432 54.1094L149.491 53.6129L149.364 54.6048C149.64 54.6427 149.934 54.8228 150.222 55.221C150.51 55.6206 150.762 56.2028 150.949 56.9462C151.323 58.4301 151.411 60.4545 151.102 62.6556C150.794 64.8578 150.158 66.7837 149.397 68.1126C149.015 68.7783 148.615 69.2712 148.23 69.5785C147.846 69.8845 147.515 69.9787 147.239 69.9409C146.875 69.8895 146.484 69.5968 146.135 68.9285C145.79 68.268 145.534 67.3233 145.407 66.169L145.346 65.6207L144.807 65.7344C143.684 65.9707 142.536 66.1838 141.373 66.3855L140.628 66.5147L141.039 67.1496L141.039 67.1496L141.039 67.1497L141.039 67.1504L141.042 67.1543L141.053 67.1713L141.061 67.1836C141.07 67.1982 141.082 67.2175 141.097 67.2412C141.135 67.3032 141.192 67.3954 141.262 67.514C141.404 67.7513 141.601 68.0936 141.821 68.5109C142.264 69.3479 142.796 70.4745 143.169 71.6522C143.545 72.8401 143.741 74.0259 143.567 75.0036C143.4 75.9416 142.894 76.7002 141.782 77.1204L141.78 77.1213C140.83 77.4856 139.49 77.3207 137.918 76.7593C136.368 76.2058 134.694 75.3039 133.14 74.336C131.59 73.3701 130.175 72.3493 129.148 71.5689C128.635 71.179 128.219 70.8498 127.932 70.6186C127.788 70.5029 127.677 70.4118 127.602 70.3499C127.564 70.3189 127.536 70.2952 127.517 70.2794L127.496 70.2617L127.491 70.2574L127.489 70.2564L127.489 70.2562ZM166.925 56.3109C160.641 55.4701 153.568 54.6076 150.721 54.2642L166.925 56.3109Z" fill="#6CF9D8" stroke="#2D2E33"/>
<path d="M131.024 103.53C128.586 98.4664 125.374 93.8133 121.504 89.7379C121.463 89.6937 121.441 89.635 121.444 89.5748C121.446 89.5145 121.472 89.4576 121.516 89.4166C121.56 89.3756 121.619 89.3538 121.679 89.356C121.739 89.3582 121.796 89.3843 121.837 89.4285C125.73 93.5582 128.957 98.2671 131.405 103.387C131.401 103.429 131.385 103.47 131.359 103.503C131.334 103.537 131.299 103.563 131.259 103.578C131.22 103.593 131.176 103.596 131.135 103.588C131.093 103.579 131.055 103.559 131.024 103.53Z" fill="#6CF9D8"/>
<path d="M152.883 89.5002L157.584 76.7672C157.589 76.7344 157.602 76.7033 157.621 76.676C157.64 76.6487 157.665 76.6259 157.694 76.6093C157.722 76.5927 157.755 76.5826 157.788 76.5798C157.821 76.577 157.854 76.5816 157.885 76.5932C157.916 76.6048 157.945 76.6231 157.968 76.6468C157.991 76.6706 158.009 76.6992 158.02 76.7306C158.031 76.762 158.035 76.7954 158.031 76.8285C158.028 76.8615 158.017 76.8935 158 76.9219L153.323 89.6549C153.303 89.7133 153.26 89.7612 153.204 89.7879C153.149 89.8147 153.084 89.8182 153.026 89.7977C152.968 89.7772 152.92 89.7344 152.893 89.6786C152.866 89.6228 152.863 89.5586 152.883 89.5002Z" fill="#6CF9D8"/>
<path d="M78.2829 95.3785C76.4244 95.2262 74.618 94.6882 72.9789 93.799C71.3398 92.9098 69.904 91.6888 68.7629 90.2139C68.7412 90.1909 68.7246 90.1636 68.7141 90.1338C68.7036 90.1039 68.6995 90.0722 68.702 90.0407C68.7046 90.0091 68.7137 89.9785 68.7288 89.9507C68.7439 89.9229 68.7647 89.8986 68.7898 89.8794C68.8149 89.8601 68.8438 89.8464 68.8746 89.839C68.9053 89.8316 68.9373 89.8307 68.9684 89.8365C68.9995 89.8422 69.0291 89.8544 69.0552 89.8723C69.0813 89.8901 69.1033 89.9133 69.1199 89.9402C70.2285 91.3727 71.6253 92.5567 73.22 93.4155C74.8148 94.2744 76.572 94.7891 78.3781 94.9263C78.4381 94.939 78.4906 94.9749 78.5241 95.0262C78.5575 95.0776 78.5692 95.1401 78.5566 95.2C78.544 95.26 78.5081 95.3125 78.4567 95.346C78.4054 95.3794 78.3429 95.3912 78.2829 95.3785Z" fill="#6CF9D8"/>
<path d="M62.5861 187.711C62.0495 188.044 61.5952 188.494 61.2572 189.028C60.9192 189.562 60.7064 190.165 60.6345 190.793L59.6825 190.531C59.2344 190.4 58.7645 190.359 58.3006 190.413C57.8367 190.466 57.3881 190.611 56.9812 190.84C56.3744 191.188 55.8831 191.706 55.5681 192.33C55.2532 192.955 55.1285 193.658 55.2096 194.352C55.2908 195.047 55.5741 195.702 56.0244 196.237C56.4747 196.772 57.0723 197.163 57.7428 197.362L65.3231 199.504C65.3513 199.513 65.3809 199.516 65.4103 199.513C65.4397 199.51 65.4681 199.501 65.4938 199.486C65.5195 199.471 65.5419 199.452 65.5596 199.428C65.5774 199.405 65.59 199.378 65.5968 199.349L67.7388 191.78C67.9219 191.105 67.9027 190.392 67.6835 189.727C67.4643 189.063 67.0549 188.478 66.5061 188.044C65.9572 187.611 65.2931 187.348 64.5962 187.289C63.8993 187.23 63.2004 187.376 62.5861 187.711ZM56.0054 195.458C55.7058 194.92 55.5724 194.306 55.6222 193.693C55.6719 193.08 55.9027 192.496 56.2851 192.014C56.6675 191.532 57.1843 191.174 57.7701 190.987C58.3559 190.799 58.9842 190.79 59.5754 190.959L60.7654 191.293C60.8221 191.304 60.8811 191.295 60.9315 191.267C60.9818 191.238 61.0201 191.192 61.0391 191.138L61.3723 189.948C61.6516 189.226 62.1905 188.634 62.8833 188.289C63.5761 187.943 64.3729 187.869 65.1176 188.081C65.8622 188.292 66.5011 188.774 66.9089 189.432C67.3168 190.09 67.4642 190.877 67.3223 191.638L65.2398 199.004L57.8856 196.921C57.491 196.814 57.1217 196.629 56.799 196.378C56.4763 196.126 56.2065 195.814 56.0054 195.458Z" fill="#6CF9D8"/>
<path d="M210.492 73.7801C210.122 73.3017 209.619 72.9435 209.046 72.7507C208.473 72.5579 207.856 72.5392 207.273 72.697C206.689 72.8548 206.166 73.1819 205.768 73.6371C205.37 74.0922 205.116 74.6551 205.038 75.2545C204.96 75.8539 205.062 76.4629 205.329 77.0048C205.597 77.5466 206.02 77.9969 206.543 78.2988C207.067 78.6007 207.669 78.7407 208.272 78.701C208.875 78.6614 209.453 78.4439 209.932 78.076C210.575 77.5794 210.994 76.8486 211.099 76.0435C211.204 75.2384 210.985 74.4246 210.492 73.7801ZM209.659 77.719C209.249 78.0359 208.754 78.224 208.237 78.2594C207.72 78.2949 207.204 78.1762 206.755 77.9182C206.305 77.6603 205.942 77.2748 205.712 76.8106C205.482 76.3464 205.395 75.8243 205.461 75.3104C205.528 74.7965 205.746 74.314 206.087 73.924C206.428 73.534 206.877 73.2539 207.378 73.1194C207.878 72.9848 208.407 73.0018 208.898 73.1681C209.389 73.3345 209.819 73.6427 210.135 74.0538C210.549 74.6018 210.731 75.2907 210.642 75.9719C210.553 76.6532 210.2 77.2721 209.659 77.6952V77.719Z" fill="#6CF9D8"/>
<path d="M131.226 107.1C131.166 107.1 131.109 107.076 131.066 107.034C131.024 106.992 131 106.934 131 106.874C131 106.814 131.024 106.757 131.066 106.714C131.109 106.672 131.166 106.648 131.226 106.648C136.069 106.648 137.938 103.756 137.961 103.721C137.996 103.678 138.045 103.649 138.1 103.639C138.155 103.63 138.211 103.641 138.258 103.671C138.305 103.7 138.339 103.745 138.355 103.799C138.37 103.852 138.366 103.909 138.342 103.959C138.259 104.102 136.331 107.1 131.226 107.1Z" fill="#6CF9D8"/>
<path d="M65.4656 56.3703L60.2058 58.7503L57.8258 53.4786C57.8005 53.4234 57.7544 53.3805 57.6974 53.3593C57.6405 53.3381 57.5775 53.3403 57.5223 53.3656C57.4671 53.3908 57.4241 53.437 57.4029 53.4939C57.3817 53.5508 57.384 53.6138 57.4093 53.669L59.7893 58.9407L54.5295 61.3207C54.4983 61.33 54.4695 61.346 54.445 61.3674C54.4206 61.3889 54.4011 61.4154 54.3878 61.4451C54.3745 61.4748 54.3678 61.507 54.3681 61.5396C54.3684 61.5721 54.3758 61.6042 54.3896 61.6336C54.4035 61.6631 54.4235 61.6892 54.4484 61.7102C54.4733 61.7311 54.5024 61.7465 54.5337 61.7552C54.5651 61.7639 54.5979 61.7658 54.6301 61.7606C54.6622 61.7554 54.6928 61.7434 54.7199 61.7253L59.9797 59.3453L62.3597 64.6051C62.3665 64.6381 62.3807 64.6692 62.4011 64.696C62.4215 64.7228 62.4476 64.7447 62.4776 64.7601C62.5076 64.7756 62.5406 64.7841 62.5743 64.7851C62.608 64.7861 62.6415 64.7796 62.6723 64.7659C62.7031 64.7523 62.7305 64.732 62.7525 64.7065C62.7745 64.6809 62.7904 64.6508 62.7992 64.6182C62.8081 64.5857 62.8095 64.5516 62.8034 64.5185C62.7974 64.4853 62.784 64.4539 62.7643 64.4266L60.3843 59.1549L65.656 56.7749C65.701 56.7448 65.7337 56.6996 65.7482 56.6475C65.7626 56.5953 65.7579 56.5397 65.7349 56.4907C65.7118 56.4417 65.672 56.4026 65.6226 56.3805C65.5731 56.3584 65.5174 56.3548 65.4656 56.3703Z" fill="#6CF9D8"/>
<path d="M164.461 17.3744L155.548 13.9472C155.506 13.9306 155.46 13.9273 155.415 13.9375C155.371 13.9477 155.331 13.971 155.3 14.0044C155.269 14.0379 155.249 14.0798 155.242 14.1248C155.236 14.1697 155.243 14.2157 155.263 14.2566L156.762 17.541C153.525 19.5164 148.158 21.7536 146.718 18.2431C146.576 17.898 146.159 18.0646 146.302 18.4097C147.73 21.9797 150.3 24.3597 154.251 24.3597C156.002 24.3225 157.725 23.917 159.309 23.1697L160.915 26.7397C160.932 26.7806 160.961 26.8155 160.998 26.8401C161.035 26.8646 161.079 26.8777 161.123 26.8777C161.168 26.8777 161.211 26.8646 161.248 26.8401C161.285 26.8155 161.314 26.7806 161.332 26.7397L164.592 17.7552C164.626 17.7275 164.651 17.69 164.663 17.6478C164.676 17.6055 164.674 17.5605 164.66 17.5189C164.646 17.4773 164.619 17.4411 164.584 17.4153C164.548 17.3894 164.505 17.3751 164.461 17.3744ZM161.153 25.9781L159.689 22.7532C159.653 22.6953 159.595 22.6542 159.528 22.6386C159.461 22.623 159.391 22.6343 159.332 22.6699C158.868 22.896 155.025 24.6929 151.514 23.3839C149.861 22.7352 148.486 21.532 147.623 19.9805C150.11 21.5632 154.763 19.3855 157.226 17.8147C157.321 17.7552 157.357 17.6481 157.226 17.4696L155.893 14.566L164.092 17.7195L161.153 25.9781Z" fill="#6CF9D8"/>
<path d="M155.418 37.3187C151.579 37.3044 147.859 35.9878 144.865 33.5841C141.871 31.1805 139.782 27.8321 138.938 24.0866C138.095 20.3412 138.547 16.4204 140.222 12.9656C141.896 9.51072 144.693 6.72632 148.156 5.06778C151.618 3.40925 155.541 2.97475 159.283 3.83537C163.024 4.69599 166.363 6.80077 168.753 9.80546C171.143 12.8101 172.442 16.5369 172.439 20.3761C172.436 24.2153 171.13 27.9398 168.735 30.9403C167.141 32.9399 165.115 34.5526 162.808 35.6572C160.502 36.7619 157.976 37.33 155.418 37.3187ZM155.418 3.86781C151.521 3.86454 147.748 5.24186 144.768 7.75549C141.789 10.2691 139.797 13.7566 139.144 17.5994C138.491 21.4423 139.221 25.3921 141.203 28.7483C143.185 32.1046 146.292 34.6504 149.972 35.9343C153.653 37.2181 157.669 37.157 161.308 35.7618C164.948 34.3666 167.976 31.7275 169.855 28.3125C171.734 24.8975 172.343 20.9273 171.574 17.1061C170.804 13.2849 168.707 9.85966 165.652 7.43781C162.75 5.13646 159.158 3.87895 155.454 3.86781H155.418Z" fill="#6CF9D8"/>
<path d="M199.816 193.887C199.806 193.322 199.573 192.784 199.166 192.391C198.76 191.998 198.215 191.783 197.65 191.792C197.085 191.802 196.547 192.035 196.154 192.441C195.761 192.848 195.546 193.393 195.555 193.958L189.867 193.244C189.809 192.699 189.544 192.196 189.127 191.84C188.71 191.484 188.172 191.302 187.624 191.331C187.076 191.36 186.56 191.598 186.183 191.996C185.806 192.394 185.595 192.922 185.595 193.47C185.595 194.019 185.806 194.546 186.183 194.944C186.56 195.342 187.076 195.58 187.624 195.609C188.172 195.638 188.71 195.456 189.127 195.1C189.544 194.744 189.809 194.242 189.867 193.696L195.555 194.41C195.634 194.903 195.887 195.351 196.269 195.672L193.687 200.122C193.167 199.949 192.6 199.982 192.103 200.214C191.607 200.446 191.218 200.859 191.017 201.369C190.816 201.879 190.818 202.447 191.023 202.956C191.228 203.464 191.621 203.875 192.119 204.102C192.618 204.33 193.185 204.358 193.704 204.181C194.222 204.003 194.653 203.634 194.907 203.148C195.162 202.662 195.22 202.098 195.071 201.57C194.921 201.043 194.575 200.593 194.104 200.313L196.638 195.933C196.977 196.122 197.361 196.216 197.749 196.203C198.137 196.191 198.514 196.073 198.841 195.863C199.167 195.653 199.43 195.358 199.602 195.01C199.773 194.662 199.847 194.273 199.816 193.887ZM194.734 202.026C194.763 202.393 194.671 202.76 194.472 203.07C194.274 203.38 193.979 203.617 193.633 203.744C193.288 203.871 192.91 203.882 192.558 203.775C192.205 203.668 191.898 203.448 191.682 203.15C191.465 202.852 191.352 202.491 191.36 202.123C191.368 201.755 191.496 201.399 191.724 201.11C191.952 200.821 192.269 200.615 192.625 200.523C192.982 200.43 193.359 200.457 193.699 200.598C193.986 200.718 194.235 200.914 194.418 201.166C194.6 201.418 194.71 201.716 194.734 202.026ZM189.046 194.684C188.867 194.897 188.638 195.062 188.379 195.165C188.121 195.268 187.841 195.306 187.564 195.275C187.288 195.244 187.023 195.145 186.794 194.987C186.565 194.829 186.379 194.617 186.251 194.369C186.124 194.122 186.059 193.847 186.064 193.569C186.068 193.29 186.141 193.018 186.277 192.774C186.412 192.531 186.605 192.325 186.839 192.175C187.073 192.024 187.341 191.934 187.618 191.911C187.95 191.885 188.283 191.957 188.575 192.119C188.866 192.281 189.103 192.525 189.256 192.822C189.408 193.118 189.47 193.453 189.433 193.785C189.395 194.116 189.261 194.429 189.046 194.684ZM197.828 195.743C197.495 195.77 197.161 195.698 196.869 195.535C196.577 195.373 196.34 195.127 196.187 194.83C196.035 194.533 195.974 194.197 196.012 193.865C196.051 193.533 196.187 193.219 196.403 192.965C196.62 192.71 196.907 192.525 197.228 192.434C197.55 192.342 197.891 192.348 198.209 192.45C198.527 192.553 198.808 192.748 199.015 193.01C199.223 193.272 199.348 193.589 199.375 193.922C199.395 194.144 199.37 194.367 199.303 194.579C199.235 194.79 199.126 194.987 198.982 195.156C198.839 195.326 198.662 195.465 198.464 195.565C198.266 195.666 198.05 195.727 197.828 195.743Z" fill="#6CF9D8"/>
<path d="M192.724 210.214C190.116 210.214 187.566 209.44 185.398 207.991C183.229 206.542 181.539 204.482 180.542 202.072C179.544 199.662 179.284 197.01 179.793 194.452C180.303 191.894 181.56 189.545 183.405 187.701C185.25 185.858 187.601 184.603 190.159 184.095C192.718 183.588 195.369 183.851 197.778 184.85C200.187 185.85 202.246 187.542 203.693 189.712C205.141 191.882 205.912 194.432 205.91 197.04C205.906 200.535 204.516 203.886 202.044 206.356C199.571 208.826 196.219 210.214 192.724 210.214ZM192.724 184.308C190.206 184.308 187.744 185.054 185.65 186.453C183.556 187.853 181.924 189.841 180.961 192.168C179.997 194.494 179.745 197.055 180.236 199.525C180.727 201.995 181.94 204.263 183.721 206.044C185.502 207.825 187.77 209.038 190.24 209.529C192.71 210.02 195.27 209.768 197.597 208.804C199.924 207.841 201.912 206.208 203.311 204.115C204.711 202.021 205.457 199.559 205.457 197.04C205.454 193.664 204.112 190.428 201.725 188.04C199.337 185.653 196.1 184.311 192.724 184.308Z" fill="#6CF9D8"/>
<path d="M174.766 62.4516C173.755 59.0244 169.923 56.5016 166.96 56.0732C159.558 55.0855 150.942 54.0502 149.633 53.8955C149.384 53.83 149.121 53.83 148.872 53.8955C149.062 51.6821 149.479 49.6353 149.217 48.6714C149.086 48.1954 148.681 48.0883 148.277 48.5524C147.384 49.5639 147.087 51.4084 147.86 48.0526C148.098 46.934 148.574 44.316 147.67 44.0542C147.182 43.9233 146.682 44.554 146.242 45.4346C146.361 43.0546 145.992 42.6143 145.635 42.5429C144.909 42.412 144.159 44.2803 143.898 44.9824C143.898 44.0066 143.898 43.0903 143.517 42.9951C143.136 42.8999 142.922 42.9951 142.136 45.3751C141.351 47.8903 140.844 50.4842 140.625 53.1101C140.383 52.5374 140.045 52.0102 139.625 51.5512C139.364 51.2537 139.138 51.3132 139.019 51.3727C137.971 51.9558 138.602 58.8221 139.554 62.3326C140.006 63.9986 141.779 65.3433 144.314 66.1525C142.803 66.4619 141.232 66.7475 139.637 66.9974C136.924 67.4258 135.484 64.2366 135.163 63.4274C135.708 63.2897 136.218 63.0397 136.661 62.6934C137.103 62.3471 137.469 61.9121 137.733 61.4163C138.602 59.5004 137.436 56.6563 134.27 53.0863C134.342 50.0845 133.393 47.1472 131.579 44.7543C129.766 42.3615 127.194 40.6546 124.284 39.9127C121.375 39.1708 118.299 39.4378 115.561 40.6699C112.823 41.902 110.584 44.0264 109.209 46.696C108.3 45.8639 107.176 45.3042 105.964 45.0807C104.753 44.8572 103.503 44.979 102.357 45.4322C101.211 45.8854 100.216 46.6517 99.4849 47.6435C98.754 48.6354 98.3167 49.8128 98.2231 51.0414C98.1294 52.2699 98.3832 53.5 98.9554 54.5912C99.5276 55.6824 100.395 56.5906 101.459 57.2122C102.523 57.8338 103.74 58.1436 104.972 58.1063C106.203 58.0691 107.399 57.6862 108.424 57.0014C109.102 58.9921 110.244 60.7933 111.754 62.2566C113.265 63.7199 115.101 64.8035 117.113 65.4181C119.124 66.0328 121.253 66.161 123.323 65.7921C125.394 65.4233 127.347 64.5679 129.023 63.2965C130.962 67.0212 130.355 69.0918 126.012 70.9006C111.994 76.7316 99.7604 79.6471 77.7097 83.9906C76.7577 84.181 76.4007 85.0378 76.2103 86.0612L75.7819 86.204C75.128 86.4542 74.4139 86.5018 73.7326 86.3404C73.0513 86.1791 72.4343 85.8165 71.962 85.2996C67.4995 80.4563 66.5713 81.1108 66.2619 81.325C64.6078 82.515 68.5348 86.7276 68.511 88.6911C68.511 89.06 66.964 89.4408 65.7621 89.4646L59.0386 89.5955C57.8486 89.5955 55.778 89.7383 55.7304 90.5951C55.6828 91.4519 57.3726 91.8922 58.9672 92.0945L63.4773 92.6657L57.0989 93.8557C55.9089 94.058 53.8978 94.5102 53.9811 95.367C54.0644 96.2238 55.5043 96.3428 56.9799 96.3428C57.6463 96.3428 58.5269 96.2714 63.9057 96.1643C62.6086 96.557 60.9069 97.0092 58.9315 97.4495C56.9561 97.8898 55.8375 98.4729 55.9208 99.0798C56.0517 99.9961 58.5031 99.9485 59.4194 99.9009C60.3357 99.8533 62.918 99.6629 64.7268 99.4487C63.9057 99.7581 63.0013 100.079 62.0374 100.341C59.9787 100.912 59.0029 101.531 59.11 102.102C59.3599 103.4 64.2508 102.555 65.5479 102.328C71.9739 101.21 73.9969 101.139 79.4352 99.6748C79.8755 100.21 80.5181 100.77 81.1964 100.639C99.8318 96.8188 114.826 92.9989 126.643 87.8105C129.023 91.3805 133.664 95.5812 134.247 99.8652C126.472 107.552 120.903 117.185 118.122 127.759C118.105 127.808 118.107 127.862 118.126 127.91C118.146 127.958 118.183 127.997 118.229 128.021L119.99 128.973C119.895 129.603 119.491 132.078 119.157 134.923C116.861 134.47 100.308 130.9 93.3225 129.211C89.2436 128.343 85.3998 126.606 82.0532 124.117C81.9918 124.095 81.9243 124.095 81.8628 124.117C71.1083 125.892 60.8586 129.95 51.8034 136.017C51.7666 136.041 51.7377 136.075 51.7208 136.115C51.7039 136.155 51.6996 136.2 51.7087 136.243C51.7178 136.285 51.7397 136.324 51.7715 136.354C51.8033 136.384 51.8435 136.404 51.8867 136.41C70.9267 141.099 76.365 135.696 85.2781 139.587C85.6827 139.766 82.315 138.148 117.491 155.057C120.044 156.287 122.98 156.456 125.656 155.526C128.333 154.596 130.532 152.643 131.771 150.095L138.697 135.815L140.256 136.148C140.284 136.157 140.314 136.16 140.343 136.156C140.373 136.152 140.401 136.142 140.426 136.126C140.451 136.11 140.472 136.089 140.488 136.064C140.504 136.039 140.514 136.011 140.518 135.982L141.196 134.232C141.744 134.28 142.291 134.316 142.838 134.34L146.135 150.928C145.564 153.201 139.459 175.787 138.495 179.131C137.103 183.891 133.902 189.437 133.449 190.484C133.401 190.571 133.377 190.67 133.378 190.769C135.338 201.338 139.149 211.478 144.635 220.722C144.654 220.759 144.683 220.791 144.719 220.813C144.754 220.835 144.796 220.847 144.838 220.847C144.88 220.847 144.921 220.835 144.957 220.813C144.992 220.791 145.021 220.759 145.04 220.722C150.621 204.597 145.456 196.922 148.134 188.83C148.265 188.544 160.95 160.055 162.902 151.856C163.407 145.031 163.006 138.168 161.712 131.448C162.521 131.162 163.318 130.853 164.092 130.532C164.144 130.508 164.186 130.465 164.208 130.412C164.23 130.359 164.231 130.3 164.211 130.246C158.404 114.11 152.739 99.5439 152.311 98.5205C154.048 87.0013 153.501 81.5273 152.12 78.1477C157.069 77.4211 161.899 76.0405 166.484 74.0422C171.303 72.0311 176.23 67.4496 174.766 62.4516ZM145.956 47.3029C146.825 44.9229 147.456 44.4707 147.539 44.4945C147.622 44.5183 147.967 45.4465 147.42 47.9693C146.92 50.2184 146.432 52.2295 146.147 53.9193C145.679 53.4484 145.146 53.0476 144.564 52.7293C144.992 50.6468 145.683 47.9336 145.956 47.3029ZM145.302 43.1855C145.54 42.9118 145.611 42.9594 145.694 43.2569C145.874 44.3922 145.874 45.5488 145.694 46.6841C145.062 48.5839 144.542 50.5189 144.136 52.4794C143.709 52.2729 143.262 52.1095 142.803 51.9915C143.088 49.909 143.969 44.8158 145.302 43.1855ZM139.982 62.2255C138.888 58.1438 138.673 52.1581 139.209 51.7892C139.867 52.4733 140.324 53.3256 140.53 54.2525C140.439 55.1864 140.439 56.127 140.53 57.0609C140.532 57.0931 140.54 57.1246 140.555 57.1532C140.57 57.1819 140.591 57.207 140.616 57.2269C140.641 57.2468 140.671 57.2611 140.702 57.2687C140.733 57.2764 140.766 57.2772 140.798 57.2712C140.829 57.2652 140.859 57.2525 140.886 57.234C140.912 57.2154 140.934 57.1914 140.951 57.1636C140.967 57.1358 140.977 57.1048 140.98 57.0727C140.984 57.0406 140.98 57.0082 140.97 56.9776C140.833 53.1007 141.36 49.2289 142.529 45.5298C142.724 44.8469 143.003 44.1911 143.362 43.5782C143.467 44.8618 143.407 46.1535 143.184 47.4219C142.803 49.0522 142.529 50.5397 142.339 51.9558L141.946 51.8844C141.888 51.881 141.831 51.9002 141.786 51.9379C141.742 51.9755 141.714 52.0288 141.708 52.0867C141.703 52.1158 141.704 52.1456 141.711 52.1742C141.718 52.2029 141.731 52.2298 141.749 52.2532C141.766 52.2767 141.789 52.2962 141.815 52.3105C141.841 52.3249 141.869 52.3338 141.898 52.3366C142.845 52.4649 143.752 52.7974 144.558 53.3111C145.363 53.8248 146.048 54.5074 146.563 55.3116C146.706 55.5615 147.111 55.3116 146.956 55.0974C146.817 54.8432 146.658 54.6005 146.48 54.3715C146.587 53.717 146.754 52.9316 146.932 52.1224C147.366 51.0528 147.859 50.008 148.408 48.9927C148.669 48.6 148.8 48.719 148.848 49.1593C148.852 50.0568 148.777 50.9528 148.622 51.8368C148.278 54.7678 148.095 57.7155 148.074 60.6666C148.074 60.7266 148.098 60.7841 148.141 60.8265C148.183 60.8689 148.241 60.8927 148.301 60.8927C148.36 60.8927 148.418 60.8689 148.46 60.8265C148.503 60.7841 148.527 60.7266 148.527 60.6666C148.527 59.9288 148.527 58.1557 148.681 56.2279C149.457 56.5828 150.293 56.7848 151.145 56.8229C151.814 60.06 151.562 63.42 150.419 66.5214C145.111 66.6404 140.696 64.784 139.982 62.166V62.2255ZM130.343 65.3909C129.934 63.9379 129.265 62.5711 128.368 61.3568C128.195 61.1833 127.969 61.0741 127.725 61.0474C123.763 60.619 123.929 57.168 126.131 57.8939C126.904 58.1557 127.321 58.1676 127.606 57.8939C127.7 57.7811 127.76 57.6449 127.781 57.5001C127.802 57.3552 127.783 57.2074 127.725 57.0728C126.535 54.1335 127.547 47.3148 132.676 52.051C134.675 53.9074 138.531 58.5246 137.329 61.1902C136.341 63.356 132.569 63.3798 132.497 63.3798C132.426 63.3798 132.093 63.6297 132.366 63.7844L136.044 65.7955C136.451 66.3758 137.012 66.8319 137.663 67.1133C138.314 67.3948 139.03 67.4906 139.733 67.3901L141.375 67.1164C143.481 70.5317 145.635 75.9581 141.91 77.3861C137.983 78.8736 129.225 71.9835 127.63 70.6626C129.903 69.4131 131.01 67.8304 130.343 65.3314V65.3909ZM127.142 70.9482C128.213 71.8407 135.925 78.0882 140.625 78.0882C141.398 78.132 142.164 77.9236 142.807 77.4944C143.451 77.0651 143.938 76.4382 144.195 75.7082C145.159 72.7808 142.589 68.2588 141.875 67.0688C142.767 66.9141 143.66 66.7475 144.516 66.569C145.195 67.759 145.088 68.949 146.075 70.0438C147.539 74.2564 147.753 79.0045 143.529 80.4087C139.114 81.8724 132.593 79.1116 124.155 72.1977C125.238 71.7217 126.44 71.2338 127.142 70.8887V70.9482ZM57.4083 95.7954C55.1949 95.8787 54.4571 95.4146 54.4333 95.248C54.4095 95.0814 54.8498 94.5935 57.1822 94.2127L65.8573 92.6776C66.0829 93.547 66.3938 94.3921 66.7855 95.2004C66.5475 95.2837 66.0715 95.4503 65.4646 95.6407C65.0362 95.6169 60.8474 95.6883 57.4083 95.7954ZM59.4075 99.3654C57.1584 99.4963 56.3968 99.0917 56.373 98.937C56.3492 98.7823 56.7657 98.3182 59.0505 97.747C61.7376 97.1564 64.3879 96.4094 66.9878 95.5098C67.3747 96.2643 67.8245 96.9848 68.3325 97.6637C67.9993 97.8541 67.2496 98.2587 66.2024 98.7347C65.3694 98.8894 62.5491 99.1988 59.4075 99.3654ZM72.2 100.722C67.083 101.46 65.6193 101.912 62.7514 102.186C60.3714 102.459 59.5979 102.102 59.5622 101.936C59.5265 101.769 59.9311 101.317 62.1683 100.746C64.4226 100.107 66.595 99.2084 68.6419 98.0683C69.2438 98.8068 69.8833 99.5138 70.5578 100.187C70.5989 100.228 70.6545 100.251 70.7125 100.251C70.7706 100.251 70.8262 100.228 70.8672 100.187C70.9083 100.145 70.9313 100.09 70.9313 100.032C70.9313 99.9738 70.9083 99.9181 70.8672 99.8771C68.3325 97.1758 66.6308 94.891 65.9525 91.0711C65.9386 91.0135 65.9046 90.9627 65.8566 90.9278C65.8087 90.8929 65.7499 90.8762 65.6907 90.8807C65.6326 90.8922 65.5813 90.9261 65.5479 90.9751C65.5146 91.0241 65.5017 91.0842 65.5122 91.1425C65.5122 91.5233 65.655 91.8922 65.7383 92.2492L64.9648 92.3801L59.0148 91.6304C56.8133 91.3448 56.1588 90.7736 56.1707 90.607C56.1826 90.4404 56.6824 90.0358 59.0267 90.0239L65.7621 89.893C65.7621 89.893 68.9513 89.774 68.9513 88.703C68.9513 86.7633 65.3813 82.5031 66.5713 81.7058C66.9997 81.3964 68.5824 82.2651 71.6764 85.6209C72.2101 86.2022 72.9057 86.6104 73.6735 86.7928C74.4413 86.9752 75.2461 86.9235 75.9842 86.6443L79.1496 85.5257C81.1964 88.2508 82.7196 94.8196 82.1365 98.3539C78.8889 99.393 75.5672 100.185 72.2 100.722ZM131.403 149.94C130.819 151.152 130.002 152.237 128.998 153.132C127.995 154.028 126.824 154.716 125.554 155.158C124.284 155.6 122.939 155.788 121.596 155.709C120.253 155.63 118.939 155.288 117.729 154.7C82.6958 137.802 85.9802 139.385 85.5994 139.23C77.7692 135.803 72.6641 139.23 59.8478 137.505C67.6166 132.761 75.9583 129.026 84.6712 126.39C87.374 127.87 90.264 128.979 93.263 129.687C100.308 131.412 117.063 134.97 119.157 135.422C118.893 137.563 118.742 139.716 118.705 141.872C118.705 141.932 118.729 141.99 118.771 142.032C118.814 142.074 118.871 142.098 118.931 142.098C118.991 142.098 119.049 142.074 119.091 142.032C119.134 141.99 119.157 141.932 119.157 141.872C119.319 137.636 119.756 133.414 120.466 129.234C126.114 132.18 132.112 134.399 138.316 135.839L131.403 149.94ZM162.485 151.844C160.569 159.972 147.896 188.425 147.753 188.734C145.373 195.874 148.824 202.11 146.563 213.724C145.73 212.058 142.993 206.584 135.651 187.402C136.996 184.837 138.107 182.157 138.971 179.393C139.828 176.43 146.611 151.226 146.635 151.095C146.658 150.964 146.635 151.095 143.35 134.435C149.449 134.629 155.531 133.685 161.283 131.65C162.564 138.296 162.956 145.083 162.45 151.832L162.485 151.844ZM163.747 130.258C156.676 133.17 149.024 134.392 141.399 133.828L148.8 114.514C148.818 114.486 148.828 114.454 148.832 114.421C148.835 114.388 148.831 114.354 148.82 114.323C148.809 114.291 148.791 114.263 148.768 114.239C148.745 114.215 148.717 114.197 148.685 114.185C148.654 114.174 148.621 114.169 148.588 114.172C148.555 114.175 148.523 114.185 148.494 114.201C148.465 114.218 148.44 114.241 148.421 114.268C148.402 114.295 148.389 114.327 148.384 114.359L140.197 135.708C132.637 134.141 125.362 131.428 118.622 127.664C121.399 117.233 126.907 107.731 134.58 100.139C139.673 101.329 147.67 101.615 152.025 98.9489C152.823 100.972 158.178 114.871 163.711 130.246L163.747 130.258ZM166.377 73.6852C161.786 75.677 156.953 77.0535 152.001 77.7788C151.305 76.3239 150.425 74.9641 149.383 73.7328C149.345 73.6921 149.293 73.6671 149.237 73.6626C149.181 73.6581 149.126 73.6745 149.081 73.7085C149.037 73.7426 149.007 73.7919 148.997 73.8469C148.986 73.902 148.997 73.9588 149.026 74.0065L149.288 74.3516C151.871 77.6836 154.536 81.1346 151.93 98.4729C147.896 101.103 140.22 100.984 134.699 99.7581C134.27 96.7117 131.926 93.7367 129.76 91.0711L131.248 85.6804C131.248 85.5495 131.248 85.1687 130.95 85.3472C118.705 91.3686 102.688 96.1643 82.0056 99.9604C83.9453 96.9854 81.4344 86.1802 78.5189 84.2762C98.8203 80.3016 110.756 77.4694 123.632 72.3762C130.843 78.3262 136.543 81.2417 140.934 81.2417C145.992 81.2417 148.931 77.6717 146.67 70.5317C147.134 70.7459 146.028 70.6745 162.45 70.6745C162.51 70.6745 162.567 70.6507 162.61 70.6083C162.652 70.5659 162.676 70.5084 162.676 70.4484C162.676 70.3884 162.652 70.3309 162.61 70.2885C162.567 70.2461 162.51 70.2223 162.45 70.2223H148.598C150.05 69.1513 151.335 66.3072 151.823 62.7729C151.982 61.6299 152.038 60.4749 151.99 59.3219C151.918 57.8582 151.597 55.5853 150.562 54.4786C153.31 54.8118 160.546 55.6686 166.9 56.5492C169.721 56.9181 173.374 59.3457 174.338 62.6063C175.73 67.3306 170.863 71.7336 166.341 73.6733L166.377 73.6852Z" fill="#6CF9D8"/>
</svg>
