<svg width="24" height="24" viewBox="0 0 24 24" fill="none" xmlns="http://www.w3.org/2000/svg">
	<circle cx="12" cy="12" r="12" fill="currentColor" />
	<path d="M17.1506 7.61024C16.2033 7.17557 15.1875 6.85533 14.1253 6.67191C14.106 6.66837 14.0867 6.67722 14.0767 6.69491C13.946 6.92728 13.8013 7.23042 13.7 7.46869C12.5576 7.29766 11.4211 7.29766 10.3021 7.46869C10.2007 7.22512 10.0507 6.92728 9.91951 6.69491C9.90955 6.67781 9.89023 6.66896 9.87088 6.67191C8.80933 6.85474 7.79348 7.17499 6.84557 7.61024C6.83737 7.61378 6.83033 7.61968 6.82567 7.62735C4.89881 10.506 4.37096 13.314 4.6299 16.0871C4.63107 16.1007 4.63869 16.1136 4.64924 16.1219C5.92052 17.0555 7.15198 17.6223 8.36057 17.9979C8.37992 18.0038 8.40041 17.9968 8.41272 17.9808C8.69861 17.5904 8.95346 17.1788 9.17197 16.7459C9.18486 16.7205 9.17255 16.6904 9.1462 16.6804C8.74197 16.5271 8.35706 16.3401 7.9868 16.1278C7.95751 16.1107 7.95517 16.0688 7.98211 16.0487C8.06003 15.9904 8.13796 15.9296 8.21236 15.8683C8.22582 15.8571 8.24458 15.8547 8.26041 15.8618C10.6928 16.9723 13.3262 16.9723 15.7299 15.8618C15.7458 15.8541 15.7645 15.8565 15.7786 15.8677C15.853 15.929 15.9309 15.9904 16.0094 16.0487C16.0363 16.0688 16.0346 16.1107 16.0053 16.1278C15.635 16.3442 15.2501 16.5271 14.8453 16.6798C14.819 16.6898 14.8072 16.7205 14.8201 16.7459C15.0433 17.1782 15.2982 17.5898 15.5788 17.9803C15.5905 17.9968 15.6116 18.0038 15.6309 17.9979C16.8454 17.6223 18.0768 17.0555 19.3481 16.1219C19.3593 16.1136 19.3663 16.1012 19.3675 16.0877C19.6774 12.8816 18.8484 10.0967 17.1699 7.62793C17.1658 7.61968 17.1588 7.61378 17.1506 7.61024ZM9.53521 14.3985C8.80288 14.3985 8.19947 13.7262 8.19947 12.9005C8.19947 12.0748 8.79118 11.4025 9.53521 11.4025C10.2851 11.4025 10.8827 12.0807 10.8709 12.9005C10.8709 13.7262 10.2792 14.3985 9.53521 14.3985ZM14.4739 14.3985C13.7416 14.3985 13.1382 13.7262 13.1382 12.9005C13.1382 12.0748 13.7299 11.4025 14.4739 11.4025C15.2238 11.4025 15.8213 12.0807 15.8096 12.9005C15.8096 13.7262 15.2238 14.3985 14.4739 14.3985Z"
		fill="#2D2E33" />
</svg>