<svg width="200" height="200" viewBox="0 0 200 200" fill="none" xmlns="http://www.w3.org/2000/svg">
<circle cx="100" cy="100" r="100" fill="#FF4A4A"/>
<g clip-path="url(#clip0_314:15581)">
<path fill-rule="evenodd" clip-rule="evenodd" d="M121.221 119.526H114.546C113.293 119.526 112.276 118.512 112.276 117.263V99.6739L100.56 106.999C99.5775 107.614 98.3275 107.614 97.3446 106.999L85.6285 99.6731V117.263C85.6285 118.512 84.6115 119.526 83.3585 119.526H76.684C75.4295 119.526 74.4141 118.512 74.4141 117.263V83.3621C74.4141 80.9346 77.1426 79.5006 79.1507 80.8728L97.67 93.5223C98.4425 94.051 99.4625 94.051 100.236 93.5223L118.753 80.8728C120.762 79.4999 123.491 80.9339 123.491 83.3613V117.263C123.491 118.512 122.475 119.526 121.221 119.526Z" fill="white"/>
<path fill-rule="evenodd" clip-rule="evenodd" d="M64.3602 119.226L23.0122 119.225C21.3487 119.225 20 117.879 20 116.22V82.2537C20 81.0089 21.0113 80 22.2591 80H28.9017C30.1488 80 31.1608 81.0089 31.1608 82.2537V108.091L56.2116 108.092V82.2537C56.2116 81.0089 57.2221 80 58.4707 80H65.1133C66.3603 80 67.3724 81.0089 67.3724 82.2537V116.221C67.3724 117.88 66.0237 119.226 64.3602 119.226Z" fill="white"/>
<path fill-rule="evenodd" clip-rule="evenodd" d="M133.449 80L174.797 80.0008C176.46 80.0008 177.809 81.3462 177.809 83.0057V116.972C177.809 118.217 176.797 119.226 175.55 119.226H168.907C167.659 119.226 166.648 118.217 166.648 116.972V92.6372C166.648 91.8079 165.973 91.1348 165.142 91.1348L143.103 91.134C142.272 91.134 141.597 91.8064 141.597 92.6365V116.972C141.597 118.217 140.586 119.226 139.338 119.226H132.696C131.448 119.226 130.437 118.217 130.437 116.972V83.0049C130.437 81.3455 131.785 80 133.449 80Z" fill="white"/>
<path fill-rule="evenodd" clip-rule="evenodd" d="M148.542 100.644V107.331C148.542 108.567 149.554 109.569 150.803 109.569H157.445C158.694 109.569 159.706 108.567 159.706 107.331V100.644C159.706 99.4074 158.694 98.4053 157.445 98.4053H150.803C149.554 98.4053 148.542 99.4074 148.542 100.644Z" fill="white"/>
</g>
<defs>
<clipPath id="clip0_314:15581">
<rect width="157.807" height="40.3158" fill="white" transform="translate(20 80)"/>
</clipPath>
</defs>
</svg>
