<svg width="32" height="32" viewBox="0 0 32 32" fill="none" xmlns="http://www.w3.org/2000/svg">
<path d="M0 16C0 7.16344 7.16344 0 16 0C24.8366 0 32 7.16344 32 16C32 24.8366 24.8366 32 16 32C7.16344 32 0 24.8366 0 16Z" fill="#FF4D4D"/>
<path fill-rule="evenodd" clip-rule="evenodd" d="M19.1113 18.9897H18.1808C18.006 18.9897 17.8643 18.8483 17.8643 18.6742V16.2221L16.231 17.2433C16.094 17.329 15.9197 17.329 15.7827 17.2433L14.1493 16.222V18.6742C14.1493 18.8483 14.0076 18.9897 13.8329 18.9897H12.9024C12.7275 18.9897 12.5859 18.8483 12.5859 18.6742V13.9481C12.5859 13.6097 12.9663 13.4098 13.2463 13.601L15.828 15.3645C15.9357 15.4382 16.0779 15.4382 16.1858 15.3645L18.7673 13.601C19.0474 13.4096 19.4278 13.6096 19.4278 13.948V18.6742C19.4278 18.8483 19.2861 18.9897 19.1113 18.9897Z" fill="white"/>
<path fill-rule="evenodd" clip-rule="evenodd" d="M11.1843 18.9474L5.41993 18.9473C5.18802 18.9473 5 18.7598 5 18.5284V13.7932C5 13.6197 5.14099 13.479 5.31495 13.479H6.24099C6.41484 13.479 6.55594 13.6197 6.55594 13.7932V17.3951L10.0483 17.3953V13.7932C10.0483 13.6197 10.1891 13.479 10.3632 13.479H11.2892C11.4631 13.479 11.6042 13.6197 11.6042 13.7932V18.5285C11.6042 18.7599 11.4162 18.9474 11.1843 18.9474Z" fill="white"/>
<path fill-rule="evenodd" clip-rule="evenodd" d="M20.8157 13.4792L26.58 13.4794C26.8119 13.4794 27 13.6669 27 13.8983V18.6335C27 18.807 26.8589 18.9477 26.685 18.9477H25.759C25.585 18.9477 25.444 18.807 25.444 18.6335V15.241C25.444 15.1254 25.35 15.0315 25.2341 15.0315L22.1617 15.0314C22.0458 15.0314 21.9517 15.1252 21.9517 15.2409V18.6335C21.9517 18.807 21.8107 18.9477 21.6367 18.9477H20.7107C20.5367 18.9477 20.3958 18.807 20.3958 18.6335V13.8982C20.3958 13.6668 20.5838 13.4792 20.8157 13.4792Z" fill="white"/>
<path fill-rule="evenodd" clip-rule="evenodd" d="M22.9199 16.3573V17.2895C22.9199 17.4619 23.061 17.6016 23.2351 17.6016H24.1611C24.3352 17.6016 24.4763 17.4619 24.4763 17.2895V16.3573C24.4763 16.1849 24.3352 16.0452 24.1611 16.0452H23.2351C23.061 16.0452 22.9199 16.1849 22.9199 16.3573Z" fill="white"/>
</svg>
