<svg width="33" height="32" viewBox="0 0 33 32" fill="none" xmlns="http://www.w3.org/2000/svg">
<rect x="0.5" width="32" height="32" rx="16" fill="#FF007A"/>
<g clip-path="url(#clip0_889_1075)">
<path d="M12.8381 8.06798C12.5964 8.02931 12.5861 8.02531 12.7005 8.00798C12.9191 7.97331 13.4334 8.01998 13.7882 8.10665C14.6162 8.30931 15.3696 8.82931 16.1745 9.75331L16.3879 9.99865L16.6939 9.94798C17.9822 9.73465 19.291 9.90398 20.3877 10.4253C20.6899 10.5693 21.1656 10.8546 21.2234 10.928C21.244 10.952 21.2787 11.1013 21.3006 11.2626C21.3829 11.82 21.343 12.2453 21.1772 12.564C21.0872 12.7373 21.082 12.792 21.1425 12.9413C21.1713 13.0028 21.2163 13.0547 21.2722 13.091C21.3281 13.1273 21.3928 13.1466 21.4587 13.1466C21.7313 13.1466 22.0244 12.6933 22.1594 12.0613L22.2134 11.8093L22.3202 11.9346C22.9077 12.62 23.368 13.5533 23.4464 14.2173L23.467 14.3906L23.3693 14.2333C23.2273 13.9923 23.0364 13.7863 22.81 13.6293C22.4166 13.3613 22 13.2693 20.8995 13.2093C19.9043 13.156 19.3412 13.068 18.7832 12.88C17.8331 12.56 17.3548 12.136 16.2259 10.6106C15.7245 9.93198 15.4159 9.55731 15.1074 9.25598C14.4067 8.56931 13.7188 8.20931 12.8381 8.06931V8.06798Z" fill="#2D2E33"/>
<path d="M21.45 9.58136C21.4745 9.12803 21.5336 8.82803 21.6544 8.55469C21.6809 8.48562 21.7141 8.4195 21.7534 8.35736C21.7599 8.35736 21.7393 8.43736 21.7072 8.53469C21.6197 8.80136 21.6043 9.16403 21.666 9.58669C21.7432 10.1227 21.7856 10.2 22.3346 10.7787C22.593 11.0507 22.8926 11.392 23.0019 11.54L23.1999 11.8067L23.0019 11.616C22.7602 11.3827 22.2047 10.9267 22.0813 10.8614C21.999 10.8187 21.9862 10.8187 21.936 10.8707C21.8884 10.9187 21.8794 10.9907 21.8717 11.332C21.8627 11.864 21.792 12.2054 21.6223 12.5454C21.531 12.732 21.5169 12.692 21.5992 12.4827C21.6609 12.328 21.6673 12.2587 21.6673 11.744C21.6673 10.7107 21.5464 10.4614 20.8483 10.0374C20.6377 9.91123 20.4215 9.79554 20.2003 9.69069C20.0913 9.64526 19.9856 9.59179 19.884 9.53069C19.9033 9.51069 20.5847 9.71603 20.8586 9.82403C21.2675 9.98669 21.3343 10.0067 21.3845 9.98803C21.4166 9.97469 21.4333 9.87469 21.4487 9.58136H21.45ZM13.3077 11.3507C12.8178 10.6547 12.5131 9.58669 12.58 8.78803L12.5992 8.54136L12.7111 8.56136C12.922 8.60136 13.2832 8.74003 13.453 8.84669C13.9171 9.13736 14.1189 9.52003 14.3234 10.504C14.3838 10.792 14.4622 11.1174 14.4982 11.2294C14.5561 11.4067 14.7772 11.8214 14.9559 12.0907C15.0845 12.2854 14.9997 12.3774 14.7142 12.3507C14.2784 12.3107 13.6882 11.8907 13.3077 11.3507ZM20.8535 16.5334C18.5598 15.5827 17.7523 14.756 17.7523 13.3627C17.7523 13.1574 17.7588 12.9894 17.7678 12.9894C17.7755 12.9894 17.8642 13.056 17.9645 13.14C18.4299 13.524 18.9506 13.688 20.3932 13.9054C21.2417 14.0334 21.7174 14.136 22.1584 14.2867C23.5599 14.7654 24.4251 15.736 24.6321 17.06C24.6913 17.444 24.6578 18.164 24.5588 18.544C24.4817 18.844 24.2477 19.384 24.186 19.4054C24.168 19.412 24.1513 19.344 24.1474 19.2507C24.1243 18.7547 23.88 18.2707 23.4711 17.908C23.0057 17.496 22.3809 17.168 20.8535 16.5347V16.5334ZM19.2438 16.9294C19.2168 16.7605 19.1799 16.5935 19.1332 16.4294L19.074 16.2494L19.1833 16.376C19.3338 16.5494 19.4533 16.772 19.5536 17.0694C19.6308 17.296 19.6385 17.3627 19.6385 17.7307C19.6385 18.092 19.6282 18.168 19.5562 18.3707C19.4574 18.6712 19.2918 18.9435 19.0728 19.1654C18.6536 19.6054 18.1149 19.848 17.3371 19.9494C17.2021 19.9667 16.8086 19.996 16.4628 20.0147C15.5898 20.0614 15.0151 20.1587 14.4995 20.3454C14.4528 20.3667 14.4027 20.3789 14.3517 20.3814C14.3311 20.36 14.6834 20.144 14.9727 20C15.3815 19.796 15.7891 19.6854 16.7019 19.5294C17.1519 19.452 17.6186 19.3574 17.7369 19.32C18.8529 18.968 19.4276 18.0574 19.2438 16.9294Z" fill="#2D2E33"/>
<path d="M20.2954 18.8547C19.9906 18.18 19.9199 17.528 20.0871 16.92C20.1051 16.8533 20.1334 16.8013 20.1514 16.8013C20.1681 16.8013 20.2414 16.8413 20.3108 16.8907C20.4522 16.988 20.7325 17.152 21.4833 17.5733C22.4193 18.1 22.9542 18.5067 23.3168 18.9733C23.6343 19.38 23.831 19.8453 23.9262 20.4107C23.9802 20.7307 23.948 21.504 23.8683 21.8267C23.6163 22.8453 23.0326 23.6453 22.1969 24.112C22.0748 24.18 21.9655 24.236 21.9526 24.236C21.9411 24.236 21.986 24.12 22.0516 23.9773C22.3332 23.372 22.3653 22.784 22.1532 22.1293C22.022 21.728 21.7572 21.2387 21.2223 20.4107C20.6001 19.4507 20.4483 19.1933 20.2954 18.8547ZM11.6786 22.4987C12.531 21.7573 13.5891 21.232 14.5547 21.0693C15.052 21.0032 15.5565 21.0235 16.0474 21.1293C16.6645 21.292 17.2174 21.6573 17.5041 22.0907C17.7844 22.516 17.9052 22.8853 18.0312 23.7093C18.0801 24.0333 18.1341 24.36 18.1495 24.4333C18.2434 24.86 18.4272 25.2013 18.6535 25.372C19.0135 25.644 19.6358 25.6613 20.2465 25.416C20.3099 25.3857 20.3769 25.3642 20.4458 25.352C20.4676 25.3747 20.1604 25.5867 19.9444 25.6987C19.6881 25.84 19.4014 25.9116 19.1112 25.9067C18.5519 25.9067 18.0878 25.6133 17.6995 25.016C17.5571 24.7631 17.43 24.5013 17.319 24.232C16.9101 23.2707 16.7082 22.9787 16.2338 22.6573C15.8198 22.3773 15.2863 22.328 14.8851 22.5307C14.358 22.7973 14.2114 23.4907 14.5894 23.9307C14.766 24.1197 14.997 24.2442 15.2477 24.2853C15.3473 24.2995 15.4486 24.2913 15.5448 24.2612C15.641 24.2312 15.7299 24.18 15.8054 24.1112C15.8809 24.0424 15.9412 23.9576 15.9823 23.8625C16.0234 23.7674 16.0443 23.6642 16.0435 23.56C16.0435 23.2707 15.9355 23.1067 15.6643 22.9787C15.2927 22.8067 14.8954 23.008 14.8967 23.3667C14.8967 23.52 14.9623 23.616 15.1114 23.6867C15.2065 23.7307 15.2091 23.7333 15.1307 23.7173C14.7913 23.644 14.7115 23.2213 14.9841 22.9413C15.3133 22.6053 15.9921 22.7533 16.2248 23.2133C16.3225 23.4067 16.3341 23.7907 16.2492 24.0227C16.0564 24.5427 15.501 24.816 14.9353 24.6667C14.5495 24.5653 14.394 24.456 13.9298 23.964C13.1237 23.108 12.8113 22.9413 11.649 22.7547L11.4253 22.7187L11.6786 22.4987Z" fill="#2D2E33"/>
<path fill-rule="evenodd" clip-rule="evenodd" d="M7.89617 7.17869C10.5884 10.5467 12.4437 11.936 12.6494 12.2294C12.8191 12.472 12.7548 12.6907 12.4643 12.8614C12.2576 12.969 12.0327 13.0338 11.8021 13.052C11.6131 13.052 11.5476 12.9774 11.5476 12.9774C11.4383 12.8707 11.3766 12.8894 10.8147 11.8614C10.337 11.0904 9.85359 10.3232 9.36444 9.56002C9.3233 9.52002 9.32458 9.52002 10.7363 12.124C10.9639 12.6667 10.7813 12.8654 10.7813 12.9427C10.7813 13.1 10.7389 13.1827 10.5511 13.4C10.2374 13.76 10.0973 14.1654 9.99572 15.004C9.88258 15.944 9.56372 16.608 8.67916 17.7454C8.16231 18.4107 8.07745 18.532 7.94631 18.8014C7.78174 19.1387 7.73674 19.328 7.71874 19.7534C7.69945 20.2054 7.73674 20.496 7.87045 20.9267C7.98616 21.3054 8.10959 21.5534 8.42202 22.052C8.69202 22.4827 8.8463 22.8027 8.8463 22.928C8.8463 23.0267 8.8643 23.0267 9.28344 22.9294C10.2811 22.6974 11.0924 22.2894 11.5488 21.7867C11.8317 21.476 11.8973 21.3054 11.8998 20.88C11.9011 20.6027 11.8921 20.544 11.8188 20.384C11.7006 20.124 11.4846 19.9067 11.0089 19.5707C10.384 19.1307 10.1166 18.7774 10.0446 18.2907C9.98286 17.8907 10.0536 17.6094 10.3981 16.864C10.7556 16.0907 10.8443 15.7614 10.9047 14.984C10.9433 14.4814 10.996 14.2827 11.1361 14.1227C11.2827 13.9574 11.4138 13.9014 11.7764 13.8507C12.3666 13.7667 12.7407 13.6107 13.0493 13.3174C13.1729 13.2115 13.2727 13.0788 13.3416 12.9286C13.4105 12.7784 13.4467 12.6143 13.4478 12.448L13.4607 12.168L13.3103 11.9894C12.769 11.3387 7.5336 6.66669 7.50017 6.66669C7.49374 6.66669 7.67117 6.89735 7.89617 7.17869ZM9.15101 20.2654C9.21 20.1573 9.22753 20.0302 9.20013 19.9093C9.17272 19.7885 9.10239 19.6828 9.00316 19.6134C8.8103 19.48 8.50816 19.544 8.50816 19.716C8.50816 19.7694 8.53645 19.808 8.60073 19.8414C8.70873 19.8987 8.71644 19.9627 8.63159 20.0947C8.54545 20.2267 8.55316 20.3427 8.65087 20.4227C8.80901 20.5494 9.03273 20.48 9.15101 20.2654ZM13.8323 13.9987C13.5558 14.0854 13.2871 14.388 13.2023 14.7054C13.1521 14.8987 13.1817 15.2387 13.2575 15.3427C13.381 15.512 13.4993 15.556 13.822 15.5547C14.452 15.5507 14.9997 15.272 15.064 14.9227C15.1154 14.6374 14.875 14.2427 14.5432 14.068C14.3179 13.9731 14.0707 13.949 13.8323 13.9987ZM14.5702 14.592C14.6667 14.4494 14.6242 14.296 14.4584 14.192C14.1447 13.9934 13.6677 14.1574 13.6677 14.464C13.6677 14.6174 13.9158 14.784 14.1434 14.784C14.2951 14.784 14.5034 14.6907 14.5702 14.592Z" fill="#2D2E33"/>
</g>
<defs>
<clipPath id="clip0_889_1075">
<rect width="18" height="20" fill="white" transform="translate(7.5 6)"/>
</clipPath>
</defs>
</svg>
