<svg width="33" height="32" viewBox="0 0 33 32" fill="none" xmlns="http://www.w3.org/2000/svg">
<rect x="0.5" width="32" height="32" rx="16" fill="#215FFF"/>
<path d="M13.3918 24.9017C8.63799 23.1215 6.20011 17.5897 7.96764 12.6936C8.88182 10.023 10.893 7.9884 13.3918 7.03464C13.6356 6.90752 13.7574 6.71677 13.7574 6.39875V5.50862C13.7574 5.25423 13.6356 5.06348 13.3918 5C13.3308 5 13.2089 5 13.1479 5.06348C7.35813 6.97101 4.1889 13.3931 6.01727 19.4335C7.1143 22.9942 9.73502 25.7284 13.1479 26.8729C13.3918 27 13.6356 26.8729 13.6964 26.6185C13.7574 26.555 13.7574 26.4914 13.7574 26.3643V25.474C13.7574 25.2832 13.5746 25.029 13.3918 24.9017ZM19.8521 5.06348C19.6082 4.93636 19.3644 5.06348 19.3036 5.31787C19.2426 5.3815 19.2426 5.44499 19.2426 5.57226V6.46238C19.2426 6.71677 19.4254 6.97101 19.6082 7.09828C24.362 8.87853 26.7999 14.4103 25.0324 19.3064C24.1182 21.977 22.107 24.0116 19.6082 24.9654C19.3644 25.0925 19.2426 25.2832 19.2426 25.6013V26.4914C19.2426 26.7458 19.3644 26.9365 19.6082 27C19.6692 27 19.7911 27 19.8521 26.9365C25.6419 25.029 28.8111 18.6069 26.9827 12.5665C25.8857 8.94216 23.204 6.208 19.8521 5.06348V5.06348Z" fill="#2D2E33"/>
<path d="M21.5 18.3568C21.5 16.0332 19.9328 15.2365 16.7985 14.9046C14.5597 14.639 14.1119 14.108 14.1119 13.1784C14.1119 12.2488 14.8582 11.6515 16.3507 11.6515C17.694 11.6515 18.4403 12.0498 18.8134 13.0457C18.8881 13.2448 19.112 13.3776 19.3359 13.3776H20.5298C20.8284 13.3776 21.0522 13.1784 21.0522 12.913V12.8465C20.7537 11.3859 19.4104 10.2573 17.694 10.1246V8.53122C17.694 8.26561 17.4701 8.06644 17.097 8H15.9776C15.6791 8 15.4552 8.19917 15.3805 8.53122V10.0581C13.1417 10.3238 11.7239 11.6515 11.7239 13.3113C11.7239 15.5022 13.2164 16.3651 16.3507 16.6972C18.4403 17.0291 19.112 17.4274 19.112 18.4897C19.112 19.552 18.0671 20.2822 16.6493 20.2822C14.7089 20.2822 14.0372 19.5518 13.8133 18.556C13.7388 18.2905 13.5149 18.1576 13.2911 18.1576H12.0223C11.7239 18.1576 11.5 18.3568 11.5 18.6224V18.6889C11.7984 20.3485 12.9925 21.5435 15.4552 21.8756V23.4689C15.4552 23.7344 15.6791 23.9336 16.0521 24H17.1716C17.4701 24 17.694 23.8008 17.7687 23.4689V21.8756C20.0075 21.5435 21.5 20.1493 21.5 18.3568V18.3568Z" fill="#2D2E33"/>
</svg>
