<svg width="10" height="10" viewBox="0 0 10 10" fill="none" xmlns="http://www.w3.org/2000/svg">
<path fill-rule="evenodd" clip-rule="evenodd" d="M8.64938 0.112314C8.86269 0.244551 9.00476 0.480798 9.00476 0.750228V6.0032C9.00476 6.41741 8.66897 6.7532 8.25476 6.7532C7.84055 6.7532 7.50476 6.41741 7.50476 6.0032V2.56013L1.28033 8.78456C0.987437 9.07745 0.512563 9.07745 0.21967 8.78456C-0.0732233 8.49167 -0.0732233 8.01679 0.21967 7.7239L6.44334 1.50023H3.00179C2.58758 1.50023 2.25179 1.16444 2.25179 0.750228C2.25179 0.336015 2.58758 0.000228152 3.00179 0.000228152H8.23508C8.37868 -0.00342011 8.52314 0.0339419 8.64938 0.112314Z" fill="#E0F3FF"/>
</svg>
