<svg width="48" height="48" viewBox="0 0 48 48" fill="none" xmlns="http://www.w3.org/2000/svg">
<path d="M14.0895 7.76832C16.1434 7.83773 18.127 7.01607 19.5303 5.51469C21.9484 2.92733 26.0516 2.92733 28.4697 5.51469C29.873 7.01608 31.8566 7.83773 33.9105 7.76832C37.45 7.6487 40.3513 10.55 40.2317 14.0895C40.1623 16.1434 40.9839 18.127 42.4853 19.5303C45.0727 21.9484 45.0727 26.0516 42.4853 28.4697C40.9839 29.873 40.1623 31.8566 40.2317 33.9105C40.3513 37.45 37.45 40.3513 33.9105 40.2317C31.8566 40.1623 29.873 40.9839 28.4697 42.4853C26.0516 45.0727 21.9484 45.0727 19.5303 42.4853C18.127 40.9839 16.1434 40.1623 14.0895 40.2317C10.55 40.3513 7.6487 37.45 7.76832 33.9105C7.83773 31.8566 7.01608 29.873 5.51469 28.4697C2.92733 26.0516 2.92733 21.9484 5.51469 19.5303C7.01608 18.127 7.83773 16.1434 7.76832 14.0895C7.6487 10.55 10.55 7.6487 14.0895 7.76832Z" fill="#2D2E33" stroke="#9DAAB2"/>
<path fill-rule="evenodd" clip-rule="evenodd" d="M28.7954 18L30 19.2083L25.9616 23.246C25.8557 22.9714 25.6934 22.722 25.4852 22.5139C25.277 22.3058 25.0275 22.1435 24.7527 22.0377L28.7954 18ZM23.2473 22.0377L19.2089 18L18 19.2083L22.0384 23.246C22.1448 22.9712 22.3077 22.7217 22.5164 22.5136C22.7252 22.3054 22.9752 22.1433 23.2505 22.0377H23.2473ZM22.0384 24.7508L18 28.7874L19.2121 30L23.2505 25.9623C22.9754 25.856 22.7258 25.6933 22.5176 25.4846C22.3093 25.276 22.1472 25.026 22.0416 24.7508H22.0384ZM24.7527 25.9581L28.7954 30L30 28.7874L25.9616 24.7508C25.856 25.025 25.6942 25.274 25.4866 25.482C25.2789 25.6899 25.03 25.852 24.7559 25.9581H24.7527Z" fill="#9DAAB2"/>
</svg>
