<svg width="66" height="66" viewBox="0 0 66 66" fill="none" xmlns="http://www.w3.org/2000/svg">
    <path id="path-to-animate"
        d="M36.7937 50.1998C30.8795 51.602 24.403 49.9985 19.7938 45.3893C13.838 39.4334 12.6718 30.5899 16.9756 23.5859C18.7526 20.6912 20.4394 18.9628 21.9041 17.512C27.9155 11.5284 38.9595 0.623211 38.9595 0.623211C28.6513 -1.41761 17.5448 1.55338 9.54811 9.54311C-3.1827 22.2739 -3.1827 42.9042 9.54811 55.635C13.4909 59.5778 18.1973 62.2989 23.1952 63.7983L36.7937 50.1998Z"
        fill="#9DAAB3" />
    <path id="path-to-animate"
        d="M28.3962 14.9783C34.3104 13.5761 40.7869 15.1796 45.3961 19.7888C51.3519 25.7447 52.5181 34.5882 48.2144 41.5922C46.4373 44.4869 44.7505 46.2153 43.2859 47.6661C37.2745 53.6567 26.2305 64.5618 26.2305 64.5618C36.5387 66.6027 47.6452 63.6317 55.6418 55.642C68.3726 42.9111 68.3726 22.2809 55.6418 9.55005C51.699 5.60724 46.9927 2.88616 41.9947 1.38678L28.3962 14.9853V14.9783Z"
        fill="#9DAAB3" />
</svg>