<svg width="64" height="64" viewBox="0 0 64 64" fill="none" xmlns="http://www.w3.org/2000/svg">
<path d="M25.9186 7.23911C29.2087 3.71882 34.7913 3.71882 38.0814 7.23911C39.9195 9.20581 42.518 10.2821 45.2084 10.1912C50.0241 10.0284 53.9716 13.9759 53.8088 18.7916C53.7179 21.482 54.7942 24.0805 56.7609 25.9186C60.2812 29.2087 60.2812 34.7913 56.7609 38.0814C54.7942 39.9195 53.7179 42.518 53.8088 45.2084C53.9716 50.0241 50.0241 53.9716 45.2084 53.8088C42.518 53.7179 39.9195 54.7942 38.0814 56.7609C34.7913 60.2812 29.2087 60.2812 25.9186 56.7609C24.0805 54.7942 21.482 53.7179 18.7916 53.8088C13.9759 53.9716 10.0284 50.0241 10.1912 45.2084C10.2821 42.518 9.20581 39.9195 7.23911 38.0814C3.71882 34.7913 3.71882 29.2087 7.23911 25.9186C9.20581 24.0805 10.2821 21.482 10.1912 18.7916C10.0284 13.9759 13.9759 10.0284 18.7916 10.1912C21.482 10.2821 24.0805 9.20581 25.9186 7.23911Z" fill="#34353B" stroke="#44D2FF"/>
<path d="M22.9442 37.2607C22.7198 37.6089 22.8201 38.073 23.1682 38.2974C23.5164 38.5219 23.9805 38.4216 24.205 38.0734L22.9442 37.2607ZM40.1705 26.4258L40.8607 26.1324L40.5806 25.4733L39.9093 25.7227L40.1705 26.4258ZM35.783 27.2556C35.3947 27.3999 35.1968 27.8316 35.3411 28.2199C35.4853 28.6081 35.917 28.806 36.3053 28.6617L35.783 27.2556ZM41.0005 30.2959C41.1625 30.6771 41.6029 30.8548 41.9841 30.6928C42.3653 30.5308 42.543 30.0904 42.381 29.7092L41.0005 30.2959ZM24.205 38.0734L28.1816 31.9046L26.9208 31.0918L22.9442 37.2607L24.205 38.0734ZM30.4794 32.4976L30.6432 34.9231L32.1398 34.822L31.976 32.3965L30.4794 32.4976ZM35.8042 36.0489L40.8297 26.7834L39.5112 26.0682L34.4857 35.3338L35.8042 36.0489ZM39.9093 25.7227L35.783 27.2556L36.3053 28.6617L40.4317 27.1288L39.9093 25.7227ZM39.4802 26.7192L41.0005 30.2959L42.381 29.7092L40.8607 26.1324L39.4802 26.7192ZM30.6432 34.9231C30.8288 37.6714 34.491 38.4703 35.8042 36.0489L34.4857 35.3338C33.8888 36.4344 32.2241 36.0713 32.1398 34.822L30.6432 34.9231ZM28.1816 31.9046C28.8336 30.893 30.3983 31.2969 30.4794 32.4976L31.976 32.3965C31.7976 29.7549 28.3554 28.8665 26.9208 31.0918L28.1816 31.9046Z" fill="#44D2FF"/>
</svg>
