<svg width="64" height="64" viewBox="0 0 64 64" fill="none" xmlns="http://www.w3.org/2000/svg">
<path d="M25.9186 7.23911C29.2087 3.71882 34.7913 3.71882 38.0814 7.23911C39.9195 9.20581 42.518 10.2821 45.2084 10.1912C50.0241 10.0284 53.9716 13.9759 53.8088 18.7916C53.7179 21.482 54.7942 24.0805 56.7609 25.9186C60.2812 29.2087 60.2812 34.7913 56.7609 38.0814C54.7942 39.9195 53.7179 42.518 53.8088 45.2084C53.9716 50.0241 50.0241 53.9716 45.2084 53.8088C42.518 53.7179 39.9195 54.7942 38.0814 56.7609C34.7913 60.2812 29.2087 60.2812 25.9186 56.7609C24.0805 54.7942 21.482 53.7179 18.7916 53.8088C13.9759 53.9716 10.0284 50.0241 10.1912 45.2084C10.2821 42.518 9.20581 39.9195 7.23911 38.0814C3.71882 34.7913 3.71882 29.2087 7.23911 25.9186C9.20581 24.0805 10.2821 21.482 10.1912 18.7916C10.0284 13.9759 13.9759 10.0284 18.7916 10.1912C21.482 10.2821 24.0805 9.20581 25.9186 7.23911Z" fill="#34353B" stroke="#6CF9D8"/>
<path fill-rule="evenodd" clip-rule="evenodd" d="M23.8921 25.3475L25.3636 23.876L31.2421 29.7545C30.8868 29.9065 30.5539 30.1276 30.2639 30.4176C30.0374 30.6441 29.8529 30.8968 29.7106 31.166L23.8921 25.3475ZM29.603 33.8588L23.8048 39.6569L25.2763 41.1285L31.0169 35.3879C30.746 35.2452 30.4918 35.0599 30.2639 34.8321C29.9752 34.5434 29.7549 34.2123 29.603 33.8588ZM33.9301 35.3855L39.5883 41.0437L41.0598 39.5721L35.3415 33.8539C35.1895 34.2092 34.9685 34.5421 34.6785 34.8321C34.4519 35.0587 34.1992 35.2431 33.9301 35.3855ZM35.2342 31.1706L40.9725 25.4323L39.501 23.9608L33.7051 29.7566C34.0586 29.9086 34.3898 30.1289 34.6785 30.4176C34.9063 30.6454 35.0916 30.8997 35.2342 31.1706Z" fill="#6CF9D8"/>
</svg>
